<?xml version="1.0" encoding="UTF-8" standalone="no"?>
<!DOCTYPE svg PUBLIC "-//W3C//DTD SVG 1.1//EN"
 "http://www.w3.org/Graphics/SVG/1.1/DTD/svg11.dtd">
<!-- Generated by graphviz version 14.1.0 (20251206.1807)
 -->
<!-- Title: Source/Pyrano/Public/Simulation/CaptureRequest.h Pages: 1 -->
<svg width="703pt" height="200pt"
 viewBox="0.00 0.00 703.00 200.00" xmlns="http://www.w3.org/2000/svg" xmlns:xlink="http://www.w3.org/1999/xlink">
<g id="graph0" class="graph" transform="scale(1 1) rotate(0) translate(4 196)">
<title>Source/Pyrano/Public/Simulation/CaptureRequest.h</title>
<!-- Node1 -->
<g id="Node000001" class="node">
<title>Node1</title>
<g id="a_Node000001"><a xlink:title=" ">
<polygon fill="#999999" stroke="#666666" points="437.12,-192 289.88,-192 289.88,-160 437.12,-160 437.12,-192"/>
<text xml:space="preserve" text-anchor="start" x="297.88" y="-178.5" font-family="Helvetica,sans-Serif" font-size="10.00">Source/Pyrano/Public</text>
<text xml:space="preserve" text-anchor="middle" x="363.5" y="-166.5" font-family="Helvetica,sans-Serif" font-size="10.00">/Simulation/CaptureRequest.h</text>
</a>
</g>
</g>
<!-- Node2 -->
<g id="Node000002" class="node">
<title>Node2</title>
<g id="a_Node000002"><a xlink:href="_irradiance_exporter_8cpp.html" target="_top" xlink:title=" ">
<polygon fill="white" stroke="#666666" points="163,-118 0,-118 0,-86 163,-86 163,-118"/>
<text xml:space="preserve" text-anchor="start" x="8" y="-104.5" font-family="Helvetica,sans-Serif" font-size="10.00">Source/Pyrano/Private</text>
<text xml:space="preserve" text-anchor="middle" x="81.5" y="-92.5" font-family="Helvetica,sans-Serif" font-size="10.00">/Irradiance/IrradianceExporter.cpp</text>
</a>
</g>
</g>
<!-- Node1&#45;&gt;Node2 -->
<g id="edge1_Node000001_Node000002" class="edge">
<title>Node1&#45;&gt;Node2</title>
<g id="a_edge1_Node000001_Node000002"><a xlink:title=" ">
<path fill="none" stroke="#63b8ff" d="M292.12,-156.78C245.73,-144.93 185.92,-129.66 141.9,-118.42"/>
<polygon fill="#63b8ff" stroke="#63b8ff" points="290.98,-160.1 301.54,-159.18 292.71,-153.31 290.98,-160.1"/>
</a>
</g>
</g>
<!-- Node3 -->
<g id="Node000003" class="node">
<title>Node3</title>
<g id="a_Node000003"><a xlink:href="_irradiance_scheduler_8h.html" target="_top" xlink:title=" ">
<polygon fill="white" stroke="#666666" points="538.62,-118 376.38,-118 376.38,-86 538.62,-86 538.62,-118"/>
<text xml:space="preserve" text-anchor="start" x="384.38" y="-104.5" font-family="Helvetica,sans-Serif" font-size="10.00">Source/Pyrano/Public</text>
<text xml:space="preserve" text-anchor="middle" x="457.5" y="-92.5" font-family="Helvetica,sans-Serif" font-size="10.00">/Simulation/IrradianceScheduler.h</text>
</a>
</g>
</g>
<!-- Node1&#45;&gt;Node3 -->
<g id="edge2_Node000001_Node000003" class="edge">
<title>Node1&#45;&gt;Node3</title>
<g id="a_edge2_Node000001_Node000003"><a xlink:title=" ">
<path fill="none" stroke="#63b8ff" d="M392.51,-152.78C407.01,-141.67 424.21,-128.5 437.27,-118.5"/>
<polygon fill="#63b8ff" stroke="#63b8ff" points="390.45,-149.95 384.64,-158.81 394.7,-155.51 390.45,-149.95"/>
</a>
</g>
</g>
<!-- Node6 -->
<g id="Node000006" class="node">
<title>Node6</title>
<g id="a_Node000006"><a xlink:href="_irradiance_subsystem_8h.html" target="_top" xlink:title=" ">
<polygon fill="white" stroke="#666666" points="358.12,-118 180.88,-118 180.88,-86 358.12,-86 358.12,-118"/>
<text xml:space="preserve" text-anchor="start" x="188.88" y="-104.5" font-family="Helvetica,sans-Serif" font-size="10.00">Source/Pyrano/Public</text>
<text xml:space="preserve" text-anchor="middle" x="269.5" y="-92.5" font-family="Helvetica,sans-Serif" font-size="10.00">/Subsystems/IrradianceSubsystem.h</text>
</a>
</g>
</g>
<!-- Node1&#45;&gt;Node6 -->
<g id="edge5_Node000001_Node000006" class="edge">
<title>Node1&#45;&gt;Node6</title>
<g id="a_edge5_Node000001_Node000006"><a xlink:title=" ">
<path fill="none" stroke="#63b8ff" d="M334.49,-152.78C319.99,-141.67 302.79,-128.5 289.73,-118.5"/>
<polygon fill="#63b8ff" stroke="#63b8ff" points="332.3,-155.51 342.36,-158.81 336.55,-149.95 332.3,-155.51"/>
</a>
</g>
</g>
<!-- Node8 -->
<g id="Node000008" class="node">
<title>Node8</title>
<g id="a_Node000008"><a xlink:href="_pyrano_editor_subsystem_8h.html" target="_top" xlink:title=" ">
<polygon fill="white" stroke="#666666" points="690,-124 557,-124 557,-80 690,-80 690,-124"/>
<text xml:space="preserve" text-anchor="start" x="565" y="-110.5" font-family="Helvetica,sans-Serif" font-size="10.00">Source/PyranoEditor</text>
<text xml:space="preserve" text-anchor="start" x="565" y="-98.5" font-family="Helvetica,sans-Serif" font-size="10.00">/Private/Subsystems</text>
<text xml:space="preserve" text-anchor="middle" x="623.5" y="-86.5" font-family="Helvetica,sans-Serif" font-size="10.00">/PyranoEditorSubsystem.h</text>
</a>
</g>
</g>
<!-- Node1&#45;&gt;Node8 -->
<g id="edge8_Node000001_Node000008" class="edge">
<title>Node1&#45;&gt;Node8</title>
<g id="a_edge8_Node000001_Node000008"><a xlink:title=" ">
<path fill="none" stroke="#63b8ff" d="M429.96,-156.59C468.86,-145.82 517.81,-132.27 556.76,-121.48"/>
<polygon fill="#63b8ff" stroke="#63b8ff" points="429.44,-153.11 420.74,-159.15 431.31,-159.85 429.44,-153.11"/>
</a>
</g>
</g>
<!-- Node4 -->
<g id="Node000004" class="node">
<title>Node4</title>
<g id="a_Node000004"><a xlink:href="_irradiance_scheduler_8cpp.html" target="_top" xlink:title=" ">
<polygon fill="white" stroke="#666666" points="533.88,-38 361.12,-38 361.12,-6 533.88,-6 533.88,-38"/>
<text xml:space="preserve" text-anchor="start" x="369.12" y="-24.5" font-family="Helvetica,sans-Serif" font-size="10.00">Source/Pyrano/Private</text>
<text xml:space="preserve" text-anchor="middle" x="447.5" y="-12.5" font-family="Helvetica,sans-Serif" font-size="10.00">/Simulation/IrradianceScheduler.cpp</text>
</a>
</g>
</g>
<!-- Node3&#45;&gt;Node4 -->
<g id="edge3_Node000003_Node000004" class="edge">
<title>Node3&#45;&gt;Node4</title>
<g id="a_edge3_Node000003_Node000004"><a xlink:title=" ">
<path fill="none" stroke="#63b8ff" d="M454.09,-74.37C452.55,-62.37 450.79,-48.63 449.47,-38.38"/>
<polygon fill="#63b8ff" stroke="#63b8ff" points="450.59,-74.61 455.33,-84.09 457.53,-73.72 450.59,-74.61"/>
</a>
</g>
</g>
<!-- Node5 -->
<g id="Node000005" class="node">
<title>Node5</title>
<g id="a_Node000005"><a xlink:href="_pyrano_editor_subsystem_8cpp.html" target="_top" xlink:title=" ">
<polygon fill="white" stroke="#666666" points="695.25,-44 551.75,-44 551.75,0 695.25,0 695.25,-44"/>
<text xml:space="preserve" text-anchor="start" x="559.75" y="-30.5" font-family="Helvetica,sans-Serif" font-size="10.00">Source/PyranoEditor</text>
<text xml:space="preserve" text-anchor="start" x="559.75" y="-18.5" font-family="Helvetica,sans-Serif" font-size="10.00">/Private/Subsystems</text>
<text xml:space="preserve" text-anchor="middle" x="623.5" y="-6.5" font-family="Helvetica,sans-Serif" font-size="10.00">/PyranoEditorSubsystem.cpp</text>
</a>
</g>
</g>
<!-- Node3&#45;&gt;Node5 -->
<g id="edge4_Node000003_Node000005" class="edge">
<title>Node3&#45;&gt;Node5</title>
<g id="a_edge4_Node000003_Node000005"><a xlink:title=" ">
<path fill="none" stroke="#63b8ff" d="M500.43,-80.83C524.19,-69.66 553.72,-55.79 577.89,-44.43"/>
<polygon fill="#63b8ff" stroke="#63b8ff" points="499.23,-77.53 491.67,-84.95 502.21,-83.86 499.23,-77.53"/>
</a>
</g>
</g>
<!-- Node6&#45;&gt;Node4 -->
<g id="edge6_Node000006_Node000004" class="edge">
<title>Node6&#45;&gt;Node4</title>
<g id="a_edge6_Node000006_Node000004"><a xlink:title=" ">
<path fill="none" stroke="#63b8ff" d="M314.98,-81.07C345.28,-67.79 384.51,-50.6 412.41,-38.38"/>
<polygon fill="#63b8ff" stroke="#63b8ff" points="313.81,-77.76 306.05,-84.98 316.62,-84.17 313.81,-77.76"/>
</a>
</g>
</g>
<!-- Node7 -->
<g id="Node000007" class="node">
<title>Node7</title>
<g id="a_Node000007"><a xlink:href="_irradiance_subsystem_8cpp.html" target="_top" xlink:title=" ">
<polygon fill="white" stroke="#666666" points="343.38,-38 155.62,-38 155.62,-6 343.38,-6 343.38,-38"/>
<text xml:space="preserve" text-anchor="start" x="163.62" y="-24.5" font-family="Helvetica,sans-Serif" font-size="10.00">Source/Pyrano/Private</text>
<text xml:space="preserve" text-anchor="middle" x="249.5" y="-12.5" font-family="Helvetica,sans-Serif" font-size="10.00">/Subsystems/IrradianceSubsystem.cpp</text>
</a>
</g>
</g>
<!-- Node6&#45;&gt;Node7 -->
<g id="edge7_Node000006_Node000007" class="edge">
<title>Node6&#45;&gt;Node7</title>
<g id="a_edge7_Node000006_Node000007"><a xlink:title=" ">
<path fill="none" stroke="#63b8ff" d="M262.77,-74.74C259.67,-62.65 256.1,-48.73 253.44,-38.38"/>
<polygon fill="#63b8ff" stroke="#63b8ff" points="259.3,-75.31 265.17,-84.12 266.08,-73.57 259.3,-75.31"/>
</a>
</g>
</g>
<!-- Node8&#45;&gt;Node5 -->
<g id="edge9_Node000008_Node000005" class="edge">
<title>Node8&#45;&gt;Node5</title>
<g id="a_edge9_Node000008_Node000005"><a xlink:title=" ">
<path fill="none" stroke="#63b8ff" d="M623.5,-68.25C623.5,-60.15 623.5,-51.68 623.5,-44.29"/>
<polygon fill="#63b8ff" stroke="#63b8ff" points="620,-68.17 623.5,-78.17 627,-68.17 620,-68.17"/>
</a>
</g>
</g>
</g>
</svg>
