<?xml version="1.0" encoding="UTF-8" standalone="no"?>
<!DOCTYPE svg PUBLIC "-//W3C//DTD SVG 1.1//EN"
 "http://www.w3.org/Graphics/SVG/1.1/DTD/svg11.dtd">
<!-- Generated by graphviz version 14.1.0 (20251206.1807)
 -->
<!-- Title: Source/Pyrano/Public/Simulation/CaptureRequest.h Pages: 1 -->
<svg width="246pt" height="96pt"
 viewBox="0.00 0.00 246.00 96.00" xmlns="http://www.w3.org/2000/svg" xmlns:xlink="http://www.w3.org/1999/xlink">
<g id="graph0" class="graph" transform="scale(1 1) rotate(0) translate(4 92)">
<title>Source/Pyrano/Public/Simulation/CaptureRequest.h</title>
<!-- Node1 -->
<g id="Node000001" class="node">
<title>Node1</title>
<g id="a_Node000001"><a xlink:title=" ">
<polygon fill="#999999" stroke="#666666" points="177.12,-88 29.88,-88 29.88,-56 177.12,-56 177.12,-88"/>
<text xml:space="preserve" text-anchor="start" x="37.88" y="-74.5" font-family="Helvetica,sans-Serif" font-size="10.00">Source/Pyrano/Public</text>
<text xml:space="preserve" text-anchor="middle" x="103.5" y="-62.5" font-family="Helvetica,sans-Serif" font-size="10.00">/Simulation/CaptureRequest.h</text>
</a>
</g>
</g>
<!-- Node2 -->
<g id="Node000002" class="node">
<title>Node2</title>
<g id="a_Node000002"><a xlink:title=" ">
<polygon fill="#e0e0e0" stroke="#999999" points="79,-20 0,-20 0,0 79,0 79,-20"/>
<text xml:space="preserve" text-anchor="middle" x="39.5" y="-6.5" font-family="Helvetica,sans-Serif" font-size="10.00">CoreMinimal.h</text>
</a>
</g>
</g>
<!-- Node1&#45;&gt;Node2 -->
<g id="edge1_Node000001_Node000002" class="edge">
<title>Node1&#45;&gt;Node2</title>
<g id="a_edge1_Node000001_Node000002"><a xlink:title=" ">
<path fill="none" stroke="#63b8ff" d="M87.02,-55.55C78.04,-47.13 66.9,-36.69 57.67,-28.04"/>
<polygon fill="#63b8ff" stroke="#63b8ff" points="60.33,-25.73 50.64,-21.44 55.54,-30.84 60.33,-25.73"/>
</a>
</g>
</g>
<!-- Node3 -->
<g id="Node000003" class="node">
<title>Node3</title>
<g id="a_Node000003"><a xlink:title=" ">
<polygon fill="#e0e0e0" stroke="#999999" points="238.12,-20 96.88,-20 96.88,0 238.12,0 238.12,-20"/>
<text xml:space="preserve" text-anchor="middle" x="167.5" y="-6.5" font-family="Helvetica,sans-Serif" font-size="10.00">CaptureRequest.generated.h</text>
</a>
</g>
</g>
<!-- Node1&#45;&gt;Node3 -->
<g id="edge2_Node000001_Node000003" class="edge">
<title>Node1&#45;&gt;Node3</title>
<g id="a_edge2_Node000001_Node000003"><a xlink:title=" ">
<path fill="none" stroke="#63b8ff" d="M119.98,-55.55C128.96,-47.13 140.1,-36.69 149.33,-28.04"/>
<polygon fill="#63b8ff" stroke="#63b8ff" points="151.46,-30.84 156.36,-21.44 146.67,-25.73 151.46,-30.84"/>
</a>
</g>
</g>
</g>
</svg>
