<?xml version="1.0" encoding="UTF-8" standalone="no"?>
<!DOCTYPE svg PUBLIC "-//W3C//DTD SVG 1.1//EN"
 "http://www.w3.org/Graphics/SVG/1.1/DTD/svg11.dtd">
<!-- Generated by graphviz version 14.1.0 (20251206.1807)
 -->
<!-- Title: Source/PyranoEditor/Private/UI/ConsoleLogLineEntry.cpp Pages: 1 -->
<svg width="890pt" height="176pt"
 viewBox="0.00 0.00 890.00 176.00" xmlns="http://www.w3.org/2000/svg" xmlns:xlink="http://www.w3.org/1999/xlink">
<g id="graph0" class="graph" transform="scale(1 1) rotate(0) translate(4 172)">
<title>Source/PyranoEditor/Private/UI/ConsoleLogLineEntry.cpp</title>
<!-- Node1 -->
<g id="Node000001" class="node">
<title>Node1</title>
<g id="a_Node000001"><a xlink:title=" ">
<polygon fill="#999999" stroke="#666666" points="660.62,-168 524.62,-168 524.62,-124 660.62,-124 660.62,-168"/>
<text xml:space="preserve" text-anchor="start" x="532.62" y="-154.5" font-family="Helvetica,sans-Serif" font-size="10.00">Source/PyranoEditor</text>
<text xml:space="preserve" text-anchor="start" x="532.62" y="-142.5" font-family="Helvetica,sans-Serif" font-size="10.00">/Private/UI/ConsoleLogLine</text>
<text xml:space="preserve" text-anchor="middle" x="592.62" y="-130.5" font-family="Helvetica,sans-Serif" font-size="10.00">Entry.cpp</text>
</a>
</g>
</g>
<!-- Node2 -->
<g id="Node000002" class="node">
<title>Node2</title>
<g id="a_Node000002"><a xlink:href="_console_log_line_entry_8h.html" target="_top" xlink:title=" ">
<polygon fill="white" stroke="#666666" points="500.62,-88 370.62,-88 370.62,-68 500.62,-68 500.62,-88"/>
<text xml:space="preserve" text-anchor="middle" x="435.62" y="-74.5" font-family="Helvetica,sans-Serif" font-size="10.00">UI/ConsoleLogLineEntry.h</text>
</a>
</g>
</g>
<!-- Node1&#45;&gt;Node2 -->
<g id="edge1_Node000001_Node000002" class="edge">
<title>Node1&#45;&gt;Node2</title>
<g id="a_edge1_Node000001_Node000002"><a xlink:title=" ">
<path fill="none" stroke="#63b8ff" d="M541.65,-123.57C517.56,-113.44 489.5,-101.65 468.31,-92.74"/>
<polygon fill="#63b8ff" stroke="#63b8ff" points="469.87,-89.6 459.3,-88.95 467.16,-96.05 469.87,-89.6"/>
</a>
</g>
</g>
<!-- Node8 -->
<g id="Node000008" class="node">
<title>Node8</title>
<g id="a_Node000008"><a xlink:href="_console_log_line_item_8h.html" target="_top" xlink:title=" ">
<polygon fill="white" stroke="#666666" points="797.12,-88 670.12,-88 670.12,-68 797.12,-68 797.12,-88"/>
<text xml:space="preserve" text-anchor="middle" x="733.62" y="-74.5" font-family="Helvetica,sans-Serif" font-size="10.00">UI/ConsoleLogLineItem.h</text>
</a>
</g>
</g>
<!-- Node1&#45;&gt;Node8 -->
<g id="edge7_Node000001_Node000008" class="edge">
<title>Node1&#45;&gt;Node8</title>
<g id="a_edge7_Node000001_Node000008"><a xlink:title=" ">
<path fill="none" stroke="#63b8ff" d="M638.4,-123.57C659.65,-113.63 684.31,-102.08 703.22,-93.23"/>
<polygon fill="#63b8ff" stroke="#63b8ff" points="704.67,-96.42 712.25,-89.01 701.71,-90.08 704.67,-96.42"/>
</a>
</g>
</g>
<!-- Node10 -->
<g id="Node000010" class="node">
<title>Node10</title>
<g id="a_Node000010"><a xlink:href="_irradiance_log_8h.html" target="_top" xlink:title=" ">
<polygon fill="white" stroke="#666666" points="652.38,-88 532.88,-88 532.88,-68 652.38,-68 652.38,-88"/>
<text xml:space="preserve" text-anchor="middle" x="592.62" y="-74.5" font-family="Helvetica,sans-Serif" font-size="10.00">Logging/IrradianceLog.h</text>
</a>
</g>
</g>
<!-- Node1&#45;&gt;Node10 -->
<g id="edge10_Node000001_Node000010" class="edge">
<title>Node1&#45;&gt;Node10</title>
<g id="a_edge10_Node000001_Node000010"><a xlink:title=" ">
<path fill="none" stroke="#63b8ff" d="M592.62,-123.75C592.62,-116.13 592.62,-107.53 592.62,-99.93"/>
<polygon fill="#63b8ff" stroke="#63b8ff" points="596.13,-99.93 592.63,-89.93 589.13,-99.93 596.13,-99.93"/>
</a>
</g>
</g>
<!-- Node3 -->
<g id="Node000003" class="node">
<title>Node3</title>
<g id="a_Node000003"><a xlink:title=" ">
<polygon fill="#e0e0e0" stroke="#999999" points="705.12,-26 626.12,-26 626.12,-6 705.12,-6 705.12,-26"/>
<text xml:space="preserve" text-anchor="middle" x="665.62" y="-12.5" font-family="Helvetica,sans-Serif" font-size="10.00">CoreMinimal.h</text>
</a>
</g>
</g>
<!-- Node2&#45;&gt;Node3 -->
<g id="edge2_Node000002_Node000003" class="edge">
<title>Node2&#45;&gt;Node3</title>
<g id="a_edge2_Node000002_Node000003"><a xlink:title=" ">
<path fill="none" stroke="#63b8ff" d="M476.4,-67.52C513.19,-58.81 568.73,-45.28 616.62,-32 619.33,-31.25 622.1,-30.46 624.9,-29.65"/>
<polygon fill="#63b8ff" stroke="#63b8ff" points="625.6,-33.09 634.19,-26.89 623.61,-26.38 625.6,-33.09"/>
</a>
</g>
</g>
<!-- Node4 -->
<g id="Node000004" class="node">
<title>Node4</title>
<g id="a_Node000004"><a xlink:title=" ">
<polygon fill="#e0e0e0" stroke="#999999" points="117.25,-26 0,-26 0,-6 117.25,-6 117.25,-26"/>
<text xml:space="preserve" text-anchor="middle" x="58.62" y="-12.5" font-family="Helvetica,sans-Serif" font-size="10.00">Blueprint/UserWidget.h</text>
</a>
</g>
</g>
<!-- Node2&#45;&gt;Node4 -->
<g id="edge3_Node000002_Node000004" class="edge">
<title>Node2&#45;&gt;Node4</title>
<g id="a_edge3_Node000002_Node000004"><a xlink:title=" ">
<path fill="none" stroke="#63b8ff" d="M370.37,-69C307.48,-60.93 209.73,-47.5 125.62,-32 120.4,-31.04 114.97,-29.96 109.56,-28.83"/>
<polygon fill="#63b8ff" stroke="#63b8ff" points="110.55,-25.46 100.04,-26.78 109.08,-32.3 110.55,-25.46"/>
</a>
</g>
</g>
<!-- Node5 -->
<g id="Node000005" class="node">
<title>Node5</title>
<g id="a_Node000005"><a xlink:title=" ">
<polygon fill="#e0e0e0" stroke="#999999" points="260.38,-32 134.88,-32 134.88,0 260.38,0 260.38,-32"/>
<text xml:space="preserve" text-anchor="start" x="142.88" y="-18.5" font-family="Helvetica,sans-Serif" font-size="10.00">Blueprint/IUserObjectList</text>
<text xml:space="preserve" text-anchor="middle" x="197.62" y="-6.5" font-family="Helvetica,sans-Serif" font-size="10.00">Entry.h</text>
</a>
</g>
</g>
<!-- Node2&#45;&gt;Node5 -->
<g id="edge4_Node000002_Node000005" class="edge">
<title>Node2&#45;&gt;Node5</title>
<g id="a_edge4_Node000002_Node000005"><a xlink:title=" ">
<path fill="none" stroke="#63b8ff" d="M398.18,-67.56C363.93,-58.93 312.32,-45.91 270.03,-35.25"/>
<polygon fill="#63b8ff" stroke="#63b8ff" points="270.95,-31.88 260.4,-32.83 269.24,-38.66 270.95,-31.88"/>
</a>
</g>
</g>
<!-- Node6 -->
<g id="Node000006" class="node">
<title>Node6</title>
<g id="a_Node000006"><a xlink:title=" ">
<polygon fill="#e0e0e0" stroke="#999999" points="427,-32 278.25,-32 278.25,0 427,0 427,-32"/>
<text xml:space="preserve" text-anchor="start" x="286.25" y="-18.5" font-family="Helvetica,sans-Serif" font-size="10.00">Components/MultiLineEditable</text>
<text xml:space="preserve" text-anchor="middle" x="352.62" y="-6.5" font-family="Helvetica,sans-Serif" font-size="10.00">Text.h</text>
</a>
</g>
</g>
<!-- Node2&#45;&gt;Node6 -->
<g id="edge5_Node000002_Node000006" class="edge">
<title>Node2&#45;&gt;Node6</title>
<g id="a_edge5_Node000002_Node000006"><a xlink:title=" ">
<path fill="none" stroke="#63b8ff" d="M422.66,-67.62C412.06,-59.97 396.66,-48.83 382.99,-38.95"/>
<polygon fill="#63b8ff" stroke="#63b8ff" points="385.27,-36.28 375.12,-33.26 381.17,-41.96 385.27,-36.28"/>
</a>
</g>
</g>
<!-- Node7 -->
<g id="Node000007" class="node">
<title>Node7</title>
<g id="a_Node000007"><a xlink:title=" ">
<polygon fill="#e0e0e0" stroke="#999999" points="607.75,-26 445.5,-26 445.5,-6 607.75,-6 607.75,-26"/>
<text xml:space="preserve" text-anchor="middle" x="526.62" y="-12.5" font-family="Helvetica,sans-Serif" font-size="10.00">ConsoleLogLineEntry.generated.h</text>
</a>
</g>
</g>
<!-- Node2&#45;&gt;Node7 -->
<g id="edge6_Node000002_Node000007" class="edge">
<title>Node2&#45;&gt;Node7</title>
<g id="a_edge6_Node000002_Node000007"><a xlink:title=" ">
<path fill="none" stroke="#63b8ff" d="M449.84,-67.62C464.13,-58.2 486.41,-43.52 503.29,-32.39"/>
<polygon fill="#63b8ff" stroke="#63b8ff" points="504.82,-35.57 511.24,-27.14 500.97,-29.72 504.82,-35.57"/>
</a>
</g>
</g>
<!-- Node8&#45;&gt;Node3 -->
<g id="edge8_Node000008_Node000003" class="edge">
<title>Node8&#45;&gt;Node3</title>
<g id="a_edge8_Node000008_Node000003"><a xlink:title=" ">
<path fill="none" stroke="#63b8ff" d="M723,-67.62C712.66,-58.5 696.73,-44.45 684.28,-33.46"/>
<polygon fill="#63b8ff" stroke="#63b8ff" points="686.9,-31.11 677.09,-27.11 682.27,-36.35 686.9,-31.11"/>
</a>
</g>
</g>
<!-- Node9 -->
<g id="Node000009" class="node">
<title>Node9</title>
<g id="a_Node000009"><a xlink:title=" ">
<polygon fill="#e0e0e0" stroke="#999999" points="882.25,-26 723,-26 723,-6 882.25,-6 882.25,-26"/>
<text xml:space="preserve" text-anchor="middle" x="802.62" y="-12.5" font-family="Helvetica,sans-Serif" font-size="10.00">ConsoleLogLineItem.generated.h</text>
</a>
</g>
</g>
<!-- Node8&#45;&gt;Node9 -->
<g id="edge9_Node000008_Node000009" class="edge">
<title>Node8&#45;&gt;Node9</title>
<g id="a_edge9_Node000008_Node000009"><a xlink:title=" ">
<path fill="none" stroke="#63b8ff" d="M744.41,-67.62C754.9,-58.5 771.06,-44.45 783.7,-33.46"/>
<polygon fill="#63b8ff" stroke="#63b8ff" points="785.75,-36.31 791,-27.11 781.16,-31.03 785.75,-36.31"/>
</a>
</g>
</g>
<!-- Node10&#45;&gt;Node3 -->
<g id="edge11_Node000010_Node000003" class="edge">
<title>Node10&#45;&gt;Node3</title>
<g id="a_edge11_Node000010_Node000003"><a xlink:title=" ">
<path fill="none" stroke="#63b8ff" d="M604.03,-67.62C615.24,-58.41 632.57,-44.17 645.99,-33.14"/>
<polygon fill="#63b8ff" stroke="#63b8ff" points="647.87,-36.13 653.37,-27.07 643.42,-30.72 647.87,-36.13"/>
</a>
</g>
</g>
</g>
</svg>
