<?xml version="1.0" encoding="UTF-8" standalone="no"?>
<!DOCTYPE svg PUBLIC "-//W3C//DTD SVG 1.1//EN"
 "http://www.w3.org/Graphics/SVG/1.1/DTD/svg11.dtd">
<!-- Generated by graphviz version 14.1.0 (20251206.1807)
 -->
<!-- Title: Source/PyranoEditor/Private/UI/ConsoleLogLineItem.h Pages: 1 -->
<svg width="325pt" height="200pt"
 viewBox="0.00 0.00 325.00 200.00" xmlns="http://www.w3.org/2000/svg" xmlns:xlink="http://www.w3.org/1999/xlink">
<g id="graph0" class="graph" transform="scale(1 1) rotate(0) translate(4 196)">
<title>Source/PyranoEditor/Private/UI/ConsoleLogLineItem.h</title>
<!-- Node1 -->
<g id="Node000001" class="node">
<title>Node1</title>
<g id="a_Node000001"><a xlink:title=" ">
<polygon fill="#999999" stroke="#666666" points="218,-192 82,-192 82,-148 218,-148 218,-192"/>
<text xml:space="preserve" text-anchor="start" x="90" y="-178.5" font-family="Helvetica,sans-Serif" font-size="10.00">Source/PyranoEditor</text>
<text xml:space="preserve" text-anchor="start" x="90" y="-166.5" font-family="Helvetica,sans-Serif" font-size="10.00">/Private/UI/ConsoleLogLine</text>
<text xml:space="preserve" text-anchor="middle" x="150" y="-154.5" font-family="Helvetica,sans-Serif" font-size="10.00">Item.h</text>
</a>
</g>
</g>
<!-- Node2 -->
<g id="Node000002" class="node">
<title>Node2</title>
<g id="a_Node000002"><a xlink:href="_console_log_line_entry_8cpp.html" target="_top" xlink:title=" ">
<polygon fill="white" stroke="#666666" points="136,-112 0,-112 0,-68 136,-68 136,-112"/>
<text xml:space="preserve" text-anchor="start" x="8" y="-98.5" font-family="Helvetica,sans-Serif" font-size="10.00">Source/PyranoEditor</text>
<text xml:space="preserve" text-anchor="start" x="8" y="-86.5" font-family="Helvetica,sans-Serif" font-size="10.00">/Private/UI/ConsoleLogLine</text>
<text xml:space="preserve" text-anchor="middle" x="68" y="-74.5" font-family="Helvetica,sans-Serif" font-size="10.00">Entry.cpp</text>
</a>
</g>
</g>
<!-- Node1&#45;&gt;Node2 -->
<g id="edge1_Node000001_Node000002" class="edge">
<title>Node1&#45;&gt;Node2</title>
<g id="a_edge1_Node000001_Node000002"><a xlink:title=" ">
<path fill="none" stroke="#63b8ff" d="M119.4,-139.89C109.77,-130.74 99.33,-120.8 90.38,-112.29"/>
<polygon fill="#63b8ff" stroke="#63b8ff" points="116.84,-142.29 126.5,-146.64 121.66,-137.21 116.84,-142.29"/>
</a>
</g>
</g>
<!-- Node3 -->
<g id="Node000003" class="node">
<title>Node3</title>
<g id="a_Node000003"><a xlink:href="_console_log_widget_8h.html" target="_top" xlink:title=" ">
<polygon fill="white" stroke="#666666" points="311.5,-106 154.5,-106 154.5,-74 311.5,-74 311.5,-106"/>
<text xml:space="preserve" text-anchor="start" x="162.5" y="-92.5" font-family="Helvetica,sans-Serif" font-size="10.00">Source/PyranoEditor</text>
<text xml:space="preserve" text-anchor="middle" x="233" y="-80.5" font-family="Helvetica,sans-Serif" font-size="10.00">/Private/UI/ConsoleLogWidget.h</text>
</a>
</g>
</g>
<!-- Node1&#45;&gt;Node3 -->
<g id="edge2_Node000001_Node000003" class="edge">
<title>Node1&#45;&gt;Node3</title>
<g id="a_edge2_Node000001_Node000003"><a xlink:title=" ">
<path fill="none" stroke="#63b8ff" d="M180.83,-140.03C192.99,-128.6 206.46,-115.94 216.66,-106.35"/>
<polygon fill="#63b8ff" stroke="#63b8ff" points="178.67,-137.25 173.78,-146.65 183.47,-142.35 178.67,-137.25"/>
</a>
</g>
</g>
<!-- Node4 -->
<g id="Node000004" class="node">
<title>Node4</title>
<g id="a_Node000004"><a xlink:href="_console_log_widget_8cpp.html" target="_top" xlink:title=" ">
<polygon fill="white" stroke="#666666" points="316.75,-32 149.25,-32 149.25,0 316.75,0 316.75,-32"/>
<text xml:space="preserve" text-anchor="start" x="157.25" y="-18.5" font-family="Helvetica,sans-Serif" font-size="10.00">Source/PyranoEditor</text>
<text xml:space="preserve" text-anchor="middle" x="233" y="-6.5" font-family="Helvetica,sans-Serif" font-size="10.00">/Private/UI/ConsoleLogWidget.cpp</text>
</a>
</g>
</g>
<!-- Node3&#45;&gt;Node4 -->
<g id="edge3_Node000003_Node000004" class="edge">
<title>Node3&#45;&gt;Node4</title>
<g id="a_edge3_Node000003_Node000004"><a xlink:title=" ">
<path fill="none" stroke="#63b8ff" d="M233,-62.49C233,-52.3 233,-41.03 233,-32.25"/>
<polygon fill="#63b8ff" stroke="#63b8ff" points="229.5,-62.22 233,-72.22 236.5,-62.22 229.5,-62.22"/>
</a>
</g>
</g>
</g>
</svg>
