<?xml version="1.0" encoding="UTF-8" standalone="no"?>
<!DOCTYPE svg PUBLIC "-//W3C//DTD SVG 1.1//EN"
 "http://www.w3.org/Graphics/SVG/1.1/DTD/svg11.dtd">
<!-- Generated by graphviz version 14.1.0 (20251206.1807)
 -->
<!-- Title: Source/PyranoEditor/Private/UI/ConsoleLogWidget.cpp Pages: 1 -->
<svg width="1438pt" height="232pt"
 viewBox="0.00 0.00 1438.00 232.00" xmlns="http://www.w3.org/2000/svg" xmlns:xlink="http://www.w3.org/1999/xlink">
<g id="graph0" class="graph" transform="scale(1 1) rotate(0) translate(4 228)">
<title>Source/PyranoEditor/Private/UI/ConsoleLogWidget.cpp</title>
<!-- Node1 -->
<g id="Node000001" class="node">
<title>Node1</title>
<g id="a_Node000001"><a xlink:title=" ">
<polygon fill="#999999" stroke="#666666" points="846,-224 678.5,-224 678.5,-192 846,-192 846,-224"/>
<text xml:space="preserve" text-anchor="start" x="686.5" y="-210.5" font-family="Helvetica,sans-Serif" font-size="10.00">Source/PyranoEditor</text>
<text xml:space="preserve" text-anchor="middle" x="762.25" y="-198.5" font-family="Helvetica,sans-Serif" font-size="10.00">/Private/UI/ConsoleLogWidget.cpp</text>
</a>
</g>
</g>
<!-- Node2 -->
<g id="Node000002" class="node">
<title>Node2</title>
<g id="a_Node000002"><a xlink:href="_console_log_widget_8h.html" target="_top" xlink:title=" ">
<polygon fill="white" stroke="#666666" points="619.38,-150 499.12,-150 499.12,-130 619.38,-130 619.38,-150"/>
<text xml:space="preserve" text-anchor="middle" x="559.25" y="-136.5" font-family="Helvetica,sans-Serif" font-size="10.00">UI/ConsoleLogWidget.h</text>
</a>
</g>
</g>
<!-- Node1&#45;&gt;Node2 -->
<g id="edge1_Node000001_Node000002" class="edge">
<title>Node1&#45;&gt;Node2</title>
<g id="a_edge1_Node000001_Node000002"><a xlink:title=" ">
<path fill="none" stroke="#63b8ff" d="M714.66,-191.53C679.49,-180.09 632.16,-164.71 599.01,-153.93"/>
<polygon fill="#63b8ff" stroke="#63b8ff" points="600.38,-150.69 589.79,-150.93 598.21,-157.35 600.38,-150.69"/>
</a>
</g>
</g>
<!-- Node8 -->
<g id="Node000008" class="node">
<title>Node8</title>
<g id="a_Node000008"><a xlink:title=" ">
<polygon fill="#e0e0e0" stroke="#999999" points="1069.88,-82 952.62,-82 952.62,-62 1069.88,-62 1069.88,-82"/>
<text xml:space="preserve" text-anchor="middle" x="1011.25" y="-68.5" font-family="Helvetica,sans-Serif" font-size="10.00">Blueprint/UserWidget.h</text>
</a>
</g>
</g>
<!-- Node1&#45;&gt;Node8 -->
<g id="edge16_Node000001_Node000008" class="edge">
<title>Node1&#45;&gt;Node8</title>
<g id="a_edge16_Node000001_Node000008"><a xlink:title=" ">
<path fill="none" stroke="#63b8ff" d="M710.09,-191.52C693.08,-183.72 676.07,-172.34 666.25,-156 658.92,-143.81 656.86,-134.69 666.25,-124 707.22,-77.36 882.11,-98.7 943.25,-88 948.77,-87.04 954.51,-85.93 960.22,-84.76"/>
<polygon fill="#63b8ff" stroke="#63b8ff" points="960.55,-88.27 969.61,-82.78 959.11,-81.42 960.55,-88.27"/>
</a>
</g>
</g>
<!-- Node11 -->
<g id="Node000011" class="node">
<title>Node11</title>
<g id="a_Node000011"><a xlink:href="_irradiance_log_8h.html" target="_top" xlink:title=" ">
<polygon fill="white" stroke="#666666" points="290,-82 170.5,-82 170.5,-62 290,-62 290,-82"/>
<text xml:space="preserve" text-anchor="middle" x="230.25" y="-68.5" font-family="Helvetica,sans-Serif" font-size="10.00">Logging/IrradianceLog.h</text>
</a>
</g>
</g>
<!-- Node1&#45;&gt;Node11 -->
<g id="edge12_Node000001_Node000011" class="edge">
<title>Node1&#45;&gt;Node11</title>
<g id="a_edge12_Node000001_Node000011"><a xlink:title=" ">
<path fill="none" stroke="#63b8ff" d="M678.03,-193.97C624,-184.94 552.56,-171.72 490.25,-156 409.31,-135.58 316.64,-103.95 266.71,-86.22"/>
<polygon fill="#63b8ff" stroke="#63b8ff" points="268.16,-83.02 257.57,-82.95 265.81,-89.61 268.16,-83.02"/>
</a>
</g>
</g>
<!-- Node12 -->
<g id="Node000012" class="node">
<title>Node12</title>
<g id="a_Node000012"><a xlink:href="_irradiance_common_8h.html" target="_top" xlink:title=" ">
<polygon fill="white" stroke="#666666" points="152.5,-82 0,-82 0,-62 152.5,-62 152.5,-82"/>
<text xml:space="preserve" text-anchor="middle" x="76.25" y="-68.5" font-family="Helvetica,sans-Serif" font-size="10.00">Irradiance/IrradianceCommon.h</text>
</a>
</g>
</g>
<!-- Node1&#45;&gt;Node12 -->
<g id="edge14_Node000001_Node000012" class="edge">
<title>Node1&#45;&gt;Node12</title>
<g id="a_edge14_Node000001_Node000012"><a xlink:title=" ">
<path fill="none" stroke="#63b8ff" d="M678.18,-199.16C600.02,-191.09 480.57,-176.76 378.25,-156 283.08,-136.7 173.72,-103.93 116.28,-85.88"/>
<polygon fill="#63b8ff" stroke="#63b8ff" points="117.54,-82.61 106.95,-82.93 115.43,-89.28 117.54,-82.61"/>
</a>
</g>
</g>
<!-- Node13 -->
<g id="Node000013" class="node">
<title>Node13</title>
<g id="a_Node000013"><a xlink:title=" ">
<polygon fill="#e0e0e0" stroke="#999999" points="749.12,-150 675.38,-150 675.38,-130 749.12,-130 749.12,-150"/>
<text xml:space="preserve" text-anchor="middle" x="712.25" y="-136.5" font-family="Helvetica,sans-Serif" font-size="10.00">Misc/Paths.h</text>
</a>
</g>
</g>
<!-- Node1&#45;&gt;Node13 -->
<g id="edge17_Node000001_Node000013" class="edge">
<title>Node1&#45;&gt;Node13</title>
<g id="a_edge17_Node000001_Node000013"><a xlink:title=" ">
<path fill="none" stroke="#63b8ff" d="M750.65,-191.69C743.31,-182 733.77,-169.41 726.04,-159.2"/>
<polygon fill="#63b8ff" stroke="#63b8ff" points="729.05,-157.38 720.22,-151.52 723.47,-161.61 729.05,-157.38"/>
</a>
</g>
</g>
<!-- Node14 -->
<g id="Node000014" class="node">
<title>Node14</title>
<g id="a_Node000014"><a xlink:title=" ">
<polygon fill="#e0e0e0" stroke="#999999" points="859.5,-150 767,-150 767,-130 859.5,-130 859.5,-150"/>
<text xml:space="preserve" text-anchor="middle" x="813.25" y="-136.5" font-family="Helvetica,sans-Serif" font-size="10.00">Misc/FileHelper.h</text>
</a>
</g>
</g>
<!-- Node1&#45;&gt;Node14 -->
<g id="edge18_Node000001_Node000014" class="edge">
<title>Node1&#45;&gt;Node14</title>
<g id="a_edge18_Node000001_Node000014"><a xlink:title=" ">
<path fill="none" stroke="#63b8ff" d="M774.08,-191.69C781.57,-182 791.3,-169.41 799.19,-159.2"/>
<polygon fill="#63b8ff" stroke="#63b8ff" points="801.78,-161.57 805.13,-151.51 796.24,-157.29 801.78,-161.57"/>
</a>
</g>
</g>
<!-- Node15 -->
<g id="Node000015" class="node">
<title>Node15</title>
<g id="a_Node000015"><a xlink:title=" ">
<polygon fill="#e0e0e0" stroke="#999999" points="1030.5,-150 878,-150 878,-130 1030.5,-130 1030.5,-150"/>
<text xml:space="preserve" text-anchor="middle" x="954.25" y="-136.5" font-family="Helvetica,sans-Serif" font-size="10.00">HAL/PlatformApplicationMisc.h</text>
</a>
</g>
</g>
<!-- Node1&#45;&gt;Node15 -->
<g id="edge19_Node000001_Node000015" class="edge">
<title>Node1&#45;&gt;Node15</title>
<g id="a_edge19_Node000001_Node000015"><a xlink:title=" ">
<path fill="none" stroke="#63b8ff" d="M807.27,-191.53C840.38,-180.14 884.9,-164.84 916.24,-154.07"/>
<polygon fill="#63b8ff" stroke="#63b8ff" points="916.98,-157.51 925.3,-150.95 914.7,-150.89 916.98,-157.51"/>
</a>
</g>
</g>
<!-- Node16 -->
<g id="Node000016" class="node">
<title>Node16</title>
<g id="a_Node000016"><a xlink:title=" ">
<polygon fill="#e0e0e0" stroke="#999999" points="1177.88,-150 1048.62,-150 1048.62,-130 1177.88,-130 1177.88,-150"/>
<text xml:space="preserve" text-anchor="middle" x="1113.25" y="-136.5" font-family="Helvetica,sans-Serif" font-size="10.00">DesktopPlatformModule.h</text>
</a>
</g>
</g>
<!-- Node1&#45;&gt;Node16 -->
<g id="edge20_Node000001_Node000016" class="edge">
<title>Node1&#45;&gt;Node16</title>
<g id="a_edge20_Node000001_Node000016"><a xlink:title=" ">
<path fill="none" stroke="#63b8ff" d="M846.27,-191.93C901.22,-181.98 974.56,-168.51 1039.25,-156 1044.74,-154.94 1050.45,-153.81 1056.17,-152.68"/>
<polygon fill="#63b8ff" stroke="#63b8ff" points="1056.49,-156.18 1065.61,-150.79 1055.11,-149.32 1056.49,-156.18"/>
</a>
</g>
</g>
<!-- Node17 -->
<g id="Node000017" class="node">
<title>Node17</title>
<g id="a_Node000017"><a xlink:title=" ">
<polygon fill="#e0e0e0" stroke="#999999" points="1296.62,-150 1195.88,-150 1195.88,-130 1296.62,-130 1296.62,-150"/>
<text xml:space="preserve" text-anchor="middle" x="1246.25" y="-136.5" font-family="Helvetica,sans-Serif" font-size="10.00">IDesktopPlatform.h</text>
</a>
</g>
</g>
<!-- Node1&#45;&gt;Node17 -->
<g id="edge21_Node000001_Node000017" class="edge">
<title>Node1&#45;&gt;Node17</title>
<g id="a_edge21_Node000001_Node000017"><a xlink:title=" ">
<path fill="none" stroke="#63b8ff" d="M846.2,-200.16C932.28,-192.39 1069.81,-177.88 1187.25,-156 1191.81,-155.15 1196.54,-154.15 1201.24,-153.08"/>
<polygon fill="#63b8ff" stroke="#63b8ff" points="1201.72,-156.57 1210.63,-150.83 1200.09,-149.76 1201.72,-156.57"/>
</a>
</g>
</g>
<!-- Node18 -->
<g id="Node000018" class="node">
<title>Node18</title>
<g id="a_Node000018"><a xlink:title=" ">
<polygon fill="#e0e0e0" stroke="#999999" points="1430.12,-156 1314.38,-156 1314.38,-124 1430.12,-124 1430.12,-156"/>
<text xml:space="preserve" text-anchor="start" x="1322.38" y="-142.5" font-family="Helvetica,sans-Serif" font-size="10.00">Framework/Application</text>
<text xml:space="preserve" text-anchor="middle" x="1372.25" y="-130.5" font-family="Helvetica,sans-Serif" font-size="10.00">/SlateApplication.h</text>
</a>
</g>
</g>
<!-- Node1&#45;&gt;Node18 -->
<g id="edge22_Node000001_Node000018" class="edge">
<title>Node1&#45;&gt;Node18</title>
<g id="a_edge22_Node000001_Node000018"><a xlink:title=" ">
<path fill="none" stroke="#63b8ff" d="M846.38,-202.41C951.11,-195.96 1135.6,-182.15 1302.98,-156.23"/>
<polygon fill="#63b8ff" stroke="#63b8ff" points="1303.4,-159.7 1312.74,-154.7 1302.31,-152.79 1303.4,-159.7"/>
</a>
</g>
</g>
<!-- Node3 -->
<g id="Node000003" class="node">
<title>Node3</title>
<g id="a_Node000003"><a xlink:title=" ">
<polygon fill="#e0e0e0" stroke="#999999" points="312.75,-20 233.75,-20 233.75,0 312.75,0 312.75,-20"/>
<text xml:space="preserve" text-anchor="middle" x="273.25" y="-6.5" font-family="Helvetica,sans-Serif" font-size="10.00">CoreMinimal.h</text>
</a>
</g>
</g>
<!-- Node2&#45;&gt;Node3 -->
<g id="edge2_Node000002_Node000003" class="edge">
<title>Node2&#45;&gt;Node3</title>
<g id="a_edge2_Node000002_Node000003"><a xlink:title=" ">
<path fill="none" stroke="#63b8ff" d="M498.75,-135.6C451.72,-130.59 386.42,-118.26 337.25,-88 313.96,-73.67 295.12,-47.87 284.06,-30.11"/>
<polygon fill="#63b8ff" stroke="#63b8ff" points="287.1,-28.37 278.98,-21.56 281.08,-31.95 287.1,-28.37"/>
</a>
</g>
</g>
<!-- Node4 -->
<g id="Node000004" class="node">
<title>Node4</title>
<g id="a_Node000004"><a xlink:href="_console_log_line_item_8h.html" target="_top" xlink:title=" ">
<polygon fill="white" stroke="#666666" points="473.75,-82 346.75,-82 346.75,-62 473.75,-62 473.75,-82"/>
<text xml:space="preserve" text-anchor="middle" x="410.25" y="-68.5" font-family="Helvetica,sans-Serif" font-size="10.00">UI/ConsoleLogLineItem.h</text>
</a>
</g>
</g>
<!-- Node2&#45;&gt;Node4 -->
<g id="edge3_Node000002_Node000004" class="edge">
<title>Node2&#45;&gt;Node4</title>
<g id="a_edge3_Node000002_Node000004"><a xlink:title=" ">
<path fill="none" stroke="#63b8ff" d="M537.9,-129.54C512.79,-118.42 470.85,-99.84 441.94,-87.04"/>
<polygon fill="#63b8ff" stroke="#63b8ff" points="443.5,-83.9 432.94,-83.05 440.67,-90.3 443.5,-83.9"/>
</a>
</g>
</g>
<!-- Node6 -->
<g id="Node000006" class="node">
<title>Node6</title>
<g id="a_Node000006"><a xlink:href="_pyrano_console_log_sink_8h.html" target="_top" xlink:title=" ">
<polygon fill="white" stroke="#666666" points="626.88,-88 491.62,-88 491.62,-56 626.88,-56 626.88,-88"/>
<text xml:space="preserve" text-anchor="start" x="499.62" y="-74.5" font-family="Helvetica,sans-Serif" font-size="10.00">Logging/PyranoConsoleLog</text>
<text xml:space="preserve" text-anchor="middle" x="559.25" y="-62.5" font-family="Helvetica,sans-Serif" font-size="10.00">Sink.h</text>
</a>
</g>
</g>
<!-- Node2&#45;&gt;Node6 -->
<g id="edge6_Node000002_Node000006" class="edge">
<title>Node2&#45;&gt;Node6</title>
<g id="a_edge6_Node000002_Node000006"><a xlink:title=" ">
<path fill="none" stroke="#63b8ff" d="M559.25,-129.54C559.25,-121.72 559.25,-110.22 559.25,-99.63"/>
<polygon fill="#63b8ff" stroke="#63b8ff" points="562.75,-99.81 559.25,-89.81 555.75,-99.81 562.75,-99.81"/>
</a>
</g>
</g>
<!-- Node2&#45;&gt;Node8 -->
<g id="edge9_Node000002_Node000008" class="edge">
<title>Node2&#45;&gt;Node8</title>
<g id="a_edge9_Node000002_Node000008"><a xlink:title=" ">
<path fill="none" stroke="#63b8ff" d="M602.96,-129.5C612.89,-127.52 623.41,-125.57 633.25,-124 770.23,-102.2 806.46,-110.97 943.25,-88 948.84,-87.06 954.67,-85.96 960.46,-84.79"/>
<polygon fill="#63b8ff" stroke="#63b8ff" points="960.92,-88.27 969.99,-82.79 959.48,-81.42 960.92,-88.27"/>
</a>
</g>
</g>
<!-- Node9 -->
<g id="Node000009" class="node">
<title>Node9</title>
<g id="a_Node000009"><a xlink:title=" ">
<polygon fill="#e0e0e0" stroke="#999999" points="764,-82 644.5,-82 644.5,-62 764,-62 764,-82"/>
<text xml:space="preserve" text-anchor="middle" x="704.25" y="-68.5" font-family="Helvetica,sans-Serif" font-size="10.00">Components/ListView.h</text>
</a>
</g>
</g>
<!-- Node2&#45;&gt;Node9 -->
<g id="edge10_Node000002_Node000009" class="edge">
<title>Node2&#45;&gt;Node9</title>
<g id="a_edge10_Node000002_Node000009"><a xlink:title=" ">
<path fill="none" stroke="#63b8ff" d="M580.02,-129.54C604.36,-118.47 644.92,-100.01 673.04,-87.21"/>
<polygon fill="#63b8ff" stroke="#63b8ff" points="674.48,-90.39 682.14,-83.07 671.58,-84.02 674.48,-90.39"/>
</a>
</g>
</g>
<!-- Node10 -->
<g id="Node000010" class="node">
<title>Node10</title>
<g id="a_Node000010"><a xlink:title=" ">
<polygon fill="#e0e0e0" stroke="#999999" points="934.5,-82 782,-82 782,-62 934.5,-62 934.5,-82"/>
<text xml:space="preserve" text-anchor="middle" x="858.25" y="-68.5" font-family="Helvetica,sans-Serif" font-size="10.00">ConsoleLogWidget.generated.h</text>
</a>
</g>
</g>
<!-- Node2&#45;&gt;Node10 -->
<g id="edge11_Node000002_Node000010" class="edge">
<title>Node2&#45;&gt;Node10</title>
<g id="a_edge11_Node000002_Node000010"><a xlink:title=" ">
<path fill="none" stroke="#63b8ff" d="M602.09,-129.54C655.38,-117.78 746.39,-97.69 804.36,-84.9"/>
<polygon fill="#63b8ff" stroke="#63b8ff" points="805,-88.34 814.01,-82.76 803.49,-81.5 805,-88.34"/>
</a>
</g>
</g>
<!-- Node4&#45;&gt;Node3 -->
<g id="edge4_Node000004_Node000003" class="edge">
<title>Node4&#45;&gt;Node3</title>
<g id="a_edge4_Node000004_Node000003"><a xlink:title=" ">
<path fill="none" stroke="#63b8ff" d="M388.84,-61.62C366.32,-51.76 330.64,-36.13 304.87,-24.85"/>
<polygon fill="#63b8ff" stroke="#63b8ff" points="306.46,-21.72 295.89,-20.92 303.65,-28.13 306.46,-21.72"/>
</a>
</g>
</g>
<!-- Node5 -->
<g id="Node000005" class="node">
<title>Node5</title>
<g id="a_Node000005"><a xlink:title=" ">
<polygon fill="#e0e0e0" stroke="#999999" points="489.88,-20 330.62,-20 330.62,0 489.88,0 489.88,-20"/>
<text xml:space="preserve" text-anchor="middle" x="410.25" y="-6.5" font-family="Helvetica,sans-Serif" font-size="10.00">ConsoleLogLineItem.generated.h</text>
</a>
</g>
</g>
<!-- Node4&#45;&gt;Node5 -->
<g id="edge5_Node000004_Node000005" class="edge">
<title>Node4&#45;&gt;Node5</title>
<g id="a_edge5_Node000004_Node000005"><a xlink:title=" ">
<path fill="none" stroke="#63b8ff" d="M410.25,-61.62C410.25,-53.56 410.25,-41.65 410.25,-31.41"/>
<polygon fill="#63b8ff" stroke="#63b8ff" points="413.75,-31.63 410.25,-21.63 406.75,-31.63 413.75,-31.63"/>
</a>
</g>
</g>
<!-- Node6&#45;&gt;Node3 -->
<g id="edge7_Node000006_Node000003" class="edge">
<title>Node6&#45;&gt;Node3</title>
<g id="a_edge7_Node000006_Node000003"><a xlink:title=" ">
<path fill="none" stroke="#63b8ff" d="M491.47,-56.78C440.2,-46.02 370.89,-31.48 324.25,-21.7"/>
<polygon fill="#63b8ff" stroke="#63b8ff" points="325.19,-18.32 314.69,-19.69 323.75,-25.17 325.19,-18.32"/>
</a>
</g>
</g>
<!-- Node7 -->
<g id="Node000007" class="node">
<title>Node7</title>
<g id="a_Node000007"><a xlink:title=" ">
<polygon fill="#e0e0e0" stroke="#999999" points="616.38,-20 508.12,-20 508.12,0 616.38,0 616.38,-20"/>
<text xml:space="preserve" text-anchor="middle" x="562.25" y="-6.5" font-family="Helvetica,sans-Serif" font-size="10.00">Misc/OutputDevice.h</text>
</a>
</g>
</g>
<!-- Node6&#45;&gt;Node7 -->
<g id="edge8_Node000006_Node000007" class="edge">
<title>Node6&#45;&gt;Node7</title>
<g id="a_edge8_Node000006_Node000007"><a xlink:title=" ">
<path fill="none" stroke="#63b8ff" d="M560.02,-55.55C560.38,-48.34 560.82,-39.66 561.21,-31.88"/>
<polygon fill="#63b8ff" stroke="#63b8ff" points="564.7,-32.08 561.7,-21.92 557.71,-31.73 564.7,-32.08"/>
</a>
</g>
</g>
<!-- Node11&#45;&gt;Node3 -->
<g id="edge13_Node000011_Node000003" class="edge">
<title>Node11&#45;&gt;Node3</title>
<g id="a_edge13_Node000011_Node000003"><a xlink:title=" ">
<path fill="none" stroke="#63b8ff" d="M236.97,-61.62C243.13,-53.03 252.42,-40.07 260.06,-29.41"/>
<polygon fill="#63b8ff" stroke="#63b8ff" points="262.86,-31.51 265.84,-21.34 257.17,-27.43 262.86,-31.51"/>
</a>
</g>
</g>
<!-- Node12&#45;&gt;Node3 -->
<g id="edge15_Node000012_Node000003" class="edge">
<title>Node12&#45;&gt;Node3</title>
<g id="a_edge15_Node000012_Node000003"><a xlink:title=" ">
<path fill="none" stroke="#63b8ff" d="M107.03,-61.62C140.47,-51.44 194.1,-35.11 231.36,-23.76"/>
<polygon fill="#63b8ff" stroke="#63b8ff" points="232.37,-27.11 240.91,-20.85 230.33,-20.41 232.37,-27.11"/>
</a>
</g>
</g>
</g>
</svg>
