<?xml version="1.0" encoding="UTF-8" standalone="no"?>
<!DOCTYPE svg PUBLIC "-//W3C//DTD SVG 1.1//EN"
 "http://www.w3.org/Graphics/SVG/1.1/DTD/svg11.dtd">
<!-- Generated by graphviz version 14.1.0 (20251206.1807)
 -->
<!-- Title: Source/PyranoEditor/Private/UI/ConsoleLogWidget.h Pages: 1 -->
<svg width="831pt" height="164pt"
 viewBox="0.00 0.00 831.00 164.00" xmlns="http://www.w3.org/2000/svg" xmlns:xlink="http://www.w3.org/1999/xlink">
<g id="graph0" class="graph" transform="scale(1 1) rotate(0) translate(4 160)">
<title>Source/PyranoEditor/Private/UI/ConsoleLogWidget.h</title>
<!-- Node1 -->
<g id="Node000001" class="node">
<title>Node1</title>
<g id="a_Node000001"><a xlink:title=" ">
<polygon fill="#999999" stroke="#666666" points="463.12,-156 306.12,-156 306.12,-124 463.12,-124 463.12,-156"/>
<text xml:space="preserve" text-anchor="start" x="314.12" y="-142.5" font-family="Helvetica,sans-Serif" font-size="10.00">Source/PyranoEditor</text>
<text xml:space="preserve" text-anchor="middle" x="384.62" y="-130.5" font-family="Helvetica,sans-Serif" font-size="10.00">/Private/UI/ConsoleLogWidget.h</text>
</a>
</g>
</g>
<!-- Node2 -->
<g id="Node000002" class="node">
<title>Node2</title>
<g id="a_Node000002"><a xlink:title=" ">
<polygon fill="#e0e0e0" stroke="#999999" points="256.12,-20 177.12,-20 177.12,0 256.12,0 256.12,-20"/>
<text xml:space="preserve" text-anchor="middle" x="216.62" y="-6.5" font-family="Helvetica,sans-Serif" font-size="10.00">CoreMinimal.h</text>
</a>
</g>
</g>
<!-- Node1&#45;&gt;Node2 -->
<g id="edge1_Node000001_Node000002" class="edge">
<title>Node1&#45;&gt;Node2</title>
<g id="a_edge1_Node000001_Node000002"><a xlink:title=" ">
<path fill="none" stroke="#63b8ff" d="M305.87,-127.51C280.33,-120.11 253.91,-107.96 235.62,-88 221.63,-72.71 217.52,-48.78 216.51,-31.65"/>
<polygon fill="#63b8ff" stroke="#63b8ff" points="220.02,-31.79 216.27,-21.88 213.02,-31.97 220.02,-31.79"/>
</a>
</g>
</g>
<!-- Node3 -->
<g id="Node000003" class="node">
<title>Node3</title>
<g id="a_Node000003"><a xlink:href="_console_log_line_item_8h.html" target="_top" xlink:title=" ">
<polygon fill="white" stroke="#666666" points="188.12,-82 61.12,-82 61.12,-62 188.12,-62 188.12,-82"/>
<text xml:space="preserve" text-anchor="middle" x="124.62" y="-68.5" font-family="Helvetica,sans-Serif" font-size="10.00">UI/ConsoleLogLineItem.h</text>
</a>
</g>
</g>
<!-- Node1&#45;&gt;Node3 -->
<g id="edge2_Node000001_Node000003" class="edge">
<title>Node1&#45;&gt;Node3</title>
<g id="a_edge2_Node000001_Node000003"><a xlink:title=" ">
<path fill="none" stroke="#63b8ff" d="M323.67,-123.53C277.65,-111.84 215.37,-96.03 172.8,-85.23"/>
<polygon fill="#63b8ff" stroke="#63b8ff" points="173.91,-81.9 163.36,-82.83 172.19,-88.69 173.91,-81.9"/>
</a>
</g>
</g>
<!-- Node5 -->
<g id="Node000005" class="node">
<title>Node5</title>
<g id="a_Node000005"><a xlink:href="_pyrano_console_log_sink_8h.html" target="_top" xlink:title=" ">
<polygon fill="white" stroke="#666666" points="380.25,-88 245,-88 245,-56 380.25,-56 380.25,-88"/>
<text xml:space="preserve" text-anchor="start" x="253" y="-74.5" font-family="Helvetica,sans-Serif" font-size="10.00">Logging/PyranoConsoleLog</text>
<text xml:space="preserve" text-anchor="middle" x="312.62" y="-62.5" font-family="Helvetica,sans-Serif" font-size="10.00">Sink.h</text>
</a>
</g>
</g>
<!-- Node1&#45;&gt;Node5 -->
<g id="edge5_Node000001_Node000005" class="edge">
<title>Node1&#45;&gt;Node5</title>
<g id="a_edge5_Node000001_Node000005"><a xlink:title=" ">
<path fill="none" stroke="#63b8ff" d="M367.93,-123.69C358.93,-115.45 347.65,-105.11 337.63,-95.92"/>
<polygon fill="#63b8ff" stroke="#63b8ff" points="340.09,-93.42 330.35,-89.25 335.36,-98.58 340.09,-93.42"/>
</a>
</g>
</g>
<!-- Node7 -->
<g id="Node000007" class="node">
<title>Node7</title>
<g id="a_Node000007"><a xlink:title=" ">
<polygon fill="#e0e0e0" stroke="#999999" points="515.25,-82 398,-82 398,-62 515.25,-62 515.25,-82"/>
<text xml:space="preserve" text-anchor="middle" x="456.62" y="-68.5" font-family="Helvetica,sans-Serif" font-size="10.00">Blueprint/UserWidget.h</text>
</a>
</g>
</g>
<!-- Node1&#45;&gt;Node7 -->
<g id="edge8_Node000001_Node000007" class="edge">
<title>Node1&#45;&gt;Node7</title>
<g id="a_edge8_Node000001_Node000007"><a xlink:title=" ">
<path fill="none" stroke="#63b8ff" d="M401.32,-123.69C412.34,-113.6 426.77,-100.36 438.13,-89.95"/>
<polygon fill="#63b8ff" stroke="#63b8ff" points="440.34,-92.68 445.35,-83.34 435.61,-87.52 440.34,-92.68"/>
</a>
</g>
</g>
<!-- Node8 -->
<g id="Node000008" class="node">
<title>Node8</title>
<g id="a_Node000008"><a xlink:title=" ">
<polygon fill="#e0e0e0" stroke="#999999" points="652.38,-82 532.88,-82 532.88,-62 652.38,-62 652.38,-82"/>
<text xml:space="preserve" text-anchor="middle" x="592.62" y="-68.5" font-family="Helvetica,sans-Serif" font-size="10.00">Components/ListView.h</text>
</a>
</g>
</g>
<!-- Node1&#45;&gt;Node8 -->
<g id="edge9_Node000001_Node000008" class="edge">
<title>Node1&#45;&gt;Node8</title>
<g id="a_edge9_Node000001_Node000008"><a xlink:title=" ">
<path fill="none" stroke="#63b8ff" d="M433.39,-123.53C469.42,-112.09 517.92,-96.71 551.89,-85.93"/>
<polygon fill="#63b8ff" stroke="#63b8ff" points="552.9,-89.28 561.37,-82.92 550.78,-82.61 552.9,-89.28"/>
</a>
</g>
</g>
<!-- Node9 -->
<g id="Node000009" class="node">
<title>Node9</title>
<g id="a_Node000009"><a xlink:title=" ">
<polygon fill="#e0e0e0" stroke="#999999" points="822.88,-82 670.38,-82 670.38,-62 822.88,-62 822.88,-82"/>
<text xml:space="preserve" text-anchor="middle" x="746.62" y="-68.5" font-family="Helvetica,sans-Serif" font-size="10.00">ConsoleLogWidget.generated.h</text>
</a>
</g>
</g>
<!-- Node1&#45;&gt;Node9 -->
<g id="edge10_Node000001_Node000009" class="edge">
<title>Node1&#45;&gt;Node9</title>
<g id="a_edge10_Node000001_Node000009"><a xlink:title=" ">
<path fill="none" stroke="#63b8ff" d="M463.62,-124.6C529.62,-112.56 622.49,-95.63 683.59,-84.49"/>
<polygon fill="#63b8ff" stroke="#63b8ff" points="683.91,-87.99 693.12,-82.75 682.66,-81.11 683.91,-87.99"/>
</a>
</g>
</g>
<!-- Node3&#45;&gt;Node2 -->
<g id="edge3_Node000003_Node000002" class="edge">
<title>Node3&#45;&gt;Node2</title>
<g id="a_edge3_Node000003_Node000002"><a xlink:title=" ">
<path fill="none" stroke="#63b8ff" d="M139,-61.62C153.45,-52.2 175.96,-37.52 193.03,-26.39"/>
<polygon fill="#63b8ff" stroke="#63b8ff" points="194.62,-29.53 201.08,-21.14 190.8,-23.67 194.62,-29.53"/>
</a>
</g>
</g>
<!-- Node4 -->
<g id="Node000004" class="node">
<title>Node4</title>
<g id="a_Node000004"><a xlink:title=" ">
<polygon fill="#e0e0e0" stroke="#999999" points="159.25,-20 0,-20 0,0 159.25,0 159.25,-20"/>
<text xml:space="preserve" text-anchor="middle" x="79.62" y="-6.5" font-family="Helvetica,sans-Serif" font-size="10.00">ConsoleLogLineItem.generated.h</text>
</a>
</g>
</g>
<!-- Node3&#45;&gt;Node4 -->
<g id="edge4_Node000003_Node000004" class="edge">
<title>Node3&#45;&gt;Node4</title>
<g id="a_edge4_Node000003_Node000004"><a xlink:title=" ">
<path fill="none" stroke="#63b8ff" d="M117.59,-61.62C111.08,-52.94 101.22,-39.8 93.18,-29.08"/>
<polygon fill="#63b8ff" stroke="#63b8ff" points="96.17,-27.22 87.37,-21.32 90.57,-31.42 96.17,-27.22"/>
</a>
</g>
</g>
<!-- Node5&#45;&gt;Node2 -->
<g id="edge6_Node000005_Node000002" class="edge">
<title>Node5&#45;&gt;Node2</title>
<g id="a_edge6_Node000005_Node000002"><a xlink:title=" ">
<path fill="none" stroke="#63b8ff" d="M287.9,-55.55C273.6,-46.61 255.65,-35.39 241.35,-26.45"/>
<polygon fill="#63b8ff" stroke="#63b8ff" points="243.3,-23.54 232.96,-21.21 239.59,-29.48 243.3,-23.54"/>
</a>
</g>
</g>
<!-- Node6 -->
<g id="Node000006" class="node">
<title>Node6</title>
<g id="a_Node000006"><a xlink:title=" ">
<polygon fill="#e0e0e0" stroke="#999999" points="382.75,-20 274.5,-20 274.5,0 382.75,0 382.75,-20"/>
<text xml:space="preserve" text-anchor="middle" x="328.62" y="-6.5" font-family="Helvetica,sans-Serif" font-size="10.00">Misc/OutputDevice.h</text>
</a>
</g>
</g>
<!-- Node5&#45;&gt;Node6 -->
<g id="edge7_Node000005_Node000006" class="edge">
<title>Node5&#45;&gt;Node6</title>
<g id="a_edge7_Node000005_Node000006"><a xlink:title=" ">
<path fill="none" stroke="#63b8ff" d="M316.75,-55.55C318.71,-48.17 321.09,-39.24 323.21,-31.32"/>
<polygon fill="#63b8ff" stroke="#63b8ff" points="326.53,-32.43 325.73,-21.87 319.77,-30.63 326.53,-32.43"/>
</a>
</g>
</g>
</g>
</svg>
