<?xml version="1.0" encoding="UTF-8" standalone="no"?>
<!DOCTYPE svg PUBLIC "-//W3C//DTD SVG 1.1//EN"
 "http://www.w3.org/Graphics/SVG/1.1/DTD/svg11.dtd">
<!-- Generated by graphviz version 14.1.0 (20251206.1807)
 -->
<!-- Title: Source/PyranoEditor/Private/UI/ConsoleLogLineItem.h Pages: 1 -->
<svg width="264pt" height="108pt"
 viewBox="0.00 0.00 264.00 108.00" xmlns="http://www.w3.org/2000/svg" xmlns:xlink="http://www.w3.org/1999/xlink">
<g id="graph0" class="graph" transform="scale(1 1) rotate(0) translate(4 104)">
<title>Source/PyranoEditor/Private/UI/ConsoleLogLineItem.h</title>
<!-- Node1 -->
<g id="Node000001" class="node">
<title>Node1</title>
<g id="a_Node000001"><a xlink:title=" ">
<polygon fill="#999999" stroke="#666666" points="175.5,-100 39.5,-100 39.5,-56 175.5,-56 175.5,-100"/>
<text xml:space="preserve" text-anchor="start" x="47.5" y="-86.5" font-family="Helvetica,sans-Serif" font-size="10.00">Source/PyranoEditor</text>
<text xml:space="preserve" text-anchor="start" x="47.5" y="-74.5" font-family="Helvetica,sans-Serif" font-size="10.00">/Private/UI/ConsoleLogLine</text>
<text xml:space="preserve" text-anchor="middle" x="107.5" y="-62.5" font-family="Helvetica,sans-Serif" font-size="10.00">Item.h</text>
</a>
</g>
</g>
<!-- Node2 -->
<g id="Node000002" class="node">
<title>Node2</title>
<g id="a_Node000002"><a xlink:title=" ">
<polygon fill="#e0e0e0" stroke="#999999" points="79,-20 0,-20 0,0 79,0 79,-20"/>
<text xml:space="preserve" text-anchor="middle" x="39.5" y="-6.5" font-family="Helvetica,sans-Serif" font-size="10.00">CoreMinimal.h</text>
</a>
</g>
</g>
<!-- Node1&#45;&gt;Node2 -->
<g id="edge1_Node000001_Node000002" class="edge">
<title>Node1&#45;&gt;Node2</title>
<g id="a_edge1_Node000001_Node000002"><a xlink:title=" ">
<path fill="none" stroke="#63b8ff" d="M85.61,-55.75C76.5,-46.92 66.07,-36.78 57.43,-28.4"/>
<polygon fill="#63b8ff" stroke="#63b8ff" points="59.9,-25.93 50.29,-21.47 55.03,-30.95 59.9,-25.93"/>
</a>
</g>
</g>
<!-- Node3 -->
<g id="Node000003" class="node">
<title>Node3</title>
<g id="a_Node000003"><a xlink:title=" ">
<polygon fill="#e0e0e0" stroke="#999999" points="256.12,-20 96.88,-20 96.88,0 256.12,0 256.12,-20"/>
<text xml:space="preserve" text-anchor="middle" x="176.5" y="-6.5" font-family="Helvetica,sans-Serif" font-size="10.00">ConsoleLogLineItem.generated.h</text>
</a>
</g>
</g>
<!-- Node1&#45;&gt;Node3 -->
<g id="edge2_Node000001_Node000003" class="edge">
<title>Node1&#45;&gt;Node3</title>
<g id="a_edge2_Node000001_Node000003"><a xlink:title=" ">
<path fill="none" stroke="#63b8ff" d="M129.71,-55.75C139.05,-46.82 149.77,-36.57 158.59,-28.13"/>
<polygon fill="#63b8ff" stroke="#63b8ff" points="160.75,-30.91 165.56,-21.47 155.91,-25.85 160.75,-30.91"/>
</a>
</g>
</g>
</g>
</svg>
