<?xml version="1.0" encoding="UTF-8" standalone="no"?>
<!DOCTYPE svg PUBLIC "-//W3C//DTD SVG 1.1//EN"
 "http://www.w3.org/Graphics/SVG/1.1/DTD/svg11.dtd">
<!-- Generated by graphviz version 14.1.0 (20251206.1807)
 -->
<!-- Title: Source/PyranoEditor/Private/UI/ConsoleLogLineEntry.h Pages: 1 -->
<svg width="713pt" height="120pt"
 viewBox="0.00 0.00 713.00 120.00" xmlns="http://www.w3.org/2000/svg" xmlns:xlink="http://www.w3.org/1999/xlink">
<g id="graph0" class="graph" transform="scale(1 1) rotate(0) translate(4 116)">
<title>Source/PyranoEditor/Private/UI/ConsoleLogLineEntry.h</title>
<!-- Node1 -->
<g id="Node000001" class="node">
<title>Node1</title>
<g id="a_Node000001"><a xlink:title=" ">
<polygon fill="#999999" stroke="#666666" points="362.5,-112 226.5,-112 226.5,-68 362.5,-68 362.5,-112"/>
<text xml:space="preserve" text-anchor="start" x="234.5" y="-98.5" font-family="Helvetica,sans-Serif" font-size="10.00">Source/PyranoEditor</text>
<text xml:space="preserve" text-anchor="start" x="234.5" y="-86.5" font-family="Helvetica,sans-Serif" font-size="10.00">/Private/UI/ConsoleLogLine</text>
<text xml:space="preserve" text-anchor="middle" x="294.5" y="-74.5" font-family="Helvetica,sans-Serif" font-size="10.00">Entry.h</text>
</a>
</g>
</g>
<!-- Node2 -->
<g id="Node000002" class="node">
<title>Node2</title>
<g id="a_Node000002"><a xlink:title=" ">
<polygon fill="#e0e0e0" stroke="#999999" points="79,-26 0,-26 0,-6 79,-6 79,-26"/>
<text xml:space="preserve" text-anchor="middle" x="39.5" y="-12.5" font-family="Helvetica,sans-Serif" font-size="10.00">CoreMinimal.h</text>
</a>
</g>
</g>
<!-- Node1&#45;&gt;Node2 -->
<g id="edge1_Node000001_Node000002" class="edge">
<title>Node1&#45;&gt;Node2</title>
<g id="a_edge1_Node000001_Node000002"><a xlink:title=" ">
<path fill="none" stroke="#63b8ff" d="M226.28,-70.84C185.84,-59.92 133.63,-45.56 87.5,-32 85.08,-31.29 82.6,-30.55 80.1,-29.79"/>
<polygon fill="#63b8ff" stroke="#63b8ff" points="81.19,-26.47 70.6,-26.88 79.14,-33.16 81.19,-26.47"/>
</a>
</g>
</g>
<!-- Node3 -->
<g id="Node000003" class="node">
<title>Node3</title>
<g id="a_Node000003"><a xlink:title=" ">
<polygon fill="#e0e0e0" stroke="#999999" points="214.12,-26 96.88,-26 96.88,-6 214.12,-6 214.12,-26"/>
<text xml:space="preserve" text-anchor="middle" x="155.5" y="-12.5" font-family="Helvetica,sans-Serif" font-size="10.00">Blueprint/UserWidget.h</text>
</a>
</g>
</g>
<!-- Node1&#45;&gt;Node3 -->
<g id="edge2_Node000001_Node000003" class="edge">
<title>Node1&#45;&gt;Node3</title>
<g id="a_edge2_Node000001_Node000003"><a xlink:title=" ">
<path fill="none" stroke="#63b8ff" d="M253.17,-67.59C230.79,-56 203.71,-41.97 183.74,-31.63"/>
<polygon fill="#63b8ff" stroke="#63b8ff" points="185.57,-28.64 175.08,-27.14 182.35,-34.85 185.57,-28.64"/>
</a>
</g>
</g>
<!-- Node4 -->
<g id="Node000004" class="node">
<title>Node4</title>
<g id="a_Node000004"><a xlink:title=" ">
<polygon fill="#e0e0e0" stroke="#999999" points="357.25,-32 231.75,-32 231.75,0 357.25,0 357.25,-32"/>
<text xml:space="preserve" text-anchor="start" x="239.75" y="-18.5" font-family="Helvetica,sans-Serif" font-size="10.00">Blueprint/IUserObjectList</text>
<text xml:space="preserve" text-anchor="middle" x="294.5" y="-6.5" font-family="Helvetica,sans-Serif" font-size="10.00">Entry.h</text>
</a>
</g>
</g>
<!-- Node1&#45;&gt;Node4 -->
<g id="edge3_Node000001_Node000004" class="edge">
<title>Node1&#45;&gt;Node4</title>
<g id="a_edge3_Node000001_Node000004"><a xlink:title=" ">
<path fill="none" stroke="#63b8ff" d="M294.5,-67.79C294.5,-60.18 294.5,-51.52 294.5,-43.52"/>
<polygon fill="#63b8ff" stroke="#63b8ff" points="298,-43.64 294.5,-33.64 291,-43.64 298,-43.64"/>
</a>
</g>
</g>
<!-- Node5 -->
<g id="Node000005" class="node">
<title>Node5</title>
<g id="a_Node000005"><a xlink:title=" ">
<polygon fill="#e0e0e0" stroke="#999999" points="523.88,-32 375.12,-32 375.12,0 523.88,0 523.88,-32"/>
<text xml:space="preserve" text-anchor="start" x="383.12" y="-18.5" font-family="Helvetica,sans-Serif" font-size="10.00">Components/MultiLineEditable</text>
<text xml:space="preserve" text-anchor="middle" x="449.5" y="-6.5" font-family="Helvetica,sans-Serif" font-size="10.00">Text.h</text>
</a>
</g>
</g>
<!-- Node1&#45;&gt;Node5 -->
<g id="edge4_Node000001_Node000005" class="edge">
<title>Node1&#45;&gt;Node5</title>
<g id="a_edge4_Node000001_Node000005"><a xlink:title=" ">
<path fill="none" stroke="#63b8ff" d="M340.59,-67.59C361.26,-57.99 385.51,-46.72 405.88,-37.26"/>
<polygon fill="#63b8ff" stroke="#63b8ff" points="407.17,-40.52 414.77,-33.13 404.23,-34.17 407.17,-40.52"/>
</a>
</g>
</g>
<!-- Node6 -->
<g id="Node000006" class="node">
<title>Node6</title>
<g id="a_Node000006"><a xlink:title=" ">
<polygon fill="#e0e0e0" stroke="#999999" points="704.62,-26 542.38,-26 542.38,-6 704.62,-6 704.62,-26"/>
<text xml:space="preserve" text-anchor="middle" x="623.5" y="-12.5" font-family="Helvetica,sans-Serif" font-size="10.00">ConsoleLogLineEntry.generated.h</text>
</a>
</g>
</g>
<!-- Node1&#45;&gt;Node6 -->
<g id="edge5_Node000001_Node000006" class="edge">
<title>Node1&#45;&gt;Node6</title>
<g id="a_edge5_Node000001_Node000006"><a xlink:title=" ">
<path fill="none" stroke="#63b8ff" d="M362.67,-74.08C423.95,-60.67 512.76,-41.24 569.31,-28.86"/>
<polygon fill="#63b8ff" stroke="#63b8ff" points="570.02,-32.29 579.04,-26.73 568.53,-25.45 570.02,-32.29"/>
</a>
</g>
</g>
</g>
</svg>
