<?xml version="1.0" encoding="UTF-8" standalone="no"?>
<!DOCTYPE svg PUBLIC "-//W3C//DTD SVG 1.1//EN"
 "http://www.w3.org/Graphics/SVG/1.1/DTD/svg11.dtd">
<!-- Generated by graphviz version 14.1.0 (20251206.1807)
 -->
<!-- Title: Source/Pyrano/Private/IneichenPerezClearSky.cpp Pages: 1 -->
<svg width="387pt" height="152pt"
 viewBox="0.00 0.00 387.00 152.00" xmlns="http://www.w3.org/2000/svg" xmlns:xlink="http://www.w3.org/1999/xlink">
<g id="graph0" class="graph" transform="scale(1 1) rotate(0) translate(4 148)">
<title>Source/Pyrano/Private/IneichenPerezClearSky.cpp</title>
<!-- Node1 -->
<g id="Node000001" class="node">
<title>Node1</title>
<g id="a_Node000001"><a xlink:title=" ">
<polygon fill="#999999" stroke="#666666" points="212.38,-144 72.62,-144 72.62,-112 212.38,-112 212.38,-144"/>
<text xml:space="preserve" text-anchor="start" x="80.62" y="-130.5" font-family="Helvetica,sans-Serif" font-size="10.00">Source/Pyrano/Private</text>
<text xml:space="preserve" text-anchor="middle" x="142.5" y="-118.5" font-family="Helvetica,sans-Serif" font-size="10.00">/IneichenPerezClearSky.cpp</text>
</a>
</g>
</g>
<!-- Node2 -->
<g id="Node000002" class="node">
<title>Node2</title>
<g id="a_Node000002"><a xlink:href="_ineichen_perez_clear_sky_8h.html" target="_top" xlink:title=" ">
<polygon fill="white" stroke="#666666" points="205.62,-76 79.38,-76 79.38,-56 205.62,-56 205.62,-76"/>
<text xml:space="preserve" text-anchor="middle" x="142.5" y="-62.5" font-family="Helvetica,sans-Serif" font-size="10.00">IneichenPerezClearSky.h</text>
</a>
</g>
</g>
<!-- Node1&#45;&gt;Node2 -->
<g id="edge1_Node000001_Node000002" class="edge">
<title>Node1&#45;&gt;Node2</title>
<g id="a_edge1_Node000001_Node000002"><a xlink:title=" ">
<path fill="none" stroke="#63b8ff" d="M142.5,-111.55C142.5,-104.34 142.5,-95.66 142.5,-87.88"/>
<polygon fill="#63b8ff" stroke="#63b8ff" points="146,-87.92 142.5,-77.92 139,-87.92 146,-87.92"/>
</a>
</g>
</g>
<!-- Node3 -->
<g id="Node000003" class="node">
<title>Node3</title>
<g id="a_Node000003"><a xlink:title=" ">
<polygon fill="#e0e0e0" stroke="#999999" points="79,-20 0,-20 0,0 79,0 79,-20"/>
<text xml:space="preserve" text-anchor="middle" x="39.5" y="-6.5" font-family="Helvetica,sans-Serif" font-size="10.00">CoreMinimal.h</text>
</a>
</g>
</g>
<!-- Node2&#45;&gt;Node3 -->
<g id="edge2_Node000002_Node000003" class="edge">
<title>Node2&#45;&gt;Node3</title>
<g id="a_edge2_Node000002_Node000003"><a xlink:title=" ">
<path fill="none" stroke="#63b8ff" d="M124.56,-55.59C108.85,-47.36 85.77,-35.26 67.61,-25.74"/>
<polygon fill="#63b8ff" stroke="#63b8ff" points="69.4,-22.73 58.92,-21.18 66.15,-28.93 69.4,-22.73"/>
</a>
</g>
</g>
<!-- Node4 -->
<g id="Node000004" class="node">
<title>Node4</title>
<g id="a_Node000004"><a xlink:title=" ">
<polygon fill="#e0e0e0" stroke="#999999" points="188.38,-20 96.62,-20 96.62,0 188.38,0 188.38,-20"/>
<text xml:space="preserve" text-anchor="middle" x="142.5" y="-6.5" font-family="Helvetica,sans-Serif" font-size="10.00">UObject/Object.h</text>
</a>
</g>
</g>
<!-- Node2&#45;&gt;Node4 -->
<g id="edge3_Node000002_Node000004" class="edge">
<title>Node2&#45;&gt;Node4</title>
<g id="a_edge3_Node000002_Node000004"><a xlink:title=" ">
<path fill="none" stroke="#63b8ff" d="M142.5,-55.59C142.5,-49.01 142.5,-39.96 142.5,-31.73"/>
<polygon fill="#63b8ff" stroke="#63b8ff" points="146,-31.81 142.5,-21.81 139,-31.81 146,-31.81"/>
</a>
</g>
</g>
<!-- Node5 -->
<g id="Node000005" class="node">
<title>Node5</title>
<g id="a_Node000005"><a xlink:title=" ">
<polygon fill="#e0e0e0" stroke="#999999" points="378.5,-20 206.5,-20 206.5,0 378.5,0 378.5,-20"/>
<text xml:space="preserve" text-anchor="middle" x="292.5" y="-6.5" font-family="Helvetica,sans-Serif" font-size="10.00">IneichenPerezClearSky.generated.h</text>
</a>
</g>
</g>
<!-- Node2&#45;&gt;Node5 -->
<g id="edge4_Node000002_Node000005" class="edge">
<title>Node2&#45;&gt;Node5</title>
<g id="a_edge4_Node000002_Node000005"><a xlink:title=" ">
<path fill="none" stroke="#63b8ff" d="M168.63,-55.59C192.68,-46.94 228.6,-34 255.58,-24.29"/>
<polygon fill="#63b8ff" stroke="#63b8ff" points="256.52,-27.67 264.74,-20.99 254.15,-21.09 256.52,-27.67"/>
</a>
</g>
</g>
</g>
</svg>
