<?xml version="1.0" encoding="UTF-8" standalone="no"?>
<!DOCTYPE svg PUBLIC "-//W3C//DTD SVG 1.1//EN"
 "http://www.w3.org/Graphics/SVG/1.1/DTD/svg11.dtd">
<!-- Generated by graphviz version 14.1.0 (20251206.1807)
 -->
<!-- Title: Source/Pyrano/Public/IneichenPerezClearSky.h Pages: 1 -->
<svg width="468pt" height="176pt"
 viewBox="0.00 0.00 468.00 176.00" xmlns="http://www.w3.org/2000/svg" xmlns:xlink="http://www.w3.org/1999/xlink">
<g id="graph0" class="graph" transform="scale(1 1) rotate(0) translate(4 172)">
<title>Source/Pyrano/Public/IneichenPerezClearSky.h</title>
<!-- Node1 -->
<g id="Node000001" class="node">
<title>Node1</title>
<g id="a_Node000001"><a xlink:title=" ">
<polygon fill="#999999" stroke="#666666" points="232.5,-168 103.25,-168 103.25,-136 232.5,-136 232.5,-168"/>
<text xml:space="preserve" text-anchor="start" x="111.25" y="-154.5" font-family="Helvetica,sans-Serif" font-size="10.00">Source/Pyrano/Public</text>
<text xml:space="preserve" text-anchor="middle" x="167.88" y="-142.5" font-family="Helvetica,sans-Serif" font-size="10.00">/IneichenPerezClearSky.h</text>
</a>
</g>
</g>
<!-- Node2 -->
<g id="Node000002" class="node">
<title>Node2</title>
<g id="a_Node000002"><a xlink:href="_ineichen_perez_clear_sky_8cpp.html" target="_top" xlink:title=" ">
<polygon fill="white" stroke="#666666" points="139.75,-100 0,-100 0,-68 139.75,-68 139.75,-100"/>
<text xml:space="preserve" text-anchor="start" x="8" y="-86.5" font-family="Helvetica,sans-Serif" font-size="10.00">Source/Pyrano/Private</text>
<text xml:space="preserve" text-anchor="middle" x="69.88" y="-74.5" font-family="Helvetica,sans-Serif" font-size="10.00">/IneichenPerezClearSky.cpp</text>
</a>
</g>
</g>
<!-- Node1&#45;&gt;Node2 -->
<g id="edge1_Node000001_Node000002" class="edge">
<title>Node1&#45;&gt;Node2</title>
<g id="a_edge1_Node000001_Node000002"><a xlink:title=" ">
<path fill="none" stroke="#63b8ff" d="M135.83,-129.42C121.79,-119.96 105.63,-109.08 92.82,-100.45"/>
<polygon fill="#63b8ff" stroke="#63b8ff" points="133.64,-132.16 143.89,-134.85 137.55,-126.36 133.64,-132.16"/>
</a>
</g>
</g>
<!-- Node3 -->
<g id="Node000003" class="node">
<title>Node3</title>
<g id="a_Node000003"><a xlink:href="_irradiance_scheduler_8cpp.html" target="_top" xlink:title=" ">
<polygon fill="white" stroke="#666666" points="254.25,-32 81.5,-32 81.5,0 254.25,0 254.25,-32"/>
<text xml:space="preserve" text-anchor="start" x="89.5" y="-18.5" font-family="Helvetica,sans-Serif" font-size="10.00">Source/Pyrano/Private</text>
<text xml:space="preserve" text-anchor="middle" x="167.88" y="-6.5" font-family="Helvetica,sans-Serif" font-size="10.00">/Simulation/IrradianceScheduler.cpp</text>
</a>
</g>
</g>
<!-- Node1&#45;&gt;Node3 -->
<g id="edge2_Node000001_Node000003" class="edge">
<title>Node1&#45;&gt;Node3</title>
<g id="a_edge2_Node000001_Node000003"><a xlink:title=" ">
<path fill="none" stroke="#63b8ff" d="M167.88,-124.45C167.88,-96.84 167.88,-54.6 167.88,-32.19"/>
<polygon fill="#63b8ff" stroke="#63b8ff" points="164.38,-124.11 167.88,-134.11 171.38,-124.11 164.38,-124.11"/>
</a>
</g>
</g>
<!-- Node4 -->
<g id="Node000004" class="node">
<title>Node4</title>
<g id="a_Node000004"><a xlink:href="_irradiance_subsystem_8h.html" target="_top" xlink:title=" ">
<polygon fill="white" stroke="#666666" points="373.5,-100 196.25,-100 196.25,-68 373.5,-68 373.5,-100"/>
<text xml:space="preserve" text-anchor="start" x="204.25" y="-86.5" font-family="Helvetica,sans-Serif" font-size="10.00">Source/Pyrano/Public</text>
<text xml:space="preserve" text-anchor="middle" x="284.88" y="-74.5" font-family="Helvetica,sans-Serif" font-size="10.00">/Subsystems/IrradianceSubsystem.h</text>
</a>
</g>
</g>
<!-- Node1&#45;&gt;Node4 -->
<g id="edge3_Node000001_Node000004" class="edge">
<title>Node1&#45;&gt;Node4</title>
<g id="a_edge3_Node000001_Node000004"><a xlink:title=" ">
<path fill="none" stroke="#63b8ff" d="M204.98,-130.07C222.06,-120.44 241.95,-109.21 257.62,-100.38"/>
<polygon fill="#63b8ff" stroke="#63b8ff" points="203.61,-126.82 196.62,-134.78 207.05,-132.92 203.61,-126.82"/>
</a>
</g>
</g>
<!-- Node4&#45;&gt;Node3 -->
<g id="edge4_Node000004_Node000003" class="edge">
<title>Node4&#45;&gt;Node3</title>
<g id="a_edge4_Node000004_Node000003"><a xlink:title=" ">
<path fill="none" stroke="#63b8ff" d="M247.77,-62.07C230.69,-52.44 210.8,-41.21 195.13,-32.38"/>
<polygon fill="#63b8ff" stroke="#63b8ff" points="245.7,-64.92 256.13,-66.78 249.14,-58.82 245.7,-64.92"/>
</a>
</g>
</g>
<!-- Node5 -->
<g id="Node000005" class="node">
<title>Node5</title>
<g id="a_Node000005"><a xlink:href="_irradiance_subsystem_8cpp.html" target="_top" xlink:title=" ">
<polygon fill="white" stroke="#666666" points="459.75,-32 272,-32 272,0 459.75,0 459.75,-32"/>
<text xml:space="preserve" text-anchor="start" x="280" y="-18.5" font-family="Helvetica,sans-Serif" font-size="10.00">Source/Pyrano/Private</text>
<text xml:space="preserve" text-anchor="middle" x="365.88" y="-6.5" font-family="Helvetica,sans-Serif" font-size="10.00">/Subsystems/IrradianceSubsystem.cpp</text>
</a>
</g>
</g>
<!-- Node4&#45;&gt;Node5 -->
<g id="edge5_Node000004_Node000005" class="edge">
<title>Node4&#45;&gt;Node5</title>
<g id="a_edge5_Node000004_Node000005"><a xlink:title=" ">
<path fill="none" stroke="#63b8ff" d="M312.37,-60.6C323.73,-51.34 336.63,-40.83 346.91,-32.45"/>
<polygon fill="#63b8ff" stroke="#63b8ff" points="310.38,-57.71 304.83,-66.74 314.8,-63.13 310.38,-57.71"/>
</a>
</g>
</g>
</g>
</svg>
