<?xml version="1.0" encoding="UTF-8" standalone="no"?>
<!DOCTYPE svg PUBLIC "-//W3C//DTD SVG 1.1//EN"
 "http://www.w3.org/Graphics/SVG/1.1/DTD/svg11.dtd">
<!-- Generated by graphviz version 14.1.0 (20251206.1807)
 -->
<!-- Title: Source/Pyrano/Public/Irradiance/IrradianceCommon.h Pages: 1 -->
<svg width="1470pt" height="120pt"
 viewBox="0.00 0.00 1470.00 120.00" xmlns="http://www.w3.org/2000/svg" xmlns:xlink="http://www.w3.org/1999/xlink">
<g id="graph0" class="graph" transform="scale(1 1) rotate(0) translate(4 116)">
<title>Source/Pyrano/Public/Irradiance/IrradianceCommon.h</title>
<!-- Node1 -->
<g id="Node000001" class="node">
<title>Node1</title>
<g id="a_Node000001"><a xlink:title=" ">
<polygon fill="#999999" stroke="#666666" points="814.75,-112 659.25,-112 659.25,-80 814.75,-80 814.75,-112"/>
<text xml:space="preserve" text-anchor="start" x="667.25" y="-98.5" font-family="Helvetica,sans-Serif" font-size="10.00">Source/Pyrano/Public</text>
<text xml:space="preserve" text-anchor="middle" x="737" y="-86.5" font-family="Helvetica,sans-Serif" font-size="10.00">/Irradiance/IrradianceCommon.h</text>
</a>
</g>
</g>
<!-- Node2 -->
<g id="Node000002" class="node">
<title>Node2</title>
<g id="a_Node000002"><a xlink:href="_irradiance_common_8cpp.html" target="_top" xlink:title=" ">
<polygon fill="white" stroke="#666666" points="166,-38 0,-38 0,-6 166,-6 166,-38"/>
<text xml:space="preserve" text-anchor="start" x="8" y="-24.5" font-family="Helvetica,sans-Serif" font-size="10.00">Source/Pyrano/Private</text>
<text xml:space="preserve" text-anchor="middle" x="83" y="-12.5" font-family="Helvetica,sans-Serif" font-size="10.00">/Irradiance/IrradianceCommon.cpp</text>
</a>
</g>
</g>
<!-- Node1&#45;&gt;Node2 -->
<g id="edge1_Node000001_Node000002" class="edge">
<title>Node1&#45;&gt;Node2</title>
<g id="a_edge1_Node000001_Node000002"><a xlink:title=" ">
<path fill="none" stroke="#63b8ff" d="M647.7,-90.6C536.46,-84.26 340.81,-70.33 175,-44 165.45,-42.48 155.42,-40.55 145.63,-38.48"/>
<polygon fill="#63b8ff" stroke="#63b8ff" points="647.17,-94.07 657.35,-91.14 647.56,-87.08 647.17,-94.07"/>
</a>
</g>
</g>
<!-- Node3 -->
<g id="Node000003" class="node">
<title>Node3</title>
<g id="a_Node000003"><a xlink:href="_irradiance_integrate_c_s_8cpp.html" target="_top" xlink:title=" ">
<polygon fill="white" stroke="#666666" points="329.88,-44 184.12,-44 184.12,0 329.88,0 329.88,-44"/>
<text xml:space="preserve" text-anchor="start" x="192.12" y="-30.5" font-family="Helvetica,sans-Serif" font-size="10.00">Source/Pyrano/Private</text>
<text xml:space="preserve" text-anchor="start" x="192.12" y="-18.5" font-family="Helvetica,sans-Serif" font-size="10.00">/Irradiance/IrradianceIntegrate</text>
<text xml:space="preserve" text-anchor="middle" x="257" y="-6.5" font-family="Helvetica,sans-Serif" font-size="10.00">CS.cpp</text>
</a>
</g>
</g>
<!-- Node1&#45;&gt;Node3 -->
<g id="edge2_Node000001_Node000003" class="edge">
<title>Node1&#45;&gt;Node3</title>
<g id="a_edge2_Node000001_Node000003"><a xlink:title=" ">
<path fill="none" stroke="#63b8ff" d="M647.61,-86.73C566.62,-78.48 444.21,-64.13 339,-44 336.11,-43.45 333.18,-42.85 330.22,-42.23"/>
<polygon fill="#63b8ff" stroke="#63b8ff" points="646.95,-90.18 657.26,-87.7 647.66,-83.21 646.95,-90.18"/>
</a>
</g>
</g>
<!-- Node4 -->
<g id="Node000004" class="node">
<title>Node4</title>
<g id="a_Node000004"><a xlink:href="_irradiance_scheduler_8cpp.html" target="_top" xlink:title=" ">
<polygon fill="white" stroke="#666666" points="520.38,-38 347.62,-38 347.62,-6 520.38,-6 520.38,-38"/>
<text xml:space="preserve" text-anchor="start" x="355.62" y="-24.5" font-family="Helvetica,sans-Serif" font-size="10.00">Source/Pyrano/Private</text>
<text xml:space="preserve" text-anchor="middle" x="434" y="-12.5" font-family="Helvetica,sans-Serif" font-size="10.00">/Simulation/IrradianceScheduler.cpp</text>
</a>
</g>
</g>
<!-- Node1&#45;&gt;Node4 -->
<g id="edge3_Node000001_Node000004" class="edge">
<title>Node1&#45;&gt;Node4</title>
<g id="a_edge3_Node000001_Node000004"><a xlink:title=" ">
<path fill="none" stroke="#63b8ff" d="M660.95,-76.93C611.11,-65.09 546.64,-49.77 499.15,-38.48"/>
<polygon fill="#63b8ff" stroke="#63b8ff" points="659.99,-80.3 670.53,-79.2 661.61,-73.49 659.99,-80.3"/>
</a>
</g>
</g>
<!-- Node5 -->
<g id="Node000005" class="node">
<title>Node5</title>
<g id="a_Node000005"><a xlink:href="_irradiance_subsystem_8cpp.html" target="_top" xlink:title=" ">
<polygon fill="white" stroke="#666666" points="725.88,-38 538.12,-38 538.12,-6 725.88,-6 725.88,-38"/>
<text xml:space="preserve" text-anchor="start" x="546.12" y="-24.5" font-family="Helvetica,sans-Serif" font-size="10.00">Source/Pyrano/Private</text>
<text xml:space="preserve" text-anchor="middle" x="632" y="-12.5" font-family="Helvetica,sans-Serif" font-size="10.00">/Subsystems/IrradianceSubsystem.cpp</text>
</a>
</g>
</g>
<!-- Node1&#45;&gt;Node5 -->
<g id="edge4_Node000001_Node000005" class="edge">
<title>Node1&#45;&gt;Node5</title>
<g id="a_edge4_Node000001_Node000005"><a xlink:title=" ">
<path fill="none" stroke="#63b8ff" d="M705.26,-73.24C688.88,-62.01 669.29,-48.57 654.49,-38.42"/>
<polygon fill="#63b8ff" stroke="#63b8ff" points="703,-75.93 713.23,-78.7 706.96,-70.16 703,-75.93"/>
</a>
</g>
</g>
<!-- Node6 -->
<g id="Node000006" class="node">
<title>Node6</title>
<g id="a_Node000006"><a xlink:href="_irradiance_configuration_8cpp.html" target="_top" xlink:title=" ">
<polygon fill="white" stroke="#666666" points="940,-38 744,-38 744,-6 940,-6 940,-38"/>
<text xml:space="preserve" text-anchor="start" x="752" y="-24.5" font-family="Helvetica,sans-Serif" font-size="10.00">Source/PyranoEditor</text>
<text xml:space="preserve" text-anchor="middle" x="842" y="-12.5" font-family="Helvetica,sans-Serif" font-size="10.00">/Private/Data/IrradianceConfiguration.cpp</text>
</a>
</g>
</g>
<!-- Node1&#45;&gt;Node6 -->
<g id="edge5_Node000001_Node000006" class="edge">
<title>Node1&#45;&gt;Node6</title>
<g id="a_edge5_Node000001_Node000006"><a xlink:title=" ">
<path fill="none" stroke="#63b8ff" d="M768.74,-73.24C785.12,-62.01 804.71,-48.57 819.51,-38.42"/>
<polygon fill="#63b8ff" stroke="#63b8ff" points="767.04,-70.16 760.77,-78.7 771,-75.93 767.04,-70.16"/>
</a>
</g>
</g>
<!-- Node7 -->
<g id="Node000007" class="node">
<title>Node7</title>
<g id="a_Node000007"><a xlink:href="_pyrano_console_log_sink_8cpp.html" target="_top" xlink:title=" ">
<polygon fill="white" stroke="#666666" points="1114.12,-44 957.88,-44 957.88,0 1114.12,0 1114.12,-44"/>
<text xml:space="preserve" text-anchor="start" x="965.88" y="-30.5" font-family="Helvetica,sans-Serif" font-size="10.00">Source/PyranoEditor</text>
<text xml:space="preserve" text-anchor="start" x="965.88" y="-18.5" font-family="Helvetica,sans-Serif" font-size="10.00">/Private/Logging/PyranoConsole</text>
<text xml:space="preserve" text-anchor="middle" x="1036" y="-6.5" font-family="Helvetica,sans-Serif" font-size="10.00">LogSink.cpp</text>
</a>
</g>
</g>
<!-- Node1&#45;&gt;Node7 -->
<g id="edge6_Node000001_Node000007" class="edge">
<title>Node1&#45;&gt;Node7</title>
<g id="a_edge6_Node000001_Node000007"><a xlink:title=" ">
<path fill="none" stroke="#63b8ff" d="M812.61,-76.83C853.07,-67.1 903.75,-54.9 949,-44 951.87,-43.31 954.79,-42.6 957.75,-41.89"/>
<polygon fill="#63b8ff" stroke="#63b8ff" points="811.86,-73.41 802.95,-79.15 813.5,-80.21 811.86,-73.41"/>
</a>
</g>
</g>
<!-- Node8 -->
<g id="Node000008" class="node">
<title>Node8</title>
<g id="a_Node000008"><a xlink:href="_pyrano_editor_subsystem_8cpp.html" target="_top" xlink:title=" ">
<polygon fill="white" stroke="#666666" points="1275.75,-44 1132.25,-44 1132.25,0 1275.75,0 1275.75,-44"/>
<text xml:space="preserve" text-anchor="start" x="1140.25" y="-30.5" font-family="Helvetica,sans-Serif" font-size="10.00">Source/PyranoEditor</text>
<text xml:space="preserve" text-anchor="start" x="1140.25" y="-18.5" font-family="Helvetica,sans-Serif" font-size="10.00">/Private/Subsystems</text>
<text xml:space="preserve" text-anchor="middle" x="1204" y="-6.5" font-family="Helvetica,sans-Serif" font-size="10.00">/PyranoEditorSubsystem.cpp</text>
</a>
</g>
</g>
<!-- Node1&#45;&gt;Node8 -->
<g id="edge7_Node000001_Node000008" class="edge">
<title>Node1&#45;&gt;Node8</title>
<g id="a_edge7_Node000001_Node000008"><a xlink:title=" ">
<path fill="none" stroke="#63b8ff" d="M826.39,-86.33C904.94,-77.96 1022.14,-63.66 1123,-44 1125.99,-43.42 1129.04,-42.79 1132.12,-42.12"/>
<polygon fill="#63b8ff" stroke="#63b8ff" points="826.17,-82.83 816.59,-87.36 826.9,-89.79 826.17,-82.83"/>
</a>
</g>
</g>
<!-- Node9 -->
<g id="Node000009" class="node">
<title>Node9</title>
<g id="a_Node000009"><a xlink:href="_console_log_widget_8cpp.html" target="_top" xlink:title=" ">
<polygon fill="white" stroke="#666666" points="1461.75,-38 1294.25,-38 1294.25,-6 1461.75,-6 1461.75,-38"/>
<text xml:space="preserve" text-anchor="start" x="1302.25" y="-24.5" font-family="Helvetica,sans-Serif" font-size="10.00">Source/PyranoEditor</text>
<text xml:space="preserve" text-anchor="middle" x="1378" y="-12.5" font-family="Helvetica,sans-Serif" font-size="10.00">/Private/UI/ConsoleLogWidget.cpp</text>
</a>
</g>
</g>
<!-- Node1&#45;&gt;Node9 -->
<g id="edge8_Node000001_Node000009" class="edge">
<title>Node1&#45;&gt;Node9</title>
<g id="a_edge8_Node000001_Node000009"><a xlink:title=" ">
<path fill="none" stroke="#63b8ff" d="M826.23,-90.25C935.06,-83.64 1124.36,-69.5 1285,-44 1294.65,-42.47 1304.78,-40.53 1314.68,-38.45"/>
<polygon fill="#63b8ff" stroke="#63b8ff" points="826.27,-86.74 816.5,-90.83 826.69,-93.73 826.27,-86.74"/>
</a>
</g>
</g>
</g>
</svg>
