<?xml version="1.0" encoding="UTF-8" standalone="no"?>
<!DOCTYPE svg PUBLIC "-//W3C//DTD SVG 1.1//EN"
 "http://www.w3.org/Graphics/SVG/1.1/DTD/svg11.dtd">
<!-- Generated by graphviz version 14.1.0 (20251206.1807)
 -->
<!-- Title: Source/Pyrano/Private/Irradiance/IrradianceViewExtension.cpp Pages: 1 -->
<svg width="1177pt" height="164pt"
 viewBox="0.00 0.00 1177.00 164.00" xmlns="http://www.w3.org/2000/svg" xmlns:xlink="http://www.w3.org/1999/xlink">
<g id="graph0" class="graph" transform="scale(1 1) rotate(0) translate(4 160)">
<title>Source/Pyrano/Private/Irradiance/IrradianceViewExtension.cpp</title>
<!-- Node1 -->
<g id="Node000001" class="node">
<title>Node1</title>
<g id="a_Node000001"><a xlink:title=" ">
<polygon fill="#999999" stroke="#666666" points="692.88,-156 501.38,-156 501.38,-124 692.88,-124 692.88,-156"/>
<text xml:space="preserve" text-anchor="start" x="509.38" y="-142.5" font-family="Helvetica,sans-Serif" font-size="10.00">Source/Pyrano/Private</text>
<text xml:space="preserve" text-anchor="middle" x="597.12" y="-130.5" font-family="Helvetica,sans-Serif" font-size="10.00">/Irradiance/IrradianceViewExtension.cpp</text>
</a>
</g>
</g>
<!-- Node2 -->
<g id="Node000002" class="node">
<title>Node2</title>
<g id="a_Node000002"><a xlink:href="_irradiance_view_extension_8h.html" target="_top" xlink:title=" ">
<polygon fill="white" stroke="#666666" points="126.25,-88 0,-88 0,-56 126.25,-56 126.25,-88"/>
<text xml:space="preserve" text-anchor="start" x="8" y="-74.5" font-family="Helvetica,sans-Serif" font-size="10.00">Irradiance/IrradianceView</text>
<text xml:space="preserve" text-anchor="middle" x="63.12" y="-62.5" font-family="Helvetica,sans-Serif" font-size="10.00">Extension.h</text>
</a>
</g>
</g>
<!-- Node1&#45;&gt;Node2 -->
<g id="edge1_Node000001_Node000002" class="edge">
<title>Node1&#45;&gt;Node2</title>
<g id="a_edge1_Node000001_Node000002"><a xlink:title=" ">
<path fill="none" stroke="#63b8ff" d="M501.21,-131.1C410.08,-122.98 269.01,-108.82 137.72,-88.32"/>
<polygon fill="#63b8ff" stroke="#63b8ff" points="138.59,-84.92 128.16,-86.82 137.49,-91.83 138.59,-84.92"/>
</a>
</g>
</g>
<!-- Node5 -->
<g id="Node000005" class="node">
<title>Node5</title>
<g id="a_Node000005"><a xlink:title=" ">
<polygon fill="#e0e0e0" stroke="#999999" points="296,-82 144.25,-82 144.25,-62 296,-62 296,-82"/>
<text xml:space="preserve" text-anchor="middle" x="220.12" y="-68.5" font-family="Helvetica,sans-Serif" font-size="10.00">SceneViewExtensionContext.h</text>
</a>
</g>
</g>
<!-- Node1&#45;&gt;Node5 -->
<g id="edge4_Node000001_Node000005" class="edge">
<title>Node1&#45;&gt;Node5</title>
<g id="a_edge4_Node000001_Node000005"><a xlink:title=" ">
<path fill="none" stroke="#63b8ff" d="M508.31,-123.53C450.44,-113.44 373.3,-99.97 305.12,-88 298.44,-86.83 291.46,-85.6 284.5,-84.37"/>
<polygon fill="#63b8ff" stroke="#63b8ff" points="285.57,-81.01 275.12,-82.72 284.36,-87.9 285.57,-81.01"/>
</a>
</g>
</g>
<!-- Node6 -->
<g id="Node000006" class="node">
<title>Node6</title>
<g id="a_Node000006"><a xlink:title=" ">
<polygon fill="#e0e0e0" stroke="#999999" points="480.12,-88 314.12,-88 314.12,-56 480.12,-56 480.12,-88"/>
<text xml:space="preserve" text-anchor="start" x="322.12" y="-74.5" font-family="Helvetica,sans-Serif" font-size="10.00">PostProcess/PostProcessMaterial</text>
<text xml:space="preserve" text-anchor="middle" x="397.12" y="-62.5" font-family="Helvetica,sans-Serif" font-size="10.00">Inputs.h</text>
</a>
</g>
</g>
<!-- Node1&#45;&gt;Node6 -->
<g id="edge5_Node000001_Node000006" class="edge">
<title>Node1&#45;&gt;Node6</title>
<g id="a_edge5_Node000001_Node000006"><a xlink:title=" ">
<path fill="none" stroke="#63b8ff" d="M550.23,-123.53C521.75,-114.13 485.17,-102.05 454.91,-92.07"/>
<polygon fill="#63b8ff" stroke="#63b8ff" points="456.1,-88.78 445.51,-88.97 453.91,-95.42 456.1,-88.78"/>
</a>
</g>
</g>
<!-- Node7 -->
<g id="Node000007" class="node">
<title>Node7</title>
<g id="a_Node000007"><a xlink:title=" ">
<polygon fill="#e0e0e0" stroke="#999999" points="540.25,-82 498,-82 498,-62 540.25,-62 540.25,-82"/>
<text xml:space="preserve" text-anchor="middle" x="519.12" y="-68.5" font-family="Helvetica,sans-Serif" font-size="10.00">RHI.h</text>
</a>
</g>
</g>
<!-- Node1&#45;&gt;Node7 -->
<g id="edge6_Node000001_Node000007" class="edge">
<title>Node1&#45;&gt;Node7</title>
<g id="a_edge6_Node000001_Node000007"><a xlink:title=" ">
<path fill="none" stroke="#63b8ff" d="M579.03,-123.69C566.98,-113.5 551.15,-100.1 538.79,-89.64"/>
<polygon fill="#63b8ff" stroke="#63b8ff" points="541.19,-87.08 531.29,-83.29 536.66,-92.43 541.19,-87.08"/>
</a>
</g>
</g>
<!-- Node8 -->
<g id="Node000008" class="node">
<title>Node8</title>
<g id="a_Node000008"><a xlink:title=" ">
<polygon fill="#e0e0e0" stroke="#999999" points="635.88,-82 558.38,-82 558.38,-62 635.88,-62 635.88,-82"/>
<text xml:space="preserve" text-anchor="middle" x="597.12" y="-68.5" font-family="Helvetica,sans-Serif" font-size="10.00">ScreenPass.h</text>
</a>
</g>
</g>
<!-- Node1&#45;&gt;Node8 -->
<g id="edge7_Node000001_Node000008" class="edge">
<title>Node1&#45;&gt;Node8</title>
<g id="a_edge7_Node000001_Node000008"><a xlink:title=" ">
<path fill="none" stroke="#63b8ff" d="M597.12,-123.69C597.12,-114.8 597.12,-103.46 597.12,-93.77"/>
<polygon fill="#63b8ff" stroke="#63b8ff" points="600.63,-93.83 597.13,-83.83 593.63,-93.83 600.63,-93.83"/>
</a>
</g>
</g>
<!-- Node9 -->
<g id="Node000009" class="node">
<title>Node9</title>
<g id="a_Node000009"><a xlink:title=" ">
<polygon fill="#e0e0e0" stroke="#999999" points="780.62,-82 653.62,-82 653.62,-62 780.62,-62 780.62,-82"/>
<text xml:space="preserve" text-anchor="middle" x="717.12" y="-68.5" font-family="Helvetica,sans-Serif" font-size="10.00">Templates/RefCounting.h</text>
</a>
</g>
</g>
<!-- Node1&#45;&gt;Node9 -->
<g id="edge8_Node000001_Node000009" class="edge">
<title>Node1&#45;&gt;Node9</title>
<g id="a_edge8_Node000001_Node000009"><a xlink:title=" ">
<path fill="none" stroke="#63b8ff" d="M625.26,-123.53C644.78,-112.79 670.64,-98.56 689.95,-87.94"/>
<polygon fill="#63b8ff" stroke="#63b8ff" points="691.52,-91.08 698.6,-83.19 688.15,-84.94 691.52,-91.08"/>
</a>
</g>
</g>
<!-- Node10 -->
<g id="Node000010" class="node">
<title>Node10</title>
<g id="a_Node000010"><a xlink:title=" ">
<polygon fill="#e0e0e0" stroke="#999999" points="901.25,-82 799,-82 799,-62 901.25,-62 901.25,-82"/>
<text xml:space="preserve" text-anchor="middle" x="850.12" y="-68.5" font-family="Helvetica,sans-Serif" font-size="10.00">RenderGraphUtils.h</text>
</a>
</g>
</g>
<!-- Node1&#45;&gt;Node10 -->
<g id="edge9_Node000001_Node000010" class="edge">
<title>Node1&#45;&gt;Node10</title>
<g id="a_edge9_Node000001_Node000010"><a xlink:title=" ">
<path fill="none" stroke="#63b8ff" d="M656.44,-123.53C701.13,-111.87 761.57,-96.1 802.98,-85.3"/>
<polygon fill="#63b8ff" stroke="#63b8ff" points="803.6,-88.75 812.4,-82.84 801.84,-81.98 803.6,-88.75"/>
</a>
</g>
</g>
<!-- Node11 -->
<g id="Node000011" class="node">
<title>Node11</title>
<g id="a_Node000011"><a xlink:title=" ">
<polygon fill="#e0e0e0" stroke="#999999" points="1031.12,-82 919.12,-82 919.12,-62 1031.12,-62 1031.12,-82"/>
<text xml:space="preserve" text-anchor="middle" x="975.12" y="-68.5" font-family="Helvetica,sans-Serif" font-size="10.00">RenderGraphBuilder.h</text>
</a>
</g>
</g>
<!-- Node1&#45;&gt;Node11 -->
<g id="edge10_Node000001_Node000011" class="edge">
<title>Node1&#45;&gt;Node11</title>
<g id="a_edge10_Node000001_Node000011"><a xlink:title=" ">
<path fill="none" stroke="#63b8ff" d="M693.31,-124.99C755.37,-115.54 837.73,-102.23 910.12,-88 914.99,-87.04 920.04,-85.99 925.08,-84.89"/>
<polygon fill="#63b8ff" stroke="#63b8ff" points="925.55,-88.38 934.55,-82.79 924.03,-81.54 925.55,-88.38"/>
</a>
</g>
</g>
<!-- Node12 -->
<g id="Node000012" class="node">
<title>Node12</title>
<g id="a_Node000012"><a xlink:href="_irradiance_log_8h.html" target="_top" xlink:title=" ">
<polygon fill="white" stroke="#666666" points="1168.88,-82 1049.38,-82 1049.38,-62 1168.88,-62 1168.88,-82"/>
<text xml:space="preserve" text-anchor="middle" x="1109.12" y="-68.5" font-family="Helvetica,sans-Serif" font-size="10.00">Logging/IrradianceLog.h</text>
</a>
</g>
</g>
<!-- Node1&#45;&gt;Node12 -->
<g id="edge11_Node000001_Node000012" class="edge">
<title>Node1&#45;&gt;Node12</title>
<g id="a_edge11_Node000001_Node000012"><a xlink:title=" ">
<path fill="none" stroke="#63b8ff" d="M693,-130.74C782.98,-122.33 921.17,-107.73 1040.12,-88 1045.8,-87.06 1051.71,-85.96 1057.58,-84.79"/>
<polygon fill="#63b8ff" stroke="#63b8ff" points="1058.19,-88.24 1067.27,-82.79 1056.77,-81.38 1058.19,-88.24"/>
</a>
</g>
</g>
<!-- Node3 -->
<g id="Node000003" class="node">
<title>Node3</title>
<g id="a_Node000003"><a xlink:title=" ">
<polygon fill="#e0e0e0" stroke="#999999" points="683.62,-20 604.62,-20 604.62,0 683.62,0 683.62,-20"/>
<text xml:space="preserve" text-anchor="middle" x="644.12" y="-6.5" font-family="Helvetica,sans-Serif" font-size="10.00">CoreMinimal.h</text>
</a>
</g>
</g>
<!-- Node2&#45;&gt;Node3 -->
<g id="edge2_Node000002_Node000003" class="edge">
<title>Node2&#45;&gt;Node3</title>
<g id="a_edge2_Node000002_Node000003"><a xlink:title=" ">
<path fill="none" stroke="#63b8ff" d="M126.66,-57.34C129.51,-56.86 132.35,-56.41 135.12,-56 301.59,-31.39 500.82,-18.54 592.87,-13.54"/>
<polygon fill="#63b8ff" stroke="#63b8ff" points="593.03,-17.04 602.83,-13.01 592.66,-10.05 593.03,-17.04"/>
</a>
</g>
</g>
<!-- Node4 -->
<g id="Node000004" class="node">
<title>Node4</title>
<g id="a_Node000004"><a xlink:title=" ">
<polygon fill="#e0e0e0" stroke="#999999" points="121.75,-20 4.5,-20 4.5,0 121.75,0 121.75,-20"/>
<text xml:space="preserve" text-anchor="middle" x="63.12" y="-6.5" font-family="Helvetica,sans-Serif" font-size="10.00">SceneViewExtension.h</text>
</a>
</g>
</g>
<!-- Node2&#45;&gt;Node4 -->
<g id="edge3_Node000002_Node000004" class="edge">
<title>Node2&#45;&gt;Node4</title>
<g id="a_edge3_Node000002_Node000004"><a xlink:title=" ">
<path fill="none" stroke="#63b8ff" d="M63.12,-55.55C63.12,-48.34 63.12,-39.66 63.12,-31.88"/>
<polygon fill="#63b8ff" stroke="#63b8ff" points="66.63,-31.92 63.13,-21.92 59.63,-31.92 66.63,-31.92"/>
</a>
</g>
</g>
<!-- Node12&#45;&gt;Node3 -->
<g id="edge12_Node000012_Node000003" class="edge">
<title>Node12&#45;&gt;Node3</title>
<g id="a_edge12_Node000012_Node000003"><a xlink:title=" ">
<path fill="none" stroke="#63b8ff" d="M1068.76,-61.51C1059.39,-59.51 1049.44,-57.54 1040.12,-56 916.91,-35.66 770.6,-21.63 695,-15.13"/>
<polygon fill="#63b8ff" stroke="#63b8ff" points="695.7,-11.67 685.44,-14.31 695.11,-18.65 695.7,-11.67"/>
</a>
</g>
</g>
</g>
</svg>
