<?xml version="1.0" encoding="UTF-8" standalone="no"?>
<!DOCTYPE svg PUBLIC "-//W3C//DTD SVG 1.1//EN"
 "http://www.w3.org/Graphics/SVG/1.1/DTD/svg11.dtd">
<!-- Generated by graphviz version 14.1.0 (20251206.1807)
 -->
<!-- Title: Source/Pyrano/Private/Irradiance/IrradianceExporter.cpp Pages: 1 -->
<svg width="1850pt" height="152pt"
 viewBox="0.00 0.00 1850.00 152.00" xmlns="http://www.w3.org/2000/svg" xmlns:xlink="http://www.w3.org/1999/xlink">
<g id="graph0" class="graph" transform="scale(1 1) rotate(0) translate(4 148)">
<title>Source/Pyrano/Private/Irradiance/IrradianceExporter.cpp</title>
<!-- Node1 -->
<g id="Node000001" class="node">
<title>Node1</title>
<g id="a_Node000001"><a xlink:title=" ">
<polygon fill="#999999" stroke="#666666" points="1034.25,-144 871.25,-144 871.25,-112 1034.25,-112 1034.25,-144"/>
<text xml:space="preserve" text-anchor="start" x="879.25" y="-130.5" font-family="Helvetica,sans-Serif" font-size="10.00">Source/Pyrano/Private</text>
<text xml:space="preserve" text-anchor="middle" x="952.75" y="-118.5" font-family="Helvetica,sans-Serif" font-size="10.00">/Irradiance/IrradianceExporter.cpp</text>
</a>
</g>
</g>
<!-- Node2 -->
<g id="Node000002" class="node">
<title>Node2</title>
<g id="a_Node000002"><a xlink:href="_irradiance_exporter_8h.html" target="_top" xlink:title=" ">
<polygon fill="white" stroke="#666666" points="149.5,-76 0,-76 0,-56 149.5,-56 149.5,-76"/>
<text xml:space="preserve" text-anchor="middle" x="74.75" y="-62.5" font-family="Helvetica,sans-Serif" font-size="10.00">Irradiance/IrradianceExporter.h</text>
</a>
</g>
</g>
<!-- Node1&#45;&gt;Node2 -->
<g id="edge1_Node000001_Node000002" class="edge">
<title>Node1&#45;&gt;Node2</title>
<g id="a_edge1_Node000001_Node000002"><a xlink:title=" ">
<path fill="none" stroke="#63b8ff" d="M870.94,-122.9C728.9,-115.52 427.22,-98.73 161.28,-76.18"/>
<polygon fill="#63b8ff" stroke="#63b8ff" points="161.61,-72.7 151.35,-75.33 161.01,-79.67 161.61,-72.7"/>
</a>
</g>
</g>
<!-- Node5 -->
<g id="Node000005" class="node">
<title>Node5</title>
<g id="a_Node000005"><a xlink:title=" ">
<polygon fill="#e0e0e0" stroke="#999999" points="209.88,-76 167.62,-76 167.62,-56 209.88,-56 209.88,-76"/>
<text xml:space="preserve" text-anchor="middle" x="188.75" y="-62.5" font-family="Helvetica,sans-Serif" font-size="10.00">RHI.h</text>
</a>
</g>
</g>
<!-- Node1&#45;&gt;Node5 -->
<g id="edge4_Node000001_Node000005" class="edge">
<title>Node1&#45;&gt;Node5</title>
<g id="a_edge4_Node000001_Node000005"><a xlink:title=" ">
<path fill="none" stroke="#63b8ff" d="M870.83,-127.21C736.49,-126.26 461.14,-118.89 221.27,-76.07"/>
<polygon fill="#63b8ff" stroke="#63b8ff" points="222.19,-72.68 211.73,-74.34 220.95,-79.57 222.19,-72.68"/>
</a>
</g>
</g>
<!-- Node6 -->
<g id="Node000006" class="node">
<title>Node6</title>
<g id="a_Node000006"><a xlink:title=" ">
<polygon fill="#e0e0e0" stroke="#999999" points="335.88,-76 227.62,-76 227.62,-56 335.88,-56 335.88,-76"/>
<text xml:space="preserve" text-anchor="middle" x="281.75" y="-62.5" font-family="Helvetica,sans-Serif" font-size="10.00">RHIGPUReadback.h</text>
</a>
</g>
</g>
<!-- Node1&#45;&gt;Node6 -->
<g id="edge5_Node000001_Node000006" class="edge">
<title>Node1&#45;&gt;Node6</title>
<g id="a_edge5_Node000001_Node000006"><a xlink:title=" ">
<path fill="none" stroke="#63b8ff" d="M870.98,-121.66C756.33,-113.83 541.02,-97.9 347.6,-76.27"/>
<polygon fill="#63b8ff" stroke="#63b8ff" points="348.19,-72.81 337.86,-75.17 347.41,-79.77 348.19,-72.81"/>
</a>
</g>
</g>
<!-- Node7 -->
<g id="Node000007" class="node">
<title>Node7</title>
<g id="a_Node000007"><a xlink:title=" ">
<polygon fill="#e0e0e0" stroke="#999999" points="483.38,-76 354.12,-76 354.12,-56 483.38,-56 483.38,-76"/>
<text xml:space="preserve" text-anchor="middle" x="418.75" y="-62.5" font-family="Helvetica,sans-Serif" font-size="10.00">RenderGraphResources.h</text>
</a>
</g>
</g>
<!-- Node1&#45;&gt;Node7 -->
<g id="edge6_Node000001_Node000007" class="edge">
<title>Node1&#45;&gt;Node7</title>
<g id="a_edge6_Node000001_Node000007"><a xlink:title=" ">
<path fill="none" stroke="#63b8ff" d="M871.11,-118.28C781.37,-108.62 632.61,-92.41 494.8,-76.35"/>
<polygon fill="#63b8ff" stroke="#63b8ff" points="495.47,-72.9 485.13,-75.22 494.65,-79.85 495.47,-72.9"/>
</a>
</g>
</g>
<!-- Node8 -->
<g id="Node000008" class="node">
<title>Node8</title>
<g id="a_Node000008"><a xlink:title=" ">
<polygon fill="#e0e0e0" stroke="#999999" points="604.25,-76 501.25,-76 501.25,-56 604.25,-56 604.25,-76"/>
<text xml:space="preserve" text-anchor="middle" x="552.75" y="-62.5" font-family="Helvetica,sans-Serif" font-size="10.00">RHICommandList.h</text>
</a>
</g>
</g>
<!-- Node1&#45;&gt;Node8 -->
<g id="edge7_Node000001_Node000008" class="edge">
<title>Node1&#45;&gt;Node8</title>
<g id="a_edge7_Node000001_Node000008"><a xlink:title=" ">
<path fill="none" stroke="#63b8ff" d="M870.84,-114.71C795.28,-103.38 684.68,-86.79 615.79,-76.46"/>
<polygon fill="#63b8ff" stroke="#63b8ff" points="616.59,-73.04 606.18,-75.01 615.55,-79.96 616.59,-73.04"/>
</a>
</g>
</g>
<!-- Node9 -->
<g id="Node000009" class="node">
<title>Node9</title>
<g id="a_Node000009"><a xlink:title=" ">
<polygon fill="#e0e0e0" stroke="#999999" points="724.88,-76 622.62,-76 622.62,-56 724.88,-56 724.88,-76"/>
<text xml:space="preserve" text-anchor="middle" x="673.75" y="-62.5" font-family="Helvetica,sans-Serif" font-size="10.00">RenderTargetPool.h</text>
</a>
</g>
</g>
<!-- Node1&#45;&gt;Node9 -->
<g id="edge8_Node000001_Node000009" class="edge">
<title>Node1&#45;&gt;Node9</title>
<g id="a_edge8_Node000001_Node000009"><a xlink:title=" ">
<path fill="none" stroke="#63b8ff" d="M880.9,-111.55C833.62,-101.38 772.66,-88.27 729.14,-78.91"/>
<polygon fill="#63b8ff" stroke="#63b8ff" points="729.9,-75.5 719.39,-76.81 728.43,-82.34 729.9,-75.5"/>
</a>
</g>
</g>
<!-- Node10 -->
<g id="Node000010" class="node">
<title>Node10</title>
<g id="a_Node000010"><a xlink:href="_irradiance_log_8h.html" target="_top" xlink:title=" ">
<polygon fill="white" stroke="#666666" points="862.5,-76 743,-76 743,-56 862.5,-56 862.5,-76"/>
<text xml:space="preserve" text-anchor="middle" x="802.75" y="-62.5" font-family="Helvetica,sans-Serif" font-size="10.00">Logging/IrradianceLog.h</text>
</a>
</g>
</g>
<!-- Node1&#45;&gt;Node10 -->
<g id="edge9_Node000001_Node000010" class="edge">
<title>Node1&#45;&gt;Node10</title>
<g id="a_edge9_Node000001_Node000010"><a xlink:title=" ">
<path fill="none" stroke="#63b8ff" d="M914.12,-111.55C890.25,-102 859.89,-89.86 836.9,-80.66"/>
<polygon fill="#63b8ff" stroke="#63b8ff" points="838.26,-77.43 827.68,-76.97 835.66,-83.93 838.26,-77.43"/>
</a>
</g>
</g>
<!-- Node11 -->
<g id="Node000011" class="node">
<title>Node11</title>
<g id="a_Node000011"><a xlink:href="_capture_request_8h.html" target="_top" xlink:title=" ">
<polygon fill="white" stroke="#666666" points="1024.88,-76 880.62,-76 880.62,-56 1024.88,-56 1024.88,-76"/>
<text xml:space="preserve" text-anchor="middle" x="952.75" y="-62.5" font-family="Helvetica,sans-Serif" font-size="10.00">Simulation/CaptureRequest.h</text>
</a>
</g>
</g>
<!-- Node1&#45;&gt;Node11 -->
<g id="edge11_Node000001_Node000011" class="edge">
<title>Node1&#45;&gt;Node11</title>
<g id="a_edge11_Node000001_Node000011"><a xlink:title=" ">
<path fill="none" stroke="#63b8ff" d="M952.75,-111.55C952.75,-104.34 952.75,-95.66 952.75,-87.88"/>
<polygon fill="#63b8ff" stroke="#63b8ff" points="956.25,-87.92 952.75,-77.92 949.25,-87.92 956.25,-87.92"/>
</a>
</g>
</g>
<!-- Node13 -->
<g id="Node000013" class="node">
<title>Node13</title>
<g id="a_Node000013"><a xlink:title=" ">
<polygon fill="#e0e0e0" stroke="#999999" points="1144.88,-76 1042.62,-76 1042.62,-56 1144.88,-56 1144.88,-76"/>
<text xml:space="preserve" text-anchor="middle" x="1093.75" y="-62.5" font-family="Helvetica,sans-Serif" font-size="10.00">ImageWriteQueue.h</text>
</a>
</g>
</g>
<!-- Node1&#45;&gt;Node13 -->
<g id="edge14_Node000001_Node000013" class="edge">
<title>Node1&#45;&gt;Node13</title>
<g id="a_edge14_Node000001_Node000013"><a xlink:title=" ">
<path fill="none" stroke="#63b8ff" d="M989.06,-111.55C1011.3,-102.09 1039.52,-90.08 1061.05,-80.91"/>
<polygon fill="#63b8ff" stroke="#63b8ff" points="1062.42,-84.14 1070.25,-77 1059.68,-77.7 1062.42,-84.14"/>
</a>
</g>
</g>
<!-- Node14 -->
<g id="Node000014" class="node">
<title>Node14</title>
<g id="a_Node000014"><a xlink:title=" ">
<polygon fill="#e0e0e0" stroke="#999999" points="1258.12,-76 1163.38,-76 1163.38,-56 1258.12,-56 1258.12,-76"/>
<text xml:space="preserve" text-anchor="middle" x="1210.75" y="-62.5" font-family="Helvetica,sans-Serif" font-size="10.00">ImageWriteTask.h</text>
</a>
</g>
</g>
<!-- Node1&#45;&gt;Node14 -->
<g id="edge15_Node000001_Node000014" class="edge">
<title>Node1&#45;&gt;Node14</title>
<g id="a_edge15_Node000001_Node000014"><a xlink:title=" ">
<path fill="none" stroke="#63b8ff" d="M1019.19,-111.55C1062.63,-101.45 1118.56,-88.44 1158.76,-79.09"/>
<polygon fill="#63b8ff" stroke="#63b8ff" points="1159.49,-82.51 1168.44,-76.84 1157.91,-75.7 1159.49,-82.51"/>
</a>
</g>
</g>
<!-- Node15 -->
<g id="Node000015" class="node">
<title>Node15</title>
<g id="a_Node000015"><a xlink:title=" ">
<polygon fill="#e0e0e0" stroke="#999999" points="1369.75,-76 1275.75,-76 1275.75,-56 1369.75,-56 1369.75,-76"/>
<text xml:space="preserve" text-anchor="middle" x="1322.75" y="-62.5" font-family="Helvetica,sans-Serif" font-size="10.00">ImagePixelData.h</text>
</a>
</g>
</g>
<!-- Node1&#45;&gt;Node15 -->
<g id="edge16_Node000001_Node000015" class="edge">
<title>Node1&#45;&gt;Node15</title>
<g id="a_edge16_Node000001_Node000015"><a xlink:title=" ">
<path fill="none" stroke="#63b8ff" d="M1034.41,-113.76C1104.03,-102.47 1202.4,-86.52 1264.35,-76.47"/>
<polygon fill="#63b8ff" stroke="#63b8ff" points="1264.68,-79.96 1273.99,-74.91 1263.56,-73.05 1264.68,-79.96"/>
</a>
</g>
</g>
<!-- Node16 -->
<g id="Node000016" class="node">
<title>Node16</title>
<g id="a_Node000016"><a xlink:title=" ">
<polygon fill="#e0e0e0" stroke="#999999" points="1521.25,-76 1388.25,-76 1388.25,-56 1521.25,-56 1521.25,-76"/>
<text xml:space="preserve" text-anchor="middle" x="1454.75" y="-62.5" font-family="Helvetica,sans-Serif" font-size="10.00">Modules/ModuleManager.h</text>
</a>
</g>
</g>
<!-- Node1&#45;&gt;Node16 -->
<g id="edge17_Node000001_Node000016" class="edge">
<title>Node1&#45;&gt;Node16</title>
<g id="a_edge17_Node000001_Node000016"><a xlink:title=" ">
<path fill="none" stroke="#63b8ff" d="M1034.52,-117.23C1129.07,-105.93 1283.58,-87.46 1376.57,-76.34"/>
<polygon fill="#63b8ff" stroke="#63b8ff" points="1376.86,-79.83 1386.38,-75.17 1376.03,-72.88 1376.86,-79.83"/>
</a>
</g>
</g>
<!-- Node17 -->
<g id="Node000017" class="node">
<title>Node17</title>
<g id="a_Node000017"><a xlink:title=" ">
<polygon fill="#e0e0e0" stroke="#999999" points="1639.75,-76 1539.75,-76 1539.75,-56 1639.75,-56 1639.75,-76"/>
<text xml:space="preserve" text-anchor="middle" x="1589.75" y="-62.5" font-family="Helvetica,sans-Serif" font-size="10.00">HAL/FileManager.h</text>
</a>
</g>
</g>
<!-- Node1&#45;&gt;Node17 -->
<g id="edge18_Node000001_Node000017" class="edge">
<title>Node1&#45;&gt;Node17</title>
<g id="a_edge18_Node000001_Node000017"><a xlink:title=" ">
<path fill="none" stroke="#63b8ff" d="M1034.28,-121.44C1144.06,-113.59 1345.74,-97.89 1528.14,-76.24"/>
<polygon fill="#63b8ff" stroke="#63b8ff" points="1528.55,-79.72 1538.06,-75.06 1527.72,-72.77 1528.55,-79.72"/>
</a>
</g>
</g>
<!-- Node18 -->
<g id="Node000018" class="node">
<title>Node18</title>
<g id="a_Node000018"><a xlink:title=" ">
<polygon fill="#e0e0e0" stroke="#999999" points="1750,-76 1657.5,-76 1657.5,-56 1750,-56 1750,-76"/>
<text xml:space="preserve" text-anchor="middle" x="1703.75" y="-62.5" font-family="Helvetica,sans-Serif" font-size="10.00">Misc/FileHelper.h</text>
</a>
</g>
</g>
<!-- Node1&#45;&gt;Node18 -->
<g id="edge19_Node000001_Node000018" class="edge">
<title>Node1&#45;&gt;Node18</title>
<g id="a_edge19_Node000001_Node000018"><a xlink:title=" ">
<path fill="none" stroke="#63b8ff" d="M1034.68,-123.36C1162.92,-117.15 1419.09,-102.63 1646.15,-76.21"/>
<polygon fill="#63b8ff" stroke="#63b8ff" points="1646.25,-79.72 1655.78,-75.08 1645.44,-72.77 1646.25,-79.72"/>
</a>
</g>
</g>
<!-- Node19 -->
<g id="Node000019" class="node">
<title>Node19</title>
<g id="a_Node000019"><a xlink:title=" ">
<polygon fill="#e0e0e0" stroke="#999999" points="1841.62,-76 1767.88,-76 1767.88,-56 1841.62,-56 1841.62,-76"/>
<text xml:space="preserve" text-anchor="middle" x="1804.75" y="-62.5" font-family="Helvetica,sans-Serif" font-size="10.00">Misc/Paths.h</text>
</a>
</g>
</g>
<!-- Node1&#45;&gt;Node19 -->
<g id="edge20_Node000001_Node000019" class="edge">
<title>Node1&#45;&gt;Node19</title>
<g id="a_edge20_Node000001_Node000019"><a xlink:title=" ">
<path fill="none" stroke="#63b8ff" d="M1034.6,-125.33C1178.62,-121.63 1486.83,-110.26 1756.23,-76.16"/>
<polygon fill="#63b8ff" stroke="#63b8ff" points="1756.43,-79.66 1765.91,-74.92 1755.55,-72.72 1756.43,-79.66"/>
</a>
</g>
</g>
<!-- Node3 -->
<g id="Node000003" class="node">
<title>Node3</title>
<g id="a_Node000003"><a xlink:title=" ">
<polygon fill="#e0e0e0" stroke="#999999" points="842.25,-20 763.25,-20 763.25,0 842.25,0 842.25,-20"/>
<text xml:space="preserve" text-anchor="middle" x="802.75" y="-6.5" font-family="Helvetica,sans-Serif" font-size="10.00">CoreMinimal.h</text>
</a>
</g>
</g>
<!-- Node2&#45;&gt;Node3 -->
<g id="edge2_Node000002_Node000003" class="edge">
<title>Node2&#45;&gt;Node3</title>
<g id="a_edge2_Node000002_Node000003"><a xlink:title=" ">
<path fill="none" stroke="#63b8ff" d="M149.84,-56.82C152.85,-56.53 155.83,-56.26 158.75,-56 379.03,-36.51 642.32,-20.33 751.46,-13.94"/>
<polygon fill="#63b8ff" stroke="#63b8ff" points="751.48,-17.44 761.26,-13.37 751.07,-10.45 751.48,-17.44"/>
</a>
</g>
</g>
<!-- Node4 -->
<g id="Node000004" class="node">
<title>Node4</title>
<g id="a_Node000004"><a xlink:title=" ">
<polygon fill="#e0e0e0" stroke="#999999" points="149.5,-20 0,-20 0,0 149.5,0 149.5,-20"/>
<text xml:space="preserve" text-anchor="middle" x="74.75" y="-6.5" font-family="Helvetica,sans-Serif" font-size="10.00">IrradianceExporter.generated.h</text>
</a>
</g>
</g>
<!-- Node2&#45;&gt;Node4 -->
<g id="edge3_Node000002_Node000004" class="edge">
<title>Node2&#45;&gt;Node4</title>
<g id="a_edge3_Node000002_Node000004"><a xlink:title=" ">
<path fill="none" stroke="#63b8ff" d="M74.75,-55.59C74.75,-49.01 74.75,-39.96 74.75,-31.73"/>
<polygon fill="#63b8ff" stroke="#63b8ff" points="78.25,-31.81 74.75,-21.81 71.25,-31.81 78.25,-31.81"/>
</a>
</g>
</g>
<!-- Node10&#45;&gt;Node3 -->
<g id="edge10_Node000010_Node000003" class="edge">
<title>Node10&#45;&gt;Node3</title>
<g id="a_edge10_Node000010_Node000003"><a xlink:title=" ">
<path fill="none" stroke="#63b8ff" d="M802.75,-55.59C802.75,-49.01 802.75,-39.96 802.75,-31.73"/>
<polygon fill="#63b8ff" stroke="#63b8ff" points="806.25,-31.81 802.75,-21.81 799.25,-31.81 806.25,-31.81"/>
</a>
</g>
</g>
<!-- Node11&#45;&gt;Node3 -->
<g id="edge12_Node000011_Node000003" class="edge">
<title>Node11&#45;&gt;Node3</title>
<g id="a_edge12_Node000011_Node000003"><a xlink:title=" ">
<path fill="none" stroke="#63b8ff" d="M926.62,-55.59C902.57,-46.94 866.65,-34 839.67,-24.29"/>
<polygon fill="#63b8ff" stroke="#63b8ff" points="841.1,-21.09 830.51,-20.99 838.73,-27.67 841.1,-21.09"/>
</a>
</g>
</g>
<!-- Node12 -->
<g id="Node000012" class="node">
<title>Node12</title>
<g id="a_Node000012"><a xlink:title=" ">
<polygon fill="#e0e0e0" stroke="#999999" points="1023.38,-20 882.12,-20 882.12,0 1023.38,0 1023.38,-20"/>
<text xml:space="preserve" text-anchor="middle" x="952.75" y="-6.5" font-family="Helvetica,sans-Serif" font-size="10.00">CaptureRequest.generated.h</text>
</a>
</g>
</g>
<!-- Node11&#45;&gt;Node12 -->
<g id="edge13_Node000011_Node000012" class="edge">
<title>Node11&#45;&gt;Node12</title>
<g id="a_edge13_Node000011_Node000012"><a xlink:title=" ">
<path fill="none" stroke="#63b8ff" d="M952.75,-55.59C952.75,-49.01 952.75,-39.96 952.75,-31.73"/>
<polygon fill="#63b8ff" stroke="#63b8ff" points="956.25,-31.81 952.75,-21.81 949.25,-31.81 956.25,-31.81"/>
</a>
</g>
</g>
</g>
</svg>
