<?xml version="1.0" encoding="UTF-8" standalone="no"?>
<!DOCTYPE svg PUBLIC "-//W3C//DTD SVG 1.1//EN"
 "http://www.w3.org/Graphics/SVG/1.1/DTD/svg11.dtd">
<!-- Generated by graphviz version 14.1.0 (20251206.1807)
 -->
<!-- Title: Source/Pyrano/Private/Irradiance/IrradianceViewExtension.h Pages: 1 -->
<svg width="499pt" height="176pt"
 viewBox="0.00 0.00 499.00 176.00" xmlns="http://www.w3.org/2000/svg" xmlns:xlink="http://www.w3.org/1999/xlink">
<g id="graph0" class="graph" transform="scale(1 1) rotate(0) translate(4 172)">
<title>Source/Pyrano/Private/Irradiance/IrradianceViewExtension.h</title>
<!-- Node1 -->
<g id="Node000001" class="node">
<title>Node1</title>
<g id="a_Node000001"><a xlink:title=" ">
<polygon fill="#999999" stroke="#666666" points="287.25,-168 106.25,-168 106.25,-136 287.25,-136 287.25,-168"/>
<text xml:space="preserve" text-anchor="start" x="114.25" y="-154.5" font-family="Helvetica,sans-Serif" font-size="10.00">Source/Pyrano/Private</text>
<text xml:space="preserve" text-anchor="middle" x="196.75" y="-142.5" font-family="Helvetica,sans-Serif" font-size="10.00">/Irradiance/IrradianceViewExtension.h</text>
</a>
</g>
</g>
<!-- Node2 -->
<g id="Node000002" class="node">
<title>Node2</title>
<g id="a_Node000002"><a xlink:href="_irradiance_view_extension_8cpp.html" target="_top" xlink:title=" ">
<polygon fill="white" stroke="#666666" points="191.5,-100 0,-100 0,-68 191.5,-68 191.5,-100"/>
<text xml:space="preserve" text-anchor="start" x="8" y="-86.5" font-family="Helvetica,sans-Serif" font-size="10.00">Source/Pyrano/Private</text>
<text xml:space="preserve" text-anchor="middle" x="95.75" y="-74.5" font-family="Helvetica,sans-Serif" font-size="10.00">/Irradiance/IrradianceViewExtension.cpp</text>
</a>
</g>
</g>
<!-- Node1&#45;&gt;Node2 -->
<g id="edge1_Node000001_Node000002" class="edge">
<title>Node1&#45;&gt;Node2</title>
<g id="a_edge1_Node000001_Node000002"><a xlink:title=" ">
<path fill="none" stroke="#63b8ff" d="M163.47,-129.25C149.02,-119.81 132.43,-108.97 119.28,-100.38"/>
<polygon fill="#63b8ff" stroke="#63b8ff" points="161.52,-132.16 171.8,-134.7 165.35,-126.3 161.52,-132.16"/>
</a>
</g>
</g>
<!-- Node3 -->
<g id="Node000003" class="node">
<title>Node3</title>
<g id="a_Node000003"><a xlink:href="_irradiance_subsystem_8h.html" target="_top" xlink:title=" ">
<polygon fill="white" stroke="#666666" points="386.38,-100 209.12,-100 209.12,-68 386.38,-68 386.38,-100"/>
<text xml:space="preserve" text-anchor="start" x="217.12" y="-86.5" font-family="Helvetica,sans-Serif" font-size="10.00">Source/Pyrano/Public</text>
<text xml:space="preserve" text-anchor="middle" x="297.75" y="-74.5" font-family="Helvetica,sans-Serif" font-size="10.00">/Subsystems/IrradianceSubsystem.h</text>
</a>
</g>
</g>
<!-- Node1&#45;&gt;Node3 -->
<g id="edge2_Node000001_Node000003" class="edge">
<title>Node1&#45;&gt;Node3</title>
<g id="a_edge2_Node000001_Node000003"><a xlink:title=" ">
<path fill="none" stroke="#63b8ff" d="M230.03,-129.25C244.48,-119.81 261.07,-108.97 274.22,-100.38"/>
<polygon fill="#63b8ff" stroke="#63b8ff" points="228.15,-126.3 221.7,-134.7 231.98,-132.16 228.15,-126.3"/>
</a>
</g>
</g>
<!-- Node4 -->
<g id="Node000004" class="node">
<title>Node4</title>
<g id="a_Node000004"><a xlink:href="_irradiance_scheduler_8cpp.html" target="_top" xlink:title=" ">
<polygon fill="white" stroke="#666666" points="285.12,-32 112.38,-32 112.38,0 285.12,0 285.12,-32"/>
<text xml:space="preserve" text-anchor="start" x="120.38" y="-18.5" font-family="Helvetica,sans-Serif" font-size="10.00">Source/Pyrano/Private</text>
<text xml:space="preserve" text-anchor="middle" x="198.75" y="-6.5" font-family="Helvetica,sans-Serif" font-size="10.00">/Simulation/IrradianceScheduler.cpp</text>
</a>
</g>
</g>
<!-- Node3&#45;&gt;Node4 -->
<g id="edge3_Node000003_Node000004" class="edge">
<title>Node3&#45;&gt;Node4</title>
<g id="a_edge3_Node000003_Node000004"><a xlink:title=" ">
<path fill="none" stroke="#63b8ff" d="M265.13,-61.25C250.96,-51.81 234.7,-40.97 221.82,-32.38"/>
<polygon fill="#63b8ff" stroke="#63b8ff" points="263.02,-64.05 273.28,-66.69 266.9,-58.23 263.02,-64.05"/>
</a>
</g>
</g>
<!-- Node5 -->
<g id="Node000005" class="node">
<title>Node5</title>
<g id="a_Node000005"><a xlink:href="_irradiance_subsystem_8cpp.html" target="_top" xlink:title=" ">
<polygon fill="white" stroke="#666666" points="490.62,-32 302.88,-32 302.88,0 490.62,0 490.62,-32"/>
<text xml:space="preserve" text-anchor="start" x="310.88" y="-18.5" font-family="Helvetica,sans-Serif" font-size="10.00">Source/Pyrano/Private</text>
<text xml:space="preserve" text-anchor="middle" x="396.75" y="-6.5" font-family="Helvetica,sans-Serif" font-size="10.00">/Subsystems/IrradianceSubsystem.cpp</text>
</a>
</g>
</g>
<!-- Node3&#45;&gt;Node5 -->
<g id="edge4_Node000003_Node000005" class="edge">
<title>Node3&#45;&gt;Node5</title>
<g id="a_edge4_Node000003_Node000005"><a xlink:title=" ">
<path fill="none" stroke="#63b8ff" d="M330.37,-61.25C344.54,-51.81 360.8,-40.97 373.68,-32.38"/>
<polygon fill="#63b8ff" stroke="#63b8ff" points="328.6,-58.23 322.22,-66.69 332.48,-64.05 328.6,-58.23"/>
</a>
</g>
</g>
</g>
</svg>
