<?xml version="1.0" encoding="UTF-8" standalone="no"?>
<!DOCTYPE svg PUBLIC "-//W3C//DTD SVG 1.1//EN"
 "http://www.w3.org/Graphics/SVG/1.1/DTD/svg11.dtd">
<!-- Generated by graphviz version 14.1.0 (20251206.1807)
 -->
<!-- Title: Source/PyranoEditor/Private/Data/IrradianceConfiguration.cpp Pages: 1 -->
<svg width="615pt" height="208pt"
 viewBox="0.00 0.00 615.00 208.00" xmlns="http://www.w3.org/2000/svg" xmlns:xlink="http://www.w3.org/1999/xlink">
<g id="graph0" class="graph" transform="scale(1 1) rotate(0) translate(4 204)">
<title>Source/PyranoEditor/Private/Data/IrradianceConfiguration.cpp</title>
<!-- Node1 -->
<g id="Node000001" class="node">
<title>Node1</title>
<g id="a_Node000001"><a xlink:title=" ">
<polygon fill="#999999" stroke="#666666" points="487.62,-200 291.62,-200 291.62,-168 487.62,-168 487.62,-200"/>
<text xml:space="preserve" text-anchor="start" x="299.62" y="-186.5" font-family="Helvetica,sans-Serif" font-size="10.00">Source/PyranoEditor</text>
<text xml:space="preserve" text-anchor="middle" x="389.62" y="-174.5" font-family="Helvetica,sans-Serif" font-size="10.00">/Private/Data/IrradianceConfiguration.cpp</text>
</a>
</g>
</g>
<!-- Node2 -->
<g id="Node000002" class="node">
<title>Node2</title>
<g id="a_Node000002"><a xlink:href="_irradiance_configuration_8h.html" target="_top" xlink:title=" ">
<polygon fill="white" stroke="#666666" points="293,-132 144.25,-132 144.25,-112 293,-112 293,-132"/>
<text xml:space="preserve" text-anchor="middle" x="218.62" y="-118.5" font-family="Helvetica,sans-Serif" font-size="10.00">Data/IrradianceConfiguration.h</text>
</a>
</g>
</g>
<!-- Node1&#45;&gt;Node2 -->
<g id="edge1_Node000001_Node000002" class="edge">
<title>Node1&#45;&gt;Node2</title>
<g id="a_edge1_Node000001_Node000002"><a xlink:title=" ">
<path fill="none" stroke="#63b8ff" d="M345.59,-167.55C317.97,-157.86 282.73,-145.49 256.39,-136.25"/>
<polygon fill="#63b8ff" stroke="#63b8ff" points="257.71,-133.01 247.12,-133 255.39,-139.61 257.71,-133.01"/>
</a>
</g>
</g>
<!-- Node8 -->
<g id="Node000008" class="node">
<title>Node8</title>
<g id="a_Node000008"><a xlink:href="_irradiance_common_8h.html" target="_top" xlink:title=" ">
<polygon fill="white" stroke="#666666" points="465.88,-132 313.38,-132 313.38,-112 465.88,-112 465.88,-132"/>
<text xml:space="preserve" text-anchor="middle" x="389.62" y="-118.5" font-family="Helvetica,sans-Serif" font-size="10.00">Irradiance/IrradianceCommon.h</text>
</a>
</g>
</g>
<!-- Node1&#45;&gt;Node8 -->
<g id="edge7_Node000001_Node000008" class="edge">
<title>Node1&#45;&gt;Node8</title>
<g id="a_edge7_Node000001_Node000008"><a xlink:title=" ">
<path fill="none" stroke="#63b8ff" d="M389.62,-167.55C389.62,-160.34 389.62,-151.66 389.62,-143.88"/>
<polygon fill="#63b8ff" stroke="#63b8ff" points="393.13,-143.92 389.63,-133.92 386.13,-143.92 393.13,-143.92"/>
</a>
</g>
</g>
<!-- Node9 -->
<g id="Node000009" class="node">
<title>Node9</title>
<g id="a_Node000009"><a xlink:title=" ">
<polygon fill="#e0e0e0" stroke="#999999" points="607.25,-132 484,-132 484,-112 607.25,-112 607.25,-132"/>
<text xml:space="preserve" text-anchor="middle" x="545.62" y="-118.5" font-family="Helvetica,sans-Serif" font-size="10.00">HAL/IConsoleManager.h</text>
</a>
</g>
</g>
<!-- Node1&#45;&gt;Node9 -->
<g id="edge9_Node000001_Node000009" class="edge">
<title>Node1&#45;&gt;Node9</title>
<g id="a_edge9_Node000001_Node000009"><a xlink:title=" ">
<path fill="none" stroke="#63b8ff" d="M429.8,-167.55C454.74,-157.96 486.48,-145.75 510.43,-136.54"/>
<polygon fill="#63b8ff" stroke="#63b8ff" points="511.67,-139.81 519.75,-132.95 509.16,-133.27 511.67,-139.81"/>
</a>
</g>
</g>
<!-- Node3 -->
<g id="Node000003" class="node">
<title>Node3</title>
<g id="a_Node000003"><a xlink:href="_simulation_config_8h.html" target="_top" xlink:title=" ">
<polygon fill="white" stroke="#666666" points="147.25,-76 0,-76 0,-56 147.25,-56 147.25,-76"/>
<text xml:space="preserve" text-anchor="middle" x="73.62" y="-62.5" font-family="Helvetica,sans-Serif" font-size="10.00">Simulation/SimulationConfig.h</text>
</a>
</g>
</g>
<!-- Node2&#45;&gt;Node3 -->
<g id="edge2_Node000002_Node000003" class="edge">
<title>Node2&#45;&gt;Node3</title>
<g id="a_edge2_Node000002_Node000003"><a xlink:title=" ">
<path fill="none" stroke="#63b8ff" d="M193.37,-111.59C170.22,-102.97 135.7,-90.12 109.66,-80.42"/>
<polygon fill="#63b8ff" stroke="#63b8ff" points="111.09,-77.22 100.5,-77.01 108.65,-83.78 111.09,-77.22"/>
</a>
</g>
</g>
<!-- Node6 -->
<g id="Node000006" class="node">
<title>Node6</title>
<g id="a_Node000006"><a xlink:title=" ">
<polygon fill="#e0e0e0" stroke="#999999" points="262.12,-76 165.12,-76 165.12,-56 262.12,-56 262.12,-76"/>
<text xml:space="preserve" text-anchor="middle" x="213.62" y="-62.5" font-family="Helvetica,sans-Serif" font-size="10.00">Containers/Array.h</text>
</a>
</g>
</g>
<!-- Node2&#45;&gt;Node6 -->
<g id="edge5_Node000002_Node000006" class="edge">
<title>Node2&#45;&gt;Node6</title>
<g id="a_edge5_Node000002_Node000006"><a xlink:title=" ">
<path fill="none" stroke="#63b8ff" d="M217.75,-111.59C217.14,-105.01 216.31,-95.96 215.54,-87.73"/>
<polygon fill="#63b8ff" stroke="#63b8ff" points="219.03,-87.44 214.63,-77.81 212.06,-88.09 219.03,-87.44"/>
</a>
</g>
</g>
<!-- Node7 -->
<g id="Node000007" class="node">
<title>Node7</title>
<g id="a_Node000007"><a xlink:title=" ">
<polygon fill="#e0e0e0" stroke="#999999" points="364.75,-76 280.5,-76 280.5,-56 364.75,-56 364.75,-76"/>
<text xml:space="preserve" text-anchor="middle" x="322.62" y="-62.5" font-family="Helvetica,sans-Serif" font-size="10.00">Misc/Optional.h</text>
</a>
</g>
</g>
<!-- Node2&#45;&gt;Node7 -->
<g id="edge6_Node000002_Node000007" class="edge">
<title>Node2&#45;&gt;Node7</title>
<g id="a_edge6_Node000002_Node000007"><a xlink:title=" ">
<path fill="none" stroke="#63b8ff" d="M236.74,-111.59C252.6,-103.36 275.91,-91.26 294.24,-81.74"/>
<polygon fill="#63b8ff" stroke="#63b8ff" points="295.76,-84.89 303.02,-77.18 292.54,-78.68 295.76,-84.89"/>
</a>
</g>
</g>
<!-- Node4 -->
<g id="Node000004" class="node">
<title>Node4</title>
<g id="a_Node000004"><a xlink:title=" ">
<polygon fill="#e0e0e0" stroke="#999999" points="337.12,-20 258.12,-20 258.12,0 337.12,0 337.12,-20"/>
<text xml:space="preserve" text-anchor="middle" x="297.62" y="-6.5" font-family="Helvetica,sans-Serif" font-size="10.00">CoreMinimal.h</text>
</a>
</g>
</g>
<!-- Node3&#45;&gt;Node4 -->
<g id="edge3_Node000003_Node000004" class="edge">
<title>Node3&#45;&gt;Node4</title>
<g id="a_edge3_Node000003_Node000004"><a xlink:title=" ">
<path fill="none" stroke="#63b8ff" d="M112.9,-55.53C150.29,-46.52 206.73,-32.91 247.38,-23.11"/>
<polygon fill="#63b8ff" stroke="#63b8ff" points="248.02,-26.56 256.92,-20.81 246.38,-19.75 248.02,-26.56"/>
</a>
</g>
</g>
<!-- Node5 -->
<g id="Node000005" class="node">
<title>Node5</title>
<g id="a_Node000005"><a xlink:title=" ">
<polygon fill="#e0e0e0" stroke="#999999" points="145.75,-20 1.5,-20 1.5,0 145.75,0 145.75,-20"/>
<text xml:space="preserve" text-anchor="middle" x="73.62" y="-6.5" font-family="Helvetica,sans-Serif" font-size="10.00">SimulationConfig.generated.h</text>
</a>
</g>
</g>
<!-- Node3&#45;&gt;Node5 -->
<g id="edge4_Node000003_Node000005" class="edge">
<title>Node3&#45;&gt;Node5</title>
<g id="a_edge4_Node000003_Node000005"><a xlink:title=" ">
<path fill="none" stroke="#63b8ff" d="M73.62,-55.59C73.62,-49.01 73.62,-39.96 73.62,-31.73"/>
<polygon fill="#63b8ff" stroke="#63b8ff" points="77.13,-31.81 73.63,-21.81 70.13,-31.81 77.13,-31.81"/>
</a>
</g>
</g>
<!-- Node8&#45;&gt;Node4 -->
<g id="edge8_Node000008_Node000004" class="edge">
<title>Node8&#45;&gt;Node4</title>
<g id="a_edge8_Node000008_Node000004"><a xlink:title=" ">
<path fill="none" stroke="#63b8ff" d="M389.53,-111.66C388.94,-98.11 386.1,-72.79 373.62,-56 363.62,-42.53 348.28,-32.35 334,-25.11"/>
<polygon fill="#63b8ff" stroke="#63b8ff" points="335.78,-22.08 325.24,-21 332.8,-28.42 335.78,-22.08"/>
</a>
</g>
</g>
</g>
</svg>
