<?xml version="1.0" encoding="UTF-8" standalone="no"?>
<!DOCTYPE svg PUBLIC "-//W3C//DTD SVG 1.1//EN"
 "http://www.w3.org/Graphics/SVG/1.1/DTD/svg11.dtd">
<!-- Generated by graphviz version 14.1.0 (20251206.1807)
 -->
<!-- Title: Source/Pyrano/Public/Subsystems/IrradianceSubsystem.h Pages: 1 -->
<svg width="1380pt" height="164pt"
 viewBox="0.00 0.00 1380.00 164.00" xmlns="http://www.w3.org/2000/svg" xmlns:xlink="http://www.w3.org/1999/xlink">
<g id="graph0" class="graph" transform="scale(1 1) rotate(0) translate(4 160)">
<title>Source/Pyrano/Public/Subsystems/IrradianceSubsystem.h</title>
<!-- Node1 -->
<g id="Node000001" class="node">
<title>Node1</title>
<g id="a_Node000001"><a xlink:title=" ">
<polygon fill="#999999" stroke="#666666" points="764.25,-156 587,-156 587,-124 764.25,-124 764.25,-156"/>
<text xml:space="preserve" text-anchor="start" x="595" y="-142.5" font-family="Helvetica,sans-Serif" font-size="10.00">Source/Pyrano/Public</text>
<text xml:space="preserve" text-anchor="middle" x="675.62" y="-130.5" font-family="Helvetica,sans-Serif" font-size="10.00">/Subsystems/IrradianceSubsystem.h</text>
</a>
</g>
</g>
<!-- Node2 -->
<g id="Node000002" class="node">
<title>Node2</title>
<g id="a_Node000002"><a xlink:title=" ">
<polygon fill="#e0e0e0" stroke="#999999" points="381.12,-20 302.12,-20 302.12,0 381.12,0 381.12,-20"/>
<text xml:space="preserve" text-anchor="middle" x="341.62" y="-6.5" font-family="Helvetica,sans-Serif" font-size="10.00">CoreMinimal.h</text>
</a>
</g>
</g>
<!-- Node1&#45;&gt;Node2 -->
<g id="edge1_Node000001_Node000002" class="edge">
<title>Node1&#45;&gt;Node2</title>
<g id="a_edge1_Node000001_Node000002"><a xlink:title=" ">
<path fill="none" stroke="#63b8ff" d="M586.87,-134.48C507.53,-128.66 398.94,-115.78 366.62,-88 350.33,-73.99 344.58,-49.25 342.6,-31.59"/>
<polygon fill="#63b8ff" stroke="#63b8ff" points="346.1,-31.45 341.83,-21.75 339.12,-31.99 346.1,-31.45"/>
</a>
</g>
</g>
<!-- Node3 -->
<g id="Node000003" class="node">
<title>Node3</title>
<g id="a_Node000003"><a xlink:title=" ">
<polygon fill="#e0e0e0" stroke="#999999" points="837.75,-82 681.5,-82 681.5,-62 837.75,-62 837.75,-82"/>
<text xml:space="preserve" text-anchor="middle" x="759.62" y="-68.5" font-family="Helvetica,sans-Serif" font-size="10.00">Subsystems/WorldSubsystem.h</text>
</a>
</g>
</g>
<!-- Node1&#45;&gt;Node3 -->
<g id="edge2_Node000001_Node000003" class="edge">
<title>Node1&#45;&gt;Node3</title>
<g id="a_edge2_Node000001_Node000003"><a xlink:title=" ">
<path fill="none" stroke="#63b8ff" d="M695.11,-123.69C708.21,-113.4 725.47,-99.84 738.84,-89.33"/>
<polygon fill="#63b8ff" stroke="#63b8ff" points="740.88,-92.18 746.58,-83.25 736.55,-86.68 740.88,-92.18"/>
</a>
</g>
</g>
<!-- Node4 -->
<g id="Node000004" class="node">
<title>Node4</title>
<g id="a_Node000004"><a xlink:title=" ">
<polygon fill="#e0e0e0" stroke="#999999" points="917.12,-82 856.12,-82 856.12,-62 917.12,-62 917.12,-82"/>
<text xml:space="preserve" text-anchor="middle" x="886.62" y="-68.5" font-family="Helvetica,sans-Serif" font-size="10.00">Tickable.h</text>
</a>
</g>
</g>
<!-- Node1&#45;&gt;Node4 -->
<g id="edge3_Node000001_Node000004" class="edge">
<title>Node1&#45;&gt;Node4</title>
<g id="a_edge3_Node000001_Node000004"><a xlink:title=" ">
<path fill="none" stroke="#63b8ff" d="M730.99,-123.54C764.62,-113.88 808.3,-100.88 846.62,-88 848.21,-87.47 849.82,-86.91 851.45,-86.35"/>
<polygon fill="#63b8ff" stroke="#63b8ff" points="852.54,-89.67 860.76,-82.98 850.16,-83.09 852.54,-89.67"/>
</a>
</g>
</g>
<!-- Node5 -->
<g id="Node000005" class="node">
<title>Node5</title>
<g id="a_Node000005"><a xlink:title=" ">
<polygon fill="#e0e0e0" stroke="#999999" points="1043.75,-82 935.5,-82 935.5,-62 1043.75,-62 1043.75,-82"/>
<text xml:space="preserve" text-anchor="middle" x="989.62" y="-68.5" font-family="Helvetica,sans-Serif" font-size="10.00">RHIGPUReadback.h</text>
</a>
</g>
</g>
<!-- Node1&#45;&gt;Node5 -->
<g id="edge4_Node000001_Node000005" class="edge">
<title>Node1&#45;&gt;Node5</title>
<g id="a_edge4_Node000001_Node000005"><a xlink:title=" ">
<path fill="none" stroke="#63b8ff" d="M755.18,-123.54C804.61,-113.76 869.42,-100.62 926.62,-88 930.89,-87.06 935.31,-86.06 939.74,-85.04"/>
<polygon fill="#63b8ff" stroke="#63b8ff" points="940.27,-88.51 949.21,-82.83 938.68,-81.69 940.27,-88.51"/>
</a>
</g>
</g>
<!-- Node6 -->
<g id="Node000006" class="node">
<title>Node6</title>
<g id="a_Node000006"><a xlink:title=" ">
<polygon fill="#e0e0e0" stroke="#999999" points="1191.25,-82 1062,-82 1062,-62 1191.25,-62 1191.25,-82"/>
<text xml:space="preserve" text-anchor="middle" x="1126.62" y="-68.5" font-family="Helvetica,sans-Serif" font-size="10.00">RenderGraphResources.h</text>
</a>
</g>
</g>
<!-- Node1&#45;&gt;Node6 -->
<g id="edge5_Node000001_Node000006" class="edge">
<title>Node1&#45;&gt;Node6</title>
<g id="a_edge5_Node000001_Node000006"><a xlink:title=" ">
<path fill="none" stroke="#63b8ff" d="M764.61,-128.63C841.17,-119.31 954.45,-104.57 1052.62,-88 1058.68,-86.98 1065,-85.83 1071.29,-84.63"/>
<polygon fill="#63b8ff" stroke="#63b8ff" points="1071.87,-88.08 1081.01,-82.73 1070.52,-81.21 1071.87,-88.08"/>
</a>
</g>
</g>
<!-- Node7 -->
<g id="Node000007" class="node">
<title>Node7</title>
<g id="a_Node000007"><a xlink:href="_irradiance_view_extension_8h.html" target="_top" xlink:title=" ">
<polygon fill="white" stroke="#666666" points="151.75,-88 25.5,-88 25.5,-56 151.75,-56 151.75,-88"/>
<text xml:space="preserve" text-anchor="start" x="33.5" y="-74.5" font-family="Helvetica,sans-Serif" font-size="10.00">Irradiance/IrradianceView</text>
<text xml:space="preserve" text-anchor="middle" x="88.62" y="-62.5" font-family="Helvetica,sans-Serif" font-size="10.00">Extension.h</text>
</a>
</g>
</g>
<!-- Node1&#45;&gt;Node7 -->
<g id="edge6_Node000001_Node000007" class="edge">
<title>Node1&#45;&gt;Node7</title>
<g id="a_edge6_Node000001_Node000007"><a xlink:title=" ">
<path fill="none" stroke="#63b8ff" d="M586.87,-133.1C486.36,-125.77 317.53,-111.48 163.24,-88.3"/>
<polygon fill="#63b8ff" stroke="#63b8ff" points="164.07,-84.89 153.66,-86.85 163.02,-91.81 164.07,-84.89"/>
</a>
</g>
</g>
<!-- Node9 -->
<g id="Node000009" class="node">
<title>Node9</title>
<g id="a_Node000009"><a xlink:href="_irradiance_exporter_8h.html" target="_top" xlink:title=" ">
<polygon fill="white" stroke="#666666" points="319.38,-82 169.88,-82 169.88,-62 319.38,-62 319.38,-82"/>
<text xml:space="preserve" text-anchor="middle" x="244.62" y="-68.5" font-family="Helvetica,sans-Serif" font-size="10.00">Irradiance/IrradianceExporter.h</text>
</a>
</g>
</g>
<!-- Node1&#45;&gt;Node9 -->
<g id="edge9_Node000001_Node000009" class="edge">
<title>Node1&#45;&gt;Node9</title>
<g id="a_edge9_Node000001_Node000009"><a xlink:title=" ">
<path fill="none" stroke="#63b8ff" d="M586.62,-126.2C517.56,-116.15 419.45,-101.63 333.62,-88 326.24,-86.83 318.52,-85.57 310.84,-84.3"/>
<polygon fill="#63b8ff" stroke="#63b8ff" points="311.6,-80.88 301.16,-82.69 310.45,-87.79 311.6,-80.88"/>
</a>
</g>
</g>
<!-- Node11 -->
<g id="Node000011" class="node">
<title>Node11</title>
<g id="a_Node000011"><a xlink:href="_ineichen_perez_clear_sky_8h.html" target="_top" xlink:title=" ">
<polygon fill="white" stroke="#666666" points="501.75,-82 375.5,-82 375.5,-62 501.75,-62 501.75,-82"/>
<text xml:space="preserve" text-anchor="middle" x="438.62" y="-68.5" font-family="Helvetica,sans-Serif" font-size="10.00">IneichenPerezClearSky.h</text>
</a>
</g>
</g>
<!-- Node1&#45;&gt;Node11 -->
<g id="edge12_Node000001_Node000011" class="edge">
<title>Node1&#45;&gt;Node11</title>
<g id="a_edge12_Node000001_Node000011"><a xlink:title=" ">
<path fill="none" stroke="#63b8ff" d="M620.06,-123.53C578.47,-111.94 522.31,-96.3 483.54,-85.51"/>
<polygon fill="#63b8ff" stroke="#63b8ff" points="484.63,-82.18 474.05,-82.87 482.75,-88.92 484.63,-82.18"/>
</a>
</g>
</g>
<!-- Node14 -->
<g id="Node000014" class="node">
<title>Node14</title>
<g id="a_Node000014"><a xlink:href="_capture_request_8h.html" target="_top" xlink:title=" ">
<polygon fill="white" stroke="#666666" points="663.75,-82 519.5,-82 519.5,-62 663.75,-62 663.75,-82"/>
<text xml:space="preserve" text-anchor="middle" x="591.62" y="-68.5" font-family="Helvetica,sans-Serif" font-size="10.00">Simulation/CaptureRequest.h</text>
</a>
</g>
</g>
<!-- Node1&#45;&gt;Node14 -->
<g id="edge16_Node000001_Node000014" class="edge">
<title>Node1&#45;&gt;Node14</title>
<g id="a_edge16_Node000001_Node000014"><a xlink:title=" ">
<path fill="none" stroke="#63b8ff" d="M656.14,-123.69C643.04,-113.4 625.78,-99.84 612.41,-89.33"/>
<polygon fill="#63b8ff" stroke="#63b8ff" points="614.7,-86.68 604.67,-83.25 610.37,-92.18 614.7,-86.68"/>
</a>
</g>
</g>
<!-- Node16 -->
<g id="Node000016" class="node">
<title>Node16</title>
<g id="a_Node000016"><a xlink:title=" ">
<polygon fill="#e0e0e0" stroke="#999999" points="1371.75,-82 1209.5,-82 1209.5,-62 1371.75,-62 1371.75,-82"/>
<text xml:space="preserve" text-anchor="middle" x="1290.62" y="-68.5" font-family="Helvetica,sans-Serif" font-size="10.00">IrradianceSubsystem.generated.h</text>
</a>
</g>
</g>
<!-- Node1&#45;&gt;Node16 -->
<g id="edge19_Node000001_Node000016" class="edge">
<title>Node1&#45;&gt;Node16</title>
<g id="a_edge19_Node000001_Node000016"><a xlink:title=" ">
<path fill="none" stroke="#63b8ff" d="M764.55,-132.23C869.13,-123.83 1047.87,-108.13 1200.62,-88 1208.92,-86.91 1217.63,-85.63 1226.23,-84.28"/>
<polygon fill="#63b8ff" stroke="#63b8ff" points="1226.6,-87.77 1235.92,-82.73 1225.49,-80.85 1226.6,-87.77"/>
</a>
</g>
</g>
<!-- Node7&#45;&gt;Node2 -->
<g id="edge7_Node000007_Node000002" class="edge">
<title>Node7&#45;&gt;Node2</title>
<g id="a_edge7_Node000007_Node000002"><a xlink:title=" ">
<path fill="none" stroke="#63b8ff" d="M152.14,-55.94C195,-45.77 250.8,-32.54 290.73,-23.07"/>
<polygon fill="#63b8ff" stroke="#63b8ff" points="291.41,-26.51 300.33,-20.79 289.8,-19.69 291.41,-26.51"/>
</a>
</g>
</g>
<!-- Node8 -->
<g id="Node000008" class="node">
<title>Node8</title>
<g id="a_Node000008"><a xlink:title=" ">
<polygon fill="#e0e0e0" stroke="#999999" points="117.25,-20 0,-20 0,0 117.25,0 117.25,-20"/>
<text xml:space="preserve" text-anchor="middle" x="58.62" y="-6.5" font-family="Helvetica,sans-Serif" font-size="10.00">SceneViewExtension.h</text>
</a>
</g>
</g>
<!-- Node7&#45;&gt;Node8 -->
<g id="edge8_Node000007_Node000008" class="edge">
<title>Node7&#45;&gt;Node8</title>
<g id="a_edge8_Node000007_Node000008"><a xlink:title=" ">
<path fill="none" stroke="#63b8ff" d="M80.9,-55.55C77.08,-47.91 72.43,-38.61 68.37,-30.49"/>
<polygon fill="#63b8ff" stroke="#63b8ff" points="71.61,-29.14 64.01,-21.76 65.35,-32.27 71.61,-29.14"/>
</a>
</g>
</g>
<!-- Node9&#45;&gt;Node2 -->
<g id="edge10_Node000009_Node000002" class="edge">
<title>Node9&#45;&gt;Node2</title>
<g id="a_edge10_Node000009_Node000002"><a xlink:title=" ">
<path fill="none" stroke="#63b8ff" d="M259.78,-61.62C275.09,-52.16 298.98,-37.38 317,-26.23"/>
<polygon fill="#63b8ff" stroke="#63b8ff" points="318.62,-29.34 325.29,-21.11 314.94,-23.39 318.62,-29.34"/>
</a>
</g>
</g>
<!-- Node10 -->
<g id="Node000010" class="node">
<title>Node10</title>
<g id="a_Node000010"><a xlink:title=" ">
<polygon fill="#e0e0e0" stroke="#999999" points="284.38,-20 134.88,-20 134.88,0 284.38,0 284.38,-20"/>
<text xml:space="preserve" text-anchor="middle" x="209.62" y="-6.5" font-family="Helvetica,sans-Serif" font-size="10.00">IrradianceExporter.generated.h</text>
</a>
</g>
</g>
<!-- Node9&#45;&gt;Node10 -->
<g id="edge11_Node000009_Node000010" class="edge">
<title>Node9&#45;&gt;Node10</title>
<g id="a_edge11_Node000009_Node000010"><a xlink:title=" ">
<path fill="none" stroke="#63b8ff" d="M239.16,-61.62C234.2,-53.12 226.74,-40.33 220.56,-29.74"/>
<polygon fill="#63b8ff" stroke="#63b8ff" points="223.77,-28.29 215.7,-21.42 217.72,-31.82 223.77,-28.29"/>
</a>
</g>
</g>
<!-- Node11&#45;&gt;Node2 -->
<g id="edge13_Node000011_Node000002" class="edge">
<title>Node11&#45;&gt;Node2</title>
<g id="a_edge13_Node000011_Node000002"><a xlink:title=" ">
<path fill="none" stroke="#63b8ff" d="M423.47,-61.62C408.16,-52.16 384.27,-37.38 366.25,-26.23"/>
<polygon fill="#63b8ff" stroke="#63b8ff" points="368.31,-23.39 357.96,-21.11 364.63,-29.34 368.31,-23.39"/>
</a>
</g>
</g>
<!-- Node12 -->
<g id="Node000012" class="node">
<title>Node12</title>
<g id="a_Node000012"><a xlink:title=" ">
<polygon fill="#e0e0e0" stroke="#999999" points="490.5,-20 398.75,-20 398.75,0 490.5,0 490.5,-20"/>
<text xml:space="preserve" text-anchor="middle" x="444.62" y="-6.5" font-family="Helvetica,sans-Serif" font-size="10.00">UObject/Object.h</text>
</a>
</g>
</g>
<!-- Node11&#45;&gt;Node12 -->
<g id="edge14_Node000011_Node000012" class="edge">
<title>Node11&#45;&gt;Node12</title>
<g id="a_edge14_Node000011_Node000012"><a xlink:title=" ">
<path fill="none" stroke="#63b8ff" d="M439.56,-61.62C440.37,-53.56 441.56,-41.65 442.58,-31.41"/>
<polygon fill="#63b8ff" stroke="#63b8ff" points="446.05,-31.92 443.56,-21.62 439.09,-31.22 446.05,-31.92"/>
</a>
</g>
</g>
<!-- Node13 -->
<g id="Node000013" class="node">
<title>Node13</title>
<g id="a_Node000013"><a xlink:title=" ">
<polygon fill="#e0e0e0" stroke="#999999" points="680.62,-20 508.62,-20 508.62,0 680.62,0 680.62,-20"/>
<text xml:space="preserve" text-anchor="middle" x="594.62" y="-6.5" font-family="Helvetica,sans-Serif" font-size="10.00">IneichenPerezClearSky.generated.h</text>
</a>
</g>
</g>
<!-- Node11&#45;&gt;Node13 -->
<g id="edge15_Node000011_Node000013" class="edge">
<title>Node11&#45;&gt;Node13</title>
<g id="a_edge15_Node000011_Node000013"><a xlink:title=" ">
<path fill="none" stroke="#63b8ff" d="M463,-61.62C488.91,-51.66 530.12,-35.81 559.53,-24.5"/>
<polygon fill="#63b8ff" stroke="#63b8ff" points="560.67,-27.81 568.75,-20.95 558.16,-21.27 560.67,-27.81"/>
</a>
</g>
</g>
<!-- Node14&#45;&gt;Node2 -->
<g id="edge17_Node000014_Node000002" class="edge">
<title>Node14&#45;&gt;Node2</title>
<g id="a_edge17_Node000014_Node000002"><a xlink:title=" ">
<path fill="none" stroke="#63b8ff" d="M552.29,-61.56C509.01,-51.17 439.32,-34.45 392.06,-23.1"/>
<polygon fill="#63b8ff" stroke="#63b8ff" points="393.16,-19.77 382.62,-20.84 391.52,-26.58 393.16,-19.77"/>
</a>
</g>
</g>
<!-- Node15 -->
<g id="Node000015" class="node">
<title>Node15</title>
<g id="a_Node000015"><a xlink:title=" ">
<polygon fill="#e0e0e0" stroke="#999999" points="840.25,-20 699,-20 699,0 840.25,0 840.25,-20"/>
<text xml:space="preserve" text-anchor="middle" x="769.62" y="-6.5" font-family="Helvetica,sans-Serif" font-size="10.00">CaptureRequest.generated.h</text>
</a>
</g>
</g>
<!-- Node14&#45;&gt;Node15 -->
<g id="edge18_Node000014_Node000015" class="edge">
<title>Node14&#45;&gt;Node15</title>
<g id="a_edge18_Node000014_Node000015"><a xlink:title=" ">
<path fill="none" stroke="#63b8ff" d="M619.44,-61.62C649.39,-51.53 697.27,-35.39 730.9,-24.05"/>
<polygon fill="#63b8ff" stroke="#63b8ff" points="731.92,-27.4 740.28,-20.89 729.69,-20.77 731.92,-27.4"/>
</a>
</g>
</g>
</g>
</svg>
