<?xml version="1.0" encoding="UTF-8" standalone="no"?>
<!DOCTYPE svg PUBLIC "-//W3C//DTD SVG 1.1//EN"
 "http://www.w3.org/Graphics/SVG/1.1/DTD/svg11.dtd">
<!-- Generated by graphviz version 14.1.0 (20251206.1807)
 -->
<!-- Title: Source/Pyrano/Public/Simulation/IrradianceScheduler.h Pages: 1 -->
<svg width="783pt" height="152pt"
 viewBox="0.00 0.00 783.00 152.00" xmlns="http://www.w3.org/2000/svg" xmlns:xlink="http://www.w3.org/1999/xlink">
<g id="graph0" class="graph" transform="scale(1 1) rotate(0) translate(4 148)">
<title>Source/Pyrano/Public/Simulation/IrradianceScheduler.h</title>
<!-- Node1 -->
<g id="Node000001" class="node">
<title>Node1</title>
<g id="a_Node000001"><a xlink:title=" ">
<polygon fill="#999999" stroke="#666666" points="456.75,-144 294.5,-144 294.5,-112 456.75,-112 456.75,-144"/>
<text xml:space="preserve" text-anchor="start" x="302.5" y="-130.5" font-family="Helvetica,sans-Serif" font-size="10.00">Source/Pyrano/Public</text>
<text xml:space="preserve" text-anchor="middle" x="375.62" y="-118.5" font-family="Helvetica,sans-Serif" font-size="10.00">/Simulation/IrradianceScheduler.h</text>
</a>
</g>
</g>
<!-- Node2 -->
<g id="Node000002" class="node">
<title>Node2</title>
<g id="a_Node000002"><a xlink:title=" ">
<polygon fill="#e0e0e0" stroke="#999999" points="454.12,-20 375.12,-20 375.12,0 454.12,0 454.12,-20"/>
<text xml:space="preserve" text-anchor="middle" x="414.62" y="-6.5" font-family="Helvetica,sans-Serif" font-size="10.00">CoreMinimal.h</text>
</a>
</g>
</g>
<!-- Node1&#45;&gt;Node2 -->
<g id="edge1_Node000001_Node000002" class="edge">
<title>Node1&#45;&gt;Node2</title>
<g id="a_edge1_Node000001_Node000002"><a xlink:title=" ">
<path fill="none" stroke="#63b8ff" d="M388.95,-111.6C396.41,-102.02 405.11,-89.08 409.62,-76 414.56,-61.72 415.7,-44.65 415.67,-31.6"/>
<polygon fill="#63b8ff" stroke="#63b8ff" points="419.17,-31.53 415.39,-21.63 412.18,-31.73 419.17,-31.53"/>
</a>
</g>
</g>
<!-- Node3 -->
<g id="Node000003" class="node">
<title>Node3</title>
<g id="a_Node000003"><a xlink:title=" ">
<polygon fill="#e0e0e0" stroke="#999999" points="226.12,-76 165.12,-76 165.12,-56 226.12,-56 226.12,-76"/>
<text xml:space="preserve" text-anchor="middle" x="195.62" y="-62.5" font-family="Helvetica,sans-Serif" font-size="10.00">Tickable.h</text>
</a>
</g>
</g>
<!-- Node1&#45;&gt;Node3 -->
<g id="edge2_Node000001_Node000003" class="edge">
<title>Node1&#45;&gt;Node3</title>
<g id="a_edge2_Node000001_Node000003"><a xlink:title=" ">
<path fill="none" stroke="#63b8ff" d="M329.27,-111.55C300.07,-101.81 262.77,-89.38 235,-80.13"/>
<polygon fill="#63b8ff" stroke="#63b8ff" points="236.14,-76.82 225.55,-76.97 233.93,-83.46 236.14,-76.82"/>
</a>
</g>
</g>
<!-- Node4 -->
<g id="Node000004" class="node">
<title>Node4</title>
<g id="a_Node000004"><a xlink:title=" ">
<polygon fill="#e0e0e0" stroke="#999999" points="400.75,-76 244.5,-76 244.5,-56 400.75,-56 400.75,-76"/>
<text xml:space="preserve" text-anchor="middle" x="322.62" y="-62.5" font-family="Helvetica,sans-Serif" font-size="10.00">Subsystems/WorldSubsystem.h</text>
</a>
</g>
</g>
<!-- Node1&#45;&gt;Node4 -->
<g id="edge3_Node000001_Node000004" class="edge">
<title>Node1&#45;&gt;Node4</title>
<g id="a_edge3_Node000001_Node000004"><a xlink:title=" ">
<path fill="none" stroke="#63b8ff" d="M361.98,-111.55C354.77,-103.39 345.89,-93.33 338.39,-84.84"/>
<polygon fill="#63b8ff" stroke="#63b8ff" points="341.18,-82.72 331.94,-77.54 335.93,-87.35 341.18,-82.72"/>
</a>
</g>
</g>
<!-- Node5 -->
<g id="Node000005" class="node">
<title>Node5</title>
<g id="a_Node000005"><a xlink:href="_simulation_config_8h.html" target="_top" xlink:title=" ">
<polygon fill="white" stroke="#666666" points="147.25,-76 0,-76 0,-56 147.25,-56 147.25,-76"/>
<text xml:space="preserve" text-anchor="middle" x="73.62" y="-62.5" font-family="Helvetica,sans-Serif" font-size="10.00">Simulation/SimulationConfig.h</text>
</a>
</g>
</g>
<!-- Node1&#45;&gt;Node5 -->
<g id="edge4_Node000001_Node000005" class="edge">
<title>Node1&#45;&gt;Node5</title>
<g id="a_edge4_Node000001_Node000005"><a xlink:title=" ">
<path fill="none" stroke="#63b8ff" d="M297.85,-111.55C246.35,-101.32 179.85,-88.1 132.68,-78.73"/>
<polygon fill="#63b8ff" stroke="#63b8ff" points="133.4,-75.31 122.91,-76.79 132.03,-82.17 133.4,-75.31"/>
</a>
</g>
</g>
<!-- Node7 -->
<g id="Node000007" class="node">
<title>Node7</title>
<g id="a_Node000007"><a xlink:href="_capture_request_8h.html" target="_top" xlink:title=" ">
<polygon fill="white" stroke="#666666" points="600.75,-76 456.5,-76 456.5,-56 600.75,-56 600.75,-76"/>
<text xml:space="preserve" text-anchor="middle" x="528.62" y="-62.5" font-family="Helvetica,sans-Serif" font-size="10.00">Simulation/CaptureRequest.h</text>
</a>
</g>
</g>
<!-- Node1&#45;&gt;Node7 -->
<g id="edge7_Node000001_Node000007" class="edge">
<title>Node1&#45;&gt;Node7</title>
<g id="a_edge7_Node000001_Node000007"><a xlink:title=" ">
<path fill="none" stroke="#63b8ff" d="M415.03,-111.55C439.49,-101.96 470.62,-89.75 494.11,-80.54"/>
<polygon fill="#63b8ff" stroke="#63b8ff" points="495.19,-83.87 503.23,-76.96 492.64,-77.35 495.19,-83.87"/>
</a>
</g>
</g>
<!-- Node9 -->
<g id="Node000009" class="node">
<title>Node9</title>
<g id="a_Node000009"><a xlink:title=" ">
<polygon fill="#e0e0e0" stroke="#999999" points="774.75,-76 618.5,-76 618.5,-56 774.75,-56 774.75,-76"/>
<text xml:space="preserve" text-anchor="middle" x="696.62" y="-62.5" font-family="Helvetica,sans-Serif" font-size="10.00">IrradianceScheduler.generated.h</text>
</a>
</g>
</g>
<!-- Node1&#45;&gt;Node9 -->
<g id="edge10_Node000001_Node000009" class="edge">
<title>Node1&#45;&gt;Node9</title>
<g id="a_edge10_Node000001_Node000009"><a xlink:title=" ">
<path fill="none" stroke="#63b8ff" d="M457.04,-111.78C512.3,-101.45 584.23,-88.01 634.8,-78.56"/>
<polygon fill="#63b8ff" stroke="#63b8ff" points="635.22,-82.04 644.41,-76.76 633.93,-75.16 635.22,-82.04"/>
</a>
</g>
</g>
<!-- Node5&#45;&gt;Node2 -->
<g id="edge5_Node000005_Node000002" class="edge">
<title>Node5&#45;&gt;Node2</title>
<g id="a_edge5_Node000005_Node000002"><a xlink:title=" ">
<path fill="none" stroke="#63b8ff" d="M133.41,-55.53C198.69,-45.2 302.1,-28.82 363.67,-19.07"/>
<polygon fill="#63b8ff" stroke="#63b8ff" points="363.83,-22.59 373.16,-17.57 362.74,-15.67 363.83,-22.59"/>
</a>
</g>
</g>
<!-- Node6 -->
<g id="Node000006" class="node">
<title>Node6</title>
<g id="a_Node000006"><a xlink:title=" ">
<polygon fill="#e0e0e0" stroke="#999999" points="145.75,-20 1.5,-20 1.5,0 145.75,0 145.75,-20"/>
<text xml:space="preserve" text-anchor="middle" x="73.62" y="-6.5" font-family="Helvetica,sans-Serif" font-size="10.00">SimulationConfig.generated.h</text>
</a>
</g>
</g>
<!-- Node5&#45;&gt;Node6 -->
<g id="edge6_Node000005_Node000006" class="edge">
<title>Node5&#45;&gt;Node6</title>
<g id="a_edge6_Node000005_Node000006"><a xlink:title=" ">
<path fill="none" stroke="#63b8ff" d="M73.62,-55.59C73.62,-49.01 73.62,-39.96 73.62,-31.73"/>
<polygon fill="#63b8ff" stroke="#63b8ff" points="77.13,-31.81 73.63,-21.81 70.13,-31.81 77.13,-31.81"/>
</a>
</g>
</g>
<!-- Node7&#45;&gt;Node2 -->
<g id="edge8_Node000007_Node000002" class="edge">
<title>Node7&#45;&gt;Node2</title>
<g id="a_edge8_Node000007_Node000002"><a xlink:title=" ">
<path fill="none" stroke="#63b8ff" d="M508.77,-55.59C491.14,-47.24 465.12,-34.92 444.9,-25.34"/>
<polygon fill="#63b8ff" stroke="#63b8ff" points="446.54,-22.25 436.01,-21.13 443.54,-28.57 446.54,-22.25"/>
</a>
</g>
</g>
<!-- Node8 -->
<g id="Node000008" class="node">
<title>Node8</title>
<g id="a_Node000008"><a xlink:title=" ">
<polygon fill="#e0e0e0" stroke="#999999" points="613.25,-20 472,-20 472,0 613.25,0 613.25,-20"/>
<text xml:space="preserve" text-anchor="middle" x="542.62" y="-6.5" font-family="Helvetica,sans-Serif" font-size="10.00">CaptureRequest.generated.h</text>
</a>
</g>
</g>
<!-- Node7&#45;&gt;Node8 -->
<g id="edge9_Node000007_Node000008" class="edge">
<title>Node7&#45;&gt;Node8</title>
<g id="a_edge9_Node000007_Node000008"><a xlink:title=" ">
<path fill="none" stroke="#63b8ff" d="M531.06,-55.59C532.79,-48.93 535.17,-39.75 537.33,-31.44"/>
<polygon fill="#63b8ff" stroke="#63b8ff" points="540.71,-32.32 539.83,-21.76 533.94,-30.56 540.71,-32.32"/>
</a>
</g>
</g>
</g>
</svg>
