<?xml version="1.0" encoding="UTF-8" standalone="no"?>
<!DOCTYPE svg PUBLIC "-//W3C//DTD SVG 1.1//EN"
 "http://www.w3.org/Graphics/SVG/1.1/DTD/svg11.dtd">
<!-- Generated by graphviz version 14.1.0 (20251206.1807)
 -->
<!-- Title: Source/Pyrano/Private/Irradiance/IrradianceExporter.h Pages: 1 -->
<svg width="470pt" height="176pt"
 viewBox="0.00 0.00 470.00 176.00" xmlns="http://www.w3.org/2000/svg" xmlns:xlink="http://www.w3.org/1999/xlink">
<g id="graph0" class="graph" transform="scale(1 1) rotate(0) translate(4 172)">
<title>Source/Pyrano/Private/Irradiance/IrradianceExporter.h</title>
<!-- Node1 -->
<g id="Node000001" class="node">
<title>Node1</title>
<g id="a_Node000001"><a xlink:title=" ">
<polygon fill="#999999" stroke="#666666" points="251.75,-168 99.25,-168 99.25,-136 251.75,-136 251.75,-168"/>
<text xml:space="preserve" text-anchor="start" x="107.25" y="-154.5" font-family="Helvetica,sans-Serif" font-size="10.00">Source/Pyrano/Private</text>
<text xml:space="preserve" text-anchor="middle" x="175.5" y="-142.5" font-family="Helvetica,sans-Serif" font-size="10.00">/Irradiance/IrradianceExporter.h</text>
</a>
</g>
</g>
<!-- Node2 -->
<g id="Node000002" class="node">
<title>Node2</title>
<g id="a_Node000002"><a xlink:href="_irradiance_exporter_8cpp.html" target="_top" xlink:title=" ">
<polygon fill="white" stroke="#666666" points="163,-100 0,-100 0,-68 163,-68 163,-100"/>
<text xml:space="preserve" text-anchor="start" x="8" y="-86.5" font-family="Helvetica,sans-Serif" font-size="10.00">Source/Pyrano/Private</text>
<text xml:space="preserve" text-anchor="middle" x="81.5" y="-74.5" font-family="Helvetica,sans-Serif" font-size="10.00">/Irradiance/IrradianceExporter.cpp</text>
</a>
</g>
</g>
<!-- Node1&#45;&gt;Node2 -->
<g id="edge1_Node000001_Node000002" class="edge">
<title>Node1&#45;&gt;Node2</title>
<g id="a_edge1_Node000001_Node000002"><a xlink:title=" ">
<path fill="none" stroke="#63b8ff" d="M144.37,-129.15C131,-119.75 115.68,-109 103.51,-100.45"/>
<polygon fill="#63b8ff" stroke="#63b8ff" points="142.26,-131.94 152.46,-134.82 146.29,-126.21 142.26,-131.94"/>
</a>
</g>
</g>
<!-- Node3 -->
<g id="Node000003" class="node">
<title>Node3</title>
<g id="a_Node000003"><a xlink:href="_irradiance_subsystem_8h.html" target="_top" xlink:title=" ">
<polygon fill="white" stroke="#666666" points="358.12,-100 180.88,-100 180.88,-68 358.12,-68 358.12,-100"/>
<text xml:space="preserve" text-anchor="start" x="188.88" y="-86.5" font-family="Helvetica,sans-Serif" font-size="10.00">Source/Pyrano/Public</text>
<text xml:space="preserve" text-anchor="middle" x="269.5" y="-74.5" font-family="Helvetica,sans-Serif" font-size="10.00">/Subsystems/IrradianceSubsystem.h</text>
</a>
</g>
</g>
<!-- Node1&#45;&gt;Node3 -->
<g id="edge2_Node000001_Node000003" class="edge">
<title>Node1&#45;&gt;Node3</title>
<g id="a_edge2_Node000001_Node000003"><a xlink:title=" ">
<path fill="none" stroke="#63b8ff" d="M206.63,-129.15C220,-119.75 235.32,-109 247.49,-100.45"/>
<polygon fill="#63b8ff" stroke="#63b8ff" points="204.71,-126.21 198.54,-134.82 208.74,-131.94 204.71,-126.21"/>
</a>
</g>
</g>
<!-- Node4 -->
<g id="Node000004" class="node">
<title>Node4</title>
<g id="a_Node000004"><a xlink:href="_irradiance_scheduler_8cpp.html" target="_top" xlink:title=" ">
<polygon fill="white" stroke="#666666" points="256.88,-32 84.12,-32 84.12,0 256.88,0 256.88,-32"/>
<text xml:space="preserve" text-anchor="start" x="92.12" y="-18.5" font-family="Helvetica,sans-Serif" font-size="10.00">Source/Pyrano/Private</text>
<text xml:space="preserve" text-anchor="middle" x="170.5" y="-6.5" font-family="Helvetica,sans-Serif" font-size="10.00">/Simulation/IrradianceScheduler.cpp</text>
</a>
</g>
</g>
<!-- Node3&#45;&gt;Node4 -->
<g id="edge3_Node000003_Node000004" class="edge">
<title>Node3&#45;&gt;Node4</title>
<g id="a_edge3_Node000003_Node000004"><a xlink:title=" ">
<path fill="none" stroke="#63b8ff" d="M236.88,-61.25C222.71,-51.81 206.45,-40.97 193.57,-32.38"/>
<polygon fill="#63b8ff" stroke="#63b8ff" points="234.77,-64.05 245.03,-66.69 238.65,-58.23 234.77,-64.05"/>
</a>
</g>
</g>
<!-- Node5 -->
<g id="Node000005" class="node">
<title>Node5</title>
<g id="a_Node000005"><a xlink:href="_irradiance_subsystem_8cpp.html" target="_top" xlink:title=" ">
<polygon fill="white" stroke="#666666" points="462.38,-32 274.62,-32 274.62,0 462.38,0 462.38,-32"/>
<text xml:space="preserve" text-anchor="start" x="282.62" y="-18.5" font-family="Helvetica,sans-Serif" font-size="10.00">Source/Pyrano/Private</text>
<text xml:space="preserve" text-anchor="middle" x="368.5" y="-6.5" font-family="Helvetica,sans-Serif" font-size="10.00">/Subsystems/IrradianceSubsystem.cpp</text>
</a>
</g>
</g>
<!-- Node3&#45;&gt;Node5 -->
<g id="edge4_Node000003_Node000005" class="edge">
<title>Node3&#45;&gt;Node5</title>
<g id="a_edge4_Node000003_Node000005"><a xlink:title=" ">
<path fill="none" stroke="#63b8ff" d="M302.12,-61.25C316.29,-51.81 332.55,-40.97 345.43,-32.38"/>
<polygon fill="#63b8ff" stroke="#63b8ff" points="300.35,-58.23 293.97,-66.69 304.23,-64.05 300.35,-58.23"/>
</a>
</g>
</g>
</g>
</svg>
