<?xml version="1.0" encoding="UTF-8" standalone="no"?>
<!DOCTYPE svg PUBLIC "-//W3C//DTD SVG 1.1//EN"
 "http://www.w3.org/Graphics/SVG/1.1/DTD/svg11.dtd">
<!-- Generated by graphviz version 14.1.0 (20251206.1807)
 -->
<!-- Title: Source/Pyrano/Private/Subsystems/IrradianceSubsystem.cpp Pages: 1 -->
<svg width="2689pt" height="232pt"
 viewBox="0.00 0.00 2689.00 232.00" xmlns="http://www.w3.org/2000/svg" xmlns:xlink="http://www.w3.org/1999/xlink">
<g id="graph0" class="graph" transform="scale(1 1) rotate(0) translate(4 228)">
<title>Source/Pyrano/Private/Subsystems/IrradianceSubsystem.cpp</title>
<!-- Node1 -->
<g id="Node000001" class="node">
<title>Node1</title>
<g id="a_Node000001"><a xlink:title=" ">
<polygon fill="#999999" stroke="#666666" points="1623,-224 1435.25,-224 1435.25,-192 1623,-192 1623,-224"/>
<text xml:space="preserve" text-anchor="start" x="1443.25" y="-210.5" font-family="Helvetica,sans-Serif" font-size="10.00">Source/Pyrano/Private</text>
<text xml:space="preserve" text-anchor="middle" x="1529.12" y="-198.5" font-family="Helvetica,sans-Serif" font-size="10.00">/Subsystems/IrradianceSubsystem.cpp</text>
</a>
</g>
</g>
<!-- Node2 -->
<g id="Node000002" class="node">
<title>Node2</title>
<g id="a_Node000002"><a xlink:href="_irradiance_subsystem_8h.html" target="_top" xlink:title=" ">
<polygon fill="white" stroke="#666666" points="420.25,-150 246,-150 246,-130 420.25,-130 420.25,-150"/>
<text xml:space="preserve" text-anchor="middle" x="333.12" y="-136.5" font-family="Helvetica,sans-Serif" font-size="10.00">Subsystems/IrradianceSubsystem.h</text>
</a>
</g>
</g>
<!-- Node1&#45;&gt;Node2 -->
<g id="edge1_Node000001_Node000002" class="edge">
<title>Node1&#45;&gt;Node2</title>
<g id="a_edge1_Node000001_Node000002"><a xlink:title=" ">
<path fill="none" stroke="#63b8ff" d="M1435.07,-206.08C1244.69,-203.46 800.27,-193.49 429.12,-156 419.08,-154.99 408.48,-153.63 398.14,-152.14"/>
<polygon fill="#63b8ff" stroke="#63b8ff" points="398.97,-148.72 388.56,-150.7 397.93,-155.64 398.97,-148.72"/>
</a>
</g>
</g>
<!-- Node18 -->
<g id="Node000018" class="node">
<title>Node18</title>
<g id="a_Node000018"><a xlink:title=" ">
<polygon fill="#e0e0e0" stroke="#999999" points="492.25,-150 438,-150 438,-130 492.25,-130 492.25,-150"/>
<text xml:space="preserve" text-anchor="middle" x="465.12" y="-136.5" font-family="Helvetica,sans-Serif" font-size="10.00">Engine.h</text>
</a>
</g>
</g>
<!-- Node1&#45;&gt;Node18 -->
<g id="edge21_Node000001_Node000018" class="edge">
<title>Node1&#45;&gt;Node18</title>
<g id="a_edge21_Node000001_Node000018"><a xlink:title=" ">
<path fill="none" stroke="#63b8ff" d="M1435.11,-206.46C1216.11,-204.54 677.28,-195.79 501.12,-156 499.08,-155.54 497.01,-154.97 494.94,-154.33"/>
<polygon fill="#63b8ff" stroke="#63b8ff" points="496.17,-151.05 485.57,-150.88 493.75,-157.62 496.17,-151.05"/>
</a>
</g>
</g>
<!-- Node19 -->
<g id="Node000019" class="node">
<title>Node19</title>
<g id="a_Node000019"><a xlink:title=" ">
<polygon fill="#e0e0e0" stroke="#999999" points="584.38,-150 509.88,-150 509.88,-130 584.38,-130 584.38,-150"/>
<text xml:space="preserve" text-anchor="middle" x="547.12" y="-136.5" font-family="Helvetica,sans-Serif" font-size="10.00">EngineUtils.h</text>
</a>
</g>
</g>
<!-- Node1&#45;&gt;Node19 -->
<g id="edge22_Node000001_Node000019" class="edge">
<title>Node1&#45;&gt;Node19</title>
<g id="a_edge22_Node000001_Node000019"><a xlink:title=" ">
<path fill="none" stroke="#63b8ff" d="M1434.75,-204.9C1230.56,-199.85 753.32,-185.25 594.12,-156 590.7,-155.37 587.17,-154.56 583.67,-153.65"/>
<polygon fill="#63b8ff" stroke="#63b8ff" points="584.71,-150.31 574.14,-150.88 582.76,-157.03 584.71,-150.31"/>
</a>
</g>
</g>
<!-- Node20 -->
<g id="Node000020" class="node">
<title>Node20</title>
<g id="a_Node000020"><a xlink:title=" ">
<polygon fill="#e0e0e0" stroke="#999999" points="727.5,-150 602.75,-150 602.75,-130 727.5,-130 727.5,-150"/>
<text xml:space="preserve" text-anchor="middle" x="665.12" y="-136.5" font-family="Helvetica,sans-Serif" font-size="10.00">Engine/DirectionalLight.h</text>
</a>
</g>
</g>
<!-- Node1&#45;&gt;Node20 -->
<g id="edge23_Node000001_Node000020" class="edge">
<title>Node1&#45;&gt;Node20</title>
<g id="a_edge23_Node000001_Node000020"><a xlink:title=" ">
<path fill="none" stroke="#63b8ff" d="M1435,-205.32C1286.03,-201.69 987.1,-190.4 736.12,-156 729.57,-155.1 722.71,-153.94 715.96,-152.66"/>
<polygon fill="#63b8ff" stroke="#63b8ff" points="716.73,-149.25 706.24,-150.72 715.36,-156.11 716.73,-149.25"/>
</a>
</g>
</g>
<!-- Node21 -->
<g id="Node000021" class="node">
<title>Node21</title>
<g id="a_Node000021"><a xlink:title=" ">
<polygon fill="#e0e0e0" stroke="#999999" points="887.12,-156 745.12,-156 745.12,-124 887.12,-124 887.12,-156"/>
<text xml:space="preserve" text-anchor="start" x="753.12" y="-142.5" font-family="Helvetica,sans-Serif" font-size="10.00">Components/DirectionalLight</text>
<text xml:space="preserve" text-anchor="middle" x="816.12" y="-130.5" font-family="Helvetica,sans-Serif" font-size="10.00">Component.h</text>
</a>
</g>
</g>
<!-- Node1&#45;&gt;Node21 -->
<g id="edge24_Node000001_Node000021" class="edge">
<title>Node1&#45;&gt;Node21</title>
<g id="a_edge24_Node000001_Node000021"><a xlink:title=" ">
<path fill="none" stroke="#63b8ff" d="M1434.95,-202.51C1313.37,-196.01 1095.06,-182 898.99,-156.3"/>
<polygon fill="#63b8ff" stroke="#63b8ff" points="899.47,-152.83 889.09,-154.98 898.55,-159.77 899.47,-152.83"/>
</a>
</g>
</g>
<!-- Node22 -->
<g id="Node000022" class="node">
<title>Node22</title>
<g id="a_Node000022"><a xlink:title=" ">
<polygon fill="#e0e0e0" stroke="#999999" points="1059.12,-150 905.12,-150 905.12,-130 1059.12,-130 1059.12,-150"/>
<text xml:space="preserve" text-anchor="middle" x="982.12" y="-136.5" font-family="Helvetica,sans-Serif" font-size="10.00">Components/LightComponent.h</text>
</a>
</g>
</g>
<!-- Node1&#45;&gt;Node22 -->
<g id="edge25_Node000001_Node000022" class="edge">
<title>Node1&#45;&gt;Node22</title>
<g id="a_edge25_Node000001_Node000022"><a xlink:title=" ">
<path fill="none" stroke="#63b8ff" d="M1434.88,-198.31C1341.55,-189.3 1194.68,-174.02 1068.12,-156 1060.48,-154.91 1052.46,-153.66 1044.54,-152.36"/>
<polygon fill="#63b8ff" stroke="#63b8ff" points="1045.36,-148.95 1034.92,-150.74 1044.2,-155.85 1045.36,-148.95"/>
</a>
</g>
</g>
<!-- Node23 -->
<g id="Node000023" class="node">
<title>Node23</title>
<g id="a_Node000023"><a xlink:href="_pyranometer_component_8h.html" target="_top" xlink:title=" ">
<polygon fill="white" stroke="#666666" points="1265.38,-150 1076.88,-150 1076.88,-130 1265.38,-130 1265.38,-150"/>
<text xml:space="preserve" text-anchor="middle" x="1171.12" y="-136.5" font-family="Helvetica,sans-Serif" font-size="10.00">Components/PyranometerComponent.h</text>
</a>
</g>
</g>
<!-- Node1&#45;&gt;Node23 -->
<g id="edge26_Node000001_Node000023" class="edge">
<title>Node1&#45;&gt;Node23</title>
<g id="a_edge26_Node000001_Node000023"><a xlink:title=" ">
<path fill="none" stroke="#63b8ff" d="M1445.19,-191.53C1380.48,-179.6 1292.41,-163.36 1233.76,-152.55"/>
<polygon fill="#63b8ff" stroke="#63b8ff" points="1234.4,-149.11 1223.93,-150.73 1233.13,-155.99 1234.4,-149.11"/>
</a>
</g>
</g>
<!-- Node26 -->
<g id="Node000026" class="node">
<title>Node26</title>
<g id="a_Node000026"><a xlink:title=" ">
<polygon fill="#e0e0e0" stroke="#999999" points="1386.62,-150 1283.62,-150 1283.62,-130 1386.62,-130 1386.62,-150"/>
<text xml:space="preserve" text-anchor="middle" x="1335.12" y="-136.5" font-family="Helvetica,sans-Serif" font-size="10.00">RHICommandList.h</text>
</a>
</g>
</g>
<!-- Node1&#45;&gt;Node26 -->
<g id="edge30_Node000001_Node000026" class="edge">
<title>Node1&#45;&gt;Node26</title>
<g id="a_edge30_Node000001_Node000026"><a xlink:title=" ">
<path fill="none" stroke="#63b8ff" d="M1483.64,-191.53C1450.18,-180.14 1405.2,-164.84 1373.54,-154.07"/>
<polygon fill="#63b8ff" stroke="#63b8ff" points="1374.96,-150.85 1364.36,-150.95 1372.7,-157.48 1374.96,-150.85"/>
</a>
</g>
</g>
<!-- Node27 -->
<g id="Node000027" class="node">
<title>Node27</title>
<g id="a_Node000027"><a xlink:title=" ">
<polygon fill="#e0e0e0" stroke="#999999" points="1517.12,-150 1405.12,-150 1405.12,-130 1517.12,-130 1517.12,-150"/>
<text xml:space="preserve" text-anchor="middle" x="1461.12" y="-136.5" font-family="Helvetica,sans-Serif" font-size="10.00">RenderGraphBuilder.h</text>
</a>
</g>
</g>
<!-- Node1&#45;&gt;Node27 -->
<g id="edge31_Node000001_Node000027" class="edge">
<title>Node1&#45;&gt;Node27</title>
<g id="a_edge31_Node000001_Node000027"><a xlink:title=" ">
<path fill="none" stroke="#63b8ff" d="M1513.35,-191.69C1503.05,-181.7 1489.59,-168.63 1478.91,-158.26"/>
<polygon fill="#63b8ff" stroke="#63b8ff" points="1481.42,-155.82 1471.81,-151.37 1476.55,-160.85 1481.42,-155.82"/>
</a>
</g>
</g>
<!-- Node28 -->
<g id="Node000028" class="node">
<title>Node28</title>
<g id="a_Node000028"><a xlink:title=" ">
<polygon fill="#e0e0e0" stroke="#999999" points="1658.75,-150 1535.5,-150 1535.5,-130 1658.75,-130 1658.75,-150"/>
<text xml:space="preserve" text-anchor="middle" x="1597.12" y="-136.5" font-family="Helvetica,sans-Serif" font-size="10.00">HAL/IConsoleManager.h</text>
</a>
</g>
</g>
<!-- Node1&#45;&gt;Node28 -->
<g id="edge32_Node000001_Node000028" class="edge">
<title>Node1&#45;&gt;Node28</title>
<g id="a_edge32_Node000001_Node000028"><a xlink:title=" ">
<path fill="none" stroke="#63b8ff" d="M1544.9,-191.69C1555.2,-181.7 1568.66,-168.63 1579.34,-158.26"/>
<polygon fill="#63b8ff" stroke="#63b8ff" points="1581.7,-160.85 1586.44,-151.37 1576.83,-155.82 1581.7,-160.85"/>
</a>
</g>
</g>
<!-- Node29 -->
<g id="Node000029" class="node">
<title>Node29</title>
<g id="a_Node000029"><a xlink:title=" ">
<polygon fill="#e0e0e0" stroke="#999999" points="1823.75,-150 1676.5,-150 1676.5,-130 1823.75,-130 1823.75,-150"/>
<text xml:space="preserve" text-anchor="middle" x="1750.12" y="-136.5" font-family="Helvetica,sans-Serif" font-size="10.00">Engine/GameViewportClient.h</text>
</a>
</g>
</g>
<!-- Node1&#45;&gt;Node29 -->
<g id="edge33_Node000001_Node000029" class="edge">
<title>Node1&#45;&gt;Node29</title>
<g id="a_edge33_Node000001_Node000029"><a xlink:title=" ">
<path fill="none" stroke="#63b8ff" d="M1580.94,-191.53C1619.56,-179.99 1671.64,-164.44 1707.78,-153.65"/>
<polygon fill="#63b8ff" stroke="#63b8ff" points="1708.42,-157.11 1717,-150.89 1706.41,-150.4 1708.42,-157.11"/>
</a>
</g>
</g>
<!-- Node30 -->
<g id="Node000030" class="node">
<title>Node30</title>
<g id="a_Node000030"><a xlink:title=" ">
<polygon fill="#e0e0e0" stroke="#999999" points="1974.62,-150 1841.62,-150 1841.62,-130 1974.62,-130 1974.62,-150"/>
<text xml:space="preserve" text-anchor="middle" x="1908.12" y="-136.5" font-family="Helvetica,sans-Serif" font-size="10.00">Kismet/GameplayStatics.h</text>
</a>
</g>
</g>
<!-- Node1&#45;&gt;Node30 -->
<g id="edge34_Node000001_Node000030" class="edge">
<title>Node1&#45;&gt;Node30</title>
<g id="a_edge34_Node000001_Node000030"><a xlink:title=" ">
<path fill="none" stroke="#63b8ff" d="M1623.4,-191.96C1683.51,-182.18 1762.99,-168.89 1833.12,-156 1839,-154.92 1845.13,-153.76 1851.24,-152.57"/>
<polygon fill="#63b8ff" stroke="#63b8ff" points="1851.53,-156.08 1860.67,-150.72 1850.19,-149.21 1851.53,-156.08"/>
</a>
</g>
</g>
<!-- Node31 -->
<g id="Node000031" class="node">
<title>Node31</title>
<g id="a_Node000031"><a xlink:href="_irradiance_common_8h.html" target="_top" xlink:title=" ">
<polygon fill="white" stroke="#666666" points="2681.38,-82 2528.88,-82 2528.88,-62 2681.38,-62 2681.38,-82"/>
<text xml:space="preserve" text-anchor="middle" x="2605.12" y="-68.5" font-family="Helvetica,sans-Serif" font-size="10.00">Irradiance/IrradianceCommon.h</text>
</a>
</g>
</g>
<!-- Node1&#45;&gt;Node31 -->
<g id="edge35_Node000001_Node000031" class="edge">
<title>Node1&#45;&gt;Node31</title>
<g id="a_edge35_Node000001_Node000031"><a xlink:title=" ">
<path fill="none" stroke="#63b8ff" d="M1623.44,-204.7C1830.75,-199.18 2313.19,-183.52 2382.12,-156 2402.63,-147.81 2400.59,-134.28 2420.12,-124 2456.06,-105.09 2499.72,-92.62 2535.59,-84.75"/>
<polygon fill="#63b8ff" stroke="#63b8ff" points="2535.92,-88.26 2544.98,-82.77 2534.47,-81.41 2535.92,-88.26"/>
</a>
</g>
</g>
<!-- Node32 -->
<g id="Node000032" class="node">
<title>Node32</title>
<g id="a_Node000032"><a xlink:href="_irradiance_integrate_c_s_8h.html" target="_top" xlink:title=" ">
<polygon fill="white" stroke="#666666" points="2196.75,-150 2031.5,-150 2031.5,-130 2196.75,-130 2196.75,-150"/>
<text xml:space="preserve" text-anchor="middle" x="2114.12" y="-136.5" font-family="Helvetica,sans-Serif" font-size="10.00">Irradiance/IrradianceIntegrateCS.h</text>
</a>
</g>
</g>
<!-- Node1&#45;&gt;Node32 -->
<g id="edge37_Node000001_Node000032" class="edge">
<title>Node1&#45;&gt;Node32</title>
<g id="a_edge37_Node000001_Node000032"><a xlink:title=" ">
<path fill="none" stroke="#63b8ff" d="M1623.29,-198.55C1721.69,-189.39 1880.48,-173.69 2017.12,-156 2026.08,-154.84 2035.47,-153.52 2044.75,-152.15"/>
<polygon fill="#63b8ff" stroke="#63b8ff" points="2045.11,-155.64 2054.48,-150.69 2044.07,-148.72 2045.11,-155.64"/>
</a>
</g>
</g>
<!-- Node35 -->
<g id="Node000035" class="node">
<title>Node35</title>
<g id="a_Node000035"><a xlink:href="_sun_sky_controller_8h.html" target="_top" xlink:title=" ">
<polygon fill="white" stroke="#666666" points="2373.38,-150 2214.88,-150 2214.88,-130 2373.38,-130 2373.38,-150"/>
<text xml:space="preserve" text-anchor="middle" x="2294.12" y="-136.5" font-family="Helvetica,sans-Serif" font-size="10.00">Subsystems/SunSkyController.h</text>
</a>
</g>
</g>
<!-- Node1&#45;&gt;Node35 -->
<g id="edge42_Node000001_Node000035" class="edge">
<title>Node1&#45;&gt;Node35</title>
<g id="a_edge42_Node000001_Node000035"><a xlink:title=" ">
<path fill="none" stroke="#63b8ff" d="M1623.31,-202.7C1754.34,-196.07 1998.9,-181.41 2206.12,-156 2214.57,-154.96 2223.45,-153.68 2232.18,-152.31"/>
<polygon fill="#63b8ff" stroke="#63b8ff" points="2232.72,-155.76 2242.03,-150.7 2231.6,-148.86 2232.72,-155.76"/>
</a>
</g>
</g>
<!-- Node38 -->
<g id="Node000038" class="node">
<title>Node38</title>
<g id="a_Node000038"><a xlink:href="_irradiance_log_8h.html" target="_top" xlink:title=" ">
<polygon fill="white" stroke="#666666" points="1893.88,-82 1774.38,-82 1774.38,-62 1893.88,-62 1893.88,-82"/>
<text xml:space="preserve" text-anchor="middle" x="1834.12" y="-68.5" font-family="Helvetica,sans-Serif" font-size="10.00">Logging/IrradianceLog.h</text>
</a>
</g>
</g>
<!-- Node1&#45;&gt;Node38 -->
<g id="edge47_Node000001_Node000038" class="edge">
<title>Node1&#45;&gt;Node38</title>
<g id="a_edge47_Node000001_Node000038"><a xlink:title=" ">
<path fill="none" stroke="#63b8ff" d="M1623.27,-203.04C1749.49,-196.74 1960.53,-182.39 1984.12,-156 1993.6,-145.4 1992.41,-135.56 1984.12,-124 1972.83,-108.23 1928.43,-94.35 1890.84,-85.07"/>
<polygon fill="#63b8ff" stroke="#63b8ff" points="1891.96,-81.74 1881.42,-82.81 1890.33,-88.55 1891.96,-81.74"/>
</a>
</g>
</g>
<!-- Node39 -->
<g id="Node000039" class="node">
<title>Node39</title>
<g id="a_Node000039"><a xlink:title=" ">
<polygon fill="#e0e0e0" stroke="#999999" points="2545,-150 2429.25,-150 2429.25,-130 2545,-130 2545,-150"/>
<text xml:space="preserve" text-anchor="middle" x="2487.12" y="-136.5" font-family="Helvetica,sans-Serif" font-size="10.00">Slate/SceneViewport.h</text>
</a>
</g>
</g>
<!-- Node1&#45;&gt;Node39 -->
<g id="edge49_Node000001_Node000039" class="edge">
<title>Node1&#45;&gt;Node39</title>
<g id="a_edge49_Node000001_Node000039"><a xlink:title=" ">
<path fill="none" stroke="#63b8ff" d="M1623.32,-206.14C1785.66,-203.65 2128.35,-193.91 2415.12,-156 2421.86,-155.11 2428.9,-153.94 2435.83,-152.65"/>
<polygon fill="#63b8ff" stroke="#63b8ff" points="2436.32,-156.12 2445.45,-150.76 2434.97,-149.25 2436.32,-156.12"/>
</a>
</g>
</g>
<!-- Node40 -->
<g id="Node000040" class="node">
<title>Node40</title>
<g id="a_Node000040"><a xlink:title=" ">
<polygon fill="#e0e0e0" stroke="#999999" points="2667.38,-150 2562.88,-150 2562.88,-130 2667.38,-130 2667.38,-150"/>
<text xml:space="preserve" text-anchor="middle" x="2615.12" y="-136.5" font-family="Helvetica,sans-Serif" font-size="10.00">Widgets/SWindow.h</text>
</a>
</g>
</g>
<!-- Node1&#45;&gt;Node40 -->
<g id="edge50_Node000001_Node000040" class="edge">
<title>Node1&#45;&gt;Node40</title>
<g id="a_edge50_Node000001_Node000040"><a xlink:title=" ">
<path fill="none" stroke="#63b8ff" d="M1623.34,-204.62C1841.49,-198.73 2376.18,-182.06 2554.12,-156 2559.44,-155.22 2564.97,-154.19 2570.44,-153.02"/>
<polygon fill="#63b8ff" stroke="#63b8ff" points="2571.03,-156.48 2580,-150.83 2569.47,-149.65 2571.03,-156.48"/>
</a>
</g>
</g>
<!-- Node3 -->
<g id="Node000003" class="node">
<title>Node3</title>
<g id="a_Node000003"><a xlink:title=" ">
<polygon fill="#e0e0e0" stroke="#999999" points="1431.62,-20 1352.62,-20 1352.62,0 1431.62,0 1431.62,-20"/>
<text xml:space="preserve" text-anchor="middle" x="1392.12" y="-6.5" font-family="Helvetica,sans-Serif" font-size="10.00">CoreMinimal.h</text>
</a>
</g>
</g>
<!-- Node2&#45;&gt;Node3 -->
<g id="edge2_Node000002_Node000003" class="edge">
<title>Node2&#45;&gt;Node3</title>
<g id="a_edge2_Node000002_Node000003"><a xlink:title=" ">
<path fill="none" stroke="#63b8ff" d="M388.09,-129.53C401.48,-127.46 415.79,-125.46 429.12,-124 554.41,-110.26 878.16,-134.95 995.12,-88 1015.62,-79.78 1012.9,-64.85 1033.12,-56 1087.25,-32.33 1255.66,-19.15 1341.18,-13.82"/>
<polygon fill="#63b8ff" stroke="#63b8ff" points="1341.15,-17.33 1350.92,-13.23 1340.73,-10.34 1341.15,-17.33"/>
</a>
</g>
</g>
<!-- Node4 -->
<g id="Node000004" class="node">
<title>Node4</title>
<g id="a_Node000004"><a xlink:title=" ">
<polygon fill="#e0e0e0" stroke="#999999" points="1524.25,-82 1368,-82 1368,-62 1524.25,-62 1524.25,-82"/>
<text xml:space="preserve" text-anchor="middle" x="1446.12" y="-68.5" font-family="Helvetica,sans-Serif" font-size="10.00">Subsystems/WorldSubsystem.h</text>
</a>
</g>
</g>
<!-- Node2&#45;&gt;Node4 -->
<g id="edge3_Node000002_Node000004" class="edge">
<title>Node2&#45;&gt;Node4</title>
<g id="a_edge3_Node000002_Node000004"><a xlink:title=" ">
<path fill="none" stroke="#63b8ff" d="M386.55,-129.52C400.38,-127.38 415.27,-125.35 429.12,-124 840.83,-84 947.75,-131.23 1359.12,-88 1368.12,-87.05 1377.59,-85.75 1386.84,-84.3"/>
<polygon fill="#63b8ff" stroke="#63b8ff" points="1387.17,-87.79 1396.47,-82.72 1386.04,-80.88 1387.17,-87.79"/>
</a>
</g>
</g>
<!-- Node5 -->
<g id="Node000005" class="node">
<title>Node5</title>
<g id="a_Node000005"><a xlink:title=" ">
<polygon fill="#e0e0e0" stroke="#999999" points="241.62,-82 180.62,-82 180.62,-62 241.62,-62 241.62,-82"/>
<text xml:space="preserve" text-anchor="middle" x="211.12" y="-68.5" font-family="Helvetica,sans-Serif" font-size="10.00">Tickable.h</text>
</a>
</g>
</g>
<!-- Node2&#45;&gt;Node5 -->
<g id="edge4_Node000002_Node000005" class="edge">
<title>Node2&#45;&gt;Node5</title>
<g id="a_edge4_Node000002_Node000005"><a xlink:title=" ">
<path fill="none" stroke="#63b8ff" d="M315.65,-129.54C295.53,-118.66 262.25,-100.66 238.65,-87.89"/>
<polygon fill="#63b8ff" stroke="#63b8ff" points="240.36,-84.84 229.9,-83.16 237.03,-91 240.36,-84.84"/>
</a>
</g>
</g>
<!-- Node6 -->
<g id="Node000006" class="node">
<title>Node6</title>
<g id="a_Node000006"><a xlink:title=" ">
<polygon fill="#e0e0e0" stroke="#999999" points="512.25,-82 404,-82 404,-62 512.25,-62 512.25,-82"/>
<text xml:space="preserve" text-anchor="middle" x="458.12" y="-68.5" font-family="Helvetica,sans-Serif" font-size="10.00">RHIGPUReadback.h</text>
</a>
</g>
</g>
<!-- Node2&#45;&gt;Node6 -->
<g id="edge5_Node000002_Node000006" class="edge">
<title>Node2&#45;&gt;Node6</title>
<g id="a_edge5_Node000002_Node000006"><a xlink:title=" ">
<path fill="none" stroke="#63b8ff" d="M351.03,-129.54C371.73,-118.61 406.05,-100.5 430.25,-87.72"/>
<polygon fill="#63b8ff" stroke="#63b8ff" points="431.7,-90.91 438.91,-83.15 428.43,-84.72 431.7,-90.91"/>
</a>
</g>
</g>
<!-- Node7 -->
<g id="Node000007" class="node">
<title>Node7</title>
<g id="a_Node000007"><a xlink:title=" ">
<polygon fill="#e0e0e0" stroke="#999999" points="1349.75,-82 1220.5,-82 1220.5,-62 1349.75,-62 1349.75,-82"/>
<text xml:space="preserve" text-anchor="middle" x="1285.12" y="-68.5" font-family="Helvetica,sans-Serif" font-size="10.00">RenderGraphResources.h</text>
</a>
</g>
</g>
<!-- Node2&#45;&gt;Node7 -->
<g id="edge6_Node000002_Node000007" class="edge">
<title>Node2&#45;&gt;Node7</title>
<g id="a_edge6_Node000002_Node000007"><a xlink:title=" ">
<path fill="none" stroke="#63b8ff" d="M387.06,-129.52C400.75,-127.4 415.45,-125.38 429.12,-124 775.29,-89.09 865.83,-130.69 1211.12,-88 1218.21,-87.12 1225.63,-85.94 1232.92,-84.62"/>
<polygon fill="#63b8ff" stroke="#63b8ff" points="1233.56,-88.06 1242.72,-82.75 1232.24,-81.19 1233.56,-88.06"/>
</a>
</g>
</g>
<!-- Node8 -->
<g id="Node000008" class="node">
<title>Node8</title>
<g id="a_Node000008"><a xlink:href="_irradiance_view_extension_8h.html" target="_top" xlink:title=" ">
<polygon fill="white" stroke="#666666" points="986.25,-88 860,-88 860,-56 986.25,-56 986.25,-88"/>
<text xml:space="preserve" text-anchor="start" x="868" y="-74.5" font-family="Helvetica,sans-Serif" font-size="10.00">Irradiance/IrradianceView</text>
<text xml:space="preserve" text-anchor="middle" x="923.12" y="-62.5" font-family="Helvetica,sans-Serif" font-size="10.00">Extension.h</text>
</a>
</g>
</g>
<!-- Node2&#45;&gt;Node8 -->
<g id="edge7_Node000002_Node000008" class="edge">
<title>Node2&#45;&gt;Node8</title>
<g id="a_edge7_Node000002_Node000008"><a xlink:title=" ">
<path fill="none" stroke="#63b8ff" d="M389.38,-129.54C402.41,-127.53 416.23,-125.56 429.12,-124 612.36,-101.9 662.91,-114.72 848.35,-88.29"/>
<polygon fill="#63b8ff" stroke="#63b8ff" points="848.7,-91.78 858.1,-86.88 847.7,-84.85 848.7,-91.78"/>
</a>
</g>
</g>
<!-- Node10 -->
<g id="Node000010" class="node">
<title>Node10</title>
<g id="a_Node000010"><a xlink:href="_irradiance_exporter_8h.html" target="_top" xlink:title=" ">
<polygon fill="white" stroke="#666666" points="679.88,-82 530.38,-82 530.38,-62 679.88,-62 679.88,-82"/>
<text xml:space="preserve" text-anchor="middle" x="605.12" y="-68.5" font-family="Helvetica,sans-Serif" font-size="10.00">Irradiance/IrradianceExporter.h</text>
</a>
</g>
</g>
<!-- Node2&#45;&gt;Node10 -->
<g id="edge10_Node000002_Node000010" class="edge">
<title>Node2&#45;&gt;Node10</title>
<g id="a_edge10_Node000002_Node000010"><a xlink:title=" ">
<path fill="none" stroke="#63b8ff" d="M372.1,-129.54C420.27,-117.85 502.33,-97.94 555.11,-85.14"/>
<polygon fill="#63b8ff" stroke="#63b8ff" points="555.86,-88.55 564.76,-82.8 554.21,-81.75 555.86,-88.55"/>
</a>
</g>
</g>
<!-- Node12 -->
<g id="Node000012" class="node">
<title>Node12</title>
<g id="a_Node000012"><a xlink:href="_ineichen_perez_clear_sky_8h.html" target="_top" xlink:title=" ">
<polygon fill="white" stroke="#666666" points="386.25,-82 260,-82 260,-62 386.25,-62 386.25,-82"/>
<text xml:space="preserve" text-anchor="middle" x="323.12" y="-68.5" font-family="Helvetica,sans-Serif" font-size="10.00">IneichenPerezClearSky.h</text>
</a>
</g>
</g>
<!-- Node2&#45;&gt;Node12 -->
<g id="edge13_Node000002_Node000012" class="edge">
<title>Node2&#45;&gt;Node12</title>
<g id="a_edge13_Node000002_Node000012"><a xlink:title=" ">
<path fill="none" stroke="#63b8ff" d="M331.69,-129.54C330.28,-120.23 328.08,-105.7 326.26,-93.7"/>
<polygon fill="#63b8ff" stroke="#63b8ff" points="329.74,-93.3 324.78,-83.94 322.82,-94.35 329.74,-93.3"/>
</a>
</g>
</g>
<!-- Node15 -->
<g id="Node000015" class="node">
<title>Node15</title>
<g id="a_Node000015"><a xlink:href="_capture_request_8h.html" target="_top" xlink:title=" ">
<polygon fill="white" stroke="#666666" points="842.25,-82 698,-82 698,-62 842.25,-62 842.25,-82"/>
<text xml:space="preserve" text-anchor="middle" x="770.12" y="-68.5" font-family="Helvetica,sans-Serif" font-size="10.00">Simulation/CaptureRequest.h</text>
</a>
</g>
</g>
<!-- Node2&#45;&gt;Node15 -->
<g id="edge17_Node000002_Node000015" class="edge">
<title>Node2&#45;&gt;Node15</title>
<g id="a_edge17_Node000002_Node000015"><a xlink:title=" ">
<path fill="none" stroke="#63b8ff" d="M392.76,-129.52C404.79,-127.65 417.36,-125.73 429.12,-124 544.54,-106.99 573.96,-106.63 689.12,-88 695.81,-86.92 702.79,-85.73 709.73,-84.5"/>
<polygon fill="#63b8ff" stroke="#63b8ff" points="710.22,-87.97 719.44,-82.75 708.98,-81.08 710.22,-87.97"/>
</a>
</g>
</g>
<!-- Node17 -->
<g id="Node000017" class="node">
<title>Node17</title>
<g id="a_Node000017"><a xlink:title=" ">
<polygon fill="#e0e0e0" stroke="#999999" points="162.25,-82 0,-82 0,-62 162.25,-62 162.25,-82"/>
<text xml:space="preserve" text-anchor="middle" x="81.12" y="-68.5" font-family="Helvetica,sans-Serif" font-size="10.00">IrradianceSubsystem.generated.h</text>
</a>
</g>
</g>
<!-- Node2&#45;&gt;Node17 -->
<g id="edge20_Node000002_Node000017" class="edge">
<title>Node2&#45;&gt;Node17</title>
<g id="a_edge20_Node000002_Node000017"><a xlink:title=" ">
<path fill="none" stroke="#63b8ff" d="M297.02,-129.54C252.58,-117.9 177,-98.11 128.08,-85.3"/>
<polygon fill="#63b8ff" stroke="#63b8ff" points="129.19,-81.97 118.63,-82.82 127.41,-88.74 129.19,-81.97"/>
</a>
</g>
</g>
<!-- Node8&#45;&gt;Node3 -->
<g id="edge8_Node000008_Node000003" class="edge">
<title>Node8&#45;&gt;Node3</title>
<g id="a_edge8_Node000008_Node000003"><a xlink:title=" ">
<path fill="none" stroke="#63b8ff" d="M986.51,-58.25C991.11,-57.45 995.68,-56.69 1000.12,-56 1121.74,-37.2 1265.7,-22.63 1340.76,-15.61"/>
<polygon fill="#63b8ff" stroke="#63b8ff" points="1341.06,-19.09 1350.69,-14.68 1340.41,-12.12 1341.06,-19.09"/>
</a>
</g>
</g>
<!-- Node9 -->
<g id="Node000009" class="node">
<title>Node9</title>
<g id="a_Node000009"><a xlink:title=" ">
<polygon fill="#e0e0e0" stroke="#999999" points="981.75,-20 864.5,-20 864.5,0 981.75,0 981.75,-20"/>
<text xml:space="preserve" text-anchor="middle" x="923.12" y="-6.5" font-family="Helvetica,sans-Serif" font-size="10.00">SceneViewExtension.h</text>
</a>
</g>
</g>
<!-- Node8&#45;&gt;Node9 -->
<g id="edge9_Node000008_Node000009" class="edge">
<title>Node8&#45;&gt;Node9</title>
<g id="a_edge9_Node000008_Node000009"><a xlink:title=" ">
<path fill="none" stroke="#63b8ff" d="M923.12,-55.55C923.12,-48.34 923.12,-39.66 923.12,-31.88"/>
<polygon fill="#63b8ff" stroke="#63b8ff" points="926.63,-31.92 923.13,-21.92 919.63,-31.92 926.63,-31.92"/>
</a>
</g>
</g>
<!-- Node10&#45;&gt;Node3 -->
<g id="edge11_Node000010_Node000003" class="edge">
<title>Node10&#45;&gt;Node3</title>
<g id="a_edge11_Node000010_Node000003"><a xlink:title=" ">
<path fill="none" stroke="#63b8ff" d="M652.52,-61.57C664.43,-59.47 677.21,-57.44 689.12,-56 932.11,-26.62 1224.81,-15.68 1341,-12.3"/>
<polygon fill="#63b8ff" stroke="#63b8ff" points="1340.93,-15.8 1350.83,-12.02 1340.73,-8.8 1340.93,-15.8"/>
</a>
</g>
</g>
<!-- Node11 -->
<g id="Node000011" class="node">
<title>Node11</title>
<g id="a_Node000011"><a xlink:title=" ">
<polygon fill="#e0e0e0" stroke="#999999" points="679.88,-20 530.38,-20 530.38,0 679.88,0 679.88,-20"/>
<text xml:space="preserve" text-anchor="middle" x="605.12" y="-6.5" font-family="Helvetica,sans-Serif" font-size="10.00">IrradianceExporter.generated.h</text>
</a>
</g>
</g>
<!-- Node10&#45;&gt;Node11 -->
<g id="edge12_Node000010_Node000011" class="edge">
<title>Node10&#45;&gt;Node11</title>
<g id="a_edge12_Node000010_Node000011"><a xlink:title=" ">
<path fill="none" stroke="#63b8ff" d="M605.12,-61.62C605.12,-53.56 605.12,-41.65 605.12,-31.41"/>
<polygon fill="#63b8ff" stroke="#63b8ff" points="608.63,-31.63 605.13,-21.63 601.63,-31.63 608.63,-31.63"/>
</a>
</g>
</g>
<!-- Node12&#45;&gt;Node3 -->
<g id="edge14_Node000012_Node000003" class="edge">
<title>Node12&#45;&gt;Node3</title>
<g id="a_edge14_Node000012_Node000003"><a xlink:title=" ">
<path fill="none" stroke="#63b8ff" d="M362.92,-61.52C373.35,-59.37 384.61,-57.32 395.12,-56 581.02,-32.59 1164.36,-16.62 1340.96,-12.22"/>
<polygon fill="#63b8ff" stroke="#63b8ff" points="1340.82,-15.73 1350.73,-11.98 1340.64,-8.73 1340.82,-15.73"/>
</a>
</g>
</g>
<!-- Node13 -->
<g id="Node000013" class="node">
<title>Node13</title>
<g id="a_Node000013"><a xlink:title=" ">
<polygon fill="#e0e0e0" stroke="#999999" points="270,-20 178.25,-20 178.25,0 270,0 270,-20"/>
<text xml:space="preserve" text-anchor="middle" x="224.12" y="-6.5" font-family="Helvetica,sans-Serif" font-size="10.00">UObject/Object.h</text>
</a>
</g>
</g>
<!-- Node12&#45;&gt;Node13 -->
<g id="edge15_Node000012_Node000013" class="edge">
<title>Node12&#45;&gt;Node13</title>
<g id="a_edge15_Node000012_Node000013"><a xlink:title=" ">
<path fill="none" stroke="#63b8ff" d="M307.66,-61.62C292.04,-52.16 267.65,-37.38 249.26,-26.23"/>
<polygon fill="#63b8ff" stroke="#63b8ff" points="251.15,-23.28 240.78,-21.09 247.52,-29.27 251.15,-23.28"/>
</a>
</g>
</g>
<!-- Node14 -->
<g id="Node000014" class="node">
<title>Node14</title>
<g id="a_Node000014"><a xlink:title=" ">
<polygon fill="#e0e0e0" stroke="#999999" points="460.12,-20 288.12,-20 288.12,0 460.12,0 460.12,-20"/>
<text xml:space="preserve" text-anchor="middle" x="374.12" y="-6.5" font-family="Helvetica,sans-Serif" font-size="10.00">IneichenPerezClearSky.generated.h</text>
</a>
</g>
</g>
<!-- Node12&#45;&gt;Node14 -->
<g id="edge16_Node000012_Node000014" class="edge">
<title>Node12&#45;&gt;Node14</title>
<g id="a_edge16_Node000012_Node000014"><a xlink:title=" ">
<path fill="none" stroke="#63b8ff" d="M331.09,-61.62C338.55,-52.86 349.87,-39.53 359.04,-28.75"/>
<polygon fill="#63b8ff" stroke="#63b8ff" points="361.59,-31.15 365.4,-21.27 356.26,-26.62 361.59,-31.15"/>
</a>
</g>
</g>
<!-- Node15&#45;&gt;Node3 -->
<g id="edge18_Node000015_Node000003" class="edge">
<title>Node15&#45;&gt;Node3</title>
<g id="a_edge18_Node000015_Node000003"><a xlink:title=" ">
<path fill="none" stroke="#63b8ff" d="M816.68,-61.55C827.93,-59.5 839.93,-57.5 851.12,-56 1030.25,-32.03 1244.56,-18.72 1340.85,-13.55"/>
<polygon fill="#63b8ff" stroke="#63b8ff" points="1340.96,-17.05 1350.76,-13.03 1340.59,-10.06 1340.96,-17.05"/>
</a>
</g>
</g>
<!-- Node16 -->
<g id="Node000016" class="node">
<title>Node16</title>
<g id="a_Node000016"><a xlink:title=" ">
<polygon fill="#e0e0e0" stroke="#999999" points="840.75,-20 699.5,-20 699.5,0 840.75,0 840.75,-20"/>
<text xml:space="preserve" text-anchor="middle" x="770.12" y="-6.5" font-family="Helvetica,sans-Serif" font-size="10.00">CaptureRequest.generated.h</text>
</a>
</g>
</g>
<!-- Node15&#45;&gt;Node16 -->
<g id="edge19_Node000015_Node000016" class="edge">
<title>Node15&#45;&gt;Node16</title>
<g id="a_edge19_Node000015_Node000016"><a xlink:title=" ">
<path fill="none" stroke="#63b8ff" d="M770.12,-61.62C770.12,-53.56 770.12,-41.65 770.12,-31.41"/>
<polygon fill="#63b8ff" stroke="#63b8ff" points="773.63,-31.63 770.13,-21.63 766.63,-31.63 773.63,-31.63"/>
</a>
</g>
</g>
<!-- Node23&#45;&gt;Node3 -->
<g id="edge27_Node000023_Node000003" class="edge">
<title>Node23&#45;&gt;Node3</title>
<g id="a_edge27_Node000023_Node000003"><a xlink:title=" ">
<path fill="none" stroke="#63b8ff" d="M1232.36,-129.51C1246.39,-127.51 1261.26,-125.55 1275.12,-124 1325.19,-118.4 1692.94,-125.01 1727.12,-88 1736.77,-77.55 1736.49,-66.71 1727.12,-56 1690.87,-14.55 1527.73,-9.69 1443.23,-10.05"/>
<polygon fill="#63b8ff" stroke="#63b8ff" points="1443.34,-6.55 1433.36,-10.12 1443.39,-13.55 1443.34,-6.55"/>
</a>
</g>
</g>
<!-- Node24 -->
<g id="Node000024" class="node">
<title>Node24</title>
<g id="a_Node000024"><a xlink:title=" ">
<polygon fill="#e0e0e0" stroke="#999999" points="1202.5,-82 1041.75,-82 1041.75,-62 1202.5,-62 1202.5,-82"/>
<text xml:space="preserve" text-anchor="middle" x="1122.12" y="-68.5" font-family="Helvetica,sans-Serif" font-size="10.00">Components/SceneComponent.h</text>
</a>
</g>
</g>
<!-- Node23&#45;&gt;Node24 -->
<g id="edge28_Node000023_Node000024" class="edge">
<title>Node23&#45;&gt;Node24</title>
<g id="a_edge28_Node000023_Node000024"><a xlink:title=" ">
<path fill="none" stroke="#63b8ff" d="M1164.1,-129.54C1156.75,-119.64 1145.02,-103.84 1135.83,-91.46"/>
<polygon fill="#63b8ff" stroke="#63b8ff" points="1138.81,-89.6 1130.03,-83.65 1133.19,-93.77 1138.81,-89.6"/>
</a>
</g>
</g>
<!-- Node25 -->
<g id="Node000025" class="node">
<title>Node25</title>
<g id="a_Node000025"><a xlink:title=" ">
<polygon fill="#e0e0e0" stroke="#999999" points="1718,-82 1542.25,-82 1542.25,-62 1718,-62 1718,-82"/>
<text xml:space="preserve" text-anchor="middle" x="1630.12" y="-68.5" font-family="Helvetica,sans-Serif" font-size="10.00">PyranometerComponent.generated.h</text>
</a>
</g>
</g>
<!-- Node23&#45;&gt;Node25 -->
<g id="edge29_Node000023_Node000025" class="edge">
<title>Node23&#45;&gt;Node25</title>
<g id="a_edge29_Node000023_Node000025"><a xlink:title=" ">
<path fill="none" stroke="#63b8ff" d="M1236.58,-129.51C1249.36,-127.67 1262.66,-125.77 1275.12,-124 1389.75,-107.74 1418.58,-104.85 1533.12,-88 1541.33,-86.79 1549.92,-85.5 1558.46,-84.2"/>
<polygon fill="#63b8ff" stroke="#63b8ff" points="1558.75,-87.7 1568.11,-82.73 1557.7,-80.78 1558.75,-87.7"/>
</a>
</g>
</g>
<!-- Node31&#45;&gt;Node3 -->
<g id="edge36_Node000031_Node000003" class="edge">
<title>Node31&#45;&gt;Node3</title>
<g id="a_edge36_Node000031_Node000003"><a xlink:title=" ">
<path fill="none" stroke="#63b8ff" d="M2557.52,-61.54C2545.07,-59.38 2531.63,-57.33 2519.12,-56 2105.73,-11.89 1602.87,-9.99 1443.27,-10.63"/>
<polygon fill="#63b8ff" stroke="#63b8ff" points="1443.44,-7.13 1433.45,-10.68 1443.47,-14.13 1443.44,-7.13"/>
</a>
</g>
</g>
<!-- Node32&#45;&gt;Node3 -->
<g id="edge38_Node000032_Node000003" class="edge">
<title>Node32&#45;&gt;Node3</title>
<g id="a_edge38_Node000032_Node000003"><a xlink:title=" ">
<path fill="none" stroke="#63b8ff" d="M2062,-129.52C2026.48,-121.68 1979.18,-108.46 1941.12,-88 1921.68,-77.54 1923.51,-64.47 1903.12,-56 1820.92,-21.84 1555.46,-13.59 1443.1,-11.61"/>
<polygon fill="#63b8ff" stroke="#63b8ff" points="1443.34,-8.12 1433.28,-11.45 1443.22,-15.12 1443.34,-8.12"/>
</a>
</g>
</g>
<!-- Node32&#45;&gt;Node7 -->
<g id="edge41_Node000032_Node000007" class="edge">
<title>Node32&#45;&gt;Node7</title>
<g id="a_edge41_Node000032_Node000007"><a xlink:title=" ">
<path fill="none" stroke="#63b8ff" d="M2038.24,-129.5C2020.5,-127.49 2001.67,-125.52 1984.12,-124 1706.92,-100.04 1635.06,-123.73 1359.12,-88 1352.13,-87.09 1344.81,-85.91 1337.6,-84.6"/>
<polygon fill="#63b8ff" stroke="#63b8ff" points="1338.4,-81.19 1327.92,-82.74 1337.09,-88.06 1338.4,-81.19"/>
</a>
</g>
</g>
<!-- Node33 -->
<g id="Node000033" class="node">
<title>Node33</title>
<g id="a_Node000033"><a xlink:title=" ">
<polygon fill="#e0e0e0" stroke="#999999" points="2032.5,-82 1949.75,-82 1949.75,-62 2032.5,-62 2032.5,-82"/>
<text xml:space="preserve" text-anchor="middle" x="1991.12" y="-68.5" font-family="Helvetica,sans-Serif" font-size="10.00">GlobalShader.h</text>
</a>
</g>
</g>
<!-- Node32&#45;&gt;Node33 -->
<g id="edge39_Node000032_Node000033" class="edge">
<title>Node32&#45;&gt;Node33</title>
<g id="a_edge39_Node000032_Node000033"><a xlink:title=" ">
<path fill="none" stroke="#63b8ff" d="M2096.5,-129.54C2076.13,-118.61 2042.37,-100.5 2018.56,-87.72"/>
<polygon fill="#63b8ff" stroke="#63b8ff" points="2020.52,-84.8 2010.05,-83.15 2017.21,-90.97 2020.52,-84.8"/>
</a>
</g>
</g>
<!-- Node34 -->
<g id="Node000034" class="node">
<title>Node34</title>
<g id="a_Node000034"><a xlink:title=" ">
<polygon fill="#e0e0e0" stroke="#999999" points="2177.25,-82 2051,-82 2051,-62 2177.25,-62 2177.25,-82"/>
<text xml:space="preserve" text-anchor="middle" x="2114.12" y="-68.5" font-family="Helvetica,sans-Serif" font-size="10.00">ShaderParameterStruct.h</text>
</a>
</g>
</g>
<!-- Node32&#45;&gt;Node34 -->
<g id="edge40_Node000032_Node000034" class="edge">
<title>Node32&#45;&gt;Node34</title>
<g id="a_edge40_Node000032_Node000034"><a xlink:title=" ">
<path fill="none" stroke="#63b8ff" d="M2114.12,-129.54C2114.12,-120.23 2114.12,-105.7 2114.12,-93.7"/>
<polygon fill="#63b8ff" stroke="#63b8ff" points="2117.63,-93.95 2114.13,-83.95 2110.63,-93.95 2117.63,-93.95"/>
</a>
</g>
</g>
<!-- Node35&#45;&gt;Node3 -->
<g id="edge43_Node000035_Node000003" class="edge">
<title>Node35&#45;&gt;Node3</title>
<g id="a_edge43_Node000035_Node000003"><a xlink:title=" ">
<path fill="none" stroke="#63b8ff" d="M2280.76,-129.68C2266.52,-119.66 2243.41,-103.12 2224.12,-88 2206.75,-74.38 2206.64,-64.15 2186.12,-56 2117.41,-28.69 1607.65,-15.57 1443.15,-12.02"/>
<polygon fill="#63b8ff" stroke="#63b8ff" points="1443.49,-8.53 1433.42,-11.81 1443.35,-15.53 1443.49,-8.53"/>
</a>
</g>
</g>
<!-- Node35&#45;&gt;Node4 -->
<g id="edge44_Node000035_Node000004" class="edge">
<title>Node35&#45;&gt;Node4</title>
<g id="a_edge44_Node000035_Node000004"><a xlink:title=" ">
<path fill="none" stroke="#63b8ff" d="M2244.47,-129.51C2231.99,-127.41 2218.6,-125.39 2206.12,-124 1908.43,-90.78 1830.78,-121.5 1533.12,-88 1524.45,-87.02 1515.33,-85.74 1506.39,-84.33"/>
<polygon fill="#63b8ff" stroke="#63b8ff" points="1507.14,-80.91 1496.71,-82.74 1506.01,-87.82 1507.14,-80.91"/>
</a>
</g>
</g>
<!-- Node36 -->
<g id="Node000036" class="node">
<title>Node36</title>
<g id="a_Node000036"><a xlink:title=" ">
<polygon fill="#e0e0e0" stroke="#999999" points="2345.5,-82 2232.75,-82 2232.75,-62 2345.5,-62 2345.5,-82"/>
<text xml:space="preserve" text-anchor="middle" x="2289.12" y="-68.5" font-family="Helvetica,sans-Serif" font-size="10.00">UObject/UnrealType.h</text>
</a>
</g>
</g>
<!-- Node35&#45;&gt;Node36 -->
<g id="edge45_Node000035_Node000036" class="edge">
<title>Node35&#45;&gt;Node36</title>
<g id="a_edge45_Node000035_Node000036"><a xlink:title=" ">
<path fill="none" stroke="#63b8ff" d="M2293.41,-129.54C2292.7,-120.23 2291.6,-105.7 2290.69,-93.7"/>
<polygon fill="#63b8ff" stroke="#63b8ff" points="2294.2,-93.65 2289.95,-83.95 2287.22,-94.18 2294.2,-93.65"/>
</a>
</g>
</g>
<!-- Node37 -->
<g id="Node000037" class="node">
<title>Node37</title>
<g id="a_Node000037"><a xlink:title=" ">
<polygon fill="#e0e0e0" stroke="#999999" points="2510.38,-82 2363.88,-82 2363.88,-62 2510.38,-62 2510.38,-82"/>
<text xml:space="preserve" text-anchor="middle" x="2437.12" y="-68.5" font-family="Helvetica,sans-Serif" font-size="10.00">SunSkyController.generated.h</text>
</a>
</g>
</g>
<!-- Node35&#45;&gt;Node37 -->
<g id="edge46_Node000035_Node000037" class="edge">
<title>Node35&#45;&gt;Node37</title>
<g id="a_edge46_Node000035_Node000037"><a xlink:title=" ">
<path fill="none" stroke="#63b8ff" d="M2314.61,-129.54C2338.61,-118.47 2378.61,-100.01 2406.34,-87.21"/>
<polygon fill="#63b8ff" stroke="#63b8ff" points="2407.69,-90.44 2415.3,-83.07 2404.75,-84.09 2407.69,-90.44"/>
</a>
</g>
</g>
<!-- Node38&#45;&gt;Node3 -->
<g id="edge48_Node000038_Node000003" class="edge">
<title>Node38&#45;&gt;Node3</title>
<g id="a_edge48_Node000038_Node000003"><a xlink:title=" ">
<path fill="none" stroke="#63b8ff" d="M1790.4,-61.55C1780.48,-59.57 1769.96,-57.6 1760.12,-56 1647.58,-37.74 1514.59,-23.21 1443.34,-15.98"/>
<polygon fill="#63b8ff" stroke="#63b8ff" points="1443.83,-12.51 1433.53,-15 1443.13,-19.48 1443.83,-12.51"/>
</a>
</g>
</g>
</g>
</svg>
