<?xml version="1.0" encoding="UTF-8" standalone="no"?>
<!DOCTYPE svg PUBLIC "-//W3C//DTD SVG 1.1//EN"
 "http://www.w3.org/Graphics/SVG/1.1/DTD/svg11.dtd">
<!-- Generated by graphviz version 14.1.0 (20251206.1807)
 -->
<!-- Title: Source/PyranoEditor/Private/Data/IrradianceConfiguration.h Pages: 1 -->
<svg width="404pt" height="152pt"
 viewBox="0.00 0.00 404.00 152.00" xmlns="http://www.w3.org/2000/svg" xmlns:xlink="http://www.w3.org/1999/xlink">
<g id="graph0" class="graph" transform="scale(1 1) rotate(0) translate(4 148)">
<title>Source/PyranoEditor/Private/Data/IrradianceConfiguration.h</title>
<!-- Node1 -->
<g id="Node000001" class="node">
<title>Node1</title>
<g id="a_Node000001"><a xlink:title=" ">
<polygon fill="#999999" stroke="#666666" points="337.25,-144 151.75,-144 151.75,-112 337.25,-112 337.25,-144"/>
<text xml:space="preserve" text-anchor="start" x="159.75" y="-130.5" font-family="Helvetica,sans-Serif" font-size="10.00">Source/PyranoEditor</text>
<text xml:space="preserve" text-anchor="middle" x="244.5" y="-118.5" font-family="Helvetica,sans-Serif" font-size="10.00">/Private/Data/IrradianceConfiguration.h</text>
</a>
</g>
</g>
<!-- Node2 -->
<g id="Node000002" class="node">
<title>Node2</title>
<g id="a_Node000002"><a xlink:href="_simulation_config_8h.html" target="_top" xlink:title=" ">
<polygon fill="white" stroke="#666666" points="178.12,-76 30.88,-76 30.88,-56 178.12,-56 178.12,-76"/>
<text xml:space="preserve" text-anchor="middle" x="104.5" y="-62.5" font-family="Helvetica,sans-Serif" font-size="10.00">Simulation/SimulationConfig.h</text>
</a>
</g>
</g>
<!-- Node1&#45;&gt;Node2 -->
<g id="edge1_Node000001_Node000002" class="edge">
<title>Node1&#45;&gt;Node2</title>
<g id="a_edge1_Node000001_Node000002"><a xlink:title=" ">
<path fill="none" stroke="#63b8ff" d="M208.45,-111.55C186.37,-102.09 158.35,-90.08 136.96,-80.91"/>
<polygon fill="#63b8ff" stroke="#63b8ff" points="138.41,-77.73 127.84,-77 135.66,-84.16 138.41,-77.73"/>
</a>
</g>
</g>
<!-- Node5 -->
<g id="Node000005" class="node">
<title>Node5</title>
<g id="a_Node000005"><a xlink:title=" ">
<polygon fill="#e0e0e0" stroke="#999999" points="293,-76 196,-76 196,-56 293,-56 293,-76"/>
<text xml:space="preserve" text-anchor="middle" x="244.5" y="-62.5" font-family="Helvetica,sans-Serif" font-size="10.00">Containers/Array.h</text>
</a>
</g>
</g>
<!-- Node1&#45;&gt;Node5 -->
<g id="edge4_Node000001_Node000005" class="edge">
<title>Node1&#45;&gt;Node5</title>
<g id="a_edge4_Node000001_Node000005"><a xlink:title=" ">
<path fill="none" stroke="#63b8ff" d="M244.5,-111.55C244.5,-104.34 244.5,-95.66 244.5,-87.88"/>
<polygon fill="#63b8ff" stroke="#63b8ff" points="248,-87.92 244.5,-77.92 241,-87.92 248,-87.92"/>
</a>
</g>
</g>
<!-- Node6 -->
<g id="Node000006" class="node">
<title>Node6</title>
<g id="a_Node000006"><a xlink:title=" ">
<polygon fill="#e0e0e0" stroke="#999999" points="395.62,-76 311.38,-76 311.38,-56 395.62,-56 395.62,-76"/>
<text xml:space="preserve" text-anchor="middle" x="353.5" y="-62.5" font-family="Helvetica,sans-Serif" font-size="10.00">Misc/Optional.h</text>
</a>
</g>
</g>
<!-- Node1&#45;&gt;Node6 -->
<g id="edge5_Node000001_Node000006" class="edge">
<title>Node1&#45;&gt;Node6</title>
<g id="a_edge5_Node000001_Node000006"><a xlink:title=" ">
<path fill="none" stroke="#63b8ff" d="M272.57,-111.55C289.13,-102.43 309.98,-90.96 326.37,-81.93"/>
<polygon fill="#63b8ff" stroke="#63b8ff" points="328.01,-85.03 335.08,-77.14 324.63,-78.89 328.01,-85.03"/>
</a>
</g>
</g>
<!-- Node3 -->
<g id="Node000003" class="node">
<title>Node3</title>
<g id="a_Node000003"><a xlink:title=" ">
<polygon fill="#e0e0e0" stroke="#999999" points="79,-20 0,-20 0,0 79,0 79,-20"/>
<text xml:space="preserve" text-anchor="middle" x="39.5" y="-6.5" font-family="Helvetica,sans-Serif" font-size="10.00">CoreMinimal.h</text>
</a>
</g>
</g>
<!-- Node2&#45;&gt;Node3 -->
<g id="edge2_Node000002_Node000003" class="edge">
<title>Node2&#45;&gt;Node3</title>
<g id="a_edge2_Node000002_Node000003"><a xlink:title=" ">
<path fill="none" stroke="#63b8ff" d="M93.18,-55.59C83.86,-47.85 70.42,-36.69 59.32,-27.47"/>
<polygon fill="#63b8ff" stroke="#63b8ff" points="61.79,-24.96 51.86,-21.27 57.31,-30.35 61.79,-24.96"/>
</a>
</g>
</g>
<!-- Node4 -->
<g id="Node000004" class="node">
<title>Node4</title>
<g id="a_Node000004"><a xlink:title=" ">
<polygon fill="#e0e0e0" stroke="#999999" points="241.62,-20 97.38,-20 97.38,0 241.62,0 241.62,-20"/>
<text xml:space="preserve" text-anchor="middle" x="169.5" y="-6.5" font-family="Helvetica,sans-Serif" font-size="10.00">SimulationConfig.generated.h</text>
</a>
</g>
</g>
<!-- Node2&#45;&gt;Node4 -->
<g id="edge3_Node000002_Node000004" class="edge">
<title>Node2&#45;&gt;Node4</title>
<g id="a_edge3_Node000002_Node000004"><a xlink:title=" ">
<path fill="none" stroke="#63b8ff" d="M115.82,-55.59C125.14,-47.85 138.58,-36.69 149.68,-27.47"/>
<polygon fill="#63b8ff" stroke="#63b8ff" points="151.69,-30.35 157.14,-21.27 147.21,-24.96 151.69,-30.35"/>
</a>
</g>
</g>
</g>
</svg>
