<?xml version="1.0" encoding="UTF-8" standalone="no"?>
<!DOCTYPE svg PUBLIC "-//W3C//DTD SVG 1.1//EN"
 "http://www.w3.org/Graphics/SVG/1.1/DTD/svg11.dtd">
<!-- Generated by graphviz version 14.1.0 (20251206.1807)
 -->
<!-- Title: Source/Pyrano/Private/Simulation/IrradianceScheduler.cpp Pages: 1 -->
<svg width="2531pt" height="220pt"
 viewBox="0.00 0.00 2531.00 220.00" xmlns="http://www.w3.org/2000/svg" xmlns:xlink="http://www.w3.org/1999/xlink">
<g id="graph0" class="graph" transform="scale(1 1) rotate(0) translate(4 216)">
<title>Source/Pyrano/Private/Simulation/IrradianceScheduler.cpp</title>
<!-- Node1 -->
<g id="Node000001" class="node">
<title>Node1</title>
<g id="a_Node000001"><a xlink:title=" ">
<polygon fill="#999999" stroke="#666666" points="1294.52,-212 1121.77,-212 1121.77,-180 1294.52,-180 1294.52,-212"/>
<text xml:space="preserve" text-anchor="start" x="1129.77" y="-198.5" font-family="Helvetica,sans-Serif" font-size="10.00">Source/Pyrano/Private</text>
<text xml:space="preserve" text-anchor="middle" x="1208.15" y="-186.5" font-family="Helvetica,sans-Serif" font-size="10.00">/Simulation/IrradianceScheduler.cpp</text>
</a>
</g>
</g>
<!-- Node2 -->
<g id="Node000002" class="node">
<title>Node2</title>
<g id="a_Node000002"><a xlink:href="_irradiance_scheduler_8h.html" target="_top" xlink:title=" ">
<polygon fill="white" stroke="#666666" points="546.77,-144 387.52,-144 387.52,-124 546.77,-124 546.77,-144"/>
<text xml:space="preserve" text-anchor="middle" x="467.15" y="-130.5" font-family="Helvetica,sans-Serif" font-size="10.00">Simulation/IrradianceScheduler.h</text>
</a>
</g>
</g>
<!-- Node1&#45;&gt;Node2 -->
<g id="edge1_Node000001_Node000002" class="edge">
<title>Node1&#45;&gt;Node2</title>
<g id="a_edge1_Node000001_Node000002"><a xlink:title=" ">
<path fill="none" stroke="#63b8ff" d="M1121.33,-187.97C980.21,-176.54 702.39,-154.05 558.44,-142.39"/>
<polygon fill="#63b8ff" stroke="#63b8ff" points="558.8,-138.91 548.55,-141.59 558.24,-145.89 558.8,-138.91"/>
</a>
</g>
</g>
<!-- Node11 -->
<g id="Node000011" class="node">
<title>Node11</title>
<g id="a_Node000011"><a xlink:title=" ">
<polygon fill="#e0e0e0" stroke="#999999" points="2328.4,-144 2253.9,-144 2253.9,-124 2328.4,-124 2328.4,-144"/>
<text xml:space="preserve" text-anchor="middle" x="2291.15" y="-130.5" font-family="Helvetica,sans-Serif" font-size="10.00">EngineUtils.h</text>
</a>
</g>
</g>
<!-- Node1&#45;&gt;Node11 -->
<g id="edge12_Node000001_Node000011" class="edge">
<title>Node1&#45;&gt;Node11</title>
<g id="a_edge12_Node000001_Node000011"><a xlink:title=" ">
<path fill="none" stroke="#63b8ff" d="M1294.79,-194.82C1471.25,-193.57 1885.11,-186.1 2242.16,-144.04"/>
<polygon fill="#63b8ff" stroke="#63b8ff" points="2242.49,-147.52 2252.01,-142.87 2241.66,-140.57 2242.49,-147.52"/>
</a>
</g>
</g>
<!-- Node12 -->
<g id="Node000012" class="node">
<title>Node12</title>
<g id="a_Node000012"><a xlink:href="_irradiance_subsystem_8h.html" target="_top" xlink:title=" ">
<polygon fill="white" stroke="#666666" points="1152.27,-144 978.02,-144 978.02,-124 1152.27,-124 1152.27,-144"/>
<text xml:space="preserve" text-anchor="middle" x="1065.15" y="-130.5" font-family="Helvetica,sans-Serif" font-size="10.00">Subsystems/IrradianceSubsystem.h</text>
</a>
</g>
</g>
<!-- Node1&#45;&gt;Node12 -->
<g id="edge13_Node000001_Node000012" class="edge">
<title>Node1&#45;&gt;Node12</title>
<g id="a_edge13_Node000001_Node000012"><a xlink:title=" ">
<path fill="none" stroke="#63b8ff" d="M1171.32,-179.55C1148.67,-170.04 1119.88,-157.97 1098,-148.79"/>
<polygon fill="#63b8ff" stroke="#63b8ff" points="1099.54,-145.64 1088.96,-144.99 1096.83,-152.09 1099.54,-145.64"/>
</a>
</g>
</g>
<!-- Node19 -->
<g id="Node000019" class="node">
<title>Node19</title>
<g id="a_Node000019"><a xlink:href="_ineichen_perez_clear_sky_8h.html" target="_top" xlink:title=" ">
<polygon fill="white" stroke="#666666" points="1817.27,-82 1691.02,-82 1691.02,-62 1817.27,-62 1817.27,-82"/>
<text xml:space="preserve" text-anchor="middle" x="1754.15" y="-68.5" font-family="Helvetica,sans-Serif" font-size="10.00">IneichenPerezClearSky.h</text>
</a>
</g>
</g>
<!-- Node1&#45;&gt;Node19 -->
<g id="edge35_Node000001_Node000019" class="edge">
<title>Node1&#45;&gt;Node19</title>
<g id="a_edge35_Node000001_Node000019"><a xlink:title=" ">
<path fill="none" stroke="#63b8ff" d="M1278.68,-179.51C1324.43,-169.44 1385.33,-156.01 1439.15,-144 1531.35,-123.43 1638.65,-99.18 1701.23,-85"/>
<polygon fill="#63b8ff" stroke="#63b8ff" points="1701.92,-88.43 1710.9,-82.81 1700.37,-81.61 1701.92,-88.43"/>
</a>
</g>
</g>
<!-- Node23 -->
<g id="Node000023" class="node">
<title>Node23</title>
<g id="a_Node000023"><a xlink:href="_pyranometer_component_8h.html" target="_top" xlink:title=" ">
<polygon fill="white" stroke="#666666" points="2235.4,-144 2046.9,-144 2046.9,-124 2235.4,-124 2235.4,-144"/>
<text xml:space="preserve" text-anchor="middle" x="2141.15" y="-130.5" font-family="Helvetica,sans-Serif" font-size="10.00">Components/PyranometerComponent.h</text>
</a>
</g>
</g>
<!-- Node1&#45;&gt;Node23 -->
<g id="edge31_Node000001_Node000023" class="edge">
<title>Node1&#45;&gt;Node23</title>
<g id="a_edge31_Node000001_Node000023"><a xlink:title=" ">
<path fill="none" stroke="#63b8ff" d="M1294.66,-189.44C1466.24,-178.4 1849.05,-153.78 2035.3,-141.81"/>
<polygon fill="#63b8ff" stroke="#63b8ff" points="2035.47,-145.3 2045.23,-141.17 2035.02,-138.32 2035.47,-145.3"/>
</a>
</g>
</g>
<!-- Node26 -->
<g id="Node000026" class="node">
<title>Node26</title>
<g id="a_Node000026"><a xlink:href="_irradiance_common_8h.html" target="_top" xlink:title=" ">
<polygon fill="white" stroke="#666666" points="217.4,-144 64.9,-144 64.9,-124 217.4,-124 217.4,-144"/>
<text xml:space="preserve" text-anchor="middle" x="141.15" y="-130.5" font-family="Helvetica,sans-Serif" font-size="10.00">Irradiance/IrradianceCommon.h</text>
</a>
</g>
</g>
<!-- Node1&#45;&gt;Node26 -->
<g id="edge36_Node000001_Node000026" class="edge">
<title>Node1&#45;&gt;Node26</title>
<g id="a_edge36_Node000001_Node000026"><a xlink:title=" ">
<path fill="none" stroke="#63b8ff" d="M1121.28,-190.12C921.3,-178.87 430.15,-151.25 229.11,-139.95"/>
<polygon fill="#63b8ff" stroke="#63b8ff" points="229.43,-136.46 219.25,-139.39 229.03,-143.45 229.43,-136.46"/>
</a>
</g>
</g>
<!-- Node27 -->
<g id="Node000027" class="node">
<title>Node27</title>
<g id="a_Node000027"><a xlink:href="_sun_sky_controller_8h.html" target="_top" xlink:title=" ">
<polygon fill="white" stroke="#666666" points="1430.4,-144 1271.9,-144 1271.9,-124 1430.4,-124 1430.4,-144"/>
<text xml:space="preserve" text-anchor="middle" x="1351.15" y="-130.5" font-family="Helvetica,sans-Serif" font-size="10.00">Subsystems/SunSkyController.h</text>
</a>
</g>
</g>
<!-- Node1&#45;&gt;Node27 -->
<g id="edge38_Node000001_Node000027" class="edge">
<title>Node1&#45;&gt;Node27</title>
<g id="a_edge38_Node000001_Node000027"><a xlink:title=" ">
<path fill="none" stroke="#63b8ff" d="M1244.97,-179.55C1267.63,-170.04 1296.41,-157.97 1318.29,-148.79"/>
<polygon fill="#63b8ff" stroke="#63b8ff" points="1319.46,-152.09 1327.33,-144.99 1316.75,-145.64 1319.46,-152.09"/>
</a>
</g>
</g>
<!-- Node30 -->
<g id="Node000030" class="node">
<title>Node30</title>
<g id="a_Node000030"><a xlink:href="_irradiance_log_8h.html" target="_top" xlink:title=" ">
<polygon fill="white" stroke="#666666" points="833.9,-144 714.4,-144 714.4,-124 833.9,-124 833.9,-144"/>
<text xml:space="preserve" text-anchor="middle" x="774.15" y="-130.5" font-family="Helvetica,sans-Serif" font-size="10.00">Logging/IrradianceLog.h</text>
</a>
</g>
</g>
<!-- Node1&#45;&gt;Node30 -->
<g id="edge43_Node000001_Node000030" class="edge">
<title>Node1&#45;&gt;Node30</title>
<g id="a_edge43_Node000001_Node000030"><a xlink:title=" ">
<path fill="none" stroke="#63b8ff" d="M1121.36,-183C1040.42,-171.81 921.13,-155.32 845.56,-144.87"/>
<polygon fill="#63b8ff" stroke="#63b8ff" points="846.16,-141.42 835.78,-143.52 845.2,-148.36 846.16,-141.42"/>
</a>
</g>
</g>
<!-- Node3 -->
<g id="Node000003" class="node">
<title>Node3</title>
<g id="a_Node000003"><a xlink:title=" ">
<polygon fill="#e0e0e0" stroke="#999999" points="724.65,-20 645.65,-20 645.65,0 724.65,0 724.65,-20"/>
<text xml:space="preserve" text-anchor="middle" x="685.15" y="-6.5" font-family="Helvetica,sans-Serif" font-size="10.00">CoreMinimal.h</text>
</a>
</g>
</g>
<!-- Node2&#45;&gt;Node3 -->
<g id="edge2_Node000002_Node000003" class="edge">
<title>Node2&#45;&gt;Node3</title>
<g id="a_edge2_Node000002_Node000003"><a xlink:title=" ">
<path fill="none" stroke="#63b8ff" d="M434.06,-123.65C416.52,-116.82 396.51,-105.61 386.15,-88 378.93,-75.74 376.87,-66.78 386.15,-56 402.06,-37.51 552.47,-22.15 633.69,-15.12"/>
<polygon fill="#63b8ff" stroke="#63b8ff" points="633.98,-18.61 643.64,-14.27 633.38,-11.63 633.98,-18.61"/>
</a>
</g>
</g>
<!-- Node4 -->
<g id="Node000004" class="node">
<title>Node4</title>
<g id="a_Node000004"><a xlink:title=" ">
<polygon fill="#e0e0e0" stroke="#999999" points="618.65,-82 557.65,-82 557.65,-62 618.65,-62 618.65,-82"/>
<text xml:space="preserve" text-anchor="middle" x="588.15" y="-68.5" font-family="Helvetica,sans-Serif" font-size="10.00">Tickable.h</text>
</a>
</g>
</g>
<!-- Node2&#45;&gt;Node4 -->
<g id="edge3_Node000002_Node000004" class="edge">
<title>Node2&#45;&gt;Node4</title>
<g id="a_edge3_Node000002_Node000004"><a xlink:title=" ">
<path fill="none" stroke="#63b8ff" d="M486.05,-123.62C505.68,-113.89 536.62,-98.55 559.3,-87.31"/>
<polygon fill="#63b8ff" stroke="#63b8ff" points="560.61,-90.56 568.02,-82.98 557.5,-84.29 560.61,-90.56"/>
</a>
</g>
</g>
<!-- Node5 -->
<g id="Node000005" class="node">
<title>Node5</title>
<g id="a_Node000005"><a xlink:title=" ">
<polygon fill="#e0e0e0" stroke="#999999" points="1143.27,-82 987.02,-82 987.02,-62 1143.27,-62 1143.27,-82"/>
<text xml:space="preserve" text-anchor="middle" x="1065.15" y="-68.5" font-family="Helvetica,sans-Serif" font-size="10.00">Subsystems/WorldSubsystem.h</text>
</a>
</g>
</g>
<!-- Node2&#45;&gt;Node5 -->
<g id="edge4_Node000002_Node000005" class="edge">
<title>Node2&#45;&gt;Node5</title>
<g id="a_edge4_Node000002_Node000005"><a xlink:title=" ">
<path fill="none" stroke="#63b8ff" d="M547.03,-128.02C647.79,-121.27 826.24,-107.75 978.15,-88 986.39,-86.93 995.04,-85.64 1003.57,-84.27"/>
<polygon fill="#63b8ff" stroke="#63b8ff" points="1003.86,-87.77 1013.16,-82.68 1002.72,-80.86 1003.86,-87.77"/>
</a>
</g>
</g>
<!-- Node6 -->
<g id="Node000006" class="node">
<title>Node6</title>
<g id="a_Node000006"><a xlink:href="_simulation_config_8h.html" target="_top" xlink:title=" ">
<polygon fill="white" stroke="#666666" points="164.77,-82 17.52,-82 17.52,-62 164.77,-62 164.77,-82"/>
<text xml:space="preserve" text-anchor="middle" x="91.15" y="-68.5" font-family="Helvetica,sans-Serif" font-size="10.00">Simulation/SimulationConfig.h</text>
</a>
</g>
</g>
<!-- Node2&#45;&gt;Node6 -->
<g id="edge5_Node000002_Node000006" class="edge">
<title>Node2&#45;&gt;Node6</title>
<g id="a_edge5_Node000002_Node000006"><a xlink:title=" ">
<path fill="none" stroke="#63b8ff" d="M402.19,-123.53C342.76,-114.74 252.44,-101.09 174.15,-88 167.42,-86.88 160.39,-85.66 153.39,-84.43"/>
<polygon fill="#63b8ff" stroke="#63b8ff" points="154.42,-81.06 143.96,-82.76 153.19,-87.95 154.42,-81.06"/>
</a>
</g>
</g>
<!-- Node8 -->
<g id="Node000008" class="node">
<title>Node8</title>
<g id="a_Node000008"><a xlink:href="_capture_request_8h.html" target="_top" xlink:title=" ">
<polygon fill="white" stroke="#666666" points="539.27,-82 395.02,-82 395.02,-62 539.27,-62 539.27,-82"/>
<text xml:space="preserve" text-anchor="middle" x="467.15" y="-68.5" font-family="Helvetica,sans-Serif" font-size="10.00">Simulation/CaptureRequest.h</text>
</a>
</g>
</g>
<!-- Node2&#45;&gt;Node8 -->
<g id="edge8_Node000002_Node000008" class="edge">
<title>Node2&#45;&gt;Node8</title>
<g id="a_edge8_Node000002_Node000008"><a xlink:title=" ">
<path fill="none" stroke="#63b8ff" d="M467.15,-123.62C467.15,-115.56 467.15,-103.65 467.15,-93.41"/>
<polygon fill="#63b8ff" stroke="#63b8ff" points="470.65,-93.63 467.15,-83.63 463.65,-93.63 470.65,-93.63"/>
</a>
</g>
</g>
<!-- Node10 -->
<g id="Node000010" class="node">
<title>Node10</title>
<g id="a_Node000010"><a xlink:title=" ">
<polygon fill="#e0e0e0" stroke="#999999" points="339.27,-82 183.02,-82 183.02,-62 339.27,-62 339.27,-82"/>
<text xml:space="preserve" text-anchor="middle" x="261.15" y="-68.5" font-family="Helvetica,sans-Serif" font-size="10.00">IrradianceScheduler.generated.h</text>
</a>
</g>
</g>
<!-- Node2&#45;&gt;Node10 -->
<g id="edge11_Node000002_Node000010" class="edge">
<title>Node2&#45;&gt;Node10</title>
<g id="a_edge11_Node000002_Node000010"><a xlink:title=" ">
<path fill="none" stroke="#63b8ff" d="M434.96,-123.62C399.84,-113.4 343.43,-96.97 304.44,-85.61"/>
<polygon fill="#63b8ff" stroke="#63b8ff" points="305.48,-82.27 294.9,-82.83 303.52,-88.99 305.48,-82.27"/>
</a>
</g>
</g>
<!-- Node6&#45;&gt;Node3 -->
<g id="edge6_Node000006_Node000003" class="edge">
<title>Node6&#45;&gt;Node3</title>
<g id="a_edge6_Node000006_Node000003"><a xlink:title=" ">
<path fill="none" stroke="#63b8ff" d="M139.31,-61.53C150.7,-59.5 162.83,-57.52 174.15,-56 262.17,-44.2 523.19,-23.47 634.23,-14.89"/>
<polygon fill="#63b8ff" stroke="#63b8ff" points="634.23,-18.4 643.93,-14.14 633.69,-11.42 634.23,-18.4"/>
</a>
</g>
</g>
<!-- Node7 -->
<g id="Node000007" class="node">
<title>Node7</title>
<g id="a_Node000007"><a xlink:title=" ">
<polygon fill="#e0e0e0" stroke="#999999" points="163.27,-20 19.02,-20 19.02,0 163.27,0 163.27,-20"/>
<text xml:space="preserve" text-anchor="middle" x="91.15" y="-6.5" font-family="Helvetica,sans-Serif" font-size="10.00">SimulationConfig.generated.h</text>
</a>
</g>
</g>
<!-- Node6&#45;&gt;Node7 -->
<g id="edge7_Node000006_Node000007" class="edge">
<title>Node6&#45;&gt;Node7</title>
<g id="a_edge7_Node000006_Node000007"><a xlink:title=" ">
<path fill="none" stroke="#63b8ff" d="M91.15,-61.62C91.15,-53.56 91.15,-41.65 91.15,-31.41"/>
<polygon fill="#63b8ff" stroke="#63b8ff" points="94.65,-31.63 91.15,-21.63 87.65,-31.63 94.65,-31.63"/>
</a>
</g>
</g>
<!-- Node8&#45;&gt;Node3 -->
<g id="edge9_Node000008_Node000003" class="edge">
<title>Node8&#45;&gt;Node3</title>
<g id="a_edge9_Node000008_Node000003"><a xlink:title=" ">
<path fill="none" stroke="#63b8ff" d="M501.21,-61.62C538.61,-51.33 598.84,-34.75 640.12,-23.39"/>
<polygon fill="#63b8ff" stroke="#63b8ff" points="640.79,-26.84 649.5,-20.81 638.93,-20.09 640.79,-26.84"/>
</a>
</g>
</g>
<!-- Node9 -->
<g id="Node000009" class="node">
<title>Node9</title>
<g id="a_Node000009"><a xlink:title=" ">
<polygon fill="#e0e0e0" stroke="#999999" points="537.77,-20 396.52,-20 396.52,0 537.77,0 537.77,-20"/>
<text xml:space="preserve" text-anchor="middle" x="467.15" y="-6.5" font-family="Helvetica,sans-Serif" font-size="10.00">CaptureRequest.generated.h</text>
</a>
</g>
</g>
<!-- Node8&#45;&gt;Node9 -->
<g id="edge10_Node000008_Node000009" class="edge">
<title>Node8&#45;&gt;Node9</title>
<g id="a_edge10_Node000008_Node000009"><a xlink:title=" ">
<path fill="none" stroke="#63b8ff" d="M467.15,-61.62C467.15,-53.56 467.15,-41.65 467.15,-31.41"/>
<polygon fill="#63b8ff" stroke="#63b8ff" points="470.65,-31.63 467.15,-21.63 463.65,-31.63 470.65,-31.63"/>
</a>
</g>
</g>
<!-- Node12&#45;&gt;Node3 -->
<g id="edge14_Node000012_Node000003" class="edge">
<title>Node12&#45;&gt;Node3</title>
<g id="a_edge14_Node000012_Node000003"><a xlink:title=" ">
<path fill="none" stroke="#63b8ff" d="M977.53,-127.25C877.27,-119.86 724.24,-105.86 704.15,-88 688.41,-74.02 684.69,-49.27 684.25,-31.61"/>
<polygon fill="#63b8ff" stroke="#63b8ff" points="687.75,-31.8 684.37,-21.76 680.75,-31.72 687.75,-31.8"/>
</a>
</g>
</g>
<!-- Node12&#45;&gt;Node4 -->
<g id="edge16_Node000012_Node000004" class="edge">
<title>Node12&#45;&gt;Node4</title>
<g id="a_edge16_Node000012_Node000004"><a xlink:title=" ">
<path fill="none" stroke="#63b8ff" d="M977.69,-124.66C897.71,-116.64 776.21,-103.48 671.15,-88 657.7,-86.02 643.09,-83.5 629.94,-81.1"/>
<polygon fill="#63b8ff" stroke="#63b8ff" points="630.77,-77.7 620.3,-79.31 629.49,-84.58 630.77,-77.7"/>
</a>
</g>
</g>
<!-- Node12&#45;&gt;Node5 -->
<g id="edge15_Node000012_Node000005" class="edge">
<title>Node12&#45;&gt;Node5</title>
<g id="a_edge15_Node000012_Node000005"><a xlink:title=" ">
<path fill="none" stroke="#63b8ff" d="M1065.15,-123.62C1065.15,-115.56 1065.15,-103.65 1065.15,-93.41"/>
<polygon fill="#63b8ff" stroke="#63b8ff" points="1068.65,-93.63 1065.15,-83.63 1061.65,-93.63 1068.65,-93.63"/>
</a>
</g>
</g>
<!-- Node12&#45;&gt;Node8 -->
<g id="edge29_Node000012_Node000008" class="edge">
<title>Node12&#45;&gt;Node8</title>
<g id="a_edge29_Node000012_Node000008"><a xlink:title=" ">
<path fill="none" stroke="#63b8ff" d="M977.68,-127.89C874.82,-121.29 699.09,-108.21 549.15,-88 541.63,-86.99 533.75,-85.76 525.98,-84.45"/>
<polygon fill="#63b8ff" stroke="#63b8ff" points="526.67,-81.02 516.21,-82.74 525.46,-87.91 526.67,-81.02"/>
</a>
</g>
</g>
<!-- Node13 -->
<g id="Node000013" class="node">
<title>Node13</title>
<g id="a_Node000013"><a xlink:title=" ">
<polygon fill="#e0e0e0" stroke="#999999" points="821.27,-82 713.02,-82 713.02,-62 821.27,-62 821.27,-82"/>
<text xml:space="preserve" text-anchor="middle" x="767.15" y="-68.5" font-family="Helvetica,sans-Serif" font-size="10.00">RHIGPUReadback.h</text>
</a>
</g>
</g>
<!-- Node12&#45;&gt;Node13 -->
<g id="edge17_Node000012_Node000013" class="edge">
<title>Node12&#45;&gt;Node13</title>
<g id="a_edge17_Node000012_Node000013"><a xlink:title=" ">
<path fill="none" stroke="#63b8ff" d="M1012.28,-123.57C964.56,-114.9 892.49,-101.38 830.15,-88 825.82,-87.07 821.33,-86.07 816.84,-85.05"/>
<polygon fill="#63b8ff" stroke="#63b8ff" points="817.74,-81.67 807.21,-82.82 816.16,-88.48 817.74,-81.67"/>
</a>
</g>
</g>
<!-- Node14 -->
<g id="Node000014" class="node">
<title>Node14</title>
<g id="a_Node000014"><a xlink:title=" ">
<polygon fill="#e0e0e0" stroke="#999999" points="968.77,-82 839.52,-82 839.52,-62 968.77,-62 968.77,-82"/>
<text xml:space="preserve" text-anchor="middle" x="904.15" y="-68.5" font-family="Helvetica,sans-Serif" font-size="10.00">RenderGraphResources.h</text>
</a>
</g>
</g>
<!-- Node12&#45;&gt;Node14 -->
<g id="edge18_Node000012_Node000014" class="edge">
<title>Node12&#45;&gt;Node14</title>
<g id="a_edge18_Node000012_Node000014"><a xlink:title=" ">
<path fill="none" stroke="#63b8ff" d="M1039.99,-123.62C1013.13,-113.62 970.34,-97.67 939.97,-86.35"/>
<polygon fill="#63b8ff" stroke="#63b8ff" points="941.4,-83.15 930.81,-82.94 938.96,-89.71 941.4,-83.15"/>
</a>
</g>
</g>
<!-- Node15 -->
<g id="Node000015" class="node">
<title>Node15</title>
<g id="a_Node000015"><a xlink:href="_irradiance_view_extension_8h.html" target="_top" xlink:title=" ">
<polygon fill="white" stroke="#666666" points="1505.27,-88 1379.02,-88 1379.02,-56 1505.27,-56 1505.27,-88"/>
<text xml:space="preserve" text-anchor="start" x="1387.02" y="-74.5" font-family="Helvetica,sans-Serif" font-size="10.00">Irradiance/IrradianceView</text>
<text xml:space="preserve" text-anchor="middle" x="1442.15" y="-62.5" font-family="Helvetica,sans-Serif" font-size="10.00">Extension.h</text>
</a>
</g>
</g>
<!-- Node12&#45;&gt;Node15 -->
<g id="edge19_Node000012_Node000015" class="edge">
<title>Node12&#45;&gt;Node15</title>
<g id="a_edge19_Node000012_Node000015"><a xlink:title=" ">
<path fill="none" stroke="#63b8ff" d="M1124.47,-123.56C1190.21,-113.1 1296.34,-96.21 1367.64,-84.86"/>
<polygon fill="#63b8ff" stroke="#63b8ff" points="1367.95,-88.35 1377.27,-83.32 1366.85,-81.44 1367.95,-88.35"/>
</a>
</g>
</g>
<!-- Node17 -->
<g id="Node000017" class="node">
<title>Node17</title>
<g id="a_Node000017"><a xlink:href="_irradiance_exporter_8h.html" target="_top" xlink:title=" ">
<polygon fill="white" stroke="#666666" points="1672.9,-82 1523.4,-82 1523.4,-62 1672.9,-62 1672.9,-82"/>
<text xml:space="preserve" text-anchor="middle" x="1598.15" y="-68.5" font-family="Helvetica,sans-Serif" font-size="10.00">Irradiance/IrradianceExporter.h</text>
</a>
</g>
</g>
<!-- Node12&#45;&gt;Node17 -->
<g id="edge22_Node000012_Node000017" class="edge">
<title>Node12&#45;&gt;Node17</title>
<g id="a_edge22_Node000012_Node000017"><a xlink:title=" ">
<path fill="none" stroke="#63b8ff" d="M1152.72,-126.23C1243.39,-118.75 1389.03,-105.42 1514.15,-88 1521.83,-86.93 1529.88,-85.67 1537.82,-84.35"/>
<polygon fill="#63b8ff" stroke="#63b8ff" points="1538.19,-87.83 1547.45,-82.69 1537,-80.94 1538.19,-87.83"/>
</a>
</g>
</g>
<!-- Node12&#45;&gt;Node19 -->
<g id="edge25_Node000012_Node000019" class="edge">
<title>Node12&#45;&gt;Node19</title>
<g id="a_edge25_Node000012_Node000019"><a xlink:title=" ">
<path fill="none" stroke="#63b8ff" d="M1152.61,-128.06C1297.8,-119.61 1582.43,-101.96 1682.15,-88 1688.71,-87.08 1695.57,-85.92 1702.33,-84.65"/>
<polygon fill="#63b8ff" stroke="#63b8ff" points="1702.95,-88.1 1712.08,-82.73 1701.59,-81.23 1702.95,-88.1"/>
</a>
</g>
</g>
<!-- Node22 -->
<g id="Node000022" class="node">
<title>Node22</title>
<g id="a_Node000022"><a xlink:title=" ">
<polygon fill="#e0e0e0" stroke="#999999" points="1323.27,-82 1161.02,-82 1161.02,-62 1323.27,-62 1323.27,-82"/>
<text xml:space="preserve" text-anchor="middle" x="1242.15" y="-68.5" font-family="Helvetica,sans-Serif" font-size="10.00">IrradianceSubsystem.generated.h</text>
</a>
</g>
</g>
<!-- Node12&#45;&gt;Node22 -->
<g id="edge30_Node000012_Node000022" class="edge">
<title>Node12&#45;&gt;Node22</title>
<g id="a_edge30_Node000012_Node000022"><a xlink:title=" ">
<path fill="none" stroke="#63b8ff" d="M1092.8,-123.62C1122.59,-113.53 1170.2,-97.39 1203.64,-86.05"/>
<polygon fill="#63b8ff" stroke="#63b8ff" points="1204.61,-89.42 1212.96,-82.89 1202.36,-82.79 1204.61,-89.42"/>
</a>
</g>
</g>
<!-- Node15&#45;&gt;Node3 -->
<g id="edge20_Node000015_Node000003" class="edge">
<title>Node15&#45;&gt;Node3</title>
<g id="a_edge20_Node000015_Node000003"><a xlink:title=" ">
<path fill="none" stroke="#63b8ff" d="M1378.8,-58C1374.19,-57.26 1369.6,-56.58 1365.15,-56 1131.43,-25.63 849.71,-15.27 736.2,-12.18"/>
<polygon fill="#63b8ff" stroke="#63b8ff" points="736.39,-8.68 726.3,-11.91 736.21,-15.68 736.39,-8.68"/>
</a>
</g>
</g>
<!-- Node16 -->
<g id="Node000016" class="node">
<title>Node16</title>
<g id="a_Node000016"><a xlink:title=" ">
<polygon fill="#e0e0e0" stroke="#999999" points="1491.77,-20 1374.52,-20 1374.52,0 1491.77,0 1491.77,-20"/>
<text xml:space="preserve" text-anchor="middle" x="1433.15" y="-6.5" font-family="Helvetica,sans-Serif" font-size="10.00">SceneViewExtension.h</text>
</a>
</g>
</g>
<!-- Node15&#45;&gt;Node16 -->
<g id="edge21_Node000015_Node000016" class="edge">
<title>Node15&#45;&gt;Node16</title>
<g id="a_edge21_Node000015_Node000016"><a xlink:title=" ">
<path fill="none" stroke="#63b8ff" d="M1439.83,-55.55C1438.73,-48.26 1437.41,-39.45 1436.24,-31.6"/>
<polygon fill="#63b8ff" stroke="#63b8ff" points="1439.73,-31.27 1434.78,-21.9 1432.8,-32.31 1439.73,-31.27"/>
</a>
</g>
</g>
<!-- Node17&#45;&gt;Node3 -->
<g id="edge23_Node000017_Node000003" class="edge">
<title>Node17&#45;&gt;Node3</title>
<g id="a_edge23_Node000017_Node000003"><a xlink:title=" ">
<path fill="none" stroke="#63b8ff" d="M1551.2,-61.57C1539.17,-59.44 1526.21,-57.4 1514.15,-56 1220.9,-21.99 866.23,-13.59 736.14,-11.6"/>
<polygon fill="#63b8ff" stroke="#63b8ff" points="736.55,-8.1 726.5,-11.46 736.44,-15.1 736.55,-8.1"/>
</a>
</g>
</g>
<!-- Node18 -->
<g id="Node000018" class="node">
<title>Node18</title>
<g id="a_Node000018"><a xlink:title=" ">
<polygon fill="#e0e0e0" stroke="#999999" points="1658.9,-20 1509.4,-20 1509.4,0 1658.9,0 1658.9,-20"/>
<text xml:space="preserve" text-anchor="middle" x="1584.15" y="-6.5" font-family="Helvetica,sans-Serif" font-size="10.00">IrradianceExporter.generated.h</text>
</a>
</g>
</g>
<!-- Node17&#45;&gt;Node18 -->
<g id="edge24_Node000017_Node000018" class="edge">
<title>Node17&#45;&gt;Node18</title>
<g id="a_edge24_Node000017_Node000018"><a xlink:title=" ">
<path fill="none" stroke="#63b8ff" d="M1595.96,-61.62C1594.06,-53.48 1591.24,-41.39 1588.83,-31.07"/>
<polygon fill="#63b8ff" stroke="#63b8ff" points="1592.3,-30.53 1586.62,-21.59 1585.48,-32.12 1592.3,-30.53"/>
</a>
</g>
</g>
<!-- Node19&#45;&gt;Node3 -->
<g id="edge26_Node000019_Node000003" class="edge">
<title>Node19&#45;&gt;Node3</title>
<g id="a_edge26_Node000019_Node000003"><a xlink:title=" ">
<path fill="none" stroke="#63b8ff" d="M1714.35,-61.52C1703.93,-59.37 1692.66,-57.32 1682.15,-56 1321.87,-10.64 883.3,-9.39 736.07,-10.43"/>
<polygon fill="#63b8ff" stroke="#63b8ff" points="736.25,-6.93 726.28,-10.5 736.3,-13.93 736.25,-6.93"/>
</a>
</g>
</g>
<!-- Node20 -->
<g id="Node000020" class="node">
<title>Node20</title>
<g id="a_Node000020"><a xlink:title=" ">
<polygon fill="#e0e0e0" stroke="#999999" points="1959.02,-20 1867.27,-20 1867.27,0 1959.02,0 1959.02,-20"/>
<text xml:space="preserve" text-anchor="middle" x="1913.15" y="-6.5" font-family="Helvetica,sans-Serif" font-size="10.00">UObject/Object.h</text>
</a>
</g>
</g>
<!-- Node19&#45;&gt;Node20 -->
<g id="edge27_Node000019_Node000020" class="edge">
<title>Node19&#45;&gt;Node20</title>
<g id="a_edge27_Node000019_Node000020"><a xlink:title=" ">
<path fill="none" stroke="#63b8ff" d="M1778.99,-61.62C1805.52,-51.62 1847.78,-35.67 1877.77,-24.35"/>
<polygon fill="#63b8ff" stroke="#63b8ff" points="1878.68,-27.75 1886.8,-20.94 1876.21,-21.2 1878.68,-27.75"/>
</a>
</g>
</g>
<!-- Node21 -->
<g id="Node000021" class="node">
<title>Node21</title>
<g id="a_Node000021"><a xlink:title=" ">
<polygon fill="#e0e0e0" stroke="#999999" points="1849.15,-20 1677.15,-20 1677.15,0 1849.15,0 1849.15,-20"/>
<text xml:space="preserve" text-anchor="middle" x="1763.15" y="-6.5" font-family="Helvetica,sans-Serif" font-size="10.00">IneichenPerezClearSky.generated.h</text>
</a>
</g>
</g>
<!-- Node19&#45;&gt;Node21 -->
<g id="edge28_Node000019_Node000021" class="edge">
<title>Node19&#45;&gt;Node21</title>
<g id="a_edge28_Node000019_Node000021"><a xlink:title=" ">
<path fill="none" stroke="#63b8ff" d="M1755.55,-61.62C1756.76,-53.56 1758.55,-41.65 1760.08,-31.41"/>
<polygon fill="#63b8ff" stroke="#63b8ff" points="1763.53,-32.02 1761.55,-21.61 1756.61,-30.98 1763.53,-32.02"/>
</a>
</g>
</g>
<!-- Node23&#45;&gt;Node3 -->
<g id="edge32_Node000023_Node000003" class="edge">
<title>Node23&#45;&gt;Node3</title>
<g id="a_edge32_Node000023_Node000003"><a xlink:title=" ">
<path fill="none" stroke="#63b8ff" d="M2142.06,-123.57C2143.1,-106.9 2142.49,-72.45 2122.15,-56 2094.65,-33.76 989.43,-15.63 736.39,-11.76"/>
<polygon fill="#63b8ff" stroke="#63b8ff" points="736.56,-8.26 726.5,-11.61 736.45,-15.26 736.56,-8.26"/>
</a>
</g>
</g>
<!-- Node24 -->
<g id="Node000024" class="node">
<title>Node24</title>
<g id="a_Node000024"><a xlink:title=" ">
<polygon fill="#e0e0e0" stroke="#999999" points="2329.52,-82 2168.77,-82 2168.77,-62 2329.52,-62 2329.52,-82"/>
<text xml:space="preserve" text-anchor="middle" x="2249.15" y="-68.5" font-family="Helvetica,sans-Serif" font-size="10.00">Components/SceneComponent.h</text>
</a>
</g>
</g>
<!-- Node23&#45;&gt;Node24 -->
<g id="edge33_Node000023_Node000024" class="edge">
<title>Node23&#45;&gt;Node24</title>
<g id="a_edge33_Node000023_Node000024"><a xlink:title=" ">
<path fill="none" stroke="#63b8ff" d="M2158.02,-123.62C2175.3,-114.03 2202.4,-98.97 2222.57,-87.77"/>
<polygon fill="#63b8ff" stroke="#63b8ff" points="2224.02,-90.96 2231.07,-83.04 2220.63,-84.84 2224.02,-90.96"/>
</a>
</g>
</g>
<!-- Node25 -->
<g id="Node000025" class="node">
<title>Node25</title>
<g id="a_Node000025"><a xlink:title=" ">
<polygon fill="#e0e0e0" stroke="#999999" points="2523.02,-82 2347.27,-82 2347.27,-62 2523.02,-62 2523.02,-82"/>
<text xml:space="preserve" text-anchor="middle" x="2435.15" y="-68.5" font-family="Helvetica,sans-Serif" font-size="10.00">PyranometerComponent.generated.h</text>
</a>
</g>
</g>
<!-- Node23&#45;&gt;Node25 -->
<g id="edge34_Node000023_Node000025" class="edge">
<title>Node23&#45;&gt;Node25</title>
<g id="a_edge34_Node000023_Node000025"><a xlink:title=" ">
<path fill="none" stroke="#63b8ff" d="M2187.41,-123.56C2238.84,-113.06 2321.99,-96.09 2377.59,-84.75"/>
<polygon fill="#63b8ff" stroke="#63b8ff" points="2378.09,-88.22 2387.19,-82.79 2376.69,-81.36 2378.09,-88.22"/>
</a>
</g>
</g>
<!-- Node26&#45;&gt;Node3 -->
<g id="edge37_Node000026_Node000003" class="edge">
<title>Node26&#45;&gt;Node3</title>
<g id="a_edge37_Node000026_Node000003"><a xlink:title=" ">
<path fill="none" stroke="#63b8ff" d="M93.95,-123.56C44.37,-111.66 -22.48,-88.73 8.15,-56 8.82,-55.28 476.7,-24.63 634.14,-14.33"/>
<polygon fill="#63b8ff" stroke="#63b8ff" points="634.11,-17.84 643.86,-13.7 633.65,-10.86 634.11,-17.84"/>
</a>
</g>
</g>
<!-- Node27&#45;&gt;Node3 -->
<g id="edge39_Node000027_Node000003" class="edge">
<title>Node27&#45;&gt;Node3</title>
<g id="a_edge39_Node000027_Node000003"><a xlink:title=" ">
<path fill="none" stroke="#63b8ff" d="M1352,-123.64C1352.94,-107.1 1352.17,-72.84 1332.15,-56 1286.94,-17.99 881.22,-12.06 736.3,-11.15"/>
<polygon fill="#63b8ff" stroke="#63b8ff" points="736.65,-7.66 726.63,-11.1 736.61,-14.66 736.65,-7.66"/>
</a>
</g>
</g>
<!-- Node27&#45;&gt;Node5 -->
<g id="edge40_Node000027_Node000005" class="edge">
<title>Node27&#45;&gt;Node5</title>
<g id="a_edge40_Node000027_Node000005"><a xlink:title=" ">
<path fill="none" stroke="#63b8ff" d="M1306.14,-123.56C1256.21,-113.08 1175.56,-96.16 1121.48,-84.82"/>
<polygon fill="#63b8ff" stroke="#63b8ff" points="1122.34,-81.42 1111.84,-82.8 1120.91,-88.27 1122.34,-81.42"/>
</a>
</g>
</g>
<!-- Node28 -->
<g id="Node000028" class="node">
<title>Node28</title>
<g id="a_Node000028"><a xlink:title=" ">
<polygon fill="#e0e0e0" stroke="#999999" points="1948.52,-82 1835.77,-82 1835.77,-62 1948.52,-62 1948.52,-82"/>
<text xml:space="preserve" text-anchor="middle" x="1892.15" y="-68.5" font-family="Helvetica,sans-Serif" font-size="10.00">UObject/UnrealType.h</text>
</a>
</g>
</g>
<!-- Node27&#45;&gt;Node28 -->
<g id="edge41_Node000027_Node000028" class="edge">
<title>Node27&#45;&gt;Node28</title>
<g id="a_edge41_Node000027_Node000028"><a xlink:title=" ">
<path fill="none" stroke="#63b8ff" d="M1430.54,-128.62C1525.19,-122.67 1687.92,-110.16 1826.15,-88 1831.73,-87.1 1837.55,-86.02 1843.32,-84.84"/>
<polygon fill="#63b8ff" stroke="#63b8ff" points="1843.74,-88.33 1852.79,-82.81 1842.28,-81.48 1843.74,-88.33"/>
</a>
</g>
</g>
<!-- Node29 -->
<g id="Node000029" class="node">
<title>Node29</title>
<g id="a_Node000029"><a xlink:title=" ">
<polygon fill="#e0e0e0" stroke="#999999" points="2113.4,-82 1966.9,-82 1966.9,-62 2113.4,-62 2113.4,-82"/>
<text xml:space="preserve" text-anchor="middle" x="2040.15" y="-68.5" font-family="Helvetica,sans-Serif" font-size="10.00">SunSkyController.generated.h</text>
</a>
</g>
</g>
<!-- Node27&#45;&gt;Node29 -->
<g id="edge42_Node000027_Node000029" class="edge">
<title>Node27&#45;&gt;Node29</title>
<g id="a_edge42_Node000027_Node000029"><a xlink:title=" ">
<path fill="none" stroke="#63b8ff" d="M1430.82,-129.74C1546.94,-124.4 1769.29,-111.88 1957.15,-88 1965.14,-86.98 1973.52,-85.71 1981.77,-84.34"/>
<polygon fill="#63b8ff" stroke="#63b8ff" points="1982.12,-87.83 1991.38,-82.68 1980.93,-80.93 1982.12,-87.83"/>
</a>
</g>
</g>
<!-- Node30&#45;&gt;Node3 -->
<g id="edge44_Node000030_Node000003" class="edge">
<title>Node30&#45;&gt;Node3</title>
<g id="a_edge44_Node000030_Node000003"><a xlink:title=" ">
<path fill="none" stroke="#63b8ff" d="M724.13,-123.58C704.13,-117.09 683.06,-106.21 671.15,-88 659.9,-70.82 666.81,-47.09 674.36,-30.53"/>
<polygon fill="#63b8ff" stroke="#63b8ff" points="677.42,-32.24 678.79,-21.73 671.17,-29.09 677.42,-32.24"/>
</a>
</g>
</g>
</g>
</svg>
