<?xml version="1.0" encoding="UTF-8" standalone="no"?>
<!DOCTYPE svg PUBLIC "-//W3C//DTD SVG 1.1//EN"
 "http://www.w3.org/Graphics/SVG/1.1/DTD/svg11.dtd">
<!-- Generated by graphviz version 14.1.0 (20251206.1807)
 -->
<!-- Title: Source/Pyrano/Private/Logging/IrradianceLog.cpp Pages: 1 -->
<svg width="330pt" height="152pt"
 viewBox="0.00 0.00 330.00 152.00" xmlns="http://www.w3.org/2000/svg" xmlns:xlink="http://www.w3.org/1999/xlink">
<g id="graph0" class="graph" transform="scale(1 1) rotate(0) translate(4 148)">
<title>Source/Pyrano/Private/Logging/IrradianceLog.cpp</title>
<!-- Node1 -->
<g id="Node000001" class="node">
<title>Node1</title>
<g id="a_Node000001"><a xlink:title=" ">
<polygon fill="#999999" stroke="#666666" points="241.25,-144 108.25,-144 108.25,-112 241.25,-112 241.25,-144"/>
<text xml:space="preserve" text-anchor="start" x="116.25" y="-130.5" font-family="Helvetica,sans-Serif" font-size="10.00">Source/Pyrano/Private</text>
<text xml:space="preserve" text-anchor="middle" x="174.75" y="-118.5" font-family="Helvetica,sans-Serif" font-size="10.00">/Logging/IrradianceLog.cpp</text>
</a>
</g>
</g>
<!-- Node2 -->
<g id="Node000002" class="node">
<title>Node2</title>
<g id="a_Node000002"><a xlink:href="_irradiance_log_8h.html" target="_top" xlink:title=" ">
<polygon fill="white" stroke="#666666" points="119.5,-76 0,-76 0,-56 119.5,-56 119.5,-76"/>
<text xml:space="preserve" text-anchor="middle" x="59.75" y="-62.5" font-family="Helvetica,sans-Serif" font-size="10.00">Logging/IrradianceLog.h</text>
</a>
</g>
</g>
<!-- Node1&#45;&gt;Node2 -->
<g id="edge1_Node000001_Node000002" class="edge">
<title>Node1&#45;&gt;Node2</title>
<g id="a_edge1_Node000001_Node000002"><a xlink:title=" ">
<path fill="none" stroke="#63b8ff" d="M145.13,-111.55C127.5,-102.35 105.25,-90.74 87.88,-81.68"/>
<polygon fill="#63b8ff" stroke="#63b8ff" points="89.61,-78.63 79.12,-77.11 86.37,-84.84 89.61,-78.63"/>
</a>
</g>
</g>
<!-- Node4 -->
<g id="Node000004" class="node">
<title>Node4</title>
<g id="a_Node000004"><a xlink:title=" ">
<polygon fill="#e0e0e0" stroke="#999999" points="211.62,-76 137.88,-76 137.88,-56 211.62,-56 211.62,-76"/>
<text xml:space="preserve" text-anchor="middle" x="174.75" y="-62.5" font-family="Helvetica,sans-Serif" font-size="10.00">Misc/Paths.h</text>
</a>
</g>
</g>
<!-- Node1&#45;&gt;Node4 -->
<g id="edge3_Node000001_Node000004" class="edge">
<title>Node1&#45;&gt;Node4</title>
<g id="a_edge3_Node000001_Node000004"><a xlink:title=" ">
<path fill="none" stroke="#63b8ff" d="M174.75,-111.55C174.75,-104.34 174.75,-95.66 174.75,-87.88"/>
<polygon fill="#63b8ff" stroke="#63b8ff" points="178.25,-87.92 174.75,-77.92 171.25,-87.92 178.25,-87.92"/>
</a>
</g>
</g>
<!-- Node5 -->
<g id="Node000005" class="node">
<title>Node5</title>
<g id="a_Node000005"><a xlink:title=" ">
<polygon fill="#e0e0e0" stroke="#999999" points="322,-76 229.5,-76 229.5,-56 322,-56 322,-76"/>
<text xml:space="preserve" text-anchor="middle" x="275.75" y="-62.5" font-family="Helvetica,sans-Serif" font-size="10.00">Misc/FileHelper.h</text>
</a>
</g>
</g>
<!-- Node1&#45;&gt;Node5 -->
<g id="edge4_Node000001_Node000005" class="edge">
<title>Node1&#45;&gt;Node5</title>
<g id="a_edge4_Node000001_Node000005"><a xlink:title=" ">
<path fill="none" stroke="#63b8ff" d="M200.76,-111.55C215.96,-102.52 235.06,-91.17 250.18,-82.19"/>
<polygon fill="#63b8ff" stroke="#63b8ff" points="251.8,-85.3 258.61,-77.18 248.23,-79.28 251.8,-85.3"/>
</a>
</g>
</g>
<!-- Node3 -->
<g id="Node000003" class="node">
<title>Node3</title>
<g id="a_Node000003"><a xlink:title=" ">
<polygon fill="#e0e0e0" stroke="#999999" points="99.25,-20 20.25,-20 20.25,0 99.25,0 99.25,-20"/>
<text xml:space="preserve" text-anchor="middle" x="59.75" y="-6.5" font-family="Helvetica,sans-Serif" font-size="10.00">CoreMinimal.h</text>
</a>
</g>
</g>
<!-- Node2&#45;&gt;Node3 -->
<g id="edge2_Node000002_Node000003" class="edge">
<title>Node2&#45;&gt;Node3</title>
<g id="a_edge2_Node000002_Node000003"><a xlink:title=" ">
<path fill="none" stroke="#63b8ff" d="M59.75,-55.59C59.75,-49.01 59.75,-39.96 59.75,-31.73"/>
<polygon fill="#63b8ff" stroke="#63b8ff" points="63.25,-31.81 59.75,-21.81 56.25,-31.81 63.25,-31.81"/>
</a>
</g>
</g>
</g>
</svg>
