<?xml version="1.0" encoding="UTF-8" standalone="no"?>
<!DOCTYPE svg PUBLIC "-//W3C//DTD SVG 1.1//EN"
 "http://www.w3.org/Graphics/SVG/1.1/DTD/svg11.dtd">
<!-- Generated by graphviz version 14.1.0 (20251206.1807)
 -->
<!-- Title: Source/Pyrano/Private/Irradiance/IrradianceIntegrateCS.h Pages: 1 -->
<svg width="360pt" height="120pt"
 viewBox="0.00 0.00 360.00 120.00" xmlns="http://www.w3.org/2000/svg" xmlns:xlink="http://www.w3.org/1999/xlink">
<g id="graph0" class="graph" transform="scale(1 1) rotate(0) translate(4 116)">
<title>Source/Pyrano/Private/Irradiance/IrradianceIntegrateCS.h</title>
<!-- Node1 -->
<g id="Node000001" class="node">
<title>Node1</title>
<g id="a_Node000001"><a xlink:title=" ">
<polygon fill="#999999" stroke="#666666" points="249,-112 80.75,-112 80.75,-80 249,-80 249,-112"/>
<text xml:space="preserve" text-anchor="start" x="88.75" y="-98.5" font-family="Helvetica,sans-Serif" font-size="10.00">Source/Pyrano/Private</text>
<text xml:space="preserve" text-anchor="middle" x="164.88" y="-86.5" font-family="Helvetica,sans-Serif" font-size="10.00">/Irradiance/IrradianceIntegrateCS.h</text>
</a>
</g>
</g>
<!-- Node2 -->
<g id="Node000002" class="node">
<title>Node2</title>
<g id="a_Node000002"><a xlink:href="_irradiance_integrate_c_s_8cpp.html" target="_top" xlink:title=" ">
<polygon fill="white" stroke="#666666" points="145.75,-44 0,-44 0,0 145.75,0 145.75,-44"/>
<text xml:space="preserve" text-anchor="start" x="8" y="-30.5" font-family="Helvetica,sans-Serif" font-size="10.00">Source/Pyrano/Private</text>
<text xml:space="preserve" text-anchor="start" x="8" y="-18.5" font-family="Helvetica,sans-Serif" font-size="10.00">/Irradiance/IrradianceIntegrate</text>
<text xml:space="preserve" text-anchor="middle" x="72.88" y="-6.5" font-family="Helvetica,sans-Serif" font-size="10.00">CS.cpp</text>
</a>
</g>
</g>
<!-- Node1&#45;&gt;Node2 -->
<g id="edge1_Node000001_Node000002" class="edge">
<title>Node1&#45;&gt;Node2</title>
<g id="a_edge1_Node000001_Node000002"><a xlink:title=" ">
<path fill="none" stroke="#63b8ff" d="M136.5,-72.79C124.89,-63.71 111.52,-53.24 100.03,-44.26"/>
<polygon fill="#63b8ff" stroke="#63b8ff" points="134.14,-75.39 144.17,-78.8 138.45,-69.88 134.14,-75.39"/>
</a>
</g>
</g>
<!-- Node3 -->
<g id="Node000003" class="node">
<title>Node3</title>
<g id="a_Node000003"><a xlink:href="_irradiance_subsystem_8cpp.html" target="_top" xlink:title=" ">
<polygon fill="white" stroke="#666666" points="351.75,-38 164,-38 164,-6 351.75,-6 351.75,-38"/>
<text xml:space="preserve" text-anchor="start" x="172" y="-24.5" font-family="Helvetica,sans-Serif" font-size="10.00">Source/Pyrano/Private</text>
<text xml:space="preserve" text-anchor="middle" x="257.88" y="-12.5" font-family="Helvetica,sans-Serif" font-size="10.00">/Subsystems/IrradianceSubsystem.cpp</text>
</a>
</g>
</g>
<!-- Node1&#45;&gt;Node3 -->
<g id="edge2_Node000001_Node000003" class="edge">
<title>Node1&#45;&gt;Node3</title>
<g id="a_edge2_Node000001_Node000003"><a xlink:title=" ">
<path fill="none" stroke="#63b8ff" d="M193.57,-72.78C207.92,-61.67 224.94,-48.5 237.86,-38.5"/>
<polygon fill="#63b8ff" stroke="#63b8ff" points="191.56,-69.91 185.79,-78.8 195.84,-75.45 191.56,-69.91"/>
</a>
</g>
</g>
</g>
</svg>
