<?xml version="1.0" encoding="UTF-8" standalone="no"?>
<!DOCTYPE svg PUBLIC "-//W3C//DTD SVG 1.1//EN"
 "http://www.w3.org/Graphics/SVG/1.1/DTD/svg11.dtd">
<!-- Generated by graphviz version 14.1.0 (20251206.1807)
 -->
<!-- Title: BuildFacesArray Pages: 1 -->
<svg width="885pt" height="40pt"
 viewBox="0.00 0.00 885.00 40.00" xmlns="http://www.w3.org/2000/svg" xmlns:xlink="http://www.w3.org/1999/xlink">
<g id="graph0" class="graph" transform="scale(1 1) rotate(0) translate(4 36)">
<title>BuildFacesArray</title>
<!-- Node1 -->
<g id="Node000001" class="node">
<title>Node1</title>
<g id="a_Node000001"><a xlink:title="Creates a 2D texture array from the six cubemap face render targets.">
<polygon fill="#999999" stroke="#666666" points="876.75,-26 788.75,-26 788.75,-6 876.75,-6 876.75,-26"/>
<text xml:space="preserve" text-anchor="middle" x="832.75" y="-12.5" font-family="Helvetica,sans-Serif" font-size="10.00">BuildFacesArray</text>
</a>
</g>
</g>
<!-- Node2 -->
<g id="Node000002" class="node">
<title>Node2</title>
<g id="a_Node000002"><a xlink:href="namespace_irradiance_compute.html#ad8506a4c2588e653b7d1c2aaf4552b14" target="_top" xlink:title=" ">
<polygon fill="white" stroke="#666666" points="752.75,-32 648.25,-32 648.25,0 752.75,0 752.75,-32"/>
<text xml:space="preserve" text-anchor="start" x="656.25" y="-18.5" font-family="Helvetica,sans-Serif" font-size="10.00">IrradianceCompute::</text>
<text xml:space="preserve" text-anchor="middle" x="700.5" y="-6.5" font-family="Helvetica,sans-Serif" font-size="10.00">ComputeIrradiance</text>
</a>
</g>
</g>
<!-- Node1&#45;&gt;Node2 -->
<g id="edge1_Node000001_Node000002" class="edge">
<title>Node1&#45;&gt;Node2</title>
<g id="a_edge1_Node000001_Node000002"><a xlink:title=" ">
<path fill="none" stroke="#63b8ff" d="M776.89,-16C768.91,-16 760.72,-16 752.81,-16"/>
<polygon fill="#63b8ff" stroke="#63b8ff" points="776.87,-19.5 786.87,-16 776.87,-12.5 776.87,-19.5"/>
</a>
</g>
</g>
<!-- Node3 -->
<g id="Node000003" class="node">
<title>Node3</title>
<g id="a_Node000003"><a xlink:href="namespace_irradiance_compute.html#a6fad304599a46b23bcca8438ca2b6f06" target="_top" xlink:title=" ">
<polygon fill="white" stroke="#666666" points="612.25,-32 465,-32 465,0 612.25,0 612.25,-32"/>
<text xml:space="preserve" text-anchor="start" x="473" y="-18.5" font-family="Helvetica,sans-Serif" font-size="10.00">IrradianceCompute::</text>
<text xml:space="preserve" text-anchor="middle" x="538.62" y="-6.5" font-family="Helvetica,sans-Serif" font-size="10.00">ComputeAndExtractIrradiance</text>
</a>
</g>
</g>
<!-- Node2&#45;&gt;Node3 -->
<g id="edge2_Node000002_Node000003" class="edge">
<title>Node2&#45;&gt;Node3</title>
<g id="a_edge2_Node000002_Node000003"><a xlink:title=" ">
<path fill="none" stroke="#63b8ff" d="M636.65,-16C628.74,-16 620.59,-16 612.54,-16"/>
<polygon fill="#63b8ff" stroke="#63b8ff" points="636.52,-19.5 646.52,-16 636.52,-12.5 636.52,-19.5"/>
</a>
</g>
</g>
<!-- Node4 -->
<g id="Node000004" class="node">
<title>Node4</title>
<g id="a_Node000004"><a xlink:href="class_u_irradiance_subsystem.html#a140204594c38cf4c1696276e7e9a4450" target="_top" xlink:title="Dispatch the irradiance compute shader using the captured faces.">
<polygon fill="white" stroke="#666666" points="429,-32 303.5,-32 303.5,0 429,0 429,-32"/>
<text xml:space="preserve" text-anchor="start" x="311.5" y="-18.5" font-family="Helvetica,sans-Serif" font-size="10.00">UIrradianceSubsystem</text>
<text xml:space="preserve" text-anchor="middle" x="366.25" y="-6.5" font-family="Helvetica,sans-Serif" font-size="10.00">::ComputeFinalIrradiance</text>
</a>
</g>
</g>
<!-- Node3&#45;&gt;Node4 -->
<g id="edge3_Node000003_Node000004" class="edge">
<title>Node3&#45;&gt;Node4</title>
<g id="a_edge3_Node000003_Node000004"><a xlink:title=" ">
<path fill="none" stroke="#63b8ff" d="M453.42,-16C445.29,-16 437.15,-16 429.29,-16"/>
<polygon fill="#63b8ff" stroke="#63b8ff" points="453.36,-19.5 463.36,-16 453.36,-12.5 453.36,-19.5"/>
</a>
</g>
</g>
<!-- Node5 -->
<g id="Node000005" class="node">
<title>Node5</title>
<g id="a_Node000005"><a xlink:href="class_u_irradiance_subsystem.html#afec011af7207461bc6c02e2c03e06bc3" target="_top" xlink:title="Handle per&#45;frame logic while faces are being captured.">
<polygon fill="white" stroke="#666666" points="267.5,-32 151.75,-32 151.75,0 267.5,0 267.5,-32"/>
<text xml:space="preserve" text-anchor="start" x="159.75" y="-18.5" font-family="Helvetica,sans-Serif" font-size="10.00">UIrradianceSubsystem</text>
<text xml:space="preserve" text-anchor="middle" x="209.62" y="-6.5" font-family="Helvetica,sans-Serif" font-size="10.00">::TickCapturing</text>
</a>
</g>
</g>
<!-- Node4&#45;&gt;Node5 -->
<g id="edge4_Node000004_Node000005" class="edge">
<title>Node4&#45;&gt;Node5</title>
<g id="a_edge4_Node000004_Node000005"><a xlink:title=" ">
<path fill="none" stroke="#63b8ff" d="M291.83,-16C283.7,-16 275.52,-16 267.63,-16"/>
<polygon fill="#63b8ff" stroke="#63b8ff" points="291.74,-19.5 301.74,-16 291.74,-12.5 291.74,-19.5"/>
</a>
</g>
</g>
<!-- Node6 -->
<g id="Node000006" class="node">
<title>Node6</title>
<g id="a_Node000006"><a xlink:href="class_u_irradiance_subsystem.html#ad3336fe0d04f79cf1c1eb2ecdb226325" target="_top" xlink:title=" ">
<polygon fill="white" stroke="#666666" points="115.75,-32 0,-32 0,0 115.75,0 115.75,-32"/>
<text xml:space="preserve" text-anchor="start" x="8" y="-18.5" font-family="Helvetica,sans-Serif" font-size="10.00">UIrradianceSubsystem</text>
<text xml:space="preserve" text-anchor="middle" x="57.88" y="-6.5" font-family="Helvetica,sans-Serif" font-size="10.00">::Tick</text>
</a>
</g>
</g>
<!-- Node5&#45;&gt;Node6 -->
<g id="edge5_Node000005_Node000006" class="edge">
<title>Node5&#45;&gt;Node6</title>
<g id="a_edge5_Node000005_Node000006"><a xlink:title=" ">
<path fill="none" stroke="#63b8ff" d="M140.16,-16C131.99,-16 123.73,-16 115.76,-16"/>
<polygon fill="#63b8ff" stroke="#63b8ff" points="140.07,-19.5 150.07,-16 140.07,-12.5 140.07,-19.5"/>
</a>
</g>
</g>
</g>
</svg>
