<?xml version="1.0" encoding="UTF-8" standalone="no"?>
<!DOCTYPE svg PUBLIC "-//W3C//DTD SVG 1.1//EN"
 "http://www.w3.org/Graphics/SVG/1.1/DTD/svg11.dtd">
<!-- Generated by graphviz version 14.1.0 (20251206.1807)
 -->
<!-- Title: Source/Pyrano/Private/Irradiance/IrradianceIntegrateCS.h Pages: 1 -->
<svg width="480pt" height="96pt"
 viewBox="0.00 0.00 480.00 96.00" xmlns="http://www.w3.org/2000/svg" xmlns:xlink="http://www.w3.org/1999/xlink">
<g id="graph0" class="graph" transform="scale(1 1) rotate(0) translate(4 92)">
<title>Source/Pyrano/Private/Irradiance/IrradianceIntegrateCS.h</title>
<!-- Node1 -->
<g id="Node000001" class="node">
<title>Node1</title>
<g id="a_Node000001"><a xlink:title=" ">
<polygon fill="#999999" stroke="#666666" points="283.62,-88 115.38,-88 115.38,-56 283.62,-56 283.62,-88"/>
<text xml:space="preserve" text-anchor="start" x="123.38" y="-74.5" font-family="Helvetica,sans-Serif" font-size="10.00">Source/Pyrano/Private</text>
<text xml:space="preserve" text-anchor="middle" x="199.5" y="-62.5" font-family="Helvetica,sans-Serif" font-size="10.00">/Irradiance/IrradianceIntegrateCS.h</text>
</a>
</g>
</g>
<!-- Node2 -->
<g id="Node000002" class="node">
<title>Node2</title>
<g id="a_Node000002"><a xlink:title=" ">
<polygon fill="#e0e0e0" stroke="#999999" points="79,-20 0,-20 0,0 79,0 79,-20"/>
<text xml:space="preserve" text-anchor="middle" x="39.5" y="-6.5" font-family="Helvetica,sans-Serif" font-size="10.00">CoreMinimal.h</text>
</a>
</g>
</g>
<!-- Node1&#45;&gt;Node2 -->
<g id="edge1_Node000001_Node000002" class="edge">
<title>Node1&#45;&gt;Node2</title>
<g id="a_edge1_Node000001_Node000002"><a xlink:title=" ">
<path fill="none" stroke="#63b8ff" d="M158.3,-55.55C132.6,-45.91 99.86,-33.64 75.26,-24.41"/>
<polygon fill="#63b8ff" stroke="#63b8ff" points="76.6,-21.17 66.01,-20.94 74.14,-27.73 76.6,-21.17"/>
</a>
</g>
</g>
<!-- Node3 -->
<g id="Node000003" class="node">
<title>Node3</title>
<g id="a_Node000003"><a xlink:title=" ">
<polygon fill="#e0e0e0" stroke="#999999" points="179.88,-20 97.12,-20 97.12,0 179.88,0 179.88,-20"/>
<text xml:space="preserve" text-anchor="middle" x="138.5" y="-6.5" font-family="Helvetica,sans-Serif" font-size="10.00">GlobalShader.h</text>
</a>
</g>
</g>
<!-- Node1&#45;&gt;Node3 -->
<g id="edge2_Node000001_Node000003" class="edge">
<title>Node1&#45;&gt;Node3</title>
<g id="a_edge2_Node000001_Node000003"><a xlink:title=" ">
<path fill="none" stroke="#63b8ff" d="M183.79,-55.55C175.32,-47.22 164.84,-36.91 156.09,-28.3"/>
<polygon fill="#63b8ff" stroke="#63b8ff" points="158.73,-25.99 149.14,-21.47 153.82,-30.98 158.73,-25.99"/>
</a>
</g>
</g>
<!-- Node4 -->
<g id="Node000004" class="node">
<title>Node4</title>
<g id="a_Node000004"><a xlink:title=" ">
<polygon fill="#e0e0e0" stroke="#999999" points="324.62,-20 198.38,-20 198.38,0 324.62,0 324.62,-20"/>
<text xml:space="preserve" text-anchor="middle" x="261.5" y="-6.5" font-family="Helvetica,sans-Serif" font-size="10.00">ShaderParameterStruct.h</text>
</a>
</g>
</g>
<!-- Node1&#45;&gt;Node4 -->
<g id="edge3_Node000001_Node000004" class="edge">
<title>Node1&#45;&gt;Node4</title>
<g id="a_edge3_Node000001_Node000004"><a xlink:title=" ">
<path fill="none" stroke="#63b8ff" d="M215.47,-55.55C224.08,-47.22 234.73,-36.91 243.62,-28.3"/>
<polygon fill="#63b8ff" stroke="#63b8ff" points="245.94,-30.93 250.69,-21.46 241.07,-25.9 245.94,-30.93"/>
</a>
</g>
</g>
<!-- Node5 -->
<g id="Node000005" class="node">
<title>Node5</title>
<g id="a_Node000005"><a xlink:title=" ">
<polygon fill="#e0e0e0" stroke="#999999" points="472.12,-20 342.88,-20 342.88,0 472.12,0 472.12,-20"/>
<text xml:space="preserve" text-anchor="middle" x="407.5" y="-6.5" font-family="Helvetica,sans-Serif" font-size="10.00">RenderGraphResources.h</text>
</a>
</g>
</g>
<!-- Node1&#45;&gt;Node5 -->
<g id="edge4_Node000001_Node000005" class="edge">
<title>Node1&#45;&gt;Node5</title>
<g id="a_edge4_Node000001_Node000005"><a xlink:title=" ">
<path fill="none" stroke="#63b8ff" d="M253.07,-55.55C287.41,-45.64 331.45,-32.94 363.7,-23.64"/>
<polygon fill="#63b8ff" stroke="#63b8ff" points="364.49,-27.05 373.13,-20.92 362.55,-20.32 364.49,-27.05"/>
</a>
</g>
</g>
</g>
</svg>
