<?xml version="1.0" encoding="UTF-8" standalone="no"?>
<!DOCTYPE svg PUBLIC "-//W3C//DTD SVG 1.1//EN"
 "http://www.w3.org/Graphics/SVG/1.1/DTD/svg11.dtd">
<!-- Generated by graphviz version 14.1.0 (20251206.1807)
 -->
<!-- Title: Source/Pyrano/Public/Logging/IrradianceLog.h Pages: 1 -->
<svg width="1957pt" height="120pt"
 viewBox="0.00 0.00 1957.00 120.00" xmlns="http://www.w3.org/2000/svg" xmlns:xlink="http://www.w3.org/1999/xlink">
<g id="graph0" class="graph" transform="scale(1 1) rotate(0) translate(4 116)">
<title>Source/Pyrano/Public/Logging/IrradianceLog.h</title>
<!-- Node1 -->
<g id="Node000001" class="node">
<title>Node1</title>
<g id="a_Node000001"><a xlink:title=" ">
<polygon fill="#999999" stroke="#666666" points="1050.75,-112 928.25,-112 928.25,-80 1050.75,-80 1050.75,-112"/>
<text xml:space="preserve" text-anchor="start" x="936.25" y="-98.5" font-family="Helvetica,sans-Serif" font-size="10.00">Source/Pyrano/Public</text>
<text xml:space="preserve" text-anchor="middle" x="989.5" y="-86.5" font-family="Helvetica,sans-Serif" font-size="10.00">/Logging/IrradianceLog.h</text>
</a>
</g>
</g>
<!-- Node2 -->
<g id="Node000002" class="node">
<title>Node2</title>
<g id="a_Node000002"><a xlink:href="_irradiance_exporter_8cpp.html" target="_top" xlink:title=" ">
<polygon fill="white" stroke="#666666" points="163,-38 0,-38 0,-6 163,-6 163,-38"/>
<text xml:space="preserve" text-anchor="start" x="8" y="-24.5" font-family="Helvetica,sans-Serif" font-size="10.00">Source/Pyrano/Private</text>
<text xml:space="preserve" text-anchor="middle" x="81.5" y="-12.5" font-family="Helvetica,sans-Serif" font-size="10.00">/Irradiance/IrradianceExporter.cpp</text>
</a>
</g>
</g>
<!-- Node1&#45;&gt;Node2 -->
<g id="edge1_Node000001_Node000002" class="edge">
<title>Node1&#45;&gt;Node2</title>
<g id="a_edge1_Node000001_Node000002"><a xlink:title=" ">
<path fill="none" stroke="#63b8ff" d="M916.58,-94.53C773.13,-92.7 444.44,-84.06 171.5,-44 161.66,-42.56 151.3,-40.58 141.26,-38.41"/>
<polygon fill="#63b8ff" stroke="#63b8ff" points="916.27,-98.02 926.31,-94.64 916.35,-91.02 916.27,-98.02"/>
</a>
</g>
</g>
<!-- Node3 -->
<g id="Node000003" class="node">
<title>Node3</title>
<g id="a_Node000003"><a xlink:href="_irradiance_integrate_c_s_8cpp.html" target="_top" xlink:title=" ">
<polygon fill="white" stroke="#666666" points="326.38,-44 180.62,-44 180.62,0 326.38,0 326.38,-44"/>
<text xml:space="preserve" text-anchor="start" x="188.62" y="-30.5" font-family="Helvetica,sans-Serif" font-size="10.00">Source/Pyrano/Private</text>
<text xml:space="preserve" text-anchor="start" x="188.62" y="-18.5" font-family="Helvetica,sans-Serif" font-size="10.00">/Irradiance/IrradianceIntegrate</text>
<text xml:space="preserve" text-anchor="middle" x="253.5" y="-6.5" font-family="Helvetica,sans-Serif" font-size="10.00">CS.cpp</text>
</a>
</g>
</g>
<!-- Node1&#45;&gt;Node3 -->
<g id="edge2_Node000001_Node000003" class="edge">
<title>Node1&#45;&gt;Node3</title>
<g id="a_edge2_Node000001_Node000003"><a xlink:title=" ">
<path fill="none" stroke="#63b8ff" d="M916.42,-93.42C795.03,-89.87 544.48,-78.64 335.5,-44 332.6,-43.52 329.65,-42.99 326.68,-42.41"/>
<polygon fill="#63b8ff" stroke="#63b8ff" points="916.15,-96.91 926.25,-93.69 916.35,-89.91 916.15,-96.91"/>
</a>
</g>
</g>
<!-- Node4 -->
<g id="Node000004" class="node">
<title>Node4</title>
<g id="a_Node000004"><a xlink:href="_irradiance_view_extension_8cpp.html" target="_top" xlink:title=" ">
<polygon fill="white" stroke="#666666" points="536.25,-38 344.75,-38 344.75,-6 536.25,-6 536.25,-38"/>
<text xml:space="preserve" text-anchor="start" x="352.75" y="-24.5" font-family="Helvetica,sans-Serif" font-size="10.00">Source/Pyrano/Private</text>
<text xml:space="preserve" text-anchor="middle" x="440.5" y="-12.5" font-family="Helvetica,sans-Serif" font-size="10.00">/Irradiance/IrradianceViewExtension.cpp</text>
</a>
</g>
</g>
<!-- Node1&#45;&gt;Node4 -->
<g id="edge3_Node000001_Node000004" class="edge">
<title>Node1&#45;&gt;Node4</title>
<g id="a_edge3_Node000001_Node000004"><a xlink:title=" ">
<path fill="none" stroke="#63b8ff" d="M916.86,-88.59C828.55,-80.36 675.11,-64.63 544.5,-44 534.31,-42.39 523.6,-40.48 513.09,-38.48"/>
<polygon fill="#63b8ff" stroke="#63b8ff" points="916.31,-92.05 926.59,-89.49 916.95,-85.08 916.31,-92.05"/>
</a>
</g>
</g>
<!-- Node5 -->
<g id="Node000005" class="node">
<title>Node5</title>
<g id="a_Node000005"><a xlink:href="_irradiance_log_8cpp.html" target="_top" xlink:title=" ">
<polygon fill="white" stroke="#666666" points="687,-38 554,-38 554,-6 687,-6 687,-38"/>
<text xml:space="preserve" text-anchor="start" x="562" y="-24.5" font-family="Helvetica,sans-Serif" font-size="10.00">Source/Pyrano/Private</text>
<text xml:space="preserve" text-anchor="middle" x="620.5" y="-12.5" font-family="Helvetica,sans-Serif" font-size="10.00">/Logging/IrradianceLog.cpp</text>
</a>
</g>
</g>
<!-- Node1&#45;&gt;Node5 -->
<g id="edge4_Node000001_Node000005" class="edge">
<title>Node1&#45;&gt;Node5</title>
<g id="a_edge4_Node000001_Node000005"><a xlink:title=" ">
<path fill="none" stroke="#63b8ff" d="M916.82,-84.36C857.3,-75.17 771.04,-60.74 696.5,-44 689.15,-42.35 681.46,-40.44 673.9,-38.46"/>
<polygon fill="#63b8ff" stroke="#63b8ff" points="916.08,-87.79 926.49,-85.85 917.14,-80.87 916.08,-87.79"/>
</a>
</g>
</g>
<!-- Node6 -->
<g id="Node000006" class="node">
<title>Node6</title>
<g id="a_Node000006"><a xlink:href="_irradiance_scheduler_8cpp.html" target="_top" xlink:title=" ">
<polygon fill="white" stroke="#666666" points="877.88,-38 705.12,-38 705.12,-6 877.88,-6 877.88,-38"/>
<text xml:space="preserve" text-anchor="start" x="713.12" y="-24.5" font-family="Helvetica,sans-Serif" font-size="10.00">Source/Pyrano/Private</text>
<text xml:space="preserve" text-anchor="middle" x="791.5" y="-12.5" font-family="Helvetica,sans-Serif" font-size="10.00">/Simulation/IrradianceScheduler.cpp</text>
</a>
</g>
</g>
<!-- Node1&#45;&gt;Node6 -->
<g id="edge5_Node000001_Node000006" class="edge">
<title>Node1&#45;&gt;Node6</title>
<g id="a_edge5_Node000001_Node000006"><a xlink:title=" ">
<path fill="none" stroke="#63b8ff" d="M936.47,-75.72C904.34,-64.03 863.9,-49.33 833.91,-38.42"/>
<polygon fill="#63b8ff" stroke="#63b8ff" points="935.01,-78.91 945.6,-79.04 937.4,-72.33 935.01,-78.91"/>
</a>
</g>
</g>
<!-- Node7 -->
<g id="Node000007" class="node">
<title>Node7</title>
<g id="a_Node000007"><a xlink:href="_irradiance_subsystem_8cpp.html" target="_top" xlink:title=" ">
<polygon fill="white" stroke="#666666" points="1083.38,-38 895.62,-38 895.62,-6 1083.38,-6 1083.38,-38"/>
<text xml:space="preserve" text-anchor="start" x="903.62" y="-24.5" font-family="Helvetica,sans-Serif" font-size="10.00">Source/Pyrano/Private</text>
<text xml:space="preserve" text-anchor="middle" x="989.5" y="-12.5" font-family="Helvetica,sans-Serif" font-size="10.00">/Subsystems/IrradianceSubsystem.cpp</text>
</a>
</g>
</g>
<!-- Node1&#45;&gt;Node7 -->
<g id="edge6_Node000001_Node000007" class="edge">
<title>Node1&#45;&gt;Node7</title>
<g id="a_edge6_Node000001_Node000007"><a xlink:title=" ">
<path fill="none" stroke="#63b8ff" d="M989.5,-68.49C989.5,-58.3 989.5,-47.03 989.5,-38.25"/>
<polygon fill="#63b8ff" stroke="#63b8ff" points="986,-68.22 989.5,-78.22 993,-68.22 986,-68.22"/>
</a>
</g>
</g>
<!-- Node8 -->
<g id="Node000008" class="node">
<title>Node8</title>
<g id="a_Node000008"><a xlink:href="_sun_sky_controller_8cpp.html" target="_top" xlink:title=" ">
<polygon fill="white" stroke="#666666" points="1273.5,-38 1101.5,-38 1101.5,-6 1273.5,-6 1273.5,-38"/>
<text xml:space="preserve" text-anchor="start" x="1109.5" y="-24.5" font-family="Helvetica,sans-Serif" font-size="10.00">Source/Pyrano/Private</text>
<text xml:space="preserve" text-anchor="middle" x="1187.5" y="-12.5" font-family="Helvetica,sans-Serif" font-size="10.00">/Subsystems/SunSkyController.cpp</text>
</a>
</g>
</g>
<!-- Node1&#45;&gt;Node8 -->
<g id="edge7_Node000001_Node000008" class="edge">
<title>Node1&#45;&gt;Node8</title>
<g id="a_edge7_Node000001_Node000008"><a xlink:title=" ">
<path fill="none" stroke="#63b8ff" d="M1042.53,-75.72C1074.66,-64.03 1115.1,-49.33 1145.09,-38.42"/>
<polygon fill="#63b8ff" stroke="#63b8ff" points="1041.6,-72.33 1033.4,-79.04 1043.99,-78.91 1041.6,-72.33"/>
</a>
</g>
</g>
<!-- Node9 -->
<g id="Node000009" class="node">
<title>Node9</title>
<g id="a_Node000009"><a xlink:href="_pyrano_console_log_sink_8cpp.html" target="_top" xlink:title=" ">
<polygon fill="white" stroke="#666666" points="1447.62,-44 1291.38,-44 1291.38,0 1447.62,0 1447.62,-44"/>
<text xml:space="preserve" text-anchor="start" x="1299.38" y="-30.5" font-family="Helvetica,sans-Serif" font-size="10.00">Source/PyranoEditor</text>
<text xml:space="preserve" text-anchor="start" x="1299.38" y="-18.5" font-family="Helvetica,sans-Serif" font-size="10.00">/Private/Logging/PyranoConsole</text>
<text xml:space="preserve" text-anchor="middle" x="1369.5" y="-6.5" font-family="Helvetica,sans-Serif" font-size="10.00">LogSink.cpp</text>
</a>
</g>
</g>
<!-- Node1&#45;&gt;Node9 -->
<g id="edge8_Node000001_Node000009" class="edge">
<title>Node1&#45;&gt;Node9</title>
<g id="a_edge8_Node000001_Node000009"><a xlink:title=" ">
<path fill="none" stroke="#63b8ff" d="M1062.32,-83.66C1121.75,-74.09 1207.81,-59.5 1282.5,-44 1285.39,-43.4 1288.33,-42.77 1291.3,-42.13"/>
<polygon fill="#63b8ff" stroke="#63b8ff" points="1061.98,-80.17 1052.66,-85.21 1063.09,-87.09 1061.98,-80.17"/>
</a>
</g>
</g>
<!-- Node10 -->
<g id="Node000010" class="node">
<title>Node10</title>
<g id="a_Node000010"><a xlink:href="_pyrano_editor_subsystem_8cpp.html" target="_top" xlink:title=" ">
<polygon fill="white" stroke="#666666" points="1609.25,-44 1465.75,-44 1465.75,0 1609.25,0 1609.25,-44"/>
<text xml:space="preserve" text-anchor="start" x="1473.75" y="-30.5" font-family="Helvetica,sans-Serif" font-size="10.00">Source/PyranoEditor</text>
<text xml:space="preserve" text-anchor="start" x="1473.75" y="-18.5" font-family="Helvetica,sans-Serif" font-size="10.00">/Private/Subsystems</text>
<text xml:space="preserve" text-anchor="middle" x="1537.5" y="-6.5" font-family="Helvetica,sans-Serif" font-size="10.00">/PyranoEditorSubsystem.cpp</text>
</a>
</g>
</g>
<!-- Node1&#45;&gt;Node10 -->
<g id="edge9_Node000001_Node000010" class="edge">
<title>Node1&#45;&gt;Node10</title>
<g id="a_edge9_Node000001_Node000010"><a xlink:title=" ">
<path fill="none" stroke="#63b8ff" d="M1062.55,-90.31C1154.88,-83.64 1318.41,-69.3 1456.5,-44 1459.5,-43.45 1462.55,-42.85 1465.63,-42.21"/>
<polygon fill="#63b8ff" stroke="#63b8ff" points="1062.34,-86.82 1052.62,-91.02 1062.84,-93.8 1062.34,-86.82"/>
</a>
</g>
</g>
<!-- Node11 -->
<g id="Node000011" class="node">
<title>Node11</title>
<g id="a_Node000011"><a xlink:href="_console_log_line_entry_8cpp.html" target="_top" xlink:title=" ">
<polygon fill="white" stroke="#666666" points="1763.5,-44 1627.5,-44 1627.5,0 1763.5,0 1763.5,-44"/>
<text xml:space="preserve" text-anchor="start" x="1635.5" y="-30.5" font-family="Helvetica,sans-Serif" font-size="10.00">Source/PyranoEditor</text>
<text xml:space="preserve" text-anchor="start" x="1635.5" y="-18.5" font-family="Helvetica,sans-Serif" font-size="10.00">/Private/UI/ConsoleLogLine</text>
<text xml:space="preserve" text-anchor="middle" x="1695.5" y="-6.5" font-family="Helvetica,sans-Serif" font-size="10.00">Entry.cpp</text>
</a>
</g>
</g>
<!-- Node1&#45;&gt;Node11 -->
<g id="edge10_Node000001_Node000011" class="edge">
<title>Node1&#45;&gt;Node11</title>
<g id="a_edge10_Node000001_Node000011"><a xlink:title=" ">
<path fill="none" stroke="#63b8ff" d="M1062.5,-93.46C1180.31,-90 1419.29,-78.93 1618.5,-44 1621.37,-43.5 1624.28,-42.94 1627.21,-42.33"/>
<polygon fill="#63b8ff" stroke="#63b8ff" points="1062.55,-89.96 1052.65,-93.74 1062.75,-96.96 1062.55,-89.96"/>
</a>
</g>
</g>
<!-- Node12 -->
<g id="Node000012" class="node">
<title>Node12</title>
<g id="a_Node000012"><a xlink:href="_console_log_widget_8cpp.html" target="_top" xlink:title=" ">
<polygon fill="white" stroke="#666666" points="1949.25,-38 1781.75,-38 1781.75,-6 1949.25,-6 1949.25,-38"/>
<text xml:space="preserve" text-anchor="start" x="1789.75" y="-24.5" font-family="Helvetica,sans-Serif" font-size="10.00">Source/PyranoEditor</text>
<text xml:space="preserve" text-anchor="middle" x="1865.5" y="-12.5" font-family="Helvetica,sans-Serif" font-size="10.00">/Private/UI/ConsoleLogWidget.cpp</text>
</a>
</g>
</g>
<!-- Node1&#45;&gt;Node12 -->
<g id="edge11_Node000001_Node000012" class="edge">
<title>Node1&#45;&gt;Node12</title>
<g id="a_edge11_Node000001_Node000012"><a xlink:title=" ">
<path fill="none" stroke="#63b8ff" d="M1062.3,-94.07C1201.13,-91.45 1513.01,-81.51 1772.5,-44 1782.49,-42.56 1793,-40.61 1803.22,-38.48"/>
<polygon fill="#63b8ff" stroke="#63b8ff" points="1062.45,-90.56 1052.52,-94.24 1062.58,-97.56 1062.45,-90.56"/>
</a>
</g>
</g>
</g>
</svg>
