<?xml version="1.0" encoding="UTF-8" standalone="no"?>
<!DOCTYPE svg PUBLIC "-//W3C//DTD SVG 1.1//EN"
 "http://www.w3.org/Graphics/SVG/1.1/DTD/svg11.dtd">
<!-- Generated by graphviz version 14.1.0 (20251206.1807)
 -->
<!-- Title: Source/Pyrano/Private/Irradiance/IrradianceIntegrateCS.cpp Pages: 1 -->
<svg width="1271pt" height="176pt"
 viewBox="0.00 0.00 1271.00 176.00" xmlns="http://www.w3.org/2000/svg" xmlns:xlink="http://www.w3.org/1999/xlink">
<g id="graph0" class="graph" transform="scale(1 1) rotate(0) translate(4 172)">
<title>Source/Pyrano/Private/Irradiance/IrradianceIntegrateCS.cpp</title>
<!-- Node1 -->
<g id="Node000001" class="node">
<title>Node1</title>
<g id="a_Node000001"><a xlink:title=" ">
<polygon fill="#999999" stroke="#666666" points="706.25,-168 560.5,-168 560.5,-124 706.25,-124 706.25,-168"/>
<text xml:space="preserve" text-anchor="start" x="568.5" y="-154.5" font-family="Helvetica,sans-Serif" font-size="10.00">Source/Pyrano/Private</text>
<text xml:space="preserve" text-anchor="start" x="568.5" y="-142.5" font-family="Helvetica,sans-Serif" font-size="10.00">/Irradiance/IrradianceIntegrate</text>
<text xml:space="preserve" text-anchor="middle" x="633.38" y="-130.5" font-family="Helvetica,sans-Serif" font-size="10.00">CS.cpp</text>
</a>
</g>
</g>
<!-- Node2 -->
<g id="Node000002" class="node">
<title>Node2</title>
<g id="a_Node000002"><a xlink:href="_irradiance_integrate_c_s_8h.html" target="_top" xlink:title=" ">
<polygon fill="white" stroke="#666666" points="244,-82 78.75,-82 78.75,-62 244,-62 244,-82"/>
<text xml:space="preserve" text-anchor="middle" x="161.38" y="-68.5" font-family="Helvetica,sans-Serif" font-size="10.00">Irradiance/IrradianceIntegrateCS.h</text>
</a>
</g>
</g>
<!-- Node1&#45;&gt;Node2 -->
<g id="edge1_Node000001_Node000002" class="edge">
<title>Node1&#45;&gt;Node2</title>
<g id="a_edge1_Node000001_Node000002"><a xlink:title=" ">
<path fill="none" stroke="#63b8ff" d="M560.13,-134.3C483.57,-123.04 359.98,-104.69 253.38,-88 245.77,-86.81 237.81,-85.54 229.9,-84.27"/>
<polygon fill="#63b8ff" stroke="#63b8ff" points="230.7,-80.86 220.27,-82.72 229.58,-87.77 230.7,-80.86"/>
</a>
</g>
</g>
<!-- Node4 -->
<g id="Node000004" class="node">
<title>Node4</title>
<g id="a_Node000004"><a xlink:title=" ">
<polygon fill="#e0e0e0" stroke="#999999" points="82.75,-20 0,-20 0,0 82.75,0 82.75,-20"/>
<text xml:space="preserve" text-anchor="middle" x="41.38" y="-6.5" font-family="Helvetica,sans-Serif" font-size="10.00">GlobalShader.h</text>
</a>
</g>
</g>
<!-- Node1&#45;&gt;Node4 -->
<g id="edge9_Node000001_Node000004" class="edge">
<title>Node1&#45;&gt;Node4</title>
<g id="a_edge9_Node000001_Node000004"><a xlink:title=" ">
<path fill="none" stroke="#63b8ff" d="M560.12,-141.9C416.24,-135.21 107.33,-117.54 69.38,-88 52.13,-74.58 45.5,-49.53 42.95,-31.65"/>
<polygon fill="#63b8ff" stroke="#63b8ff" points="46.45,-31.48 41.91,-21.91 39.49,-32.23 46.45,-31.48"/>
</a>
</g>
</g>
<!-- Node7 -->
<g id="Node000007" class="node">
<title>Node7</title>
<g id="a_Node000007"><a xlink:title=" ">
<polygon fill="#e0e0e0" stroke="#999999" points="364.5,-82 262.25,-82 262.25,-62 364.5,-62 364.5,-82"/>
<text xml:space="preserve" text-anchor="middle" x="313.38" y="-68.5" font-family="Helvetica,sans-Serif" font-size="10.00">RenderGraphUtils.h</text>
</a>
</g>
</g>
<!-- Node1&#45;&gt;Node7 -->
<g id="edge6_Node000001_Node000007" class="edge">
<title>Node1&#45;&gt;Node7</title>
<g id="a_edge6_Node000001_Node000007"><a xlink:title=" ">
<path fill="none" stroke="#63b8ff" d="M560.14,-129.38C508.22,-118.19 436.93,-102.57 374.38,-88 370.37,-87.07 366.22,-86.08 362.05,-85.08"/>
<polygon fill="#63b8ff" stroke="#63b8ff" points="363.1,-81.74 352.56,-82.78 361.45,-88.54 363.1,-81.74"/>
</a>
</g>
</g>
<!-- Node8 -->
<g id="Node000008" class="node">
<title>Node8</title>
<g id="a_Node000008"><a xlink:title=" ">
<polygon fill="#e0e0e0" stroke="#999999" points="497.88,-82 382.88,-82 382.88,-62 497.88,-62 497.88,-82"/>
<text xml:space="preserve" text-anchor="middle" x="440.38" y="-68.5" font-family="Helvetica,sans-Serif" font-size="10.00">ShaderCompilerCore.h</text>
</a>
</g>
</g>
<!-- Node1&#45;&gt;Node8 -->
<g id="edge7_Node000001_Node000008" class="edge">
<title>Node1&#45;&gt;Node8</title>
<g id="a_edge7_Node000001_Node000008"><a xlink:title=" ">
<path fill="none" stroke="#63b8ff" d="M575.99,-123.59C543.62,-111.52 504.18,-96.8 476.2,-86.36"/>
<polygon fill="#63b8ff" stroke="#63b8ff" points="477.71,-83.19 467.12,-82.98 475.26,-89.75 477.71,-83.19"/>
</a>
</g>
</g>
<!-- Node9 -->
<g id="Node000009" class="node">
<title>Node9</title>
<g id="a_Node000009"><a xlink:title=" ">
<polygon fill="#e0e0e0" stroke="#999999" points="628.38,-82 516.38,-82 516.38,-62 628.38,-62 628.38,-82"/>
<text xml:space="preserve" text-anchor="middle" x="572.38" y="-68.5" font-family="Helvetica,sans-Serif" font-size="10.00">RenderGraphBuilder.h</text>
</a>
</g>
</g>
<!-- Node1&#45;&gt;Node9 -->
<g id="edge8_Node000001_Node000009" class="edge">
<title>Node1&#45;&gt;Node9</title>
<g id="a_edge8_Node000001_Node000009"><a xlink:title=" ">
<path fill="none" stroke="#63b8ff" d="M615.4,-123.79C606.56,-113.35 596.02,-100.91 587.58,-90.95"/>
<polygon fill="#63b8ff" stroke="#63b8ff" points="590.38,-88.83 581.24,-83.47 585.04,-93.36 590.38,-88.83"/>
</a>
</g>
</g>
<!-- Node10 -->
<g id="Node000010" class="node">
<title>Node10</title>
<g id="a_Node000010"><a xlink:title=" ">
<polygon fill="#e0e0e0" stroke="#999999" points="742.5,-82 646.25,-82 646.25,-62 742.5,-62 742.5,-82"/>
<text xml:space="preserve" text-anchor="middle" x="694.38" y="-68.5" font-family="Helvetica,sans-Serif" font-size="10.00">RHIStaticStates.h</text>
</a>
</g>
</g>
<!-- Node1&#45;&gt;Node10 -->
<g id="edge10_Node000001_Node000010" class="edge">
<title>Node1&#45;&gt;Node10</title>
<g id="a_edge10_Node000001_Node000010"><a xlink:title=" ">
<path fill="none" stroke="#63b8ff" d="M651.35,-123.79C660.19,-113.35 670.73,-100.91 679.17,-90.95"/>
<polygon fill="#63b8ff" stroke="#63b8ff" points="681.71,-93.36 685.51,-83.47 676.37,-88.83 681.71,-93.36"/>
</a>
</g>
</g>
<!-- Node11 -->
<g id="Node000011" class="node">
<title>Node11</title>
<g id="a_Node000011"><a xlink:title=" ">
<polygon fill="#e0e0e0" stroke="#999999" points="893.88,-88 760.88,-88 760.88,-56 893.88,-56 893.88,-88"/>
<text xml:space="preserve" text-anchor="start" x="768.88" y="-74.5" font-family="Helvetica,sans-Serif" font-size="10.00">DataDrivenShaderPlatform</text>
<text xml:space="preserve" text-anchor="middle" x="827.38" y="-62.5" font-family="Helvetica,sans-Serif" font-size="10.00">Info.h</text>
</a>
</g>
</g>
<!-- Node1&#45;&gt;Node11 -->
<g id="edge11_Node000001_Node000011" class="edge">
<title>Node1&#45;&gt;Node11</title>
<g id="a_edge11_Node000001_Node000011"><a xlink:title=" ">
<path fill="none" stroke="#63b8ff" d="M691.06,-123.59C717.64,-113.73 748.96,-102.1 774.88,-92.48"/>
<polygon fill="#63b8ff" stroke="#63b8ff" points="776.05,-95.78 784.2,-89.02 773.61,-89.22 776.05,-95.78"/>
</a>
</g>
</g>
<!-- Node12 -->
<g id="Node000012" class="node">
<title>Node12</title>
<g id="a_Node000012"><a xlink:title=" ">
<polygon fill="#e0e0e0" stroke="#999999" points="954.5,-82 912.25,-82 912.25,-62 954.5,-62 954.5,-82"/>
<text xml:space="preserve" text-anchor="middle" x="933.38" y="-68.5" font-family="Helvetica,sans-Serif" font-size="10.00">RHI.h</text>
</a>
</g>
</g>
<!-- Node1&#45;&gt;Node12 -->
<g id="edge12_Node000001_Node000012" class="edge">
<title>Node1&#45;&gt;Node12</title>
<g id="a_edge12_Node000001_Node000012"><a xlink:title=" ">
<path fill="none" stroke="#63b8ff" d="M706.66,-134.73C761.76,-125.77 838.58,-110.62 903.38,-88 904.18,-87.72 904.99,-87.42 905.8,-87.11"/>
<polygon fill="#63b8ff" stroke="#63b8ff" points="907.13,-90.35 914.87,-83.11 904.31,-83.94 907.13,-90.35"/>
</a>
</g>
</g>
<!-- Node13 -->
<g id="Node000013" class="node">
<title>Node13</title>
<g id="a_Node000013"><a xlink:href="_irradiance_log_8h.html" target="_top" xlink:title=" ">
<polygon fill="white" stroke="#666666" points="1092.12,-82 972.62,-82 972.62,-62 1092.12,-62 1092.12,-82"/>
<text xml:space="preserve" text-anchor="middle" x="1032.38" y="-68.5" font-family="Helvetica,sans-Serif" font-size="10.00">Logging/IrradianceLog.h</text>
</a>
</g>
</g>
<!-- Node1&#45;&gt;Node13 -->
<g id="edge13_Node000001_Node000013" class="edge">
<title>Node1&#45;&gt;Node13</title>
<g id="a_edge13_Node000001_Node000013"><a xlink:title=" ">
<path fill="none" stroke="#63b8ff" d="M706.61,-133.28C773.6,-122.34 875.35,-105.16 963.38,-88 968.52,-87 973.87,-85.91 979.21,-84.8"/>
<polygon fill="#63b8ff" stroke="#63b8ff" points="979.57,-88.3 988.62,-82.8 978.12,-81.45 979.57,-88.3"/>
</a>
</g>
</g>
<!-- Node14 -->
<g id="Node000014" class="node">
<title>Node14</title>
<g id="a_Node000014"><a xlink:href="_irradiance_common_8h.html" target="_top" xlink:title=" ">
<polygon fill="white" stroke="#666666" points="1262.62,-82 1110.12,-82 1110.12,-62 1262.62,-62 1262.62,-82"/>
<text xml:space="preserve" text-anchor="middle" x="1186.38" y="-68.5" font-family="Helvetica,sans-Serif" font-size="10.00">Irradiance/IrradianceCommon.h</text>
</a>
</g>
</g>
<!-- Node1&#45;&gt;Node14 -->
<g id="edge15_Node000001_Node000014" class="edge">
<title>Node1&#45;&gt;Node14</title>
<g id="a_edge15_Node000001_Node000014"><a xlink:title=" ">
<path fill="none" stroke="#63b8ff" d="M706.5,-137.32C798.73,-127.35 962.13,-108.75 1101.38,-88 1108.74,-86.9 1116.46,-85.66 1124.1,-84.38"/>
<polygon fill="#63b8ff" stroke="#63b8ff" points="1124.45,-87.88 1133.71,-82.74 1123.27,-80.98 1124.45,-87.88"/>
</a>
</g>
</g>
<!-- Node3 -->
<g id="Node000003" class="node">
<title>Node3</title>
<g id="a_Node000003"><a xlink:title=" ">
<polygon fill="#e0e0e0" stroke="#999999" points="1071.88,-20 992.88,-20 992.88,0 1071.88,0 1071.88,-20"/>
<text xml:space="preserve" text-anchor="middle" x="1032.38" y="-6.5" font-family="Helvetica,sans-Serif" font-size="10.00">CoreMinimal.h</text>
</a>
</g>
</g>
<!-- Node2&#45;&gt;Node3 -->
<g id="edge2_Node000002_Node000003" class="edge">
<title>Node2&#45;&gt;Node3</title>
<g id="a_edge2_Node000002_Node000003"><a xlink:title=" ">
<path fill="none" stroke="#63b8ff" d="M213.31,-61.57C226.35,-59.46 240.35,-57.43 253.38,-56 526.66,-25.91 856.24,-15.25 981.09,-12.12"/>
<polygon fill="#63b8ff" stroke="#63b8ff" points="981.1,-15.62 991.02,-11.88 980.93,-8.62 981.1,-15.62"/>
</a>
</g>
</g>
<!-- Node2&#45;&gt;Node4 -->
<g id="edge3_Node000002_Node000004" class="edge">
<title>Node2&#45;&gt;Node4</title>
<g id="a_edge3_Node000002_Node000004"><a xlink:title=" ">
<path fill="none" stroke="#63b8ff" d="M142.62,-61.62C123.16,-51.89 92.48,-36.55 69.99,-25.31"/>
<polygon fill="#63b8ff" stroke="#63b8ff" points="71.86,-22.33 61.35,-20.99 68.73,-28.59 71.86,-22.33"/>
</a>
</g>
</g>
<!-- Node5 -->
<g id="Node000005" class="node">
<title>Node5</title>
<g id="a_Node000005"><a xlink:title=" ">
<polygon fill="#e0e0e0" stroke="#999999" points="227.5,-20 101.25,-20 101.25,0 227.5,0 227.5,-20"/>
<text xml:space="preserve" text-anchor="middle" x="164.38" y="-6.5" font-family="Helvetica,sans-Serif" font-size="10.00">ShaderParameterStruct.h</text>
</a>
</g>
</g>
<!-- Node2&#45;&gt;Node5 -->
<g id="edge4_Node000002_Node000005" class="edge">
<title>Node2&#45;&gt;Node5</title>
<g id="a_edge4_Node000002_Node000005"><a xlink:title=" ">
<path fill="none" stroke="#63b8ff" d="M161.84,-61.62C162.25,-53.56 162.84,-41.65 163.35,-31.41"/>
<polygon fill="#63b8ff" stroke="#63b8ff" points="166.84,-31.79 163.84,-21.62 159.85,-31.44 166.84,-31.79"/>
</a>
</g>
</g>
<!-- Node6 -->
<g id="Node000006" class="node">
<title>Node6</title>
<g id="a_Node000006"><a xlink:title=" ">
<polygon fill="#e0e0e0" stroke="#999999" points="375,-20 245.75,-20 245.75,0 375,0 375,-20"/>
<text xml:space="preserve" text-anchor="middle" x="310.38" y="-6.5" font-family="Helvetica,sans-Serif" font-size="10.00">RenderGraphResources.h</text>
</a>
</g>
</g>
<!-- Node2&#45;&gt;Node6 -->
<g id="edge5_Node000002_Node000006" class="edge">
<title>Node2&#45;&gt;Node6</title>
<g id="a_edge5_Node000002_Node000006"><a xlink:title=" ">
<path fill="none" stroke="#63b8ff" d="M184.66,-61.62C209.37,-51.67 248.65,-35.85 276.73,-24.55"/>
<polygon fill="#63b8ff" stroke="#63b8ff" points="277.88,-27.86 285.85,-20.87 275.27,-21.36 277.88,-27.86"/>
</a>
</g>
</g>
<!-- Node13&#45;&gt;Node3 -->
<g id="edge14_Node000013_Node000003" class="edge">
<title>Node13&#45;&gt;Node3</title>
<g id="a_edge14_Node000013_Node000003"><a xlink:title=" ">
<path fill="none" stroke="#63b8ff" d="M1032.38,-61.62C1032.38,-53.56 1032.38,-41.65 1032.38,-31.41"/>
<polygon fill="#63b8ff" stroke="#63b8ff" points="1035.88,-31.63 1032.38,-21.63 1028.88,-31.63 1035.88,-31.63"/>
</a>
</g>
</g>
<!-- Node14&#45;&gt;Node3 -->
<g id="edge16_Node000014_Node000003" class="edge">
<title>Node14&#45;&gt;Node3</title>
<g id="a_edge16_Node000014_Node000003"><a xlink:title=" ">
<path fill="none" stroke="#63b8ff" d="M1162.31,-61.62C1136.73,-51.66 1096.05,-35.81 1067.02,-24.5"/>
<polygon fill="#63b8ff" stroke="#63b8ff" points="1068.52,-21.33 1057.93,-20.96 1065.98,-27.85 1068.52,-21.33"/>
</a>
</g>
</g>
</g>
</svg>
