<?xml version="1.0" encoding="UTF-8" standalone="no"?>
<!DOCTYPE svg PUBLIC "-//W3C//DTD SVG 1.1//EN"
 "http://www.w3.org/Graphics/SVG/1.1/DTD/svg11.dtd">
<!-- Generated by graphviz version 14.1.0 (20251206.1807)
 -->
<!-- Title: Source/Pyrano/Private/Irradiance/IrradianceCommon.cpp Pages: 1 -->
<svg width="366pt" height="152pt"
 viewBox="0.00 0.00 366.00 152.00" xmlns="http://www.w3.org/2000/svg" xmlns:xlink="http://www.w3.org/1999/xlink">
<g id="graph0" class="graph" transform="scale(1 1) rotate(0) translate(4 148)">
<title>Source/Pyrano/Private/Irradiance/IrradianceCommon.cpp</title>
<!-- Node1 -->
<g id="Node000001" class="node">
<title>Node1</title>
<g id="a_Node000001"><a xlink:title=" ">
<polygon fill="#999999" stroke="#666666" points="294.25,-144 128.25,-144 128.25,-112 294.25,-112 294.25,-144"/>
<text xml:space="preserve" text-anchor="start" x="136.25" y="-130.5" font-family="Helvetica,sans-Serif" font-size="10.00">Source/Pyrano/Private</text>
<text xml:space="preserve" text-anchor="middle" x="211.25" y="-118.5" font-family="Helvetica,sans-Serif" font-size="10.00">/Irradiance/IrradianceCommon.cpp</text>
</a>
</g>
</g>
<!-- Node2 -->
<g id="Node000002" class="node">
<title>Node2</title>
<g id="a_Node000002"><a xlink:href="_irradiance_common_8h.html" target="_top" xlink:title=" ">
<polygon fill="white" stroke="#666666" points="152.5,-76 0,-76 0,-56 152.5,-56 152.5,-76"/>
<text xml:space="preserve" text-anchor="middle" x="76.25" y="-62.5" font-family="Helvetica,sans-Serif" font-size="10.00">Irradiance/IrradianceCommon.h</text>
</a>
</g>
</g>
<!-- Node1&#45;&gt;Node2 -->
<g id="edge1_Node000001_Node000002" class="edge">
<title>Node1&#45;&gt;Node2</title>
<g id="a_edge1_Node000001_Node000002"><a xlink:title=" ">
<path fill="none" stroke="#63b8ff" d="M176.48,-111.55C155.29,-102.13 128.42,-90.19 107.84,-81.04"/>
<polygon fill="#63b8ff" stroke="#63b8ff" points="109.36,-77.89 98.8,-77.02 106.52,-84.28 109.36,-77.89"/>
</a>
</g>
</g>
<!-- Node4 -->
<g id="Node000004" class="node">
<title>Node4</title>
<g id="a_Node000004"><a xlink:title=" ">
<polygon fill="#e0e0e0" stroke="#999999" points="252.25,-76 170.25,-76 170.25,-56 252.25,-56 252.25,-76"/>
<text xml:space="preserve" text-anchor="middle" x="211.25" y="-62.5" font-family="Helvetica,sans-Serif" font-size="10.00">Engine/World.h</text>
</a>
</g>
</g>
<!-- Node1&#45;&gt;Node4 -->
<g id="edge3_Node000001_Node000004" class="edge">
<title>Node1&#45;&gt;Node4</title>
<g id="a_edge3_Node000001_Node000004"><a xlink:title=" ">
<path fill="none" stroke="#63b8ff" d="M211.25,-111.55C211.25,-104.34 211.25,-95.66 211.25,-87.88"/>
<polygon fill="#63b8ff" stroke="#63b8ff" points="214.75,-87.92 211.25,-77.92 207.75,-87.92 214.75,-87.92"/>
</a>
</g>
</g>
<!-- Node5 -->
<g id="Node000005" class="node">
<title>Node5</title>
<g id="a_Node000005"><a xlink:title=" ">
<polygon fill="#e0e0e0" stroke="#999999" points="357.88,-76 270.62,-76 270.62,-56 357.88,-56 357.88,-76"/>
<text xml:space="preserve" text-anchor="middle" x="314.25" y="-62.5" font-family="Helvetica,sans-Serif" font-size="10.00">Engine/Engine.h</text>
</a>
</g>
</g>
<!-- Node1&#45;&gt;Node5 -->
<g id="edge4_Node000001_Node000005" class="edge">
<title>Node1&#45;&gt;Node5</title>
<g id="a_edge4_Node000001_Node000005"><a xlink:title=" ">
<path fill="none" stroke="#63b8ff" d="M237.78,-111.55C253.27,-102.52 272.75,-91.17 288.17,-82.19"/>
<polygon fill="#63b8ff" stroke="#63b8ff" points="289.91,-85.23 296.79,-77.17 286.39,-79.18 289.91,-85.23"/>
</a>
</g>
</g>
<!-- Node3 -->
<g id="Node000003" class="node">
<title>Node3</title>
<g id="a_Node000003"><a xlink:title=" ">
<polygon fill="#e0e0e0" stroke="#999999" points="115.75,-20 36.75,-20 36.75,0 115.75,0 115.75,-20"/>
<text xml:space="preserve" text-anchor="middle" x="76.25" y="-6.5" font-family="Helvetica,sans-Serif" font-size="10.00">CoreMinimal.h</text>
</a>
</g>
</g>
<!-- Node2&#45;&gt;Node3 -->
<g id="edge2_Node000002_Node000003" class="edge">
<title>Node2&#45;&gt;Node3</title>
<g id="a_edge2_Node000002_Node000003"><a xlink:title=" ">
<path fill="none" stroke="#63b8ff" d="M76.25,-55.59C76.25,-49.01 76.25,-39.96 76.25,-31.73"/>
<polygon fill="#63b8ff" stroke="#63b8ff" points="79.75,-31.81 76.25,-21.81 72.75,-31.81 79.75,-31.81"/>
</a>
</g>
</g>
</g>
</svg>
