<?xml version="1.0" encoding="UTF-8" standalone="no"?>
<!DOCTYPE svg PUBLIC "-//W3C//DTD SVG 1.1//EN"
 "http://www.w3.org/Graphics/SVG/1.1/DTD/svg11.dtd">
<!-- Generated by graphviz version 14.1.0 (20251206.1807)
 -->
<!-- Title: Source/Pyrano/Public/Simulation/IrradianceScheduler.h Pages: 1 -->
<svg width="342pt" height="120pt"
 viewBox="0.00 0.00 342.00 120.00" xmlns="http://www.w3.org/2000/svg" xmlns:xlink="http://www.w3.org/1999/xlink">
<g id="graph0" class="graph" transform="scale(1 1) rotate(0) translate(4 116)">
<title>Source/Pyrano/Public/Simulation/IrradianceScheduler.h</title>
<!-- Node1 -->
<g id="Node000001" class="node">
<title>Node1</title>
<g id="a_Node000001"><a xlink:title=" ">
<polygon fill="#999999" stroke="#666666" points="255.5,-112 93.25,-112 93.25,-80 255.5,-80 255.5,-112"/>
<text xml:space="preserve" text-anchor="start" x="101.25" y="-98.5" font-family="Helvetica,sans-Serif" font-size="10.00">Source/Pyrano/Public</text>
<text xml:space="preserve" text-anchor="middle" x="174.38" y="-86.5" font-family="Helvetica,sans-Serif" font-size="10.00">/Simulation/IrradianceScheduler.h</text>
</a>
</g>
</g>
<!-- Node2 -->
<g id="Node000002" class="node">
<title>Node2</title>
<g id="a_Node000002"><a xlink:href="_irradiance_scheduler_8cpp.html" target="_top" xlink:title=" ">
<polygon fill="white" stroke="#666666" points="172.75,-38 0,-38 0,-6 172.75,-6 172.75,-38"/>
<text xml:space="preserve" text-anchor="start" x="8" y="-24.5" font-family="Helvetica,sans-Serif" font-size="10.00">Source/Pyrano/Private</text>
<text xml:space="preserve" text-anchor="middle" x="86.38" y="-12.5" font-family="Helvetica,sans-Serif" font-size="10.00">/Simulation/IrradianceScheduler.cpp</text>
</a>
</g>
</g>
<!-- Node1&#45;&gt;Node2 -->
<g id="edge1_Node000001_Node000002" class="edge">
<title>Node1&#45;&gt;Node2</title>
<g id="a_edge1_Node000001_Node000002"><a xlink:title=" ">
<path fill="none" stroke="#63b8ff" d="M146.83,-72.46C133.33,-61.42 117.42,-48.4 105.31,-38.5"/>
<polygon fill="#63b8ff" stroke="#63b8ff" points="144.59,-75.15 154.54,-78.77 149.02,-69.73 144.59,-75.15"/>
</a>
</g>
</g>
<!-- Node3 -->
<g id="Node000003" class="node">
<title>Node3</title>
<g id="a_Node000003"><a xlink:href="_pyrano_editor_subsystem_8cpp.html" target="_top" xlink:title=" ">
<polygon fill="white" stroke="#666666" points="334.12,-44 190.62,-44 190.62,0 334.12,0 334.12,-44"/>
<text xml:space="preserve" text-anchor="start" x="198.62" y="-30.5" font-family="Helvetica,sans-Serif" font-size="10.00">Source/PyranoEditor</text>
<text xml:space="preserve" text-anchor="start" x="198.62" y="-18.5" font-family="Helvetica,sans-Serif" font-size="10.00">/Private/Subsystems</text>
<text xml:space="preserve" text-anchor="middle" x="262.38" y="-6.5" font-family="Helvetica,sans-Serif" font-size="10.00">/PyranoEditorSubsystem.cpp</text>
</a>
</g>
</g>
<!-- Node1&#45;&gt;Node3 -->
<g id="edge2_Node000001_Node000003" class="edge">
<title>Node1&#45;&gt;Node3</title>
<g id="a_edge2_Node000001_Node000003"><a xlink:title=" ">
<path fill="none" stroke="#63b8ff" d="M201.85,-72.52C212.87,-63.5 225.52,-53.15 236.4,-44.26"/>
<polygon fill="#63b8ff" stroke="#63b8ff" points="199.73,-69.73 194.21,-78.77 204.16,-75.15 199.73,-69.73"/>
</a>
</g>
</g>
</g>
</svg>
