<?xml version="1.0" encoding="UTF-8" standalone="no"?>
<!DOCTYPE svg PUBLIC "-//W3C//DTD SVG 1.1//EN"
 "http://www.w3.org/Graphics/SVG/1.1/DTD/svg11.dtd">
<!-- Generated by graphviz version 14.1.0 (20251206.1807)
 -->
<!-- Title: Source/PyranoEditor/Private/UI/PlanStorage.h Pages: 1 -->
<svg width="250pt" height="152pt"
 viewBox="0.00 0.00 250.00 152.00" xmlns="http://www.w3.org/2000/svg" xmlns:xlink="http://www.w3.org/1999/xlink">
<g id="graph0" class="graph" transform="scale(1 1) rotate(0) translate(4 148)">
<title>Source/PyranoEditor/Private/UI/PlanStorage.h</title>
<!-- Node1 -->
<g id="Node000001" class="node">
<title>Node1</title>
<g id="a_Node000001"><a xlink:title=" ">
<polygon fill="#999999" stroke="#666666" points="154.38,-144 26.62,-144 26.62,-112 154.38,-112 154.38,-144"/>
<text xml:space="preserve" text-anchor="start" x="34.62" y="-130.5" font-family="Helvetica,sans-Serif" font-size="10.00">Source/PyranoEditor</text>
<text xml:space="preserve" text-anchor="middle" x="90.5" y="-118.5" font-family="Helvetica,sans-Serif" font-size="10.00">/Private/UI/PlanStorage.h</text>
</a>
</g>
</g>
<!-- Node2 -->
<g id="Node000002" class="node">
<title>Node2</title>
<g id="a_Node000002"><a xlink:title=" ">
<polygon fill="#e0e0e0" stroke="#999999" points="79,-20 0,-20 0,0 79,0 79,-20"/>
<text xml:space="preserve" text-anchor="middle" x="39.5" y="-6.5" font-family="Helvetica,sans-Serif" font-size="10.00">CoreMinimal.h</text>
</a>
</g>
</g>
<!-- Node1&#45;&gt;Node2 -->
<g id="edge1_Node000001_Node000002" class="edge">
<title>Node1&#45;&gt;Node2</title>
<g id="a_edge1_Node000001_Node000002"><a xlink:title=" ">
<path fill="none" stroke="#63b8ff" d="M79.23,-111.55C72.49,-101.75 64.16,-88.59 58.5,-76 52,-61.53 47.07,-44.27 43.87,-31.17"/>
<polygon fill="#63b8ff" stroke="#63b8ff" points="47.32,-30.55 41.67,-21.58 40.5,-32.11 47.32,-30.55"/>
</a>
</g>
</g>
<!-- Node3 -->
<g id="Node000003" class="node">
<title>Node3</title>
<g id="a_Node000003"><a xlink:href="_simulation_config_8h.html" target="_top" xlink:title=" ">
<polygon fill="white" stroke="#666666" points="215.12,-76 67.88,-76 67.88,-56 215.12,-56 215.12,-76"/>
<text xml:space="preserve" text-anchor="middle" x="141.5" y="-62.5" font-family="Helvetica,sans-Serif" font-size="10.00">Simulation/SimulationConfig.h</text>
</a>
</g>
</g>
<!-- Node1&#45;&gt;Node3 -->
<g id="edge2_Node000001_Node000003" class="edge">
<title>Node1&#45;&gt;Node3</title>
<g id="a_edge2_Node000001_Node000003"><a xlink:title=" ">
<path fill="none" stroke="#63b8ff" d="M103.63,-111.55C110.5,-103.48 118.93,-93.55 126.1,-85.12"/>
<polygon fill="#63b8ff" stroke="#63b8ff" points="128.71,-87.45 132.52,-77.56 123.38,-82.91 128.71,-87.45"/>
</a>
</g>
</g>
<!-- Node3&#45;&gt;Node2 -->
<g id="edge3_Node000003_Node000002" class="edge">
<title>Node3&#45;&gt;Node2</title>
<g id="a_edge3_Node000003_Node000002"><a xlink:title=" ">
<path fill="none" stroke="#63b8ff" d="M123.73,-55.59C108.18,-47.36 85.32,-35.26 67.34,-25.74"/>
<polygon fill="#63b8ff" stroke="#63b8ff" points="69.22,-22.77 58.74,-21.19 65.94,-28.96 69.22,-22.77"/>
</a>
</g>
</g>
<!-- Node4 -->
<g id="Node000004" class="node">
<title>Node4</title>
<g id="a_Node000004"><a xlink:title=" ">
<polygon fill="#e0e0e0" stroke="#999999" points="241.62,-20 97.38,-20 97.38,0 241.62,0 241.62,-20"/>
<text xml:space="preserve" text-anchor="middle" x="169.5" y="-6.5" font-family="Helvetica,sans-Serif" font-size="10.00">SimulationConfig.generated.h</text>
</a>
</g>
</g>
<!-- Node3&#45;&gt;Node4 -->
<g id="edge4_Node000003_Node000004" class="edge">
<title>Node3&#45;&gt;Node4</title>
<g id="a_edge4_Node000003_Node000004"><a xlink:title=" ">
<path fill="none" stroke="#63b8ff" d="M146.38,-55.59C149.99,-48.63 155.04,-38.89 159.5,-30.29"/>
<polygon fill="#63b8ff" stroke="#63b8ff" points="162.49,-32.13 163.98,-21.64 156.27,-28.91 162.49,-32.13"/>
</a>
</g>
</g>
</g>
</svg>
