<?xml version="1.0" encoding="UTF-8" standalone="no"?>
<!DOCTYPE svg PUBLIC "-//W3C//DTD SVG 1.1//EN"
 "http://www.w3.org/Graphics/SVG/1.1/DTD/svg11.dtd">
<!-- Generated by graphviz version 14.1.0 (20251206.1807)
 -->
<!-- Title: Source/PyranoEditor/Private/UI/PlanStorage.cpp Pages: 1 -->
<svg width="937pt" height="208pt"
 viewBox="0.00 0.00 937.00 208.00" xmlns="http://www.w3.org/2000/svg" xmlns:xlink="http://www.w3.org/1999/xlink">
<g id="graph0" class="graph" transform="scale(1 1) rotate(0) translate(4 204)">
<title>Source/PyranoEditor/Private/UI/PlanStorage.cpp</title>
<!-- Node1 -->
<g id="Node000001" class="node">
<title>Node1</title>
<g id="a_Node000001"><a xlink:title=" ">
<polygon fill="#999999" stroke="#666666" points="483.62,-200 345.38,-200 345.38,-168 483.62,-168 483.62,-200"/>
<text xml:space="preserve" text-anchor="start" x="353.38" y="-186.5" font-family="Helvetica,sans-Serif" font-size="10.00">Source/PyranoEditor</text>
<text xml:space="preserve" text-anchor="middle" x="414.5" y="-174.5" font-family="Helvetica,sans-Serif" font-size="10.00">/Private/UI/PlanStorage.cpp</text>
</a>
</g>
</g>
<!-- Node2 -->
<g id="Node000002" class="node">
<title>Node2</title>
<g id="a_Node000002"><a xlink:href="_plan_storage_8h.html" target="_top" xlink:title=" ">
<polygon fill="white" stroke="#666666" points="136,-132 45,-132 45,-112 136,-112 136,-132"/>
<text xml:space="preserve" text-anchor="middle" x="90.5" y="-118.5" font-family="Helvetica,sans-Serif" font-size="10.00">UI/PlanStorage.h</text>
</a>
</g>
</g>
<!-- Node1&#45;&gt;Node2 -->
<g id="edge1_Node000001_Node000002" class="edge">
<title>Node1&#45;&gt;Node2</title>
<g id="a_edge1_Node000001_Node000002"><a xlink:title=" ">
<path fill="none" stroke="#63b8ff" d="M344.99,-170.13C286.15,-159.23 202.81,-143.8 147.74,-133.6"/>
<polygon fill="#63b8ff" stroke="#63b8ff" points="148.4,-130.16 137.93,-131.78 147.13,-137.05 148.4,-130.16"/>
</a>
</g>
</g>
<!-- Node6 -->
<g id="Node000006" class="node">
<title>Node6</title>
<g id="a_Node000006"><a xlink:title=" ">
<polygon fill="#e0e0e0" stroke="#999999" points="246.75,-132 154.25,-132 154.25,-112 246.75,-112 246.75,-132"/>
<text xml:space="preserve" text-anchor="middle" x="200.5" y="-118.5" font-family="Helvetica,sans-Serif" font-size="10.00">Misc/FileHelper.h</text>
</a>
</g>
</g>
<!-- Node1&#45;&gt;Node6 -->
<g id="edge6_Node000001_Node000006" class="edge">
<title>Node1&#45;&gt;Node6</title>
<g id="a_edge6_Node000001_Node000006"><a xlink:title=" ">
<path fill="none" stroke="#63b8ff" d="M359.39,-167.55C323.9,-157.6 278.35,-144.83 245.13,-135.51"/>
<polygon fill="#63b8ff" stroke="#63b8ff" points="246.4,-132.23 235.83,-132.9 244.51,-138.97 246.4,-132.23"/>
</a>
</g>
</g>
<!-- Node7 -->
<g id="Node000007" class="node">
<title>Node7</title>
<g id="a_Node000007"><a xlink:title=" ">
<polygon fill="#e0e0e0" stroke="#999999" points="338.38,-132 264.62,-132 264.62,-112 338.38,-112 338.38,-132"/>
<text xml:space="preserve" text-anchor="middle" x="301.5" y="-118.5" font-family="Helvetica,sans-Serif" font-size="10.00">Misc/Paths.h</text>
</a>
</g>
</g>
<!-- Node1&#45;&gt;Node7 -->
<g id="edge7_Node000001_Node000007" class="edge">
<title>Node1&#45;&gt;Node7</title>
<g id="a_edge7_Node000001_Node000007"><a xlink:title=" ">
<path fill="none" stroke="#63b8ff" d="M385.4,-167.55C368.07,-158.35 346.2,-146.74 329.14,-137.68"/>
<polygon fill="#63b8ff" stroke="#63b8ff" points="331.03,-134.72 320.56,-133.12 327.75,-140.9 331.03,-134.72"/>
</a>
</g>
</g>
<!-- Node8 -->
<g id="Node000008" class="node">
<title>Node8</title>
<g id="a_Node000008"><a xlink:title=" ">
<polygon fill="#e0e0e0" stroke="#999999" points="472.75,-132 356.25,-132 356.25,-112 472.75,-112 472.75,-132"/>
<text xml:space="preserve" text-anchor="middle" x="414.5" y="-118.5" font-family="Helvetica,sans-Serif" font-size="10.00">JsonObjectConverter.h</text>
</a>
</g>
</g>
<!-- Node1&#45;&gt;Node8 -->
<g id="edge8_Node000001_Node000008" class="edge">
<title>Node1&#45;&gt;Node8</title>
<g id="a_edge8_Node000001_Node000008"><a xlink:title=" ">
<path fill="none" stroke="#63b8ff" d="M414.5,-167.55C414.5,-160.34 414.5,-151.66 414.5,-143.88"/>
<polygon fill="#63b8ff" stroke="#63b8ff" points="418,-143.92 414.5,-133.92 411,-143.92 418,-143.92"/>
</a>
</g>
</g>
<!-- Node9 -->
<g id="Node000009" class="node">
<title>Node9</title>
<g id="a_Node000009"><a xlink:title=" ">
<polygon fill="#e0e0e0" stroke="#999999" points="632.5,-132 490.5,-132 490.5,-112 632.5,-112 632.5,-132"/>
<text xml:space="preserve" text-anchor="middle" x="561.5" y="-118.5" font-family="Helvetica,sans-Serif" font-size="10.00">Serialization/JsonSerializer.h</text>
</a>
</g>
</g>
<!-- Node1&#45;&gt;Node9 -->
<g id="edge9_Node000001_Node000009" class="edge">
<title>Node1&#45;&gt;Node9</title>
<g id="a_edge9_Node000001_Node000009"><a xlink:title=" ">
<path fill="none" stroke="#63b8ff" d="M452.36,-167.55C475.75,-158 505.5,-145.86 528.03,-136.66"/>
<polygon fill="#63b8ff" stroke="#63b8ff" points="529.11,-140 537.05,-132.98 526.47,-133.52 529.11,-140"/>
</a>
</g>
</g>
<!-- Node10 -->
<g id="Node000010" class="node">
<title>Node10</title>
<g id="a_Node000010"><a xlink:title=" ">
<polygon fill="#e0e0e0" stroke="#999999" points="778,-132 651,-132 651,-112 778,-112 778,-132"/>
<text xml:space="preserve" text-anchor="middle" x="714.5" y="-118.5" font-family="Helvetica,sans-Serif" font-size="10.00">Serialization/JsonWriter.h</text>
</a>
</g>
</g>
<!-- Node1&#45;&gt;Node10 -->
<g id="edge10_Node000001_Node000010" class="edge">
<title>Node1&#45;&gt;Node10</title>
<g id="a_edge10_Node000001_Node000010"><a xlink:title=" ">
<path fill="none" stroke="#63b8ff" d="M484.08,-169.08C536.27,-158.65 606.9,-144.52 656.15,-134.67"/>
<polygon fill="#63b8ff" stroke="#63b8ff" points="656.65,-138.14 665.77,-132.75 655.28,-131.28 656.65,-138.14"/>
</a>
</g>
</g>
<!-- Node11 -->
<g id="Node000011" class="node">
<title>Node11</title>
<g id="a_Node000011"><a xlink:title=" ">
<polygon fill="#e0e0e0" stroke="#999999" points="929,-132 796,-132 796,-112 929,-112 929,-132"/>
<text xml:space="preserve" text-anchor="middle" x="862.5" y="-118.5" font-family="Helvetica,sans-Serif" font-size="10.00">Serialization/JsonReader.h</text>
</a>
</g>
</g>
<!-- Node1&#45;&gt;Node11 -->
<g id="edge11_Node000001_Node000011" class="edge">
<title>Node1&#45;&gt;Node11</title>
<g id="a_edge11_Node000001_Node000011"><a xlink:title=" ">
<path fill="none" stroke="#63b8ff" d="M484.01,-173.69C565.31,-162.8 699.55,-144.82 784.38,-133.46"/>
<polygon fill="#63b8ff" stroke="#63b8ff" points="784.81,-136.94 794.26,-132.14 783.88,-130 784.81,-136.94"/>
</a>
</g>
</g>
<!-- Node3 -->
<g id="Node000003" class="node">
<title>Node3</title>
<g id="a_Node000003"><a xlink:title=" ">
<polygon fill="#e0e0e0" stroke="#999999" points="79,-20 0,-20 0,0 79,0 79,-20"/>
<text xml:space="preserve" text-anchor="middle" x="39.5" y="-6.5" font-family="Helvetica,sans-Serif" font-size="10.00">CoreMinimal.h</text>
</a>
</g>
</g>
<!-- Node2&#45;&gt;Node3 -->
<g id="edge2_Node000002_Node000003" class="edge">
<title>Node2&#45;&gt;Node3</title>
<g id="a_edge2_Node000002_Node000003"><a xlink:title=" ">
<path fill="none" stroke="#63b8ff" d="M82.37,-111.59C75.21,-102.87 64.94,-89.29 58.5,-76 51.58,-61.73 46.68,-44.45 43.59,-31.3"/>
<polygon fill="#63b8ff" stroke="#63b8ff" points="47.04,-30.69 41.5,-21.66 40.2,-32.17 47.04,-30.69"/>
</a>
</g>
</g>
<!-- Node4 -->
<g id="Node000004" class="node">
<title>Node4</title>
<g id="a_Node000004"><a xlink:href="_simulation_config_8h.html" target="_top" xlink:title=" ">
<polygon fill="white" stroke="#666666" points="215.12,-76 67.88,-76 67.88,-56 215.12,-56 215.12,-76"/>
<text xml:space="preserve" text-anchor="middle" x="141.5" y="-62.5" font-family="Helvetica,sans-Serif" font-size="10.00">Simulation/SimulationConfig.h</text>
</a>
</g>
</g>
<!-- Node2&#45;&gt;Node4 -->
<g id="edge3_Node000002_Node000004" class="edge">
<title>Node2&#45;&gt;Node4</title>
<g id="a_edge3_Node000002_Node000004"><a xlink:title=" ">
<path fill="none" stroke="#63b8ff" d="M99.38,-111.59C106.4,-104.16 116.4,-93.58 124.89,-84.58"/>
<polygon fill="#63b8ff" stroke="#63b8ff" points="127.36,-87.07 131.68,-77.4 122.27,-82.27 127.36,-87.07"/>
</a>
</g>
</g>
<!-- Node4&#45;&gt;Node3 -->
<g id="edge4_Node000004_Node000003" class="edge">
<title>Node4&#45;&gt;Node3</title>
<g id="a_edge4_Node000004_Node000003"><a xlink:title=" ">
<path fill="none" stroke="#63b8ff" d="M123.73,-55.59C108.18,-47.36 85.32,-35.26 67.34,-25.74"/>
<polygon fill="#63b8ff" stroke="#63b8ff" points="69.22,-22.77 58.74,-21.19 65.94,-28.96 69.22,-22.77"/>
</a>
</g>
</g>
<!-- Node5 -->
<g id="Node000005" class="node">
<title>Node5</title>
<g id="a_Node000005"><a xlink:title=" ">
<polygon fill="#e0e0e0" stroke="#999999" points="241.62,-20 97.38,-20 97.38,0 241.62,0 241.62,-20"/>
<text xml:space="preserve" text-anchor="middle" x="169.5" y="-6.5" font-family="Helvetica,sans-Serif" font-size="10.00">SimulationConfig.generated.h</text>
</a>
</g>
</g>
<!-- Node4&#45;&gt;Node5 -->
<g id="edge5_Node000004_Node000005" class="edge">
<title>Node4&#45;&gt;Node5</title>
<g id="a_edge5_Node000004_Node000005"><a xlink:title=" ">
<path fill="none" stroke="#63b8ff" d="M146.38,-55.59C149.99,-48.63 155.04,-38.89 159.5,-30.29"/>
<polygon fill="#63b8ff" stroke="#63b8ff" points="162.49,-32.13 163.98,-21.64 156.27,-28.91 162.49,-32.13"/>
</a>
</g>
</g>
</g>
</svg>
