<?xml version="1.0" encoding="UTF-8" standalone="no"?>
<!DOCTYPE svg PUBLIC "-//W3C//DTD SVG 1.1//EN"
 "http://www.w3.org/Graphics/SVG/1.1/DTD/svg11.dtd">
<!-- Generated by graphviz version 14.1.0 (20251206.1807)
 -->
<!-- Title: Source/PyranoEditor/Private/UI/PyranoBlueprintLibrary.cpp Pages: 1 -->
<svg width="1074pt" height="244pt"
 viewBox="0.00 0.00 1074.00 244.00" xmlns="http://www.w3.org/2000/svg" xmlns:xlink="http://www.w3.org/1999/xlink">
<g id="graph0" class="graph" transform="scale(1 1) rotate(0) translate(4 240)">
<title>Source/PyranoEditor/Private/UI/PyranoBlueprintLibrary.cpp</title>
<!-- Node1 -->
<g id="Node000001" class="node">
<title>Node1</title>
<g id="a_Node000001"><a xlink:title=" ">
<polygon fill="#999999" stroke="#666666" points="630.46,-236 495.21,-236 495.21,-192 630.46,-192 630.46,-236"/>
<text xml:space="preserve" text-anchor="start" x="503.21" y="-222.5" font-family="Helvetica,sans-Serif" font-size="10.00">Source/PyranoEditor</text>
<text xml:space="preserve" text-anchor="start" x="503.21" y="-210.5" font-family="Helvetica,sans-Serif" font-size="10.00">/Private/UI/PyranoBlueprint</text>
<text xml:space="preserve" text-anchor="middle" x="562.84" y="-198.5" font-family="Helvetica,sans-Serif" font-size="10.00">Library.cpp</text>
</a>
</g>
</g>
<!-- Node2 -->
<g id="Node000002" class="node">
<title>Node2</title>
<g id="a_Node000002"><a xlink:href="_pyrano_blueprint_library_8h.html" target="_top" xlink:title=" ">
<polygon fill="white" stroke="#666666" points="235.46,-150 100.21,-150 100.21,-130 235.46,-130 235.46,-150"/>
<text xml:space="preserve" text-anchor="middle" x="167.84" y="-136.5" font-family="Helvetica,sans-Serif" font-size="10.00">UI/PyranoBlueprintLibrary.h</text>
</a>
</g>
</g>
<!-- Node1&#45;&gt;Node2 -->
<g id="edge1_Node000001_Node000002" class="edge">
<title>Node1&#45;&gt;Node2</title>
<g id="a_edge1_Node000001_Node000002"><a xlink:title=" ">
<path fill="none" stroke="#63b8ff" d="M494.94,-200.62C420.82,-187.11 303.1,-165.65 230.93,-152.5"/>
<polygon fill="#63b8ff" stroke="#63b8ff" points="231.71,-149.08 221.24,-150.73 230.45,-155.97 231.71,-149.08"/>
</a>
</g>
</g>
<!-- Node6 -->
<g id="Node000006" class="node">
<title>Node6</title>
<g id="a_Node000006"><a xlink:href="_plan_storage_8h.html" target="_top" xlink:title=" ">
<polygon fill="white" stroke="#666666" points="417.34,-150 326.34,-150 326.34,-130 417.34,-130 417.34,-150"/>
<text xml:space="preserve" text-anchor="middle" x="371.84" y="-136.5" font-family="Helvetica,sans-Serif" font-size="10.00">UI/PlanStorage.h</text>
</a>
</g>
</g>
<!-- Node1&#45;&gt;Node6 -->
<g id="edge5_Node000001_Node000006" class="edge">
<title>Node1&#45;&gt;Node6</title>
<g id="a_edge5_Node000001_Node000006"><a xlink:title=" ">
<path fill="none" stroke="#63b8ff" d="M506.05,-191.59C474.16,-179.57 435.33,-164.93 407.66,-154.5"/>
<polygon fill="#63b8ff" stroke="#63b8ff" points="408.91,-151.23 398.32,-150.98 406.44,-157.78 408.91,-151.23"/>
</a>
</g>
</g>
<!-- Node7 -->
<g id="Node000007" class="node">
<title>Node7</title>
<g id="a_Node000007"><a xlink:href="_simulation_config_8h.html" target="_top" xlink:title=" ">
<polygon fill="white" stroke="#666666" points="533.46,-82 386.21,-82 386.21,-62 533.46,-62 533.46,-82"/>
<text xml:space="preserve" text-anchor="middle" x="459.84" y="-68.5" font-family="Helvetica,sans-Serif" font-size="10.00">Simulation/SimulationConfig.h</text>
</a>
</g>
</g>
<!-- Node1&#45;&gt;Node7 -->
<g id="edge10_Node000001_Node000007" class="edge">
<title>Node1&#45;&gt;Node7</title>
<g id="a_edge10_Node000001_Node000007"><a xlink:title=" ">
<path fill="none" stroke="#63b8ff" d="M505.15,-191.63C489.5,-182.99 474.28,-171.33 464.84,-156 453.27,-137.22 453.73,-111.28 455.98,-93.43"/>
<polygon fill="#63b8ff" stroke="#63b8ff" points="459.4,-94.23 457.51,-83.8 452.49,-93.13 459.4,-94.23"/>
</a>
</g>
</g>
<!-- Node9 -->
<g id="Node000009" class="node">
<title>Node9</title>
<g id="a_Node000009"><a xlink:title=" ">
<polygon fill="#e0e0e0" stroke="#999999" points="547.71,-150 473.96,-150 473.96,-130 547.71,-130 547.71,-150"/>
<text xml:space="preserve" text-anchor="middle" x="510.84" y="-136.5" font-family="Helvetica,sans-Serif" font-size="10.00">Misc/Paths.h</text>
</a>
</g>
</g>
<!-- Node1&#45;&gt;Node9 -->
<g id="edge11_Node000001_Node000009" class="edge">
<title>Node1&#45;&gt;Node9</title>
<g id="a_edge11_Node000001_Node000009"><a xlink:title=" ">
<path fill="none" stroke="#63b8ff" d="M547.52,-191.79C540.14,-181.57 531.36,-169.42 524.25,-159.57"/>
<polygon fill="#63b8ff" stroke="#63b8ff" points="527.14,-157.6 518.45,-151.54 521.47,-161.69 527.14,-157.6"/>
</a>
</g>
</g>
<!-- Node10 -->
<g id="Node000010" class="node">
<title>Node10</title>
<g id="a_Node000010"><a xlink:title=" ">
<polygon fill="#e0e0e0" stroke="#999999" points="665.84,-150 565.84,-150 565.84,-130 665.84,-130 665.84,-150"/>
<text xml:space="preserve" text-anchor="middle" x="615.84" y="-136.5" font-family="Helvetica,sans-Serif" font-size="10.00">HAL/FileManager.h</text>
</a>
</g>
</g>
<!-- Node1&#45;&gt;Node10 -->
<g id="edge12_Node000001_Node000010" class="edge">
<title>Node1&#45;&gt;Node10</title>
<g id="a_edge12_Node000001_Node000010"><a xlink:title=" ">
<path fill="none" stroke="#63b8ff" d="M578.45,-191.79C585.98,-181.57 594.92,-169.42 602.17,-159.57"/>
<polygon fill="#63b8ff" stroke="#63b8ff" points="604.98,-161.66 608.09,-151.53 599.34,-157.51 604.98,-161.66"/>
</a>
</g>
</g>
<!-- Node11 -->
<g id="Node000011" class="node">
<title>Node11</title>
<g id="a_Node000011"><a xlink:title=" ">
<polygon fill="#e0e0e0" stroke="#999999" points="813.46,-150 684.21,-150 684.21,-130 813.46,-130 813.46,-150"/>
<text xml:space="preserve" text-anchor="middle" x="748.84" y="-136.5" font-family="Helvetica,sans-Serif" font-size="10.00">DesktopPlatformModule.h</text>
</a>
</g>
</g>
<!-- Node1&#45;&gt;Node11 -->
<g id="edge13_Node000001_Node000011" class="edge">
<title>Node1&#45;&gt;Node11</title>
<g id="a_edge13_Node000001_Node000011"><a xlink:title=" ">
<path fill="none" stroke="#63b8ff" d="M618.14,-191.59C649.2,-179.57 687.01,-164.93 713.96,-154.5"/>
<polygon fill="#63b8ff" stroke="#63b8ff" points="714.96,-157.87 723.02,-150.99 712.43,-151.34 714.96,-157.87"/>
</a>
</g>
</g>
<!-- Node12 -->
<g id="Node000012" class="node">
<title>Node12</title>
<g id="a_Node000012"><a xlink:title=" ">
<polygon fill="#e0e0e0" stroke="#999999" points="932.21,-150 831.46,-150 831.46,-130 932.21,-130 932.21,-150"/>
<text xml:space="preserve" text-anchor="middle" x="881.84" y="-136.5" font-family="Helvetica,sans-Serif" font-size="10.00">IDesktopPlatform.h</text>
</a>
</g>
</g>
<!-- Node1&#45;&gt;Node12 -->
<g id="edge14_Node000001_Node000012" class="edge">
<title>Node1&#45;&gt;Node12</title>
<g id="a_edge14_Node000001_Node000012"><a xlink:title=" ">
<path fill="none" stroke="#63b8ff" d="M630.86,-198.73C683.4,-187.56 757.86,-171.38 822.84,-156 826.6,-155.11 830.5,-154.17 834.41,-153.2"/>
<polygon fill="#63b8ff" stroke="#63b8ff" points="835.05,-156.65 843.91,-150.84 833.36,-149.86 835.05,-156.65"/>
</a>
</g>
</g>
<!-- Node13 -->
<g id="Node000013" class="node">
<title>Node13</title>
<g id="a_Node000013"><a xlink:title=" ">
<polygon fill="#e0e0e0" stroke="#999999" points="1065.71,-156 949.96,-156 949.96,-124 1065.71,-124 1065.71,-156"/>
<text xml:space="preserve" text-anchor="start" x="957.96" y="-142.5" font-family="Helvetica,sans-Serif" font-size="10.00">Framework/Application</text>
<text xml:space="preserve" text-anchor="middle" x="1007.84" y="-130.5" font-family="Helvetica,sans-Serif" font-size="10.00">/SlateApplication.h</text>
</a>
</g>
</g>
<!-- Node1&#45;&gt;Node13 -->
<g id="edge15_Node000001_Node000013" class="edge">
<title>Node1&#45;&gt;Node13</title>
<g id="a_edge15_Node000001_Node000013"><a xlink:title=" ">
<path fill="none" stroke="#63b8ff" d="M630.68,-204.24C704.15,-194.42 825.03,-177.31 938.8,-156.31"/>
<polygon fill="#63b8ff" stroke="#63b8ff" points="939.11,-159.81 948.3,-154.54 937.83,-152.93 939.11,-159.81"/>
</a>
</g>
</g>
<!-- Node3 -->
<g id="Node000003" class="node">
<title>Node3</title>
<g id="a_Node000003"><a xlink:title=" ">
<polygon fill="#e0e0e0" stroke="#999999" points="383.34,-20 304.34,-20 304.34,0 383.34,0 383.34,-20"/>
<text xml:space="preserve" text-anchor="middle" x="343.84" y="-6.5" font-family="Helvetica,sans-Serif" font-size="10.00">CoreMinimal.h</text>
</a>
</g>
</g>
<!-- Node2&#45;&gt;Node3 -->
<g id="edge2_Node000002_Node000003" class="edge">
<title>Node2&#45;&gt;Node3</title>
<g id="a_edge2_Node000002_Node000003"><a xlink:title=" ">
<path fill="none" stroke="#63b8ff" d="M108.5,-129.55C50.38,-117.83 -24.88,-94.56 8.84,-56 45.09,-14.55 208.23,-9.69 292.73,-10.05"/>
<polygon fill="#63b8ff" stroke="#63b8ff" points="292.57,-13.55 302.6,-10.12 292.62,-6.55 292.57,-13.55"/>
</a>
</g>
</g>
<!-- Node4 -->
<g id="Node000004" class="node">
<title>Node4</title>
<g id="a_Node000004"><a xlink:title=" ">
<polygon fill="#e0e0e0" stroke="#999999" points="143.59,-88 18.09,-88 18.09,-56 143.59,-56 143.59,-88"/>
<text xml:space="preserve" text-anchor="start" x="26.09" y="-74.5" font-family="Helvetica,sans-Serif" font-size="10.00">Kismet/BlueprintFunction</text>
<text xml:space="preserve" text-anchor="middle" x="80.84" y="-62.5" font-family="Helvetica,sans-Serif" font-size="10.00">Library.h</text>
</a>
</g>
</g>
<!-- Node2&#45;&gt;Node4 -->
<g id="edge3_Node000002_Node000004" class="edge">
<title>Node2&#45;&gt;Node4</title>
<g id="a_edge3_Node000002_Node000004"><a xlink:title=" ">
<path fill="none" stroke="#63b8ff" d="M155.37,-129.54C143.62,-120.63 125.57,-106.93 110.17,-95.25"/>
<polygon fill="#63b8ff" stroke="#63b8ff" points="112.3,-92.47 102.21,-89.22 108.07,-98.05 112.3,-92.47"/>
</a>
</g>
</g>
<!-- Node5 -->
<g id="Node000005" class="node">
<title>Node5</title>
<g id="a_Node000005"><a xlink:title=" ">
<polygon fill="#e0e0e0" stroke="#999999" points="329.59,-82 162.09,-82 162.09,-62 329.59,-62 329.59,-82"/>
<text xml:space="preserve" text-anchor="middle" x="245.84" y="-68.5" font-family="Helvetica,sans-Serif" font-size="10.00">PyranoBlueprintLibrary.generated.h</text>
</a>
</g>
</g>
<!-- Node2&#45;&gt;Node5 -->
<g id="edge4_Node000002_Node000005" class="edge">
<title>Node2&#45;&gt;Node5</title>
<g id="a_edge4_Node000002_Node000005"><a xlink:title=" ">
<path fill="none" stroke="#63b8ff" d="M179.01,-129.54C191.29,-119.15 211.25,-102.27 226.17,-89.65"/>
<polygon fill="#63b8ff" stroke="#63b8ff" points="228.16,-92.55 233.53,-83.42 223.63,-87.2 228.16,-92.55"/>
</a>
</g>
</g>
<!-- Node6&#45;&gt;Node3 -->
<g id="edge6_Node000006_Node000003" class="edge">
<title>Node6&#45;&gt;Node3</title>
<g id="a_edge6_Node000006_Node000003"><a xlink:title=" ">
<path fill="none" stroke="#63b8ff" d="M369.83,-129.79C365.35,-109.32 354.47,-59.61 348.3,-31.41"/>
<polygon fill="#63b8ff" stroke="#63b8ff" points="351.79,-30.97 346.23,-21.95 344.95,-32.46 351.79,-30.97"/>
</a>
</g>
</g>
<!-- Node6&#45;&gt;Node7 -->
<g id="edge7_Node000006_Node000007" class="edge">
<title>Node6&#45;&gt;Node7</title>
<g id="a_edge7_Node000006_Node000007"><a xlink:title=" ">
<path fill="none" stroke="#63b8ff" d="M384.45,-129.54C398.43,-119.06 421.24,-101.95 438.12,-89.29"/>
<polygon fill="#63b8ff" stroke="#63b8ff" points="440.14,-92.15 446.04,-83.35 435.94,-86.55 440.14,-92.15"/>
</a>
</g>
</g>
<!-- Node7&#45;&gt;Node3 -->
<g id="edge8_Node000007_Node000003" class="edge">
<title>Node7&#45;&gt;Node3</title>
<g id="a_edge8_Node000007_Node000003"><a xlink:title=" ">
<path fill="none" stroke="#63b8ff" d="M441.71,-61.62C422.99,-51.94 393.51,-36.69 371.79,-25.46"/>
<polygon fill="#63b8ff" stroke="#63b8ff" points="373.67,-22.49 363.18,-21 370.46,-28.71 373.67,-22.49"/>
</a>
</g>
</g>
<!-- Node8 -->
<g id="Node000008" class="node">
<title>Node8</title>
<g id="a_Node000008"><a xlink:title=" ">
<polygon fill="#e0e0e0" stroke="#999999" points="545.96,-20 401.71,-20 401.71,0 545.96,0 545.96,-20"/>
<text xml:space="preserve" text-anchor="middle" x="473.84" y="-6.5" font-family="Helvetica,sans-Serif" font-size="10.00">SimulationConfig.generated.h</text>
</a>
</g>
</g>
<!-- Node7&#45;&gt;Node8 -->
<g id="edge9_Node000007_Node000008" class="edge">
<title>Node7&#45;&gt;Node8</title>
<g id="a_edge9_Node000007_Node000008"><a xlink:title=" ">
<path fill="none" stroke="#63b8ff" d="M462.03,-61.62C463.93,-53.48 466.75,-41.39 469.16,-31.07"/>
<polygon fill="#63b8ff" stroke="#63b8ff" points="472.51,-32.12 471.37,-21.59 465.69,-30.53 472.51,-32.12"/>
</a>
</g>
</g>
</g>
</svg>
