<?xml version="1.0" encoding="UTF-8" standalone="no"?>
<!DOCTYPE svg PUBLIC "-//W3C//DTD SVG 1.1//EN"
 "http://www.w3.org/Graphics/SVG/1.1/DTD/svg11.dtd">
<!-- Generated by graphviz version 14.1.0 (20251206.1807)
 -->
<!-- Title: Source/PyranoEditor/Private/Subsystems/PyranoEditorSubsystem.h Pages: 1 -->
<svg width="1401pt" height="232pt"
 viewBox="0.00 0.00 1401.00 232.00" xmlns="http://www.w3.org/2000/svg" xmlns:xlink="http://www.w3.org/1999/xlink">
<g id="graph0" class="graph" transform="scale(1 1) rotate(0) translate(4 228)">
<title>Source/PyranoEditor/Private/Subsystems/PyranoEditorSubsystem.h</title>
<!-- Node1 -->
<g id="Node000001" class="node">
<title>Node1</title>
<g id="a_Node000001"><a xlink:title=" ">
<polygon fill="#999999" stroke="#666666" points="655.62,-224 522.62,-224 522.62,-180 655.62,-180 655.62,-224"/>
<text xml:space="preserve" text-anchor="start" x="530.62" y="-210.5" font-family="Helvetica,sans-Serif" font-size="10.00">Source/PyranoEditor</text>
<text xml:space="preserve" text-anchor="start" x="530.62" y="-198.5" font-family="Helvetica,sans-Serif" font-size="10.00">/Private/Subsystems</text>
<text xml:space="preserve" text-anchor="middle" x="589.12" y="-186.5" font-family="Helvetica,sans-Serif" font-size="10.00">/PyranoEditorSubsystem.h</text>
</a>
</g>
</g>
<!-- Node2 -->
<g id="Node000002" class="node">
<title>Node2</title>
<g id="a_Node000002"><a xlink:title=" ">
<polygon fill="#e0e0e0" stroke="#999999" points="692.62,-20 613.62,-20 613.62,0 692.62,0 692.62,-20"/>
<text xml:space="preserve" text-anchor="middle" x="653.12" y="-6.5" font-family="Helvetica,sans-Serif" font-size="10.00">CoreMinimal.h</text>
</a>
</g>
</g>
<!-- Node1&#45;&gt;Node2 -->
<g id="edge1_Node000001_Node000002" class="edge">
<title>Node1&#45;&gt;Node2</title>
<g id="a_edge1_Node000001_Node000002"><a xlink:title=" ">
<path fill="none" stroke="#63b8ff" d="M563.68,-179.69C531.77,-150.35 484.62,-96.57 514.12,-56 534.12,-28.5 571.29,-17.47 602.16,-13.19"/>
<polygon fill="#63b8ff" stroke="#63b8ff" points="602.17,-16.71 611.7,-12.07 601.36,-9.76 602.17,-16.71"/>
</a>
</g>
</g>
<!-- Node3 -->
<g id="Node000003" class="node">
<title>Node3</title>
<g id="a_Node000003"><a xlink:title=" ">
<polygon fill="#e0e0e0" stroke="#999999" points="236.38,-138 161.88,-138 161.88,-118 236.38,-118 236.38,-138"/>
<text xml:space="preserve" text-anchor="middle" x="199.12" y="-124.5" font-family="Helvetica,sans-Serif" font-size="10.00">EngineUtils.h</text>
</a>
</g>
</g>
<!-- Node1&#45;&gt;Node3 -->
<g id="edge2_Node000001_Node000003" class="edge">
<title>Node1&#45;&gt;Node3</title>
<g id="a_edge2_Node000001_Node000003"><a xlink:title=" ">
<path fill="none" stroke="#63b8ff" d="M522.25,-192.96C452.49,-183.87 340.24,-167.25 245.12,-144 242.34,-143.32 239.48,-142.55 236.62,-141.74"/>
<polygon fill="#63b8ff" stroke="#63b8ff" points="237.72,-138.41 227.13,-138.86 235.68,-145.11 237.72,-138.41"/>
</a>
</g>
</g>
<!-- Node4 -->
<g id="Node000004" class="node">
<title>Node4</title>
<g id="a_Node000004"><a xlink:title=" ">
<polygon fill="#e0e0e0" stroke="#999999" points="367.88,-138 254.38,-138 254.38,-118 367.88,-118 367.88,-138"/>
<text xml:space="preserve" text-anchor="middle" x="311.12" y="-124.5" font-family="Helvetica,sans-Serif" font-size="10.00">Engine/EngineTypes.h</text>
</a>
</g>
</g>
<!-- Node1&#45;&gt;Node4 -->
<g id="edge3_Node000001_Node000004" class="edge">
<title>Node1&#45;&gt;Node4</title>
<g id="a_edge3_Node000001_Node000004"><a xlink:title=" ">
<path fill="none" stroke="#63b8ff" d="M522.18,-183.66C471.68,-170.58 403.63,-152.96 358.62,-141.3"/>
<polygon fill="#63b8ff" stroke="#63b8ff" points="359.72,-137.97 349.16,-138.85 357.96,-144.75 359.72,-137.97"/>
</a>
</g>
</g>
<!-- Node5 -->
<g id="Node000005" class="node">
<title>Node5</title>
<g id="a_Node000005"><a xlink:title=" ">
<polygon fill="#e0e0e0" stroke="#999999" points="484.75,-138 385.5,-138 385.5,-118 484.75,-118 484.75,-138"/>
<text xml:space="preserve" text-anchor="middle" x="435.12" y="-124.5" font-family="Helvetica,sans-Serif" font-size="10.00">EditorSubsystem.h</text>
</a>
</g>
</g>
<!-- Node1&#45;&gt;Node5 -->
<g id="edge4_Node000001_Node000005" class="edge">
<title>Node1&#45;&gt;Node5</title>
<g id="a_edge4_Node000001_Node000005"><a xlink:title=" ">
<path fill="none" stroke="#63b8ff" d="M543.34,-179.59C518.19,-167.84 487.7,-153.58 465.51,-143.2"/>
<polygon fill="#63b8ff" stroke="#63b8ff" points="467.25,-140.15 456.7,-139.09 464.28,-146.49 467.25,-140.15"/>
</a>
</g>
</g>
<!-- Node6 -->
<g id="Node000006" class="node">
<title>Node6</title>
<g id="a_Node000006"><a xlink:href="_pyrano_console_log_sink_8h.html" target="_top" xlink:title=" ">
<polygon fill="white" stroke="#666666" points="789.75,-144 654.5,-144 654.5,-112 789.75,-112 789.75,-144"/>
<text xml:space="preserve" text-anchor="start" x="662.5" y="-130.5" font-family="Helvetica,sans-Serif" font-size="10.00">Logging/PyranoConsoleLog</text>
<text xml:space="preserve" text-anchor="middle" x="722.12" y="-118.5" font-family="Helvetica,sans-Serif" font-size="10.00">Sink.h</text>
</a>
</g>
</g>
<!-- Node1&#45;&gt;Node6 -->
<g id="edge5_Node000001_Node000006" class="edge">
<title>Node1&#45;&gt;Node6</title>
<g id="a_edge5_Node000001_Node000006"><a xlink:title=" ">
<path fill="none" stroke="#63b8ff" d="M628.67,-179.59C646.08,-170.17 666.46,-159.14 683.73,-149.78"/>
<polygon fill="#63b8ff" stroke="#63b8ff" points="685.04,-153.05 692.17,-145.22 681.71,-146.9 685.04,-153.05"/>
</a>
</g>
</g>
<!-- Node8 -->
<g id="Node000008" class="node">
<title>Node8</title>
<g id="a_Node000008"><a xlink:href="_capture_request_8h.html" target="_top" xlink:title=" ">
<polygon fill="white" stroke="#666666" points="144.25,-138 0,-138 0,-118 144.25,-118 144.25,-138"/>
<text xml:space="preserve" text-anchor="middle" x="72.12" y="-124.5" font-family="Helvetica,sans-Serif" font-size="10.00">Simulation/CaptureRequest.h</text>
</a>
</g>
</g>
<!-- Node1&#45;&gt;Node8 -->
<g id="edge8_Node000001_Node000008" class="edge">
<title>Node1&#45;&gt;Node8</title>
<g id="a_edge8_Node000001_Node000008"><a xlink:title=" ">
<path fill="none" stroke="#63b8ff" d="M522.49,-193.4C436.83,-183.38 283.58,-164.59 153.12,-144 146.26,-142.92 139.09,-141.71 131.97,-140.45"/>
<polygon fill="#63b8ff" stroke="#63b8ff" points="132.83,-137.05 122.37,-138.73 131.6,-143.94 132.83,-137.05"/>
</a>
</g>
</g>
<!-- Node10 -->
<g id="Node000010" class="node">
<title>Node10</title>
<g id="a_Node000010"><a xlink:href="_sensor_info_8h.html" target="_top" xlink:title=" ">
<polygon fill="white" stroke="#666666" points="636.88,-138 541.38,-138 541.38,-118 636.88,-118 636.88,-138"/>
<text xml:space="preserve" text-anchor="middle" x="589.12" y="-124.5" font-family="Helvetica,sans-Serif" font-size="10.00">Data/SensorInfo.h</text>
</a>
</g>
</g>
<!-- Node1&#45;&gt;Node10 -->
<g id="edge11_Node000001_Node000010" class="edge">
<title>Node1&#45;&gt;Node10</title>
<g id="a_edge11_Node000001_Node000010"><a xlink:title=" ">
<path fill="none" stroke="#63b8ff" d="M589.12,-179.79C589.12,-170.32 589.12,-159.2 589.12,-149.78"/>
<polygon fill="#63b8ff" stroke="#63b8ff" points="592.63,-149.82 589.13,-139.82 585.63,-149.82 592.63,-149.82"/>
</a>
</g>
</g>
<!-- Node12 -->
<g id="Node000012" class="node">
<title>Node12</title>
<g id="a_Node000012"><a xlink:href="_simulation_config_8h.html" target="_top" xlink:title=" ">
<polygon fill="white" stroke="#666666" points="1392.75,-76 1245.5,-76 1245.5,-56 1392.75,-56 1392.75,-76"/>
<text xml:space="preserve" text-anchor="middle" x="1319.12" y="-62.5" font-family="Helvetica,sans-Serif" font-size="10.00">Simulation/SimulationConfig.h</text>
</a>
</g>
</g>
<!-- Node1&#45;&gt;Node12 -->
<g id="edge14_Node000001_Node000012" class="edge">
<title>Node1&#45;&gt;Node12</title>
<g id="a_edge14_Node000001_Node000012"><a xlink:title=" ">
<path fill="none" stroke="#63b8ff" d="M656.08,-199.25C786.56,-195.02 1069.92,-181.69 1159.12,-144 1179.46,-135.41 1178.04,-123.1 1197.12,-112 1220.8,-98.24 1249.42,-87.41 1273,-79.83"/>
<polygon fill="#63b8ff" stroke="#63b8ff" points="1273.82,-83.24 1282.33,-76.93 1271.74,-76.56 1273.82,-83.24"/>
</a>
</g>
</g>
<!-- Node14 -->
<g id="Node000014" class="node">
<title>Node14</title>
<g id="a_Node000014"><a xlink:href="_irradiance_configuration_8h.html" target="_top" xlink:title=" ">
<polygon fill="white" stroke="#666666" points="1150.5,-138 1001.75,-138 1001.75,-118 1150.5,-118 1150.5,-138"/>
<text xml:space="preserve" text-anchor="middle" x="1076.12" y="-124.5" font-family="Helvetica,sans-Serif" font-size="10.00">Data/IrradianceConfiguration.h</text>
</a>
</g>
</g>
<!-- Node1&#45;&gt;Node14 -->
<g id="edge17_Node000001_Node000014" class="edge">
<title>Node1&#45;&gt;Node14</title>
<g id="a_edge17_Node000001_Node000014"><a xlink:title=" ">
<path fill="none" stroke="#63b8ff" d="M656.07,-191.1C746.39,-177.75 906.78,-154.04 1001.08,-140.09"/>
<polygon fill="#63b8ff" stroke="#63b8ff" points="1001.37,-143.59 1010.75,-138.67 1000.34,-136.67 1001.37,-143.59"/>
</a>
</g>
</g>
<!-- Node17 -->
<g id="Node000017" class="node">
<title>Node17</title>
<g id="a_Node000017"><a xlink:href="_validation_result_8h.html" target="_top" xlink:title=" ">
<polygon fill="white" stroke="#666666" points="926.5,-138 807.75,-138 807.75,-118 926.5,-118 926.5,-138"/>
<text xml:space="preserve" text-anchor="middle" x="867.12" y="-124.5" font-family="Helvetica,sans-Serif" font-size="10.00">Data/ValidationResult.h</text>
</a>
</g>
</g>
<!-- Node1&#45;&gt;Node17 -->
<g id="edge21_Node000001_Node000017" class="edge">
<title>Node1&#45;&gt;Node17</title>
<g id="a_edge21_Node000001_Node000017"><a xlink:title=" ">
<path fill="none" stroke="#63b8ff" d="M656.07,-183.66C706.57,-170.58 774.62,-152.96 819.63,-141.3"/>
<polygon fill="#63b8ff" stroke="#63b8ff" points="820.29,-144.75 829.09,-138.85 818.53,-137.97 820.29,-144.75"/>
</a>
</g>
</g>
<!-- Node19 -->
<g id="Node000019" class="node">
<title>Node19</title>
<g id="a_Node000019"><a xlink:title=" ">
<polygon fill="#e0e0e0" stroke="#999999" points="1382,-138 1206.25,-138 1206.25,-118 1382,-118 1382,-138"/>
<text xml:space="preserve" text-anchor="middle" x="1294.12" y="-124.5" font-family="Helvetica,sans-Serif" font-size="10.00">PyranoEditorSubsystem.generated.h</text>
</a>
</g>
</g>
<!-- Node1&#45;&gt;Node19 -->
<g id="edge24_Node000001_Node000019" class="edge">
<title>Node1&#45;&gt;Node19</title>
<g id="a_edge24_Node000001_Node000019"><a xlink:title=" ">
<path fill="none" stroke="#63b8ff" d="M655.72,-195.84C767,-186.96 997.69,-167.47 1192.12,-144 1201.81,-142.83 1211.99,-141.48 1222.02,-140.08"/>
<polygon fill="#63b8ff" stroke="#63b8ff" points="1222.34,-143.57 1231.75,-138.69 1221.35,-136.64 1222.34,-143.57"/>
</a>
</g>
</g>
<!-- Node6&#45;&gt;Node2 -->
<g id="edge6_Node000006_Node000002" class="edge">
<title>Node6&#45;&gt;Node2</title>
<g id="a_edge6_Node000006_Node000002"><a xlink:title=" ">
<path fill="none" stroke="#63b8ff" d="M751.22,-111.66C773.68,-97.76 798.67,-76.38 784.12,-56 765.99,-30.6 732.58,-19.39 704.04,-14.51"/>
<polygon fill="#63b8ff" stroke="#63b8ff" points="704.88,-11.09 694.48,-13.1 703.86,-18.02 704.88,-11.09"/>
</a>
</g>
</g>
<!-- Node7 -->
<g id="Node000007" class="node">
<title>Node7</title>
<g id="a_Node000007"><a xlink:title=" ">
<polygon fill="#e0e0e0" stroke="#999999" points="775.25,-76 667,-76 667,-56 775.25,-56 775.25,-76"/>
<text xml:space="preserve" text-anchor="middle" x="721.12" y="-62.5" font-family="Helvetica,sans-Serif" font-size="10.00">Misc/OutputDevice.h</text>
</a>
</g>
</g>
<!-- Node6&#45;&gt;Node7 -->
<g id="edge7_Node000006_Node000007" class="edge">
<title>Node6&#45;&gt;Node7</title>
<g id="a_edge7_Node000006_Node000007"><a xlink:title=" ">
<path fill="none" stroke="#63b8ff" d="M721.87,-111.55C721.75,-104.34 721.6,-95.66 721.47,-87.88"/>
<polygon fill="#63b8ff" stroke="#63b8ff" points="724.97,-87.86 721.31,-77.92 717.97,-87.98 724.97,-87.86"/>
</a>
</g>
</g>
<!-- Node8&#45;&gt;Node2 -->
<g id="edge9_Node000008_Node000002" class="edge">
<title>Node8&#45;&gt;Node2</title>
<g id="a_edge9_Node000008_Node000002"><a xlink:title=" ">
<path fill="none" stroke="#63b8ff" d="M71.53,-117.88C71.09,-102.45 72.69,-71.36 91.12,-56 129.91,-23.69 471.07,-14.23 602.14,-11.78"/>
<polygon fill="#63b8ff" stroke="#63b8ff" points="601.97,-15.28 611.91,-11.6 601.84,-8.28 601.97,-15.28"/>
</a>
</g>
</g>
<!-- Node9 -->
<g id="Node000009" class="node">
<title>Node9</title>
<g id="a_Node000009"><a xlink:title=" ">
<polygon fill="#e0e0e0" stroke="#999999" points="241.75,-76 100.5,-76 100.5,-56 241.75,-56 241.75,-76"/>
<text xml:space="preserve" text-anchor="middle" x="171.12" y="-62.5" font-family="Helvetica,sans-Serif" font-size="10.00">CaptureRequest.generated.h</text>
</a>
</g>
</g>
<!-- Node8&#45;&gt;Node9 -->
<g id="edge10_Node000008_Node000009" class="edge">
<title>Node8&#45;&gt;Node9</title>
<g id="a_edge10_Node000008_Node000009"><a xlink:title=" ">
<path fill="none" stroke="#63b8ff" d="M87.59,-117.62C103.21,-108.16 127.6,-93.38 145.99,-82.23"/>
<polygon fill="#63b8ff" stroke="#63b8ff" points="147.73,-85.27 154.47,-77.09 144.1,-79.28 147.73,-85.27"/>
</a>
</g>
</g>
<!-- Node10&#45;&gt;Node2 -->
<g id="edge12_Node000010_Node000002" class="edge">
<title>Node10&#45;&gt;Node2</title>
<g id="a_edge12_Node000010_Node000002"><a xlink:title=" ">
<path fill="none" stroke="#63b8ff" d="M568.51,-117.65C542.96,-104.73 504.79,-80.28 522.12,-56 540.26,-30.6 573.67,-19.39 602.21,-14.51"/>
<polygon fill="#63b8ff" stroke="#63b8ff" points="602.39,-18.02 611.77,-13.1 601.37,-11.09 602.39,-18.02"/>
</a>
</g>
</g>
<!-- Node11 -->
<g id="Node000011" class="node">
<title>Node11</title>
<g id="a_Node000011"><a xlink:title=" ">
<polygon fill="#e0e0e0" stroke="#999999" points="648.75,-76 531.5,-76 531.5,-56 648.75,-56 648.75,-76"/>
<text xml:space="preserve" text-anchor="middle" x="590.12" y="-62.5" font-family="Helvetica,sans-Serif" font-size="10.00">SensorInfo.generated.h</text>
</a>
</g>
</g>
<!-- Node10&#45;&gt;Node11 -->
<g id="edge13_Node000010_Node000011" class="edge">
<title>Node10&#45;&gt;Node11</title>
<g id="a_edge13_Node000010_Node000011"><a xlink:title=" ">
<path fill="none" stroke="#63b8ff" d="M589.28,-117.62C589.42,-109.56 589.61,-97.65 589.78,-87.41"/>
<polygon fill="#63b8ff" stroke="#63b8ff" points="593.28,-87.68 589.95,-77.63 586.28,-87.57 593.28,-87.68"/>
</a>
</g>
</g>
<!-- Node12&#45;&gt;Node2 -->
<g id="edge15_Node000012_Node000002" class="edge">
<title>Node12&#45;&gt;Node2</title>
<g id="a_edge15_Node000012_Node000002"><a xlink:title=" ">
<path fill="none" stroke="#63b8ff" d="M1245.37,-56.88C1242.25,-56.58 1239.16,-56.28 1236.12,-56 1039.96,-37.8 806.17,-21.33 704.54,-14.43"/>
<polygon fill="#63b8ff" stroke="#63b8ff" points="704.82,-10.94 694.61,-13.76 704.35,-17.93 704.82,-10.94"/>
</a>
</g>
</g>
<!-- Node13 -->
<g id="Node000013" class="node">
<title>Node13</title>
<g id="a_Node000013"><a xlink:title=" ">
<polygon fill="#e0e0e0" stroke="#999999" points="1391.25,-20 1247,-20 1247,0 1391.25,0 1391.25,-20"/>
<text xml:space="preserve" text-anchor="middle" x="1319.12" y="-6.5" font-family="Helvetica,sans-Serif" font-size="10.00">SimulationConfig.generated.h</text>
</a>
</g>
</g>
<!-- Node12&#45;&gt;Node13 -->
<g id="edge16_Node000012_Node000013" class="edge">
<title>Node12&#45;&gt;Node13</title>
<g id="a_edge16_Node000012_Node000013"><a xlink:title=" ">
<path fill="none" stroke="#63b8ff" d="M1319.12,-55.59C1319.12,-49.01 1319.12,-39.96 1319.12,-31.73"/>
<polygon fill="#63b8ff" stroke="#63b8ff" points="1322.63,-31.81 1319.13,-21.81 1315.63,-31.81 1322.63,-31.81"/>
</a>
</g>
</g>
<!-- Node14&#45;&gt;Node12 -->
<g id="edge18_Node000014_Node000012" class="edge">
<title>Node14&#45;&gt;Node12</title>
<g id="a_edge18_Node000014_Node000012"><a xlink:title=" ">
<path fill="none" stroke="#63b8ff" d="M1114.36,-117.56C1156.34,-107.19 1223.88,-90.52 1269.82,-79.18"/>
<polygon fill="#63b8ff" stroke="#63b8ff" points="1270.37,-82.64 1279.24,-76.85 1268.69,-75.85 1270.37,-82.64"/>
</a>
</g>
</g>
<!-- Node15 -->
<g id="Node000015" class="node">
<title>Node15</title>
<g id="a_Node000015"><a xlink:title=" ">
<polygon fill="#e0e0e0" stroke="#999999" points="1124.62,-76 1027.62,-76 1027.62,-56 1124.62,-56 1124.62,-76"/>
<text xml:space="preserve" text-anchor="middle" x="1076.12" y="-62.5" font-family="Helvetica,sans-Serif" font-size="10.00">Containers/Array.h</text>
</a>
</g>
</g>
<!-- Node14&#45;&gt;Node15 -->
<g id="edge19_Node000014_Node000015" class="edge">
<title>Node14&#45;&gt;Node15</title>
<g id="a_edge19_Node000014_Node000015"><a xlink:title=" ">
<path fill="none" stroke="#63b8ff" d="M1076.12,-117.62C1076.12,-109.56 1076.12,-97.65 1076.12,-87.41"/>
<polygon fill="#63b8ff" stroke="#63b8ff" points="1079.63,-87.63 1076.13,-77.63 1072.63,-87.63 1079.63,-87.63"/>
</a>
</g>
</g>
<!-- Node16 -->
<g id="Node000016" class="node">
<title>Node16</title>
<g id="a_Node000016"><a xlink:title=" ">
<polygon fill="#e0e0e0" stroke="#999999" points="1227.25,-76 1143,-76 1143,-56 1227.25,-56 1227.25,-76"/>
<text xml:space="preserve" text-anchor="middle" x="1185.12" y="-62.5" font-family="Helvetica,sans-Serif" font-size="10.00">Misc/Optional.h</text>
</a>
</g>
</g>
<!-- Node14&#45;&gt;Node16 -->
<g id="edge20_Node000014_Node000016" class="edge">
<title>Node14&#45;&gt;Node16</title>
<g id="a_edge20_Node000014_Node000016"><a xlink:title=" ">
<path fill="none" stroke="#63b8ff" d="M1093.16,-117.62C1110.59,-108.03 1137.95,-92.97 1158.3,-81.77"/>
<polygon fill="#63b8ff" stroke="#63b8ff" points="1159.81,-84.93 1166.89,-77.04 1156.44,-78.8 1159.81,-84.93"/>
</a>
</g>
</g>
<!-- Node17&#45;&gt;Node2 -->
<g id="edge22_Node000017_Node000002" class="edge">
<title>Node17&#45;&gt;Node2</title>
<g id="a_edge22_Node000017_Node000002"><a xlink:title=" ">
<path fill="none" stroke="#63b8ff" d="M860.84,-117.71C850.14,-102.58 826.91,-72.63 800.12,-56 770.77,-37.77 733.51,-26.47 703.85,-19.75"/>
<polygon fill="#63b8ff" stroke="#63b8ff" points="704.88,-16.39 694.37,-17.72 703.41,-23.24 704.88,-16.39"/>
</a>
</g>
</g>
<!-- Node18 -->
<g id="Node000018" class="node">
<title>Node18</title>
<g id="a_Node000018"><a xlink:title=" ">
<polygon fill="#e0e0e0" stroke="#999999" points="1009.38,-76 868.88,-76 868.88,-56 1009.38,-56 1009.38,-76"/>
<text xml:space="preserve" text-anchor="middle" x="939.12" y="-62.5" font-family="Helvetica,sans-Serif" font-size="10.00">ValidationResult.generated.h</text>
</a>
</g>
</g>
<!-- Node17&#45;&gt;Node18 -->
<g id="edge23_Node000017_Node000018" class="edge">
<title>Node17&#45;&gt;Node18</title>
<g id="a_edge23_Node000017_Node000018"><a xlink:title=" ">
<path fill="none" stroke="#63b8ff" d="M878.38,-117.62C889.32,-108.5 906.19,-94.45 919.38,-83.46"/>
<polygon fill="#63b8ff" stroke="#63b8ff" points="921.59,-86.17 927.03,-77.08 917.1,-80.79 921.59,-86.17"/>
</a>
</g>
</g>
</g>
</svg>
