<?xml version="1.0" encoding="UTF-8" standalone="no"?>
<!DOCTYPE svg PUBLIC "-//W3C//DTD SVG 1.1//EN"
 "http://www.w3.org/Graphics/SVG/1.1/DTD/svg11.dtd">
<!-- Generated by graphviz version 14.1.0 (20251206.1807)
 -->
<!-- Title: Source/PyranoEditor/Private/Subsystems/PyranoEditorSubsystem.cpp Pages: 1 -->
<svg width="2897pt" height="300pt"
 viewBox="0.00 0.00 2897.00 300.00" xmlns="http://www.w3.org/2000/svg" xmlns:xlink="http://www.w3.org/1999/xlink">
<g id="graph0" class="graph" transform="scale(1 1) rotate(0) translate(4 296)">
<title>Source/PyranoEditor/Private/Subsystems/PyranoEditorSubsystem.cpp</title>
<!-- Node1 -->
<g id="Node000001" class="node">
<title>Node1</title>
<g id="a_Node000001"><a xlink:title=" ">
<polygon fill="#999999" stroke="#666666" points="2201.22,-292 2057.72,-292 2057.72,-248 2201.22,-248 2201.22,-292"/>
<text xml:space="preserve" text-anchor="start" x="2065.72" y="-278.5" font-family="Helvetica,sans-Serif" font-size="10.00">Source/PyranoEditor</text>
<text xml:space="preserve" text-anchor="start" x="2065.72" y="-266.5" font-family="Helvetica,sans-Serif" font-size="10.00">/Private/Subsystems</text>
<text xml:space="preserve" text-anchor="middle" x="2129.47" y="-254.5" font-family="Helvetica,sans-Serif" font-size="10.00">/PyranoEditorSubsystem.cpp</text>
</a>
</g>
</g>
<!-- Node2 -->
<g id="Node000002" class="node">
<title>Node2</title>
<g id="a_Node000002"><a xlink:href="_pyrano_editor_subsystem_8h.html" target="_top" xlink:title=" ">
<polygon fill="white" stroke="#666666" points="1141.35,-206 953.6,-206 953.6,-186 1141.35,-186 1141.35,-206"/>
<text xml:space="preserve" text-anchor="middle" x="1047.47" y="-192.5" font-family="Helvetica,sans-Serif" font-size="10.00">Subsystems/PyranoEditorSubsystem.h</text>
</a>
</g>
</g>
<!-- Node1&#45;&gt;Node2 -->
<g id="edge1_Node000001_Node000002" class="edge">
<title>Node1&#45;&gt;Node2</title>
<g id="a_edge1_Node000001_Node000002"><a xlink:title=" ">
<path fill="none" stroke="#63b8ff" d="M2057.64,-264.22C1871.37,-251.83 1372.11,-218.6 1153.01,-204.02"/>
<polygon fill="#63b8ff" stroke="#63b8ff" points="1153.56,-200.55 1143.35,-203.38 1153.09,-207.54 1153.56,-200.55"/>
</a>
</g>
</g>
<!-- Node21 -->
<g id="Node000021" class="node">
<title>Node21</title>
<g id="a_Node000021"><a xlink:title=" ">
<polygon fill="#e0e0e0" stroke="#999999" points="2106.35,-206 2056.6,-206 2056.6,-186 2106.35,-186 2106.35,-206"/>
<text xml:space="preserve" text-anchor="middle" x="2081.47" y="-192.5" font-family="Helvetica,sans-Serif" font-size="10.00">Editor.h</text>
</a>
</g>
</g>
<!-- Node1&#45;&gt;Node21 -->
<g id="edge26_Node000001_Node000021" class="edge">
<title>Node1&#45;&gt;Node21</title>
<g id="a_edge26_Node000001_Node000021"><a xlink:title=" ">
<path fill="none" stroke="#63b8ff" d="M2115.33,-247.79C2108.59,-237.67 2100.59,-225.68 2094.06,-215.88"/>
<polygon fill="#63b8ff" stroke="#63b8ff" points="2096.98,-213.95 2088.52,-207.57 2091.15,-217.83 2096.98,-213.95"/>
</a>
</g>
</g>
<!-- Node22 -->
<g id="Node000022" class="node">
<title>Node22</title>
<g id="a_Node000022"><a xlink:title=" ">
<polygon fill="#e0e0e0" stroke="#999999" points="2232.6,-206 2124.35,-206 2124.35,-186 2232.6,-186 2232.6,-206"/>
<text xml:space="preserve" text-anchor="middle" x="2178.47" y="-192.5" font-family="Helvetica,sans-Serif" font-size="10.00">Editor/EditorEngine.h</text>
</a>
</g>
</g>
<!-- Node1&#45;&gt;Node22 -->
<g id="edge27_Node000001_Node000022" class="edge">
<title>Node1&#45;&gt;Node22</title>
<g id="a_edge27_Node000001_Node000022"><a xlink:title=" ">
<path fill="none" stroke="#63b8ff" d="M2143.91,-247.79C2150.86,-237.57 2159.13,-225.42 2165.83,-215.57"/>
<polygon fill="#63b8ff" stroke="#63b8ff" points="2168.55,-217.8 2171.28,-207.56 2162.76,-213.86 2168.55,-217.8"/>
</a>
</g>
</g>
<!-- Node23 -->
<g id="Node000023" class="node">
<title>Node23</title>
<g id="a_Node000023"><a xlink:title=" ">
<polygon fill="#e0e0e0" stroke="#999999" points="2348.35,-206 2250.6,-206 2250.6,-186 2348.35,-186 2348.35,-206"/>
<text xml:space="preserve" text-anchor="middle" x="2299.47" y="-192.5" font-family="Helvetica,sans-Serif" font-size="10.00">UnrealEdGlobals.h</text>
</a>
</g>
</g>
<!-- Node1&#45;&gt;Node23 -->
<g id="edge28_Node000001_Node000023" class="edge">
<title>Node1&#45;&gt;Node23</title>
<g id="a_edge28_Node000001_Node000023"><a xlink:title=" ">
<path fill="none" stroke="#63b8ff" d="M2180.02,-247.59C2208.03,-235.73 2242.04,-221.32 2266.6,-210.92"/>
<polygon fill="#63b8ff" stroke="#63b8ff" points="2267.93,-214.16 2275.77,-207.04 2265.2,-207.72 2267.93,-214.16"/>
</a>
</g>
</g>
<!-- Node24 -->
<g id="Node000024" class="node">
<title>Node24</title>
<g id="a_Node000024"><a xlink:title=" ">
<polygon fill="#e0e0e0" stroke="#999999" points="2490.1,-212 2366.85,-212 2366.85,-180 2490.1,-180 2490.1,-212"/>
<text xml:space="preserve" text-anchor="start" x="2374.85" y="-198.5" font-family="Helvetica,sans-Serif" font-size="10.00">Settings/LevelEditorPlay</text>
<text xml:space="preserve" text-anchor="middle" x="2428.47" y="-186.5" font-family="Helvetica,sans-Serif" font-size="10.00">Settings.h</text>
</a>
</g>
</g>
<!-- Node1&#45;&gt;Node24 -->
<g id="edge29_Node000001_Node000024" class="edge">
<title>Node1&#45;&gt;Node24</title>
<g id="a_edge29_Node000001_Node000024"><a xlink:title=" ">
<path fill="none" stroke="#63b8ff" d="M2201.47,-251.66C2248.18,-240.41 2308.85,-225.81 2355.71,-214.52"/>
<polygon fill="#63b8ff" stroke="#63b8ff" points="2356.33,-217.97 2365.23,-212.23 2354.69,-211.17 2356.33,-217.97"/>
</a>
</g>
</g>
<!-- Node25 -->
<g id="Node000025" class="node">
<title>Node25</title>
<g id="a_Node000025"><a xlink:href="_pyranometer_component_8h.html" target="_top" xlink:title=" ">
<polygon fill="white" stroke="#666666" points="2038.72,-206 1850.22,-206 1850.22,-186 2038.72,-186 2038.72,-206"/>
<text xml:space="preserve" text-anchor="middle" x="1944.47" y="-192.5" font-family="Helvetica,sans-Serif" font-size="10.00">Components/PyranometerComponent.h</text>
</a>
</g>
</g>
<!-- Node1&#45;&gt;Node25 -->
<g id="edge30_Node000001_Node000025" class="edge">
<title>Node1&#45;&gt;Node25</title>
<g id="a_edge30_Node000001_Node000025"><a xlink:title=" ">
<path fill="none" stroke="#63b8ff" d="M2074.47,-247.59C2043.57,-235.57 2005.97,-220.93 1979.16,-210.5"/>
<polygon fill="#63b8ff" stroke="#63b8ff" points="1980.75,-207.36 1970.16,-207 1978.21,-213.89 1980.75,-207.36"/>
</a>
</g>
</g>
<!-- Node28 -->
<g id="Node000028" class="node">
<title>Node28</title>
<g id="a_Node000028"><a xlink:href="_irradiance_common_8h.html" target="_top" xlink:title=" ">
<polygon fill="white" stroke="#666666" points="1794.72,-206 1642.22,-206 1642.22,-186 1794.72,-186 1794.72,-206"/>
<text xml:space="preserve" text-anchor="middle" x="1718.47" y="-192.5" font-family="Helvetica,sans-Serif" font-size="10.00">Irradiance/IrradianceCommon.h</text>
</a>
</g>
</g>
<!-- Node1&#45;&gt;Node28 -->
<g id="edge34_Node000001_Node000028" class="edge">
<title>Node1&#45;&gt;Node28</title>
<g id="a_edge34_Node000001_Node000028"><a xlink:title=" ">
<path fill="none" stroke="#63b8ff" d="M2057.41,-256.38C1980,-242.82 1858.09,-221.46 1783.51,-208.39"/>
<polygon fill="#63b8ff" stroke="#63b8ff" points="1784.35,-204.99 1773.9,-206.71 1783.15,-211.88 1784.35,-204.99"/>
</a>
</g>
</g>
<!-- Node29 -->
<g id="Node000029" class="node">
<title>Node29</title>
<g id="a_Node000029"><a xlink:href="_irradiance_scheduler_8h.html" target="_top" xlink:title=" ">
<polygon fill="white" stroke="#666666" points="593.1,-138 433.85,-138 433.85,-118 593.1,-118 593.1,-138"/>
<text xml:space="preserve" text-anchor="middle" x="513.47" y="-124.5" font-family="Helvetica,sans-Serif" font-size="10.00">Simulation/IrradianceScheduler.h</text>
</a>
</g>
</g>
<!-- Node1&#45;&gt;Node29 -->
<g id="edge36_Node000001_Node000029" class="edge">
<title>Node1&#45;&gt;Node29</title>
<g id="a_edge36_Node000001_Node000029"><a xlink:title=" ">
<path fill="none" stroke="#63b8ff" d="M2057.38,-269.09C1872.01,-268.56 1363.97,-262.22 944.47,-212 805.19,-195.32 643.35,-159.71 563.42,-141.02"/>
<polygon fill="#63b8ff" stroke="#63b8ff" points="564.7,-137.73 554.17,-138.85 563.1,-144.54 564.7,-137.73"/>
</a>
</g>
</g>
<!-- Node33 -->
<g id="Node000033" class="node">
<title>Node33</title>
<g id="a_Node000033"><a xlink:href="_irradiance_log_8h.html" target="_top" xlink:title=" ">
<polygon fill="white" stroke="#666666" points="1932.22,-76 1812.72,-76 1812.72,-56 1932.22,-56 1932.22,-76"/>
<text xml:space="preserve" text-anchor="middle" x="1872.47" y="-62.5" font-family="Helvetica,sans-Serif" font-size="10.00">Logging/IrradianceLog.h</text>
</a>
</g>
</g>
<!-- Node1&#45;&gt;Node33 -->
<g id="edge43_Node000001_Node000033" class="edge">
<title>Node1&#45;&gt;Node33</title>
<g id="a_edge43_Node000001_Node000033"><a xlink:title=" ">
<path fill="none" stroke="#63b8ff" d="M2057.33,-264.91C1981.11,-258.91 1868.29,-244.64 1841.47,-212 1811.21,-175.17 1840.95,-115.76 1859.72,-85.7"/>
<polygon fill="#63b8ff" stroke="#63b8ff" points="1862.44,-87.94 1864.96,-77.65 1856.57,-84.12 1862.44,-87.94"/>
</a>
</g>
</g>
<!-- Node34 -->
<g id="Node000034" class="node">
<title>Node34</title>
<g id="a_Node000034"><a xlink:title=" ">
<polygon fill="#e0e0e0" stroke="#999999" points="2637.1,-206 2507.85,-206 2507.85,-186 2637.1,-186 2637.1,-206"/>
<text xml:space="preserve" text-anchor="middle" x="2572.47" y="-192.5" font-family="Helvetica,sans-Serif" font-size="10.00">DesktopPlatformModule.h</text>
</a>
</g>
</g>
<!-- Node1&#45;&gt;Node34 -->
<g id="edge45_Node000001_Node000034" class="edge">
<title>Node1&#45;&gt;Node34</title>
<g id="a_edge45_Node000001_Node000034"><a xlink:title=" ">
<path fill="none" stroke="#63b8ff" d="M2201.62,-258.97C2276.32,-248.33 2396.32,-230.53 2499.47,-212 2505.14,-210.98 2511.04,-209.87 2516.92,-208.71"/>
<polygon fill="#63b8ff" stroke="#63b8ff" points="2517.54,-212.16 2526.66,-206.77 2516.17,-205.3 2517.54,-212.16"/>
</a>
</g>
</g>
<!-- Node35 -->
<g id="Node000035" class="node">
<title>Node35</title>
<g id="a_Node000035"><a xlink:title=" ">
<polygon fill="#e0e0e0" stroke="#999999" points="2755.85,-206 2655.1,-206 2655.1,-186 2755.85,-186 2755.85,-206"/>
<text xml:space="preserve" text-anchor="middle" x="2705.47" y="-192.5" font-family="Helvetica,sans-Serif" font-size="10.00">IDesktopPlatform.h</text>
</a>
</g>
</g>
<!-- Node1&#45;&gt;Node35 -->
<g id="edge46_Node000001_Node000035" class="edge">
<title>Node1&#45;&gt;Node35</title>
<g id="a_edge46_Node000001_Node000035"><a xlink:title=" ">
<path fill="none" stroke="#63b8ff" d="M2201.43,-264.24C2301.73,-256.9 2488.98,-240.56 2646.47,-212 2651.09,-211.16 2655.89,-210.16 2660.66,-209.08"/>
<polygon fill="#63b8ff" stroke="#63b8ff" points="2661.26,-212.54 2670.17,-206.81 2659.63,-205.73 2661.26,-212.54"/>
</a>
</g>
</g>
<!-- Node36 -->
<g id="Node000036" class="node">
<title>Node36</title>
<g id="a_Node000036"><a xlink:title=" ">
<polygon fill="#e0e0e0" stroke="#999999" points="2889.35,-212 2773.6,-212 2773.6,-180 2889.35,-180 2889.35,-212"/>
<text xml:space="preserve" text-anchor="start" x="2781.6" y="-198.5" font-family="Helvetica,sans-Serif" font-size="10.00">Framework/Application</text>
<text xml:space="preserve" text-anchor="middle" x="2831.47" y="-186.5" font-family="Helvetica,sans-Serif" font-size="10.00">/SlateApplication.h</text>
</a>
</g>
</g>
<!-- Node1&#45;&gt;Node36 -->
<g id="edge47_Node000001_Node000036" class="edge">
<title>Node1&#45;&gt;Node36</title>
<g id="a_edge47_Node000001_Node000036"><a xlink:title=" ">
<path fill="none" stroke="#63b8ff" d="M2201.27,-265.62C2317.25,-259.48 2553.13,-244.22 2762.26,-212.21"/>
<polygon fill="#63b8ff" stroke="#63b8ff" points="2762.61,-215.7 2771.96,-210.71 2761.54,-208.78 2762.61,-215.7"/>
</a>
</g>
</g>
<!-- Node3 -->
<g id="Node000003" class="node">
<title>Node3</title>
<g id="a_Node000003"><a xlink:title=" ">
<polygon fill="#e0e0e0" stroke="#999999" points="885.97,-20 806.97,-20 806.97,0 885.97,0 885.97,-20"/>
<text xml:space="preserve" text-anchor="middle" x="846.47" y="-6.5" font-family="Helvetica,sans-Serif" font-size="10.00">CoreMinimal.h</text>
</a>
</g>
</g>
<!-- Node2&#45;&gt;Node3 -->
<g id="edge2_Node000002_Node000003" class="edge">
<title>Node2&#45;&gt;Node3</title>
<g id="a_edge2_Node000002_Node000003"><a xlink:title=" ">
<path fill="none" stroke="#63b8ff" d="M953.47,-193.87C703.46,-190.4 38.86,-178.01 6.47,-144 -3.63,-133.39 -0.9,-67.17 10.47,-56 38.55,-28.41 617.76,-15.29 795.24,-11.91"/>
<polygon fill="#63b8ff" stroke="#63b8ff" points="795.13,-15.41 805.07,-11.72 795,-8.41 795.13,-15.41"/>
</a>
</g>
</g>
<!-- Node4 -->
<g id="Node000004" class="node">
<title>Node4</title>
<g id="a_Node000004"><a xlink:title=" ">
<polygon fill="#e0e0e0" stroke="#999999" points="1275.72,-138 1201.22,-138 1201.22,-118 1275.72,-118 1275.72,-138"/>
<text xml:space="preserve" text-anchor="middle" x="1238.47" y="-124.5" font-family="Helvetica,sans-Serif" font-size="10.00">EngineUtils.h</text>
</a>
</g>
</g>
<!-- Node2&#45;&gt;Node4 -->
<g id="edge3_Node000002_Node000004" class="edge">
<title>Node2&#45;&gt;Node4</title>
<g id="a_edge3_Node000002_Node000004"><a xlink:title=" ">
<path fill="none" stroke="#63b8ff" d="M1074.84,-185.54C1107.88,-174.12 1163.64,-154.86 1200.75,-142.03"/>
<polygon fill="#63b8ff" stroke="#63b8ff" points="1201.42,-145.51 1209.73,-138.93 1199.13,-138.89 1201.42,-145.51"/>
</a>
</g>
</g>
<!-- Node5 -->
<g id="Node000005" class="node">
<title>Node5</title>
<g id="a_Node000005"><a xlink:title=" ">
<polygon fill="#e0e0e0" stroke="#999999" points="1407.22,-138 1293.72,-138 1293.72,-118 1407.22,-118 1407.22,-138"/>
<text xml:space="preserve" text-anchor="middle" x="1350.47" y="-124.5" font-family="Helvetica,sans-Serif" font-size="10.00">Engine/EngineTypes.h</text>
</a>
</g>
</g>
<!-- Node2&#45;&gt;Node5 -->
<g id="edge4_Node000002_Node000005" class="edge">
<title>Node2&#45;&gt;Node5</title>
<g id="a_edge4_Node000002_Node000005"><a xlink:title=" ">
<path fill="none" stroke="#63b8ff" d="M1092.06,-185.57C1139.72,-175.44 1217.49,-158.82 1284.47,-144 1288.99,-143 1293.68,-141.95 1298.38,-140.9"/>
<polygon fill="#63b8ff" stroke="#63b8ff" points="1298.84,-144.38 1307.82,-138.77 1297.29,-137.55 1298.84,-144.38"/>
</a>
</g>
</g>
<!-- Node6 -->
<g id="Node000006" class="node">
<title>Node6</title>
<g id="a_Node000006"><a xlink:title=" ">
<polygon fill="#e0e0e0" stroke="#999999" points="1524.1,-138 1424.85,-138 1424.85,-118 1524.1,-118 1524.1,-138"/>
<text xml:space="preserve" text-anchor="middle" x="1474.47" y="-124.5" font-family="Helvetica,sans-Serif" font-size="10.00">EditorSubsystem.h</text>
</a>
</g>
</g>
<!-- Node2&#45;&gt;Node6 -->
<g id="edge5_Node000002_Node000006" class="edge">
<title>Node2&#45;&gt;Node6</title>
<g id="a_edge5_Node000002_Node000006"><a xlink:title=" ">
<path fill="none" stroke="#63b8ff" d="M1137.43,-185.51C1212.45,-176.9 1321.94,-162.69 1416.47,-144 1420.77,-143.15 1425.22,-142.17 1429.66,-141.14"/>
<polygon fill="#63b8ff" stroke="#63b8ff" points="1430.23,-144.6 1439.11,-138.83 1428.57,-137.8 1430.23,-144.6"/>
</a>
</g>
</g>
<!-- Node7 -->
<g id="Node000007" class="node">
<title>Node7</title>
<g id="a_Node000007"><a xlink:href="_pyrano_console_log_sink_8h.html" target="_top" xlink:title=" ">
<polygon fill="white" stroke="#666666" points="151.1,-144 15.85,-144 15.85,-112 151.1,-112 151.1,-144"/>
<text xml:space="preserve" text-anchor="start" x="23.85" y="-130.5" font-family="Helvetica,sans-Serif" font-size="10.00">Logging/PyranoConsoleLog</text>
<text xml:space="preserve" text-anchor="middle" x="83.47" y="-118.5" font-family="Helvetica,sans-Serif" font-size="10.00">Sink.h</text>
</a>
</g>
</g>
<!-- Node2&#45;&gt;Node7 -->
<g id="edge6_Node000002_Node000007" class="edge">
<title>Node2&#45;&gt;Node7</title>
<g id="a_edge6_Node000002_Node000007"><a xlink:title=" ">
<path fill="none" stroke="#63b8ff" d="M953.39,-188.56C812.06,-178.89 536.58,-160.03 302.47,-144 256.25,-140.83 204.54,-137.29 162.98,-134.45"/>
<polygon fill="#63b8ff" stroke="#63b8ff" points="163.26,-130.96 153.05,-133.77 162.79,-137.94 163.26,-130.96"/>
</a>
</g>
</g>
<!-- Node9 -->
<g id="Node000009" class="node">
<title>Node9</title>
<g id="a_Node000009"><a xlink:href="_capture_request_8h.html" target="_top" xlink:title=" ">
<polygon fill="white" stroke="#666666" points="299.6,-76 155.35,-76 155.35,-56 299.6,-56 299.6,-76"/>
<text xml:space="preserve" text-anchor="middle" x="227.47" y="-62.5" font-family="Helvetica,sans-Serif" font-size="10.00">Simulation/CaptureRequest.h</text>
</a>
</g>
</g>
<!-- Node2&#45;&gt;Node9 -->
<g id="edge9_Node000002_Node000009" class="edge">
<title>Node2&#45;&gt;Node9</title>
<g id="a_edge9_Node000002_Node000009"><a xlink:title=" ">
<path fill="none" stroke="#63b8ff" d="M953.29,-195.74C830.14,-194.8 608.45,-186.52 424.47,-144 362.44,-129.66 294.07,-99.42 256.4,-81.4"/>
<polygon fill="#63b8ff" stroke="#63b8ff" points="258.06,-78.32 247.54,-77.11 255.01,-84.62 258.06,-78.32"/>
</a>
</g>
</g>
<!-- Node11 -->
<g id="Node000011" class="node">
<title>Node11</title>
<g id="a_Node000011"><a xlink:href="_sensor_info_8h.html" target="_top" xlink:title=" ">
<polygon fill="white" stroke="#666666" points="841.22,-138 745.72,-138 745.72,-118 841.22,-118 841.22,-138"/>
<text xml:space="preserve" text-anchor="middle" x="793.47" y="-124.5" font-family="Helvetica,sans-Serif" font-size="10.00">Data/SensorInfo.h</text>
</a>
</g>
</g>
<!-- Node2&#45;&gt;Node11 -->
<g id="edge12_Node000002_Node000011" class="edge">
<title>Node2&#45;&gt;Node11</title>
<g id="a_edge12_Node000002_Node000011"><a xlink:title=" ">
<path fill="none" stroke="#63b8ff" d="M1011.08,-185.54C966.28,-173.9 890.11,-154.11 840.8,-141.3"/>
<polygon fill="#63b8ff" stroke="#63b8ff" points="841.82,-137.95 831.26,-138.82 840.06,-144.72 841.82,-137.95"/>
</a>
</g>
</g>
<!-- Node13 -->
<g id="Node000013" class="node">
<title>Node13</title>
<g id="a_Node000013"><a xlink:href="_simulation_config_8h.html" target="_top" xlink:title=" ">
<polygon fill="white" stroke="#666666" points="1104.1,-76 956.85,-76 956.85,-56 1104.1,-56 1104.1,-76"/>
<text xml:space="preserve" text-anchor="middle" x="1030.47" y="-62.5" font-family="Helvetica,sans-Serif" font-size="10.00">Simulation/SimulationConfig.h</text>
</a>
</g>
</g>
<!-- Node2&#45;&gt;Node13 -->
<g id="edge15_Node000002_Node000013" class="edge">
<title>Node2&#45;&gt;Node13</title>
<g id="a_edge15_Node000002_Node000013"><a xlink:title=" ">
<path fill="none" stroke="#63b8ff" d="M954.67,-185.55C929.14,-178.19 904.19,-165.55 888.47,-144 864.25,-110.79 914.32,-90.37 961.55,-78.97"/>
<polygon fill="#63b8ff" stroke="#63b8ff" points="962.05,-82.45 971.02,-76.81 960.49,-75.62 962.05,-82.45"/>
</a>
</g>
</g>
<!-- Node15 -->
<g id="Node000015" class="node">
<title>Node15</title>
<g id="a_Node000015"><a xlink:href="_irradiance_configuration_8h.html" target="_top" xlink:title=" ">
<polygon fill="white" stroke="#666666" points="1045.85,-138 897.1,-138 897.1,-118 1045.85,-118 1045.85,-138"/>
<text xml:space="preserve" text-anchor="middle" x="971.47" y="-124.5" font-family="Helvetica,sans-Serif" font-size="10.00">Data/IrradianceConfiguration.h</text>
</a>
</g>
</g>
<!-- Node2&#45;&gt;Node15 -->
<g id="edge18_Node000002_Node000015" class="edge">
<title>Node2&#45;&gt;Node15</title>
<g id="a_edge18_Node000002_Node000015"><a xlink:title=" ">
<path fill="none" stroke="#63b8ff" d="M1036.58,-185.54C1024.62,-175.15 1005.17,-158.27 990.64,-145.65"/>
<polygon fill="#63b8ff" stroke="#63b8ff" points="993.33,-143.35 983.48,-139.43 988.74,-148.63 993.33,-143.35"/>
</a>
</g>
</g>
<!-- Node18 -->
<g id="Node000018" class="node">
<title>Node18</title>
<g id="a_Node000018"><a xlink:href="_validation_result_8h.html" target="_top" xlink:title=" ">
<polygon fill="white" stroke="#666666" points="1182.85,-138 1064.1,-138 1064.1,-118 1182.85,-118 1182.85,-138"/>
<text xml:space="preserve" text-anchor="middle" x="1123.47" y="-124.5" font-family="Helvetica,sans-Serif" font-size="10.00">Data/ValidationResult.h</text>
</a>
</g>
</g>
<!-- Node2&#45;&gt;Node18 -->
<g id="edge22_Node000002_Node000018" class="edge">
<title>Node2&#45;&gt;Node18</title>
<g id="a_edge22_Node000002_Node000018"><a xlink:title=" ">
<path fill="none" stroke="#63b8ff" d="M1058.36,-185.54C1070.33,-175.15 1089.77,-158.27 1104.3,-145.65"/>
<polygon fill="#63b8ff" stroke="#63b8ff" points="1106.21,-148.63 1111.46,-139.43 1101.62,-143.35 1106.21,-148.63"/>
</a>
</g>
</g>
<!-- Node20 -->
<g id="Node000020" class="node">
<title>Node20</title>
<g id="a_Node000020"><a xlink:title=" ">
<polygon fill="#e0e0e0" stroke="#999999" points="1718.35,-138 1542.6,-138 1542.6,-118 1718.35,-118 1718.35,-138"/>
<text xml:space="preserve" text-anchor="middle" x="1630.47" y="-124.5" font-family="Helvetica,sans-Serif" font-size="10.00">PyranoEditorSubsystem.generated.h</text>
</a>
</g>
</g>
<!-- Node2&#45;&gt;Node20 -->
<g id="edge25_Node000002_Node000020" class="edge">
<title>Node2&#45;&gt;Node20</title>
<g id="a_edge25_Node000002_Node000020"><a xlink:title=" ">
<path fill="none" stroke="#63b8ff" d="M1141.71,-186.49C1239.74,-177.31 1397.6,-161.62 1533.47,-144 1542.42,-142.84 1551.82,-141.52 1561.1,-140.15"/>
<polygon fill="#63b8ff" stroke="#63b8ff" points="1561.45,-143.63 1570.82,-138.69 1560.42,-136.71 1561.45,-143.63"/>
</a>
</g>
</g>
<!-- Node7&#45;&gt;Node3 -->
<g id="edge7_Node000007_Node000003" class="edge">
<title>Node7&#45;&gt;Node3</title>
<g id="a_edge7_Node000007_Node000003"><a xlink:title=" ">
<path fill="none" stroke="#63b8ff" d="M54.05,-111.51C30.06,-96.95 2.8,-74.67 20.47,-56 47.18,-27.79 618.97,-15.12 795.22,-11.87"/>
<polygon fill="#63b8ff" stroke="#63b8ff" points="795.28,-15.37 805.21,-11.69 795.15,-8.37 795.28,-15.37"/>
</a>
</g>
</g>
<!-- Node8 -->
<g id="Node000008" class="node">
<title>Node8</title>
<g id="a_Node000008"><a xlink:title=" ">
<polygon fill="#e0e0e0" stroke="#999999" points="137.6,-76 29.35,-76 29.35,-56 137.6,-56 137.6,-76"/>
<text xml:space="preserve" text-anchor="middle" x="83.47" y="-62.5" font-family="Helvetica,sans-Serif" font-size="10.00">Misc/OutputDevice.h</text>
</a>
</g>
</g>
<!-- Node7&#45;&gt;Node8 -->
<g id="edge8_Node000007_Node000008" class="edge">
<title>Node7&#45;&gt;Node8</title>
<g id="a_edge8_Node000007_Node000008"><a xlink:title=" ">
<path fill="none" stroke="#63b8ff" d="M83.47,-111.55C83.47,-104.34 83.47,-95.66 83.47,-87.88"/>
<polygon fill="#63b8ff" stroke="#63b8ff" points="86.97,-87.92 83.47,-77.92 79.97,-87.92 86.97,-87.92"/>
</a>
</g>
</g>
<!-- Node9&#45;&gt;Node3 -->
<g id="edge10_Node000009_Node000003" class="edge">
<title>Node9&#45;&gt;Node3</title>
<g id="a_edge10_Node000009_Node000003"><a xlink:title=" ">
<path fill="none" stroke="#63b8ff" d="M299.72,-57.33C304.37,-56.87 308.99,-56.42 313.47,-56 490.31,-39.28 700.44,-22.43 795.39,-14.97"/>
<polygon fill="#63b8ff" stroke="#63b8ff" points="795.46,-18.48 805.16,-14.2 794.91,-11.5 795.46,-18.48"/>
</a>
</g>
</g>
<!-- Node10 -->
<g id="Node000010" class="node">
<title>Node10</title>
<g id="a_Node000010"><a xlink:title=" ">
<polygon fill="#e0e0e0" stroke="#999999" points="298.1,-20 156.85,-20 156.85,0 298.1,0 298.1,-20"/>
<text xml:space="preserve" text-anchor="middle" x="227.47" y="-6.5" font-family="Helvetica,sans-Serif" font-size="10.00">CaptureRequest.generated.h</text>
</a>
</g>
</g>
<!-- Node9&#45;&gt;Node10 -->
<g id="edge11_Node000009_Node000010" class="edge">
<title>Node9&#45;&gt;Node10</title>
<g id="a_edge11_Node000009_Node000010"><a xlink:title=" ">
<path fill="none" stroke="#63b8ff" d="M227.47,-55.59C227.47,-49.01 227.47,-39.96 227.47,-31.73"/>
<polygon fill="#63b8ff" stroke="#63b8ff" points="230.97,-31.81 227.47,-21.81 223.97,-31.81 230.97,-31.81"/>
</a>
</g>
</g>
<!-- Node11&#45;&gt;Node3 -->
<g id="edge13_Node000011_Node000003" class="edge">
<title>Node11&#45;&gt;Node3</title>
<g id="a_edge13_Node000011_Node000003"><a xlink:title=" ">
<path fill="none" stroke="#63b8ff" d="M794.76,-117.86C796.98,-103.95 802.28,-76.87 812.47,-56 817.18,-46.37 824.08,-36.74 830.43,-28.88"/>
<polygon fill="#63b8ff" stroke="#63b8ff" points="832.95,-31.33 836.75,-21.44 827.61,-26.8 832.95,-31.33"/>
</a>
</g>
</g>
<!-- Node12 -->
<g id="Node000012" class="node">
<title>Node12</title>
<g id="a_Node000012"><a xlink:title=" ">
<polygon fill="#e0e0e0" stroke="#999999" points="939.1,-76 821.85,-76 821.85,-56 939.1,-56 939.1,-76"/>
<text xml:space="preserve" text-anchor="middle" x="880.47" y="-62.5" font-family="Helvetica,sans-Serif" font-size="10.00">SensorInfo.generated.h</text>
</a>
</g>
</g>
<!-- Node11&#45;&gt;Node12 -->
<g id="edge14_Node000011_Node000012" class="edge">
<title>Node11&#45;&gt;Node12</title>
<g id="a_edge14_Node000011_Node000012"><a xlink:title=" ">
<path fill="none" stroke="#63b8ff" d="M807.07,-117.62C820.6,-108.29 841.62,-93.79 857.71,-82.7"/>
<polygon fill="#63b8ff" stroke="#63b8ff" points="859.48,-85.73 865.73,-77.17 855.51,-79.96 859.48,-85.73"/>
</a>
</g>
</g>
<!-- Node13&#45;&gt;Node3 -->
<g id="edge16_Node000013_Node000003" class="edge">
<title>Node13&#45;&gt;Node3</title>
<g id="a_edge16_Node000013_Node000003"><a xlink:title=" ">
<path fill="none" stroke="#63b8ff" d="M998.42,-55.59C968.26,-46.74 922.89,-33.43 889.57,-23.65"/>
<polygon fill="#63b8ff" stroke="#63b8ff" points="890.81,-20.36 880.22,-20.91 888.83,-27.08 890.81,-20.36"/>
</a>
</g>
</g>
<!-- Node14 -->
<g id="Node000014" class="node">
<title>Node14</title>
<g id="a_Node000014"><a xlink:title=" ">
<polygon fill="#e0e0e0" stroke="#999999" points="1102.6,-20 958.35,-20 958.35,0 1102.6,0 1102.6,-20"/>
<text xml:space="preserve" text-anchor="middle" x="1030.47" y="-6.5" font-family="Helvetica,sans-Serif" font-size="10.00">SimulationConfig.generated.h</text>
</a>
</g>
</g>
<!-- Node13&#45;&gt;Node14 -->
<g id="edge17_Node000013_Node000014" class="edge">
<title>Node13&#45;&gt;Node14</title>
<g id="a_edge17_Node000013_Node000014"><a xlink:title=" ">
<path fill="none" stroke="#63b8ff" d="M1030.47,-55.59C1030.47,-49.01 1030.47,-39.96 1030.47,-31.73"/>
<polygon fill="#63b8ff" stroke="#63b8ff" points="1033.97,-31.81 1030.47,-21.81 1026.97,-31.81 1033.97,-31.81"/>
</a>
</g>
</g>
<!-- Node15&#45;&gt;Node13 -->
<g id="edge19_Node000015_Node000013" class="edge">
<title>Node15&#45;&gt;Node13</title>
<g id="a_edge19_Node000015_Node000013"><a xlink:title=" ">
<path fill="none" stroke="#63b8ff" d="M980.69,-117.62C989.49,-108.68 1002.95,-94.99 1013.66,-84.1"/>
<polygon fill="#63b8ff" stroke="#63b8ff" points="1015.93,-86.78 1020.45,-77.19 1010.94,-81.87 1015.93,-86.78"/>
</a>
</g>
</g>
<!-- Node16 -->
<g id="Node000016" class="node">
<title>Node16</title>
<g id="a_Node000016"><a xlink:title=" ">
<polygon fill="#e0e0e0" stroke="#999999" points="1218.97,-76 1121.97,-76 1121.97,-56 1218.97,-56 1218.97,-76"/>
<text xml:space="preserve" text-anchor="middle" x="1170.47" y="-62.5" font-family="Helvetica,sans-Serif" font-size="10.00">Containers/Array.h</text>
</a>
</g>
</g>
<!-- Node15&#45;&gt;Node16 -->
<g id="edge20_Node000015_Node000016" class="edge">
<title>Node15&#45;&gt;Node16</title>
<g id="a_edge20_Node000015_Node000016"><a xlink:title=" ">
<path fill="none" stroke="#63b8ff" d="M1002.57,-117.62C1036.49,-107.4 1090.99,-90.97 1128.64,-79.61"/>
<polygon fill="#63b8ff" stroke="#63b8ff" points="1129.26,-83.08 1137.82,-76.84 1127.24,-76.38 1129.26,-83.08"/>
</a>
</g>
</g>
<!-- Node17 -->
<g id="Node000017" class="node">
<title>Node17</title>
<g id="a_Node000017"><a xlink:title=" ">
<polygon fill="#e0e0e0" stroke="#999999" points="1321.6,-76 1237.35,-76 1237.35,-56 1321.6,-56 1321.6,-76"/>
<text xml:space="preserve" text-anchor="middle" x="1279.47" y="-62.5" font-family="Helvetica,sans-Serif" font-size="10.00">Misc/Optional.h</text>
</a>
</g>
</g>
<!-- Node15&#45;&gt;Node17 -->
<g id="edge21_Node000015_Node000017" class="edge">
<title>Node15&#45;&gt;Node17</title>
<g id="a_edge21_Node000015_Node000017"><a xlink:title=" ">
<path fill="none" stroke="#63b8ff" d="M1019.94,-117.56C1076,-106.64 1168.02,-88.71 1226.09,-77.4"/>
<polygon fill="#63b8ff" stroke="#63b8ff" points="1226.6,-80.87 1235.75,-75.52 1225.26,-73.99 1226.6,-80.87"/>
</a>
</g>
</g>
<!-- Node18&#45;&gt;Node3 -->
<g id="edge23_Node000018_Node000003" class="edge">
<title>Node18&#45;&gt;Node3</title>
<g id="a_edge23_Node000018_Node000003"><a xlink:title=" ">
<path fill="none" stroke="#63b8ff" d="M1164.71,-117.51C1224.35,-103.69 1327.88,-79.31 1330.47,-76 1335.95,-69 1336.46,-62.57 1330.47,-56 1328.66,-54.01 1021.9,-26.57 897.74,-15.54"/>
<polygon fill="#63b8ff" stroke="#63b8ff" points="898.09,-12.06 887.82,-14.66 897.47,-19.03 898.09,-12.06"/>
</a>
</g>
</g>
<!-- Node19 -->
<g id="Node000019" class="node">
<title>Node19</title>
<g id="a_Node000019"><a xlink:title=" ">
<polygon fill="#e0e0e0" stroke="#999999" points="1517.72,-76 1377.22,-76 1377.22,-56 1517.72,-56 1517.72,-76"/>
<text xml:space="preserve" text-anchor="middle" x="1447.47" y="-62.5" font-family="Helvetica,sans-Serif" font-size="10.00">ValidationResult.generated.h</text>
</a>
</g>
</g>
<!-- Node18&#45;&gt;Node19 -->
<g id="edge24_Node000018_Node000019" class="edge">
<title>Node18&#45;&gt;Node19</title>
<g id="a_edge24_Node000018_Node000019"><a xlink:title=" ">
<path fill="none" stroke="#63b8ff" d="M1165.75,-117.53C1174.56,-115.64 1183.81,-113.7 1192.47,-112 1255.32,-99.63 1327.19,-87.09 1378.58,-78.4"/>
<polygon fill="#63b8ff" stroke="#63b8ff" points="1379.11,-81.86 1388.39,-76.75 1377.94,-74.96 1379.11,-81.86"/>
</a>
</g>
</g>
<!-- Node25&#45;&gt;Node3 -->
<g id="edge31_Node000025_Node000003" class="edge">
<title>Node25&#45;&gt;Node3</title>
<g id="a_edge31_Node000025_Node000003"><a xlink:title=" ">
<path fill="none" stroke="#63b8ff" d="M1921.92,-185.57C1882.76,-169.38 1799.49,-135.75 1727.47,-112 1639.4,-82.96 1617.92,-71.42 1526.47,-56 1273.1,-13.29 1205.7,-39.18 949.47,-20 932.46,-18.73 913.87,-17.16 897.24,-15.69"/>
<polygon fill="#63b8ff" stroke="#63b8ff" points="897.85,-12.23 887.58,-14.83 897.23,-19.2 897.85,-12.23"/>
</a>
</g>
</g>
<!-- Node26 -->
<g id="Node000026" class="node">
<title>Node26</title>
<g id="a_Node000026"><a xlink:title=" ">
<polygon fill="#e0e0e0" stroke="#999999" points="2017.85,-138 1857.1,-138 1857.1,-118 2017.85,-118 2017.85,-138"/>
<text xml:space="preserve" text-anchor="middle" x="1937.47" y="-124.5" font-family="Helvetica,sans-Serif" font-size="10.00">Components/SceneComponent.h</text>
</a>
</g>
</g>
<!-- Node25&#45;&gt;Node26 -->
<g id="edge32_Node000025_Node000026" class="edge">
<title>Node25&#45;&gt;Node26</title>
<g id="a_edge32_Node000025_Node000026"><a xlink:title=" ">
<path fill="none" stroke="#63b8ff" d="M1943.47,-185.54C1942.48,-176.23 1940.94,-161.7 1939.67,-149.7"/>
<polygon fill="#63b8ff" stroke="#63b8ff" points="1943.17,-149.52 1938.63,-139.94 1936.21,-150.26 1943.17,-149.52"/>
</a>
</g>
</g>
<!-- Node27 -->
<g id="Node000027" class="node">
<title>Node27</title>
<g id="a_Node000027"><a xlink:title=" ">
<polygon fill="#e0e0e0" stroke="#999999" points="2211.35,-138 2035.6,-138 2035.6,-118 2211.35,-118 2211.35,-138"/>
<text xml:space="preserve" text-anchor="middle" x="2123.47" y="-124.5" font-family="Helvetica,sans-Serif" font-size="10.00">PyranometerComponent.generated.h</text>
</a>
</g>
</g>
<!-- Node25&#45;&gt;Node27 -->
<g id="edge33_Node000025_Node000027" class="edge">
<title>Node25&#45;&gt;Node27</title>
<g id="a_edge33_Node000025_Node000027"><a xlink:title=" ">
<path fill="none" stroke="#63b8ff" d="M1970.12,-185.54C2000.82,-174.22 2052.45,-155.19 2087.22,-142.37"/>
<polygon fill="#63b8ff" stroke="#63b8ff" points="2088.28,-145.71 2096.45,-138.96 2085.86,-139.14 2088.28,-145.71"/>
</a>
</g>
</g>
<!-- Node28&#45;&gt;Node3 -->
<g id="edge35_Node000028_Node000003" class="edge">
<title>Node28&#45;&gt;Node3</title>
<g id="a_edge35_Node000028_Node000003"><a xlink:title=" ">
<path fill="none" stroke="#63b8ff" d="M1723.28,-185.67C1731.1,-169.03 1744.13,-133.93 1727.47,-112 1671.38,-38.15 1617.92,-71.42 1526.47,-56 1273.1,-13.29 1205.7,-39.18 949.47,-20 932.46,-18.73 913.87,-17.16 897.24,-15.69"/>
<polygon fill="#63b8ff" stroke="#63b8ff" points="897.85,-12.23 887.58,-14.83 897.23,-19.2 897.85,-12.23"/>
</a>
</g>
</g>
<!-- Node29&#45;&gt;Node3 -->
<g id="edge37_Node000029_Node000003" class="edge">
<title>Node29&#45;&gt;Node3</title>
<g id="a_edge37_Node000029_Node000003"><a xlink:title=" ">
<path fill="none" stroke="#63b8ff" d="M433.45,-118.27C376.36,-108.95 314.85,-90.59 346.47,-56 376.38,-23.28 674.51,-14.15 795.67,-11.77"/>
<polygon fill="#63b8ff" stroke="#63b8ff" points="795.39,-15.28 805.32,-11.59 795.26,-8.28 795.39,-15.28"/>
</a>
</g>
</g>
<!-- Node29&#45;&gt;Node9 -->
<g id="edge41_Node000029_Node000009" class="edge">
<title>Node29&#45;&gt;Node9</title>
<g id="a_edge41_Node000029_Node000009"><a xlink:title=" ">
<path fill="none" stroke="#63b8ff" d="M468.47,-117.56C418.54,-107.08 337.89,-90.16 283.8,-78.82"/>
<polygon fill="#63b8ff" stroke="#63b8ff" points="284.67,-75.42 274.16,-76.8 283.23,-82.27 284.67,-75.42"/>
</a>
</g>
</g>
<!-- Node29&#45;&gt;Node13 -->
<g id="edge40_Node000029_Node000013" class="edge">
<title>Node29&#45;&gt;Node13</title>
<g id="a_edge40_Node000029_Node000013"><a xlink:title=" ">
<path fill="none" stroke="#63b8ff" d="M593.4,-117.72C688.83,-106.65 847.74,-88.21 945.38,-76.87"/>
<polygon fill="#63b8ff" stroke="#63b8ff" points="945.65,-80.37 955.18,-75.74 944.85,-73.41 945.65,-80.37"/>
</a>
</g>
</g>
<!-- Node30 -->
<g id="Node000030" class="node">
<title>Node30</title>
<g id="a_Node000030"><a xlink:title=" ">
<polygon fill="#e0e0e0" stroke="#999999" points="416.97,-76 355.97,-76 355.97,-56 416.97,-56 416.97,-76"/>
<text xml:space="preserve" text-anchor="middle" x="386.47" y="-62.5" font-family="Helvetica,sans-Serif" font-size="10.00">Tickable.h</text>
</a>
</g>
</g>
<!-- Node29&#45;&gt;Node30 -->
<g id="edge38_Node000029_Node000030" class="edge">
<title>Node29&#45;&gt;Node30</title>
<g id="a_edge38_Node000029_Node000030"><a xlink:title=" ">
<path fill="none" stroke="#63b8ff" d="M493.63,-117.62C472.94,-107.85 440.26,-92.41 416.43,-81.15"/>
<polygon fill="#63b8ff" stroke="#63b8ff" points="418.08,-78.06 407.54,-76.96 415.09,-84.39 418.08,-78.06"/>
</a>
</g>
</g>
<!-- Node31 -->
<g id="Node000031" class="node">
<title>Node31</title>
<g id="a_Node000031"><a xlink:title=" ">
<polygon fill="#e0e0e0" stroke="#999999" points="591.6,-76 435.35,-76 435.35,-56 591.6,-56 591.6,-76"/>
<text xml:space="preserve" text-anchor="middle" x="513.47" y="-62.5" font-family="Helvetica,sans-Serif" font-size="10.00">Subsystems/WorldSubsystem.h</text>
</a>
</g>
</g>
<!-- Node29&#45;&gt;Node31 -->
<g id="edge39_Node000029_Node000031" class="edge">
<title>Node29&#45;&gt;Node31</title>
<g id="a_edge39_Node000029_Node000031"><a xlink:title=" ">
<path fill="none" stroke="#63b8ff" d="M513.47,-117.62C513.47,-109.56 513.47,-97.65 513.47,-87.41"/>
<polygon fill="#63b8ff" stroke="#63b8ff" points="516.97,-87.63 513.47,-77.63 509.97,-87.63 516.97,-87.63"/>
</a>
</g>
</g>
<!-- Node32 -->
<g id="Node000032" class="node">
<title>Node32</title>
<g id="a_Node000032"><a xlink:title=" ">
<polygon fill="#e0e0e0" stroke="#999999" points="765.6,-76 609.35,-76 609.35,-56 765.6,-56 765.6,-76"/>
<text xml:space="preserve" text-anchor="middle" x="687.47" y="-62.5" font-family="Helvetica,sans-Serif" font-size="10.00">IrradianceScheduler.generated.h</text>
</a>
</g>
</g>
<!-- Node29&#45;&gt;Node32 -->
<g id="edge42_Node000029_Node000032" class="edge">
<title>Node29&#45;&gt;Node32</title>
<g id="a_edge42_Node000029_Node000032"><a xlink:title=" ">
<path fill="none" stroke="#63b8ff" d="M540.66,-117.62C569.94,-107.53 616.75,-91.39 649.62,-80.05"/>
<polygon fill="#63b8ff" stroke="#63b8ff" points="650.45,-83.47 658.76,-76.9 648.16,-76.85 650.45,-83.47"/>
</a>
</g>
</g>
<!-- Node33&#45;&gt;Node3 -->
<g id="edge44_Node000033_Node000003" class="edge">
<title>Node33&#45;&gt;Node3</title>
<g id="a_edge44_Node000033_Node000003"><a xlink:title=" ">
<path fill="none" stroke="#63b8ff" d="M1812.34,-57.29C1807.65,-56.81 1802.99,-56.37 1798.47,-56 1422.06,-25.18 1326.35,-44.44 949.47,-20 932.44,-18.9 913.86,-17.37 897.22,-15.89"/>
<polygon fill="#63b8ff" stroke="#63b8ff" points="897.84,-12.43 887.57,-15.01 897.21,-19.4 897.84,-12.43"/>
</a>
</g>
</g>
</g>
</svg>
