<?xml version="1.0" encoding="UTF-8" standalone="no"?>
<!DOCTYPE svg PUBLIC "-//W3C//DTD SVG 1.1//EN"
 "http://www.w3.org/Graphics/SVG/1.1/DTD/svg11.dtd">
<!-- Generated by graphviz version 14.1.0 (20251206.1807)
 -->
<!-- Title: Source/PyranoEditor/Private/UI/PyranoBlueprintLibrary.h Pages: 1 -->
<svg width="416pt" height="120pt"
 viewBox="0.00 0.00 416.00 120.00" xmlns="http://www.w3.org/2000/svg" xmlns:xlink="http://www.w3.org/1999/xlink">
<g id="graph0" class="graph" transform="scale(1 1) rotate(0) translate(4 116)">
<title>Source/PyranoEditor/Private/UI/PyranoBlueprintLibrary.h</title>
<!-- Node1 -->
<g id="Node000001" class="node">
<title>Node1</title>
<g id="a_Node000001"><a xlink:title=" ">
<polygon fill="#999999" stroke="#666666" points="227.12,-112 91.88,-112 91.88,-68 227.12,-68 227.12,-112"/>
<text xml:space="preserve" text-anchor="start" x="99.88" y="-98.5" font-family="Helvetica,sans-Serif" font-size="10.00">Source/PyranoEditor</text>
<text xml:space="preserve" text-anchor="start" x="99.88" y="-86.5" font-family="Helvetica,sans-Serif" font-size="10.00">/Private/UI/PyranoBlueprint</text>
<text xml:space="preserve" text-anchor="middle" x="159.5" y="-74.5" font-family="Helvetica,sans-Serif" font-size="10.00">Library.h</text>
</a>
</g>
</g>
<!-- Node2 -->
<g id="Node000002" class="node">
<title>Node2</title>
<g id="a_Node000002"><a xlink:title=" ">
<polygon fill="#e0e0e0" stroke="#999999" points="79,-26 0,-26 0,-6 79,-6 79,-26"/>
<text xml:space="preserve" text-anchor="middle" x="39.5" y="-12.5" font-family="Helvetica,sans-Serif" font-size="10.00">CoreMinimal.h</text>
</a>
</g>
</g>
<!-- Node1&#45;&gt;Node2 -->
<g id="edge1_Node000001_Node000002" class="edge">
<title>Node1&#45;&gt;Node2</title>
<g id="a_edge1_Node000001_Node000002"><a xlink:title=" ">
<path fill="none" stroke="#63b8ff" d="M123.82,-67.59C104.94,-56.26 82.19,-42.62 65.08,-32.35"/>
<polygon fill="#63b8ff" stroke="#63b8ff" points="66.92,-29.37 56.54,-27.23 63.32,-35.37 66.92,-29.37"/>
</a>
</g>
</g>
<!-- Node3 -->
<g id="Node000003" class="node">
<title>Node3</title>
<g id="a_Node000003"><a xlink:title=" ">
<polygon fill="#e0e0e0" stroke="#999999" points="222.25,-32 96.75,-32 96.75,0 222.25,0 222.25,-32"/>
<text xml:space="preserve" text-anchor="start" x="104.75" y="-18.5" font-family="Helvetica,sans-Serif" font-size="10.00">Kismet/BlueprintFunction</text>
<text xml:space="preserve" text-anchor="middle" x="159.5" y="-6.5" font-family="Helvetica,sans-Serif" font-size="10.00">Library.h</text>
</a>
</g>
</g>
<!-- Node1&#45;&gt;Node3 -->
<g id="edge2_Node000001_Node000003" class="edge">
<title>Node1&#45;&gt;Node3</title>
<g id="a_edge2_Node000001_Node000003"><a xlink:title=" ">
<path fill="none" stroke="#63b8ff" d="M159.5,-67.79C159.5,-60.18 159.5,-51.52 159.5,-43.52"/>
<polygon fill="#63b8ff" stroke="#63b8ff" points="163,-43.64 159.5,-33.64 156,-43.64 163,-43.64"/>
</a>
</g>
</g>
<!-- Node4 -->
<g id="Node000004" class="node">
<title>Node4</title>
<g id="a_Node000004"><a xlink:title=" ">
<polygon fill="#e0e0e0" stroke="#999999" points="408.25,-26 240.75,-26 240.75,-6 408.25,-6 408.25,-26"/>
<text xml:space="preserve" text-anchor="middle" x="324.5" y="-12.5" font-family="Helvetica,sans-Serif" font-size="10.00">PyranoBlueprintLibrary.generated.h</text>
</a>
</g>
</g>
<!-- Node1&#45;&gt;Node4 -->
<g id="edge3_Node000001_Node000004" class="edge">
<title>Node1&#45;&gt;Node4</title>
<g id="a_edge3_Node000001_Node000004"><a xlink:title=" ">
<path fill="none" stroke="#63b8ff" d="M208.56,-67.59C235.74,-55.73 268.76,-41.32 292.6,-30.92"/>
<polygon fill="#63b8ff" stroke="#63b8ff" points="293.7,-34.26 301.46,-27.05 290.9,-27.84 293.7,-34.26"/>
</a>
</g>
</g>
</g>
</svg>
