<?xml version="1.0" encoding="UTF-8" standalone="no"?>
<!DOCTYPE svg PUBLIC "-//W3C//DTD SVG 1.1//EN"
 "http://www.w3.org/Graphics/SVG/1.1/DTD/svg11.dtd">
<!-- Generated by graphviz version 14.1.0 (20251206.1807)
 -->
<!-- Title: Source/Pyrano/Private/Components/PyranometerComponent.cpp Pages: 1 -->
<svg width="524pt" height="152pt"
 viewBox="0.00 0.00 524.00 152.00" xmlns="http://www.w3.org/2000/svg" xmlns:xlink="http://www.w3.org/1999/xlink">
<g id="graph0" class="graph" transform="scale(1 1) rotate(0) translate(4 148)">
<title>Source/Pyrano/Private/Components/PyranometerComponent.cpp</title>
<!-- Node1 -->
<g id="Node000001" class="node">
<title>Node1</title>
<g id="a_Node000001"><a xlink:title=" ">
<polygon fill="#999999" stroke="#666666" points="453.5,-144 251.5,-144 251.5,-112 453.5,-112 453.5,-144"/>
<text xml:space="preserve" text-anchor="start" x="259.5" y="-130.5" font-family="Helvetica,sans-Serif" font-size="10.00">Source/Pyrano/Private</text>
<text xml:space="preserve" text-anchor="middle" x="352.5" y="-118.5" font-family="Helvetica,sans-Serif" font-size="10.00">/Components/PyranometerComponent.cpp</text>
</a>
</g>
</g>
<!-- Node2 -->
<g id="Node000002" class="node">
<title>Node2</title>
<g id="a_Node000002"><a xlink:href="_pyranometer_component_8h.html" target="_top" xlink:title=" ">
<polygon fill="white" stroke="#666666" points="271.75,-76 83.25,-76 83.25,-56 271.75,-56 271.75,-76"/>
<text xml:space="preserve" text-anchor="middle" x="177.5" y="-62.5" font-family="Helvetica,sans-Serif" font-size="10.00">Components/PyranometerComponent.h</text>
</a>
</g>
</g>
<!-- Node1&#45;&gt;Node2 -->
<g id="edge1_Node000001_Node000002" class="edge">
<title>Node1&#45;&gt;Node2</title>
<g id="a_edge1_Node000001_Node000002"><a xlink:title=" ">
<path fill="none" stroke="#63b8ff" d="M307.43,-111.55C279.04,-101.81 242.78,-89.38 215.78,-80.13"/>
<polygon fill="#63b8ff" stroke="#63b8ff" points="217.22,-76.92 206.63,-76.99 214.95,-83.54 217.22,-76.92"/>
</a>
</g>
</g>
<!-- Node6 -->
<g id="Node000006" class="node">
<title>Node6</title>
<g id="a_Node000006"><a xlink:title=" ">
<polygon fill="#e0e0e0" stroke="#999999" points="415.25,-76 289.75,-76 289.75,-56 415.25,-56 415.25,-76"/>
<text xml:space="preserve" text-anchor="middle" x="352.5" y="-62.5" font-family="Helvetica,sans-Serif" font-size="10.00">GameFramework/Actor.h</text>
</a>
</g>
</g>
<!-- Node1&#45;&gt;Node6 -->
<g id="edge5_Node000001_Node000006" class="edge">
<title>Node1&#45;&gt;Node6</title>
<g id="a_edge5_Node000001_Node000006"><a xlink:title=" ">
<path fill="none" stroke="#63b8ff" d="M352.5,-111.55C352.5,-104.34 352.5,-95.66 352.5,-87.88"/>
<polygon fill="#63b8ff" stroke="#63b8ff" points="356,-87.92 352.5,-77.92 349,-87.92 356,-87.92"/>
</a>
</g>
</g>
<!-- Node7 -->
<g id="Node000007" class="node">
<title>Node7</title>
<g id="a_Node000007"><a xlink:title=" ">
<polygon fill="#e0e0e0" stroke="#999999" points="515.5,-76 433.5,-76 433.5,-56 515.5,-56 515.5,-76"/>
<text xml:space="preserve" text-anchor="middle" x="474.5" y="-62.5" font-family="Helvetica,sans-Serif" font-size="10.00">Engine/World.h</text>
</a>
</g>
</g>
<!-- Node1&#45;&gt;Node7 -->
<g id="edge6_Node000001_Node000007" class="edge">
<title>Node1&#45;&gt;Node7</title>
<g id="a_edge6_Node000001_Node000007"><a xlink:title=" ">
<path fill="none" stroke="#63b8ff" d="M383.92,-111.55C402.8,-102.26 426.68,-90.52 445.18,-81.42"/>
<polygon fill="#63b8ff" stroke="#63b8ff" points="446.58,-84.63 454.01,-77.08 443.49,-78.35 446.58,-84.63"/>
</a>
</g>
</g>
<!-- Node3 -->
<g id="Node000003" class="node">
<title>Node3</title>
<g id="a_Node000003"><a xlink:title=" ">
<polygon fill="#e0e0e0" stroke="#999999" points="79,-20 0,-20 0,0 79,0 79,-20"/>
<text xml:space="preserve" text-anchor="middle" x="39.5" y="-6.5" font-family="Helvetica,sans-Serif" font-size="10.00">CoreMinimal.h</text>
</a>
</g>
</g>
<!-- Node2&#45;&gt;Node3 -->
<g id="edge2_Node000002_Node000003" class="edge">
<title>Node2&#45;&gt;Node3</title>
<g id="a_edge2_Node000002_Node000003"><a xlink:title=" ">
<path fill="none" stroke="#63b8ff" d="M153.46,-55.59C131.53,-47.01 98.87,-34.23 74.13,-24.55"/>
<polygon fill="#63b8ff" stroke="#63b8ff" points="75.72,-21.42 65.13,-21.03 73.17,-27.93 75.72,-21.42"/>
</a>
</g>
</g>
<!-- Node4 -->
<g id="Node000004" class="node">
<title>Node4</title>
<g id="a_Node000004"><a xlink:title=" ">
<polygon fill="#e0e0e0" stroke="#999999" points="257.88,-20 97.12,-20 97.12,0 257.88,0 257.88,-20"/>
<text xml:space="preserve" text-anchor="middle" x="177.5" y="-6.5" font-family="Helvetica,sans-Serif" font-size="10.00">Components/SceneComponent.h</text>
</a>
</g>
</g>
<!-- Node2&#45;&gt;Node4 -->
<g id="edge3_Node000002_Node000004" class="edge">
<title>Node2&#45;&gt;Node4</title>
<g id="a_edge3_Node000002_Node000004"><a xlink:title=" ">
<path fill="none" stroke="#63b8ff" d="M177.5,-55.59C177.5,-49.01 177.5,-39.96 177.5,-31.73"/>
<polygon fill="#63b8ff" stroke="#63b8ff" points="181,-31.81 177.5,-21.81 174,-31.81 181,-31.81"/>
</a>
</g>
</g>
<!-- Node5 -->
<g id="Node000005" class="node">
<title>Node5</title>
<g id="a_Node000005"><a xlink:title=" ">
<polygon fill="#e0e0e0" stroke="#999999" points="451.38,-20 275.62,-20 275.62,0 451.38,0 451.38,-20"/>
<text xml:space="preserve" text-anchor="middle" x="363.5" y="-6.5" font-family="Helvetica,sans-Serif" font-size="10.00">PyranometerComponent.generated.h</text>
</a>
</g>
</g>
<!-- Node2&#45;&gt;Node5 -->
<g id="edge4_Node000002_Node000005" class="edge">
<title>Node2&#45;&gt;Node5</title>
<g id="a_edge4_Node000002_Node000005"><a xlink:title=" ">
<path fill="none" stroke="#63b8ff" d="M209.9,-55.59C240.38,-46.74 286.26,-33.43 319.93,-23.65"/>
<polygon fill="#63b8ff" stroke="#63b8ff" points="320.77,-27.05 329.39,-20.9 318.82,-20.33 320.77,-27.05"/>
</a>
</g>
</g>
</g>
</svg>
