<?xml version="1.0" encoding="UTF-8" standalone="no"?>
<!DOCTYPE svg PUBLIC "-//W3C//DTD SVG 1.1//EN"
 "http://www.w3.org/Graphics/SVG/1.1/DTD/svg11.dtd">
<!-- Generated by graphviz version 14.1.0 (20251206.1807)
 -->
<!-- Title: Source/PyranoEditor/Private/Logging/PyranoConsoleLogSink.h Pages: 1 -->
<svg width="504pt" height="212pt"
 viewBox="0.00 0.00 504.00 212.00" xmlns="http://www.w3.org/2000/svg" xmlns:xlink="http://www.w3.org/1999/xlink">
<g id="graph0" class="graph" transform="scale(1 1) rotate(0) translate(4 208)">
<title>Source/PyranoEditor/Private/Logging/PyranoConsoleLogSink.h</title>
<!-- Node1 -->
<g id="Node000001" class="node">
<title>Node1</title>
<g id="a_Node000001"><a xlink:title=" ">
<polygon fill="#999999" stroke="#666666" points="319.25,-204 163,-204 163,-160 319.25,-160 319.25,-204"/>
<text xml:space="preserve" text-anchor="start" x="171" y="-190.5" font-family="Helvetica,sans-Serif" font-size="10.00">Source/PyranoEditor</text>
<text xml:space="preserve" text-anchor="start" x="171" y="-178.5" font-family="Helvetica,sans-Serif" font-size="10.00">/Private/Logging/PyranoConsole</text>
<text xml:space="preserve" text-anchor="middle" x="241.12" y="-166.5" font-family="Helvetica,sans-Serif" font-size="10.00">LogSink.h</text>
</a>
</g>
</g>
<!-- Node2 -->
<g id="Node000002" class="node">
<title>Node2</title>
<g id="a_Node000002"><a xlink:href="_pyrano_console_log_sink_8cpp.html" target="_top" xlink:title=" ">
<polygon fill="white" stroke="#666666" points="156.25,-124 0,-124 0,-80 156.25,-80 156.25,-124"/>
<text xml:space="preserve" text-anchor="start" x="8" y="-110.5" font-family="Helvetica,sans-Serif" font-size="10.00">Source/PyranoEditor</text>
<text xml:space="preserve" text-anchor="start" x="8" y="-98.5" font-family="Helvetica,sans-Serif" font-size="10.00">/Private/Logging/PyranoConsole</text>
<text xml:space="preserve" text-anchor="middle" x="78.12" y="-86.5" font-family="Helvetica,sans-Serif" font-size="10.00">LogSink.cpp</text>
</a>
</g>
</g>
<!-- Node1&#45;&gt;Node2 -->
<g id="edge1_Node000001_Node000002" class="edge">
<title>Node1&#45;&gt;Node2</title>
<g id="a_edge1_Node000001_Node000002"><a xlink:title=" ">
<path fill="none" stroke="#63b8ff" d="M186.37,-154.8C165.73,-144.92 142.52,-133.81 122.89,-124.42"/>
<polygon fill="#63b8ff" stroke="#63b8ff" points="184.69,-157.87 195.22,-159.03 187.71,-151.56 184.69,-157.87"/>
</a>
</g>
</g>
<!-- Node3 -->
<g id="Node000003" class="node">
<title>Node3</title>
<g id="a_Node000003"><a xlink:href="_pyrano_editor_subsystem_8h.html" target="_top" xlink:title=" ">
<polygon fill="white" stroke="#666666" points="307.62,-124 174.62,-124 174.62,-80 307.62,-80 307.62,-124"/>
<text xml:space="preserve" text-anchor="start" x="182.62" y="-110.5" font-family="Helvetica,sans-Serif" font-size="10.00">Source/PyranoEditor</text>
<text xml:space="preserve" text-anchor="start" x="182.62" y="-98.5" font-family="Helvetica,sans-Serif" font-size="10.00">/Private/Subsystems</text>
<text xml:space="preserve" text-anchor="middle" x="241.12" y="-86.5" font-family="Helvetica,sans-Serif" font-size="10.00">/PyranoEditorSubsystem.h</text>
</a>
</g>
</g>
<!-- Node1&#45;&gt;Node3 -->
<g id="edge2_Node000001_Node000003" class="edge">
<title>Node1&#45;&gt;Node3</title>
<g id="a_edge2_Node000001_Node000003"><a xlink:title=" ">
<path fill="none" stroke="#63b8ff" d="M241.12,-148.25C241.12,-140.15 241.12,-131.68 241.12,-124.29"/>
<polygon fill="#63b8ff" stroke="#63b8ff" points="237.63,-148.17 241.13,-158.17 244.63,-148.17 237.63,-148.17"/>
</a>
</g>
</g>
<!-- Node5 -->
<g id="Node000005" class="node">
<title>Node5</title>
<g id="a_Node000005"><a xlink:href="_console_log_widget_8h.html" target="_top" xlink:title=" ">
<polygon fill="white" stroke="#666666" points="487.62,-118 330.62,-118 330.62,-86 487.62,-86 487.62,-118"/>
<text xml:space="preserve" text-anchor="start" x="338.62" y="-104.5" font-family="Helvetica,sans-Serif" font-size="10.00">Source/PyranoEditor</text>
<text xml:space="preserve" text-anchor="middle" x="409.12" y="-92.5" font-family="Helvetica,sans-Serif" font-size="10.00">/Private/UI/ConsoleLogWidget.h</text>
</a>
</g>
</g>
<!-- Node1&#45;&gt;Node5 -->
<g id="edge4_Node000001_Node000005" class="edge">
<title>Node1&#45;&gt;Node5</title>
<g id="a_edge4_Node000001_Node000005"><a xlink:title=" ">
<path fill="none" stroke="#63b8ff" d="M297.17,-154.98C323.24,-142.87 353.37,-128.89 375.8,-118.47"/>
<polygon fill="#63b8ff" stroke="#63b8ff" points="296,-151.66 288.4,-159.05 298.95,-158.01 296,-151.66"/>
</a>
</g>
</g>
<!-- Node4 -->
<g id="Node000004" class="node">
<title>Node4</title>
<g id="a_Node000004"><a xlink:href="_pyrano_editor_subsystem_8cpp.html" target="_top" xlink:title=" ">
<polygon fill="white" stroke="#666666" points="309.88,-44 166.38,-44 166.38,0 309.88,0 309.88,-44"/>
<text xml:space="preserve" text-anchor="start" x="174.38" y="-30.5" font-family="Helvetica,sans-Serif" font-size="10.00">Source/PyranoEditor</text>
<text xml:space="preserve" text-anchor="start" x="174.38" y="-18.5" font-family="Helvetica,sans-Serif" font-size="10.00">/Private/Subsystems</text>
<text xml:space="preserve" text-anchor="middle" x="238.12" y="-6.5" font-family="Helvetica,sans-Serif" font-size="10.00">/PyranoEditorSubsystem.cpp</text>
</a>
</g>
</g>
<!-- Node3&#45;&gt;Node4 -->
<g id="edge3_Node000003_Node000004" class="edge">
<title>Node3&#45;&gt;Node4</title>
<g id="a_edge3_Node000003_Node000004"><a xlink:title=" ">
<path fill="none" stroke="#63b8ff" d="M239.87,-68.25C239.55,-60.15 239.23,-51.68 238.94,-44.29"/>
<polygon fill="#63b8ff" stroke="#63b8ff" points="236.37,-68.32 240.25,-78.17 243.36,-68.05 236.37,-68.32"/>
</a>
</g>
</g>
<!-- Node6 -->
<g id="Node000006" class="node">
<title>Node6</title>
<g id="a_Node000006"><a xlink:href="_console_log_widget_8cpp.html" target="_top" xlink:title=" ">
<polygon fill="white" stroke="#666666" points="495.88,-38 328.38,-38 328.38,-6 495.88,-6 495.88,-38"/>
<text xml:space="preserve" text-anchor="start" x="336.38" y="-24.5" font-family="Helvetica,sans-Serif" font-size="10.00">Source/PyranoEditor</text>
<text xml:space="preserve" text-anchor="middle" x="412.12" y="-12.5" font-family="Helvetica,sans-Serif" font-size="10.00">/Private/UI/ConsoleLogWidget.cpp</text>
</a>
</g>
</g>
<!-- Node5&#45;&gt;Node6 -->
<g id="edge5_Node000005_Node000006" class="edge">
<title>Node5&#45;&gt;Node6</title>
<g id="a_edge5_Node000005_Node000006"><a xlink:title=" ">
<path fill="none" stroke="#63b8ff" d="M410.15,-74.37C410.61,-62.37 411.14,-48.63 411.53,-38.38"/>
<polygon fill="#63b8ff" stroke="#63b8ff" points="406.66,-73.95 409.78,-84.08 413.66,-74.22 406.66,-73.95"/>
</a>
</g>
</g>
</g>
</svg>
