<?xml version="1.0" encoding="UTF-8" standalone="no"?>
<!DOCTYPE svg PUBLIC "-//W3C//DTD SVG 1.1//EN"
 "http://www.w3.org/Graphics/SVG/1.1/DTD/svg11.dtd">
<!-- Generated by graphviz version 14.1.0 (20251206.1807)
 -->
<!-- Title: Source/Pyrano/Public/Components/PyranometerComponent.h Pages: 1 -->
<svg width="459pt" height="96pt"
 viewBox="0.00 0.00 459.00 96.00" xmlns="http://www.w3.org/2000/svg" xmlns:xlink="http://www.w3.org/1999/xlink">
<g id="graph0" class="graph" transform="scale(1 1) rotate(0) translate(4 92)">
<title>Source/Pyrano/Public/Components/PyranometerComponent.h</title>
<!-- Node1 -->
<g id="Node000001" class="node">
<title>Node1</title>
<g id="a_Node000001"><a xlink:title=" ">
<polygon fill="#999999" stroke="#666666" points="273.25,-88 81.75,-88 81.75,-56 273.25,-56 273.25,-88"/>
<text xml:space="preserve" text-anchor="start" x="89.75" y="-74.5" font-family="Helvetica,sans-Serif" font-size="10.00">Source/Pyrano/Public</text>
<text xml:space="preserve" text-anchor="middle" x="177.5" y="-62.5" font-family="Helvetica,sans-Serif" font-size="10.00">/Components/PyranometerComponent.h</text>
</a>
</g>
</g>
<!-- Node2 -->
<g id="Node000002" class="node">
<title>Node2</title>
<g id="a_Node000002"><a xlink:title=" ">
<polygon fill="#e0e0e0" stroke="#999999" points="79,-20 0,-20 0,0 79,0 79,-20"/>
<text xml:space="preserve" text-anchor="middle" x="39.5" y="-6.5" font-family="Helvetica,sans-Serif" font-size="10.00">CoreMinimal.h</text>
</a>
</g>
</g>
<!-- Node1&#45;&gt;Node2 -->
<g id="edge1_Node000001_Node000002" class="edge">
<title>Node1&#45;&gt;Node2</title>
<g id="a_edge1_Node000001_Node000002"><a xlink:title=" ">
<path fill="none" stroke="#63b8ff" d="M141.96,-55.55C120.2,-46.09 92.58,-34.08 71.5,-24.91"/>
<polygon fill="#63b8ff" stroke="#63b8ff" points="73.09,-21.79 62.53,-21.01 70.3,-28.21 73.09,-21.79"/>
</a>
</g>
</g>
<!-- Node3 -->
<g id="Node000003" class="node">
<title>Node3</title>
<g id="a_Node000003"><a xlink:title=" ">
<polygon fill="#e0e0e0" stroke="#999999" points="257.88,-20 97.12,-20 97.12,0 257.88,0 257.88,-20"/>
<text xml:space="preserve" text-anchor="middle" x="177.5" y="-6.5" font-family="Helvetica,sans-Serif" font-size="10.00">Components/SceneComponent.h</text>
</a>
</g>
</g>
<!-- Node1&#45;&gt;Node3 -->
<g id="edge2_Node000001_Node000003" class="edge">
<title>Node1&#45;&gt;Node3</title>
<g id="a_edge2_Node000001_Node000003"><a xlink:title=" ">
<path fill="none" stroke="#63b8ff" d="M177.5,-55.55C177.5,-48.34 177.5,-39.66 177.5,-31.88"/>
<polygon fill="#63b8ff" stroke="#63b8ff" points="181,-31.92 177.5,-21.92 174,-31.92 181,-31.92"/>
</a>
</g>
</g>
<!-- Node4 -->
<g id="Node000004" class="node">
<title>Node4</title>
<g id="a_Node000004"><a xlink:title=" ">
<polygon fill="#e0e0e0" stroke="#999999" points="451.38,-20 275.62,-20 275.62,0 451.38,0 451.38,-20"/>
<text xml:space="preserve" text-anchor="middle" x="363.5" y="-6.5" font-family="Helvetica,sans-Serif" font-size="10.00">PyranometerComponent.generated.h</text>
</a>
</g>
</g>
<!-- Node1&#45;&gt;Node4 -->
<g id="edge3_Node000001_Node000004" class="edge">
<title>Node1&#45;&gt;Node4</title>
<g id="a_edge3_Node000001_Node000004"><a xlink:title=" ">
<path fill="none" stroke="#63b8ff" d="M225.4,-55.55C255.71,-45.77 294.46,-33.27 323.19,-24"/>
<polygon fill="#63b8ff" stroke="#63b8ff" points="324.18,-27.36 332.62,-20.96 322.03,-20.7 324.18,-27.36"/>
</a>
</g>
</g>
</g>
</svg>
