<?xml version="1.0" encoding="UTF-8" standalone="no"?>
<!DOCTYPE svg PUBLIC "-//W3C//DTD SVG 1.1//EN"
 "http://www.w3.org/Graphics/SVG/1.1/DTD/svg11.dtd">
<!-- Generated by graphviz version 14.1.0 (20251206.1807)
 -->
<!-- Title: Source/PyranoEditor/Private/Logging/PyranoConsoleLogSink.cpp Pages: 1 -->
<svg width="451pt" height="176pt"
 viewBox="0.00 0.00 451.00 176.00" xmlns="http://www.w3.org/2000/svg" xmlns:xlink="http://www.w3.org/1999/xlink">
<g id="graph0" class="graph" transform="scale(1 1) rotate(0) translate(4 172)">
<title>Source/PyranoEditor/Private/Logging/PyranoConsoleLogSink.cpp</title>
<!-- Node1 -->
<g id="Node000001" class="node">
<title>Node1</title>
<g id="a_Node000001"><a xlink:title=" ">
<polygon fill="#999999" stroke="#666666" points="291.88,-168 135.62,-168 135.62,-124 291.88,-124 291.88,-168"/>
<text xml:space="preserve" text-anchor="start" x="143.62" y="-154.5" font-family="Helvetica,sans-Serif" font-size="10.00">Source/PyranoEditor</text>
<text xml:space="preserve" text-anchor="start" x="143.62" y="-142.5" font-family="Helvetica,sans-Serif" font-size="10.00">/Private/Logging/PyranoConsole</text>
<text xml:space="preserve" text-anchor="middle" x="213.75" y="-130.5" font-family="Helvetica,sans-Serif" font-size="10.00">LogSink.cpp</text>
</a>
</g>
</g>
<!-- Node2 -->
<g id="Node000002" class="node">
<title>Node2</title>
<g id="a_Node000002"><a xlink:href="_pyrano_console_log_sink_8h.html" target="_top" xlink:title=" ">
<polygon fill="white" stroke="#666666" points="443.38,-88 308.12,-88 308.12,-56 443.38,-56 443.38,-88"/>
<text xml:space="preserve" text-anchor="start" x="316.12" y="-74.5" font-family="Helvetica,sans-Serif" font-size="10.00">Logging/PyranoConsoleLog</text>
<text xml:space="preserve" text-anchor="middle" x="375.75" y="-62.5" font-family="Helvetica,sans-Serif" font-size="10.00">Sink.h</text>
</a>
</g>
</g>
<!-- Node1&#45;&gt;Node2 -->
<g id="edge1_Node000001_Node000002" class="edge">
<title>Node1&#45;&gt;Node2</title>
<g id="a_edge1_Node000001_Node000002"><a xlink:title=" ">
<path fill="none" stroke="#63b8ff" d="M261.92,-123.59C283.62,-113.95 309.11,-102.62 330.46,-93.13"/>
<polygon fill="#63b8ff" stroke="#63b8ff" points="331.79,-96.37 339.5,-89.11 328.94,-89.97 331.79,-96.37"/>
</a>
</g>
</g>
<!-- Node5 -->
<g id="Node000005" class="node">
<title>Node5</title>
<g id="a_Node000005"><a xlink:href="_irradiance_log_8h.html" target="_top" xlink:title=" ">
<polygon fill="white" stroke="#666666" points="119.5,-82 0,-82 0,-62 119.5,-62 119.5,-82"/>
<text xml:space="preserve" text-anchor="middle" x="59.75" y="-68.5" font-family="Helvetica,sans-Serif" font-size="10.00">Logging/IrradianceLog.h</text>
</a>
</g>
</g>
<!-- Node1&#45;&gt;Node5 -->
<g id="edge4_Node000001_Node000005" class="edge">
<title>Node1&#45;&gt;Node5</title>
<g id="a_edge4_Node000001_Node000005"><a xlink:title=" ">
<path fill="none" stroke="#63b8ff" d="M167.96,-123.59C142.82,-111.84 112.33,-97.58 90.13,-87.2"/>
<polygon fill="#63b8ff" stroke="#63b8ff" points="91.87,-84.15 81.33,-83.09 88.91,-90.49 91.87,-84.15"/>
</a>
</g>
</g>
<!-- Node6 -->
<g id="Node000006" class="node">
<title>Node6</title>
<g id="a_Node000006"><a xlink:href="_irradiance_common_8h.html" target="_top" xlink:title=" ">
<polygon fill="white" stroke="#666666" points="290,-82 137.5,-82 137.5,-62 290,-62 290,-82"/>
<text xml:space="preserve" text-anchor="middle" x="213.75" y="-68.5" font-family="Helvetica,sans-Serif" font-size="10.00">Irradiance/IrradianceCommon.h</text>
</a>
</g>
</g>
<!-- Node1&#45;&gt;Node6 -->
<g id="edge6_Node000001_Node000006" class="edge">
<title>Node1&#45;&gt;Node6</title>
<g id="a_edge6_Node000001_Node000006"><a xlink:title=" ">
<path fill="none" stroke="#63b8ff" d="M213.75,-123.79C213.75,-114.32 213.75,-103.2 213.75,-93.78"/>
<polygon fill="#63b8ff" stroke="#63b8ff" points="217.25,-93.82 213.75,-83.82 210.25,-93.82 217.25,-93.82"/>
</a>
</g>
</g>
<!-- Node3 -->
<g id="Node000003" class="node">
<title>Node3</title>
<g id="a_Node000003"><a xlink:title=" ">
<polygon fill="#e0e0e0" stroke="#999999" points="253.25,-20 174.25,-20 174.25,0 253.25,0 253.25,-20"/>
<text xml:space="preserve" text-anchor="middle" x="213.75" y="-6.5" font-family="Helvetica,sans-Serif" font-size="10.00">CoreMinimal.h</text>
</a>
</g>
</g>
<!-- Node2&#45;&gt;Node3 -->
<g id="edge2_Node000002_Node000003" class="edge">
<title>Node2&#45;&gt;Node3</title>
<g id="a_edge2_Node000002_Node000003"><a xlink:title=" ">
<path fill="none" stroke="#63b8ff" d="M334.03,-55.55C307.9,-45.87 274.57,-33.53 249.62,-24.29"/>
<polygon fill="#63b8ff" stroke="#63b8ff" points="251.16,-21.12 240.57,-20.93 248.73,-27.69 251.16,-21.12"/>
</a>
</g>
</g>
<!-- Node4 -->
<g id="Node000004" class="node">
<title>Node4</title>
<g id="a_Node000004"><a xlink:title=" ">
<polygon fill="#e0e0e0" stroke="#999999" points="429.88,-20 321.62,-20 321.62,0 429.88,0 429.88,-20"/>
<text xml:space="preserve" text-anchor="middle" x="375.75" y="-6.5" font-family="Helvetica,sans-Serif" font-size="10.00">Misc/OutputDevice.h</text>
</a>
</g>
</g>
<!-- Node2&#45;&gt;Node4 -->
<g id="edge3_Node000002_Node000004" class="edge">
<title>Node2&#45;&gt;Node4</title>
<g id="a_edge3_Node000002_Node000004"><a xlink:title=" ">
<path fill="none" stroke="#63b8ff" d="M375.75,-55.55C375.75,-48.34 375.75,-39.66 375.75,-31.88"/>
<polygon fill="#63b8ff" stroke="#63b8ff" points="379.25,-31.92 375.75,-21.92 372.25,-31.92 379.25,-31.92"/>
</a>
</g>
</g>
<!-- Node5&#45;&gt;Node3 -->
<g id="edge5_Node000005_Node000003" class="edge">
<title>Node5&#45;&gt;Node3</title>
<g id="a_edge5_Node000005_Node000003"><a xlink:title=" ">
<path fill="none" stroke="#63b8ff" d="M83.81,-61.62C109.39,-51.66 150.08,-35.81 179.1,-24.5"/>
<polygon fill="#63b8ff" stroke="#63b8ff" points="180.15,-27.85 188.19,-20.96 177.6,-21.33 180.15,-27.85"/>
</a>
</g>
</g>
<!-- Node6&#45;&gt;Node3 -->
<g id="edge7_Node000006_Node000003" class="edge">
<title>Node6&#45;&gt;Node3</title>
<g id="a_edge7_Node000006_Node000003"><a xlink:title=" ">
<path fill="none" stroke="#63b8ff" d="M213.75,-61.62C213.75,-53.56 213.75,-41.65 213.75,-31.41"/>
<polygon fill="#63b8ff" stroke="#63b8ff" points="217.25,-31.63 213.75,-21.63 210.25,-31.63 217.25,-31.63"/>
</a>
</g>
</g>
</g>
</svg>
