<?xml version="1.0" encoding="UTF-8" standalone="no"?>
<!DOCTYPE svg PUBLIC "-//W3C//DTD SVG 1.1//EN"
 "http://www.w3.org/Graphics/SVG/1.1/DTD/svg11.dtd">
<!-- Generated by graphviz version 14.1.0 (20251206.1807)
 -->
<!-- Title: Source/PyranoEditor/Private/PyranoEditor.cpp Pages: 1 -->
<svg width="668pt" height="152pt"
 viewBox="0.00 0.00 668.00 152.00" xmlns="http://www.w3.org/2000/svg" xmlns:xlink="http://www.w3.org/1999/xlink">
<g id="graph0" class="graph" transform="scale(1 1) rotate(0) translate(4 148)">
<title>Source/PyranoEditor/Private/PyranoEditor.cpp</title>
<!-- Node1 -->
<g id="Node000001" class="node">
<title>Node1</title>
<g id="a_Node000001"><a xlink:title=" ">
<polygon fill="#999999" stroke="#666666" points="350.38,-144 222.62,-144 222.62,-112 350.38,-112 350.38,-144"/>
<text xml:space="preserve" text-anchor="start" x="230.62" y="-130.5" font-family="Helvetica,sans-Serif" font-size="10.00">Source/PyranoEditor</text>
<text xml:space="preserve" text-anchor="middle" x="286.5" y="-118.5" font-family="Helvetica,sans-Serif" font-size="10.00">/Private/PyranoEditor.cpp</text>
</a>
</g>
</g>
<!-- Node2 -->
<g id="Node000002" class="node">
<title>Node2</title>
<g id="a_Node000002"><a xlink:href="_pyrano_editor_8h.html" target="_top" xlink:title=" ">
<polygon fill="white" stroke="#666666" points="135.75,-76 55.25,-76 55.25,-56 135.75,-56 135.75,-76"/>
<text xml:space="preserve" text-anchor="middle" x="95.5" y="-62.5" font-family="Helvetica,sans-Serif" font-size="10.00">PyranoEditor.h</text>
</a>
</g>
</g>
<!-- Node1&#45;&gt;Node2 -->
<g id="edge1_Node000001_Node000002" class="edge">
<title>Node1&#45;&gt;Node2</title>
<g id="a_edge1_Node000001_Node000002"><a xlink:title=" ">
<path fill="none" stroke="#63b8ff" d="M237.31,-111.55C206.05,-101.73 166.04,-89.16 136.5,-79.88"/>
<polygon fill="#63b8ff" stroke="#63b8ff" points="137.76,-76.61 127.17,-76.95 135.67,-83.29 137.76,-76.61"/>
</a>
</g>
</g>
<!-- Node4 -->
<g id="Node000004" class="node">
<title>Node4</title>
<g id="a_Node000004"><a xlink:title=" ">
<polygon fill="#e0e0e0" stroke="#999999" points="230,-20 97,-20 97,0 230,0 230,-20"/>
<text xml:space="preserve" text-anchor="middle" x="163.5" y="-6.5" font-family="Helvetica,sans-Serif" font-size="10.00">Modules/ModuleManager.h</text>
</a>
</g>
</g>
<!-- Node1&#45;&gt;Node4 -->
<g id="edge8_Node000001_Node000004" class="edge">
<title>Node1&#45;&gt;Node4</title>
<g id="a_edge8_Node000001_Node000004"><a xlink:title=" ">
<path fill="none" stroke="#63b8ff" d="M235.97,-111.59C217.22,-103.63 197.2,-92.11 183.5,-76 172.84,-63.47 167.86,-45.32 165.53,-31.38"/>
<polygon fill="#63b8ff" stroke="#63b8ff" points="169.02,-31.02 164.25,-21.55 162.07,-31.92 169.02,-31.02"/>
</a>
</g>
</g>
<!-- Node5 -->
<g id="Node000005" class="node">
<title>Node5</title>
<g id="a_Node000005"><a xlink:title=" ">
<polygon fill="#e0e0e0" stroke="#999999" points="265,-76 192,-76 192,-56 265,-56 265,-76"/>
<text xml:space="preserve" text-anchor="middle" x="228.5" y="-62.5" font-family="Helvetica,sans-Serif" font-size="10.00">LevelEditor.h</text>
</a>
</g>
</g>
<!-- Node1&#45;&gt;Node5 -->
<g id="edge4_Node000001_Node000005" class="edge">
<title>Node1&#45;&gt;Node5</title>
<g id="a_edge4_Node000001_Node000005"><a xlink:title=" ">
<path fill="none" stroke="#63b8ff" d="M271.56,-111.55C263.59,-103.3 253.75,-93.12 245.49,-84.57"/>
<polygon fill="#63b8ff" stroke="#63b8ff" points="248.11,-82.25 238.65,-77.5 243.08,-87.12 248.11,-82.25"/>
</a>
</g>
</g>
<!-- Node6 -->
<g id="Node000006" class="node">
<title>Node6</title>
<g id="a_Node000006"><a xlink:title=" ">
<polygon fill="#e0e0e0" stroke="#999999" points="407.88,-76 283.12,-76 283.12,-56 407.88,-56 407.88,-76"/>
<text xml:space="preserve" text-anchor="middle" x="345.5" y="-62.5" font-family="Helvetica,sans-Serif" font-size="10.00">EditorUtilitySubsystem.h</text>
</a>
</g>
</g>
<!-- Node1&#45;&gt;Node6 -->
<g id="edge5_Node000001_Node000006" class="edge">
<title>Node1&#45;&gt;Node6</title>
<g id="a_edge5_Node000001_Node000006"><a xlink:title=" ">
<path fill="none" stroke="#63b8ff" d="M301.69,-111.55C309.8,-103.3 319.81,-93.12 328.22,-84.57"/>
<polygon fill="#63b8ff" stroke="#63b8ff" points="330.67,-87.07 335.19,-77.49 325.68,-82.16 330.67,-87.07"/>
</a>
</g>
</g>
<!-- Node7 -->
<g id="Node000007" class="node">
<title>Node7</title>
<g id="a_Node000007"><a xlink:title=" ">
<polygon fill="#e0e0e0" stroke="#999999" points="570.62,-76 426.38,-76 426.38,-56 570.62,-56 570.62,-76"/>
<text xml:space="preserve" text-anchor="middle" x="498.5" y="-62.5" font-family="Helvetica,sans-Serif" font-size="10.00">EditorUtilityWidgetBlueprint.h</text>
</a>
</g>
</g>
<!-- Node1&#45;&gt;Node7 -->
<g id="edge6_Node000001_Node000007" class="edge">
<title>Node1&#45;&gt;Node7</title>
<g id="a_edge6_Node000001_Node000007"><a xlink:title=" ">
<path fill="none" stroke="#63b8ff" d="M341.1,-111.55C376.26,-101.6 421.37,-88.83 454.29,-79.51"/>
<polygon fill="#63b8ff" stroke="#63b8ff" points="454.82,-83 463.49,-76.91 452.91,-76.26 454.82,-83"/>
</a>
</g>
</g>
<!-- Node8 -->
<g id="Node000008" class="node">
<title>Node8</title>
<g id="a_Node000008"><a xlink:title=" ">
<polygon fill="#e0e0e0" stroke="#999999" points="660.25,-76 588.75,-76 588.75,-56 660.25,-56 660.25,-76"/>
<text xml:space="preserve" text-anchor="middle" x="624.5" y="-62.5" font-family="Helvetica,sans-Serif" font-size="10.00">ToolMenus.h</text>
</a>
</g>
</g>
<!-- Node1&#45;&gt;Node8 -->
<g id="edge7_Node000001_Node000008" class="edge">
<title>Node1&#45;&gt;Node8</title>
<g id="a_edge7_Node000001_Node000008"><a xlink:title=" ">
<path fill="none" stroke="#63b8ff" d="M350.6,-116.32C407.52,-106.72 493.26,-92.01 577.58,-76.32"/>
<polygon fill="#63b8ff" stroke="#63b8ff" points="577.98,-79.81 587.17,-74.53 576.69,-72.93 577.98,-79.81"/>
</a>
</g>
</g>
<!-- Node3 -->
<g id="Node000003" class="node">
<title>Node3</title>
<g id="a_Node000003"><a xlink:title=" ">
<polygon fill="#e0e0e0" stroke="#999999" points="79,-20 0,-20 0,0 79,0 79,-20"/>
<text xml:space="preserve" text-anchor="middle" x="39.5" y="-6.5" font-family="Helvetica,sans-Serif" font-size="10.00">CoreMinimal.h</text>
</a>
</g>
</g>
<!-- Node2&#45;&gt;Node3 -->
<g id="edge2_Node000002_Node000003" class="edge">
<title>Node2&#45;&gt;Node3</title>
<g id="a_edge2_Node000002_Node000003"><a xlink:title=" ">
<path fill="none" stroke="#63b8ff" d="M85.75,-55.59C77.88,-48.01 66.6,-37.13 57.15,-28.02"/>
<polygon fill="#63b8ff" stroke="#63b8ff" points="59.86,-25.77 50.23,-21.35 55,-30.81 59.86,-25.77"/>
</a>
</g>
</g>
<!-- Node2&#45;&gt;Node4 -->
<g id="edge3_Node000002_Node000004" class="edge">
<title>Node2&#45;&gt;Node4</title>
<g id="a_edge3_Node000002_Node000004"><a xlink:title=" ">
<path fill="none" stroke="#63b8ff" d="M107.34,-55.59C117.19,-47.77 131.43,-36.46 143.11,-27.19"/>
<polygon fill="#63b8ff" stroke="#63b8ff" points="144.95,-30.2 150.61,-21.24 140.6,-24.72 144.95,-30.2"/>
</a>
</g>
</g>
</g>
</svg>
