<?xml version="1.0" encoding="UTF-8" standalone="no"?>
<!DOCTYPE svg PUBLIC "-//W3C//DTD SVG 1.1//EN"
 "http://www.w3.org/Graphics/SVG/1.1/DTD/svg11.dtd">
<!-- Generated by graphviz version 14.1.0 (20251206.1807)
 -->
<!-- Title: Source/Pyrano/Private/Pyrano.cpp Pages: 1 -->
<svg width="445pt" height="152pt"
 viewBox="0.00 0.00 445.00 152.00" xmlns="http://www.w3.org/2000/svg" xmlns:xlink="http://www.w3.org/1999/xlink">
<g id="graph0" class="graph" transform="scale(1 1) rotate(0) translate(4 148)">
<title>Source/Pyrano/Private/Pyrano.cpp</title>
<!-- Node1 -->
<g id="Node000001" class="node">
<title>Node1</title>
<g id="a_Node000001"><a xlink:title=" ">
<polygon fill="#999999" stroke="#666666" points="300.62,-144 186.38,-144 186.38,-112 300.62,-112 300.62,-144"/>
<text xml:space="preserve" text-anchor="start" x="194.38" y="-130.5" font-family="Helvetica,sans-Serif" font-size="10.00">Source/Pyrano/Private</text>
<text xml:space="preserve" text-anchor="middle" x="243.5" y="-118.5" font-family="Helvetica,sans-Serif" font-size="10.00">/Pyrano.cpp</text>
</a>
</g>
</g>
<!-- Node2 -->
<g id="Node000002" class="node">
<title>Node2</title>
<g id="a_Node000002"><a xlink:href="_pyrano_8h.html" target="_top" xlink:title=" ">
<polygon fill="white" stroke="#666666" points="94,-76 39,-76 39,-56 94,-56 94,-76"/>
<text xml:space="preserve" text-anchor="middle" x="66.5" y="-62.5" font-family="Helvetica,sans-Serif" font-size="10.00">Pyrano.h</text>
</a>
</g>
</g>
<!-- Node1&#45;&gt;Node2 -->
<g id="edge1_Node000001_Node000002" class="edge">
<title>Node1&#45;&gt;Node2</title>
<g id="a_edge1_Node000001_Node000002"><a xlink:title=" ">
<path fill="none" stroke="#63b8ff" d="M197.92,-111.55C169.11,-101.78 132.3,-89.3 104.96,-80.04"/>
<polygon fill="#63b8ff" stroke="#63b8ff" points="106.28,-76.79 95.69,-76.89 104.03,-83.42 106.28,-76.79"/>
</a>
</g>
</g>
<!-- Node4 -->
<g id="Node000004" class="node">
<title>Node4</title>
<g id="a_Node000004"><a xlink:title=" ">
<polygon fill="#e0e0e0" stroke="#999999" points="250.62,-76 112.38,-76 112.38,-56 250.62,-56 250.62,-76"/>
<text xml:space="preserve" text-anchor="middle" x="181.5" y="-62.5" font-family="Helvetica,sans-Serif" font-size="10.00">Interfaces/IPluginManager.h</text>
</a>
</g>
</g>
<!-- Node1&#45;&gt;Node4 -->
<g id="edge3_Node000001_Node000004" class="edge">
<title>Node1&#45;&gt;Node4</title>
<g id="a_edge3_Node000001_Node000004"><a xlink:title=" ">
<path fill="none" stroke="#63b8ff" d="M227.53,-111.55C218.92,-103.22 208.27,-92.91 199.38,-84.3"/>
<polygon fill="#63b8ff" stroke="#63b8ff" points="201.93,-81.9 192.31,-77.46 197.06,-86.93 201.93,-81.9"/>
</a>
</g>
</g>
<!-- Node5 -->
<g id="Node000005" class="node">
<title>Node5</title>
<g id="a_Node000005"><a xlink:title=" ">
<polygon fill="#e0e0e0" stroke="#999999" points="342.38,-76 268.62,-76 268.62,-56 342.38,-56 342.38,-76"/>
<text xml:space="preserve" text-anchor="middle" x="305.5" y="-62.5" font-family="Helvetica,sans-Serif" font-size="10.00">Misc/Paths.h</text>
</a>
</g>
</g>
<!-- Node1&#45;&gt;Node5 -->
<g id="edge4_Node000001_Node000005" class="edge">
<title>Node1&#45;&gt;Node5</title>
<g id="a_edge4_Node000001_Node000005"><a xlink:title=" ">
<path fill="none" stroke="#63b8ff" d="M259.47,-111.55C268.08,-103.22 278.73,-92.91 287.62,-84.3"/>
<polygon fill="#63b8ff" stroke="#63b8ff" points="289.94,-86.93 294.69,-77.46 285.07,-81.9 289.94,-86.93"/>
</a>
</g>
</g>
<!-- Node6 -->
<g id="Node000006" class="node">
<title>Node6</title>
<g id="a_Node000006"><a xlink:title=" ">
<polygon fill="#e0e0e0" stroke="#999999" points="436.5,-76 360.5,-76 360.5,-56 436.5,-56 436.5,-76"/>
<text xml:space="preserve" text-anchor="middle" x="398.5" y="-62.5" font-family="Helvetica,sans-Serif" font-size="10.00">ShaderCore.h</text>
</a>
</g>
</g>
<!-- Node1&#45;&gt;Node6 -->
<g id="edge5_Node000001_Node000006" class="edge">
<title>Node1&#45;&gt;Node6</title>
<g id="a_edge5_Node000001_Node000006"><a xlink:title=" ">
<path fill="none" stroke="#63b8ff" d="M283.42,-111.55C308.2,-101.96 339.74,-89.75 363.53,-80.54"/>
<polygon fill="#63b8ff" stroke="#63b8ff" points="364.72,-83.83 372.78,-76.95 362.2,-77.3 364.72,-83.83"/>
</a>
</g>
</g>
<!-- Node3 -->
<g id="Node000003" class="node">
<title>Node3</title>
<g id="a_Node000003"><a xlink:title=" ">
<polygon fill="#e0e0e0" stroke="#999999" points="133,-20 0,-20 0,0 133,0 133,-20"/>
<text xml:space="preserve" text-anchor="middle" x="66.5" y="-6.5" font-family="Helvetica,sans-Serif" font-size="10.00">Modules/ModuleManager.h</text>
</a>
</g>
</g>
<!-- Node2&#45;&gt;Node3 -->
<g id="edge2_Node000002_Node000003" class="edge">
<title>Node2&#45;&gt;Node3</title>
<g id="a_edge2_Node000002_Node000003"><a xlink:title=" ">
<path fill="none" stroke="#63b8ff" d="M66.5,-55.59C66.5,-49.01 66.5,-39.96 66.5,-31.73"/>
<polygon fill="#63b8ff" stroke="#63b8ff" points="70,-31.81 66.5,-21.81 63,-31.81 70,-31.81"/>
</a>
</g>
</g>
</g>
</svg>
