<?xml version="1.0" encoding="UTF-8" standalone="no"?>
<!DOCTYPE svg PUBLIC "-//W3C//DTD SVG 1.1//EN"
 "http://www.w3.org/Graphics/SVG/1.1/DTD/svg11.dtd">
<!-- Generated by graphviz version 14.1.0 (20251206.1807)
 -->
<!-- Title: Source/PyranoEditor/Private/Data/SensorInfo.h Pages: 1 -->
<svg width="222pt" height="96pt"
 viewBox="0.00 0.00 222.00 96.00" xmlns="http://www.w3.org/2000/svg" xmlns:xlink="http://www.w3.org/1999/xlink">
<g id="graph0" class="graph" transform="scale(1 1) rotate(0) translate(4 92)">
<title>Source/PyranoEditor/Private/Data/SensorInfo.h</title>
<!-- Node1 -->
<g id="Node000001" class="node">
<title>Node1</title>
<g id="a_Node000001"><a xlink:title=" ">
<polygon fill="#999999" stroke="#666666" points="163.62,-88 31.38,-88 31.38,-56 163.62,-56 163.62,-88"/>
<text xml:space="preserve" text-anchor="start" x="39.38" y="-74.5" font-family="Helvetica,sans-Serif" font-size="10.00">Source/PyranoEditor</text>
<text xml:space="preserve" text-anchor="middle" x="97.5" y="-62.5" font-family="Helvetica,sans-Serif" font-size="10.00">/Private/Data/SensorInfo.h</text>
</a>
</g>
</g>
<!-- Node2 -->
<g id="Node000002" class="node">
<title>Node2</title>
<g id="a_Node000002"><a xlink:title=" ">
<polygon fill="#e0e0e0" stroke="#999999" points="79,-20 0,-20 0,0 79,0 79,-20"/>
<text xml:space="preserve" text-anchor="middle" x="39.5" y="-6.5" font-family="Helvetica,sans-Serif" font-size="10.00">CoreMinimal.h</text>
</a>
</g>
</g>
<!-- Node1&#45;&gt;Node2 -->
<g id="edge1_Node000001_Node000002" class="edge">
<title>Node1&#45;&gt;Node2</title>
<g id="a_edge1_Node000001_Node000002"><a xlink:title=" ">
<path fill="none" stroke="#63b8ff" d="M82.56,-55.55C74.59,-47.3 64.75,-37.12 56.49,-28.57"/>
<polygon fill="#63b8ff" stroke="#63b8ff" points="59.11,-26.25 49.65,-21.5 54.08,-31.12 59.11,-26.25"/>
</a>
</g>
</g>
<!-- Node3 -->
<g id="Node000003" class="node">
<title>Node3</title>
<g id="a_Node000003"><a xlink:title=" ">
<polygon fill="#e0e0e0" stroke="#999999" points="214.12,-20 96.88,-20 96.88,0 214.12,0 214.12,-20"/>
<text xml:space="preserve" text-anchor="middle" x="155.5" y="-6.5" font-family="Helvetica,sans-Serif" font-size="10.00">SensorInfo.generated.h</text>
</a>
</g>
</g>
<!-- Node1&#45;&gt;Node3 -->
<g id="edge2_Node000001_Node000003" class="edge">
<title>Node1&#45;&gt;Node3</title>
<g id="a_edge2_Node000001_Node000003"><a xlink:title=" ">
<path fill="none" stroke="#63b8ff" d="M112.44,-55.55C120.41,-47.3 130.25,-37.12 138.51,-28.57"/>
<polygon fill="#63b8ff" stroke="#63b8ff" points="140.92,-31.12 145.35,-21.5 135.89,-26.25 140.92,-31.12"/>
</a>
</g>
</g>
</g>
</svg>
