<?xml version="1.0" encoding="UTF-8" standalone="no"?>
<!DOCTYPE svg PUBLIC "-//W3C//DTD SVG 1.1//EN"
 "http://www.w3.org/Graphics/SVG/1.1/DTD/svg11.dtd">
<!-- Generated by graphviz version 14.1.0 (20251206.1807)
 -->
<!-- Title: Source/Pyrano/Public/Simulation/SimulationConfig.h Pages: 1 -->
<svg width="894pt" height="268pt"
 viewBox="0.00 0.00 894.00 268.00" xmlns="http://www.w3.org/2000/svg" xmlns:xlink="http://www.w3.org/1999/xlink">
<g id="graph0" class="graph" transform="scale(1 1) rotate(0) translate(4 264)">
<title>Source/Pyrano/Public/Simulation/SimulationConfig.h</title>
<!-- Node1 -->
<g id="Node000001" class="node">
<title>Node1</title>
<g id="a_Node000001"><a xlink:title=" ">
<polygon fill="#999999" stroke="#666666" points="617.5,-260 467.25,-260 467.25,-228 617.5,-228 617.5,-260"/>
<text xml:space="preserve" text-anchor="start" x="475.25" y="-246.5" font-family="Helvetica,sans-Serif" font-size="10.00">Source/Pyrano/Public</text>
<text xml:space="preserve" text-anchor="middle" x="542.38" y="-234.5" font-family="Helvetica,sans-Serif" font-size="10.00">/Simulation/SimulationConfig.h</text>
</a>
</g>
</g>
<!-- Node2 -->
<g id="Node000002" class="node">
<title>Node2</title>
<g id="a_Node000002"><a xlink:href="_irradiance_scheduler_8h.html" target="_top" xlink:title=" ">
<polygon fill="white" stroke="#666666" points="281.5,-192 119.25,-192 119.25,-160 281.5,-160 281.5,-192"/>
<text xml:space="preserve" text-anchor="start" x="127.25" y="-178.5" font-family="Helvetica,sans-Serif" font-size="10.00">Source/Pyrano/Public</text>
<text xml:space="preserve" text-anchor="middle" x="200.38" y="-166.5" font-family="Helvetica,sans-Serif" font-size="10.00">/Simulation/IrradianceScheduler.h</text>
</a>
</g>
</g>
<!-- Node1&#45;&gt;Node2 -->
<g id="edge1_Node000001_Node000002" class="edge">
<title>Node1&#45;&gt;Node2</title>
<g id="a_edge1_Node000001_Node000002"><a xlink:title=" ">
<path fill="none" stroke="#63b8ff" d="M455.64,-226.26C401.76,-215.86 333,-202.59 280.42,-192.45"/>
<polygon fill="#63b8ff" stroke="#63b8ff" points="454.93,-229.69 465.41,-228.15 456.26,-222.82 454.93,-229.69"/>
</a>
</g>
</g>
<!-- Node5 -->
<g id="Node000005" class="node">
<title>Node5</title>
<g id="a_Node000005"><a xlink:href="_irradiance_configuration_8h.html" target="_top" xlink:title=" ">
<polygon fill="white" stroke="#666666" points="514.12,-192 328.62,-192 328.62,-160 514.12,-160 514.12,-192"/>
<text xml:space="preserve" text-anchor="start" x="336.62" y="-178.5" font-family="Helvetica,sans-Serif" font-size="10.00">Source/PyranoEditor</text>
<text xml:space="preserve" text-anchor="middle" x="421.38" y="-166.5" font-family="Helvetica,sans-Serif" font-size="10.00">/Private/Data/IrradianceConfiguration.h</text>
</a>
</g>
</g>
<!-- Node1&#45;&gt;Node5 -->
<g id="edge4_Node000001_Node000005" class="edge">
<title>Node1&#45;&gt;Node5</title>
<g id="a_edge4_Node000001_Node000005"><a xlink:title=" ">
<path fill="none" stroke="#63b8ff" d="M504,-222.07C486.34,-212.44 465.77,-201.21 449.57,-192.38"/>
<polygon fill="#63b8ff" stroke="#63b8ff" points="502.22,-225.09 512.68,-226.8 505.57,-218.94 502.22,-225.09"/>
</a>
</g>
</g>
<!-- Node7 -->
<g id="Node000007" class="node">
<title>Node7</title>
<g id="a_Node000007"><a xlink:href="_pyrano_editor_subsystem_8h.html" target="_top" xlink:title=" ">
<polygon fill="white" stroke="#666666" points="575.88,-124 442.88,-124 442.88,-80 575.88,-80 575.88,-124"/>
<text xml:space="preserve" text-anchor="start" x="450.88" y="-110.5" font-family="Helvetica,sans-Serif" font-size="10.00">Source/PyranoEditor</text>
<text xml:space="preserve" text-anchor="start" x="450.88" y="-98.5" font-family="Helvetica,sans-Serif" font-size="10.00">/Private/Subsystems</text>
<text xml:space="preserve" text-anchor="middle" x="509.38" y="-86.5" font-family="Helvetica,sans-Serif" font-size="10.00">/PyranoEditorSubsystem.h</text>
</a>
</g>
</g>
<!-- Node1&#45;&gt;Node7 -->
<g id="edge8_Node000001_Node000007" class="edge">
<title>Node1&#45;&gt;Node7</title>
<g id="a_edge8_Node000001_Node000007"><a xlink:title=" ">
<path fill="none" stroke="#63b8ff" d="M536.49,-216.8C532.79,-200.45 527.88,-178.98 523.38,-160 520.58,-148.2 517.35,-135.06 514.71,-124.36"/>
<polygon fill="#63b8ff" stroke="#63b8ff" points="533,-217.22 538.61,-226.21 539.82,-215.68 533,-217.22"/>
</a>
</g>
</g>
<!-- Node8 -->
<g id="Node000008" class="node">
<title>Node8</title>
<g id="a_Node000008"><a xlink:href="_plan_storage_8h.html" target="_top" xlink:title=" ">
<polygon fill="white" stroke="#666666" points="727.25,-192 599.5,-192 599.5,-160 727.25,-160 727.25,-192"/>
<text xml:space="preserve" text-anchor="start" x="607.5" y="-178.5" font-family="Helvetica,sans-Serif" font-size="10.00">Source/PyranoEditor</text>
<text xml:space="preserve" text-anchor="middle" x="663.38" y="-166.5" font-family="Helvetica,sans-Serif" font-size="10.00">/Private/UI/PlanStorage.h</text>
</a>
</g>
</g>
<!-- Node1&#45;&gt;Node8 -->
<g id="edge9_Node000001_Node000008" class="edge">
<title>Node1&#45;&gt;Node8</title>
<g id="a_edge9_Node000001_Node000008"><a xlink:title=" ">
<path fill="none" stroke="#63b8ff" d="M580.75,-222.07C598.41,-212.44 618.98,-201.21 635.18,-192.38"/>
<polygon fill="#63b8ff" stroke="#63b8ff" points="579.18,-218.94 572.07,-226.8 582.53,-225.09 579.18,-218.94"/>
</a>
</g>
</g>
<!-- Node10 -->
<g id="Node000010" class="node">
<title>Node10</title>
<g id="a_Node000010"><a xlink:href="_pyrano_blueprint_library_8cpp.html" target="_top" xlink:title=" ">
<polygon fill="white" stroke="#666666" points="886,-124 750.75,-124 750.75,-80 886,-80 886,-124"/>
<text xml:space="preserve" text-anchor="start" x="758.75" y="-110.5" font-family="Helvetica,sans-Serif" font-size="10.00">Source/PyranoEditor</text>
<text xml:space="preserve" text-anchor="start" x="758.75" y="-98.5" font-family="Helvetica,sans-Serif" font-size="10.00">/Private/UI/PyranoBlueprint</text>
<text xml:space="preserve" text-anchor="middle" x="818.38" y="-86.5" font-family="Helvetica,sans-Serif" font-size="10.00">Library.cpp</text>
</a>
</g>
</g>
<!-- Node1&#45;&gt;Node10 -->
<g id="edge12_Node000001_Node000010" class="edge">
<title>Node1&#45;&gt;Node10</title>
<g id="a_edge12_Node000001_Node000010"><a xlink:title=" ">
<path fill="none" stroke="#63b8ff" d="M628.9,-231.17C664.05,-223.66 703.93,-211.52 736.38,-192 765,-174.78 789.7,-144.62 804.31,-124.23"/>
<polygon fill="#63b8ff" stroke="#63b8ff" points="628.26,-227.73 619.15,-233.14 629.65,-234.59 628.26,-227.73"/>
</a>
</g>
</g>
<!-- Node3 -->
<g id="Node000003" class="node">
<title>Node3</title>
<g id="a_Node000003"><a xlink:href="_irradiance_scheduler_8cpp.html" target="_top" xlink:title=" ">
<polygon fill="white" stroke="#666666" points="172.75,-118 0,-118 0,-86 172.75,-86 172.75,-118"/>
<text xml:space="preserve" text-anchor="start" x="8" y="-104.5" font-family="Helvetica,sans-Serif" font-size="10.00">Source/Pyrano/Private</text>
<text xml:space="preserve" text-anchor="middle" x="86.38" y="-92.5" font-family="Helvetica,sans-Serif" font-size="10.00">/Simulation/IrradianceScheduler.cpp</text>
</a>
</g>
</g>
<!-- Node2&#45;&gt;Node3 -->
<g id="edge2_Node000002_Node000003" class="edge">
<title>Node2&#45;&gt;Node3</title>
<g id="a_edge2_Node000002_Node000003"><a xlink:title=" ">
<path fill="none" stroke="#63b8ff" d="M166.42,-153.55C148.53,-142.26 127.01,-128.66 110.79,-118.42"/>
<polygon fill="#63b8ff" stroke="#63b8ff" points="164.32,-156.37 174.64,-158.75 168.05,-150.45 164.32,-156.37"/>
</a>
</g>
</g>
<!-- Node4 -->
<g id="Node000004" class="node">
<title>Node4</title>
<g id="a_Node000004"><a xlink:href="_pyrano_editor_subsystem_8cpp.html" target="_top" xlink:title=" ">
<polygon fill="white" stroke="#666666" points="426.12,-44 282.62,-44 282.62,0 426.12,0 426.12,-44"/>
<text xml:space="preserve" text-anchor="start" x="290.62" y="-30.5" font-family="Helvetica,sans-Serif" font-size="10.00">Source/PyranoEditor</text>
<text xml:space="preserve" text-anchor="start" x="290.62" y="-18.5" font-family="Helvetica,sans-Serif" font-size="10.00">/Private/Subsystems</text>
<text xml:space="preserve" text-anchor="middle" x="354.38" y="-6.5" font-family="Helvetica,sans-Serif" font-size="10.00">/PyranoEditorSubsystem.cpp</text>
</a>
</g>
</g>
<!-- Node2&#45;&gt;Node4 -->
<g id="edge3_Node000002_Node000004" class="edge">
<title>Node2&#45;&gt;Node4</title>
<g id="a_edge3_Node000002_Node000004"><a xlink:title=" ">
<path fill="none" stroke="#63b8ff" d="M199.28,-148.18C199.83,-127.42 203.8,-99.08 219.38,-80 235.3,-60.48 259.09,-47.54 282.29,-39"/>
<polygon fill="#63b8ff" stroke="#63b8ff" points="195.78,-148.18 199.3,-158.17 202.78,-148.17 195.78,-148.18"/>
</a>
</g>
</g>
<!-- Node6 -->
<g id="Node000006" class="node">
<title>Node6</title>
<g id="a_Node000006"><a xlink:href="_irradiance_configuration_8cpp.html" target="_top" xlink:title=" ">
<polygon fill="white" stroke="#666666" points="424.38,-118 228.38,-118 228.38,-86 424.38,-86 424.38,-118"/>
<text xml:space="preserve" text-anchor="start" x="236.38" y="-104.5" font-family="Helvetica,sans-Serif" font-size="10.00">Source/PyranoEditor</text>
<text xml:space="preserve" text-anchor="middle" x="326.38" y="-92.5" font-family="Helvetica,sans-Serif" font-size="10.00">/Private/Data/IrradianceConfiguration.cpp</text>
</a>
</g>
</g>
<!-- Node5&#45;&gt;Node6 -->
<g id="edge5_Node000005_Node000006" class="edge">
<title>Node5&#45;&gt;Node6</title>
<g id="a_edge5_Node000005_Node000006"><a xlink:title=" ">
<path fill="none" stroke="#63b8ff" d="M392.06,-152.78C377.4,-141.67 360.02,-128.5 346.82,-118.5"/>
<polygon fill="#63b8ff" stroke="#63b8ff" points="389.94,-155.57 400.02,-158.82 394.17,-149.99 389.94,-155.57"/>
</a>
</g>
</g>
<!-- Node5&#45;&gt;Node7 -->
<g id="edge6_Node000005_Node000007" class="edge">
<title>Node5&#45;&gt;Node7</title>
<g id="a_edge6_Node000005_Node000007"><a xlink:title=" ">
<path fill="none" stroke="#63b8ff" d="M448.85,-152.52C459.87,-143.5 472.52,-133.15 483.4,-124.26"/>
<polygon fill="#63b8ff" stroke="#63b8ff" points="446.73,-149.73 441.21,-158.77 451.16,-155.15 446.73,-149.73"/>
</a>
</g>
</g>
<!-- Node7&#45;&gt;Node4 -->
<g id="edge7_Node000007_Node000004" class="edge">
<title>Node7&#45;&gt;Node4</title>
<g id="a_edge7_Node000007_Node000004"><a xlink:title=" ">
<path fill="none" stroke="#63b8ff" d="M456.77,-74.53C437.28,-64.72 415.44,-53.73 396.95,-44.42"/>
<polygon fill="#63b8ff" stroke="#63b8ff" points="455.16,-77.64 465.67,-79.01 458.31,-71.38 455.16,-77.64"/>
</a>
</g>
</g>
<!-- Node9 -->
<g id="Node000009" class="node">
<title>Node9</title>
<g id="a_Node000009"><a xlink:href="_plan_storage_8cpp.html" target="_top" xlink:title=" ">
<polygon fill="white" stroke="#666666" points="732.5,-118 594.25,-118 594.25,-86 732.5,-86 732.5,-118"/>
<text xml:space="preserve" text-anchor="start" x="602.25" y="-104.5" font-family="Helvetica,sans-Serif" font-size="10.00">Source/PyranoEditor</text>
<text xml:space="preserve" text-anchor="middle" x="663.38" y="-92.5" font-family="Helvetica,sans-Serif" font-size="10.00">/Private/UI/PlanStorage.cpp</text>
</a>
</g>
</g>
<!-- Node8&#45;&gt;Node9 -->
<g id="edge10_Node000008_Node000009" class="edge">
<title>Node8&#45;&gt;Node9</title>
<g id="a_edge10_Node000008_Node000009"><a xlink:title=" ">
<path fill="none" stroke="#63b8ff" d="M663.38,-148.49C663.38,-138.3 663.38,-127.03 663.38,-118.25"/>
<polygon fill="#63b8ff" stroke="#63b8ff" points="659.88,-148.22 663.38,-158.22 666.88,-148.22 659.88,-148.22"/>
</a>
</g>
</g>
<!-- Node8&#45;&gt;Node10 -->
<g id="edge11_Node000008_Node000010" class="edge">
<title>Node8&#45;&gt;Node10</title>
<g id="a_edge11_Node000008_Node000010"><a xlink:title=" ">
<path fill="none" stroke="#63b8ff" d="M706.89,-154.79C727.26,-145.32 751.55,-134.04 772.24,-124.43"/>
<polygon fill="#63b8ff" stroke="#63b8ff" points="705.59,-151.53 698,-158.92 708.54,-157.88 705.59,-151.53"/>
</a>
</g>
</g>
</g>
</svg>
