<?xml version="1.0" encoding="UTF-8" standalone="no"?>
<!DOCTYPE svg PUBLIC "-//W3C//DTD SVG 1.1//EN"
 "http://www.w3.org/Graphics/SVG/1.1/DTD/svg11.dtd">
<!-- Generated by graphviz version 14.1.0 (20251206.1807)
 -->
<!-- Title: SunAnglesFromDirection Pages: 1 -->
<svg width="445pt" height="40pt"
 viewBox="0.00 0.00 445.00 40.00" xmlns="http://www.w3.org/2000/svg" xmlns:xlink="http://www.w3.org/1999/xlink">
<g id="graph0" class="graph" transform="scale(1 1) rotate(0) translate(4 36)">
<title>SunAnglesFromDirection</title>
<!-- Node1 -->
<g id="Node000001" class="node">
<title>Node1</title>
<g id="a_Node000001"><a xlink:title=" ">
<polygon fill="#999999" stroke="#666666" points="436.5,-26 311.75,-26 311.75,-6 436.5,-6 436.5,-26"/>
<text xml:space="preserve" text-anchor="middle" x="374.12" y="-12.5" font-family="Helvetica,sans-Serif" font-size="10.00">SunAnglesFromDirection</text>
</a>
</g>
</g>
<!-- Node2 -->
<g id="Node000002" class="node">
<title>Node2</title>
<g id="a_Node000002"><a xlink:href="class_u_sun_sky_controller.html#a9180ae57b0690fa8db4a96d766b7275a" target="_top" xlink:title="Returns solar azimuth/altitude using solar&#45;standard convention: azimuth = clockwise from North (0°=N,...">
<polygon fill="white" stroke="#666666" points="275.75,-32 169.75,-32 169.75,0 275.75,0 275.75,-32"/>
<text xml:space="preserve" text-anchor="start" x="177.75" y="-18.5" font-family="Helvetica,sans-Serif" font-size="10.00">USunSkyController::</text>
<text xml:space="preserve" text-anchor="middle" x="222.75" y="-6.5" font-family="Helvetica,sans-Serif" font-size="10.00">GetSolarAngles</text>
</a>
</g>
</g>
<!-- Node1&#45;&gt;Node2 -->
<g id="edge1_Node000001_Node000002" class="edge">
<title>Node1&#45;&gt;Node2</title>
<g id="a_edge1_Node000001_Node000002"><a xlink:title=" ">
<path fill="none" stroke="#63b8ff" d="M300.13,-16C292.05,-16 283.94,-16 276.18,-16"/>
<polygon fill="#63b8ff" stroke="#63b8ff" points="299.99,-19.5 309.99,-16 299.99,-12.5 299.99,-19.5"/>
</a>
</g>
</g>
<!-- Node3 -->
<g id="Node000003" class="node">
<title>Node3</title>
<g id="a_Node000003"><a xlink:href="class_u_irradiance_subsystem.html#a04b6e98a2662b94a1117321c3d6c70f9" target="_top" xlink:title="Consume the latest available irradiance value.">
<polygon fill="white" stroke="#666666" points="133.75,-32 0,-32 0,0 133.75,0 133.75,-32"/>
<text xml:space="preserve" text-anchor="start" x="8" y="-18.5" font-family="Helvetica,sans-Serif" font-size="10.00">UIrradianceSubsystem</text>
<text xml:space="preserve" text-anchor="middle" x="66.88" y="-6.5" font-family="Helvetica,sans-Serif" font-size="10.00">::ConsumeLatestIrradiance</text>
</a>
</g>
</g>
<!-- Node2&#45;&gt;Node3 -->
<g id="edge2_Node000002_Node000003" class="edge">
<title>Node2&#45;&gt;Node3</title>
<g id="a_edge2_Node000002_Node000003"><a xlink:title=" ">
<path fill="none" stroke="#63b8ff" d="M158.19,-16C150.24,-16 142.09,-16 134.1,-16"/>
<polygon fill="#63b8ff" stroke="#63b8ff" points="158.14,-19.5 168.14,-16 158.14,-12.5 158.14,-19.5"/>
</a>
</g>
</g>
</g>
</svg>
