<?xml version="1.0" encoding="UTF-8" standalone="no"?>
<!DOCTYPE svg PUBLIC "-//W3C//DTD SVG 1.1//EN"
 "http://www.w3.org/Graphics/SVG/1.1/DTD/svg11.dtd">
<!-- Generated by graphviz version 14.1.0 (20251206.1807)
 -->
<!-- Title: Source/Pyrano/Public/Subsystems/SunSkyController.h Pages: 1 -->
<svg width="558pt" height="96pt"
 viewBox="0.00 0.00 558.00 96.00" xmlns="http://www.w3.org/2000/svg" xmlns:xlink="http://www.w3.org/1999/xlink">
<g id="graph0" class="graph" transform="scale(1 1) rotate(0) translate(4 92)">
<title>Source/Pyrano/Public/Subsystems/SunSkyController.h</title>
<!-- Node1 -->
<g id="Node000001" class="node">
<title>Node1</title>
<g id="a_Node000001"><a xlink:title=" ">
<polygon fill="#999999" stroke="#666666" points="332.25,-88 170.75,-88 170.75,-56 332.25,-56 332.25,-88"/>
<text xml:space="preserve" text-anchor="start" x="178.75" y="-74.5" font-family="Helvetica,sans-Serif" font-size="10.00">Source/Pyrano/Public</text>
<text xml:space="preserve" text-anchor="middle" x="251.5" y="-62.5" font-family="Helvetica,sans-Serif" font-size="10.00">/Subsystems/SunSkyController.h</text>
</a>
</g>
</g>
<!-- Node2 -->
<g id="Node000002" class="node">
<title>Node2</title>
<g id="a_Node000002"><a xlink:title=" ">
<polygon fill="#e0e0e0" stroke="#999999" points="79,-20 0,-20 0,0 79,0 79,-20"/>
<text xml:space="preserve" text-anchor="middle" x="39.5" y="-6.5" font-family="Helvetica,sans-Serif" font-size="10.00">CoreMinimal.h</text>
</a>
</g>
</g>
<!-- Node1&#45;&gt;Node2 -->
<g id="edge1_Node000001_Node000002" class="edge">
<title>Node1&#45;&gt;Node2</title>
<g id="a_edge1_Node000001_Node000002"><a xlink:title=" ">
<path fill="none" stroke="#63b8ff" d="M196.9,-55.55C161.74,-45.6 116.63,-32.83 83.71,-23.51"/>
<polygon fill="#63b8ff" stroke="#63b8ff" points="85.09,-20.26 74.51,-20.91 83.18,-27 85.09,-20.26"/>
</a>
</g>
</g>
<!-- Node3 -->
<g id="Node000003" class="node">
<title>Node3</title>
<g id="a_Node000003"><a xlink:title=" ">
<polygon fill="#e0e0e0" stroke="#999999" points="253.62,-20 97.38,-20 97.38,0 253.62,0 253.62,-20"/>
<text xml:space="preserve" text-anchor="middle" x="175.5" y="-6.5" font-family="Helvetica,sans-Serif" font-size="10.00">Subsystems/WorldSubsystem.h</text>
</a>
</g>
</g>
<!-- Node1&#45;&gt;Node3 -->
<g id="edge2_Node000001_Node000003" class="edge">
<title>Node1&#45;&gt;Node3</title>
<g id="a_edge2_Node000001_Node000003"><a xlink:title=" ">
<path fill="none" stroke="#63b8ff" d="M231.93,-55.55C221.04,-46.95 207.5,-36.26 196.4,-27.5"/>
<polygon fill="#63b8ff" stroke="#63b8ff" points="198.62,-24.8 188.6,-21.35 194.28,-30.29 198.62,-24.8"/>
</a>
</g>
</g>
<!-- Node4 -->
<g id="Node000004" class="node">
<title>Node4</title>
<g id="a_Node000004"><a xlink:title=" ">
<polygon fill="#e0e0e0" stroke="#999999" points="384.88,-20 272.12,-20 272.12,0 384.88,0 384.88,-20"/>
<text xml:space="preserve" text-anchor="middle" x="328.5" y="-6.5" font-family="Helvetica,sans-Serif" font-size="10.00">UObject/UnrealType.h</text>
</a>
</g>
</g>
<!-- Node1&#45;&gt;Node4 -->
<g id="edge3_Node000001_Node000004" class="edge">
<title>Node1&#45;&gt;Node4</title>
<g id="a_edge3_Node000001_Node000004"><a xlink:title=" ">
<path fill="none" stroke="#63b8ff" d="M271.33,-55.55C282.47,-46.87 296.36,-36.04 307.66,-27.24"/>
<polygon fill="#63b8ff" stroke="#63b8ff" points="309.5,-30.25 315.23,-21.34 305.19,-24.72 309.5,-30.25"/>
</a>
</g>
</g>
<!-- Node5 -->
<g id="Node000005" class="node">
<title>Node5</title>
<g id="a_Node000005"><a xlink:title=" ">
<polygon fill="#e0e0e0" stroke="#999999" points="549.75,-20 403.25,-20 403.25,0 549.75,0 549.75,-20"/>
<text xml:space="preserve" text-anchor="middle" x="476.5" y="-6.5" font-family="Helvetica,sans-Serif" font-size="10.00">SunSkyController.generated.h</text>
</a>
</g>
</g>
<!-- Node1&#45;&gt;Node5 -->
<g id="edge4_Node000001_Node000005" class="edge">
<title>Node1&#45;&gt;Node5</title>
<g id="a_edge4_Node000001_Node000005"><a xlink:title=" ">
<path fill="none" stroke="#63b8ff" d="M309.44,-55.55C346.92,-45.55 395.06,-32.72 430.03,-23.39"/>
<polygon fill="#63b8ff" stroke="#63b8ff" points="430.67,-26.84 439.43,-20.89 428.86,-20.08 430.67,-26.84"/>
</a>
</g>
</g>
</g>
</svg>
