<?xml version="1.0" encoding="UTF-8" standalone="no"?>
<!DOCTYPE svg PUBLIC "-//W3C//DTD SVG 1.1//EN"
 "http://www.w3.org/Graphics/SVG/1.1/DTD/svg11.dtd">
<!-- Generated by graphviz version 14.1.0 (20251206.1807)
 -->
<!-- Title: Source/Pyrano/Private/Subsystems/SunSkyController.cpp Pages: 1 -->
<svg width="709pt" height="164pt"
 viewBox="0.00 0.00 709.00 164.00" xmlns="http://www.w3.org/2000/svg" xmlns:xlink="http://www.w3.org/1999/xlink">
<g id="graph0" class="graph" transform="scale(1 1) rotate(0) translate(4 160)">
<title>Source/Pyrano/Private/Subsystems/SunSkyController.cpp</title>
<!-- Node1 -->
<g id="Node000001" class="node">
<title>Node1</title>
<g id="a_Node000001"><a xlink:title=" ">
<polygon fill="#999999" stroke="#666666" points="515.12,-156 343.12,-156 343.12,-124 515.12,-124 515.12,-156"/>
<text xml:space="preserve" text-anchor="start" x="351.12" y="-142.5" font-family="Helvetica,sans-Serif" font-size="10.00">Source/Pyrano/Private</text>
<text xml:space="preserve" text-anchor="middle" x="429.12" y="-130.5" font-family="Helvetica,sans-Serif" font-size="10.00">/Subsystems/SunSkyController.cpp</text>
</a>
</g>
</g>
<!-- Node2 -->
<g id="Node000002" class="node">
<title>Node2</title>
<g id="a_Node000002"><a xlink:href="_sun_sky_controller_8h.html" target="_top" xlink:title=" ">
<polygon fill="white" stroke="#666666" points="310.38,-82 151.88,-82 151.88,-62 310.38,-62 310.38,-82"/>
<text xml:space="preserve" text-anchor="middle" x="231.12" y="-68.5" font-family="Helvetica,sans-Serif" font-size="10.00">Subsystems/SunSkyController.h</text>
</a>
</g>
</g>
<!-- Node1&#45;&gt;Node2 -->
<g id="edge1_Node000001_Node000002" class="edge">
<title>Node1&#45;&gt;Node2</title>
<g id="a_edge1_Node000001_Node000002"><a xlink:title=" ">
<path fill="none" stroke="#63b8ff" d="M382.7,-123.53C348.55,-112.14 302.64,-96.84 270.33,-86.07"/>
<polygon fill="#63b8ff" stroke="#63b8ff" points="271.53,-82.78 260.94,-82.94 269.32,-89.42 271.53,-82.78"/>
</a>
</g>
</g>
<!-- Node7 -->
<g id="Node000007" class="node">
<title>Node7</title>
<g id="a_Node000007"><a xlink:title=" ">
<polygon fill="#e0e0e0" stroke="#999999" points="403.38,-82 328.88,-82 328.88,-62 403.38,-62 403.38,-82"/>
<text xml:space="preserve" text-anchor="middle" x="366.12" y="-68.5" font-family="Helvetica,sans-Serif" font-size="10.00">EngineUtils.h</text>
</a>
</g>
</g>
<!-- Node1&#45;&gt;Node7 -->
<g id="edge6_Node000001_Node000007" class="edge">
<title>Node1&#45;&gt;Node7</title>
<g id="a_edge6_Node000001_Node000007"><a xlink:title=" ">
<path fill="none" stroke="#63b8ff" d="M414.51,-123.69C405.07,-113.8 392.74,-100.89 382.9,-90.57"/>
<polygon fill="#63b8ff" stroke="#63b8ff" points="385.5,-88.23 376.06,-83.41 380.44,-93.06 385.5,-88.23"/>
</a>
</g>
</g>
<!-- Node8 -->
<g id="Node000008" class="node">
<title>Node8</title>
<g id="a_Node000008"><a xlink:title=" ">
<polygon fill="#e0e0e0" stroke="#999999" points="563.12,-88 421.12,-88 421.12,-56 563.12,-56 563.12,-88"/>
<text xml:space="preserve" text-anchor="start" x="429.12" y="-74.5" font-family="Helvetica,sans-Serif" font-size="10.00">Components/DirectionalLight</text>
<text xml:space="preserve" text-anchor="middle" x="492.12" y="-62.5" font-family="Helvetica,sans-Serif" font-size="10.00">Component.h</text>
</a>
</g>
</g>
<!-- Node1&#45;&gt;Node8 -->
<g id="edge7_Node000001_Node000008" class="edge">
<title>Node1&#45;&gt;Node8</title>
<g id="a_edge7_Node000001_Node000008"><a xlink:title=" ">
<path fill="none" stroke="#63b8ff" d="M443.74,-123.69C451.45,-115.61 461.08,-105.52 469.71,-96.48"/>
<polygon fill="#63b8ff" stroke="#63b8ff" points="472.17,-98.97 476.55,-89.32 467.11,-94.14 472.17,-98.97"/>
</a>
</g>
</g>
<!-- Node9 -->
<g id="Node000009" class="node">
<title>Node9</title>
<g id="a_Node000009"><a xlink:href="_irradiance_log_8h.html" target="_top" xlink:title=" ">
<polygon fill="white" stroke="#666666" points="700.88,-82 581.38,-82 581.38,-62 700.88,-62 700.88,-82"/>
<text xml:space="preserve" text-anchor="middle" x="641.12" y="-68.5" font-family="Helvetica,sans-Serif" font-size="10.00">Logging/IrradianceLog.h</text>
</a>
</g>
</g>
<!-- Node1&#45;&gt;Node9 -->
<g id="edge8_Node000001_Node000009" class="edge">
<title>Node1&#45;&gt;Node9</title>
<g id="a_edge8_Node000001_Node000009"><a xlink:title=" ">
<path fill="none" stroke="#63b8ff" d="M478.83,-123.53C515.71,-112.04 565.41,-96.57 600.05,-85.79"/>
<polygon fill="#63b8ff" stroke="#63b8ff" points="600.79,-89.22 609.29,-82.91 598.7,-82.54 600.79,-89.22"/>
</a>
</g>
</g>
<!-- Node3 -->
<g id="Node000003" class="node">
<title>Node3</title>
<g id="a_Node000003"><a xlink:title=" ">
<polygon fill="#e0e0e0" stroke="#999999" points="615.62,-20 536.62,-20 536.62,0 615.62,0 615.62,-20"/>
<text xml:space="preserve" text-anchor="middle" x="576.12" y="-6.5" font-family="Helvetica,sans-Serif" font-size="10.00">CoreMinimal.h</text>
</a>
</g>
</g>
<!-- Node2&#45;&gt;Node3 -->
<g id="edge2_Node000002_Node000003" class="edge">
<title>Node2&#45;&gt;Node3</title>
<g id="a_edge2_Node000002_Node000003"><a xlink:title=" ">
<path fill="none" stroke="#63b8ff" d="M285.41,-61.56C351.11,-50.13 460.88,-31.04 525.09,-19.88"/>
<polygon fill="#63b8ff" stroke="#63b8ff" points="525.4,-23.38 534.65,-18.21 524.2,-16.48 525.4,-23.38"/>
</a>
</g>
</g>
<!-- Node4 -->
<g id="Node000004" class="node">
<title>Node4</title>
<g id="a_Node000004"><a xlink:title=" ">
<polygon fill="#e0e0e0" stroke="#999999" points="156.25,-20 0,-20 0,0 156.25,0 156.25,-20"/>
<text xml:space="preserve" text-anchor="middle" x="78.12" y="-6.5" font-family="Helvetica,sans-Serif" font-size="10.00">Subsystems/WorldSubsystem.h</text>
</a>
</g>
</g>
<!-- Node2&#45;&gt;Node4 -->
<g id="edge3_Node000002_Node000004" class="edge">
<title>Node2&#45;&gt;Node4</title>
<g id="a_edge3_Node000002_Node000004"><a xlink:title=" ">
<path fill="none" stroke="#63b8ff" d="M207.22,-61.62C181.81,-51.66 141.38,-35.81 112.55,-24.5"/>
<polygon fill="#63b8ff" stroke="#63b8ff" points="114.11,-21.35 103.52,-20.96 111.56,-27.87 114.11,-21.35"/>
</a>
</g>
</g>
<!-- Node5 -->
<g id="Node000005" class="node">
<title>Node5</title>
<g id="a_Node000005"><a xlink:title=" ">
<polygon fill="#e0e0e0" stroke="#999999" points="287.5,-20 174.75,-20 174.75,0 287.5,0 287.5,-20"/>
<text xml:space="preserve" text-anchor="middle" x="231.12" y="-6.5" font-family="Helvetica,sans-Serif" font-size="10.00">UObject/UnrealType.h</text>
</a>
</g>
</g>
<!-- Node2&#45;&gt;Node5 -->
<g id="edge4_Node000002_Node000005" class="edge">
<title>Node2&#45;&gt;Node5</title>
<g id="a_edge4_Node000002_Node000005"><a xlink:title=" ">
<path fill="none" stroke="#63b8ff" d="M231.12,-61.62C231.12,-53.56 231.12,-41.65 231.12,-31.41"/>
<polygon fill="#63b8ff" stroke="#63b8ff" points="234.63,-31.63 231.13,-21.63 227.63,-31.63 234.63,-31.63"/>
</a>
</g>
</g>
<!-- Node6 -->
<g id="Node000006" class="node">
<title>Node6</title>
<g id="a_Node000006"><a xlink:title=" ">
<polygon fill="#e0e0e0" stroke="#999999" points="452.38,-20 305.88,-20 305.88,0 452.38,0 452.38,-20"/>
<text xml:space="preserve" text-anchor="middle" x="379.12" y="-6.5" font-family="Helvetica,sans-Serif" font-size="10.00">SunSkyController.generated.h</text>
</a>
</g>
</g>
<!-- Node2&#45;&gt;Node6 -->
<g id="edge5_Node000002_Node000006" class="edge">
<title>Node2&#45;&gt;Node6</title>
<g id="a_edge5_Node000002_Node000006"><a xlink:title=" ">
<path fill="none" stroke="#63b8ff" d="M254.25,-61.62C278.8,-51.67 317.82,-35.85 345.7,-24.55"/>
<polygon fill="#63b8ff" stroke="#63b8ff" points="346.81,-27.88 354.76,-20.88 344.18,-21.39 346.81,-27.88"/>
</a>
</g>
</g>
<!-- Node9&#45;&gt;Node3 -->
<g id="edge9_Node000009_Node000003" class="edge">
<title>Node9&#45;&gt;Node3</title>
<g id="a_edge9_Node000009_Node000003"><a xlink:title=" ">
<path fill="none" stroke="#63b8ff" d="M630.97,-61.62C621.18,-52.59 606.15,-38.72 594.3,-27.78"/>
<polygon fill="#63b8ff" stroke="#63b8ff" points="596.83,-25.35 587.11,-21.14 592.08,-30.49 596.83,-25.35"/>
</a>
</g>
</g>
</g>
</svg>
