<?xml version="1.0" encoding="UTF-8" standalone="no"?>
<!DOCTYPE svg PUBLIC "-//W3C//DTD SVG 1.1//EN"
 "http://www.w3.org/Graphics/SVG/1.1/DTD/svg11.dtd">
<!-- Generated by graphviz version 14.1.0 (20251206.1807)
 -->
<!-- Title: Source/Pyrano/Public/Subsystems/SunSkyController.h Pages: 1 -->
<svg width="576pt" height="108pt"
 viewBox="0.00 0.00 576.00 108.00" xmlns="http://www.w3.org/2000/svg" xmlns:xlink="http://www.w3.org/1999/xlink">
<g id="graph0" class="graph" transform="scale(1 1) rotate(0) translate(4 104)">
<title>Source/Pyrano/Public/Subsystems/SunSkyController.h</title>
<!-- Node1 -->
<g id="Node000001" class="node">
<title>Node1</title>
<g id="a_Node000001"><a xlink:title=" ">
<polygon fill="#999999" stroke="#666666" points="365.12,-100 203.62,-100 203.62,-68 365.12,-68 365.12,-100"/>
<text xml:space="preserve" text-anchor="start" x="211.62" y="-86.5" font-family="Helvetica,sans-Serif" font-size="10.00">Source/Pyrano/Public</text>
<text xml:space="preserve" text-anchor="middle" x="284.38" y="-74.5" font-family="Helvetica,sans-Serif" font-size="10.00">/Subsystems/SunSkyController.h</text>
</a>
</g>
</g>
<!-- Node2 -->
<g id="Node000002" class="node">
<title>Node2</title>
<g id="a_Node000002"><a xlink:href="_irradiance_scheduler_8cpp.html" target="_top" xlink:title=" ">
<polygon fill="white" stroke="#666666" points="172.75,-32 0,-32 0,0 172.75,0 172.75,-32"/>
<text xml:space="preserve" text-anchor="start" x="8" y="-18.5" font-family="Helvetica,sans-Serif" font-size="10.00">Source/Pyrano/Private</text>
<text xml:space="preserve" text-anchor="middle" x="86.38" y="-6.5" font-family="Helvetica,sans-Serif" font-size="10.00">/Simulation/IrradianceScheduler.cpp</text>
</a>
</g>
</g>
<!-- Node1&#45;&gt;Node2 -->
<g id="edge1_Node000001_Node000002" class="edge">
<title>Node1&#45;&gt;Node2</title>
<g id="a_edge1_Node000001_Node000002"><a xlink:title=" ">
<path fill="none" stroke="#63b8ff" d="M227.23,-63.95C197.27,-53.97 161.06,-41.89 132.85,-32.49"/>
<polygon fill="#63b8ff" stroke="#63b8ff" points="225.92,-67.21 236.52,-67.05 228.14,-60.56 225.92,-67.21"/>
</a>
</g>
</g>
<!-- Node3 -->
<g id="Node000003" class="node">
<title>Node3</title>
<g id="a_Node000003"><a xlink:href="_irradiance_subsystem_8cpp.html" target="_top" xlink:title=" ">
<polygon fill="white" stroke="#666666" points="378.25,-32 190.5,-32 190.5,0 378.25,0 378.25,-32"/>
<text xml:space="preserve" text-anchor="start" x="198.5" y="-18.5" font-family="Helvetica,sans-Serif" font-size="10.00">Source/Pyrano/Private</text>
<text xml:space="preserve" text-anchor="middle" x="284.38" y="-6.5" font-family="Helvetica,sans-Serif" font-size="10.00">/Subsystems/IrradianceSubsystem.cpp</text>
</a>
</g>
</g>
<!-- Node1&#45;&gt;Node3 -->
<g id="edge2_Node000001_Node000003" class="edge">
<title>Node1&#45;&gt;Node3</title>
<g id="a_edge2_Node000001_Node000003"><a xlink:title=" ">
<path fill="none" stroke="#63b8ff" d="M284.38,-56.31C284.38,-48.12 284.38,-39.38 284.38,-32.22"/>
<polygon fill="#63b8ff" stroke="#63b8ff" points="280.88,-56.18 284.38,-66.18 287.88,-56.18 280.88,-56.18"/>
</a>
</g>
</g>
<!-- Node4 -->
<g id="Node000004" class="node">
<title>Node4</title>
<g id="a_Node000004"><a xlink:href="_sun_sky_controller_8cpp.html" target="_top" xlink:title=" ">
<polygon fill="white" stroke="#666666" points="568.38,-32 396.38,-32 396.38,0 568.38,0 568.38,-32"/>
<text xml:space="preserve" text-anchor="start" x="404.38" y="-18.5" font-family="Helvetica,sans-Serif" font-size="10.00">Source/Pyrano/Private</text>
<text xml:space="preserve" text-anchor="middle" x="482.38" y="-6.5" font-family="Helvetica,sans-Serif" font-size="10.00">/Subsystems/SunSkyController.cpp</text>
</a>
</g>
</g>
<!-- Node1&#45;&gt;Node4 -->
<g id="edge3_Node000001_Node000004" class="edge">
<title>Node1&#45;&gt;Node4</title>
<g id="a_edge3_Node000001_Node000004"><a xlink:title=" ">
<path fill="none" stroke="#63b8ff" d="M341.52,-63.95C371.48,-53.97 407.69,-41.89 435.9,-32.49"/>
<polygon fill="#63b8ff" stroke="#63b8ff" points="340.61,-60.56 332.23,-67.05 342.83,-67.21 340.61,-60.56"/>
</a>
</g>
</g>
</g>
</svg>
