<?xml version="1.0" encoding="UTF-8" standalone="no"?>
<!DOCTYPE svg PUBLIC "-//W3C//DTD SVG 1.1//EN"
 "http://www.w3.org/Graphics/SVG/1.1/DTD/svg11.dtd">
<!-- Generated by graphviz version 14.1.0 (20251206.1807)
 -->
<!-- Title: UIrradianceScheduler::EnsureSubsystem Pages: 1 -->
<svg width="943pt" height="247pt"
 viewBox="0.00 0.00 943.00 247.00" xmlns="http://www.w3.org/2000/svg" xmlns:xlink="http://www.w3.org/1999/xlink">
<g id="graph0" class="graph" transform="scale(1 1) rotate(0) translate(4 243)">
<title>UIrradianceScheduler::EnsureSubsystem</title>
<!-- Node1 -->
<g id="Node000001" class="node">
<title>Node1</title>
<g id="a_Node000001"><a xlink:title="Ensures the IrradianceSubsystem pointer is valid for the current world.">
<polygon fill="#999999" stroke="#666666" points="935.25,-170 825.5,-170 825.5,-138 935.25,-138 935.25,-170"/>
<text xml:space="preserve" text-anchor="start" x="833.5" y="-156.5" font-family="Helvetica,sans-Serif" font-size="10.00">UIrradianceScheduler</text>
<text xml:space="preserve" text-anchor="middle" x="880.38" y="-144.5" font-family="Helvetica,sans-Serif" font-size="10.00">::EnsureSubsystem</text>
</a>
</g>
</g>
<!-- Node2 -->
<g id="Node000002" class="node">
<title>Node2</title>
<g id="a_Node000002"><a xlink:href="class_u_irradiance_scheduler.html#ac09bb9a1d345e452696d7fab17cd0fa0" target="_top" xlink:title="Forces a square viewport suitable for the simulation/capture.">
<polygon fill="white" stroke="#666666" points="789.5,-170 679.75,-170 679.75,-138 789.5,-138 789.5,-170"/>
<text xml:space="preserve" text-anchor="start" x="687.75" y="-156.5" font-family="Helvetica,sans-Serif" font-size="10.00">UIrradianceScheduler</text>
<text xml:space="preserve" text-anchor="middle" x="734.62" y="-144.5" font-family="Helvetica,sans-Serif" font-size="10.00">::ApplyViewport</text>
</a>
</g>
</g>
<!-- Node1&#45;&gt;Node2 -->
<g id="edge1_Node000001_Node000002" class="edge">
<title>Node1&#45;&gt;Node2</title>
<g id="a_edge1_Node000001_Node000002"><a xlink:title=" ">
<path fill="none" stroke="#63b8ff" d="M813.72,-154C805.64,-154 797.45,-154 789.57,-154"/>
<polygon fill="#63b8ff" stroke="#63b8ff" points="813.52,-157.5 823.52,-154 813.52,-150.5 813.52,-157.5"/>
</a>
</g>
</g>
<!-- Node3 -->
<g id="Node000003" class="node">
<title>Node3</title>
<g id="a_Node000003"><a xlink:href="class_u_irradiance_scheduler.html#a7ba28b0ad34fafcb3f525bb028459e01" target="_top" xlink:title="Prepares SunSky, export and viewport settings for a simulation.">
<polygon fill="white" stroke="#666666" points="621.25,-208 511.5,-208 511.5,-176 621.25,-176 621.25,-208"/>
<text xml:space="preserve" text-anchor="start" x="519.5" y="-194.5" font-family="Helvetica,sans-Serif" font-size="10.00">UIrradianceScheduler</text>
<text xml:space="preserve" text-anchor="middle" x="566.38" y="-182.5" font-family="Helvetica,sans-Serif" font-size="10.00">::PrepareSimulation</text>
</a>
</g>
</g>
<!-- Node1&#45;&gt;Node3 -->
<g id="edge20_Node000001_Node000003" class="edge">
<title>Node1&#45;&gt;Node3</title>
<g id="a_edge20_Node000001_Node000003"><a xlink:title=" ">
<path fill="none" stroke="#63b8ff" d="M816.63,-173.28C807.6,-175.52 798.36,-177.53 789.5,-179 732.72,-188.45 666.79,-191.3 621.59,-192.04"/>
<polygon fill="#63b8ff" stroke="#63b8ff" points="817.26,-176.73 826.05,-170.83 815.5,-169.95 817.26,-176.73"/>
</a>
</g>
</g>
<!-- Node7 -->
<g id="Node000007" class="node">
<title>Node7</title>
<g id="a_Node000007"><a xlink:href="class_u_irradiance_scheduler.html#a3b69dd1a2381f3fc1b0035de006416b5" target="_top" xlink:title="Consumes the latest irradiance value from the subsystem, if available.">
<polygon fill="white" stroke="#666666" points="281,-236 145.75,-236 145.75,-204 281,-204 281,-236"/>
<text xml:space="preserve" text-anchor="start" x="153.75" y="-222.5" font-family="Helvetica,sans-Serif" font-size="10.00">UIrradianceScheduler</text>
<text xml:space="preserve" text-anchor="middle" x="213.38" y="-210.5" font-family="Helvetica,sans-Serif" font-size="10.00">::ConsumeIrradianceResult</text>
</a>
</g>
</g>
<!-- Node1&#45;&gt;Node7 -->
<g id="edge7_Node000001_Node000007" class="edge">
<title>Node1&#45;&gt;Node7</title>
<g id="a_edge7_Node000001_Node000007"><a xlink:title=" ">
<path fill="none" stroke="#63b8ff" d="M842.92,-175.81C827.02,-184.37 807.86,-193.45 789.5,-199 612.33,-252.56 390.41,-239.6 281.28,-228.35"/>
<polygon fill="#63b8ff" stroke="#63b8ff" points="844.47,-178.95 851.52,-171.04 841.08,-172.83 844.47,-178.95"/>
</a>
</g>
</g>
<!-- Node9 -->
<g id="Node000009" class="node">
<title>Node9</title>
<g id="a_Node000009"><a xlink:href="class_u_irradiance_scheduler.html#a4f3d8698a24d9ab3b2f5df9fcd4364e4" target="_top" xlink:title="Starts a six&#45;face capture for the given request.">
<polygon fill="white" stroke="#666666" points="789.5,-70 679.75,-70 679.75,-38 789.5,-38 789.5,-70"/>
<text xml:space="preserve" text-anchor="start" x="687.75" y="-56.5" font-family="Helvetica,sans-Serif" font-size="10.00">UIrradianceScheduler</text>
<text xml:space="preserve" text-anchor="middle" x="734.62" y="-44.5" font-family="Helvetica,sans-Serif" font-size="10.00">::LaunchCapture</text>
</a>
</g>
</g>
<!-- Node1&#45;&gt;Node9 -->
<g id="edge9_Node000001_Node000009" class="edge">
<title>Node1&#45;&gt;Node9</title>
<g id="a_edge9_Node000001_Node000009"><a xlink:title=" ">
<path fill="none" stroke="#63b8ff" d="M854.13,-129.85C836.84,-114.11 812.89,-93.82 789.5,-79 784.71,-75.96 779.49,-73.08 774.25,-70.42"/>
<polygon fill="#63b8ff" stroke="#63b8ff" points="851.69,-132.37 861.41,-136.59 856.45,-127.23 851.69,-132.37"/>
</a>
</g>
</g>
<!-- Node14 -->
<g id="Node000014" class="node">
<title>Node14</title>
<g id="a_Node000014"><a xlink:href="class_u_irradiance_scheduler.html#ae8f8cd8bd9eccb9abdf17b9f023bea00" target="_top" xlink:title="Restores the viewport if it was previously forced.">
<polygon fill="white" stroke="#666666" points="789.5,-120 679.75,-120 679.75,-88 789.5,-88 789.5,-120"/>
<text xml:space="preserve" text-anchor="start" x="687.75" y="-106.5" font-family="Helvetica,sans-Serif" font-size="10.00">UIrradianceScheduler</text>
<text xml:space="preserve" text-anchor="middle" x="734.62" y="-94.5" font-family="Helvetica,sans-Serif" font-size="10.00">::RestoreViewport</text>
</a>
</g>
</g>
<!-- Node1&#45;&gt;Node14 -->
<g id="edge21_Node000001_Node000014" class="edge">
<title>Node1&#45;&gt;Node14</title>
<g id="a_edge21_Node000001_Node000014"><a xlink:title=" ">
<path fill="none" stroke="#63b8ff" d="M821.66,-133.92C808.75,-129.44 795.22,-124.73 782.8,-120.41"/>
<polygon fill="#63b8ff" stroke="#63b8ff" points="820.28,-137.15 830.88,-137.13 822.58,-130.54 820.28,-137.15"/>
</a>
</g>
</g>
<!-- Node2&#45;&gt;Node3 -->
<g id="edge2_Node000002_Node000003" class="edge">
<title>Node2&#45;&gt;Node3</title>
<g id="a_edge2_Node000002_Node000003"><a xlink:title=" ">
<path fill="none" stroke="#63b8ff" d="M668.54,-168.88C653.02,-172.42 636.62,-176.17 621.65,-179.59"/>
<polygon fill="#63b8ff" stroke="#63b8ff" points="669.2,-172.32 678.17,-166.67 667.64,-165.49 669.2,-172.32"/>
</a>
</g>
</g>
<!-- Node4 -->
<g id="Node000004" class="node">
<title>Node4</title>
<g id="a_Node000004"><a xlink:href="class_u_irradiance_scheduler.html#a4395030c4e2b089982300a7d5cb43417" target="_top" xlink:title="Captures irradiance once at Sim.StartTime for all active sensors.">
<polygon fill="white" stroke="#666666" points="439.88,-208 330.12,-208 330.12,-176 439.88,-176 439.88,-208"/>
<text xml:space="preserve" text-anchor="start" x="338.12" y="-194.5" font-family="Helvetica,sans-Serif" font-size="10.00">UIrradianceScheduler</text>
<text xml:space="preserve" text-anchor="middle" x="385" y="-182.5" font-family="Helvetica,sans-Serif" font-size="10.00">::CaptureOnce</text>
</a>
</g>
</g>
<!-- Node3&#45;&gt;Node4 -->
<g id="edge3_Node000003_Node000004" class="edge">
<title>Node3&#45;&gt;Node4</title>
<g id="a_edge3_Node000003_Node000004"><a xlink:title=" ">
<path fill="none" stroke="#63b8ff" d="M499.75,-192C480.15,-192 458.9,-192 440.12,-192"/>
<polygon fill="#63b8ff" stroke="#63b8ff" points="499.56,-195.5 509.56,-192 499.56,-188.5 499.56,-195.5"/>
</a>
</g>
</g>
<!-- Node6 -->
<g id="Node000006" class="node">
<title>Node6</title>
<g id="a_Node000006"><a xlink:href="class_u_irradiance_scheduler.html#a820fe9375420d4934dd45811ba7a419e" target="_top" xlink:title="Starts a full time&#45;series simulation using the given configuration.">
<polygon fill="white" stroke="#666666" points="439.88,-158 330.12,-158 330.12,-126 439.88,-126 439.88,-158"/>
<text xml:space="preserve" text-anchor="start" x="338.12" y="-144.5" font-family="Helvetica,sans-Serif" font-size="10.00">UIrradianceScheduler</text>
<text xml:space="preserve" text-anchor="middle" x="385" y="-132.5" font-family="Helvetica,sans-Serif" font-size="10.00">::StartSimulation</text>
</a>
</g>
</g>
<!-- Node3&#45;&gt;Node6 -->
<g id="edge5_Node000003_Node000006" class="edge">
<title>Node3&#45;&gt;Node6</title>
<g id="a_edge5_Node000003_Node000006"><a xlink:title=" ">
<path fill="none" stroke="#63b8ff" d="M500.03,-173.78C480.35,-168.3 458.98,-162.34 440.12,-157.09"/>
<polygon fill="#63b8ff" stroke="#63b8ff" points="499.04,-177.14 509.61,-176.46 500.92,-170.4 499.04,-177.14"/>
</a>
</g>
</g>
<!-- Node5 -->
<g id="Node000005" class="node">
<title>Node5</title>
<g id="a_Node000005"><a xlink:href="class_u_irradiance_scheduler.html#acad46ea7c860e2a972fb7debd56651e9" target="_top" xlink:title=" ">
<polygon fill="white" stroke="#666666" points="274.25,-170 152.5,-170 152.5,-138 274.25,-138 274.25,-170"/>
<text xml:space="preserve" text-anchor="start" x="160.5" y="-156.5" font-family="Helvetica,sans-Serif" font-size="10.00">UIrradianceScheduler</text>
<text xml:space="preserve" text-anchor="middle" x="213.38" y="-144.5" font-family="Helvetica,sans-Serif" font-size="10.00">::~UIrradianceScheduler</text>
</a>
</g>
</g>
<!-- Node4&#45;&gt;Node5 -->
<g id="edge4_Node000004_Node000005" class="edge">
<title>Node4&#45;&gt;Node5</title>
<g id="a_edge4_Node000004_Node000005"><a xlink:title=" ">
<path fill="none" stroke="#63b8ff" d="M318.89,-177.41C304.28,-174.14 288.86,-170.69 274.47,-167.46"/>
<polygon fill="#63b8ff" stroke="#63b8ff" points="317.86,-180.77 328.39,-179.54 319.39,-173.94 317.86,-180.77"/>
</a>
</g>
</g>
<!-- Node6&#45;&gt;Node5 -->
<g id="edge6_Node000006_Node000005" class="edge">
<title>Node6&#45;&gt;Node5</title>
<g id="a_edge6_Node000006_Node000005"><a xlink:title=" ">
<path fill="none" stroke="#63b8ff" d="M318.46,-146.64C303.98,-147.66 288.71,-148.74 274.47,-149.75"/>
<polygon fill="#63b8ff" stroke="#63b8ff" points="318.63,-150.13 328.35,-145.94 318.13,-143.15 318.63,-150.13"/>
</a>
</g>
</g>
<!-- Node8 -->
<g id="Node000008" class="node">
<title>Node8</title>
<g id="a_Node000008"><a xlink:href="class_u_irradiance_scheduler.html#a46ab4ac00573e109d595d80669a8e156" target="_top" xlink:title=" ">
<polygon fill="white" stroke="#666666" points="109.75,-151 0,-151 0,-119 109.75,-119 109.75,-151"/>
<text xml:space="preserve" text-anchor="start" x="8" y="-137.5" font-family="Helvetica,sans-Serif" font-size="10.00">UIrradianceScheduler</text>
<text xml:space="preserve" text-anchor="middle" x="54.88" y="-125.5" font-family="Helvetica,sans-Serif" font-size="10.00">::Tick</text>
</a>
</g>
</g>
<!-- Node7&#45;&gt;Node8 -->
<g id="edge8_Node000007_Node000008" class="edge">
<title>Node7&#45;&gt;Node8</title>
<g id="a_edge8_Node000007_Node000008"><a xlink:title=" ">
<path fill="none" stroke="#63b8ff" d="M172.35,-198.26C145.53,-183.69 110.77,-164.81 86.22,-151.48"/>
<polygon fill="#63b8ff" stroke="#63b8ff" points="170.41,-201.19 180.87,-202.89 173.75,-195.04 170.41,-201.19"/>
</a>
</g>
</g>
<!-- Node10 -->
<g id="Node000010" class="node">
<title>Node10</title>
<g id="a_Node000010"><a xlink:href="class_u_irradiance_scheduler.html#add6eff6a074954268d370e6ab2d7a060" target="_top" xlink:title="Launches the next pending one&#45;shot capture request, or finalizes if none.">
<polygon fill="white" stroke="#666666" points="640,-120 492.75,-120 492.75,-88 640,-88 640,-120"/>
<text xml:space="preserve" text-anchor="start" x="500.75" y="-106.5" font-family="Helvetica,sans-Serif" font-size="10.00">UIrradianceScheduler</text>
<text xml:space="preserve" text-anchor="middle" x="566.38" y="-94.5" font-family="Helvetica,sans-Serif" font-size="10.00">::LaunchNextOneShotCapture</text>
</a>
</g>
</g>
<!-- Node9&#45;&gt;Node10 -->
<g id="edge10_Node000009_Node000010" class="edge">
<title>Node9&#45;&gt;Node10</title>
<g id="a_edge10_Node000009_Node000010"><a xlink:title=" ">
<path fill="none" stroke="#63b8ff" d="M668.65,-73.54C653.3,-78.16 637.08,-83.04 622.22,-87.51"/>
<polygon fill="#63b8ff" stroke="#63b8ff" points="669.63,-76.9 678.2,-70.67 667.61,-70.2 669.63,-76.9"/>
</a>
</g>
</g>
<!-- Node12 -->
<g id="Node000012" class="node">
<title>Node12</title>
<g id="a_Node000012"><a xlink:href="class_u_irradiance_scheduler.html#a2c93371fc51e45b8af73ce9b4d2c690a" target="_top" xlink:title="Launches the next capture for the current time slot and sensor index.">
<polygon fill="white" stroke="#666666" points="643.75,-32 489,-32 489,0 643.75,0 643.75,-32"/>
<text xml:space="preserve" text-anchor="start" x="497" y="-18.5" font-family="Helvetica,sans-Serif" font-size="10.00">UIrradianceScheduler</text>
<text xml:space="preserve" text-anchor="middle" x="566.38" y="-6.5" font-family="Helvetica,sans-Serif" font-size="10.00">::LaunchNextSimulationCapture</text>
</a>
</g>
</g>
<!-- Node9&#45;&gt;Node12 -->
<g id="edge14_Node000009_Node000012" class="edge">
<title>Node9&#45;&gt;Node12</title>
<g id="a_edge14_Node000009_Node000012"><a xlink:title=" ">
<path fill="none" stroke="#63b8ff" d="M668.63,-39.14C659.09,-36.96 649.21,-34.7 639.53,-32.49"/>
<polygon fill="#63b8ff" stroke="#63b8ff" points="667.64,-42.51 678.17,-41.33 669.2,-35.68 667.64,-42.51"/>
</a>
</g>
</g>
<!-- Node10&#45;&gt;Node4 -->
<g id="edge11_Node000010_Node000004" class="edge">
<title>Node10&#45;&gt;Node4</title>
<g id="a_edge11_Node000010_Node000004"><a xlink:title=" ">
<path fill="none" stroke="#63b8ff" d="M528.99,-126.28C507.34,-139.06 479.1,-154.9 453,-167 446.58,-169.98 439.7,-172.87 432.88,-175.56"/>
<polygon fill="#63b8ff" stroke="#63b8ff" points="530.64,-129.37 537.44,-121.25 527.05,-123.36 530.64,-129.37"/>
</a>
</g>
</g>
<!-- Node11 -->
<g id="Node000011" class="node">
<title>Node11</title>
<g id="a_Node000011"><a xlink:href="class_u_irradiance_scheduler.html#ac79a70849af28bdcf62ac8214ccaeee5" target="_top" xlink:title="Handles a completed capture and advances the flow.">
<polygon fill="white" stroke="#666666" points="271.62,-101 155.12,-101 155.12,-69 271.62,-69 271.62,-101"/>
<text xml:space="preserve" text-anchor="start" x="163.12" y="-87.5" font-family="Helvetica,sans-Serif" font-size="10.00">UIrradianceScheduler</text>
<text xml:space="preserve" text-anchor="middle" x="213.38" y="-75.5" font-family="Helvetica,sans-Serif" font-size="10.00">::OnCaptureCompleted</text>
</a>
</g>
</g>
<!-- Node10&#45;&gt;Node11 -->
<g id="edge12_Node000010_Node000011" class="edge">
<title>Node10&#45;&gt;Node11</title>
<g id="a_edge12_Node000010_Node000011"><a xlink:title=" ">
<path fill="none" stroke="#63b8ff" d="M481.25,-99.45C416.55,-95.94 328.85,-91.2 271.95,-88.12"/>
<polygon fill="#63b8ff" stroke="#63b8ff" points="480.96,-102.94 491.14,-99.98 481.34,-95.95 480.96,-102.94"/>
</a>
</g>
</g>
<!-- Node11&#45;&gt;Node8 -->
<g id="edge13_Node000011_Node000008" class="edge">
<title>Node11&#45;&gt;Node8</title>
<g id="a_edge13_Node000011_Node000008"><a xlink:title=" ">
<path fill="none" stroke="#63b8ff" d="M150.43,-104.79C136.21,-109.33 121.24,-114.12 107.5,-118.51"/>
<polygon fill="#63b8ff" stroke="#63b8ff" points="151.23,-108.21 159.69,-101.83 149.1,-101.54 151.23,-108.21"/>
</a>
</g>
</g>
<!-- Node12&#45;&gt;Node6 -->
<g id="edge19_Node000012_Node000006" class="edge">
<title>Node12&#45;&gt;Node6</title>
<g id="a_edge19_Node000012_Node000006"><a xlink:title=" ">
<path fill="none" stroke="#63b8ff" d="M532.91,-38.81C497.29,-63.82 441.02,-103.35 409.46,-125.52"/>
<polygon fill="#63b8ff" stroke="#63b8ff" points="534.52,-41.95 540.69,-33.34 530.49,-36.23 534.52,-41.95"/>
</a>
</g>
</g>
<!-- Node12&#45;&gt;Node11 -->
<g id="edge18_Node000012_Node000011" class="edge">
<title>Node12&#45;&gt;Node11</title>
<g id="a_edge18_Node000012_Node000011"><a xlink:title=" ">
<path fill="none" stroke="#63b8ff" d="M477.33,-11.18C429.12,-10.87 368.83,-14.33 317,-29 287.51,-37.35 257.1,-55.33 237.12,-68.68"/>
<polygon fill="#63b8ff" stroke="#63b8ff" points="477.12,-14.67 487.16,-11.3 477.21,-7.67 477.12,-14.67"/>
</a>
</g>
</g>
<!-- Node13 -->
<g id="Node000013" class="node">
<title>Node13</title>
<g id="a_Node000013"><a xlink:href="class_u_irradiance_scheduler.html#ab400b6f7f8c6768537088d0eca221f90" target="_top" xlink:title="Advances to the next time slot, or finalizes the simulation if finished.">
<polygon fill="white" stroke="#666666" points="453,-70 317,-70 317,-38 453,-38 453,-70"/>
<text xml:space="preserve" text-anchor="start" x="325" y="-56.5" font-family="Helvetica,sans-Serif" font-size="10.00">UIrradianceScheduler</text>
<text xml:space="preserve" text-anchor="middle" x="385" y="-44.5" font-family="Helvetica,sans-Serif" font-size="10.00">::AdvanceTimeSlotOrFinish</text>
</a>
</g>
</g>
<!-- Node12&#45;&gt;Node13 -->
<g id="edge15_Node000012_Node000013" class="edge">
<title>Node12&#45;&gt;Node13</title>
<g id="a_edge15_Node000012_Node000013"><a xlink:title=" ">
<path fill="none" stroke="#63b8ff" d="M477.39,-27.89C462.79,-30.97 448.12,-34.29 434.95,-37.54"/>
<polygon fill="#63b8ff" stroke="#63b8ff" points="477.95,-31.35 487.04,-25.9 476.54,-24.49 477.95,-31.35"/>
</a>
</g>
</g>
<!-- Node13&#45;&gt;Node11 -->
<g id="edge17_Node000013_Node000011" class="edge">
<title>Node13&#45;&gt;Node11</title>
<g id="a_edge17_Node000013_Node000011"><a xlink:title=" ">
<path fill="none" stroke="#63b8ff" d="M305.66,-68.32C294.29,-70.4 282.75,-72.5 271.89,-74.49"/>
<polygon fill="#63b8ff" stroke="#63b8ff" points="306.26,-71.76 315.47,-66.52 305,-64.88 306.26,-71.76"/>
</a>
</g>
</g>
<!-- Node13&#45;&gt;Node12 -->
<g id="edge16_Node000013_Node000012" class="edge">
<title>Node13&#45;&gt;Node12</title>
<g id="a_edge16_Node000013_Node000012"><a xlink:title=" ">
<path fill="none" stroke="#63b8ff" d="M464.6,-44.05C482.2,-40.47 500.37,-36.42 516.36,-32.47"/>
<polygon fill="#63b8ff" stroke="#63b8ff" points="464.05,-40.59 454.93,-45.98 465.42,-47.46 464.05,-40.59"/>
</a>
</g>
</g>
<!-- Node14&#45;&gt;Node6 -->
<g id="edge24_Node000014_Node000006" class="edge">
<title>Node14&#45;&gt;Node6</title>
<g id="a_edge24_Node000014_Node000006"><a xlink:title=" ">
<path fill="none" stroke="#63b8ff" d="M671.24,-123.25C662.09,-125.52 652.73,-127.54 643.75,-129 574.09,-140.3 492.58,-142.62 440.17,-142.73"/>
<polygon fill="#63b8ff" stroke="#63b8ff" points="672,-126.68 680.79,-120.77 670.23,-119.9 672,-126.68"/>
</a>
</g>
</g>
<!-- Node14&#45;&gt;Node10 -->
<g id="edge23_Node000014_Node000010" class="edge">
<title>Node14&#45;&gt;Node10</title>
<g id="a_edge23_Node000014_Node000010"><a xlink:title=" ">
<path fill="none" stroke="#63b8ff" d="M668.27,-104C659.13,-104 649.7,-104 640.43,-104"/>
<polygon fill="#63b8ff" stroke="#63b8ff" points="668.13,-107.5 678.13,-104 668.13,-100.5 668.13,-107.5"/>
</a>
</g>
</g>
<!-- Node14&#45;&gt;Node13 -->
<g id="edge22_Node000014_Node000013" class="edge">
<title>Node14&#45;&gt;Node13</title>
<g id="a_edge22_Node000014_Node000013"><a xlink:title=" ">
<path fill="none" stroke="#63b8ff" d="M669.21,-84.63C660.7,-82.5 652.05,-80.55 643.75,-79 579.77,-67.09 505.74,-60.66 453.48,-57.31"/>
<polygon fill="#63b8ff" stroke="#63b8ff" points="668.26,-88 678.82,-87.13 670.02,-81.22 668.26,-88"/>
</a>
</g>
</g>
</g>
</svg>
