<?xml version="1.0" encoding="UTF-8" standalone="no"?>
<!DOCTYPE svg PUBLIC "-//W3C//DTD SVG 1.1//EN"
 "http://www.w3.org/Graphics/SVG/1.1/DTD/svg11.dtd">
<!-- Generated by graphviz version 14.1.0 (20251206.1807)
 -->
<!-- Title: UIrradianceScheduler::IsSimulationMode Pages: 1 -->
<svg width="416pt" height="40pt"
 viewBox="0.00 0.00 416.00 40.00" xmlns="http://www.w3.org/2000/svg" xmlns:xlink="http://www.w3.org/1999/xlink">
<g id="graph0" class="graph" transform="scale(1 1) rotate(0) translate(4 36)">
<title>UIrradianceScheduler::IsSimulationMode</title>
<!-- Node1 -->
<g id="Node000001" class="node">
<title>Node1</title>
<g id="a_Node000001"><a xlink:title="Returns true if running a multi&#45;slot simulation.">
<polygon fill="#999999" stroke="#666666" points="408,-32 298.25,-32 298.25,0 408,0 408,-32"/>
<text xml:space="preserve" text-anchor="start" x="306.25" y="-18.5" font-family="Helvetica,sans-Serif" font-size="10.00">UIrradianceScheduler</text>
<text xml:space="preserve" text-anchor="middle" x="353.12" y="-6.5" font-family="Helvetica,sans-Serif" font-size="10.00">::IsSimulationMode</text>
</a>
</g>
</g>
<!-- Node2 -->
<g id="Node000002" class="node">
<title>Node2</title>
<g id="a_Node000002"><a xlink:href="class_u_irradiance_scheduler.html#ac79a70849af28bdcf62ac8214ccaeee5" target="_top" xlink:title="Handles a completed capture and advances the flow.">
<polygon fill="white" stroke="#666666" points="262.25,-32 145.75,-32 145.75,0 262.25,0 262.25,-32"/>
<text xml:space="preserve" text-anchor="start" x="153.75" y="-18.5" font-family="Helvetica,sans-Serif" font-size="10.00">UIrradianceScheduler</text>
<text xml:space="preserve" text-anchor="middle" x="204" y="-6.5" font-family="Helvetica,sans-Serif" font-size="10.00">::OnCaptureCompleted</text>
</a>
</g>
</g>
<!-- Node1&#45;&gt;Node2 -->
<g id="edge1_Node000001_Node000002" class="edge">
<title>Node1&#45;&gt;Node2</title>
<g id="a_edge1_Node000001_Node000002"><a xlink:title=" ">
<path fill="none" stroke="#63b8ff" d="M286.31,-16C278.4,-16 270.37,-16 262.6,-16"/>
<polygon fill="#63b8ff" stroke="#63b8ff" points="286.25,-19.5 296.25,-16 286.25,-12.5 286.25,-19.5"/>
</a>
</g>
</g>
<!-- Node3 -->
<g id="Node000003" class="node">
<title>Node3</title>
<g id="a_Node000003"><a xlink:href="class_u_irradiance_scheduler.html#a46ab4ac00573e109d595d80669a8e156" target="_top" xlink:title=" ">
<polygon fill="white" stroke="#666666" points="109.75,-32 0,-32 0,0 109.75,0 109.75,-32"/>
<text xml:space="preserve" text-anchor="start" x="8" y="-18.5" font-family="Helvetica,sans-Serif" font-size="10.00">UIrradianceScheduler</text>
<text xml:space="preserve" text-anchor="middle" x="54.88" y="-6.5" font-family="Helvetica,sans-Serif" font-size="10.00">::Tick</text>
</a>
</g>
</g>
<!-- Node2&#45;&gt;Node3 -->
<g id="edge2_Node000002_Node000003" class="edge">
<title>Node2&#45;&gt;Node3</title>
<g id="a_edge2_Node000002_Node000003"><a xlink:title=" ">
<path fill="none" stroke="#63b8ff" d="M134.01,-16C125.97,-16 117.87,-16 110.07,-16"/>
<polygon fill="#63b8ff" stroke="#63b8ff" points="133.76,-19.5 143.76,-16 133.76,-12.5 133.76,-19.5"/>
</a>
</g>
</g>
</g>
</svg>
