<?xml version="1.0" encoding="UTF-8" standalone="no"?>
<!DOCTYPE svg PUBLIC "-//W3C//DTD SVG 1.1//EN"
 "http://www.w3.org/Graphics/SVG/1.1/DTD/svg11.dtd">
<!-- Generated by graphviz version 14.1.0 (20251206.1807)
 -->
<!-- Title: UIrradianceScheduler::AdvanceTimeSlotOrFinish Pages: 1 -->
<svg width="886pt" height="200pt"
 viewBox="0.00 0.00 886.00 200.00" xmlns="http://www.w3.org/2000/svg" xmlns:xlink="http://www.w3.org/1999/xlink">
<g id="graph0" class="graph" transform="scale(1 1) rotate(0) translate(4 196)">
<title>UIrradianceScheduler::AdvanceTimeSlotOrFinish</title>
<!-- Node1 -->
<g id="Node000001" class="node">
<title>Node1</title>
<g id="a_Node000001"><a xlink:title="Advances to the next time slot, or finalizes the simulation if finished.">
<polygon fill="#999999" stroke="#666666" points="136,-107 0,-107 0,-75 136,-75 136,-107"/>
<text xml:space="preserve" text-anchor="start" x="8" y="-93.5" font-family="Helvetica,sans-Serif" font-size="10.00">UIrradianceScheduler</text>
<text xml:space="preserve" text-anchor="middle" x="68" y="-81.5" font-family="Helvetica,sans-Serif" font-size="10.00">::AdvanceTimeSlotOrFinish</text>
</a>
</g>
</g>
<!-- Node2 -->
<g id="Node000002" class="node">
<title>Node2</title>
<g id="a_Node000002"><a xlink:href="class_u_irradiance_scheduler.html#a2c93371fc51e45b8af73ce9b4d2c690a" target="_top" xlink:title="Launches the next capture for the current time slot and sensor index.">
<polygon fill="white" stroke="#666666" points="326.75,-132 172,-132 172,-100 326.75,-100 326.75,-132"/>
<text xml:space="preserve" text-anchor="start" x="180" y="-118.5" font-family="Helvetica,sans-Serif" font-size="10.00">UIrradianceScheduler</text>
<text xml:space="preserve" text-anchor="middle" x="249.38" y="-106.5" font-family="Helvetica,sans-Serif" font-size="10.00">::LaunchNextSimulationCapture</text>
</a>
</g>
</g>
<!-- Node1&#45;&gt;Node2 -->
<g id="edge1_Node000001_Node000002" class="edge">
<title>Node1&#45;&gt;Node2</title>
<g id="a_edge1_Node000001_Node000002"><a xlink:title=" ">
<path fill="none" stroke="#63b8ff" d="M136.3,-93.82C146.13,-95.02 156.33,-96.39 166.41,-97.85"/>
<polygon fill="#63b8ff" stroke="#63b8ff" points="165.79,-101.3 176.2,-99.31 166.83,-94.37 165.79,-101.3"/>
</a>
</g>
</g>
<!-- Node10 -->
<g id="Node000010" class="node">
<title>Node10</title>
<g id="a_Node000010"><a xlink:href="class_u_irradiance_scheduler.html#ae8f8cd8bd9eccb9abdf17b9f023bea00" target="_top" xlink:title="Restores the viewport if it was previously forced.">
<polygon fill="white" stroke="#666666" points="304.25,-82 194.5,-82 194.5,-50 304.25,-50 304.25,-82"/>
<text xml:space="preserve" text-anchor="start" x="202.5" y="-68.5" font-family="Helvetica,sans-Serif" font-size="10.00">UIrradianceScheduler</text>
<text xml:space="preserve" text-anchor="middle" x="249.38" y="-56.5" font-family="Helvetica,sans-Serif" font-size="10.00">::RestoreViewport</text>
</a>
</g>
</g>
<!-- Node1&#45;&gt;Node10 -->
<g id="edge11_Node000001_Node000010" class="edge">
<title>Node1&#45;&gt;Node10</title>
<g id="a_edge11_Node000001_Node000010"><a xlink:title=" ">
<path fill="none" stroke="#63b8ff" d="M136.3,-81.62C151.51,-79.5 167.64,-77.25 182.78,-75.14"/>
<polygon fill="#63b8ff" stroke="#63b8ff" points="183.21,-78.62 192.63,-73.77 182.24,-71.68 183.21,-78.62"/>
</a>
</g>
</g>
<!-- Node11 -->
<g id="Node000011" class="node">
<title>Node11</title>
<g id="a_Node000011"><a xlink:href="class_u_irradiance_scheduler.html#aebff31185ed2941c1c7abcc423e1b25a" target="_top" xlink:title="Sets the SunSky UTC time.">
<polygon fill="white" stroke="#666666" points="304.25,-32 194.5,-32 194.5,0 304.25,0 304.25,-32"/>
<text xml:space="preserve" text-anchor="start" x="202.5" y="-18.5" font-family="Helvetica,sans-Serif" font-size="10.00">UIrradianceScheduler</text>
<text xml:space="preserve" text-anchor="middle" x="249.38" y="-6.5" font-family="Helvetica,sans-Serif" font-size="10.00">::SetSunSkyUTC</text>
</a>
</g>
</g>
<!-- Node1&#45;&gt;Node11 -->
<g id="edge13_Node000001_Node000011" class="edge">
<title>Node1&#45;&gt;Node11</title>
<g id="a_edge13_Node000001_Node000011"><a xlink:title=" ">
<path fill="none" stroke="#63b8ff" d="M100.06,-74.56C120.24,-64.21 147.31,-50.98 172,-41 176.03,-39.37 180.21,-37.77 184.45,-36.21"/>
<polygon fill="#63b8ff" stroke="#63b8ff" points="185.37,-39.6 193.61,-32.94 183.02,-33 185.37,-39.6"/>
</a>
</g>
</g>
<!-- Node2&#45;&gt;Node1 -->
<g id="edge2_Node000002_Node000001" class="edge">
<title>Node2&#45;&gt;Node1</title>
<g id="a_edge2_Node000002_Node000001"><a xlink:title=" ">
<path fill="none" stroke="#63b8ff" d="M171.65,-111.99C163.66,-110.96 155.53,-109.83 147.52,-108.65"/>
<polygon fill="#63b8ff" stroke="#63b8ff" points="148.21,-105.21 137.8,-107.17 147.16,-112.13 148.21,-105.21"/>
</a>
</g>
</g>
<!-- Node3 -->
<g id="Node000003" class="node">
<title>Node3</title>
<g id="a_Node000003"><a xlink:href="class_u_irradiance_scheduler.html#a4f3d8698a24d9ab3b2f5df9fcd4364e4" target="_top" xlink:title="Starts a six&#45;face capture for the given request.">
<polygon fill="white" stroke="#666666" points="501.75,-104 392,-104 392,-72 501.75,-72 501.75,-104"/>
<text xml:space="preserve" text-anchor="start" x="400" y="-90.5" font-family="Helvetica,sans-Serif" font-size="10.00">UIrradianceScheduler</text>
<text xml:space="preserve" text-anchor="middle" x="446.88" y="-78.5" font-family="Helvetica,sans-Serif" font-size="10.00">::LaunchCapture</text>
</a>
</g>
</g>
<!-- Node2&#45;&gt;Node3 -->
<g id="edge3_Node000002_Node000003" class="edge">
<title>Node2&#45;&gt;Node3</title>
<g id="a_edge3_Node000002_Node000003"><a xlink:title=" ">
<path fill="none" stroke="#63b8ff" d="M327.08,-105.01C344.81,-102.48 363.5,-99.8 380.68,-97.34"/>
<polygon fill="#63b8ff" stroke="#63b8ff" points="380.83,-100.85 390.23,-95.97 379.83,-93.92 380.83,-100.85"/>
</a>
</g>
</g>
<!-- Node6 -->
<g id="Node000006" class="node">
<title>Node6</title>
<g id="a_Node000006"><a xlink:href="class_u_irradiance_scheduler.html#ac45df7ef85d6d364e7724f7e853a32c6" target="_top" xlink:title="Builds a capture request for the given sensor and simulation settings.">
<polygon fill="white" stroke="#666666" points="501.75,-154 392,-154 392,-122 501.75,-122 501.75,-154"/>
<text xml:space="preserve" text-anchor="start" x="400" y="-140.5" font-family="Helvetica,sans-Serif" font-size="10.00">UIrradianceScheduler</text>
<text xml:space="preserve" text-anchor="middle" x="446.88" y="-128.5" font-family="Helvetica,sans-Serif" font-size="10.00">::MakeRequest</text>
</a>
</g>
</g>
<!-- Node2&#45;&gt;Node6 -->
<g id="edge6_Node000002_Node000006" class="edge">
<title>Node2&#45;&gt;Node6</title>
<g id="a_edge6_Node000002_Node000006"><a xlink:title=" ">
<path fill="none" stroke="#63b8ff" d="M327.08,-124.63C344.81,-126.63 363.5,-128.73 380.68,-130.66"/>
<polygon fill="#63b8ff" stroke="#63b8ff" points="379.89,-134.1 390.22,-131.74 380.68,-127.14 379.89,-134.1"/>
</a>
</g>
</g>
<!-- Node9 -->
<g id="Node000009" class="node">
<title>Node9</title>
<g id="a_Node000009"><a xlink:href="struct_f_capture_request.html#a5283a5b56514b3ae55663480e05d7980" target="_top" xlink:title=" ">
<polygon fill="white" stroke="#666666" points="531,-192 362.75,-192 362.75,-172 531,-172 531,-192"/>
<text xml:space="preserve" text-anchor="middle" x="446.88" y="-178.5" font-family="Helvetica,sans-Serif" font-size="10.00">FCaptureRequest::WithTimestamp</text>
</a>
</g>
</g>
<!-- Node2&#45;&gt;Node9 -->
<g id="edge9_Node000002_Node000009" class="edge">
<title>Node2&#45;&gt;Node9</title>
<g id="a_edge9_Node000002_Node000009"><a xlink:title=" ">
<path fill="none" stroke="#63b8ff" d="M285.22,-132.4C307.12,-142.24 336.17,-154.47 362.75,-163 369.32,-165.11 376.25,-167.08 383.19,-168.89"/>
<polygon fill="#63b8ff" stroke="#63b8ff" points="382.05,-172.21 392.6,-171.24 383.74,-165.42 382.05,-172.21"/>
</a>
</g>
</g>
<!-- Node4 -->
<g id="Node000004" class="node">
<title>Node4</title>
<g id="a_Node000004"><a xlink:href="class_u_irradiance_scheduler.html#a3a1998734dd679049d860179bf9b0222" target="_top" xlink:title="Ensures the IrradianceSubsystem pointer is valid for the current world.">
<polygon fill="white" stroke="#666666" points="689.5,-60 579.75,-60 579.75,-28 689.5,-28 689.5,-60"/>
<text xml:space="preserve" text-anchor="start" x="587.75" y="-46.5" font-family="Helvetica,sans-Serif" font-size="10.00">UIrradianceScheduler</text>
<text xml:space="preserve" text-anchor="middle" x="634.62" y="-34.5" font-family="Helvetica,sans-Serif" font-size="10.00">::EnsureSubsystem</text>
</a>
</g>
</g>
<!-- Node3&#45;&gt;Node4 -->
<g id="edge4_Node000003_Node000004" class="edge">
<title>Node3&#45;&gt;Node4</title>
<g id="a_edge4_Node000003_Node000004"><a xlink:title=" ">
<path fill="none" stroke="#63b8ff" d="M502.1,-75.16C522.8,-70.25 546.62,-64.61 568.25,-59.49"/>
<polygon fill="#63b8ff" stroke="#63b8ff" points="568.93,-62.92 577.86,-57.21 567.32,-56.11 568.93,-62.92"/>
</a>
</g>
</g>
<!-- Node5 -->
<g id="Node000005" class="node">
<title>Node5</title>
<g id="a_Node000005"><a xlink:href="struct_f_capture_request.html#ab63ce8c8eadcb5393d9993aeab920660" target="_top" xlink:title=" ">
<polygon fill="white" stroke="#666666" points="702.25,-98 567,-98 567,-78 702.25,-78 702.25,-98"/>
<text xml:space="preserve" text-anchor="middle" x="634.62" y="-84.5" font-family="Helvetica,sans-Serif" font-size="10.00">FCaptureRequest::ToString</text>
</a>
</g>
</g>
<!-- Node3&#45;&gt;Node5 -->
<g id="edge5_Node000003_Node000005" class="edge">
<title>Node3&#45;&gt;Node5</title>
<g id="a_edge5_Node000003_Node000005"><a xlink:title=" ">
<path fill="none" stroke="#63b8ff" d="M502.1,-88C518.78,-88 537.49,-88 555.44,-88"/>
<polygon fill="#63b8ff" stroke="#63b8ff" points="555.29,-91.5 565.29,-88 555.29,-84.5 555.29,-91.5"/>
</a>
</g>
</g>
<!-- Node7 -->
<g id="Node000007" class="node">
<title>Node7</title>
<g id="a_Node000007"><a xlink:href="struct_f_capture_request.html#ae17362dae77f57d0c2245cecef01b38b" target="_top" xlink:title="Factory method.">
<polygon fill="white" stroke="#666666" points="696.25,-149 573,-149 573,-129 696.25,-129 696.25,-149"/>
<text xml:space="preserve" text-anchor="middle" x="634.62" y="-135.5" font-family="Helvetica,sans-Serif" font-size="10.00">FCaptureRequest::Make</text>
</a>
</g>
</g>
<!-- Node6&#45;&gt;Node7 -->
<g id="edge7_Node000006_Node000007" class="edge">
<title>Node6&#45;&gt;Node7</title>
<g id="a_edge7_Node000006_Node000007"><a xlink:title=" ">
<path fill="none" stroke="#63b8ff" d="M502.1,-138.29C520.63,-138.39 541.66,-138.5 561.38,-138.61"/>
<polygon fill="#63b8ff" stroke="#63b8ff" points="561.28,-142.11 571.3,-138.66 561.32,-135.11 561.28,-142.11"/>
</a>
</g>
</g>
<!-- Node8 -->
<g id="Node000008" class="node">
<title>Node8</title>
<g id="a_Node000008"><a xlink:href="struct_f_capture_request.html#ae828b8d1f7d31ecf6e4669f223f1ec5d" target="_top" xlink:title=" ">
<polygon fill="white" stroke="#666666" points="878,-175 738.25,-175 738.25,-143 878,-143 878,-175"/>
<text xml:space="preserve" text-anchor="start" x="746.25" y="-161.5" font-family="Helvetica,sans-Serif" font-size="10.00">FCaptureRequest::FCapture</text>
<text xml:space="preserve" text-anchor="middle" x="808.12" y="-149.5" font-family="Helvetica,sans-Serif" font-size="10.00">Request</text>
</a>
</g>
</g>
<!-- Node7&#45;&gt;Node8 -->
<g id="edge8_Node000007_Node000008" class="edge">
<title>Node7&#45;&gt;Node8</title>
<g id="a_edge8_Node000007_Node000008"><a xlink:title=" ">
<path fill="none" stroke="#63b8ff" d="M696.57,-146.11C706.3,-147.24 716.48,-148.43 726.58,-149.61"/>
<polygon fill="#63b8ff" stroke="#63b8ff" points="726.06,-153.07 736.4,-150.75 726.87,-146.12 726.06,-153.07"/>
</a>
</g>
</g>
<!-- Node9&#45;&gt;Node8 -->
<g id="edge10_Node000009_Node000008" class="edge">
<title>Node9&#45;&gt;Node8</title>
<g id="a_edge10_Node000009_Node000008"><a xlink:title=" ">
<path fill="none" stroke="#63b8ff" d="M531.2,-176.67C589.98,-172.9 668.3,-167.89 726.48,-164.16"/>
<polygon fill="#63b8ff" stroke="#63b8ff" points="726.57,-167.66 736.32,-163.53 726.12,-160.68 726.57,-167.66"/>
</a>
</g>
</g>
<!-- Node10&#45;&gt;Node4 -->
<g id="edge12_Node000010_Node000004" class="edge">
<title>Node10&#45;&gt;Node4</title>
<g id="a_edge12_Node000010_Node000004"><a xlink:title=" ">
<path fill="none" stroke="#63b8ff" d="M304.47,-62.89C373.85,-58.91 494.06,-52.01 568.42,-47.74"/>
<polygon fill="#63b8ff" stroke="#63b8ff" points="568.2,-51.26 577.98,-47.19 567.8,-44.27 568.2,-51.26"/>
</a>
</g>
</g>
</g>
</svg>
