<?xml version="1.0" encoding="UTF-8" standalone="no"?>
<!DOCTYPE svg PUBLIC "-//W3C//DTD SVG 1.1//EN"
 "http://www.w3.org/Graphics/SVG/1.1/DTD/svg11.dtd">
<!-- Generated by graphviz version 14.1.0 (20251206.1807)
 -->
<!-- Title: UIrradianceSubsystem::ComputeFinalIrradiance Pages: 1 -->
<svg width="581pt" height="40pt"
 viewBox="0.00 0.00 581.00 40.00" xmlns="http://www.w3.org/2000/svg" xmlns:xlink="http://www.w3.org/1999/xlink">
<g id="graph0" class="graph" transform="scale(1 1) rotate(0) translate(4 36)">
<title>UIrradianceSubsystem::ComputeFinalIrradiance</title>
<!-- Node1 -->
<g id="Node000001" class="node">
<title>Node1</title>
<g id="a_Node000001"><a xlink:title="Dispatch the irradiance compute shader using the captured faces.">
<polygon fill="#999999" stroke="#666666" points="125.5,-32 0,-32 0,0 125.5,0 125.5,-32"/>
<text xml:space="preserve" text-anchor="start" x="8" y="-18.5" font-family="Helvetica,sans-Serif" font-size="10.00">UIrradianceSubsystem</text>
<text xml:space="preserve" text-anchor="middle" x="62.75" y="-6.5" font-family="Helvetica,sans-Serif" font-size="10.00">::ComputeFinalIrradiance</text>
</a>
</g>
</g>
<!-- Node2 -->
<g id="Node000002" class="node">
<title>Node2</title>
<g id="a_Node000002"><a xlink:href="namespace_irradiance_compute.html#a6fad304599a46b23bcca8438ca2b6f06" target="_top" xlink:title=" ">
<polygon fill="white" stroke="#666666" points="308.75,-32 161.5,-32 161.5,0 308.75,0 308.75,-32"/>
<text xml:space="preserve" text-anchor="start" x="169.5" y="-18.5" font-family="Helvetica,sans-Serif" font-size="10.00">IrradianceCompute::</text>
<text xml:space="preserve" text-anchor="middle" x="235.12" y="-6.5" font-family="Helvetica,sans-Serif" font-size="10.00">ComputeAndExtractIrradiance</text>
</a>
</g>
</g>
<!-- Node1&#45;&gt;Node2 -->
<g id="edge1_Node000001_Node000002" class="edge">
<title>Node1&#45;&gt;Node2</title>
<g id="a_edge1_Node000001_Node000002"><a xlink:title=" ">
<path fill="none" stroke="#63b8ff" d="M125.74,-16C133.57,-16 141.67,-16 149.77,-16"/>
<polygon fill="#63b8ff" stroke="#63b8ff" points="149.67,-19.5 159.67,-16 149.67,-12.5 149.67,-19.5"/>
</a>
</g>
</g>
<!-- Node3 -->
<g id="Node000003" class="node">
<title>Node3</title>
<g id="a_Node000003"><a xlink:href="namespace_irradiance_compute.html#ad8506a4c2588e653b7d1c2aaf4552b14" target="_top" xlink:title=" ">
<polygon fill="white" stroke="#666666" points="449.25,-32 344.75,-32 344.75,0 449.25,0 449.25,-32"/>
<text xml:space="preserve" text-anchor="start" x="352.75" y="-18.5" font-family="Helvetica,sans-Serif" font-size="10.00">IrradianceCompute::</text>
<text xml:space="preserve" text-anchor="middle" x="397" y="-6.5" font-family="Helvetica,sans-Serif" font-size="10.00">ComputeIrradiance</text>
</a>
</g>
</g>
<!-- Node2&#45;&gt;Node3 -->
<g id="edge2_Node000002_Node000003" class="edge">
<title>Node2&#45;&gt;Node3</title>
<g id="a_edge2_Node000002_Node000003"><a xlink:title=" ">
<path fill="none" stroke="#63b8ff" d="M309.04,-16C317.12,-16 325.3,-16 333.24,-16"/>
<polygon fill="#63b8ff" stroke="#63b8ff" points="333.14,-19.5 343.14,-16 333.14,-12.5 333.14,-19.5"/>
</a>
</g>
</g>
<!-- Node4 -->
<g id="Node000004" class="node">
<title>Node4</title>
<g id="a_Node000004"><a xlink:href="_irradiance_integrate_c_s_8cpp.html#a6d8400984c092d383c90ad4cd22a8462" target="_top" xlink:title="Creates a 2D texture array from the six cubemap face render targets.">
<polygon fill="white" stroke="#666666" points="573.25,-26 485.25,-26 485.25,-6 573.25,-6 573.25,-26"/>
<text xml:space="preserve" text-anchor="middle" x="529.25" y="-12.5" font-family="Helvetica,sans-Serif" font-size="10.00">BuildFacesArray</text>
</a>
</g>
</g>
<!-- Node3&#45;&gt;Node4 -->
<g id="edge3_Node000003_Node000004" class="edge">
<title>Node3&#45;&gt;Node4</title>
<g id="a_edge3_Node000003_Node000004"><a xlink:title=" ">
<path fill="none" stroke="#63b8ff" d="M449.48,-16C457.41,-16 465.62,-16 473.62,-16"/>
<polygon fill="#63b8ff" stroke="#63b8ff" points="473.61,-19.5 483.61,-16 473.61,-12.5 473.61,-19.5"/>
</a>
</g>
</g>
</g>
</svg>
