<?xml version="1.0" encoding="UTF-8" standalone="no"?>
<!DOCTYPE svg PUBLIC "-//W3C//DTD SVG 1.1//EN"
 "http://www.w3.org/Graphics/SVG/1.1/DTD/svg11.dtd">
<!-- Generated by graphviz version 14.1.0 (20251206.1807)
 -->
<!-- Title: USunSkyController::EnsureSunSky Pages: 1 -->
<svg width="426pt" height="140pt"
 viewBox="0.00 0.00 426.00 140.00" xmlns="http://www.w3.org/2000/svg" xmlns:xlink="http://www.w3.org/1999/xlink">
<g id="graph0" class="graph" transform="scale(1 1) rotate(0) translate(4 136)">
<title>USunSkyController::EnsureSunSky</title>
<!-- Node1 -->
<g id="Node000001" class="node">
<title>Node1</title>
<g id="a_Node000001"><a xlink:title="Returns the cached SunSky actor or performs a search if missing.">
<polygon fill="#999999" stroke="#666666" points="417.75,-82 311.75,-82 311.75,-50 417.75,-50 417.75,-82"/>
<text xml:space="preserve" text-anchor="start" x="319.75" y="-68.5" font-family="Helvetica,sans-Serif" font-size="10.00">USunSkyController::</text>
<text xml:space="preserve" text-anchor="middle" x="364.75" y="-56.5" font-family="Helvetica,sans-Serif" font-size="10.00">EnsureSunSky</text>
</a>
</g>
</g>
<!-- Node2 -->
<g id="Node000002" class="node">
<title>Node2</title>
<g id="a_Node000002"><a xlink:href="class_u_sun_sky_controller.html#acdb2373863253da9f5d1cd1f79c24ffd" target="_top" xlink:title="Applies static SunSky configuration (location, timezone, north offset, DST flag).">
<polygon fill="white" stroke="#666666" points="275.75,-132 169.75,-132 169.75,-100 275.75,-100 275.75,-132"/>
<text xml:space="preserve" text-anchor="start" x="177.75" y="-118.5" font-family="Helvetica,sans-Serif" font-size="10.00">USunSkyController::</text>
<text xml:space="preserve" text-anchor="middle" x="222.75" y="-106.5" font-family="Helvetica,sans-Serif" font-size="10.00">ApplyStaticConfig</text>
</a>
</g>
</g>
<!-- Node1&#45;&gt;Node2 -->
<g id="edge1_Node000001_Node000002" class="edge">
<title>Node1&#45;&gt;Node2</title>
<g id="a_edge1_Node000001_Node000002"><a xlink:title=" ">
<path fill="none" stroke="#63b8ff" d="M307.16,-86.21C294.71,-90.66 281.67,-95.32 269.69,-99.59"/>
<polygon fill="#63b8ff" stroke="#63b8ff" points="308.24,-89.54 316.48,-82.88 305.89,-82.95 308.24,-89.54"/>
</a>
</g>
</g>
<!-- Node3 -->
<g id="Node000003" class="node">
<title>Node3</title>
<g id="a_Node000003"><a xlink:href="class_u_sun_sky_controller.html#a9180ae57b0690fa8db4a96d766b7275a" target="_top" xlink:title="Returns solar azimuth/altitude using solar&#45;standard convention: azimuth = clockwise from North (0°=N,...">
<polygon fill="white" stroke="#666666" points="275.75,-82 169.75,-82 169.75,-50 275.75,-50 275.75,-82"/>
<text xml:space="preserve" text-anchor="start" x="177.75" y="-68.5" font-family="Helvetica,sans-Serif" font-size="10.00">USunSkyController::</text>
<text xml:space="preserve" text-anchor="middle" x="222.75" y="-56.5" font-family="Helvetica,sans-Serif" font-size="10.00">GetSolarAngles</text>
</a>
</g>
</g>
<!-- Node1&#45;&gt;Node3 -->
<g id="edge2_Node000001_Node000003" class="edge">
<title>Node1&#45;&gt;Node3</title>
<g id="a_edge2_Node000001_Node000003"><a xlink:title=" ">
<path fill="none" stroke="#63b8ff" d="M300.24,-66C292.11,-66 283.85,-66 275.92,-66"/>
<polygon fill="#63b8ff" stroke="#63b8ff" points="300.11,-69.5 310.11,-66 300.11,-62.5 300.11,-69.5"/>
</a>
</g>
</g>
<!-- Node5 -->
<g id="Node000005" class="node">
<title>Node5</title>
<g id="a_Node000005"><a xlink:href="class_u_sun_sky_controller.html#a7b869177273a8632f9fe83cdce10145d" target="_top" xlink:title="Sets the SunSky date and time from a UTC timestamp(applies configured timezone).">
<polygon fill="white" stroke="#666666" points="275.75,-32 169.75,-32 169.75,0 275.75,0 275.75,-32"/>
<text xml:space="preserve" text-anchor="start" x="177.75" y="-18.5" font-family="Helvetica,sans-Serif" font-size="10.00">USunSkyController::</text>
<text xml:space="preserve" text-anchor="middle" x="222.75" y="-6.5" font-family="Helvetica,sans-Serif" font-size="10.00">SetUTC</text>
</a>
</g>
</g>
<!-- Node1&#45;&gt;Node5 -->
<g id="edge4_Node000001_Node000005" class="edge">
<title>Node1&#45;&gt;Node5</title>
<g id="a_edge4_Node000001_Node000005"><a xlink:title=" ">
<path fill="none" stroke="#63b8ff" d="M307.16,-45.79C294.71,-41.34 281.67,-36.68 269.69,-32.41"/>
<polygon fill="#63b8ff" stroke="#63b8ff" points="305.89,-49.05 316.48,-49.12 308.24,-42.46 305.89,-49.05"/>
</a>
</g>
</g>
<!-- Node4 -->
<g id="Node000004" class="node">
<title>Node4</title>
<g id="a_Node000004"><a xlink:href="class_u_irradiance_subsystem.html#a04b6e98a2662b94a1117321c3d6c70f9" target="_top" xlink:title="Consume the latest available irradiance value.">
<polygon fill="white" stroke="#666666" points="133.75,-82 0,-82 0,-50 133.75,-50 133.75,-82"/>
<text xml:space="preserve" text-anchor="start" x="8" y="-68.5" font-family="Helvetica,sans-Serif" font-size="10.00">UIrradianceSubsystem</text>
<text xml:space="preserve" text-anchor="middle" x="66.88" y="-56.5" font-family="Helvetica,sans-Serif" font-size="10.00">::ConsumeLatestIrradiance</text>
</a>
</g>
</g>
<!-- Node3&#45;&gt;Node4 -->
<g id="edge3_Node000003_Node000004" class="edge">
<title>Node3&#45;&gt;Node4</title>
<g id="a_edge3_Node000003_Node000004"><a xlink:title=" ">
<path fill="none" stroke="#63b8ff" d="M158.19,-66C150.24,-66 142.09,-66 134.1,-66"/>
<polygon fill="#63b8ff" stroke="#63b8ff" points="158.14,-69.5 168.14,-66 158.14,-62.5 158.14,-69.5"/>
</a>
</g>
</g>
</g>
</svg>
