<?xml version="1.0" encoding="UTF-8" standalone="no"?>
<!DOCTYPE svg PUBLIC "-//W3C//DTD SVG 1.1//EN"
 "http://www.w3.org/Graphics/SVG/1.1/DTD/svg11.dtd">
<!-- Generated by graphviz version 14.1.0 (20251206.1807)
 -->
<!-- Title: UClearSkyService::Compute Pages: 1 -->
<svg width="354pt" height="90pt"
 viewBox="0.00 0.00 354.00 90.00" xmlns="http://www.w3.org/2000/svg" xmlns:xlink="http://www.w3.org/1999/xlink">
<g id="graph0" class="graph" transform="scale(1 1) rotate(0) translate(4 86)">
<title>UClearSkyService::Compute</title>
<!-- Node1 -->
<g id="Node000001" class="node">
<title>Node1</title>
<g id="a_Node000001"><a xlink:title="Computes clear&#45;sky irradiance for a given sun zenith and timestamp (UTC).">
<polygon fill="#999999" stroke="#666666" points="142.75,-51 0,-51 0,-31 142.75,-31 142.75,-51"/>
<text xml:space="preserve" text-anchor="middle" x="71.38" y="-37.5" font-family="Helvetica,sans-Serif" font-size="10.00">UClearSkyService::Compute</text>
</a>
</g>
</g>
<!-- Node2 -->
<g id="Node000002" class="node">
<title>Node2</title>
<g id="a_Node000002"><a xlink:href="class_u_clear_sky_service.html#a4bd936e7dcca173feace16b32d4719c3" target="_top" xlink:title=" ">
<polygon fill="white" stroke="#666666" points="331.62,-82 192.62,-82 192.62,-50 331.62,-50 331.62,-82"/>
<text xml:space="preserve" text-anchor="start" x="200.62" y="-68.5" font-family="Helvetica,sans-Serif" font-size="10.00">UClearSkyService::AirMass</text>
<text xml:space="preserve" text-anchor="middle" x="262.12" y="-56.5" font-family="Helvetica,sans-Serif" font-size="10.00">KastenYoung</text>
</a>
</g>
</g>
<!-- Node1&#45;&gt;Node2 -->
<g id="edge1_Node000001_Node000002" class="edge">
<title>Node1&#45;&gt;Node2</title>
<g id="a_edge1_Node000001_Node000002"><a xlink:title=" ">
<path fill="none" stroke="#63b8ff" d="M143.2,-50.38C155.53,-52.01 168.44,-53.72 181,-55.39"/>
<polygon fill="#63b8ff" stroke="#63b8ff" points="180.54,-58.86 190.91,-56.7 181.46,-51.92 180.54,-58.86"/>
</a>
</g>
</g>
<!-- Node3 -->
<g id="Node000003" class="node">
<title>Node3</title>
<g id="a_Node000003"><a xlink:href="class_u_clear_sky_service.html#ac9faa811288b93e087788128535eed2a" target="_top" xlink:title=" ">
<polygon fill="white" stroke="#666666" points="345.5,-32 178.75,-32 178.75,0 345.5,0 345.5,-32"/>
<text xml:space="preserve" text-anchor="start" x="186.75" y="-18.5" font-family="Helvetica,sans-Serif" font-size="10.00">UClearSkyService::Extraterrestrial</text>
<text xml:space="preserve" text-anchor="middle" x="262.12" y="-6.5" font-family="Helvetica,sans-Serif" font-size="10.00">Irradiance_Wm2</text>
</a>
</g>
</g>
<!-- Node1&#45;&gt;Node3 -->
<g id="edge2_Node000001_Node000003" class="edge">
<title>Node1&#45;&gt;Node3</title>
<g id="a_edge2_Node000001_Node000003"><a xlink:title=" ">
<path fill="none" stroke="#63b8ff" d="M143.2,-31.62C151.02,-30.58 159.07,-29.52 167.12,-28.45"/>
<polygon fill="#63b8ff" stroke="#63b8ff" points="167.51,-31.93 176.97,-27.15 166.59,-24.99 167.51,-31.93"/>
</a>
</g>
</g>
</g>
</svg>
