<?xml version="1.0" encoding="UTF-8" standalone="no"?>
<!DOCTYPE svg PUBLIC "-//W3C//DTD SVG 1.1//EN"
 "http://www.w3.org/Graphics/SVG/1.1/DTD/svg11.dtd">
<!-- Generated by graphviz version 14.1.0 (20251206.1807)
 -->
<!-- Title: UIrradianceScheduler::LaunchNextOneShotCapture Pages: 1 -->
<svg width="466pt" height="90pt"
 viewBox="0.00 0.00 466.00 90.00" xmlns="http://www.w3.org/2000/svg" xmlns:xlink="http://www.w3.org/1999/xlink">
<g id="graph0" class="graph" transform="scale(1 1) rotate(0) translate(4 86)">
<title>UIrradianceScheduler::LaunchNextOneShotCapture</title>
<!-- Node1 -->
<g id="Node000001" class="node">
<title>Node1</title>
<g id="a_Node000001"><a xlink:title="Launches the next pending one&#45;shot capture request, or finalizes if none.">
<polygon fill="#999999" stroke="#666666" points="457.5,-57 310.25,-57 310.25,-25 457.5,-25 457.5,-57"/>
<text xml:space="preserve" text-anchor="start" x="318.25" y="-43.5" font-family="Helvetica,sans-Serif" font-size="10.00">UIrradianceScheduler</text>
<text xml:space="preserve" text-anchor="middle" x="383.88" y="-31.5" font-family="Helvetica,sans-Serif" font-size="10.00">::LaunchNextOneShotCapture</text>
</a>
</g>
</g>
<!-- Node2 -->
<g id="Node000002" class="node">
<title>Node2</title>
<g id="a_Node000002"><a xlink:href="class_u_irradiance_scheduler.html#a4395030c4e2b089982300a7d5cb43417" target="_top" xlink:title="Captures irradiance once at Sim.StartTime for all active sensors.">
<polygon fill="white" stroke="#666666" points="270.88,-82 161.12,-82 161.12,-50 270.88,-50 270.88,-82"/>
<text xml:space="preserve" text-anchor="start" x="169.12" y="-68.5" font-family="Helvetica,sans-Serif" font-size="10.00">UIrradianceScheduler</text>
<text xml:space="preserve" text-anchor="middle" x="216" y="-56.5" font-family="Helvetica,sans-Serif" font-size="10.00">::CaptureOnce</text>
</a>
</g>
</g>
<!-- Node1&#45;&gt;Node2 -->
<g id="edge1_Node000001_Node000002" class="edge">
<title>Node1&#45;&gt;Node2</title>
<g id="a_edge1_Node000001_Node000002"><a xlink:title=" ">
<path fill="none" stroke="#63b8ff" d="M298.74,-53.68C289.4,-55.09 280.07,-56.49 271.24,-57.82"/>
<polygon fill="#63b8ff" stroke="#63b8ff" points="299.26,-57.14 308.62,-52.19 298.21,-50.22 299.26,-57.14"/>
</a>
</g>
</g>
<!-- Node4 -->
<g id="Node000004" class="node">
<title>Node4</title>
<g id="a_Node000004"><a xlink:href="class_u_irradiance_scheduler.html#ac79a70849af28bdcf62ac8214ccaeee5" target="_top" xlink:title="Handles a completed capture and advances the flow.">
<polygon fill="white" stroke="#666666" points="274.25,-32 157.75,-32 157.75,0 274.25,0 274.25,-32"/>
<text xml:space="preserve" text-anchor="start" x="165.75" y="-18.5" font-family="Helvetica,sans-Serif" font-size="10.00">UIrradianceScheduler</text>
<text xml:space="preserve" text-anchor="middle" x="216" y="-6.5" font-family="Helvetica,sans-Serif" font-size="10.00">::OnCaptureCompleted</text>
</a>
</g>
</g>
<!-- Node1&#45;&gt;Node4 -->
<g id="edge3_Node000001_Node000004" class="edge">
<title>Node1&#45;&gt;Node4</title>
<g id="a_edge3_Node000001_Node000004"><a xlink:title=" ">
<path fill="none" stroke="#63b8ff" d="M298.97,-28.35C290.78,-27.12 282.59,-25.89 274.75,-24.7"/>
<polygon fill="#63b8ff" stroke="#63b8ff" points="298.21,-31.78 308.62,-29.81 299.26,-24.86 298.21,-31.78"/>
</a>
</g>
</g>
<!-- Node3 -->
<g id="Node000003" class="node">
<title>Node3</title>
<g id="a_Node000003"><a xlink:href="class_u_irradiance_scheduler.html#acad46ea7c860e2a972fb7debd56651e9" target="_top" xlink:title=" ">
<polygon fill="white" stroke="#666666" points="121.75,-82 0,-82 0,-50 121.75,-50 121.75,-82"/>
<text xml:space="preserve" text-anchor="start" x="8" y="-68.5" font-family="Helvetica,sans-Serif" font-size="10.00">UIrradianceScheduler</text>
<text xml:space="preserve" text-anchor="middle" x="60.88" y="-56.5" font-family="Helvetica,sans-Serif" font-size="10.00">::~UIrradianceScheduler</text>
</a>
</g>
</g>
<!-- Node2&#45;&gt;Node3 -->
<g id="edge2_Node000002_Node000003" class="edge">
<title>Node2&#45;&gt;Node3</title>
<g id="a_edge2_Node000002_Node000003"><a xlink:title=" ">
<path fill="none" stroke="#63b8ff" d="M149.62,-66C140.51,-66 131.17,-66 122.16,-66"/>
<polygon fill="#63b8ff" stroke="#63b8ff" points="149.5,-69.5 159.5,-66 149.5,-62.5 149.5,-69.5"/>
</a>
</g>
</g>
<!-- Node5 -->
<g id="Node000005" class="node">
<title>Node5</title>
<g id="a_Node000005"><a xlink:href="class_u_irradiance_scheduler.html#a46ab4ac00573e109d595d80669a8e156" target="_top" xlink:title=" ">
<polygon fill="white" stroke="#666666" points="115.75,-32 6,-32 6,0 115.75,0 115.75,-32"/>
<text xml:space="preserve" text-anchor="start" x="14" y="-18.5" font-family="Helvetica,sans-Serif" font-size="10.00">UIrradianceScheduler</text>
<text xml:space="preserve" text-anchor="middle" x="60.88" y="-6.5" font-family="Helvetica,sans-Serif" font-size="10.00">::Tick</text>
</a>
</g>
</g>
<!-- Node4&#45;&gt;Node5 -->
<g id="edge4_Node000004_Node000005" class="edge">
<title>Node4&#45;&gt;Node5</title>
<g id="a_edge4_Node000004_Node000005"><a xlink:title=" ">
<path fill="none" stroke="#63b8ff" d="M146.25,-16C136.15,-16 125.86,-16 116.1,-16"/>
<polygon fill="#63b8ff" stroke="#63b8ff" points="146.03,-19.5 156.03,-16 146.03,-12.5 146.03,-19.5"/>
</a>
</g>
</g>
</g>
</svg>
