<?xml version="1.0" encoding="UTF-8" standalone="no"?>
<!DOCTYPE svg PUBLIC "-//W3C//DTD SVG 1.1//EN"
 "http://www.w3.org/Graphics/SVG/1.1/DTD/svg11.dtd">
<!-- Generated by graphviz version 14.1.0 (20251206.1807)
 -->
<!-- Title: FIrradianceReduceCS Pages: 1 -->
<svg width="273pt" height="264pt"
 viewBox="0.00 0.00 273.00 264.00" xmlns="http://www.w3.org/2000/svg" xmlns:xlink="http://www.w3.org/1999/xlink">
<g id="graph0" class="graph" transform="scale(1 1) rotate(0) translate(4 260)">
<title>FIrradianceReduceCS</title>
<!-- Node1 -->
<g id="Node000001" class="node">
<title>Node1</title>
<g id="a_Node000001"><a xlink:title=" ">
<polygon fill="#999999" stroke="none" points="264.75,-168 0,-168 0,0 264.75,0 264.75,-168"/>
<text xml:space="preserve" text-anchor="start" x="84" y="-154.5" font-family="Helvetica,sans-Serif" font-size="10.00">FIrradianceReduceCS</text>
<text xml:space="preserve" text-anchor="start" x="4" y="-138.5" font-family="Helvetica,sans-Serif" font-size="10.00">+</text>
<text xml:space="preserve" text-anchor="start" x="14" y="-138.5" font-family="Helvetica,sans-Serif" font-size="10.00">static constexpr uint32</text>
<text xml:space="preserve" text-anchor="start" x="14" y="-126.5" font-family="Helvetica,sans-Serif" font-size="10.00"> ThreadGroupSize</text>
<text xml:space="preserve" text-anchor="start" x="4" y="-110.5" font-family="Helvetica,sans-Serif" font-size="10.00">+</text>
<text xml:space="preserve" text-anchor="start" x="14" y="-110.5" font-family="Helvetica,sans-Serif" font-size="10.00">DECLARE_GLOBAL_SHADER</text>
<text xml:space="preserve" text-anchor="start" x="14" y="-98.5" font-family="Helvetica,sans-Serif" font-size="10.00">(FIrradianceReduceCS)</text>
<text xml:space="preserve" text-anchor="start" x="4" y="-82.5" font-family="Helvetica,sans-Serif" font-size="10.00">+</text>
<text xml:space="preserve" text-anchor="start" x="14" y="-82.5" font-family="Helvetica,sans-Serif" font-size="10.00">SHADER_USE_PARAMETER</text>
<text xml:space="preserve" text-anchor="start" x="14" y="-70.5" font-family="Helvetica,sans-Serif" font-size="10.00">_STRUCT(FIrradianceReduceCS,</text>
<text xml:space="preserve" text-anchor="start" x="14" y="-58.5" font-family="Helvetica,sans-Serif" font-size="10.00"> FGlobalShader)</text>
<text xml:space="preserve" text-anchor="start" x="4" y="-42.5" font-family="Helvetica,sans-Serif" font-size="10.00">+</text>
<text xml:space="preserve" text-anchor="start" x="14" y="-42.5" font-family="Helvetica,sans-Serif" font-size="10.00">static void ModifyCompilation</text>
<text xml:space="preserve" text-anchor="start" x="14" y="-30.5" font-family="Helvetica,sans-Serif" font-size="10.00">Environment(const FGlobalShaderPermutation</text>
<text xml:space="preserve" text-anchor="start" x="14" y="-18.5" font-family="Helvetica,sans-Serif" font-size="10.00">Parameters &amp;Parameters, FShaderCompilerEnvironment</text>
<text xml:space="preserve" text-anchor="start" x="14" y="-6.5" font-family="Helvetica,sans-Serif" font-size="10.00"> &amp;OutEnvironment)</text>
<polygon fill="#666666" stroke="#666666" points="0,-150 0,-150 264.75,-150 264.75,-150 0,-150"/>
<polygon fill="#666666" stroke="#666666" points="0,-122 0,-122 12,-122 12,-122 0,-122"/>
<polygon fill="#666666" stroke="#666666" points="12,-122 12,-122 264.75,-122 264.75,-122 12,-122"/>
<polygon fill="none" stroke="#666666" points="0,0 0,-168 264.75,-168 264.75,0 0,0"/>
</a>
</g>
</g>
<!-- Node2 -->
<g id="Node000002" class="node">
<title>Node2</title>
<g id="a_Node000002"><a xlink:title=" ">
<polygon fill="white" stroke="none" points="168.62,-256 96.12,-256 96.12,-204 168.62,-204 168.62,-256"/>
<text xml:space="preserve" text-anchor="start" x="100.12" y="-242.5" font-family="Helvetica,sans-Serif" font-size="10.00">FGlobalShader</text>
<text xml:space="preserve" text-anchor="start" x="130.88" y="-226.5" font-family="Helvetica,sans-Serif" font-size="10.00"> </text>
<text xml:space="preserve" text-anchor="start" x="130.88" y="-210.5" font-family="Helvetica,sans-Serif" font-size="10.00"> </text>
<polygon fill="#666666" stroke="#666666" points="96.12,-238 96.12,-238 168.62,-238 168.62,-238 96.12,-238"/>
<polygon fill="#666666" stroke="#666666" points="96.12,-222 96.12,-222 168.62,-222 168.62,-222 96.12,-222"/>
<polygon fill="none" stroke="#666666" points="96.12,-204 96.12,-256 168.62,-256 168.62,-204 96.12,-204"/>
</a>
</g>
</g>
<!-- Node2&#45;&gt;Node1 -->
<g id="edge1_Node000001_Node000002" class="edge">
<title>Node2&#45;&gt;Node1</title>
<g id="a_edge1_Node000001_Node000002"><a xlink:title=" ">
<path fill="none" stroke="#63b8ff" d="M132.38,-192.79C132.38,-185.07 132.38,-176.61 132.38,-167.94"/>
<polygon fill="none" stroke="#63b8ff" points="128.88,-192.73 132.38,-202.73 135.88,-192.73 128.88,-192.73"/>
</a>
</g>
</g>
</g>
</svg>
