<?xml version="1.0" encoding="UTF-8" standalone="no"?>
<!DOCTYPE svg PUBLIC "-//W3C//DTD SVG 1.1//EN"
 "http://www.w3.org/Graphics/SVG/1.1/DTD/svg11.dtd">
<!-- Generated by graphviz version 14.1.0 (20251206.1807)
 -->
<!-- Title: UIrradianceExporter::AppendIrradianceRow Pages: 1 -->
<svg width="414pt" height="128pt"
 viewBox="0.00 0.00 414.00 128.00" xmlns="http://www.w3.org/2000/svg" xmlns:xlink="http://www.w3.org/1999/xlink">
<g id="graph0" class="graph" transform="scale(1 1) rotate(0) translate(4 124)">
<title>UIrradianceExporter::AppendIrradianceRow</title>
<!-- Node1 -->
<g id="Node000001" class="node">
<title>Node1</title>
<g id="a_Node000001"><a xlink:title="CSV export utils.">
<polygon fill="#999999" stroke="#666666" points="118,-76 0,-76 0,-44 118,-44 118,-76"/>
<text xml:space="preserve" text-anchor="start" x="8" y="-62.5" font-family="Helvetica,sans-Serif" font-size="10.00">UIrradianceExporter</text>
<text xml:space="preserve" text-anchor="middle" x="59" y="-50.5" font-family="Helvetica,sans-Serif" font-size="10.00">::AppendIrradianceRow</text>
</a>
</g>
</g>
<!-- Node2 -->
<g id="Node000002" class="node">
<title>Node2</title>
<g id="a_Node000002"><a xlink:href="class_u_irradiance_exporter.html#a5dc928403c8b2f3b33ebaf459363eb04" target="_top" xlink:title=" ">
<polygon fill="white" stroke="#666666" points="260,-120 154.75,-120 154.75,-88 260,-88 260,-120"/>
<text xml:space="preserve" text-anchor="start" x="162.75" y="-106.5" font-family="Helvetica,sans-Serif" font-size="10.00">UIrradianceExporter</text>
<text xml:space="preserve" text-anchor="middle" x="207.38" y="-94.5" font-family="Helvetica,sans-Serif" font-size="10.00">::EnsureCSVHeader</text>
</a>
</g>
</g>
<!-- Node1&#45;&gt;Node2 -->
<g id="edge1_Node000001_Node000002" class="edge">
<title>Node1&#45;&gt;Node2</title>
<g id="a_edge1_Node000001_Node000002"><a xlink:title=" ">
<path fill="none" stroke="#63b8ff" d="M114.5,-76.38C123.95,-79.22 133.85,-82.2 143.5,-85.1"/>
<polygon fill="#63b8ff" stroke="#63b8ff" points="142.22,-88.37 152.8,-87.9 144.23,-81.67 142.22,-88.37"/>
</a>
</g>
</g>
<!-- Node3 -->
<g id="Node000003" class="node">
<title>Node3</title>
<g id="a_Node000003"><a xlink:href="class_u_irradiance_exporter.html#a041eb2a1073d7a52ae314cae60eea73e" target="_top" xlink:title=" ">
<polygon fill="white" stroke="#666666" points="405.75,-54 296.75,-54 296.75,-22 405.75,-22 405.75,-54"/>
<text xml:space="preserve" text-anchor="start" x="304.75" y="-40.5" font-family="Helvetica,sans-Serif" font-size="10.00">UIrradianceExporter</text>
<text xml:space="preserve" text-anchor="middle" x="351.25" y="-28.5" font-family="Helvetica,sans-Serif" font-size="10.00">::EnsureCSVWritable</text>
</a>
</g>
</g>
<!-- Node1&#45;&gt;Node3 -->
<g id="edge2_Node000001_Node000003" class="edge">
<title>Node1&#45;&gt;Node3</title>
<g id="a_edge2_Node000001_Node000003"><a xlink:title=" ">
<path fill="none" stroke="#63b8ff" d="M118.39,-55.57C166.61,-51.92 235.02,-46.73 285.03,-42.94"/>
<polygon fill="#63b8ff" stroke="#63b8ff" points="285.15,-46.44 294.86,-42.2 284.62,-39.46 285.15,-46.44"/>
</a>
</g>
</g>
<!-- Node4 -->
<g id="Node000004" class="node">
<title>Node4</title>
<g id="a_Node000004"><a xlink:href="class_u_irradiance_exporter.html#ae27d33156d8d003db48f8a8e95589dc2" target="_top" xlink:title=" ">
<polygon fill="white" stroke="#666666" points="260.75,-32 154,-32 154,0 260.75,0 260.75,-32"/>
<text xml:space="preserve" text-anchor="start" x="162" y="-18.5" font-family="Helvetica,sans-Serif" font-size="10.00">UIrradianceExporter</text>
<text xml:space="preserve" text-anchor="middle" x="207.38" y="-6.5" font-family="Helvetica,sans-Serif" font-size="10.00">::FlushCSVIfNeeded</text>
</a>
</g>
</g>
<!-- Node1&#45;&gt;Node4 -->
<g id="edge3_Node000001_Node000004" class="edge">
<title>Node1&#45;&gt;Node4</title>
<g id="a_edge3_Node000001_Node000004"><a xlink:title=" ">
<path fill="none" stroke="#63b8ff" d="M114.5,-43.62C123.74,-40.84 133.39,-37.94 142.83,-35.1"/>
<polygon fill="#63b8ff" stroke="#63b8ff" points="143.75,-38.48 152.32,-32.25 141.74,-31.78 143.75,-38.48"/>
</a>
</g>
</g>
<!-- Node4&#45;&gt;Node3 -->
<g id="edge4_Node000004_Node000003" class="edge">
<title>Node4&#45;&gt;Node3</title>
<g id="a_edge4_Node000004_Node000003"><a xlink:title=" ">
<path fill="none" stroke="#63b8ff" d="M261.2,-24.19C269.02,-25.4 277.15,-26.67 285.19,-27.91"/>
<polygon fill="#63b8ff" stroke="#63b8ff" points="284.52,-31.35 294.93,-29.42 285.59,-24.43 284.52,-31.35"/>
</a>
</g>
</g>
</g>
</svg>
