<?xml version="1.0" encoding="UTF-8" standalone="no"?>
<!DOCTYPE svg PUBLIC "-//W3C//DTD SVG 1.1//EN"
 "http://www.w3.org/Graphics/SVG/1.1/DTD/svg11.dtd">
<!-- Generated by graphviz version 14.1.0 (20251206.1807)
 -->
<!-- Title: UIrradianceScheduler::~UIrradianceScheduler Pages: 1 -->
<svg width="1018pt" height="418pt"
 viewBox="0.00 0.00 1018.00 418.00" xmlns="http://www.w3.org/2000/svg" xmlns:xlink="http://www.w3.org/1999/xlink">
<g id="graph0" class="graph" transform="scale(1 1) rotate(0) translate(4 414.44)">
<title>UIrradianceScheduler::~UIrradianceScheduler</title>
<!-- Node1 -->
<g id="Node000001" class="node">
<title>Node1</title>
<g id="a_Node000001"><a xlink:title=" ">
<polygon fill="#999999" stroke="#666666" points="121.75,-246 0,-246 0,-214 121.75,-214 121.75,-246"/>
<text xml:space="preserve" text-anchor="start" x="8" y="-232.5" font-family="Helvetica,sans-Serif" font-size="10.00">UIrradianceScheduler</text>
<text xml:space="preserve" text-anchor="middle" x="60.88" y="-220.5" font-family="Helvetica,sans-Serif" font-size="10.00">::~UIrradianceScheduler</text>
</a>
</g>
</g>
<!-- Node2 -->
<g id="Node000002" class="node">
<title>Node2</title>
<g id="a_Node000002"><a xlink:href="class_u_irradiance_scheduler.html#a4395030c4e2b089982300a7d5cb43417" target="_top" xlink:title="Captures irradiance once at Sim.StartTime for all active sensors.">
<polygon fill="white" stroke="#666666" points="267.5,-318 157.75,-318 157.75,-286 267.5,-286 267.5,-318"/>
<text xml:space="preserve" text-anchor="start" x="165.75" y="-304.5" font-family="Helvetica,sans-Serif" font-size="10.00">UIrradianceScheduler</text>
<text xml:space="preserve" text-anchor="middle" x="212.62" y="-292.5" font-family="Helvetica,sans-Serif" font-size="10.00">::CaptureOnce</text>
</a>
</g>
</g>
<!-- Node1&#45;&gt;Node2 -->
<g id="edge1_Node000001_Node000002" class="edge">
<title>Node1&#45;&gt;Node2</title>
<g id="a_edge1_Node000001_Node000002"><a xlink:title=" ">
<path fill="none" stroke="#63b8ff" d="M95.86,-246.34C117.03,-256.52 144.51,-269.73 167.38,-280.73"/>
<polygon fill="#63b8ff" stroke="#63b8ff" points="165.63,-283.77 176.16,-284.95 168.66,-277.46 165.63,-283.77"/>
</a>
</g>
</g>
<!-- Node3 -->
<g id="Node000003" class="node">
<title>Node3</title>
<g id="a_Node000003"><a xlink:href="class_u_irradiance_scheduler.html#ab0e6a156c26f9163303f503ddc2a31a7" target="_top" xlink:title="Immediately stops any ongoing capture or simulation and restores state.">
<polygon fill="white" stroke="#666666" points="435.75,-246 326,-246 326,-214 435.75,-214 435.75,-246"/>
<text xml:space="preserve" text-anchor="start" x="334" y="-232.5" font-family="Helvetica,sans-Serif" font-size="10.00">UIrradianceScheduler</text>
<text xml:space="preserve" text-anchor="middle" x="380.88" y="-220.5" font-family="Helvetica,sans-Serif" font-size="10.00">::ClearQueue</text>
</a>
</g>
</g>
<!-- Node1&#45;&gt;Node3 -->
<g id="edge19_Node000001_Node000003" class="edge">
<title>Node1&#45;&gt;Node3</title>
<g id="a_edge19_Node000001_Node000003"><a xlink:title=" ">
<path fill="none" stroke="#63b8ff" d="M122.06,-230C176.89,-230 257.7,-230 314.19,-230"/>
<polygon fill="#63b8ff" stroke="#63b8ff" points="313.99,-233.5 323.99,-230 313.99,-226.5 313.99,-233.5"/>
</a>
</g>
</g>
<!-- Node17 -->
<g id="Node000017" class="node">
<title>Node17</title>
<g id="a_Node000017"><a xlink:href="class_u_irradiance_scheduler.html#a820fe9375420d4934dd45811ba7a419e" target="_top" xlink:title="Starts a full time&#45;series simulation using the given configuration.">
<polygon fill="white" stroke="#666666" points="267.5,-202 157.75,-202 157.75,-170 267.5,-170 267.5,-202"/>
<text xml:space="preserve" text-anchor="start" x="165.75" y="-188.5" font-family="Helvetica,sans-Serif" font-size="10.00">UIrradianceScheduler</text>
<text xml:space="preserve" text-anchor="middle" x="212.62" y="-176.5" font-family="Helvetica,sans-Serif" font-size="10.00">::StartSimulation</text>
</a>
</g>
</g>
<!-- Node1&#45;&gt;Node17 -->
<g id="edge20_Node000001_Node000017" class="edge">
<title>Node1&#45;&gt;Node17</title>
<g id="a_edge20_Node000001_Node000017"><a xlink:title=" ">
<path fill="none" stroke="#63b8ff" d="M117.64,-213.62C127.06,-210.85 136.92,-207.95 146.56,-205.12"/>
<polygon fill="#63b8ff" stroke="#63b8ff" points="147.25,-208.56 155.86,-202.39 145.28,-201.85 147.25,-208.56"/>
</a>
</g>
</g>
<!-- Node2&#45;&gt;Node3 -->
<g id="edge2_Node000002_Node000003" class="edge">
<title>Node2&#45;&gt;Node3</title>
<g id="a_edge2_Node000002_Node000003"><a xlink:title=" ">
<path fill="none" stroke="#63b8ff" d="M242.18,-285.51C259.56,-275.88 282.41,-263.89 303.5,-255 307.32,-253.39 311.29,-251.81 315.32,-250.29"/>
<polygon fill="#63b8ff" stroke="#63b8ff" points="316.43,-253.61 324.62,-246.89 314.03,-247.03 316.43,-253.61"/>
</a>
</g>
</g>
<!-- Node4 -->
<g id="Node000004" class="node">
<title>Node4</title>
<g id="a_Node000004"><a xlink:href="class_u_irradiance_scheduler.html#a61d5fea9a087dfc36e58fc42e93ddf45" target="_top" xlink:title="Fills OutSensors with all active pyranometer components in this world.">
<polygon fill="white" stroke="#666666" points="435.75,-296 326,-296 326,-264 435.75,-264 435.75,-296"/>
<text xml:space="preserve" text-anchor="start" x="334" y="-282.5" font-family="Helvetica,sans-Serif" font-size="10.00">UIrradianceScheduler</text>
<text xml:space="preserve" text-anchor="middle" x="380.88" y="-270.5" font-family="Helvetica,sans-Serif" font-size="10.00">::GetActiveSensors</text>
</a>
</g>
</g>
<!-- Node2&#45;&gt;Node4 -->
<g id="edge3_Node000002_Node000004" class="edge">
<title>Node2&#45;&gt;Node4</title>
<g id="a_edge3_Node000002_Node000004"><a xlink:title=" ">
<path fill="none" stroke="#63b8ff" d="M267.6,-294.86C282.56,-292.88 298.95,-290.71 314.48,-288.65"/>
<polygon fill="#63b8ff" stroke="#63b8ff" points="314.65,-292.16 324.1,-287.38 313.73,-285.22 314.65,-292.16"/>
</a>
</g>
</g>
<!-- Node5 -->
<g id="Node000005" class="node">
<title>Node5</title>
<g id="a_Node000005"><a xlink:href="class_u_irradiance_scheduler.html#add6eff6a074954268d370e6ab2d7a060" target="_top" xlink:title="Launches the next pending one&#45;shot capture request, or finalizes if none.">
<polygon fill="white" stroke="#666666" points="454.5,-384 307.25,-384 307.25,-352 454.5,-352 454.5,-384"/>
<text xml:space="preserve" text-anchor="start" x="315.25" y="-370.5" font-family="Helvetica,sans-Serif" font-size="10.00">UIrradianceScheduler</text>
<text xml:space="preserve" text-anchor="middle" x="380.88" y="-358.5" font-family="Helvetica,sans-Serif" font-size="10.00">::LaunchNextOneShotCapture</text>
</a>
</g>
</g>
<!-- Node2&#45;&gt;Node5 -->
<g id="edge4_Node000002_Node000005" class="edge">
<title>Node2&#45;&gt;Node5</title>
<g id="a_edge4_Node000002_Node000005"><a xlink:title=" ">
<path fill="none" stroke="#63b8ff" d="M254.32,-318.37C269.71,-324.54 287.41,-331.62 303.5,-338 311.15,-341.03 319.23,-344.22 327.16,-347.35"/>
<polygon fill="#63b8ff" stroke="#63b8ff" points="325.84,-350.59 336.43,-350.99 328.4,-344.07 325.84,-350.59"/>
</a>
</g>
</g>
<!-- Node10 -->
<g id="Node000010" class="node">
<title>Node10</title>
<g id="a_Node000010"><a xlink:href="class_u_irradiance_scheduler.html#ac45df7ef85d6d364e7724f7e853a32c6" target="_top" xlink:title="Builds a capture request for the given sensor and simulation settings.">
<polygon fill="white" stroke="#666666" points="633.25,-158 523.5,-158 523.5,-126 633.25,-126 633.25,-158"/>
<text xml:space="preserve" text-anchor="start" x="531.5" y="-144.5" font-family="Helvetica,sans-Serif" font-size="10.00">UIrradianceScheduler</text>
<text xml:space="preserve" text-anchor="middle" x="578.38" y="-132.5" font-family="Helvetica,sans-Serif" font-size="10.00">::MakeRequest</text>
</a>
</g>
</g>
<!-- Node2&#45;&gt;Node10 -->
<g id="edge10_Node000002_Node000010" class="edge">
<title>Node2&#45;&gt;Node10</title>
<g id="a_edge10_Node000002_Node000010"><a xlink:title=" ">
<path fill="none" stroke="#63b8ff" d="M261.7,-318.44C315.26,-333.47 401.75,-347.53 458.25,-305 504.44,-270.23 456.51,-223.8 494.25,-180 499.66,-173.72 506.33,-168.42 513.51,-163.96"/>
<polygon fill="#63b8ff" stroke="#63b8ff" points="515.18,-167.04 522.23,-159.13 511.79,-160.91 515.18,-167.04"/>
</a>
</g>
</g>
<!-- Node13 -->
<g id="Node000013" class="node">
<title>Node13</title>
<g id="a_Node000013"><a xlink:href="class_u_irradiance_scheduler.html#a7ba28b0ad34fafcb3f525bb028459e01" target="_top" xlink:title="Prepares SunSky, export and viewport settings for a simulation.">
<polygon fill="white" stroke="#666666" points="633.25,-336 523.5,-336 523.5,-304 633.25,-304 633.25,-336"/>
<text xml:space="preserve" text-anchor="start" x="531.5" y="-322.5" font-family="Helvetica,sans-Serif" font-size="10.00">UIrradianceScheduler</text>
<text xml:space="preserve" text-anchor="middle" x="578.38" y="-310.5" font-family="Helvetica,sans-Serif" font-size="10.00">::PrepareSimulation</text>
</a>
</g>
</g>
<!-- Node2&#45;&gt;Node13 -->
<g id="edge13_Node000002_Node000013" class="edge">
<title>Node2&#45;&gt;Node13</title>
<g id="a_edge13_Node000002_Node000013"><a xlink:title=" ">
<path fill="none" stroke="#63b8ff" d="M223.66,-318.32C238.15,-340.15 267.24,-377.85 303.5,-393 366.96,-419.52 392.05,-411.67 458.25,-393 492.52,-383.34 526.65,-360.76 549.54,-343.25"/>
<polygon fill="#63b8ff" stroke="#63b8ff" points="551.43,-346.21 557.14,-337.28 547.11,-340.7 551.43,-346.21"/>
</a>
</g>
</g>
<!-- Node6 -->
<g id="Node000006" class="node">
<title>Node6</title>
<g id="a_Node000006"><a xlink:href="class_u_irradiance_scheduler.html#a4f3d8698a24d9ab3b2f5df9fcd4364e4" target="_top" xlink:title="Starts a six&#45;face capture for the given request.">
<polygon fill="white" stroke="#666666" points="633.25,-270 523.5,-270 523.5,-238 633.25,-238 633.25,-270"/>
<text xml:space="preserve" text-anchor="start" x="531.5" y="-256.5" font-family="Helvetica,sans-Serif" font-size="10.00">UIrradianceScheduler</text>
<text xml:space="preserve" text-anchor="middle" x="578.38" y="-244.5" font-family="Helvetica,sans-Serif" font-size="10.00">::LaunchCapture</text>
</a>
</g>
</g>
<!-- Node5&#45;&gt;Node6 -->
<g id="edge5_Node000005_Node000006" class="edge">
<title>Node5&#45;&gt;Node6</title>
<g id="a_edge5_Node000005_Node000006"><a xlink:title=" ">
<path fill="none" stroke="#63b8ff" d="M433.83,-351.68C442.38,-347.87 450.85,-343.33 458.25,-338 478.48,-323.44 474.65,-310.4 494.25,-295 503.65,-287.62 514.59,-281.07 525.38,-275.49"/>
<polygon fill="#63b8ff" stroke="#63b8ff" points="526.85,-278.67 534.28,-271.11 523.76,-272.39 526.85,-278.67"/>
</a>
</g>
</g>
<!-- Node9 -->
<g id="Node000009" class="node">
<title>Node9</title>
<g id="a_Node000009"><a xlink:href="class_u_irradiance_scheduler.html#ae8f8cd8bd9eccb9abdf17b9f023bea00" target="_top" xlink:title="Restores the viewport if it was previously forced.">
<polygon fill="white" stroke="#666666" points="821,-104 711.25,-104 711.25,-72 821,-72 821,-104"/>
<text xml:space="preserve" text-anchor="start" x="719.25" y="-90.5" font-family="Helvetica,sans-Serif" font-size="10.00">UIrradianceScheduler</text>
<text xml:space="preserve" text-anchor="middle" x="766.12" y="-78.5" font-family="Helvetica,sans-Serif" font-size="10.00">::RestoreViewport</text>
</a>
</g>
</g>
<!-- Node5&#45;&gt;Node9 -->
<g id="edge8_Node000005_Node000009" class="edge">
<title>Node5&#45;&gt;Node9</title>
<g id="a_edge8_Node000005_Node000009"><a xlink:title=" ">
<path fill="none" stroke="#63b8ff" d="M432.98,-351.6C442.31,-346.77 451.29,-340.67 458.25,-333 491.13,-296.79 460.01,-263.93 494.25,-229 550.04,-172.09 599.93,-216.36 662.5,-167 685.15,-149.13 675.91,-130.93 698.5,-113 699.64,-112.09 700.82,-111.22 702.03,-110.37"/>
<polygon fill="#63b8ff" stroke="#63b8ff" points="703.78,-113.4 710.52,-105.22 700.15,-107.42 703.78,-113.4"/>
</a>
</g>
</g>
<!-- Node7 -->
<g id="Node000007" class="node">
<title>Node7</title>
<g id="a_Node000007"><a xlink:href="class_u_irradiance_scheduler.html#a3a1998734dd679049d860179bf9b0222" target="_top" xlink:title="Ensures the IrradianceSubsystem pointer is valid for the current world.">
<polygon fill="white" stroke="#666666" points="994.5,-293 884.75,-293 884.75,-261 994.5,-261 994.5,-293"/>
<text xml:space="preserve" text-anchor="start" x="892.75" y="-279.5" font-family="Helvetica,sans-Serif" font-size="10.00">UIrradianceScheduler</text>
<text xml:space="preserve" text-anchor="middle" x="939.62" y="-267.5" font-family="Helvetica,sans-Serif" font-size="10.00">::EnsureSubsystem</text>
</a>
</g>
</g>
<!-- Node6&#45;&gt;Node7 -->
<g id="edge6_Node000006_Node000007" class="edge">
<title>Node6&#45;&gt;Node7</title>
<g id="a_edge6_Node000006_Node000007"><a xlink:title=" ">
<path fill="none" stroke="#63b8ff" d="M633.55,-257.47C697.7,-261.58 804.49,-268.41 873.2,-272.81"/>
<polygon fill="#63b8ff" stroke="#63b8ff" points="872.59,-276.28 882.8,-273.43 873.04,-269.29 872.59,-276.28"/>
</a>
</g>
</g>
<!-- Node8 -->
<g id="Node000008" class="node">
<title>Node8</title>
<g id="a_Node000008"><a xlink:href="struct_f_capture_request.html#ab63ce8c8eadcb5393d9993aeab920660" target="_top" xlink:title=" ">
<polygon fill="white" stroke="#666666" points="833.75,-230 698.5,-230 698.5,-210 833.75,-210 833.75,-230"/>
<text xml:space="preserve" text-anchor="middle" x="766.12" y="-216.5" font-family="Helvetica,sans-Serif" font-size="10.00">FCaptureRequest::ToString</text>
</a>
</g>
</g>
<!-- Node6&#45;&gt;Node8 -->
<g id="edge7_Node000006_Node000008" class="edge">
<title>Node6&#45;&gt;Node8</title>
<g id="a_edge7_Node000006_Node000008"><a xlink:title=" ">
<path fill="none" stroke="#63b8ff" d="M633.6,-244.07C653.39,-240.45 676.03,-236.31 696.88,-232.49"/>
<polygon fill="#63b8ff" stroke="#63b8ff" points="697.22,-235.99 706.43,-230.74 695.96,-229.1 697.22,-235.99"/>
</a>
</g>
</g>
<!-- Node9&#45;&gt;Node7 -->
<g id="edge9_Node000009_Node000007" class="edge">
<title>Node9&#45;&gt;Node7</title>
<g id="a_edge9_Node000009_Node000007"><a xlink:title=" ">
<path fill="none" stroke="#63b8ff" d="M820.5,-104.36C825.21,-106.87 829.72,-109.74 833.75,-113 880.17,-150.57 912.48,-214.42 928.04,-250.37"/>
<polygon fill="#63b8ff" stroke="#63b8ff" points="924.64,-251.31 931.74,-259.17 931.09,-248.59 924.64,-251.31"/>
</a>
</g>
</g>
<!-- Node11 -->
<g id="Node000011" class="node">
<title>Node11</title>
<g id="a_Node000011"><a xlink:href="struct_f_capture_request.html#ae17362dae77f57d0c2245cecef01b38b" target="_top" xlink:title="Factory method.">
<polygon fill="white" stroke="#666666" points="827.75,-142 704.5,-142 704.5,-122 827.75,-122 827.75,-142"/>
<text xml:space="preserve" text-anchor="middle" x="766.12" y="-128.5" font-family="Helvetica,sans-Serif" font-size="10.00">FCaptureRequest::Make</text>
</a>
</g>
</g>
<!-- Node10&#45;&gt;Node11 -->
<g id="edge11_Node000010_Node000011" class="edge">
<title>Node10&#45;&gt;Node11</title>
<g id="a_edge11_Node000010_Node000011"><a xlink:title=" ">
<path fill="none" stroke="#63b8ff" d="M633.6,-139.08C652.13,-138.08 673.16,-136.95 692.88,-135.89"/>
<polygon fill="#63b8ff" stroke="#63b8ff" points="693,-139.39 702.8,-135.36 692.63,-132.4 693,-139.39"/>
</a>
</g>
</g>
<!-- Node12 -->
<g id="Node000012" class="node">
<title>Node12</title>
<g id="a_Node000012"><a xlink:href="struct_f_capture_request.html#ae828b8d1f7d31ecf6e4669f223f1ec5d" target="_top" xlink:title=" ">
<polygon fill="white" stroke="#666666" points="1009.5,-104 869.75,-104 869.75,-72 1009.5,-72 1009.5,-104"/>
<text xml:space="preserve" text-anchor="start" x="877.75" y="-90.5" font-family="Helvetica,sans-Serif" font-size="10.00">FCaptureRequest::FCapture</text>
<text xml:space="preserve" text-anchor="middle" x="939.62" y="-78.5" font-family="Helvetica,sans-Serif" font-size="10.00">Request</text>
</a>
</g>
</g>
<!-- Node11&#45;&gt;Node12 -->
<g id="edge12_Node000011_Node000012" class="edge">
<title>Node11&#45;&gt;Node12</title>
<g id="a_edge12_Node000011_Node000012"><a xlink:title=" ">
<path fill="none" stroke="#63b8ff" d="M807.77,-121.57C824.41,-117.3 844.22,-112.22 863.33,-107.32"/>
<polygon fill="#63b8ff" stroke="#63b8ff" points="864.19,-110.71 873.01,-104.83 862.45,-103.93 864.19,-110.71"/>
</a>
</g>
</g>
<!-- Node13&#45;&gt;Node7 -->
<g id="edge17_Node000013_Node000007" class="edge">
<title>Node13&#45;&gt;Node7</title>
<g id="a_edge17_Node000013_Node000007"><a xlink:title=" ">
<path fill="none" stroke="#63b8ff" d="M633.55,-313.52C697.7,-305.84 804.49,-293.05 873.2,-284.83"/>
<polygon fill="#63b8ff" stroke="#63b8ff" points="873.29,-288.35 882.8,-283.68 872.46,-281.39 873.29,-288.35"/>
</a>
</g>
</g>
<!-- Node14 -->
<g id="Node000014" class="node">
<title>Node14</title>
<g id="a_Node000014"><a xlink:href="class_u_irradiance_scheduler.html#ac09bb9a1d345e452696d7fab17cd0fa0" target="_top" xlink:title="Forces a square viewport suitable for the simulation/capture.">
<polygon fill="white" stroke="#666666" points="821,-356 711.25,-356 711.25,-324 821,-324 821,-356"/>
<text xml:space="preserve" text-anchor="start" x="719.25" y="-342.5" font-family="Helvetica,sans-Serif" font-size="10.00">UIrradianceScheduler</text>
<text xml:space="preserve" text-anchor="middle" x="766.12" y="-330.5" font-family="Helvetica,sans-Serif" font-size="10.00">::ApplyViewport</text>
</a>
</g>
</g>
<!-- Node13&#45;&gt;Node14 -->
<g id="edge14_Node000013_Node000014" class="edge">
<title>Node13&#45;&gt;Node14</title>
<g id="a_edge14_Node000013_Node000014"><a xlink:title=" ">
<path fill="none" stroke="#63b8ff" d="M633.6,-325.84C654.21,-328.06 677.9,-330.61 699.45,-332.93"/>
<polygon fill="#63b8ff" stroke="#63b8ff" points="699.01,-336.4 709.33,-333.99 699.76,-329.44 699.01,-336.4"/>
</a>
</g>
</g>
<!-- Node15 -->
<g id="Node000015" class="node">
<title>Node15</title>
<g id="a_Node000015"><a xlink:href="class_u_irradiance_scheduler.html#aa40d1480cbc21302196ae1fc097457b7" target="_top" xlink:title="Applies static SunSky configuration (lat/lon/timezone/northoffset).">
<polygon fill="white" stroke="#666666" points="827,-406 705.25,-406 705.25,-374 827,-374 827,-406"/>
<text xml:space="preserve" text-anchor="start" x="713.25" y="-392.5" font-family="Helvetica,sans-Serif" font-size="10.00">UIrradianceScheduler</text>
<text xml:space="preserve" text-anchor="middle" x="766.12" y="-380.5" font-family="Helvetica,sans-Serif" font-size="10.00">::ConfigureSunSkyOnce</text>
</a>
</g>
</g>
<!-- Node13&#45;&gt;Node15 -->
<g id="edge16_Node000013_Node000015" class="edge">
<title>Node13&#45;&gt;Node15</title>
<g id="a_edge16_Node000013_Node000015"><a xlink:title=" ">
<path fill="none" stroke="#63b8ff" d="M622.93,-336.48C645.48,-345.01 673.47,-355.57 698.5,-365 702.55,-366.52 706.73,-368.1 710.94,-369.68"/>
<polygon fill="#63b8ff" stroke="#63b8ff" points="709.39,-372.84 719.98,-373.08 711.85,-366.28 709.39,-372.84"/>
</a>
</g>
</g>
<!-- Node16 -->
<g id="Node000016" class="node">
<title>Node16</title>
<g id="a_Node000016"><a xlink:href="class_u_irradiance_scheduler.html#aebff31185ed2941c1c7abcc423e1b25a" target="_top" xlink:title="Sets the SunSky UTC time.">
<polygon fill="white" stroke="#666666" points="821,-192 711.25,-192 711.25,-160 821,-160 821,-192"/>
<text xml:space="preserve" text-anchor="start" x="719.25" y="-178.5" font-family="Helvetica,sans-Serif" font-size="10.00">UIrradianceScheduler</text>
<text xml:space="preserve" text-anchor="middle" x="766.12" y="-166.5" font-family="Helvetica,sans-Serif" font-size="10.00">::SetSunSkyUTC</text>
</a>
</g>
</g>
<!-- Node13&#45;&gt;Node16 -->
<g id="edge18_Node000013_Node000016" class="edge">
<title>Node13&#45;&gt;Node16</title>
<g id="a_edge18_Node000013_Node000016"><a xlink:title=" ">
<path fill="none" stroke="#63b8ff" d="M626.58,-303.51C639.41,-297.34 652.5,-289.26 662.5,-279 689.15,-251.66 670.53,-226.99 698.5,-201 699.54,-200.03 700.63,-199.1 701.75,-198.2"/>
<polygon fill="#63b8ff" stroke="#63b8ff" points="703.36,-201.34 709.68,-192.83 699.43,-195.54 703.36,-201.34"/>
</a>
</g>
</g>
<!-- Node14&#45;&gt;Node7 -->
<g id="edge15_Node000014_Node000007" class="edge">
<title>Node14&#45;&gt;Node7</title>
<g id="a_edge15_Node000014_Node000007"><a xlink:title=" ">
<path fill="none" stroke="#63b8ff" d="M811.74,-323.61C833.58,-315.59 860.1,-305.85 883.23,-297.35"/>
<polygon fill="#63b8ff" stroke="#63b8ff" points="884.34,-300.67 892.52,-293.94 881.92,-294.1 884.34,-300.67"/>
</a>
</g>
</g>
<!-- Node17&#45;&gt;Node3 -->
<g id="edge22_Node000017_Node000003" class="edge">
<title>Node17&#45;&gt;Node3</title>
<g id="a_edge22_Node000017_Node000003"><a xlink:title=" ">
<path fill="none" stroke="#63b8ff" d="M267.6,-200.29C282.56,-204.24 298.95,-208.58 314.48,-212.69"/>
<polygon fill="#63b8ff" stroke="#63b8ff" points="313.57,-216.07 324.14,-215.25 315.37,-209.31 313.57,-216.07"/>
</a>
</g>
</g>
<!-- Node17&#45;&gt;Node4 -->
<g id="edge23_Node000017_Node000004" class="edge">
<title>Node17&#45;&gt;Node4</title>
<g id="a_edge23_Node000017_Node000004"><a xlink:title=" ">
<path fill="none" stroke="#63b8ff" d="M230.97,-202.22C248.22,-217.61 276.01,-240.49 303.5,-255 307.17,-256.94 311.02,-258.76 314.96,-260.47"/>
<polygon fill="#63b8ff" stroke="#63b8ff" points="313.53,-263.67 324.11,-264.17 316.15,-257.18 313.53,-263.67"/>
</a>
</g>
</g>
<!-- Node17&#45;&gt;Node9 -->
<g id="edge34_Node000017_Node000009" class="edge">
<title>Node17&#45;&gt;Node9</title>
<g id="a_edge34_Node000017_Node000009"><a xlink:title=" ">
<path fill="none" stroke="#63b8ff" d="M220.06,-169.86C231.88,-142.7 259.93,-88.69 303.5,-67 435.35,-1.35 615.51,-40.66 706.87,-68.15"/>
<polygon fill="#63b8ff" stroke="#63b8ff" points="705.8,-71.49 716.38,-71.08 707.85,-64.8 705.8,-71.49"/>
</a>
</g>
</g>
<!-- Node17&#45;&gt;Node13 -->
<g id="edge33_Node000017_Node000013" class="edge">
<title>Node17&#45;&gt;Node13</title>
<g id="a_edge33_Node000017_Node000013"><a xlink:title=" ">
<path fill="none" stroke="#63b8ff" d="M267.76,-175.76C320.95,-168.8 402.09,-166.76 458.25,-205 488.48,-225.58 468.46,-253.07 494.25,-279 501.83,-286.62 511.11,-293.06 520.7,-298.41"/>
<polygon fill="#63b8ff" stroke="#63b8ff" points="518.89,-301.42 529.39,-302.9 522.11,-295.2 518.89,-301.42"/>
</a>
</g>
</g>
<!-- Node18 -->
<g id="Node000018" class="node">
<title>Node18</title>
<g id="a_Node000018"><a xlink:href="class_u_irradiance_scheduler.html#add9a4a7b65080ccec4fd8a9546fe215f" target="_top" xlink:title="Builds the list of time slots between StartUTC and EndUTC (inclusive).">
<polygon fill="white" stroke="#666666" points="435.75,-158 326,-158 326,-126 435.75,-126 435.75,-158"/>
<text xml:space="preserve" text-anchor="start" x="334" y="-144.5" font-family="Helvetica,sans-Serif" font-size="10.00">UIrradianceScheduler</text>
<text xml:space="preserve" text-anchor="middle" x="380.88" y="-132.5" font-family="Helvetica,sans-Serif" font-size="10.00">::BuildTimeSlots</text>
</a>
</g>
</g>
<!-- Node17&#45;&gt;Node18 -->
<g id="edge21_Node000017_Node000018" class="edge">
<title>Node17&#45;&gt;Node18</title>
<g id="a_edge21_Node000017_Node000018"><a xlink:title=" ">
<path fill="none" stroke="#63b8ff" d="M267.6,-171.71C282.56,-167.76 298.95,-163.42 314.48,-159.31"/>
<polygon fill="#63b8ff" stroke="#63b8ff" points="315.37,-162.69 324.14,-156.75 313.57,-155.93 315.37,-162.69"/>
</a>
</g>
</g>
<!-- Node19 -->
<g id="Node000019" class="node">
<title>Node19</title>
<g id="a_Node000019"><a xlink:href="class_u_irradiance_scheduler.html#a2c93371fc51e45b8af73ce9b4d2c690a" target="_top" xlink:title="Launches the next capture for the current time slot and sensor index.">
<polygon fill="white" stroke="#666666" points="458.25,-108 303.5,-108 303.5,-76 458.25,-76 458.25,-108"/>
<text xml:space="preserve" text-anchor="start" x="311.5" y="-94.5" font-family="Helvetica,sans-Serif" font-size="10.00">UIrradianceScheduler</text>
<text xml:space="preserve" text-anchor="middle" x="380.88" y="-82.5" font-family="Helvetica,sans-Serif" font-size="10.00">::LaunchNextSimulationCapture</text>
</a>
</g>
</g>
<!-- Node17&#45;&gt;Node19 -->
<g id="edge24_Node000017_Node000019" class="edge">
<title>Node17&#45;&gt;Node19</title>
<g id="a_edge24_Node000017_Node000019"><a xlink:title=" ">
<path fill="none" stroke="#63b8ff" d="M230.97,-169.78C248.22,-154.39 276.01,-131.51 303.5,-117 306.33,-115.5 309.27,-114.08 312.28,-112.71"/>
<polygon fill="#63b8ff" stroke="#63b8ff" points="313.42,-116.03 321.29,-108.93 310.71,-109.58 313.42,-116.03"/>
</a>
</g>
</g>
<!-- Node19&#45;&gt;Node6 -->
<g id="edge29_Node000019_Node000006" class="edge">
<title>Node19&#45;&gt;Node6</title>
<g id="a_edge29_Node000019_Node000006"><a xlink:title=" ">
<path fill="none" stroke="#63b8ff" d="M443.62,-108.32C448.78,-110.83 453.75,-113.71 458.25,-117 480.35,-133.17 476.75,-145.94 494.25,-167 512.72,-189.23 535.51,-212.84 552.55,-229.85"/>
<polygon fill="#63b8ff" stroke="#63b8ff" points="549.77,-232.02 559.33,-236.57 554.69,-227.05 549.77,-232.02"/>
</a>
</g>
</g>
<!-- Node19&#45;&gt;Node10 -->
<g id="edge30_Node000019_Node000010" class="edge">
<title>Node19&#45;&gt;Node10</title>
<g id="a_edge30_Node000019_Node000010"><a xlink:title=" ">
<path fill="none" stroke="#63b8ff" d="M446.16,-108.44C467.39,-113.87 491.01,-119.91 512.3,-125.36"/>
<polygon fill="#63b8ff" stroke="#63b8ff" points="511.17,-128.68 521.73,-127.77 512.91,-121.9 511.17,-128.68"/>
</a>
</g>
</g>
<!-- Node20 -->
<g id="Node000020" class="node">
<title>Node20</title>
<g id="a_Node000020"><a xlink:href="class_u_irradiance_scheduler.html#ab400b6f7f8c6768537088d0eca221f90" target="_top" xlink:title="Advances to the next time slot, or finalizes the simulation if finished.">
<polygon fill="white" stroke="#666666" points="646.38,-108 510.38,-108 510.38,-76 646.38,-76 646.38,-108"/>
<text xml:space="preserve" text-anchor="start" x="518.38" y="-94.5" font-family="Helvetica,sans-Serif" font-size="10.00">UIrradianceScheduler</text>
<text xml:space="preserve" text-anchor="middle" x="578.38" y="-82.5" font-family="Helvetica,sans-Serif" font-size="10.00">::AdvanceTimeSlotOrFinish</text>
</a>
</g>
</g>
<!-- Node19&#45;&gt;Node20 -->
<g id="edge25_Node000019_Node000020" class="edge">
<title>Node19&#45;&gt;Node20</title>
<g id="a_edge25_Node000019_Node000020"><a xlink:title=" ">
<path fill="none" stroke="#63b8ff" d="M458.58,-85.39C471.74,-85.21 485.42,-85.2 498.63,-85.36"/>
<polygon fill="#63b8ff" stroke="#63b8ff" points="498.52,-88.86 508.58,-85.53 498.63,-81.86 498.52,-88.86"/>
</a>
</g>
</g>
<!-- Node21 -->
<g id="Node000021" class="node">
<title>Node21</title>
<g id="a_Node000021"><a xlink:href="struct_f_capture_request.html#a5283a5b56514b3ae55663480e05d7980" target="_top" xlink:title=" ">
<polygon fill="white" stroke="#666666" points="662.5,-20 494.25,-20 494.25,0 662.5,0 662.5,-20"/>
<text xml:space="preserve" text-anchor="middle" x="578.38" y="-6.5" font-family="Helvetica,sans-Serif" font-size="10.00">FCaptureRequest::WithTimestamp</text>
</a>
</g>
</g>
<!-- Node19&#45;&gt;Node21 -->
<g id="edge31_Node000019_Node000021" class="edge">
<title>Node19&#45;&gt;Node21</title>
<g id="a_edge31_Node000019_Node000021"><a xlink:title=" ">
<path fill="none" stroke="#63b8ff" d="M420.97,-75.6C456.36,-60.76 508.03,-39.08 542.17,-24.77"/>
<polygon fill="#63b8ff" stroke="#63b8ff" points="543.33,-28.08 551.19,-20.98 540.62,-21.62 543.33,-28.08"/>
</a>
</g>
</g>
<!-- Node20&#45;&gt;Node9 -->
<g id="edge27_Node000020_Node000009" class="edge">
<title>Node20&#45;&gt;Node9</title>
<g id="a_edge27_Node000020_Node000009"><a xlink:title=" ">
<path fill="none" stroke="#63b8ff" d="M646.7,-90.55C663.99,-90.18 682.56,-89.78 699.75,-89.41"/>
<polygon fill="#63b8ff" stroke="#63b8ff" points="699.38,-92.92 709.3,-89.2 699.23,-85.92 699.38,-92.92"/>
</a>
</g>
</g>
<!-- Node20&#45;&gt;Node16 -->
<g id="edge28_Node000020_Node000016" class="edge">
<title>Node20&#45;&gt;Node16</title>
<g id="a_edge28_Node000020_Node000016"><a xlink:title=" ">
<path fill="none" stroke="#63b8ff" d="M644.6,-108.38C650.82,-110.89 656.89,-113.75 662.5,-117 681.55,-128.02 679.83,-139.35 698.5,-151 700.39,-152.18 702.34,-153.31 704.33,-154.41"/>
<polygon fill="#63b8ff" stroke="#63b8ff" points="702.75,-157.53 713.26,-158.85 705.87,-151.26 702.75,-157.53"/>
</a>
</g>
</g>
<!-- Node20&#45;&gt;Node19 -->
<g id="edge26_Node000020_Node000019" class="edge">
<title>Node20&#45;&gt;Node19</title>
<g id="a_edge26_Node000020_Node000019"><a xlink:title=" ">
<path fill="none" stroke="#63b8ff" d="M510.09,-98.45C497.12,-98.71 483.36,-98.8 469.85,-98.72"/>
<polygon fill="#63b8ff" stroke="#63b8ff" points="470.13,-95.22 460.09,-98.62 470.06,-102.22 470.13,-95.22"/>
</a>
</g>
</g>
<!-- Node21&#45;&gt;Node12 -->
<g id="edge32_Node000021_Node000012" class="edge">
<title>Node21&#45;&gt;Node12</title>
<g id="a_edge32_Node000021_Node000012"><a xlink:title=" ">
<path fill="none" stroke="#63b8ff" d="M631.6,-20.43C683.09,-30.81 763.97,-47.42 833.75,-63 842.16,-64.88 850.94,-66.89 859.69,-68.93"/>
<polygon fill="#63b8ff" stroke="#63b8ff" points="858.7,-72.29 869.24,-71.17 860.3,-65.48 858.7,-72.29"/>
</a>
</g>
</g>
</g>
</svg>
