<?xml version="1.0" encoding="UTF-8" standalone="no"?>
<!DOCTYPE svg PUBLIC "-//W3C//DTD SVG 1.1//EN"
 "http://www.w3.org/Graphics/SVG/1.1/DTD/svg11.dtd">
<!-- Generated by graphviz version 14.1.0 (20251206.1807)
 -->
<!-- Title: UPyranoEditorSubsystem::OnEndPIE Pages: 1 -->
<svg width="303pt" height="90pt"
 viewBox="0.00 0.00 303.00 90.00" xmlns="http://www.w3.org/2000/svg" xmlns:xlink="http://www.w3.org/1999/xlink">
<g id="graph0" class="graph" transform="scale(1 1) rotate(0) translate(4 86)">
<title>UPyranoEditorSubsystem::OnEndPIE</title>
<!-- Node1 -->
<g id="Node000001" class="node">
<title>Node1</title>
<g id="a_Node000001"><a xlink:title="Internal callback executed when PIE ends.">
<polygon fill="#999999" stroke="#666666" points="129.25,-57 0,-57 0,-25 129.25,-25 129.25,-57"/>
<text xml:space="preserve" text-anchor="start" x="8" y="-43.5" font-family="Helvetica,sans-Serif" font-size="10.00">UPyranoEditorSubsystem</text>
<text xml:space="preserve" text-anchor="middle" x="64.62" y="-31.5" font-family="Helvetica,sans-Serif" font-size="10.00">::OnEndPIE</text>
</a>
</g>
</g>
<!-- Node2 -->
<g id="Node000002" class="node">
<title>Node2</title>
<g id="a_Node000002"><a xlink:href="class_u_pyrano_editor_subsystem.html#a2adad0d3fd5864acbe4205b167cf4937" target="_top" xlink:title="Returns the PIE world if running, otherwise the editor world.">
<polygon fill="white" stroke="#666666" points="294.5,-82 165.25,-82 165.25,-50 294.5,-50 294.5,-82"/>
<text xml:space="preserve" text-anchor="start" x="173.25" y="-68.5" font-family="Helvetica,sans-Serif" font-size="10.00">UPyranoEditorSubsystem</text>
<text xml:space="preserve" text-anchor="middle" x="229.88" y="-56.5" font-family="Helvetica,sans-Serif" font-size="10.00">::GetActiveWorld</text>
</a>
</g>
</g>
<!-- Node1&#45;&gt;Node2 -->
<g id="edge1_Node000001_Node000002" class="edge">
<title>Node1&#45;&gt;Node2</title>
<g id="a_edge1_Node000001_Node000002"><a xlink:title=" ">
<path fill="none" stroke="#63b8ff" d="M129.68,-50.81C137.57,-52.02 145.69,-53.26 153.73,-54.49"/>
<polygon fill="#63b8ff" stroke="#63b8ff" points="153.1,-57.94 163.51,-55.99 154.16,-51.02 153.1,-57.94"/>
</a>
</g>
</g>
<!-- Node3 -->
<g id="Node000003" class="node">
<title>Node3</title>
<g id="a_Node000003"><a xlink:href="namespace_f_irradiance_render_config.html#ad773a5b70d7c97b6076f1188cb90ab33" target="_top" xlink:title=" ">
<polygon fill="white" stroke="#666666" points="293.75,-32 166,-32 166,0 293.75,0 293.75,-32"/>
<text xml:space="preserve" text-anchor="start" x="174" y="-18.5" font-family="Helvetica,sans-Serif" font-size="10.00">FIrradianceRenderConfig</text>
<text xml:space="preserve" text-anchor="middle" x="229.88" y="-6.5" font-family="Helvetica,sans-Serif" font-size="10.00">::RestoreIrradianceConfig</text>
</a>
</g>
</g>
<!-- Node1&#45;&gt;Node3 -->
<g id="edge2_Node000001_Node000003" class="edge">
<title>Node1&#45;&gt;Node3</title>
<g id="a_edge2_Node000001_Node000003"><a xlink:title=" ">
<path fill="none" stroke="#63b8ff" d="M129.68,-31.19C137.78,-29.95 146.13,-28.67 154.38,-27.41"/>
<polygon fill="#63b8ff" stroke="#63b8ff" points="154.69,-30.9 164.05,-25.93 153.63,-23.98 154.69,-30.9"/>
</a>
</g>
</g>
</g>
</svg>
