<?xml version="1.0" encoding="UTF-8" standalone="no"?>
<!DOCTYPE svg PUBLIC "-//W3C//DTD SVG 1.1//EN"
 "http://www.w3.org/Graphics/SVG/1.1/DTD/svg11.dtd">
<!-- Generated by graphviz version 14.1.0 (20251206.1807)
 -->
<!-- Title: UIrradianceExporter::EnqueueFaceEXR Pages: 1 -->
<svg width="272pt" height="90pt"
 viewBox="0.00 0.00 272.00 90.00" xmlns="http://www.w3.org/2000/svg" xmlns:xlink="http://www.w3.org/1999/xlink">
<g id="graph0" class="graph" transform="scale(1 1) rotate(0) translate(4 86)">
<title>UIrradianceExporter::EnqueueFaceEXR</title>
<!-- Node1 -->
<g id="Node000001" class="node">
<title>Node1</title>
<g id="a_Node000001"><a xlink:title="Image export.">
<polygon fill="#999999" stroke="#666666" points="103,-57 0,-57 0,-25 103,-25 103,-57"/>
<text xml:space="preserve" text-anchor="start" x="8" y="-43.5" font-family="Helvetica,sans-Serif" font-size="10.00">UIrradianceExporter</text>
<text xml:space="preserve" text-anchor="middle" x="51.5" y="-31.5" font-family="Helvetica,sans-Serif" font-size="10.00">::EnqueueFaceEXR</text>
</a>
</g>
</g>
<!-- Node2 -->
<g id="Node000002" class="node">
<title>Node2</title>
<g id="a_Node000002"><a xlink:href="class_u_irradiance_exporter.html#af2645a4848f14ee445784cdbf0b2310a" target="_top" xlink:title="Returns a short name for a cubemap face (PosX, NegX...).">
<polygon fill="white" stroke="#666666" points="252.88,-82 149.88,-82 149.88,-50 252.88,-50 252.88,-82"/>
<text xml:space="preserve" text-anchor="start" x="157.88" y="-68.5" font-family="Helvetica,sans-Serif" font-size="10.00">UIrradianceExporter</text>
<text xml:space="preserve" text-anchor="middle" x="201.38" y="-56.5" font-family="Helvetica,sans-Serif" font-size="10.00">::FaceToString</text>
</a>
</g>
</g>
<!-- Node1&#45;&gt;Node2 -->
<g id="edge1_Node000001_Node000002" class="edge">
<title>Node1&#45;&gt;Node2</title>
<g id="a_edge1_Node000001_Node000002"><a xlink:title=" ">
<path fill="none" stroke="#63b8ff" d="M103.39,-49.6C114.66,-51.51 126.72,-53.55 138.38,-55.52"/>
<polygon fill="#63b8ff" stroke="#63b8ff" points="137.46,-58.91 147.9,-57.13 138.62,-52.01 137.46,-58.91"/>
</a>
</g>
</g>
<!-- Node3 -->
<g id="Node000003" class="node">
<title>Node3</title>
<g id="a_Node000003"><a xlink:href="class_u_irradiance_exporter.html#a2495f1384be3c6e942a88efe5616e94a" target="_top" xlink:title="Formats UTC as a compact timestamp for export.">
<polygon fill="white" stroke="#666666" points="263.75,-32 139,-32 139,0 263.75,0 263.75,-32"/>
<text xml:space="preserve" text-anchor="start" x="147" y="-18.5" font-family="Helvetica,sans-Serif" font-size="10.00">UIrradianceExporter</text>
<text xml:space="preserve" text-anchor="middle" x="201.38" y="-6.5" font-family="Helvetica,sans-Serif" font-size="10.00">::MakeTimestampForFile</text>
</a>
</g>
</g>
<!-- Node1&#45;&gt;Node3 -->
<g id="edge2_Node000001_Node000003" class="edge">
<title>Node1&#45;&gt;Node3</title>
<g id="a_edge2_Node000001_Node000003"><a xlink:title=" ">
<path fill="none" stroke="#63b8ff" d="M103.39,-32.4C111.2,-31.08 119.39,-29.69 127.57,-28.31"/>
<polygon fill="#63b8ff" stroke="#63b8ff" points="127.9,-31.8 137.17,-26.68 126.73,-24.9 127.9,-31.8"/>
</a>
</g>
</g>
</g>
</svg>
