<?xml version="1.0" encoding="UTF-8" standalone="no"?>
<!DOCTYPE svg PUBLIC "-//W3C//DTD SVG 1.1//EN"
 "http://www.w3.org/Graphics/SVG/1.1/DTD/svg11.dtd">
<!-- Generated by graphviz version 14.1.0 (20251206.1807)
 -->
<!-- Title: UPyranoEditorSubsystem::GetActiveWorld Pages: 1 -->
<svg width="976pt" height="272pt"
 viewBox="0.00 0.00 976.00 272.00" xmlns="http://www.w3.org/2000/svg" xmlns:xlink="http://www.w3.org/1999/xlink">
<g id="graph0" class="graph" transform="scale(1 1) rotate(0) translate(4 268)">
<title>UPyranoEditorSubsystem::GetActiveWorld</title>
<!-- Node1 -->
<g id="Node000001" class="node">
<title>Node1</title>
<g id="a_Node000001"><a xlink:title="Returns the PIE world if running, otherwise the editor world.">
<polygon fill="#999999" stroke="#666666" points="967.5,-142 838.25,-142 838.25,-110 967.5,-110 967.5,-142"/>
<text xml:space="preserve" text-anchor="start" x="846.25" y="-128.5" font-family="Helvetica,sans-Serif" font-size="10.00">UPyranoEditorSubsystem</text>
<text xml:space="preserve" text-anchor="middle" x="902.88" y="-116.5" font-family="Helvetica,sans-Serif" font-size="10.00">::GetActiveWorld</text>
</a>
</g>
</g>
<!-- Node2 -->
<g id="Node000002" class="node">
<title>Node2</title>
<g id="a_Node000002"><a xlink:href="class_u_pyrano_editor_subsystem.html#accb819699174d7a462e7e914047f5c28" target="_top" xlink:title=" ">
<polygon fill="white" stroke="#666666" points="637,-264 507.75,-264 507.75,-232 637,-232 637,-264"/>
<text xml:space="preserve" text-anchor="start" x="515.75" y="-250.5" font-family="Helvetica,sans-Serif" font-size="10.00">UPyranoEditorSubsystem</text>
<text xml:space="preserve" text-anchor="middle" x="572.38" y="-238.5" font-family="Helvetica,sans-Serif" font-size="10.00">::Deinitialize</text>
</a>
</g>
</g>
<!-- Node1&#45;&gt;Node2 -->
<g id="edge1_Node000001_Node000002" class="edge">
<title>Node1&#45;&gt;Node2</title>
<g id="a_edge1_Node000001_Node000002"><a xlink:title=" ">
<path fill="none" stroke="#63b8ff" d="M883.65,-151.6C865.76,-174.54 836.26,-206.97 802.25,-223 750.36,-247.45 684.73,-252.35 637.07,-251.93"/>
<polygon fill="#63b8ff" stroke="#63b8ff" points="886.44,-153.72 889.68,-143.63 880.86,-149.5 886.44,-153.72"/>
</a>
</g>
</g>
<!-- Node4 -->
<g id="Node000004" class="node">
<title>Node4</title>
<g id="a_Node000004"><a xlink:href="class_u_pyrano_editor_subsystem.html#ac3e1f1b78bd830e95a7b52fc3bff7ed9" target="_top" xlink:title="Ensures that the PIE world exists and is ready; retries if not.">
<polygon fill="white" stroke="#666666" points="802.25,-214 673,-214 673,-182 802.25,-182 802.25,-214"/>
<text xml:space="preserve" text-anchor="start" x="681" y="-200.5" font-family="Helvetica,sans-Serif" font-size="10.00">UPyranoEditorSubsystem</text>
<text xml:space="preserve" text-anchor="middle" x="737.62" y="-188.5" font-family="Helvetica,sans-Serif" font-size="10.00">::EnsurePIEWorld</text>
</a>
</g>
</g>
<!-- Node1&#45;&gt;Node4 -->
<g id="edge3_Node000001_Node000004" class="edge">
<title>Node1&#45;&gt;Node4</title>
<g id="a_edge3_Node000001_Node000004"><a xlink:title=" ">
<path fill="none" stroke="#63b8ff" d="M858.11,-147.42C840.82,-155.67 820.72,-165.03 802.25,-173 795.6,-175.87 788.51,-178.79 781.56,-181.58"/>
<polygon fill="#63b8ff" stroke="#63b8ff" points="859.6,-150.58 867.1,-143.1 856.57,-144.27 859.6,-150.58"/>
</a>
</g>
</g>
<!-- Node10 -->
<g id="Node000010" class="node">
<title>Node10</title>
<g id="a_Node000010"><a xlink:href="class_u_pyrano_editor_subsystem.html#a1b69ad32d7aad1655e600c9802b7ef9d" target="_top" xlink:title="Internal callback executed when PIE ends.">
<polygon fill="white" stroke="#666666" points="802.25,-164 673,-164 673,-132 802.25,-132 802.25,-164"/>
<text xml:space="preserve" text-anchor="start" x="681" y="-150.5" font-family="Helvetica,sans-Serif" font-size="10.00">UPyranoEditorSubsystem</text>
<text xml:space="preserve" text-anchor="middle" x="737.62" y="-138.5" font-family="Helvetica,sans-Serif" font-size="10.00">::OnEndPIE</text>
</a>
</g>
</g>
<!-- Node1&#45;&gt;Node10 -->
<g id="edge13_Node000001_Node000010" class="edge">
<title>Node1&#45;&gt;Node10</title>
<g id="a_edge13_Node000001_Node000010"><a xlink:title=" ">
<path fill="none" stroke="#63b8ff" d="M826.54,-136.15C818.5,-137.24 810.38,-138.33 802.49,-139.39"/>
<polygon fill="#63b8ff" stroke="#63b8ff" points="826.88,-139.64 836.32,-134.83 825.94,-132.7 826.88,-139.64"/>
</a>
</g>
</g>
<!-- Node11 -->
<g id="Node000011" class="node">
<title>Node11</title>
<g id="a_Node000011"><a xlink:href="class_u_pyrano_editor_subsystem.html#a1e18df0b1f82756989cd7cf5f6c15386" target="_top" xlink:title="Returns all pyranometer sensors in the level (filtered by enabled state).">
<polygon fill="white" stroke="#666666" points="471.75,-120 342.5,-120 342.5,-88 471.75,-88 471.75,-120"/>
<text xml:space="preserve" text-anchor="start" x="350.5" y="-106.5" font-family="Helvetica,sans-Serif" font-size="10.00">UPyranoEditorSubsystem</text>
<text xml:space="preserve" text-anchor="middle" x="407.12" y="-94.5" font-family="Helvetica,sans-Serif" font-size="10.00">::QuerySensors</text>
</a>
</g>
</g>
<!-- Node1&#45;&gt;Node11 -->
<g id="edge15_Node000001_Node000011" class="edge">
<title>Node1&#45;&gt;Node11</title>
<g id="a_edge15_Node000001_Node000011"><a xlink:title=" ">
<path fill="none" stroke="#63b8ff" d="M826.37,-122.64C729.46,-118.32 563.01,-110.9 472.05,-106.85"/>
<polygon fill="#63b8ff" stroke="#63b8ff" points="826.17,-126.13 836.32,-123.08 826.49,-119.14 826.17,-126.13"/>
</a>
</g>
</g>
<!-- Node12 -->
<g id="Node000012" class="node">
<title>Node12</title>
<g id="a_Node000012"><a xlink:href="class_u_pyrano_editor_subsystem.html#a22e33d28e9d2341cc24463f718f9943a" target="_top" xlink:title="Enables or disables a pyranometer sensor by GUID.">
<polygon fill="white" stroke="#666666" points="637,-76 507.75,-76 507.75,-44 637,-44 637,-76"/>
<text xml:space="preserve" text-anchor="start" x="515.75" y="-62.5" font-family="Helvetica,sans-Serif" font-size="10.00">UPyranoEditorSubsystem</text>
<text xml:space="preserve" text-anchor="middle" x="572.38" y="-50.5" font-family="Helvetica,sans-Serif" font-size="10.00">::SetSensorEnabled</text>
</a>
</g>
</g>
<!-- Node1&#45;&gt;Node12 -->
<g id="edge17_Node000001_Node000012" class="edge">
<title>Node1&#45;&gt;Node12</title>
<g id="a_edge17_Node000001_Node000012"><a xlink:title=" ">
<path fill="none" stroke="#63b8ff" d="M852.16,-105.65C836.42,-99.85 818.8,-94.02 802.25,-90 747.34,-76.65 683.49,-68.9 637.2,-64.64"/>
<polygon fill="#63b8ff" stroke="#63b8ff" points="850.72,-108.84 861.31,-109.1 853.19,-102.29 850.72,-108.84"/>
</a>
</g>
</g>
<!-- Node13 -->
<g id="Node000013" class="node">
<title>Node13</title>
<g id="a_Node000013"><a xlink:href="class_u_pyrano_editor_subsystem.html#aff2465394f6335550f1ee02a6725e648" target="_top" xlink:title="Validates a full simulation configuration and returns a detailed result.">
<polygon fill="white" stroke="#666666" points="306.5,-32 177.25,-32 177.25,0 306.5,0 306.5,-32"/>
<text xml:space="preserve" text-anchor="start" x="185.25" y="-18.5" font-family="Helvetica,sans-Serif" font-size="10.00">UPyranoEditorSubsystem</text>
<text xml:space="preserve" text-anchor="middle" x="241.88" y="-6.5" font-family="Helvetica,sans-Serif" font-size="10.00">::ValidateConfig</text>
</a>
</g>
</g>
<!-- Node1&#45;&gt;Node13 -->
<g id="edge19_Node000001_Node000013" class="edge">
<title>Node1&#45;&gt;Node13</title>
<g id="a_edge19_Node000001_Node000013"><a xlink:title=" ">
<path fill="none" stroke="#63b8ff" d="M871.26,-103.13C852.3,-90.05 826.94,-74.42 802.25,-65 632.38,-0.19 413.14,-3.8 306.61,-10.54"/>
<polygon fill="#63b8ff" stroke="#63b8ff" points="869.13,-105.91 879.31,-108.82 873.16,-100.19 869.13,-105.91"/>
</a>
</g>
</g>
<!-- Node3 -->
<g id="Node000003" class="node">
<title>Node3</title>
<g id="a_Node000003"><a xlink:href="class_u_pyrano_editor_subsystem.html#a66b820c9aae05fb59340fae1abe43379" target="_top" xlink:title=" ">
<polygon fill="white" stroke="#666666" points="141.25,-139 0,-139 0,-107 141.25,-107 141.25,-139"/>
<text xml:space="preserve" text-anchor="start" x="8" y="-125.5" font-family="Helvetica,sans-Serif" font-size="10.00">UPyranoEditorSubsystem</text>
<text xml:space="preserve" text-anchor="middle" x="70.62" y="-113.5" font-family="Helvetica,sans-Serif" font-size="10.00">::~UPyranoEditorSubsystem</text>
</a>
</g>
</g>
<!-- Node2&#45;&gt;Node3 -->
<g id="edge2_Node000002_Node000003" class="edge">
<title>Node2&#45;&gt;Node3</title>
<g id="a_edge2_Node000002_Node000003"><a xlink:title=" ">
<path fill="none" stroke="#63b8ff" d="M495.8,-256.96C413.81,-263.49 280.78,-264.62 177.25,-220 136.32,-202.36 100.99,-161.97 83.44,-139.26"/>
<polygon fill="#63b8ff" stroke="#63b8ff" points="496.09,-260.45 505.76,-256.11 495.5,-253.47 496.09,-260.45"/>
</a>
</g>
</g>
<!-- Node5 -->
<g id="Node000005" class="node">
<title>Node5</title>
<g id="a_Node000005"><a xlink:href="class_u_pyrano_editor_subsystem.html#ae6108e9fda1f9471c24a39988d5122d6" target="_top" xlink:title="Internal callback executed once PIE has fully started.">
<polygon fill="white" stroke="#666666" points="637,-214 507.75,-214 507.75,-182 637,-182 637,-214"/>
<text xml:space="preserve" text-anchor="start" x="515.75" y="-200.5" font-family="Helvetica,sans-Serif" font-size="10.00">UPyranoEditorSubsystem</text>
<text xml:space="preserve" text-anchor="middle" x="572.38" y="-188.5" font-family="Helvetica,sans-Serif" font-size="10.00">::OnPostPIEStarted</text>
</a>
</g>
</g>
<!-- Node4&#45;&gt;Node5 -->
<g id="edge4_Node000004_Node000005" class="edge">
<title>Node4&#45;&gt;Node5</title>
<g id="a_edge4_Node000004_Node000005"><a xlink:title=" ">
<path fill="none" stroke="#63b8ff" d="M661.29,-191.27C653.25,-191.22 645.13,-191.26 637.24,-191.39"/>
<polygon fill="#63b8ff" stroke="#63b8ff" points="661.02,-194.77 671.06,-191.37 661.1,-187.77 661.02,-194.77"/>
</a>
</g>
</g>
<!-- Node5&#45;&gt;Node4 -->
<g id="edge5_Node000005_Node000004" class="edge">
<title>Node5&#45;&gt;Node4</title>
<g id="a_edge5_Node000005_Node000004"><a xlink:title=" ">
<path fill="none" stroke="#63b8ff" d="M648.52,-204.73C656.56,-204.78 664.68,-204.74 672.57,-204.61"/>
<polygon fill="#63b8ff" stroke="#63b8ff" points="648.79,-201.23 638.76,-204.62 648.72,-208.23 648.79,-201.23"/>
</a>
</g>
</g>
<!-- Node6 -->
<g id="Node000006" class="node">
<title>Node6</title>
<g id="a_Node000006"><a xlink:href="class_u_pyrano_editor_subsystem.html#a5bd1813278b5277f9b9677faf4bc9d85" target="_top" xlink:title="Verifies that the game viewport is initialized and visible.">
<polygon fill="white" stroke="#666666" points="471.75,-220 342.5,-220 342.5,-188 471.75,-188 471.75,-220"/>
<text xml:space="preserve" text-anchor="start" x="350.5" y="-206.5" font-family="Helvetica,sans-Serif" font-size="10.00">UPyranoEditorSubsystem</text>
<text xml:space="preserve" text-anchor="middle" x="407.12" y="-194.5" font-family="Helvetica,sans-Serif" font-size="10.00">::EnsureViewportReady</text>
</a>
</g>
</g>
<!-- Node5&#45;&gt;Node6 -->
<g id="edge6_Node000005_Node000006" class="edge">
<title>Node5&#45;&gt;Node6</title>
<g id="a_edge6_Node000005_Node000006"><a xlink:title=" ">
<path fill="none" stroke="#63b8ff" d="M496.04,-194.04C488,-194.29 479.88,-194.63 471.99,-195.05"/>
<polygon fill="#63b8ff" stroke="#63b8ff" points="495.9,-197.54 505.81,-193.78 495.72,-190.54 495.9,-197.54"/>
</a>
</g>
</g>
<!-- Node7 -->
<g id="Node000007" class="node">
<title>Node7</title>
<g id="a_Node000007"><a xlink:href="class_u_pyrano_editor_subsystem.html#ab0ad1482f10e23d383332295e0ddac03" target="_top" xlink:title="Packs config and registers delegates before launching PIE.">
<polygon fill="white" stroke="#666666" points="471.75,-170 342.5,-170 342.5,-138 471.75,-138 471.75,-170"/>
<text xml:space="preserve" text-anchor="start" x="350.5" y="-156.5" font-family="Helvetica,sans-Serif" font-size="10.00">UPyranoEditorSubsystem</text>
<text xml:space="preserve" text-anchor="middle" x="407.12" y="-144.5" font-family="Helvetica,sans-Serif" font-size="10.00">::StartPIEWithConfig</text>
</a>
</g>
</g>
<!-- Node5&#45;&gt;Node7 -->
<g id="edge8_Node000005_Node000007" class="edge">
<title>Node5&#45;&gt;Node7</title>
<g id="a_edge8_Node000005_Node000007"><a xlink:title=" ">
<path fill="none" stroke="#63b8ff" d="M499.68,-178.68C489.53,-175.94 479.17,-173.15 469.24,-170.47"/>
<polygon fill="#63b8ff" stroke="#63b8ff" points="498.56,-182 509.13,-181.22 500.38,-175.24 498.56,-182"/>
</a>
</g>
</g>
<!-- Node6&#45;&gt;Node5 -->
<g id="edge7_Node000006_Node000005" class="edge">
<title>Node6&#45;&gt;Node5</title>
<g id="a_edge7_Node000006_Node000005"><a xlink:title=" ">
<path fill="none" stroke="#63b8ff" d="M483.27,-207.97C491.31,-207.72 499.43,-207.38 507.32,-206.96"/>
<polygon fill="#63b8ff" stroke="#63b8ff" points="483.41,-204.46 473.51,-208.22 483.59,-211.46 483.41,-204.46"/>
</a>
</g>
</g>
<!-- Node8 -->
<g id="Node000008" class="node">
<title>Node8</title>
<g id="a_Node000008"><a xlink:href="class_u_pyrano_editor_subsystem.html#acdc7acb4e1599227d50feefdf1867c66" target="_top" xlink:title="Starts a single capture pass in PIE and ends automatically.">
<polygon fill="white" stroke="#666666" points="306.5,-211 177.25,-211 177.25,-179 306.5,-179 306.5,-211"/>
<text xml:space="preserve" text-anchor="start" x="185.25" y="-197.5" font-family="Helvetica,sans-Serif" font-size="10.00">UPyranoEditorSubsystem</text>
<text xml:space="preserve" text-anchor="middle" x="241.88" y="-185.5" font-family="Helvetica,sans-Serif" font-size="10.00">::CaptureOnce</text>
</a>
</g>
</g>
<!-- Node7&#45;&gt;Node8 -->
<g id="edge9_Node000007_Node000008" class="edge">
<title>Node7&#45;&gt;Node8</title>
<g id="a_edge9_Node000007_Node000008"><a xlink:title=" ">
<path fill="none" stroke="#63b8ff" d="M331.07,-172.85C322.94,-174.89 314.72,-176.96 306.74,-178.96"/>
<polygon fill="#63b8ff" stroke="#63b8ff" points="331.76,-176.29 340.6,-170.46 330.05,-169.5 331.76,-176.29"/>
</a>
</g>
</g>
<!-- Node9 -->
<g id="Node000009" class="node">
<title>Node9</title>
<g id="a_Node000009"><a xlink:href="class_u_pyrano_editor_subsystem.html#a4b539f64f46c286822e4015811c08afc" target="_top" xlink:title="Starts a full multi&#45;sensor, multi&#45;time simulation in PIE.">
<polygon fill="white" stroke="#666666" points="306.5,-161 177.25,-161 177.25,-129 306.5,-129 306.5,-161"/>
<text xml:space="preserve" text-anchor="start" x="185.25" y="-147.5" font-family="Helvetica,sans-Serif" font-size="10.00">UPyranoEditorSubsystem</text>
<text xml:space="preserve" text-anchor="middle" x="241.88" y="-135.5" font-family="Helvetica,sans-Serif" font-size="10.00">::StartSimulation</text>
</a>
</g>
</g>
<!-- Node7&#45;&gt;Node9 -->
<g id="edge11_Node000007_Node000009" class="edge">
<title>Node7&#45;&gt;Node9</title>
<g id="a_edge11_Node000007_Node000009"><a xlink:title=" ">
<path fill="none" stroke="#63b8ff" d="M330.79,-149.85C322.75,-149.4 314.63,-148.96 306.74,-148.52"/>
<polygon fill="#63b8ff" stroke="#63b8ff" points="330.38,-153.33 340.56,-150.39 330.77,-146.34 330.38,-153.33"/>
</a>
</g>
</g>
<!-- Node8&#45;&gt;Node3 -->
<g id="edge10_Node000008_Node000003" class="edge">
<title>Node8&#45;&gt;Node3</title>
<g id="a_edge10_Node000008_Node000003"><a xlink:title=" ">
<path fill="none" stroke="#63b8ff" d="M187.69,-174.3C184.15,-172.86 180.64,-171.42 177.25,-170 153.92,-160.23 127.97,-148.69 107.63,-139.49"/>
<polygon fill="#63b8ff" stroke="#63b8ff" points="186.34,-177.54 196.93,-178.02 188.96,-171.04 186.34,-177.54"/>
</a>
</g>
</g>
<!-- Node9&#45;&gt;Node3 -->
<g id="edge12_Node000009_Node000003" class="edge">
<title>Node9&#45;&gt;Node3</title>
<g id="a_edge12_Node000009_Node000003"><a xlink:title=" ">
<path fill="none" stroke="#63b8ff" d="M165.69,-135.23C157.69,-134.19 149.58,-133.13 141.64,-132.1"/>
<polygon fill="#63b8ff" stroke="#63b8ff" points="165.02,-138.67 175.39,-136.49 165.92,-131.73 165.02,-138.67"/>
</a>
</g>
</g>
<!-- Node10&#45;&gt;Node7 -->
<g id="edge14_Node000010_Node000007" class="edge">
<title>Node10&#45;&gt;Node7</title>
<g id="a_edge14_Node000010_Node000007"><a xlink:title=" ">
<path fill="none" stroke="#63b8ff" d="M661.35,-149.37C604.14,-150.42 526.3,-151.84 472.08,-152.83"/>
<polygon fill="#63b8ff" stroke="#63b8ff" points="661.06,-152.88 670.99,-149.2 660.93,-145.88 661.06,-152.88"/>
</a>
</g>
</g>
<!-- Node11&#45;&gt;Node3 -->
<g id="edge16_Node000011_Node000003" class="edge">
<title>Node11&#45;&gt;Node3</title>
<g id="a_edge16_Node000011_Node000003"><a xlink:title=" ">
<path fill="none" stroke="#63b8ff" d="M330.61,-108.29C273.92,-111.51 196.87,-115.89 141.57,-119.03"/>
<polygon fill="#63b8ff" stroke="#63b8ff" points="330.73,-111.79 340.51,-107.73 330.33,-104.8 330.73,-111.79"/>
</a>
</g>
</g>
<!-- Node12&#45;&gt;Node3 -->
<g id="edge18_Node000012_Node000003" class="edge">
<title>Node12&#45;&gt;Node3</title>
<g id="a_edge18_Node000012_Node000003"><a xlink:title=" ">
<path fill="none" stroke="#63b8ff" d="M496.23,-64.75C451.49,-67.95 393.65,-72.73 342.5,-79 273.93,-87.4 196.14,-100.4 141.57,-110.1"/>
<polygon fill="#63b8ff" stroke="#63b8ff" points="496.36,-68.25 506.09,-64.06 495.87,-61.27 496.36,-68.25"/>
</a>
</g>
</g>
<!-- Node13&#45;&gt;Node3 -->
<g id="edge20_Node000013_Node000003" class="edge">
<title>Node13&#45;&gt;Node3</title>
<g id="a_edge20_Node000013_Node000003"><a xlink:title=" ">
<path fill="none" stroke="#63b8ff" d="M192.74,-37.5C187.44,-40.22 182.18,-43.08 177.25,-46 145.82,-64.64 112.15,-90.29 91.48,-106.76"/>
<polygon fill="#63b8ff" stroke="#63b8ff" points="194.16,-40.7 201.56,-33.13 191.05,-34.43 194.16,-40.7"/>
</a>
</g>
</g>
</g>
</svg>
