<?xml version="1.0" encoding="UTF-8" standalone="no"?>
<!DOCTYPE svg PUBLIC "-//W3C//DTD SVG 1.1//EN"
 "http://www.w3.org/Graphics/SVG/1.1/DTD/svg11.dtd">
<!-- Generated by graphviz version 14.1.0 (20251206.1807)
 -->
<!-- Title: FIrradianceIntegrateCS Pages: 1 -->
<svg width="273pt" height="292pt"
 viewBox="0.00 0.00 273.00 292.00" xmlns="http://www.w3.org/2000/svg" xmlns:xlink="http://www.w3.org/1999/xlink">
<g id="graph0" class="graph" transform="scale(1 1) rotate(0) translate(4 288)">
<title>FIrradianceIntegrateCS</title>
<!-- Node1 -->
<g id="Node000001" class="node">
<title>Node1</title>
<g id="a_Node000001"><a xlink:title=" ">
<polygon fill="#999999" stroke="none" points="264.75,-196 0,-196 0,0 264.75,0 264.75,-196"/>
<text xml:space="preserve" text-anchor="start" x="81.75" y="-182.5" font-family="Helvetica,sans-Serif" font-size="10.00">FIrradianceIntegrateCS</text>
<text xml:space="preserve" text-anchor="start" x="4" y="-166.5" font-family="Helvetica,sans-Serif" font-size="10.00">+</text>
<text xml:space="preserve" text-anchor="start" x="14" y="-166.5" font-family="Helvetica,sans-Serif" font-size="10.00">static constexpr uint32</text>
<text xml:space="preserve" text-anchor="start" x="14" y="-154.5" font-family="Helvetica,sans-Serif" font-size="10.00"> ThreadGroupSizeX</text>
<text xml:space="preserve" text-anchor="start" x="4" y="-138.5" font-family="Helvetica,sans-Serif" font-size="10.00">+</text>
<text xml:space="preserve" text-anchor="start" x="14" y="-138.5" font-family="Helvetica,sans-Serif" font-size="10.00">static constexpr uint32</text>
<text xml:space="preserve" text-anchor="start" x="14" y="-126.5" font-family="Helvetica,sans-Serif" font-size="10.00"> ThreadGroupSizeY</text>
<text xml:space="preserve" text-anchor="start" x="4" y="-110.5" font-family="Helvetica,sans-Serif" font-size="10.00">+</text>
<text xml:space="preserve" text-anchor="start" x="14" y="-110.5" font-family="Helvetica,sans-Serif" font-size="10.00">DECLARE_GLOBAL_SHADER</text>
<text xml:space="preserve" text-anchor="start" x="14" y="-98.5" font-family="Helvetica,sans-Serif" font-size="10.00">(FIrradianceIntegrateCS)</text>
<text xml:space="preserve" text-anchor="start" x="4" y="-82.5" font-family="Helvetica,sans-Serif" font-size="10.00">+</text>
<text xml:space="preserve" text-anchor="start" x="14" y="-82.5" font-family="Helvetica,sans-Serif" font-size="10.00">SHADER_USE_PARAMETER</text>
<text xml:space="preserve" text-anchor="start" x="14" y="-70.5" font-family="Helvetica,sans-Serif" font-size="10.00">_STRUCT(FIrradianceIntegrate</text>
<text xml:space="preserve" text-anchor="start" x="14" y="-58.5" font-family="Helvetica,sans-Serif" font-size="10.00">CS, FGlobalShader)</text>
<text xml:space="preserve" text-anchor="start" x="4" y="-42.5" font-family="Helvetica,sans-Serif" font-size="10.00">+</text>
<text xml:space="preserve" text-anchor="start" x="14" y="-42.5" font-family="Helvetica,sans-Serif" font-size="10.00">static void ModifyCompilation</text>
<text xml:space="preserve" text-anchor="start" x="14" y="-30.5" font-family="Helvetica,sans-Serif" font-size="10.00">Environment(const FGlobalShaderPermutation</text>
<text xml:space="preserve" text-anchor="start" x="14" y="-18.5" font-family="Helvetica,sans-Serif" font-size="10.00">Parameters &amp;Parameters, FShaderCompilerEnvironment</text>
<text xml:space="preserve" text-anchor="start" x="14" y="-6.5" font-family="Helvetica,sans-Serif" font-size="10.00"> &amp;OutEnvironment)</text>
<polygon fill="#666666" stroke="#666666" points="0,-178 0,-178 264.75,-178 264.75,-178 0,-178"/>
<polygon fill="#666666" stroke="#666666" points="0,-122 0,-122 12,-122 12,-122 0,-122"/>
<polygon fill="#666666" stroke="#666666" points="12,-122 12,-122 264.75,-122 264.75,-122 12,-122"/>
<polygon fill="none" stroke="#666666" points="0,0 0,-196 264.75,-196 264.75,0 0,0"/>
</a>
</g>
</g>
<!-- Node2 -->
<g id="Node000002" class="node">
<title>Node2</title>
<g id="a_Node000002"><a xlink:title=" ">
<polygon fill="white" stroke="none" points="168.62,-284 96.12,-284 96.12,-232 168.62,-232 168.62,-284"/>
<text xml:space="preserve" text-anchor="start" x="100.12" y="-270.5" font-family="Helvetica,sans-Serif" font-size="10.00">FGlobalShader</text>
<text xml:space="preserve" text-anchor="start" x="130.88" y="-254.5" font-family="Helvetica,sans-Serif" font-size="10.00"> </text>
<text xml:space="preserve" text-anchor="start" x="130.88" y="-238.5" font-family="Helvetica,sans-Serif" font-size="10.00"> </text>
<polygon fill="#666666" stroke="#666666" points="96.12,-266 96.12,-266 168.62,-266 168.62,-266 96.12,-266"/>
<polygon fill="#666666" stroke="#666666" points="96.12,-250 96.12,-250 168.62,-250 168.62,-250 96.12,-250"/>
<polygon fill="none" stroke="#666666" points="96.12,-232 96.12,-284 168.62,-284 168.62,-232 96.12,-232"/>
</a>
</g>
</g>
<!-- Node2&#45;&gt;Node1 -->
<g id="edge1_Node000001_Node000002" class="edge">
<title>Node2&#45;&gt;Node1</title>
<g id="a_edge1_Node000001_Node000002"><a xlink:title=" ">
<path fill="none" stroke="#63b8ff" d="M132.38,-220.88C132.38,-213.15 132.38,-204.63 132.38,-195.8"/>
<polygon fill="none" stroke="#63b8ff" points="128.88,-220.8 132.38,-230.8 135.88,-220.8 128.88,-220.8"/>
</a>
</g>
</g>
</g>
</svg>
