<?xml version="1.0" encoding="UTF-8" standalone="no"?>
<!DOCTYPE svg PUBLIC "-//W3C//DTD SVG 1.1//EN"
 "http://www.w3.org/Graphics/SVG/1.1/DTD/svg11.dtd">
<!-- Generated by graphviz version 14.1.0 (20251206.1807)
 -->
<!-- Title: UConsoleLogWidget Pages: 1 -->
<svg width="173pt" height="284pt"
 viewBox="0.00 0.00 173.00 284.00" xmlns="http://www.w3.org/2000/svg" xmlns:xlink="http://www.w3.org/1999/xlink">
<g id="graph0" class="graph" transform="scale(1 1) rotate(0) translate(4 280)">
<title>UConsoleLogWidget</title>
<!-- Node1 -->
<g id="Node000001" class="node">
<title>Node1</title>
<g id="a_Node000001"><a xlink:title=" ">
<polygon fill="#999999" stroke="none" points="165,-188 0,-188 0,0 165,0 165,-188"/>
<text xml:space="preserve" text-anchor="start" x="37.5" y="-174.5" font-family="Helvetica,sans-Serif" font-size="10.00">UConsoleLogWidget</text>
<text xml:space="preserve" text-anchor="start" x="4" y="-158.5" font-family="Helvetica,sans-Serif" font-size="10.00">+</text>
<text xml:space="preserve" text-anchor="start" x="14" y="-158.5" font-family="Helvetica,sans-Serif" font-size="10.00">UListView * LV_Console</text>
<text xml:space="preserve" text-anchor="start" x="4" y="-142.5" font-family="Helvetica,sans-Serif" font-size="10.00">+</text>
<text xml:space="preserve" text-anchor="start" x="14" y="-142.5" font-family="Helvetica,sans-Serif" font-size="10.00">bool bAutoScroll</text>
<text xml:space="preserve" text-anchor="start" x="4" y="-126.5" font-family="Helvetica,sans-Serif" font-size="10.00">+</text>
<text xml:space="preserve" text-anchor="start" x="14" y="-126.5" font-family="Helvetica,sans-Serif" font-size="10.00">int32 MaxLines</text>
<text xml:space="preserve" text-anchor="start" x="4" y="-110.5" font-family="Helvetica,sans-Serif" font-size="10.00">+</text>
<text xml:space="preserve" text-anchor="start" x="14" y="-110.5" font-family="Helvetica,sans-Serif" font-size="10.00">bool bShowVerbose</text>
<text xml:space="preserve" text-anchor="start" x="4" y="-94.5" font-family="Helvetica,sans-Serif" font-size="10.00">+</text>
<text xml:space="preserve" text-anchor="start" x="14" y="-94.5" font-family="Helvetica,sans-Serif" font-size="10.00">void ClearConsole()</text>
<text xml:space="preserve" text-anchor="start" x="4" y="-78.5" font-family="Helvetica,sans-Serif" font-size="10.00">+</text>
<text xml:space="preserve" text-anchor="start" x="14" y="-78.5" font-family="Helvetica,sans-Serif" font-size="10.00">void CopyAll()</text>
<text xml:space="preserve" text-anchor="start" x="4" y="-62.5" font-family="Helvetica,sans-Serif" font-size="10.00">+</text>
<text xml:space="preserve" text-anchor="start" x="14" y="-62.5" font-family="Helvetica,sans-Serif" font-size="10.00">void ToggleShowVerbose()</text>
<text xml:space="preserve" text-anchor="start" x="4" y="-46.5" font-family="Helvetica,sans-Serif" font-size="10.00">+</text>
<text xml:space="preserve" text-anchor="start" x="14" y="-46.5" font-family="Helvetica,sans-Serif" font-size="10.00">void ExportLogToFile()</text>
<text xml:space="preserve" text-anchor="start" x="4.38" y="-30.5" font-family="Helvetica,sans-Serif" font-size="10.00">#</text>
<text xml:space="preserve" text-anchor="start" x="14" y="-30.5" font-family="Helvetica,sans-Serif" font-size="10.00">virtual void NativeTick</text>
<text xml:space="preserve" text-anchor="start" x="14" y="-18.5" font-family="Helvetica,sans-Serif" font-size="10.00">(const FGeometry &amp;MyGeometry,</text>
<text xml:space="preserve" text-anchor="start" x="14" y="-6.5" font-family="Helvetica,sans-Serif" font-size="10.00"> float InDeltaTime) override</text>
<polygon fill="#666666" stroke="#666666" points="0,-170 0,-170 165,-170 165,-170 0,-170"/>
<polygon fill="#666666" stroke="#666666" points="0,-106 0,-106 12,-106 12,-106 0,-106"/>
<polygon fill="#666666" stroke="#666666" points="12,-106 12,-106 165,-106 165,-106 12,-106"/>
<polygon fill="none" stroke="#666666" points="0,0 0,-188 165,-188 165,0 0,0"/>
</a>
</g>
</g>
<!-- Node2 -->
<g id="Node000002" class="node">
<title>Node2</title>
<g id="a_Node000002"><a xlink:title=" ">
<polygon fill="white" stroke="none" points="116.12,-276 48.88,-276 48.88,-224 116.12,-224 116.12,-276"/>
<text xml:space="preserve" text-anchor="start" x="52.88" y="-262.5" font-family="Helvetica,sans-Serif" font-size="10.00">UUserWidget</text>
<text xml:space="preserve" text-anchor="start" x="81" y="-246.5" font-family="Helvetica,sans-Serif" font-size="10.00"> </text>
<text xml:space="preserve" text-anchor="start" x="81" y="-230.5" font-family="Helvetica,sans-Serif" font-size="10.00"> </text>
<polygon fill="#666666" stroke="#666666" points="48.88,-258 48.88,-258 116.12,-258 116.12,-258 48.88,-258"/>
<polygon fill="#666666" stroke="#666666" points="48.88,-242 48.88,-242 116.12,-242 116.12,-242 48.88,-242"/>
<polygon fill="none" stroke="#666666" points="48.88,-224 48.88,-276 116.12,-276 116.12,-224 48.88,-224"/>
</a>
</g>
</g>
<!-- Node2&#45;&gt;Node1 -->
<g id="edge1_Node000001_Node000002" class="edge">
<title>Node2&#45;&gt;Node1</title>
<g id="a_edge1_Node000001_Node000002"><a xlink:title=" ">
<path fill="none" stroke="#63b8ff" d="M82.5,-212.78C82.5,-205.03 82.5,-196.5 82.5,-187.68"/>
<polygon fill="none" stroke="#63b8ff" points="79,-212.74 82.5,-222.74 86,-212.74 79,-212.74"/>
</a>
</g>
</g>
</g>
</svg>
