<?xml version="1.0" encoding="UTF-8" standalone="no"?>
<!DOCTYPE svg PUBLIC "-//W3C//DTD SVG 1.1//EN"
 "http://www.w3.org/Graphics/SVG/1.1/DTD/svg11.dtd">
<!-- Generated by graphviz version 14.1.0 (20251206.1807)
 -->
<!-- Title: FPyranoModule Pages: 1 -->
<svg width="151pt" height="188pt"
 viewBox="0.00 0.00 151.00 188.00" xmlns="http://www.w3.org/2000/svg" xmlns:xlink="http://www.w3.org/1999/xlink">
<g id="graph0" class="graph" transform="scale(1 1) rotate(0) translate(4 184)">
<title>FPyranoModule</title>
<!-- Node1 -->
<g id="Node000001" class="node">
<title>Node1</title>
<g id="a_Node000001"><a xlink:title=" ">
<polygon fill="#999999" stroke="none" points="143.25,-92 0,-92 0,0 143.25,0 143.25,-92"/>
<text xml:space="preserve" text-anchor="start" x="37.5" y="-78.5" font-family="Helvetica,sans-Serif" font-size="10.00">FPyranoModule</text>
<text xml:space="preserve" text-anchor="start" x="70.12" y="-62.5" font-family="Helvetica,sans-Serif" font-size="10.00"> </text>
<text xml:space="preserve" text-anchor="start" x="4" y="-46.5" font-family="Helvetica,sans-Serif" font-size="10.00">+</text>
<text xml:space="preserve" text-anchor="start" x="14" y="-46.5" font-family="Helvetica,sans-Serif" font-size="10.00">virtual void StartupModule</text>
<text xml:space="preserve" text-anchor="start" x="14" y="-34.5" font-family="Helvetica,sans-Serif" font-size="10.00">() override</text>
<text xml:space="preserve" text-anchor="start" x="4" y="-18.5" font-family="Helvetica,sans-Serif" font-size="10.00">+</text>
<text xml:space="preserve" text-anchor="start" x="14" y="-18.5" font-family="Helvetica,sans-Serif" font-size="10.00">virtual void ShutdownModule</text>
<text xml:space="preserve" text-anchor="start" x="14" y="-6.5" font-family="Helvetica,sans-Serif" font-size="10.00">() override</text>
<polygon fill="#666666" stroke="#666666" points="0,-74 0,-74 143.25,-74 143.25,-74 0,-74"/>
<polygon fill="#666666" stroke="#666666" points="0,-58 0,-58 143.25,-58 143.25,-58 0,-58"/>
<polygon fill="none" stroke="#666666" points="0,0 0,-92 143.25,-92 143.25,0 0,0"/>
</a>
</g>
</g>
<!-- Node2 -->
<g id="Node000002" class="node">
<title>Node2</title>
<g id="a_Node000002"><a xlink:title=" ">
<polygon fill="white" stroke="none" points="112,-180 31.25,-180 31.25,-128 112,-128 112,-180"/>
<text xml:space="preserve" text-anchor="start" x="35.25" y="-166.5" font-family="Helvetica,sans-Serif" font-size="10.00">IModuleInterface</text>
<text xml:space="preserve" text-anchor="start" x="70.12" y="-150.5" font-family="Helvetica,sans-Serif" font-size="10.00"> </text>
<text xml:space="preserve" text-anchor="start" x="70.12" y="-134.5" font-family="Helvetica,sans-Serif" font-size="10.00"> </text>
<polygon fill="#666666" stroke="#666666" points="31.25,-162 31.25,-162 112,-162 112,-162 31.25,-162"/>
<polygon fill="#666666" stroke="#666666" points="31.25,-146 31.25,-146 112,-146 112,-146 31.25,-146"/>
<polygon fill="none" stroke="#666666" points="31.25,-128 31.25,-180 112,-180 112,-128 31.25,-128"/>
</a>
</g>
</g>
<!-- Node2&#45;&gt;Node1 -->
<g id="edge1_Node000001_Node000002" class="edge">
<title>Node2&#45;&gt;Node1</title>
<g id="a_edge1_Node000001_Node000002"><a xlink:title=" ">
<path fill="none" stroke="#63b8ff" d="M71.62,-116.81C71.62,-108.71 71.62,-100.03 71.62,-91.64"/>
<polygon fill="none" stroke="#63b8ff" points="68.13,-116.63 71.63,-126.63 75.13,-116.63 68.13,-116.63"/>
</a>
</g>
</g>
</g>
</svg>
