<?xml version="1.0" encoding="UTF-8" standalone="no"?>
<!DOCTYPE svg PUBLIC "-//W3C//DTD SVG 1.1//EN"
 "http://www.w3.org/Graphics/SVG/1.1/DTD/svg11.dtd">
<!-- Generated by graphviz version 14.1.0 (20251206.1807)
 -->
<!-- Title: UIrradianceSubsystem::TickCapturing Pages: 1 -->
<svg width="753pt" height="112pt"
 viewBox="0.00 0.00 753.00 112.00" xmlns="http://www.w3.org/2000/svg" xmlns:xlink="http://www.w3.org/1999/xlink">
<g id="graph0" class="graph" transform="scale(1 1) rotate(0) translate(4 108)">
<title>UIrradianceSubsystem::TickCapturing</title>
<!-- Node1 -->
<g id="Node000001" class="node">
<title>Node1</title>
<g id="a_Node000001"><a xlink:title="Handle per&#45;frame logic while faces are being captured.">
<polygon fill="#999999" stroke="#666666" points="115.75,-79 0,-79 0,-47 115.75,-47 115.75,-79"/>
<text xml:space="preserve" text-anchor="start" x="8" y="-65.5" font-family="Helvetica,sans-Serif" font-size="10.00">UIrradianceSubsystem</text>
<text xml:space="preserve" text-anchor="middle" x="57.88" y="-53.5" font-family="Helvetica,sans-Serif" font-size="10.00">::TickCapturing</text>
</a>
</g>
</g>
<!-- Node2 -->
<g id="Node000002" class="node">
<title>Node2</title>
<g id="a_Node000002"><a xlink:href="class_u_irradiance_subsystem.html#a140204594c38cf4c1696276e7e9a4450" target="_top" xlink:title="Dispatch the irradiance compute shader using the captured faces.">
<polygon fill="white" stroke="#666666" points="277.25,-104 151.75,-104 151.75,-72 277.25,-72 277.25,-104"/>
<text xml:space="preserve" text-anchor="start" x="159.75" y="-90.5" font-family="Helvetica,sans-Serif" font-size="10.00">UIrradianceSubsystem</text>
<text xml:space="preserve" text-anchor="middle" x="214.5" y="-78.5" font-family="Helvetica,sans-Serif" font-size="10.00">::ComputeFinalIrradiance</text>
</a>
</g>
</g>
<!-- Node1&#45;&gt;Node2 -->
<g id="edge1_Node000001_Node000002" class="edge">
<title>Node1&#45;&gt;Node2</title>
<g id="a_edge1_Node000001_Node000002"><a xlink:title=" ">
<path fill="none" stroke="#63b8ff" d="M116.01,-72.24C123.85,-73.5 131.98,-74.82 140.06,-76.13"/>
<polygon fill="#63b8ff" stroke="#63b8ff" points="139.48,-79.58 149.91,-77.72 140.59,-72.67 139.48,-79.58"/>
</a>
</g>
</g>
<!-- Node6 -->
<g id="Node000006" class="node">
<title>Node6</title>
<g id="a_Node000006"><a xlink:href="class_u_irradiance_subsystem.html#a10314c056f1375fa327c1bdd2c0c79b6" target="_top" xlink:title="Start capture of a single face at PosWS / RotWS.">
<polygon fill="white" stroke="#666666" points="272.38,-54 156.62,-54 156.62,-22 272.38,-22 272.38,-54"/>
<text xml:space="preserve" text-anchor="start" x="164.62" y="-40.5" font-family="Helvetica,sans-Serif" font-size="10.00">UIrradianceSubsystem</text>
<text xml:space="preserve" text-anchor="middle" x="214.5" y="-28.5" font-family="Helvetica,sans-Serif" font-size="10.00">::StartFaceCapture</text>
</a>
</g>
</g>
<!-- Node1&#45;&gt;Node6 -->
<g id="edge5_Node000001_Node000006" class="edge">
<title>Node1&#45;&gt;Node6</title>
<g id="a_edge5_Node000001_Node000006"><a xlink:title=" ">
<path fill="none" stroke="#63b8ff" d="M116.01,-53.76C125.47,-52.23 135.37,-50.63 145.07,-49.06"/>
<polygon fill="#63b8ff" stroke="#63b8ff" points="145.53,-52.53 154.85,-47.48 144.41,-45.62 145.53,-52.53"/>
</a>
</g>
</g>
<!-- Node3 -->
<g id="Node000003" class="node">
<title>Node3</title>
<g id="a_Node000003"><a xlink:href="namespace_irradiance_compute.html#a6fad304599a46b23bcca8438ca2b6f06" target="_top" xlink:title=" ">
<polygon fill="white" stroke="#666666" points="460.5,-104 313.25,-104 313.25,-72 460.5,-72 460.5,-104"/>
<text xml:space="preserve" text-anchor="start" x="321.25" y="-90.5" font-family="Helvetica,sans-Serif" font-size="10.00">IrradianceCompute::</text>
<text xml:space="preserve" text-anchor="middle" x="386.88" y="-78.5" font-family="Helvetica,sans-Serif" font-size="10.00">ComputeAndExtractIrradiance</text>
</a>
</g>
</g>
<!-- Node2&#45;&gt;Node3 -->
<g id="edge2_Node000002_Node000003" class="edge">
<title>Node2&#45;&gt;Node3</title>
<g id="a_edge2_Node000002_Node000003"><a xlink:title=" ">
<path fill="none" stroke="#63b8ff" d="M277.49,-88C285.32,-88 293.42,-88 301.52,-88"/>
<polygon fill="#63b8ff" stroke="#63b8ff" points="301.42,-91.5 311.42,-88 301.42,-84.5 301.42,-91.5"/>
</a>
</g>
</g>
<!-- Node4 -->
<g id="Node000004" class="node">
<title>Node4</title>
<g id="a_Node000004"><a xlink:href="namespace_irradiance_compute.html#ad8506a4c2588e653b7d1c2aaf4552b14" target="_top" xlink:title=" ">
<polygon fill="white" stroke="#666666" points="611.12,-104 506.62,-104 506.62,-72 611.12,-72 611.12,-104"/>
<text xml:space="preserve" text-anchor="start" x="514.62" y="-90.5" font-family="Helvetica,sans-Serif" font-size="10.00">IrradianceCompute::</text>
<text xml:space="preserve" text-anchor="middle" x="558.88" y="-78.5" font-family="Helvetica,sans-Serif" font-size="10.00">ComputeIrradiance</text>
</a>
</g>
</g>
<!-- Node3&#45;&gt;Node4 -->
<g id="edge3_Node000003_Node000004" class="edge">
<title>Node3&#45;&gt;Node4</title>
<g id="a_edge3_Node000003_Node000004"><a xlink:title=" ">
<path fill="none" stroke="#63b8ff" d="M460.96,-88C472.24,-88 483.82,-88 494.86,-88"/>
<polygon fill="#63b8ff" stroke="#63b8ff" points="494.63,-91.5 504.63,-88 494.63,-84.5 494.63,-91.5"/>
</a>
</g>
</g>
<!-- Node5 -->
<g id="Node000005" class="node">
<title>Node5</title>
<g id="a_Node000005"><a xlink:href="_irradiance_integrate_c_s_8cpp.html#a6d8400984c092d383c90ad4cd22a8462" target="_top" xlink:title="Creates a 2D texture array from the six cubemap face render targets.">
<polygon fill="white" stroke="#666666" points="745.25,-98 657.25,-98 657.25,-78 745.25,-78 745.25,-98"/>
<text xml:space="preserve" text-anchor="middle" x="701.25" y="-84.5" font-family="Helvetica,sans-Serif" font-size="10.00">BuildFacesArray</text>
</a>
</g>
</g>
<!-- Node4&#45;&gt;Node5 -->
<g id="edge4_Node000004_Node000005" class="edge">
<title>Node4&#45;&gt;Node5</title>
<g id="a_edge4_Node000004_Node000005"><a xlink:title=" ">
<path fill="none" stroke="#63b8ff" d="M611.35,-88C622.5,-88 634.33,-88 645.6,-88"/>
<polygon fill="#63b8ff" stroke="#63b8ff" points="645.57,-91.5 655.57,-88 645.57,-84.5 645.57,-91.5"/>
</a>
</g>
</g>
<!-- Node7 -->
<g id="Node000007" class="node">
<title>Node7</title>
<g id="a_Node000007"><a xlink:href="class_u_irradiance_subsystem.html#a07d7292927f509ea227ab101994ab4b6" target="_top" xlink:title="Ensure that the capture camera exists and is configured.">
<polygon fill="white" stroke="#666666" points="447.75,-54 326,-54 326,-22 447.75,-22 447.75,-54"/>
<text xml:space="preserve" text-anchor="start" x="334" y="-40.5" font-family="Helvetica,sans-Serif" font-size="10.00">UIrradianceSubsystem</text>
<text xml:space="preserve" text-anchor="middle" x="386.88" y="-28.5" font-family="Helvetica,sans-Serif" font-size="10.00">::EnsureCaptureCamera</text>
</a>
</g>
</g>
<!-- Node6&#45;&gt;Node7 -->
<g id="edge6_Node000006_Node000007" class="edge">
<title>Node6&#45;&gt;Node7</title>
<g id="a_edge6_Node000006_Node000007"><a xlink:title=" ">
<path fill="none" stroke="#63b8ff" d="M272.71,-38C286,-38 300.31,-38 314.14,-38"/>
<polygon fill="#63b8ff" stroke="#63b8ff" points="314.1,-41.5 324.1,-38 314.1,-34.5 314.1,-41.5"/>
</a>
</g>
</g>
<!-- Node8 -->
<g id="Node000008" class="node">
<title>Node8</title>
<g id="a_Node000008"><a xlink:href="namespace_irradiance_common_1_1_utils.html#acd21b099951e95f67c7a758546ac9875" target="_top" xlink:title="Tries to return a game world suitable for rendering / scheduling.">
<polygon fill="white" stroke="#666666" points="621.25,-32 496.5,-32 496.5,0 621.25,0 621.25,-32"/>
<text xml:space="preserve" text-anchor="start" x="504.5" y="-18.5" font-family="Helvetica,sans-Serif" font-size="10.00">IrradianceCommon::Utils</text>
<text xml:space="preserve" text-anchor="middle" x="558.88" y="-6.5" font-family="Helvetica,sans-Serif" font-size="10.00">::GetGameWorldSafe</text>
</a>
</g>
</g>
<!-- Node6&#45;&gt;Node8 -->
<g id="edge8_Node000006_Node000008" class="edge">
<title>Node6&#45;&gt;Node8</title>
<g id="a_edge8_Node000006_Node000008"><a xlink:title=" ">
<path fill="none" stroke="#63b8ff" d="M269.84,-21.54C283.85,-18 299,-14.79 313.25,-13 370.5,-5.79 435.88,-7.08 484.64,-9.88"/>
<polygon fill="#63b8ff" stroke="#63b8ff" points="484.33,-13.36 494.52,-10.48 484.76,-6.38 484.33,-13.36"/>
</a>
</g>
</g>
<!-- Node7&#45;&gt;Node8 -->
<g id="edge7_Node000007_Node000008" class="edge">
<title>Node7&#45;&gt;Node8</title>
<g id="a_edge7_Node000007_Node000008"><a xlink:title=" ">
<path fill="none" stroke="#63b8ff" d="M447.81,-30.24C459.81,-28.69 472.55,-27.04 484.94,-25.44"/>
<polygon fill="#63b8ff" stroke="#63b8ff" points="485.21,-28.93 494.68,-24.18 484.31,-21.99 485.21,-28.93"/>
</a>
</g>
</g>
</g>
</svg>
