<?xml version="1.0" encoding="UTF-8" standalone="no"?>
<!DOCTYPE svg PUBLIC "-//W3C//DTD SVG 1.1//EN"
 "http://www.w3.org/Graphics/SVG/1.1/DTD/svg11.dtd">
<!-- Generated by graphviz version 14.1.0 (20251206.1807)
 -->
<!-- Title: UPyranoEditorSubsystem::QuerySensors Pages: 1 -->
<svg width="316pt" height="90pt"
 viewBox="0.00 0.00 316.00 90.00" xmlns="http://www.w3.org/2000/svg" xmlns:xlink="http://www.w3.org/1999/xlink">
<g id="graph0" class="graph" transform="scale(1 1) rotate(0) translate(4 86)">
<title>UPyranoEditorSubsystem::QuerySensors</title>
<!-- Node1 -->
<g id="Node000001" class="node">
<title>Node1</title>
<g id="a_Node000001"><a xlink:title="Returns all pyranometer sensors in the level (filtered by enabled state).">
<polygon fill="#999999" stroke="#666666" points="129.25,-57 0,-57 0,-25 129.25,-25 129.25,-57"/>
<text xml:space="preserve" text-anchor="start" x="8" y="-43.5" font-family="Helvetica,sans-Serif" font-size="10.00">UPyranoEditorSubsystem</text>
<text xml:space="preserve" text-anchor="middle" x="64.62" y="-31.5" font-family="Helvetica,sans-Serif" font-size="10.00">::QuerySensors</text>
</a>
</g>
</g>
<!-- Node2 -->
<g id="Node000002" class="node">
<title>Node2</title>
<g id="a_Node000002"><a xlink:href="class_u_pyrano_editor_subsystem.html#a2adad0d3fd5864acbe4205b167cf4937" target="_top" xlink:title="Returns the PIE world if running, otherwise the editor world.">
<polygon fill="white" stroke="#666666" points="301.25,-82 172,-82 172,-50 301.25,-50 301.25,-82"/>
<text xml:space="preserve" text-anchor="start" x="180" y="-68.5" font-family="Helvetica,sans-Serif" font-size="10.00">UPyranoEditorSubsystem</text>
<text xml:space="preserve" text-anchor="middle" x="236.62" y="-56.5" font-family="Helvetica,sans-Serif" font-size="10.00">::GetActiveWorld</text>
</a>
</g>
</g>
<!-- Node1&#45;&gt;Node2 -->
<g id="edge1_Node000001_Node000002" class="edge">
<title>Node1&#45;&gt;Node2</title>
<g id="a_edge1_Node000001_Node000002"><a xlink:title=" ">
<path fill="none" stroke="#63b8ff" d="M129.41,-50.38C139.58,-51.88 150.18,-53.44 160.59,-54.96"/>
<polygon fill="#63b8ff" stroke="#63b8ff" points="159.86,-58.4 170.27,-56.39 160.88,-51.47 159.86,-58.4"/>
</a>
</g>
</g>
<!-- Node3 -->
<g id="Node000003" class="node">
<title>Node3</title>
<g id="a_Node000003"><a xlink:href="namespace_pyrano_editor_utils.html#a923935ab07773c60282d0c628dbd3b9d" target="_top" xlink:title=" ">
<polygon fill="white" stroke="#666666" points="308,-32 165.25,-32 165.25,0 308,0 308,-32"/>
<text xml:space="preserve" text-anchor="start" x="173.25" y="-18.5" font-family="Helvetica,sans-Serif" font-size="10.00">PyranoEditorUtils::</text>
<text xml:space="preserve" text-anchor="middle" x="236.62" y="-6.5" font-family="Helvetica,sans-Serif" font-size="10.00">GetPyranometerComponents</text>
</a>
</g>
</g>
<!-- Node1&#45;&gt;Node3 -->
<g id="edge2_Node000001_Node000003" class="edge">
<title>Node1&#45;&gt;Node3</title>
<g id="a_edge2_Node000001_Node000003"><a xlink:title=" ">
<path fill="none" stroke="#63b8ff" d="M129.41,-31.62C137.38,-30.45 145.61,-29.24 153.8,-28.03"/>
<polygon fill="#63b8ff" stroke="#63b8ff" points="154.04,-31.54 163.43,-26.62 153.02,-24.61 154.04,-31.54"/>
</a>
</g>
</g>
</g>
</svg>
