<?xml version="1.0" encoding="UTF-8" standalone="no"?>
<!DOCTYPE svg PUBLIC "-//W3C//DTD SVG 1.1//EN"
 "http://www.w3.org/Graphics/SVG/1.1/DTD/svg11.dtd">
<!-- Generated by graphviz version 14.1.0 (20251206.1807)
 -->
<!-- Title: UIrradianceScheduler::BuildTimeSlots Pages: 1 -->
<svg width="421pt" height="40pt"
 viewBox="0.00 0.00 421.00 40.00" xmlns="http://www.w3.org/2000/svg" xmlns:xlink="http://www.w3.org/1999/xlink">
<g id="graph0" class="graph" transform="scale(1 1) rotate(0) translate(4 36)">
<title>UIrradianceScheduler::BuildTimeSlots</title>
<!-- Node1 -->
<g id="Node000001" class="node">
<title>Node1</title>
<g id="a_Node000001"><a xlink:title="Builds the list of time slots between StartUTC and EndUTC (inclusive).">
<polygon fill="#999999" stroke="#666666" points="413.25,-32 303.5,-32 303.5,0 413.25,0 413.25,-32"/>
<text xml:space="preserve" text-anchor="start" x="311.5" y="-18.5" font-family="Helvetica,sans-Serif" font-size="10.00">UIrradianceScheduler</text>
<text xml:space="preserve" text-anchor="middle" x="358.38" y="-6.5" font-family="Helvetica,sans-Serif" font-size="10.00">::BuildTimeSlots</text>
</a>
</g>
</g>
<!-- Node2 -->
<g id="Node000002" class="node">
<title>Node2</title>
<g id="a_Node000002"><a xlink:href="class_u_irradiance_scheduler.html#a820fe9375420d4934dd45811ba7a419e" target="_top" xlink:title="Starts a full time&#45;series simulation using the given configuration.">
<polygon fill="white" stroke="#666666" points="267.5,-32 157.75,-32 157.75,0 267.5,0 267.5,-32"/>
<text xml:space="preserve" text-anchor="start" x="165.75" y="-18.5" font-family="Helvetica,sans-Serif" font-size="10.00">UIrradianceScheduler</text>
<text xml:space="preserve" text-anchor="middle" x="212.62" y="-6.5" font-family="Helvetica,sans-Serif" font-size="10.00">::StartSimulation</text>
</a>
</g>
</g>
<!-- Node1&#45;&gt;Node2 -->
<g id="edge1_Node000001_Node000002" class="edge">
<title>Node1&#45;&gt;Node2</title>
<g id="a_edge1_Node000001_Node000002"><a xlink:title=" ">
<path fill="none" stroke="#63b8ff" d="M291.72,-16C283.64,-16 275.45,-16 267.57,-16"/>
<polygon fill="#63b8ff" stroke="#63b8ff" points="291.52,-19.5 301.52,-16 291.52,-12.5 291.52,-19.5"/>
</a>
</g>
</g>
<!-- Node3 -->
<g id="Node000003" class="node">
<title>Node3</title>
<g id="a_Node000003"><a xlink:href="class_u_irradiance_scheduler.html#acad46ea7c860e2a972fb7debd56651e9" target="_top" xlink:title=" ">
<polygon fill="white" stroke="#666666" points="121.75,-32 0,-32 0,0 121.75,0 121.75,-32"/>
<text xml:space="preserve" text-anchor="start" x="8" y="-18.5" font-family="Helvetica,sans-Serif" font-size="10.00">UIrradianceScheduler</text>
<text xml:space="preserve" text-anchor="middle" x="60.88" y="-6.5" font-family="Helvetica,sans-Serif" font-size="10.00">::~UIrradianceScheduler</text>
</a>
</g>
</g>
<!-- Node2&#45;&gt;Node3 -->
<g id="edge2_Node000002_Node000003" class="edge">
<title>Node2&#45;&gt;Node3</title>
<g id="a_edge2_Node000002_Node000003"><a xlink:title=" ">
<path fill="none" stroke="#63b8ff" d="M146.08,-16C138.14,-16 130.06,-16 122.2,-16"/>
<polygon fill="#63b8ff" stroke="#63b8ff" points="146.05,-19.5 156.05,-16 146.05,-12.5 146.05,-19.5"/>
</a>
</g>
</g>
</g>
</svg>
