<?xml version="1.0" encoding="UTF-8" standalone="no"?>
<!DOCTYPE svg PUBLIC "-//W3C//DTD SVG 1.1//EN"
 "http://www.w3.org/Graphics/SVG/1.1/DTD/svg11.dtd">
<!-- Generated by graphviz version 14.1.0 (20251206.1807)
 -->
<!-- Title: UPyranoEditorSubsystem::EstimateSimDuration Pages: 1 -->
<svg width="480pt" height="62pt"
 viewBox="0.00 0.00 480.00 62.00" xmlns="http://www.w3.org/2000/svg" xmlns:xlink="http://www.w3.org/1999/xlink">
<g id="graph0" class="graph" transform="scale(1 1) rotate(0) translate(4 58)">
<title>UPyranoEditorSubsystem::EstimateSimDuration</title>
<!-- Node1 -->
<g id="Node000001" class="node">
<title>Node1</title>
<g id="a_Node000001"><a xlink:title="Estimates the total simulation duration from samples, sensors and resolution.">
<polygon fill="#999999" stroke="#666666" points="471.75,-32 342.5,-32 342.5,0 471.75,0 471.75,-32"/>
<text xml:space="preserve" text-anchor="start" x="350.5" y="-18.5" font-family="Helvetica,sans-Serif" font-size="10.00">UPyranoEditorSubsystem</text>
<text xml:space="preserve" text-anchor="middle" x="407.12" y="-6.5" font-family="Helvetica,sans-Serif" font-size="10.00">::EstimateSimDuration</text>
</a>
</g>
</g>
<!-- Node2 -->
<g id="Node000002" class="node">
<title>Node2</title>
<g id="a_Node000002"><a xlink:href="class_u_pyrano_editor_subsystem.html#aff2465394f6335550f1ee02a6725e648" target="_top" xlink:title="Validates a full simulation configuration and returns a detailed result.">
<polygon fill="white" stroke="#666666" points="306.5,-54 177.25,-54 177.25,-22 306.5,-22 306.5,-54"/>
<text xml:space="preserve" text-anchor="start" x="185.25" y="-40.5" font-family="Helvetica,sans-Serif" font-size="10.00">UPyranoEditorSubsystem</text>
<text xml:space="preserve" text-anchor="middle" x="241.88" y="-28.5" font-family="Helvetica,sans-Serif" font-size="10.00">::ValidateConfig</text>
</a>
</g>
</g>
<!-- Node1&#45;&gt;Node2 -->
<g id="edge1_Node000001_Node000002" class="edge">
<title>Node1&#45;&gt;Node2</title>
<g id="a_edge1_Node000001_Node000002"><a xlink:title=" ">
<path fill="none" stroke="#63b8ff" d="M330.79,-26.15C322.75,-27.24 314.63,-28.33 306.74,-29.39"/>
<polygon fill="#63b8ff" stroke="#63b8ff" points="331.13,-29.64 340.57,-24.83 330.19,-22.7 331.13,-29.64"/>
</a>
</g>
</g>
<!-- Node3 -->
<g id="Node000003" class="node">
<title>Node3</title>
<g id="a_Node000003"><a xlink:href="class_u_pyrano_editor_subsystem.html#a66b820c9aae05fb59340fae1abe43379" target="_top" xlink:title=" ">
<polygon fill="white" stroke="#666666" points="141.25,-32 0,-32 0,0 141.25,0 141.25,-32"/>
<text xml:space="preserve" text-anchor="start" x="8" y="-18.5" font-family="Helvetica,sans-Serif" font-size="10.00">UPyranoEditorSubsystem</text>
<text xml:space="preserve" text-anchor="middle" x="70.62" y="-6.5" font-family="Helvetica,sans-Serif" font-size="10.00">::~UPyranoEditorSubsystem</text>
</a>
</g>
</g>
<!-- Node1&#45;&gt;Node3 -->
<g id="edge3_Node000001_Node000003" class="edge">
<title>Node1&#45;&gt;Node3</title>
<g id="a_edge3_Node000001_Node000003"><a xlink:title=" ">
<path fill="none" stroke="#63b8ff" d="M330.63,-13.49C322.48,-13.29 314.32,-13.12 306.5,-13 249.06,-12.14 234.69,-12.18 177.25,-13 165.69,-13.16 153.43,-13.43 141.5,-13.74"/>
<polygon fill="#63b8ff" stroke="#63b8ff" points="330.49,-16.98 340.58,-13.75 330.67,-9.99 330.49,-16.98"/>
</a>
</g>
</g>
<!-- Node2&#45;&gt;Node3 -->
<g id="edge2_Node000002_Node000003" class="edge">
<title>Node2&#45;&gt;Node3</title>
<g id="a_edge2_Node000002_Node000003"><a xlink:title=" ">
<path fill="none" stroke="#63b8ff" d="M165.69,-28.23C157.69,-27.19 149.58,-26.13 141.64,-25.1"/>
<polygon fill="#63b8ff" stroke="#63b8ff" points="165.02,-31.67 175.39,-29.49 165.92,-24.73 165.02,-31.67"/>
</a>
</g>
</g>
</g>
</svg>
