<?xml version="1.0" encoding="UTF-8" standalone="no"?>
<!DOCTYPE svg PUBLIC "-//W3C//DTD SVG 1.1//EN"
 "http://www.w3.org/Graphics/SVG/1.1/DTD/svg11.dtd">
<!-- Generated by graphviz version 14.1.0 (20251206.1807)
 -->
<!-- Title: UIrradianceScheduler::StartSimulation Pages: 1 -->
<svg width="860pt" height="409pt"
 viewBox="0.00 0.00 860.00 409.00" xmlns="http://www.w3.org/2000/svg" xmlns:xlink="http://www.w3.org/1999/xlink">
<g id="graph0" class="graph" transform="scale(1 1) rotate(0) translate(4 405)">
<title>UIrradianceScheduler::StartSimulation</title>
<!-- Node1 -->
<g id="Node000001" class="node">
<title>Node1</title>
<g id="a_Node000001"><a xlink:title="Starts a full time&#45;series simulation using the given configuration.">
<polygon fill="#999999" stroke="#666666" points="109.75,-279 0,-279 0,-247 109.75,-247 109.75,-279"/>
<text xml:space="preserve" text-anchor="start" x="8" y="-265.5" font-family="Helvetica,sans-Serif" font-size="10.00">UIrradianceScheduler</text>
<text xml:space="preserve" text-anchor="middle" x="54.88" y="-253.5" font-family="Helvetica,sans-Serif" font-size="10.00">::StartSimulation</text>
</a>
</g>
</g>
<!-- Node2 -->
<g id="Node000002" class="node">
<title>Node2</title>
<g id="a_Node000002"><a xlink:href="class_u_irradiance_scheduler.html#add9a4a7b65080ccec4fd8a9546fe215f" target="_top" xlink:title="Builds the list of time slots between StartUTC and EndUTC (inclusive).">
<polygon fill="white" stroke="#666666" points="278,-401 168.25,-401 168.25,-369 278,-369 278,-401"/>
<text xml:space="preserve" text-anchor="start" x="176.25" y="-387.5" font-family="Helvetica,sans-Serif" font-size="10.00">UIrradianceScheduler</text>
<text xml:space="preserve" text-anchor="middle" x="223.12" y="-375.5" font-family="Helvetica,sans-Serif" font-size="10.00">::BuildTimeSlots</text>
</a>
</g>
</g>
<!-- Node1&#45;&gt;Node2 -->
<g id="edge1_Node000001_Node000002" class="edge">
<title>Node1&#45;&gt;Node2</title>
<g id="a_edge1_Node000001_Node000002"><a xlink:title=" ">
<path fill="none" stroke="#63b8ff" d="M67.01,-279.48C82.35,-300.95 111.92,-338.32 145.75,-360 149.48,-362.39 153.45,-364.57 157.56,-366.55"/>
<polygon fill="#63b8ff" stroke="#63b8ff" points="156.01,-369.7 166.57,-370.5 158.81,-363.28 156.01,-369.7"/>
</a>
</g>
</g>
<!-- Node3 -->
<g id="Node000003" class="node">
<title>Node3</title>
<g id="a_Node000003"><a xlink:href="class_u_irradiance_scheduler.html#ab0e6a156c26f9163303f503ddc2a31a7" target="_top" xlink:title="Immediately stops any ongoing capture or simulation and restores state.">
<polygon fill="white" stroke="#666666" points="278,-351 168.25,-351 168.25,-319 278,-319 278,-351"/>
<text xml:space="preserve" text-anchor="start" x="176.25" y="-337.5" font-family="Helvetica,sans-Serif" font-size="10.00">UIrradianceScheduler</text>
<text xml:space="preserve" text-anchor="middle" x="223.12" y="-325.5" font-family="Helvetica,sans-Serif" font-size="10.00">::ClearQueue</text>
</a>
</g>
</g>
<!-- Node1&#45;&gt;Node3 -->
<g id="edge2_Node000001_Node000003" class="edge">
<title>Node1&#45;&gt;Node3</title>
<g id="a_edge2_Node000001_Node000003"><a xlink:title=" ">
<path fill="none" stroke="#63b8ff" d="M84.43,-279.49C101.81,-289.12 124.66,-301.11 145.75,-310 149.57,-311.61 153.54,-313.19 157.57,-314.71"/>
<polygon fill="#63b8ff" stroke="#63b8ff" points="156.28,-317.97 166.87,-318.11 158.68,-311.39 156.28,-317.97"/>
</a>
</g>
</g>
<!-- Node4 -->
<g id="Node000004" class="node">
<title>Node4</title>
<g id="a_Node000004"><a xlink:href="class_u_irradiance_scheduler.html#a61d5fea9a087dfc36e58fc42e93ddf45" target="_top" xlink:title="Fills OutSensors with all active pyranometer components in this world.">
<polygon fill="white" stroke="#666666" points="278,-301 168.25,-301 168.25,-269 278,-269 278,-301"/>
<text xml:space="preserve" text-anchor="start" x="176.25" y="-287.5" font-family="Helvetica,sans-Serif" font-size="10.00">UIrradianceScheduler</text>
<text xml:space="preserve" text-anchor="middle" x="223.12" y="-275.5" font-family="Helvetica,sans-Serif" font-size="10.00">::GetActiveSensors</text>
</a>
</g>
</g>
<!-- Node1&#45;&gt;Node4 -->
<g id="edge3_Node000001_Node000004" class="edge">
<title>Node1&#45;&gt;Node4</title>
<g id="a_edge3_Node000001_Node000004"><a xlink:title=" ">
<path fill="none" stroke="#63b8ff" d="M109.85,-270.14C124.81,-272.12 141.2,-274.29 156.73,-276.35"/>
<polygon fill="#63b8ff" stroke="#63b8ff" points="155.98,-279.78 166.35,-277.62 156.9,-272.84 155.98,-279.78"/>
</a>
</g>
</g>
<!-- Node5 -->
<g id="Node000005" class="node">
<title>Node5</title>
<g id="a_Node000005"><a xlink:href="class_u_irradiance_scheduler.html#a2c93371fc51e45b8af73ce9b4d2c690a" target="_top" xlink:title="Launches the next capture for the current time slot and sensor index.">
<polygon fill="white" stroke="#666666" points="300.5,-150 145.75,-150 145.75,-118 300.5,-118 300.5,-150"/>
<text xml:space="preserve" text-anchor="start" x="153.75" y="-136.5" font-family="Helvetica,sans-Serif" font-size="10.00">UIrradianceScheduler</text>
<text xml:space="preserve" text-anchor="middle" x="223.12" y="-124.5" font-family="Helvetica,sans-Serif" font-size="10.00">::LaunchNextSimulationCapture</text>
</a>
</g>
</g>
<!-- Node1&#45;&gt;Node5 -->
<g id="edge4_Node000001_Node000005" class="edge">
<title>Node1&#45;&gt;Node5</title>
<g id="a_edge4_Node000001_Node000005"><a xlink:title=" ">
<path fill="none" stroke="#63b8ff" d="M74.87,-246.76C92.86,-231.51 120.77,-208.24 145.75,-189 159.84,-178.14 175.76,-166.57 189.41,-156.86"/>
<polygon fill="#63b8ff" stroke="#63b8ff" points="191.06,-159.97 197.2,-151.34 187.02,-154.26 191.06,-159.97"/>
</a>
</g>
</g>
<!-- Node7 -->
<g id="Node000007" class="node">
<title>Node7</title>
<g id="a_Node000007"><a xlink:href="class_u_irradiance_scheduler.html#ae8f8cd8bd9eccb9abdf17b9f023bea00" target="_top" xlink:title="Restores the viewport if it was previously forced.">
<polygon fill="white" stroke="#666666" points="663.25,-182 553.5,-182 553.5,-150 663.25,-150 663.25,-182"/>
<text xml:space="preserve" text-anchor="start" x="561.5" y="-168.5" font-family="Helvetica,sans-Serif" font-size="10.00">UIrradianceScheduler</text>
<text xml:space="preserve" text-anchor="middle" x="608.38" y="-156.5" font-family="Helvetica,sans-Serif" font-size="10.00">::RestoreViewport</text>
</a>
</g>
</g>
<!-- Node1&#45;&gt;Node7 -->
<g id="edge24_Node000001_Node000007" class="edge">
<title>Node1&#45;&gt;Node7</title>
<g id="a_edge24_Node000001_Node000007"><a xlink:title=" ">
<path fill="none" stroke="#63b8ff" d="M110.01,-253.48C211.98,-235.54 432.11,-196.83 542.08,-177.48"/>
<polygon fill="#63b8ff" stroke="#63b8ff" points="542.6,-180.95 551.84,-175.77 541.39,-174.05 542.6,-180.95"/>
</a>
</g>
</g>
<!-- Node16 -->
<g id="Node000016" class="node">
<title>Node16</title>
<g id="a_Node000016"><a xlink:href="class_u_irradiance_scheduler.html#a7ba28b0ad34fafcb3f525bb028459e01" target="_top" xlink:title="Prepares SunSky, export and viewport settings for a simulation.">
<polygon fill="white" stroke="#666666" points="475.5,-282 365.75,-282 365.75,-250 475.5,-250 475.5,-282"/>
<text xml:space="preserve" text-anchor="start" x="373.75" y="-268.5" font-family="Helvetica,sans-Serif" font-size="10.00">UIrradianceScheduler</text>
<text xml:space="preserve" text-anchor="middle" x="420.62" y="-256.5" font-family="Helvetica,sans-Serif" font-size="10.00">::PrepareSimulation</text>
</a>
</g>
</g>
<!-- Node1&#45;&gt;Node16 -->
<g id="edge18_Node000001_Node000016" class="edge">
<title>Node1&#45;&gt;Node16</title>
<g id="a_edge18_Node000001_Node000016"><a xlink:title=" ">
<path fill="none" stroke="#63b8ff" d="M110.05,-260.9C121.82,-260.52 134.2,-260.19 145.75,-260 214.52,-258.85 231.74,-258.27 300.5,-260 317.91,-260.44 336.73,-261.24 354.16,-262.11"/>
<polygon fill="#63b8ff" stroke="#63b8ff" points="353.71,-265.59 363.87,-262.61 354.07,-258.6 353.71,-265.59"/>
</a>
</g>
</g>
<!-- Node6 -->
<g id="Node000006" class="node">
<title>Node6</title>
<g id="a_Node000006"><a xlink:href="class_u_irradiance_scheduler.html#ab400b6f7f8c6768537088d0eca221f90" target="_top" xlink:title="Advances to the next time slot, or finalizes the simulation if finished.">
<polygon fill="white" stroke="#666666" points="488.62,-175 352.62,-175 352.62,-143 488.62,-143 488.62,-175"/>
<text xml:space="preserve" text-anchor="start" x="360.62" y="-161.5" font-family="Helvetica,sans-Serif" font-size="10.00">UIrradianceScheduler</text>
<text xml:space="preserve" text-anchor="middle" x="420.62" y="-149.5" font-family="Helvetica,sans-Serif" font-size="10.00">::AdvanceTimeSlotOrFinish</text>
</a>
</g>
</g>
<!-- Node5&#45;&gt;Node6 -->
<g id="edge5_Node000005_Node000006" class="edge">
<title>Node5&#45;&gt;Node6</title>
<g id="a_edge5_Node000005_Node000006"><a xlink:title=" ">
<path fill="none" stroke="#63b8ff" d="M300.83,-137.2C314.12,-138.72 327.95,-140.48 341.28,-142.35"/>
<polygon fill="#63b8ff" stroke="#63b8ff" points="340.44,-145.77 350.84,-143.73 341.44,-138.84 340.44,-145.77"/>
</a>
</g>
</g>
<!-- Node10 -->
<g id="Node000010" class="node">
<title>Node10</title>
<g id="a_Node000010"><a xlink:href="class_u_irradiance_scheduler.html#a4f3d8698a24d9ab3b2f5df9fcd4364e4" target="_top" xlink:title="Starts a six&#45;face capture for the given request.">
<polygon fill="white" stroke="#666666" points="475.5,-125 365.75,-125 365.75,-93 475.5,-93 475.5,-125"/>
<text xml:space="preserve" text-anchor="start" x="373.75" y="-111.5" font-family="Helvetica,sans-Serif" font-size="10.00">UIrradianceScheduler</text>
<text xml:space="preserve" text-anchor="middle" x="420.62" y="-99.5" font-family="Helvetica,sans-Serif" font-size="10.00">::LaunchCapture</text>
</a>
</g>
</g>
<!-- Node5&#45;&gt;Node10 -->
<g id="edge10_Node000005_Node000010" class="edge">
<title>Node5&#45;&gt;Node10</title>
<g id="a_edge10_Node000005_Node000010"><a xlink:title=" ">
<path fill="none" stroke="#63b8ff" d="M300.83,-124.19C318.56,-121.92 337.25,-119.53 354.43,-117.34"/>
<polygon fill="#63b8ff" stroke="#63b8ff" points="354.5,-120.86 363.98,-116.12 353.61,-113.91 354.5,-120.86"/>
</a>
</g>
</g>
<!-- Node12 -->
<g id="Node000012" class="node">
<title>Node12</title>
<g id="a_Node000012"><a xlink:href="class_u_irradiance_scheduler.html#ac45df7ef85d6d364e7724f7e853a32c6" target="_top" xlink:title="Builds a capture request for the given sensor and simulation settings.">
<polygon fill="white" stroke="#666666" points="475.5,-73 365.75,-73 365.75,-41 475.5,-41 475.5,-73"/>
<text xml:space="preserve" text-anchor="start" x="373.75" y="-59.5" font-family="Helvetica,sans-Serif" font-size="10.00">UIrradianceScheduler</text>
<text xml:space="preserve" text-anchor="middle" x="420.62" y="-47.5" font-family="Helvetica,sans-Serif" font-size="10.00">::MakeRequest</text>
</a>
</g>
</g>
<!-- Node5&#45;&gt;Node12 -->
<g id="edge13_Node000005_Node000012" class="edge">
<title>Node5&#45;&gt;Node12</title>
<g id="a_edge13_Node000005_Node000012"><a xlink:title=" ">
<path fill="none" stroke="#63b8ff" d="M258.66,-117.51C280.69,-107.27 309.98,-94.17 336.5,-84 342.58,-81.67 348.96,-79.36 355.36,-77.13"/>
<polygon fill="#63b8ff" stroke="#63b8ff" points="356.35,-80.49 364.69,-73.95 354.09,-73.86 356.35,-80.49"/>
</a>
</g>
</g>
<!-- Node15 -->
<g id="Node000015" class="node">
<title>Node15</title>
<g id="a_Node000015"><a xlink:href="struct_f_capture_request.html#a5283a5b56514b3ae55663480e05d7980" target="_top" xlink:title=" ">
<polygon fill="white" stroke="#666666" points="504.75,-20 336.5,-20 336.5,0 504.75,0 504.75,-20"/>
<text xml:space="preserve" text-anchor="middle" x="420.62" y="-6.5" font-family="Helvetica,sans-Serif" font-size="10.00">FCaptureRequest::WithTimestamp</text>
</a>
</g>
</g>
<!-- Node5&#45;&gt;Node15 -->
<g id="edge16_Node000005_Node000015" class="edge">
<title>Node5&#45;&gt;Node15</title>
<g id="a_edge16_Node000005_Node000015"><a xlink:title=" ">
<path fill="none" stroke="#63b8ff" d="M237.59,-117.6C257.06,-94.96 295.29,-54.4 336.5,-32 342.13,-28.94 348.21,-26.29 354.43,-23.99"/>
<polygon fill="#63b8ff" stroke="#63b8ff" points="355.17,-27.44 363.54,-20.94 352.94,-20.8 355.17,-27.44"/>
</a>
</g>
</g>
<!-- Node6&#45;&gt;Node5 -->
<g id="edge6_Node000006_Node000005" class="edge">
<title>Node6&#45;&gt;Node5</title>
<g id="a_edge6_Node000006_Node000005"><a xlink:title=" ">
<path fill="none" stroke="#63b8ff" d="M352.34,-156.85C339.37,-155.45 325.61,-153.78 312.1,-151.97"/>
<polygon fill="#63b8ff" stroke="#63b8ff" points="312.71,-148.52 302.33,-150.62 311.76,-155.46 312.71,-148.52"/>
</a>
</g>
</g>
<!-- Node6&#45;&gt;Node7 -->
<g id="edge7_Node000006_Node000007" class="edge">
<title>Node6&#45;&gt;Node7</title>
<g id="a_edge7_Node000006_Node000007"><a xlink:title=" ">
<path fill="none" stroke="#63b8ff" d="M488.95,-161.54C506.24,-162.19 524.81,-162.89 542,-163.54"/>
<polygon fill="#63b8ff" stroke="#63b8ff" points="541.43,-167.02 551.55,-163.9 541.69,-160.02 541.43,-167.02"/>
</a>
</g>
</g>
<!-- Node9 -->
<g id="Node000009" class="node">
<title>Node9</title>
<g id="a_Node000009"><a xlink:href="class_u_irradiance_scheduler.html#aebff31185ed2941c1c7abcc423e1b25a" target="_top" xlink:title="Sets the SunSky UTC time.">
<polygon fill="white" stroke="#666666" points="663.25,-232 553.5,-232 553.5,-200 663.25,-200 663.25,-232"/>
<text xml:space="preserve" text-anchor="start" x="561.5" y="-218.5" font-family="Helvetica,sans-Serif" font-size="10.00">UIrradianceScheduler</text>
<text xml:space="preserve" text-anchor="middle" x="608.38" y="-206.5" font-family="Helvetica,sans-Serif" font-size="10.00">::SetSunSkyUTC</text>
</a>
</g>
</g>
<!-- Node6&#45;&gt;Node9 -->
<g id="edge9_Node000006_Node000009" class="edge">
<title>Node6&#45;&gt;Node9</title>
<g id="a_edge9_Node000006_Node000009"><a xlink:title=" ">
<path fill="none" stroke="#63b8ff" d="M475.35,-175.49C496.43,-181.96 520.81,-189.44 542.83,-196.19"/>
<polygon fill="#63b8ff" stroke="#63b8ff" points="541.74,-199.52 552.32,-199.11 543.79,-192.83 541.74,-199.52"/>
</a>
</g>
</g>
<!-- Node8 -->
<g id="Node000008" class="node">
<title>Node8</title>
<g id="a_Node000008"><a xlink:href="class_u_irradiance_scheduler.html#a3a1998734dd679049d860179bf9b0222" target="_top" xlink:title="Ensures the IrradianceSubsystem pointer is valid for the current world.">
<polygon fill="white" stroke="#666666" points="836.75,-254 727,-254 727,-222 836.75,-222 836.75,-254"/>
<text xml:space="preserve" text-anchor="start" x="735" y="-240.5" font-family="Helvetica,sans-Serif" font-size="10.00">UIrradianceScheduler</text>
<text xml:space="preserve" text-anchor="middle" x="781.88" y="-228.5" font-family="Helvetica,sans-Serif" font-size="10.00">::EnsureSubsystem</text>
</a>
</g>
</g>
<!-- Node7&#45;&gt;Node8 -->
<g id="edge8_Node000007_Node000008" class="edge">
<title>Node7&#45;&gt;Node8</title>
<g id="a_edge8_Node000007_Node000008"><a xlink:title=" ">
<path fill="none" stroke="#63b8ff" d="M654.32,-182.43C661.6,-185.21 669.03,-188.13 676,-191 695.59,-199.06 716.97,-208.51 735.28,-216.82"/>
<polygon fill="#63b8ff" stroke="#63b8ff" points="733.75,-219.97 744.3,-220.94 736.65,-213.6 733.75,-219.97"/>
</a>
</g>
</g>
<!-- Node10&#45;&gt;Node8 -->
<g id="edge11_Node000010_Node000008" class="edge">
<title>Node10&#45;&gt;Node8</title>
<g id="a_edge11_Node000010_Node000008"><a xlink:title=" ">
<path fill="none" stroke="#63b8ff" d="M475.88,-106.43C529.25,-106.02 611.84,-111.13 676,-141 711.17,-157.38 742.52,-189.96 761.59,-212.83"/>
<polygon fill="#63b8ff" stroke="#63b8ff" points="758.78,-214.92 767.79,-220.49 764.21,-210.51 758.78,-214.92"/>
</a>
</g>
</g>
<!-- Node11 -->
<g id="Node000011" class="node">
<title>Node11</title>
<g id="a_Node000011"><a xlink:href="struct_f_capture_request.html#ab63ce8c8eadcb5393d9993aeab920660" target="_top" xlink:title=" ">
<polygon fill="white" stroke="#666666" points="676,-94 540.75,-94 540.75,-74 676,-74 676,-94"/>
<text xml:space="preserve" text-anchor="middle" x="608.38" y="-80.5" font-family="Helvetica,sans-Serif" font-size="10.00">FCaptureRequest::ToString</text>
</a>
</g>
</g>
<!-- Node10&#45;&gt;Node11 -->
<g id="edge12_Node000010_Node000011" class="edge">
<title>Node10&#45;&gt;Node11</title>
<g id="a_edge12_Node000010_Node000011"><a xlink:title=" ">
<path fill="none" stroke="#63b8ff" d="M475.85,-101.7C492.53,-99.46 511.24,-96.94 529.19,-94.52"/>
<polygon fill="#63b8ff" stroke="#63b8ff" points="529.61,-98 539.05,-93.2 528.67,-91.06 529.61,-98"/>
</a>
</g>
</g>
<!-- Node13 -->
<g id="Node000013" class="node">
<title>Node13</title>
<g id="a_Node000013"><a xlink:href="struct_f_capture_request.html#ae17362dae77f57d0c2245cecef01b38b" target="_top" xlink:title="Factory method.">
<polygon fill="white" stroke="#666666" points="670,-56 546.75,-56 546.75,-36 670,-36 670,-56"/>
<text xml:space="preserve" text-anchor="middle" x="608.38" y="-42.5" font-family="Helvetica,sans-Serif" font-size="10.00">FCaptureRequest::Make</text>
</a>
</g>
</g>
<!-- Node12&#45;&gt;Node13 -->
<g id="edge14_Node000012_Node000013" class="edge">
<title>Node12&#45;&gt;Node13</title>
<g id="a_edge14_Node000012_Node000013"><a xlink:title=" ">
<path fill="none" stroke="#63b8ff" d="M475.85,-53.79C494.38,-52.69 515.41,-51.45 535.13,-50.28"/>
<polygon fill="#63b8ff" stroke="#63b8ff" points="535.27,-53.78 545.05,-49.69 534.86,-46.79 535.27,-53.78"/>
</a>
</g>
</g>
<!-- Node14 -->
<g id="Node000014" class="node">
<title>Node14</title>
<g id="a_Node000014"><a xlink:href="struct_f_capture_request.html#ae828b8d1f7d31ecf6e4669f223f1ec5d" target="_top" xlink:title=" ">
<polygon fill="white" stroke="#666666" points="851.75,-43 712,-43 712,-11 851.75,-11 851.75,-43"/>
<text xml:space="preserve" text-anchor="start" x="720" y="-29.5" font-family="Helvetica,sans-Serif" font-size="10.00">FCaptureRequest::FCapture</text>
<text xml:space="preserve" text-anchor="middle" x="781.88" y="-17.5" font-family="Helvetica,sans-Serif" font-size="10.00">Request</text>
</a>
</g>
</g>
<!-- Node13&#45;&gt;Node14 -->
<g id="edge15_Node000013_Node000014" class="edge">
<title>Node13&#45;&gt;Node14</title>
<g id="a_edge15_Node000013_Node000014"><a xlink:title=" ">
<path fill="none" stroke="#63b8ff" d="M670.32,-39.25C680.05,-38.17 690.23,-37.04 700.33,-35.92"/>
<polygon fill="#63b8ff" stroke="#63b8ff" points="700.59,-39.42 710.15,-34.84 699.82,-32.46 700.59,-39.42"/>
</a>
</g>
</g>
<!-- Node15&#45;&gt;Node14 -->
<g id="edge17_Node000015_Node000014" class="edge">
<title>Node15&#45;&gt;Node14</title>
<g id="a_edge17_Node000015_Node000014"><a xlink:title=" ">
<path fill="none" stroke="#63b8ff" d="M504.95,-13.94C563.73,-16.72 642.05,-20.43 700.23,-23.18"/>
<polygon fill="#63b8ff" stroke="#63b8ff" points="699.92,-26.67 710.07,-23.65 700.25,-19.68 699.92,-26.67"/>
</a>
</g>
</g>
<!-- Node16&#45;&gt;Node8 -->
<g id="edge22_Node000016_Node000008" class="edge">
<title>Node16&#45;&gt;Node8</title>
<g id="a_edge22_Node000016_Node000008"><a xlink:title=" ">
<path fill="none" stroke="#63b8ff" d="M475.92,-281.57C527.91,-294.09 608.23,-307.15 676,-291 701.18,-285 727.16,-271.93 746.97,-260.27"/>
<polygon fill="#63b8ff" stroke="#63b8ff" points="748.7,-263.31 755.43,-255.13 745.06,-257.33 748.7,-263.31"/>
</a>
</g>
</g>
<!-- Node16&#45;&gt;Node9 -->
<g id="edge23_Node000016_Node000009" class="edge">
<title>Node16&#45;&gt;Node9</title>
<g id="a_edge23_Node000016_Node000009"><a xlink:title=" ">
<path fill="none" stroke="#63b8ff" d="M475.85,-251.4C496.55,-245.83 520.37,-239.42 542,-233.6"/>
<polygon fill="#63b8ff" stroke="#63b8ff" points="542.87,-236.99 551.62,-231.01 541.05,-230.23 542.87,-236.99"/>
</a>
</g>
</g>
<!-- Node17 -->
<g id="Node000017" class="node">
<title>Node17</title>
<g id="a_Node000017"><a xlink:href="class_u_irradiance_scheduler.html#ac09bb9a1d345e452696d7fab17cd0fa0" target="_top" xlink:title="Forces a square viewport suitable for the simulation/capture.">
<polygon fill="white" stroke="#666666" points="663.25,-370 553.5,-370 553.5,-338 663.25,-338 663.25,-370"/>
<text xml:space="preserve" text-anchor="start" x="561.5" y="-356.5" font-family="Helvetica,sans-Serif" font-size="10.00">UIrradianceScheduler</text>
<text xml:space="preserve" text-anchor="middle" x="608.38" y="-344.5" font-family="Helvetica,sans-Serif" font-size="10.00">::ApplyViewport</text>
</a>
</g>
</g>
<!-- Node16&#45;&gt;Node17 -->
<g id="edge19_Node000016_Node000017" class="edge">
<title>Node16&#45;&gt;Node17</title>
<g id="a_edge19_Node000016_Node000017"><a xlink:title=" ">
<path fill="none" stroke="#63b8ff" d="M454.62,-282.39C478.46,-294.16 511.48,-310.29 540.75,-324 547.01,-326.93 553.62,-329.97 560.15,-332.95"/>
<polygon fill="#63b8ff" stroke="#63b8ff" points="558.35,-335.97 568.9,-336.91 561.24,-329.6 558.35,-335.97"/>
</a>
</g>
</g>
<!-- Node18 -->
<g id="Node000018" class="node">
<title>Node18</title>
<g id="a_Node000018"><a xlink:href="class_u_irradiance_scheduler.html#aa40d1480cbc21302196ae1fc097457b7" target="_top" xlink:title="Applies static SunSky configuration (lat/lon/timezone/northoffset).">
<polygon fill="white" stroke="#666666" points="669.25,-282 547.5,-282 547.5,-250 669.25,-250 669.25,-282"/>
<text xml:space="preserve" text-anchor="start" x="555.5" y="-268.5" font-family="Helvetica,sans-Serif" font-size="10.00">UIrradianceScheduler</text>
<text xml:space="preserve" text-anchor="middle" x="608.38" y="-256.5" font-family="Helvetica,sans-Serif" font-size="10.00">::ConfigureSunSkyOnce</text>
</a>
</g>
</g>
<!-- Node16&#45;&gt;Node18 -->
<g id="edge21_Node000016_Node000018" class="edge">
<title>Node16&#45;&gt;Node18</title>
<g id="a_edge21_Node000016_Node000018"><a xlink:title=" ">
<path fill="none" stroke="#63b8ff" d="M475.85,-266C494.65,-266 516.01,-266 535.98,-266"/>
<polygon fill="#63b8ff" stroke="#63b8ff" points="535.71,-269.5 545.71,-266 535.71,-262.5 535.71,-269.5"/>
</a>
</g>
</g>
<!-- Node17&#45;&gt;Node8 -->
<g id="edge20_Node000017_Node000008" class="edge">
<title>Node17&#45;&gt;Node8</title>
<g id="a_edge20_Node000017_Node000008"><a xlink:title=" ">
<path fill="none" stroke="#63b8ff" d="M650.42,-337.57C659.09,-333.54 668.02,-328.95 676,-324 705.11,-305.95 735,-280.64 755.39,-262.16"/>
<polygon fill="#63b8ff" stroke="#63b8ff" points="757.67,-264.81 762.67,-255.47 752.93,-259.66 757.67,-264.81"/>
</a>
</g>
</g>
</g>
</svg>
