<?xml version="1.0" encoding="UTF-8" standalone="no"?>
<!DOCTYPE svg PUBLIC "-//W3C//DTD SVG 1.1//EN"
 "http://www.w3.org/Graphics/SVG/1.1/DTD/svg11.dtd">
<!-- Generated by graphviz version 14.1.0 (20251206.1807)
 -->
<!-- Title: UIrradianceScheduler::CaptureOnce Pages: 1 -->
<svg width="636pt" height="353pt"
 viewBox="0.00 0.00 636.00 353.00" xmlns="http://www.w3.org/2000/svg" xmlns:xlink="http://www.w3.org/1999/xlink">
<g id="graph0" class="graph" transform="scale(1 1) rotate(0) translate(4 349)">
<title>UIrradianceScheduler::CaptureOnce</title>
<!-- Node1 -->
<g id="Node000001" class="node">
<title>Node1</title>
<g id="a_Node000001"><a xlink:title="Captures irradiance once at Sim.StartTime for all active sensors.">
<polygon fill="#999999" stroke="#666666" points="109.75,-245 0,-245 0,-213 109.75,-213 109.75,-245"/>
<text xml:space="preserve" text-anchor="start" x="8" y="-231.5" font-family="Helvetica,sans-Serif" font-size="10.00">UIrradianceScheduler</text>
<text xml:space="preserve" text-anchor="middle" x="54.88" y="-219.5" font-family="Helvetica,sans-Serif" font-size="10.00">::CaptureOnce</text>
</a>
</g>
</g>
<!-- Node2 -->
<g id="Node000002" class="node">
<title>Node2</title>
<g id="a_Node000002"><a xlink:href="class_u_irradiance_scheduler.html#ab0e6a156c26f9163303f503ddc2a31a7" target="_top" xlink:title="Immediately stops any ongoing capture or simulation and restores state.">
<polygon fill="white" stroke="#666666" points="274.25,-345 164.5,-345 164.5,-313 274.25,-313 274.25,-345"/>
<text xml:space="preserve" text-anchor="start" x="172.5" y="-331.5" font-family="Helvetica,sans-Serif" font-size="10.00">UIrradianceScheduler</text>
<text xml:space="preserve" text-anchor="middle" x="219.38" y="-319.5" font-family="Helvetica,sans-Serif" font-size="10.00">::ClearQueue</text>
</a>
</g>
</g>
<!-- Node1&#45;&gt;Node2 -->
<g id="edge1_Node000001_Node000002" class="edge">
<title>Node1&#45;&gt;Node2</title>
<g id="a_edge1_Node000001_Node000002"><a xlink:title=" ">
<path fill="none" stroke="#63b8ff" d="M71.73,-245.37C88.7,-262.09 117.07,-287.83 145.75,-304 148.38,-305.48 151.12,-306.9 153.91,-308.25"/>
<polygon fill="#63b8ff" stroke="#63b8ff" points="152.32,-311.37 162.88,-312.24 155.16,-304.98 152.32,-311.37"/>
</a>
</g>
</g>
<!-- Node3 -->
<g id="Node000003" class="node">
<title>Node3</title>
<g id="a_Node000003"><a xlink:href="class_u_irradiance_scheduler.html#a61d5fea9a087dfc36e58fc42e93ddf45" target="_top" xlink:title="Fills OutSensors with all active pyranometer components in this world.">
<polygon fill="white" stroke="#666666" points="274.25,-295 164.5,-295 164.5,-263 274.25,-263 274.25,-295"/>
<text xml:space="preserve" text-anchor="start" x="172.5" y="-281.5" font-family="Helvetica,sans-Serif" font-size="10.00">UIrradianceScheduler</text>
<text xml:space="preserve" text-anchor="middle" x="219.38" y="-269.5" font-family="Helvetica,sans-Serif" font-size="10.00">::GetActiveSensors</text>
</a>
</g>
</g>
<!-- Node1&#45;&gt;Node3 -->
<g id="edge2_Node000001_Node000003" class="edge">
<title>Node1&#45;&gt;Node3</title>
<g id="a_edge2_Node000001_Node000003"><a xlink:title=" ">
<path fill="none" stroke="#63b8ff" d="M109.08,-245.37C123.46,-249.8 139.17,-254.63 154.08,-259.22"/>
<polygon fill="#63b8ff" stroke="#63b8ff" points="152.74,-262.46 163.32,-262.06 154.79,-255.77 152.74,-262.46"/>
</a>
</g>
</g>
<!-- Node4 -->
<g id="Node000004" class="node">
<title>Node4</title>
<g id="a_Node000004"><a xlink:href="class_u_irradiance_scheduler.html#add6eff6a074954268d370e6ab2d7a060" target="_top" xlink:title="Launches the next pending one&#45;shot capture request, or finalizes if none.">
<polygon fill="white" stroke="#666666" points="293,-245 145.75,-245 145.75,-213 293,-213 293,-245"/>
<text xml:space="preserve" text-anchor="start" x="153.75" y="-231.5" font-family="Helvetica,sans-Serif" font-size="10.00">UIrradianceScheduler</text>
<text xml:space="preserve" text-anchor="middle" x="219.38" y="-219.5" font-family="Helvetica,sans-Serif" font-size="10.00">::LaunchNextOneShotCapture</text>
</a>
</g>
</g>
<!-- Node1&#45;&gt;Node4 -->
<g id="edge3_Node000001_Node000004" class="edge">
<title>Node1&#45;&gt;Node4</title>
<g id="a_edge3_Node000001_Node000004"><a xlink:title=" ">
<path fill="none" stroke="#63b8ff" d="M109.99,-229C117.7,-229 125.79,-229 133.92,-229"/>
<polygon fill="#63b8ff" stroke="#63b8ff" points="133.9,-232.5 143.9,-229 133.9,-225.5 133.9,-232.5"/>
</a>
</g>
</g>
<!-- Node9 -->
<g id="Node000009" class="node">
<title>Node9</title>
<g id="a_Node000009"><a xlink:href="class_u_irradiance_scheduler.html#ac45df7ef85d6d364e7724f7e853a32c6" target="_top" xlink:title="Builds a capture request for the given sensor and simulation settings.">
<polygon fill="white" stroke="#666666" points="274.25,-79 164.5,-79 164.5,-47 274.25,-47 274.25,-79"/>
<text xml:space="preserve" text-anchor="start" x="172.5" y="-65.5" font-family="Helvetica,sans-Serif" font-size="10.00">UIrradianceScheduler</text>
<text xml:space="preserve" text-anchor="middle" x="219.38" y="-53.5" font-family="Helvetica,sans-Serif" font-size="10.00">::MakeRequest</text>
</a>
</g>
</g>
<!-- Node1&#45;&gt;Node9 -->
<g id="edge9_Node000001_Node000009" class="edge">
<title>Node1&#45;&gt;Node9</title>
<g id="a_edge9_Node000001_Node000009"><a xlink:title=" ">
<path fill="none" stroke="#63b8ff" d="M71.33,-212.57C89.13,-193.71 119.33,-161.9 145.75,-135 161.56,-118.9 179.56,-101.05 193.69,-87.15"/>
<polygon fill="#63b8ff" stroke="#63b8ff" points="195.76,-90.03 200.44,-80.52 190.85,-85.03 195.76,-90.03"/>
</a>
</g>
</g>
<!-- Node12 -->
<g id="Node000012" class="node">
<title>Node12</title>
<g id="a_Node000012"><a xlink:href="class_u_irradiance_scheduler.html#a7ba28b0ad34fafcb3f525bb028459e01" target="_top" xlink:title="Prepares SunSky, export and viewport settings for a simulation.">
<polygon fill="white" stroke="#666666" points="274.25,-176 164.5,-176 164.5,-144 274.25,-144 274.25,-176"/>
<text xml:space="preserve" text-anchor="start" x="172.5" y="-162.5" font-family="Helvetica,sans-Serif" font-size="10.00">UIrradianceScheduler</text>
<text xml:space="preserve" text-anchor="middle" x="219.38" y="-150.5" font-family="Helvetica,sans-Serif" font-size="10.00">::PrepareSimulation</text>
</a>
</g>
</g>
<!-- Node1&#45;&gt;Node12 -->
<g id="edge12_Node000001_Node000012" class="edge">
<title>Node1&#45;&gt;Node12</title>
<g id="a_edge12_Node000001_Node000012"><a xlink:title=" ">
<path fill="none" stroke="#63b8ff" d="M94.39,-212.65C116.79,-203.14 145.25,-191.05 169.25,-180.86"/>
<polygon fill="#63b8ff" stroke="#63b8ff" points="170.35,-184.2 178.18,-177.07 167.61,-177.75 170.35,-184.2"/>
</a>
</g>
</g>
<!-- Node5 -->
<g id="Node000005" class="node">
<title>Node5</title>
<g id="a_Node000005"><a xlink:href="class_u_irradiance_scheduler.html#a4f3d8698a24d9ab3b2f5df9fcd4364e4" target="_top" xlink:title="Starts a six&#45;face capture for the given request.">
<polygon fill="white" stroke="#666666" points="445.5,-314 335.75,-314 335.75,-282 445.5,-282 445.5,-314"/>
<text xml:space="preserve" text-anchor="start" x="343.75" y="-300.5" font-family="Helvetica,sans-Serif" font-size="10.00">UIrradianceScheduler</text>
<text xml:space="preserve" text-anchor="middle" x="390.62" y="-288.5" font-family="Helvetica,sans-Serif" font-size="10.00">::LaunchCapture</text>
</a>
</g>
</g>
<!-- Node4&#45;&gt;Node5 -->
<g id="edge4_Node000004_Node000005" class="edge">
<title>Node4&#45;&gt;Node5</title>
<g id="a_edge4_Node000004_Node000005"><a xlink:title=" ">
<path fill="none" stroke="#63b8ff" d="M271.16,-245.36C278.56,-248.07 286.02,-250.98 293,-254 309.6,-261.19 312.62,-265.32 329,-273 331.9,-274.36 334.89,-275.72 337.93,-277.07"/>
<polygon fill="#63b8ff" stroke="#63b8ff" points="336.35,-280.2 346.92,-280.97 339.14,-273.78 336.35,-280.2"/>
</a>
</g>
</g>
<!-- Node8 -->
<g id="Node000008" class="node">
<title>Node8</title>
<g id="a_Node000008"><a xlink:href="class_u_irradiance_scheduler.html#ae8f8cd8bd9eccb9abdf17b9f023bea00" target="_top" xlink:title="Restores the viewport if it was previously forced.">
<polygon fill="white" stroke="#666666" points="445.5,-264 335.75,-264 335.75,-232 445.5,-232 445.5,-264"/>
<text xml:space="preserve" text-anchor="start" x="343.75" y="-250.5" font-family="Helvetica,sans-Serif" font-size="10.00">UIrradianceScheduler</text>
<text xml:space="preserve" text-anchor="middle" x="390.62" y="-238.5" font-family="Helvetica,sans-Serif" font-size="10.00">::RestoreViewport</text>
</a>
</g>
</g>
<!-- Node4&#45;&gt;Node8 -->
<g id="edge7_Node000004_Node000008" class="edge">
<title>Node4&#45;&gt;Node8</title>
<g id="a_edge7_Node000004_Node000008"><a xlink:title=" ">
<path fill="none" stroke="#63b8ff" d="M293.13,-237.17C303.42,-238.32 313.94,-239.5 324.08,-240.64"/>
<polygon fill="#63b8ff" stroke="#63b8ff" points="323.5,-244.1 333.83,-241.74 324.28,-237.14 323.5,-244.1"/>
</a>
</g>
</g>
<!-- Node6 -->
<g id="Node000006" class="node">
<title>Node6</title>
<g id="a_Node000006"><a xlink:href="class_u_irradiance_scheduler.html#a3a1998734dd679049d860179bf9b0222" target="_top" xlink:title="Ensures the IrradianceSubsystem pointer is valid for the current world.">
<polygon fill="white" stroke="#666666" points="613,-242 503.25,-242 503.25,-210 613,-210 613,-242"/>
<text xml:space="preserve" text-anchor="start" x="511.25" y="-228.5" font-family="Helvetica,sans-Serif" font-size="10.00">UIrradianceScheduler</text>
<text xml:space="preserve" text-anchor="middle" x="558.12" y="-216.5" font-family="Helvetica,sans-Serif" font-size="10.00">::EnsureSubsystem</text>
</a>
</g>
</g>
<!-- Node5&#45;&gt;Node6 -->
<g id="edge5_Node000005_Node000006" class="edge">
<title>Node5&#45;&gt;Node6</title>
<g id="a_edge5_Node000005_Node000006"><a xlink:title=" ">
<path fill="none" stroke="#63b8ff" d="M431.81,-281.63C438.64,-278.79 445.66,-275.83 452.25,-273 471.56,-264.7 492.73,-255.27 510.96,-247.05"/>
<polygon fill="#63b8ff" stroke="#63b8ff" points="512.27,-250.3 519.95,-242.99 509.39,-243.92 512.27,-250.3"/>
</a>
</g>
</g>
<!-- Node7 -->
<g id="Node000007" class="node">
<title>Node7</title>
<g id="a_Node000007"><a xlink:href="struct_f_capture_request.html#ab63ce8c8eadcb5393d9993aeab920660" target="_top" xlink:title=" ">
<polygon fill="white" stroke="#666666" points="625.75,-308 490.5,-308 490.5,-288 625.75,-288 625.75,-308"/>
<text xml:space="preserve" text-anchor="middle" x="558.12" y="-294.5" font-family="Helvetica,sans-Serif" font-size="10.00">FCaptureRequest::ToString</text>
</a>
</g>
</g>
<!-- Node5&#45;&gt;Node7 -->
<g id="edge6_Node000005_Node000007" class="edge">
<title>Node5&#45;&gt;Node7</title>
<g id="a_edge6_Node000005_Node000007"><a xlink:title=" ">
<path fill="none" stroke="#63b8ff" d="M445.82,-298C456.31,-298 467.5,-298 478.6,-298"/>
<polygon fill="#63b8ff" stroke="#63b8ff" points="478.57,-301.5 488.57,-298 478.57,-294.5 478.57,-301.5"/>
</a>
</g>
</g>
<!-- Node8&#45;&gt;Node6 -->
<g id="edge8_Node000008_Node000006" class="edge">
<title>Node8&#45;&gt;Node6</title>
<g id="a_edge8_Node000008_Node000006"><a xlink:title=" ">
<path fill="none" stroke="#63b8ff" d="M445.82,-240.8C460.39,-238.86 476.31,-236.74 491.44,-234.73"/>
<polygon fill="#63b8ff" stroke="#63b8ff" points="491.86,-238.21 501.31,-233.42 490.94,-231.27 491.86,-238.21"/>
</a>
</g>
</g>
<!-- Node10 -->
<g id="Node000010" class="node">
<title>Node10</title>
<g id="a_Node000010"><a xlink:href="struct_f_capture_request.html#ae17362dae77f57d0c2245cecef01b38b" target="_top" xlink:title="Factory method.">
<polygon fill="white" stroke="#666666" points="452.25,-26 329,-26 329,-6 452.25,-6 452.25,-26"/>
<text xml:space="preserve" text-anchor="middle" x="390.62" y="-12.5" font-family="Helvetica,sans-Serif" font-size="10.00">FCaptureRequest::Make</text>
</a>
</g>
</g>
<!-- Node9&#45;&gt;Node10 -->
<g id="edge10_Node000009_Node000010" class="edge">
<title>Node9&#45;&gt;Node10</title>
<g id="a_edge10_Node000009_Node000010"><a xlink:title=" ">
<path fill="none" stroke="#63b8ff" d="M274.39,-48C295.8,-42.06 320.22,-35.27 341.05,-29.49"/>
<polygon fill="#63b8ff" stroke="#63b8ff" points="341.74,-32.93 350.44,-26.88 339.87,-26.18 341.74,-32.93"/>
</a>
</g>
</g>
<!-- Node11 -->
<g id="Node000011" class="node">
<title>Node11</title>
<g id="a_Node000011"><a xlink:href="struct_f_capture_request.html#ae828b8d1f7d31ecf6e4669f223f1ec5d" target="_top" xlink:title=" ">
<polygon fill="white" stroke="#666666" points="628,-32 488.25,-32 488.25,0 628,0 628,-32"/>
<text xml:space="preserve" text-anchor="start" x="496.25" y="-18.5" font-family="Helvetica,sans-Serif" font-size="10.00">FCaptureRequest::FCapture</text>
<text xml:space="preserve" text-anchor="middle" x="558.12" y="-6.5" font-family="Helvetica,sans-Serif" font-size="10.00">Request</text>
</a>
</g>
</g>
<!-- Node10&#45;&gt;Node11 -->
<g id="edge11_Node000010_Node000011" class="edge">
<title>Node10&#45;&gt;Node11</title>
<g id="a_edge11_Node000010_Node000011"><a xlink:title=" ">
<path fill="none" stroke="#63b8ff" d="M452.31,-16C460.15,-16 468.27,-16 476.37,-16"/>
<polygon fill="#63b8ff" stroke="#63b8ff" points="476.25,-19.5 486.25,-16 476.25,-12.5 476.25,-19.5"/>
</a>
</g>
</g>
<!-- Node12&#45;&gt;Node6 -->
<g id="edge16_Node000012_Node000006" class="edge">
<title>Node12&#45;&gt;Node6</title>
<g id="a_edge16_Node000012_Node000006"><a xlink:title=" ">
<path fill="none" stroke="#63b8ff" d="M274.69,-173.04C292.01,-177.06 311.27,-181.37 329,-185 383.69,-196.2 446.11,-207.3 491.81,-215.13"/>
<polygon fill="#63b8ff" stroke="#63b8ff" points="491.12,-218.56 501.56,-216.79 492.29,-211.66 491.12,-218.56"/>
</a>
</g>
</g>
<!-- Node13 -->
<g id="Node000013" class="node">
<title>Node13</title>
<g id="a_Node000013"><a xlink:href="class_u_irradiance_scheduler.html#ac09bb9a1d345e452696d7fab17cd0fa0" target="_top" xlink:title="Forces a square viewport suitable for the simulation/capture.">
<polygon fill="white" stroke="#666666" points="445.5,-176 335.75,-176 335.75,-144 445.5,-144 445.5,-176"/>
<text xml:space="preserve" text-anchor="start" x="343.75" y="-162.5" font-family="Helvetica,sans-Serif" font-size="10.00">UIrradianceScheduler</text>
<text xml:space="preserve" text-anchor="middle" x="390.62" y="-150.5" font-family="Helvetica,sans-Serif" font-size="10.00">::ApplyViewport</text>
</a>
</g>
</g>
<!-- Node12&#45;&gt;Node13 -->
<g id="edge13_Node000012_Node000013" class="edge">
<title>Node12&#45;&gt;Node13</title>
<g id="a_edge13_Node000012_Node000013"><a xlink:title=" ">
<path fill="none" stroke="#63b8ff" d="M274.39,-160C290.19,-160 307.64,-160 324.07,-160"/>
<polygon fill="#63b8ff" stroke="#63b8ff" points="323.74,-163.5 333.74,-160 323.74,-156.5 323.74,-163.5"/>
</a>
</g>
</g>
<!-- Node14 -->
<g id="Node000014" class="node">
<title>Node14</title>
<g id="a_Node000014"><a xlink:href="class_u_irradiance_scheduler.html#aa40d1480cbc21302196ae1fc097457b7" target="_top" xlink:title="Applies static SunSky configuration (lat/lon/timezone/northoffset).">
<polygon fill="white" stroke="#666666" points="451.5,-126 329.75,-126 329.75,-94 451.5,-94 451.5,-126"/>
<text xml:space="preserve" text-anchor="start" x="337.75" y="-112.5" font-family="Helvetica,sans-Serif" font-size="10.00">UIrradianceScheduler</text>
<text xml:space="preserve" text-anchor="middle" x="390.62" y="-100.5" font-family="Helvetica,sans-Serif" font-size="10.00">::ConfigureSunSkyOnce</text>
</a>
</g>
</g>
<!-- Node12&#45;&gt;Node14 -->
<g id="edge15_Node000012_Node000014" class="edge">
<title>Node12&#45;&gt;Node14</title>
<g id="a_edge15_Node000012_Node000014"><a xlink:title=" ">
<path fill="none" stroke="#63b8ff" d="M274.39,-144.04C289.8,-139.49 306.77,-134.48 322.84,-129.73"/>
<polygon fill="#63b8ff" stroke="#63b8ff" points="323.74,-133.11 332.34,-126.92 321.76,-126.4 323.74,-133.11"/>
</a>
</g>
</g>
<!-- Node15 -->
<g id="Node000015" class="node">
<title>Node15</title>
<g id="a_Node000015"><a xlink:href="class_u_irradiance_scheduler.html#aebff31185ed2941c1c7abcc423e1b25a" target="_top" xlink:title="Sets the SunSky UTC time.">
<polygon fill="white" stroke="#666666" points="445.5,-76 335.75,-76 335.75,-44 445.5,-44 445.5,-76"/>
<text xml:space="preserve" text-anchor="start" x="343.75" y="-62.5" font-family="Helvetica,sans-Serif" font-size="10.00">UIrradianceScheduler</text>
<text xml:space="preserve" text-anchor="middle" x="390.62" y="-50.5" font-family="Helvetica,sans-Serif" font-size="10.00">::SetSunSkyUTC</text>
</a>
</g>
</g>
<!-- Node12&#45;&gt;Node15 -->
<g id="edge17_Node000012_Node000015" class="edge">
<title>Node12&#45;&gt;Node15</title>
<g id="a_edge17_Node000012_Node000015"><a xlink:title=" ">
<path fill="none" stroke="#63b8ff" d="M241.15,-143.65C262.4,-127.43 296.78,-102.51 329,-85 331.36,-83.72 333.81,-82.46 336.3,-81.23"/>
<polygon fill="#63b8ff" stroke="#63b8ff" points="337.75,-84.41 345.32,-77 334.78,-78.07 337.75,-84.41"/>
</a>
</g>
</g>
<!-- Node13&#45;&gt;Node6 -->
<g id="edge14_Node000013_Node000006" class="edge">
<title>Node13&#45;&gt;Node6</title>
<g id="a_edge14_Node000013_Node000006"><a xlink:title=" ">
<path fill="none" stroke="#63b8ff" d="M432.96,-176.48C454.96,-185.26 482.23,-196.13 505.6,-205.45"/>
<polygon fill="#63b8ff" stroke="#63b8ff" points="504.04,-208.6 514.62,-209.05 506.63,-202.1 504.04,-208.6"/>
</a>
</g>
</g>
</g>
</svg>
