<?xml version="1.0" encoding="UTF-8" standalone="no"?>
<!DOCTYPE svg PUBLIC "-//W3C//DTD SVG 1.1//EN"
 "http://www.w3.org/Graphics/SVG/1.1/DTD/svg11.dtd">
<!-- Generated by graphviz version 14.1.0 (20251206.1807)
 -->
<!-- Title: FPyranoConsoleLogSink::Serialize Pages: 1 -->
<svg width="485pt" height="40pt"
 viewBox="0.00 0.00 485.00 40.00" xmlns="http://www.w3.org/2000/svg" xmlns:xlink="http://www.w3.org/1999/xlink">
<g id="graph0" class="graph" transform="scale(1 1) rotate(0) translate(4 36)">
<title>FPyranoConsoleLogSink::Serialize</title>
<!-- Node1 -->
<g id="Node000001" class="node">
<title>Node1</title>
<g id="a_Node000001"><a xlink:title=" ">
<polygon fill="#999999" stroke="#666666" points="124,-32 0,-32 0,0 124,0 124,-32"/>
<text xml:space="preserve" text-anchor="start" x="8" y="-18.5" font-family="Helvetica,sans-Serif" font-size="10.00">FPyranoConsoleLogSink</text>
<text xml:space="preserve" text-anchor="middle" x="62" y="-6.5" font-family="Helvetica,sans-Serif" font-size="10.00">::Serialize</text>
</a>
</g>
</g>
<!-- Node2 -->
<g id="Node000002" class="node">
<title>Node2</title>
<g id="a_Node000002"><a xlink:href="namespace_irradiance_common_1_1_console.html#a5b00949ee3f78394587a3b4cc23391a7" target="_top" xlink:title="Returns true if a log entry for the given category / verbosity should be forwarded to the engine cons...">
<polygon fill="white" stroke="#666666" points="300.5,-32 160,-32 160,0 300.5,0 300.5,-32"/>
<text xml:space="preserve" text-anchor="start" x="168" y="-18.5" font-family="Helvetica,sans-Serif" font-size="10.00">IrradianceCommon::Console</text>
<text xml:space="preserve" text-anchor="middle" x="230.25" y="-6.5" font-family="Helvetica,sans-Serif" font-size="10.00">::ShouldForwardToConsole</text>
</a>
</g>
</g>
<!-- Node1&#45;&gt;Node2 -->
<g id="edge1_Node000001_Node000002" class="edge">
<title>Node1&#45;&gt;Node2</title>
<g id="a_edge1_Node000001_Node000002"><a xlink:title=" ">
<path fill="none" stroke="#63b8ff" d="M124.43,-16C132.23,-16 140.3,-16 148.34,-16"/>
<polygon fill="#63b8ff" stroke="#63b8ff" points="148.15,-19.5 158.15,-16 148.15,-12.5 148.15,-19.5"/>
</a>
</g>
</g>
<!-- Node3 -->
<g id="Node000003" class="node">
<title>Node3</title>
<g id="a_Node000003"><a xlink:href="namespace_irradiance_common_1_1_console.html#a413e99873dadaa8b357090c4d48e526b" target="_top" xlink:title="Set &#45; Get.">
<polygon fill="white" stroke="#666666" points="477,-32 336.5,-32 336.5,0 477,0 477,-32"/>
<text xml:space="preserve" text-anchor="start" x="344.5" y="-18.5" font-family="Helvetica,sans-Serif" font-size="10.00">IrradianceCommon::Console</text>
<text xml:space="preserve" text-anchor="middle" x="406.75" y="-6.5" font-family="Helvetica,sans-Serif" font-size="10.00">::GetConsoleVerbosityLimit</text>
</a>
</g>
</g>
<!-- Node2&#45;&gt;Node3 -->
<g id="edge2_Node000002_Node000003" class="edge">
<title>Node2&#45;&gt;Node3</title>
<g id="a_edge2_Node000002_Node000003"><a xlink:title=" ">
<path fill="none" stroke="#63b8ff" d="M300.97,-16C308.75,-16 316.73,-16 324.63,-16"/>
<polygon fill="#63b8ff" stroke="#63b8ff" points="324.63,-19.5 334.63,-16 324.63,-12.5 324.63,-19.5"/>
</a>
</g>
</g>
</g>
</svg>
