<?xml version="1.0" encoding="UTF-8" standalone="no"?>
<!DOCTYPE svg PUBLIC "-//W3C//DTD SVG 1.1//EN"
 "http://www.w3.org/Graphics/SVG/1.1/DTD/svg11.dtd">
<!-- Generated by graphviz version 14.1.0 (20251206.1807)
 -->
<!-- Title: UConsoleLogWidget::ToggleShowVerbose Pages: 1 -->
<svg width="297pt" height="90pt"
 viewBox="0.00 0.00 297.00 90.00" xmlns="http://www.w3.org/2000/svg" xmlns:xlink="http://www.w3.org/1999/xlink">
<g id="graph0" class="graph" transform="scale(1 1) rotate(0) translate(4 86)">
<title>UConsoleLogWidget::ToggleShowVerbose</title>
<!-- Node1 -->
<g id="Node000001" class="node">
<title>Node1</title>
<g id="a_Node000001"><a xlink:title=" ">
<polygon fill="#999999" stroke="#666666" points="112,-57 0,-57 0,-25 112,-25 112,-57"/>
<text xml:space="preserve" text-anchor="start" x="8" y="-43.5" font-family="Helvetica,sans-Serif" font-size="10.00">UConsoleLogWidget::</text>
<text xml:space="preserve" text-anchor="middle" x="56" y="-31.5" font-family="Helvetica,sans-Serif" font-size="10.00">ToggleShowVerbose</text>
</a>
</g>
</g>
<!-- Node2 -->
<g id="Node000002" class="node">
<title>Node2</title>
<g id="a_Node000002"><a xlink:href="namespace_irradiance_common_1_1_console.html#a413e99873dadaa8b357090c4d48e526b" target="_top" xlink:title="Set &#45; Get.">
<polygon fill="white" stroke="#666666" points="288.5,-82 148,-82 148,-50 288.5,-50 288.5,-82"/>
<text xml:space="preserve" text-anchor="start" x="156" y="-68.5" font-family="Helvetica,sans-Serif" font-size="10.00">IrradianceCommon::Console</text>
<text xml:space="preserve" text-anchor="middle" x="218.25" y="-56.5" font-family="Helvetica,sans-Serif" font-size="10.00">::GetConsoleVerbosityLimit</text>
</a>
</g>
</g>
<!-- Node1&#45;&gt;Node2 -->
<g id="edge1_Node000001_Node000002" class="edge">
<title>Node1&#45;&gt;Node2</title>
<g id="a_edge1_Node000001_Node000002"><a xlink:title=" ">
<path fill="none" stroke="#63b8ff" d="M112.15,-49.6C119.99,-50.83 128.19,-52.11 136.4,-53.39"/>
<polygon fill="#63b8ff" stroke="#63b8ff" points="135.65,-56.81 146.07,-54.9 136.73,-49.9 135.65,-56.81"/>
</a>
</g>
</g>
<!-- Node3 -->
<g id="Node000003" class="node">
<title>Node3</title>
<g id="a_Node000003"><a xlink:href="namespace_irradiance_common_1_1_console.html#aa42053d9f39d75e15f93229d3f047af7" target="_top" xlink:title=" ">
<polygon fill="white" stroke="#666666" points="288.5,-32 148,-32 148,0 288.5,0 288.5,-32"/>
<text xml:space="preserve" text-anchor="start" x="156" y="-18.5" font-family="Helvetica,sans-Serif" font-size="10.00">IrradianceCommon::Console</text>
<text xml:space="preserve" text-anchor="middle" x="218.25" y="-6.5" font-family="Helvetica,sans-Serif" font-size="10.00">::SetConsoleVerbosityLimit</text>
</a>
</g>
</g>
<!-- Node1&#45;&gt;Node3 -->
<g id="edge2_Node000001_Node000003" class="edge">
<title>Node1&#45;&gt;Node3</title>
<g id="a_edge2_Node000001_Node000003"><a xlink:title=" ">
<path fill="none" stroke="#63b8ff" d="M112.15,-32.4C119.99,-31.17 128.19,-29.89 136.4,-28.61"/>
<polygon fill="#63b8ff" stroke="#63b8ff" points="136.73,-32.1 146.07,-27.1 135.65,-25.19 136.73,-32.1"/>
</a>
</g>
</g>
</g>
</svg>
