<?xml version="1.0" encoding="UTF-8" standalone="no"?>
<!DOCTYPE svg PUBLIC "-//W3C//DTD SVG 1.1//EN"
 "http://www.w3.org/Graphics/SVG/1.1/DTD/svg11.dtd">
<!-- Generated by graphviz version 14.1.0 (20251206.1807)
 -->
<!-- Title: USunSkyController::SetUTC Pages: 1 -->
<svg width="398pt" height="140pt"
 viewBox="0.00 0.00 398.00 140.00" xmlns="http://www.w3.org/2000/svg" xmlns:xlink="http://www.w3.org/1999/xlink">
<g id="graph0" class="graph" transform="scale(1 1) rotate(0) translate(4 136)">
<title>USunSkyController::SetUTC</title>
<!-- Node1 -->
<g id="Node000001" class="node">
<title>Node1</title>
<g id="a_Node000001"><a xlink:title="Sets the SunSky date and time from a UTC timestamp(applies configured timezone).">
<polygon fill="#999999" stroke="#666666" points="106,-82 0,-82 0,-50 106,-50 106,-82"/>
<text xml:space="preserve" text-anchor="start" x="8" y="-68.5" font-family="Helvetica,sans-Serif" font-size="10.00">USunSkyController::</text>
<text xml:space="preserve" text-anchor="middle" x="53" y="-56.5" font-family="Helvetica,sans-Serif" font-size="10.00">SetUTC</text>
</a>
</g>
</g>
<!-- Node2 -->
<g id="Node000002" class="node">
<title>Node2</title>
<g id="a_Node000002"><a xlink:href="class_u_sun_sky_controller.html#a0822748f97e63e40b3da612e27083596" target="_top" xlink:title="Returns the cached SunSky actor or performs a search if missing.">
<polygon fill="white" stroke="#666666" points="248,-132 142,-132 142,-100 248,-100 248,-132"/>
<text xml:space="preserve" text-anchor="start" x="150" y="-118.5" font-family="Helvetica,sans-Serif" font-size="10.00">USunSkyController::</text>
<text xml:space="preserve" text-anchor="middle" x="195" y="-106.5" font-family="Helvetica,sans-Serif" font-size="10.00">EnsureSunSky</text>
</a>
</g>
</g>
<!-- Node1&#45;&gt;Node2 -->
<g id="edge1_Node000001_Node000002" class="edge">
<title>Node1&#45;&gt;Node2</title>
<g id="a_edge1_Node000001_Node000002"><a xlink:title=" ">
<path fill="none" stroke="#63b8ff" d="M99.84,-82.37C111.81,-86.65 124.85,-91.3 137.3,-95.75"/>
<polygon fill="#63b8ff" stroke="#63b8ff" points="136.04,-99.01 146.63,-99.08 138.39,-92.42 136.04,-99.01"/>
</a>
</g>
</g>
<!-- Node4 -->
<g id="Node000004" class="node">
<title>Node4</title>
<g id="a_Node000004"><a xlink:href="class_u_sun_sky_controller.html#a3407324f01e3d69835fbf3bd88228269" target="_top" xlink:title="Pushes date and solar&#45;time fields into the SunSky actor from UTC.">
<polygon fill="white" stroke="#666666" points="248,-82 142,-82 142,-50 248,-50 248,-82"/>
<text xml:space="preserve" text-anchor="start" x="150" y="-68.5" font-family="Helvetica,sans-Serif" font-size="10.00">USunSkyController::</text>
<text xml:space="preserve" text-anchor="middle" x="195" y="-56.5" font-family="Helvetica,sans-Serif" font-size="10.00">PushDateTime</text>
</a>
</g>
</g>
<!-- Node1&#45;&gt;Node4 -->
<g id="edge3_Node000001_Node000004" class="edge">
<title>Node1&#45;&gt;Node4</title>
<g id="a_edge3_Node000001_Node000004"><a xlink:title=" ">
<path fill="none" stroke="#63b8ff" d="M106.13,-66C114.06,-66 122.31,-66 130.45,-66"/>
<polygon fill="#63b8ff" stroke="#63b8ff" points="130.31,-69.5 140.31,-66 130.31,-62.5 130.31,-69.5"/>
</a>
</g>
</g>
<!-- Node7 -->
<g id="Node000007" class="node">
<title>Node7</title>
<g id="a_Node000007"><a xlink:href="class_u_sun_sky_controller.html#aec6250d1b06d7ef7680381ff48eee79a" target="_top" xlink:title="Forces SunSky to rebuild via RerunConstructionScripts.">
<polygon fill="white" stroke="#666666" points="248,-32 142,-32 142,0 248,0 248,-32"/>
<text xml:space="preserve" text-anchor="start" x="150" y="-18.5" font-family="Helvetica,sans-Serif" font-size="10.00">USunSkyController::</text>
<text xml:space="preserve" text-anchor="middle" x="195" y="-6.5" font-family="Helvetica,sans-Serif" font-size="10.00">UpdateSun</text>
</a>
</g>
</g>
<!-- Node1&#45;&gt;Node7 -->
<g id="edge6_Node000001_Node000007" class="edge">
<title>Node1&#45;&gt;Node7</title>
<g id="a_edge6_Node000001_Node000007"><a xlink:title=" ">
<path fill="none" stroke="#63b8ff" d="M99.84,-49.63C111.81,-45.35 124.85,-40.7 137.3,-36.25"/>
<polygon fill="#63b8ff" stroke="#63b8ff" points="138.39,-39.58 146.63,-32.92 136.04,-32.99 138.39,-39.58"/>
</a>
</g>
</g>
<!-- Node3 -->
<g id="Node000003" class="node">
<title>Node3</title>
<g id="a_Node000003"><a xlink:href="class_u_sun_sky_controller.html#ab00403c7bab9f7bae3d57baa941146b6" target="_top" xlink:title="Locates a SunSky actor in the world (by tag or name).">
<polygon fill="white" stroke="#666666" points="390,-132 284,-132 284,-100 390,-100 390,-132"/>
<text xml:space="preserve" text-anchor="start" x="292" y="-118.5" font-family="Helvetica,sans-Serif" font-size="10.00">USunSkyController::</text>
<text xml:space="preserve" text-anchor="middle" x="337" y="-106.5" font-family="Helvetica,sans-Serif" font-size="10.00">FindSunSkyActor</text>
</a>
</g>
</g>
<!-- Node2&#45;&gt;Node3 -->
<g id="edge2_Node000002_Node000003" class="edge">
<title>Node2&#45;&gt;Node3</title>
<g id="a_edge2_Node000002_Node000003"><a xlink:title=" ">
<path fill="none" stroke="#63b8ff" d="M248.13,-116C256.06,-116 264.31,-116 272.45,-116"/>
<polygon fill="#63b8ff" stroke="#63b8ff" points="272.31,-119.5 282.31,-116 272.31,-112.5 272.31,-119.5"/>
</a>
</g>
</g>
<!-- Node5 -->
<g id="Node000005" class="node">
<title>Node5</title>
<g id="a_Node000005"><a xlink:href="class_u_sun_sky_controller.html#abe72ea57cbb6fbfc2a6a3990631800fa" target="_top" xlink:title=" ">
<polygon fill="white" stroke="#666666" points="390,-82 284,-82 284,-50 390,-50 390,-82"/>
<text xml:space="preserve" text-anchor="start" x="292" y="-68.5" font-family="Helvetica,sans-Serif" font-size="10.00">USunSkyController::</text>
<text xml:space="preserve" text-anchor="middle" x="337" y="-56.5" font-family="Helvetica,sans-Serif" font-size="10.00">SetDoubleProp</text>
</a>
</g>
</g>
<!-- Node4&#45;&gt;Node5 -->
<g id="edge4_Node000004_Node000005" class="edge">
<title>Node4&#45;&gt;Node5</title>
<g id="a_edge4_Node000004_Node000005"><a xlink:title=" ">
<path fill="none" stroke="#63b8ff" d="M248.13,-66C256.06,-66 264.31,-66 272.45,-66"/>
<polygon fill="#63b8ff" stroke="#63b8ff" points="272.31,-69.5 282.31,-66 272.31,-62.5 272.31,-69.5"/>
</a>
</g>
</g>
<!-- Node6 -->
<g id="Node000006" class="node">
<title>Node6</title>
<g id="a_Node000006"><a xlink:href="class_u_sun_sky_controller.html#a679b38217e46d510a2b1543bd1f89b3a" target="_top" xlink:title=" ">
<polygon fill="white" stroke="#666666" points="390,-32 284,-32 284,0 390,0 390,-32"/>
<text xml:space="preserve" text-anchor="start" x="292" y="-18.5" font-family="Helvetica,sans-Serif" font-size="10.00">USunSkyController::</text>
<text xml:space="preserve" text-anchor="middle" x="337" y="-6.5" font-family="Helvetica,sans-Serif" font-size="10.00">SetIntProp</text>
</a>
</g>
</g>
<!-- Node4&#45;&gt;Node6 -->
<g id="edge5_Node000004_Node000006" class="edge">
<title>Node4&#45;&gt;Node6</title>
<g id="a_edge5_Node000004_Node000006"><a xlink:title=" ">
<path fill="none" stroke="#63b8ff" d="M241.84,-49.63C253.81,-45.35 266.85,-40.7 279.3,-36.25"/>
<polygon fill="#63b8ff" stroke="#63b8ff" points="280.39,-39.58 288.63,-32.92 278.04,-32.99 280.39,-39.58"/>
</a>
</g>
</g>
</g>
</svg>
