<?xml version="1.0" encoding="UTF-8" standalone="no"?>
<!DOCTYPE svg PUBLIC "-//W3C//DTD SVG 1.1//EN"
 "http://www.w3.org/Graphics/SVG/1.1/DTD/svg11.dtd">
<!-- Generated by graphviz version 14.1.0 (20251206.1807)
 -->
<!-- Title: UIrradianceSubsystem::StartFaceCapture Pages: 1 -->
<svg width="427pt" height="90pt"
 viewBox="0.00 0.00 427.00 90.00" xmlns="http://www.w3.org/2000/svg" xmlns:xlink="http://www.w3.org/1999/xlink">
<g id="graph0" class="graph" transform="scale(1 1) rotate(0) translate(4 86)">
<title>UIrradianceSubsystem::StartFaceCapture</title>
<!-- Node1 -->
<g id="Node000001" class="node">
<title>Node1</title>
<g id="a_Node000001"><a xlink:title="Start capture of a single face at PosWS / RotWS.">
<polygon fill="#999999" stroke="#666666" points="419.25,-57 303.5,-57 303.5,-25 419.25,-25 419.25,-57"/>
<text xml:space="preserve" text-anchor="start" x="311.5" y="-43.5" font-family="Helvetica,sans-Serif" font-size="10.00">UIrradianceSubsystem</text>
<text xml:space="preserve" text-anchor="middle" x="361.38" y="-31.5" font-family="Helvetica,sans-Serif" font-size="10.00">::StartFaceCapture</text>
</a>
</g>
</g>
<!-- Node2 -->
<g id="Node000002" class="node">
<title>Node2</title>
<g id="a_Node000002"><a xlink:href="class_u_irradiance_subsystem.html#a1ea6ae410e0b596d1500aeacaf2b2110" target="_top" xlink:title="Begin a new 6&#45;face capture using the given request description.">
<polygon fill="white" stroke="#666666" points="267.5,-82 151.75,-82 151.75,-50 267.5,-50 267.5,-82"/>
<text xml:space="preserve" text-anchor="start" x="159.75" y="-68.5" font-family="Helvetica,sans-Serif" font-size="10.00">UIrradianceSubsystem</text>
<text xml:space="preserve" text-anchor="middle" x="209.62" y="-56.5" font-family="Helvetica,sans-Serif" font-size="10.00">::StartSixFaceCapture</text>
</a>
</g>
</g>
<!-- Node1&#45;&gt;Node2 -->
<g id="edge1_Node000001_Node000002" class="edge">
<title>Node1&#45;&gt;Node2</title>
<g id="a_edge1_Node000001_Node000002"><a xlink:title=" ">
<path fill="none" stroke="#63b8ff" d="M292.19,-52.38C283.93,-53.76 275.57,-55.16 267.51,-56.5"/>
<polygon fill="#63b8ff" stroke="#63b8ff" points="292.55,-55.87 301.84,-50.77 291.4,-48.97 292.55,-55.87"/>
</a>
</g>
</g>
<!-- Node3 -->
<g id="Node000003" class="node">
<title>Node3</title>
<g id="a_Node000003"><a xlink:href="class_u_irradiance_subsystem.html#afec011af7207461bc6c02e2c03e06bc3" target="_top" xlink:title="Handle per&#45;frame logic while faces are being captured.">
<polygon fill="white" stroke="#666666" points="267.5,-32 151.75,-32 151.75,0 267.5,0 267.5,-32"/>
<text xml:space="preserve" text-anchor="start" x="159.75" y="-18.5" font-family="Helvetica,sans-Serif" font-size="10.00">UIrradianceSubsystem</text>
<text xml:space="preserve" text-anchor="middle" x="209.62" y="-6.5" font-family="Helvetica,sans-Serif" font-size="10.00">::TickCapturing</text>
</a>
</g>
</g>
<!-- Node1&#45;&gt;Node3 -->
<g id="edge2_Node000001_Node000003" class="edge">
<title>Node1&#45;&gt;Node3</title>
<g id="a_edge2_Node000001_Node000003"><a xlink:title=" ">
<path fill="none" stroke="#63b8ff" d="M292.19,-29.62C283.93,-28.24 275.57,-26.84 267.51,-25.5"/>
<polygon fill="#63b8ff" stroke="#63b8ff" points="291.4,-33.03 301.84,-31.23 292.55,-26.13 291.4,-33.03"/>
</a>
</g>
</g>
<!-- Node4 -->
<g id="Node000004" class="node">
<title>Node4</title>
<g id="a_Node000004"><a xlink:href="class_u_irradiance_subsystem.html#ad3336fe0d04f79cf1c1eb2ecdb226325" target="_top" xlink:title=" ">
<polygon fill="white" stroke="#666666" points="115.75,-32 0,-32 0,0 115.75,0 115.75,-32"/>
<text xml:space="preserve" text-anchor="start" x="8" y="-18.5" font-family="Helvetica,sans-Serif" font-size="10.00">UIrradianceSubsystem</text>
<text xml:space="preserve" text-anchor="middle" x="57.88" y="-6.5" font-family="Helvetica,sans-Serif" font-size="10.00">::Tick</text>
</a>
</g>
</g>
<!-- Node3&#45;&gt;Node4 -->
<g id="edge3_Node000003_Node000004" class="edge">
<title>Node3&#45;&gt;Node4</title>
<g id="a_edge3_Node000003_Node000004"><a xlink:title=" ">
<path fill="none" stroke="#63b8ff" d="M140.16,-16C131.99,-16 123.73,-16 115.76,-16"/>
<polygon fill="#63b8ff" stroke="#63b8ff" points="140.07,-19.5 150.07,-16 140.07,-12.5 140.07,-19.5"/>
</a>
</g>
</g>
</g>
</svg>
