<?xml version="1.0" encoding="UTF-8" standalone="no"?>
<!DOCTYPE svg PUBLIC "-//W3C//DTD SVG 1.1//EN"
 "http://www.w3.org/Graphics/SVG/1.1/DTD/svg11.dtd">
<!-- Generated by graphviz version 14.1.0 (20251206.1807)
 -->
<!-- Title: UIrradianceScheduler::SetSunSkyUTC Pages: 1 -->
<svg width="791pt" height="140pt"
 viewBox="0.00 0.00 791.00 140.00" xmlns="http://www.w3.org/2000/svg" xmlns:xlink="http://www.w3.org/1999/xlink">
<g id="graph0" class="graph" transform="scale(1 1) rotate(0) translate(4 136)">
<title>UIrradianceScheduler::SetSunSkyUTC</title>
<!-- Node1 -->
<g id="Node000001" class="node">
<title>Node1</title>
<g id="a_Node000001"><a xlink:title="Sets the SunSky UTC time.">
<polygon fill="#999999" stroke="#666666" points="782.75,-63 673,-63 673,-31 782.75,-31 782.75,-63"/>
<text xml:space="preserve" text-anchor="start" x="681" y="-49.5" font-family="Helvetica,sans-Serif" font-size="10.00">UIrradianceScheduler</text>
<text xml:space="preserve" text-anchor="middle" x="727.88" y="-37.5" font-family="Helvetica,sans-Serif" font-size="10.00">::SetSunSkyUTC</text>
</a>
</g>
</g>
<!-- Node2 -->
<g id="Node000002" class="node">
<title>Node2</title>
<g id="a_Node000002"><a xlink:href="class_u_irradiance_scheduler.html#ab400b6f7f8c6768537088d0eca221f90" target="_top" xlink:title="Advances to the next time slot, or finalizes the simulation if finished.">
<polygon fill="white" stroke="#666666" points="637,-88 501,-88 501,-56 637,-56 637,-88"/>
<text xml:space="preserve" text-anchor="start" x="509" y="-74.5" font-family="Helvetica,sans-Serif" font-size="10.00">UIrradianceScheduler</text>
<text xml:space="preserve" text-anchor="middle" x="569" y="-62.5" font-family="Helvetica,sans-Serif" font-size="10.00">::AdvanceTimeSlotOrFinish</text>
</a>
</g>
</g>
<!-- Node1&#45;&gt;Node2 -->
<g id="edge1_Node000001_Node000002" class="edge">
<title>Node1&#45;&gt;Node2</title>
<g id="a_edge1_Node000001_Node000002"><a xlink:title=" ">
<path fill="none" stroke="#63b8ff" d="M661.7,-57.39C653.67,-58.67 645.45,-59.98 637.39,-61.26"/>
<polygon fill="#63b8ff" stroke="#63b8ff" points="662.07,-60.87 671.39,-55.84 660.97,-53.96 662.07,-60.87"/>
</a>
</g>
</g>
<!-- Node8 -->
<g id="Node000008" class="node">
<title>Node8</title>
<g id="a_Node000008"><a xlink:href="class_u_irradiance_scheduler.html#a7ba28b0ad34fafcb3f525bb028459e01" target="_top" xlink:title="Prepares SunSky, export and viewport settings for a simulation.">
<polygon fill="white" stroke="#666666" points="442.5,-38 332.75,-38 332.75,-6 442.5,-6 442.5,-38"/>
<text xml:space="preserve" text-anchor="start" x="340.75" y="-24.5" font-family="Helvetica,sans-Serif" font-size="10.00">UIrradianceScheduler</text>
<text xml:space="preserve" text-anchor="middle" x="387.62" y="-12.5" font-family="Helvetica,sans-Serif" font-size="10.00">::PrepareSimulation</text>
</a>
</g>
</g>
<!-- Node1&#45;&gt;Node8 -->
<g id="edge9_Node000001_Node000008" class="edge">
<title>Node1&#45;&gt;Node8</title>
<g id="a_edge9_Node000001_Node000008"><a xlink:title=" ">
<path fill="none" stroke="#63b8ff" d="M661.43,-42.16C597.81,-37.46 502.33,-30.4 442.84,-26.01"/>
<polygon fill="#63b8ff" stroke="#63b8ff" points="660.79,-45.63 671.02,-42.87 661.31,-38.64 660.79,-45.63"/>
</a>
</g>
</g>
<!-- Node3 -->
<g id="Node000003" class="node">
<title>Node3</title>
<g id="a_Node000003"><a xlink:href="class_u_irradiance_scheduler.html#a2c93371fc51e45b8af73ce9b4d2c690a" target="_top" xlink:title="Launches the next capture for the current time slot and sensor index.">
<polygon fill="white" stroke="#666666" points="465,-88 310.25,-88 310.25,-56 465,-56 465,-88"/>
<text xml:space="preserve" text-anchor="start" x="318.25" y="-74.5" font-family="Helvetica,sans-Serif" font-size="10.00">UIrradianceScheduler</text>
<text xml:space="preserve" text-anchor="middle" x="387.62" y="-62.5" font-family="Helvetica,sans-Serif" font-size="10.00">::LaunchNextSimulationCapture</text>
</a>
</g>
</g>
<!-- Node2&#45;&gt;Node3 -->
<g id="edge2_Node000002_Node000003" class="edge">
<title>Node2&#45;&gt;Node3</title>
<g id="a_edge2_Node000002_Node000003"><a xlink:title=" ">
<path fill="none" stroke="#63b8ff" d="M489.2,-65.29C481.28,-65.23 473.25,-65.24 465.35,-65.31"/>
<polygon fill="#63b8ff" stroke="#63b8ff" points="489.14,-68.79 499.18,-65.42 489.23,-61.79 489.14,-68.79"/>
</a>
</g>
</g>
<!-- Node4 -->
<g id="Node000004" class="node">
<title>Node4</title>
<g id="a_Node000004"><a xlink:href="class_u_irradiance_scheduler.html#ac79a70849af28bdcf62ac8214ccaeee5" target="_top" xlink:title="Handles a completed capture and advances the flow.">
<polygon fill="white" stroke="#666666" points="274.25,-132 157.75,-132 157.75,-100 274.25,-100 274.25,-132"/>
<text xml:space="preserve" text-anchor="start" x="165.75" y="-118.5" font-family="Helvetica,sans-Serif" font-size="10.00">UIrradianceScheduler</text>
<text xml:space="preserve" text-anchor="middle" x="216" y="-106.5" font-family="Helvetica,sans-Serif" font-size="10.00">::OnCaptureCompleted</text>
</a>
</g>
</g>
<!-- Node2&#45;&gt;Node4 -->
<g id="edge8_Node000002_Node000004" class="edge">
<title>Node2&#45;&gt;Node4</title>
<g id="a_edge8_Node000002_Node000004"><a xlink:title=" ">
<path fill="none" stroke="#63b8ff" d="M496.16,-91C485.76,-93.3 475.14,-95.39 465,-97 400.28,-107.26 325.15,-112.04 274.69,-114.22"/>
<polygon fill="#63b8ff" stroke="#63b8ff" points="496.89,-94.43 505.85,-88.79 495.33,-87.6 496.89,-94.43"/>
</a>
</g>
</g>
<!-- Node3&#45;&gt;Node2 -->
<g id="edge3_Node000003_Node000002" class="edge">
<title>Node3&#45;&gt;Node2</title>
<g id="a_edge3_Node000003_Node000002"><a xlink:title=" ">
<path fill="none" stroke="#63b8ff" d="M476.71,-78.75C484.78,-78.76 492.86,-78.7 500.7,-78.56"/>
<polygon fill="#63b8ff" stroke="#63b8ff" points="476.88,-75.25 466.86,-78.7 476.84,-82.25 476.88,-75.25"/>
</a>
</g>
</g>
<!-- Node3&#45;&gt;Node4 -->
<g id="edge4_Node000003_Node000004" class="edge">
<title>Node3&#45;&gt;Node4</title>
<g id="a_edge4_Node000003_Node000004"><a xlink:title=" ">
<path fill="none" stroke="#63b8ff" d="M312.44,-91.24C299.77,-94.53 286.77,-97.9 274.61,-101.06"/>
<polygon fill="#63b8ff" stroke="#63b8ff" points="313.2,-94.66 322,-88.76 311.44,-87.89 313.2,-94.66"/>
</a>
</g>
</g>
<!-- Node6 -->
<g id="Node000006" class="node">
<title>Node6</title>
<g id="a_Node000006"><a xlink:href="class_u_irradiance_scheduler.html#a820fe9375420d4934dd45811ba7a419e" target="_top" xlink:title="Starts a full time&#45;series simulation using the given configuration.">
<polygon fill="white" stroke="#666666" points="270.88,-82 161.12,-82 161.12,-50 270.88,-50 270.88,-82"/>
<text xml:space="preserve" text-anchor="start" x="169.12" y="-68.5" font-family="Helvetica,sans-Serif" font-size="10.00">UIrradianceScheduler</text>
<text xml:space="preserve" text-anchor="middle" x="216" y="-56.5" font-family="Helvetica,sans-Serif" font-size="10.00">::StartSimulation</text>
</a>
</g>
</g>
<!-- Node3&#45;&gt;Node6 -->
<g id="edge6_Node000003_Node000006" class="edge">
<title>Node3&#45;&gt;Node6</title>
<g id="a_edge6_Node000003_Node000006"><a xlink:title=" ">
<path fill="none" stroke="#63b8ff" d="M298.47,-68.88C289.22,-68.55 280.02,-68.23 271.31,-67.92"/>
<polygon fill="#63b8ff" stroke="#63b8ff" points="298.12,-72.37 308.24,-69.23 298.37,-65.38 298.12,-72.37"/>
</a>
</g>
</g>
<!-- Node5 -->
<g id="Node000005" class="node">
<title>Node5</title>
<g id="a_Node000005"><a xlink:href="class_u_irradiance_scheduler.html#a46ab4ac00573e109d595d80669a8e156" target="_top" xlink:title=" ">
<polygon fill="white" stroke="#666666" points="115.75,-132 6,-132 6,-100 115.75,-100 115.75,-132"/>
<text xml:space="preserve" text-anchor="start" x="14" y="-118.5" font-family="Helvetica,sans-Serif" font-size="10.00">UIrradianceScheduler</text>
<text xml:space="preserve" text-anchor="middle" x="60.88" y="-106.5" font-family="Helvetica,sans-Serif" font-size="10.00">::Tick</text>
</a>
</g>
</g>
<!-- Node4&#45;&gt;Node5 -->
<g id="edge5_Node000004_Node000005" class="edge">
<title>Node4&#45;&gt;Node5</title>
<g id="a_edge5_Node000004_Node000005"><a xlink:title=" ">
<path fill="none" stroke="#63b8ff" d="M146.25,-116C136.15,-116 125.86,-116 116.1,-116"/>
<polygon fill="#63b8ff" stroke="#63b8ff" points="146.03,-119.5 156.03,-116 146.03,-112.5 146.03,-119.5"/>
</a>
</g>
</g>
<!-- Node7 -->
<g id="Node000007" class="node">
<title>Node7</title>
<g id="a_Node000007"><a xlink:href="class_u_irradiance_scheduler.html#acad46ea7c860e2a972fb7debd56651e9" target="_top" xlink:title=" ">
<polygon fill="white" stroke="#666666" points="121.75,-57 0,-57 0,-25 121.75,-25 121.75,-57"/>
<text xml:space="preserve" text-anchor="start" x="8" y="-43.5" font-family="Helvetica,sans-Serif" font-size="10.00">UIrradianceScheduler</text>
<text xml:space="preserve" text-anchor="middle" x="60.88" y="-31.5" font-family="Helvetica,sans-Serif" font-size="10.00">::~UIrradianceScheduler</text>
</a>
</g>
</g>
<!-- Node6&#45;&gt;Node7 -->
<g id="edge7_Node000006_Node000007" class="edge">
<title>Node6&#45;&gt;Node7</title>
<g id="a_edge7_Node000006_Node000007"><a xlink:title=" ">
<path fill="none" stroke="#63b8ff" d="M149.93,-55.38C140.71,-53.87 131.27,-52.33 122.16,-50.84"/>
<polygon fill="#63b8ff" stroke="#63b8ff" points="149.09,-58.78 159.52,-56.94 150.21,-51.88 149.09,-58.78"/>
</a>
</g>
</g>
<!-- Node8&#45;&gt;Node6 -->
<g id="edge12_Node000008_Node000006" class="edge">
<title>Node8&#45;&gt;Node6</title>
<g id="a_edge12_Node000008_Node000006"><a xlink:title=" ">
<path fill="none" stroke="#63b8ff" d="M321.72,-38.84C305.04,-43.16 287.28,-47.77 271.2,-51.94"/>
<polygon fill="#63b8ff" stroke="#63b8ff" points="322.22,-42.32 331.02,-36.42 320.46,-35.55 322.22,-42.32"/>
</a>
</g>
</g>
<!-- Node9 -->
<g id="Node000009" class="node">
<title>Node9</title>
<g id="a_Node000009"><a xlink:href="class_u_irradiance_scheduler.html#a4395030c4e2b089982300a7d5cb43417" target="_top" xlink:title="Captures irradiance once at Sim.StartTime for all active sensors.">
<polygon fill="white" stroke="#666666" points="270.88,-32 161.12,-32 161.12,0 270.88,0 270.88,-32"/>
<text xml:space="preserve" text-anchor="start" x="169.12" y="-18.5" font-family="Helvetica,sans-Serif" font-size="10.00">UIrradianceScheduler</text>
<text xml:space="preserve" text-anchor="middle" x="216" y="-6.5" font-family="Helvetica,sans-Serif" font-size="10.00">::CaptureOnce</text>
</a>
</g>
</g>
<!-- Node8&#45;&gt;Node9 -->
<g id="edge10_Node000008_Node000009" class="edge">
<title>Node8&#45;&gt;Node9</title>
<g id="a_edge10_Node000008_Node000009"><a xlink:title=" ">
<path fill="none" stroke="#63b8ff" d="M321.24,-19.69C304.7,-19.1 287.12,-18.48 271.2,-17.92"/>
<polygon fill="#63b8ff" stroke="#63b8ff" points="320.86,-23.18 330.98,-20.03 321.11,-16.18 320.86,-23.18"/>
</a>
</g>
</g>
<!-- Node9&#45;&gt;Node7 -->
<g id="edge11_Node000009_Node000007" class="edge">
<title>Node9&#45;&gt;Node7</title>
<g id="a_edge11_Node000009_Node000007"><a xlink:title=" ">
<path fill="none" stroke="#63b8ff" d="M149.93,-26.62C140.71,-28.13 131.27,-29.67 122.16,-31.16"/>
<polygon fill="#63b8ff" stroke="#63b8ff" points="150.21,-30.12 159.52,-25.06 149.09,-23.22 150.21,-30.12"/>
</a>
</g>
</g>
</g>
</svg>
