<?xml version="1.0" encoding="UTF-8" standalone="no"?>
<!DOCTYPE svg PUBLIC "-//W3C//DTD SVG 1.1//EN"
 "http://www.w3.org/Graphics/SVG/1.1/DTD/svg11.dtd">
<!-- Generated by graphviz version 14.1.0 (20251206.1807)
 -->
<!-- Title: UIrradianceSubsystem::StartSixFaceCapture Pages: 1 -->
<svg width="607pt" height="78pt"
 viewBox="0.00 0.00 607.00 78.00" xmlns="http://www.w3.org/2000/svg" xmlns:xlink="http://www.w3.org/1999/xlink">
<g id="graph0" class="graph" transform="scale(1 1) rotate(0) translate(4 74)">
<title>UIrradianceSubsystem::StartSixFaceCapture</title>
<!-- Node1 -->
<g id="Node000001" class="node">
<title>Node1</title>
<g id="a_Node000001"><a xlink:title="Begin a new 6&#45;face capture using the given request description.">
<polygon fill="#999999" stroke="#666666" points="115.75,-54 0,-54 0,-22 115.75,-22 115.75,-54"/>
<text xml:space="preserve" text-anchor="start" x="8" y="-40.5" font-family="Helvetica,sans-Serif" font-size="10.00">UIrradianceSubsystem</text>
<text xml:space="preserve" text-anchor="middle" x="57.88" y="-28.5" font-family="Helvetica,sans-Serif" font-size="10.00">::StartSixFaceCapture</text>
</a>
</g>
</g>
<!-- Node2 -->
<g id="Node000002" class="node">
<title>Node2</title>
<g id="a_Node000002"><a xlink:href="struct_f_capture_request.html#a710ed7865f56e9c032d52fd1a4cd2761" target="_top" xlink:title=" ">
<polygon fill="white" stroke="#666666" points="280.25,-70 151.75,-70 151.75,-50 280.25,-50 280.25,-70"/>
<text xml:space="preserve" text-anchor="middle" x="216" y="-56.5" font-family="Helvetica,sans-Serif" font-size="10.00">FCaptureRequest::IsValid</text>
</a>
</g>
</g>
<!-- Node1&#45;&gt;Node2 -->
<g id="edge1_Node000001_Node000002" class="edge">
<title>Node1&#45;&gt;Node2</title>
<g id="a_edge1_Node000001_Node000002"><a xlink:title=" ">
<path fill="none" stroke="#63b8ff" d="M116.12,-46.07C123.93,-47.17 132.04,-48.31 140.1,-49.45"/>
<polygon fill="#63b8ff" stroke="#63b8ff" points="139.55,-52.9 149.94,-50.83 140.52,-45.97 139.55,-52.9"/>
</a>
</g>
</g>
<!-- Node3 -->
<g id="Node000003" class="node">
<title>Node3</title>
<g id="a_Node000003"><a xlink:href="class_u_irradiance_subsystem.html#a10314c056f1375fa327c1bdd2c0c79b6" target="_top" xlink:title="Start capture of a single face at PosWS / RotWS.">
<polygon fill="white" stroke="#666666" points="273.88,-32 158.12,-32 158.12,0 273.88,0 273.88,-32"/>
<text xml:space="preserve" text-anchor="start" x="166.12" y="-18.5" font-family="Helvetica,sans-Serif" font-size="10.00">UIrradianceSubsystem</text>
<text xml:space="preserve" text-anchor="middle" x="216" y="-6.5" font-family="Helvetica,sans-Serif" font-size="10.00">::StartFaceCapture</text>
</a>
</g>
</g>
<!-- Node1&#45;&gt;Node3 -->
<g id="edge2_Node000001_Node000003" class="edge">
<title>Node1&#45;&gt;Node3</title>
<g id="a_edge2_Node000001_Node000003"><a xlink:title=" ">
<path fill="none" stroke="#63b8ff" d="M116.12,-29.93C125.99,-28.54 136.33,-27.09 146.46,-25.66"/>
<polygon fill="#63b8ff" stroke="#63b8ff" points="146.85,-29.14 156.26,-24.28 145.87,-22.21 146.85,-29.14"/>
</a>
</g>
</g>
<!-- Node4 -->
<g id="Node000004" class="node">
<title>Node4</title>
<g id="a_Node000004"><a xlink:href="class_u_irradiance_subsystem.html#a07d7292927f509ea227ab101994ab4b6" target="_top" xlink:title="Ensure that the capture camera exists and is configured.">
<polygon fill="white" stroke="#666666" points="438,-54 316.25,-54 316.25,-22 438,-22 438,-54"/>
<text xml:space="preserve" text-anchor="start" x="324.25" y="-40.5" font-family="Helvetica,sans-Serif" font-size="10.00">UIrradianceSubsystem</text>
<text xml:space="preserve" text-anchor="middle" x="377.12" y="-28.5" font-family="Helvetica,sans-Serif" font-size="10.00">::EnsureCaptureCamera</text>
</a>
</g>
</g>
<!-- Node3&#45;&gt;Node4 -->
<g id="edge3_Node000003_Node000004" class="edge">
<title>Node3&#45;&gt;Node4</title>
<g id="a_edge3_Node000003_Node000004"><a xlink:title=" ">
<path fill="none" stroke="#63b8ff" d="M274,-23.88C283.85,-25.24 294.2,-26.67 304.38,-28.08"/>
<polygon fill="#63b8ff" stroke="#63b8ff" points="303.88,-31.54 314.26,-29.45 304.84,-24.61 303.88,-31.54"/>
</a>
</g>
</g>
<!-- Node5 -->
<g id="Node000005" class="node">
<title>Node5</title>
<g id="a_Node000005"><a xlink:href="namespace_irradiance_common_1_1_utils.html#acd21b099951e95f67c7a758546ac9875" target="_top" xlink:title="Tries to return a game world suitable for rendering / scheduling.">
<polygon fill="white" stroke="#666666" points="598.75,-32 474,-32 474,0 598.75,0 598.75,-32"/>
<text xml:space="preserve" text-anchor="start" x="482" y="-18.5" font-family="Helvetica,sans-Serif" font-size="10.00">IrradianceCommon::Utils</text>
<text xml:space="preserve" text-anchor="middle" x="536.38" y="-6.5" font-family="Helvetica,sans-Serif" font-size="10.00">::GetGameWorldSafe</text>
</a>
</g>
</g>
<!-- Node3&#45;&gt;Node5 -->
<g id="edge5_Node000003_Node000005" class="edge">
<title>Node3&#45;&gt;Node5</title>
<g id="a_edge5_Node000003_Node000005"><a xlink:title=" ">
<path fill="none" stroke="#63b8ff" d="M274.2,-13.98C287.97,-13.57 302.63,-13.21 316.25,-13 370.35,-12.18 383.9,-12.17 438,-13 445.82,-13.12 453.98,-13.3 462.12,-13.5"/>
<polygon fill="#63b8ff" stroke="#63b8ff" points="461.96,-17 472.05,-13.77 462.15,-10 461.96,-17"/>
</a>
</g>
</g>
<!-- Node4&#45;&gt;Node5 -->
<g id="edge4_Node000004_Node000005" class="edge">
<title>Node4&#45;&gt;Node5</title>
<g id="a_edge4_Node000004_Node000005"><a xlink:title=" ">
<path fill="none" stroke="#63b8ff" d="M438.47,-29.56C446.3,-28.46 454.39,-27.33 462.39,-26.21"/>
<polygon fill="#63b8ff" stroke="#63b8ff" points="462.71,-29.7 472.13,-24.85 461.74,-22.77 462.71,-29.7"/>
</a>
</g>
</g>
</g>
</svg>
