<?xml version="1.0" encoding="UTF-8" standalone="no"?>
<!DOCTYPE svg PUBLIC "-//W3C//DTD SVG 1.1//EN"
 "http://www.w3.org/Graphics/SVG/1.1/DTD/svg11.dtd">
<!-- Generated by graphviz version 14.1.0 (20251206.1807)
 -->
<!-- Title: UPyranoEditorSubsystem::ValidateConfig Pages: 1 -->
<svg width="481pt" height="240pt"
 viewBox="0.00 0.00 481.00 240.00" xmlns="http://www.w3.org/2000/svg" xmlns:xlink="http://www.w3.org/1999/xlink">
<g id="graph0" class="graph" transform="scale(1 1) rotate(0) translate(4 236)">
<title>UPyranoEditorSubsystem::ValidateConfig</title>
<!-- Node1 -->
<g id="Node000001" class="node">
<title>Node1</title>
<g id="a_Node000001"><a xlink:title="Validates a full simulation configuration and returns a detailed result.">
<polygon fill="#999999" stroke="#666666" points="129.25,-132 0,-132 0,-100 129.25,-100 129.25,-132"/>
<text xml:space="preserve" text-anchor="start" x="8" y="-118.5" font-family="Helvetica,sans-Serif" font-size="10.00">UPyranoEditorSubsystem</text>
<text xml:space="preserve" text-anchor="middle" x="64.62" y="-106.5" font-family="Helvetica,sans-Serif" font-size="10.00">::ValidateConfig</text>
</a>
</g>
</g>
<!-- Node2 -->
<g id="Node000002" class="node">
<title>Node2</title>
<g id="a_Node000002"><a xlink:href="struct_f_validation_result.html#af85ff546ed9707e4efb24b7e69d5465b" target="_top" xlink:title=" ">
<polygon fill="white" stroke="#666666" points="279.12,-232 180.62,-232 180.62,-200 279.12,-200 279.12,-232"/>
<text xml:space="preserve" text-anchor="start" x="188.62" y="-218.5" font-family="Helvetica,sans-Serif" font-size="10.00">FValidationResult::</text>
<text xml:space="preserve" text-anchor="middle" x="229.88" y="-206.5" font-family="Helvetica,sans-Serif" font-size="10.00">AddFieldError</text>
</a>
</g>
</g>
<!-- Node1&#45;&gt;Node2 -->
<g id="edge1_Node000001_Node000002" class="edge">
<title>Node1&#45;&gt;Node2</title>
<g id="a_edge1_Node000001_Node000002"><a xlink:title=" ">
<path fill="none" stroke="#63b8ff" d="M84.03,-132.29C103.27,-148.71 134.83,-173.99 165.25,-191 167.57,-192.3 169.96,-193.55 172.41,-194.78"/>
<polygon fill="#63b8ff" stroke="#63b8ff" points="170.75,-197.86 181.29,-198.92 173.71,-191.52 170.75,-197.86"/>
</a>
</g>
</g>
<!-- Node3 -->
<g id="Node000003" class="node">
<title>Node3</title>
<g id="a_Node000003"><a xlink:href="namespace_pyrano_editor_utils.html#a6a8fea8fd47c5ad779e7bd632dcfc1b7" target="_top" xlink:title=" ">
<polygon fill="white" stroke="#666666" points="286.62,-182 173.12,-182 173.12,-150 286.62,-150 286.62,-182"/>
<text xml:space="preserve" text-anchor="start" x="181.12" y="-168.5" font-family="Helvetica,sans-Serif" font-size="10.00">PyranoEditorUtils::</text>
<text xml:space="preserve" text-anchor="middle" x="229.88" y="-156.5" font-family="Helvetica,sans-Serif" font-size="10.00">CountEnabledSensors</text>
</a>
</g>
</g>
<!-- Node1&#45;&gt;Node3 -->
<g id="edge2_Node000001_Node000003" class="edge">
<title>Node1&#45;&gt;Node3</title>
<g id="a_edge2_Node000001_Node000003"><a xlink:title=" ">
<path fill="none" stroke="#63b8ff" d="M119.08,-132.37C133.52,-136.8 149.3,-141.63 164.28,-146.22"/>
<polygon fill="#63b8ff" stroke="#63b8ff" points="162.99,-149.48 173.57,-149.06 165.04,-142.79 162.99,-149.48"/>
</a>
</g>
</g>
<!-- Node5 -->
<g id="Node000005" class="node">
<title>Node5</title>
<g id="a_Node000005"><a xlink:href="class_u_pyrano_editor_subsystem.html#a2a797be145752507e4e2170ac0b43d82" target="_top" xlink:title="Estimates the total simulation duration from samples, sensors and resolution.">
<polygon fill="white" stroke="#666666" points="294.5,-132 165.25,-132 165.25,-100 294.5,-100 294.5,-132"/>
<text xml:space="preserve" text-anchor="start" x="173.25" y="-118.5" font-family="Helvetica,sans-Serif" font-size="10.00">UPyranoEditorSubsystem</text>
<text xml:space="preserve" text-anchor="middle" x="229.88" y="-106.5" font-family="Helvetica,sans-Serif" font-size="10.00">::EstimateSimDuration</text>
</a>
</g>
</g>
<!-- Node1&#45;&gt;Node5 -->
<g id="edge4_Node000001_Node000005" class="edge">
<title>Node1&#45;&gt;Node5</title>
<g id="a_edge4_Node000001_Node000005"><a xlink:title=" ">
<path fill="none" stroke="#63b8ff" d="M129.68,-116C137.57,-116 145.69,-116 153.73,-116"/>
<polygon fill="#63b8ff" stroke="#63b8ff" points="153.49,-119.5 163.49,-116 153.49,-112.5 153.49,-119.5"/>
</a>
</g>
</g>
<!-- Node6 -->
<g id="Node000006" class="node">
<title>Node6</title>
<g id="a_Node000006"><a xlink:href="namespace_pyrano_editor_utils.html#acef7c6aa5b495ff28a81db72f6059f2d" target="_top" xlink:title=" ">
<polygon fill="white" stroke="#666666" points="281,-82 178.75,-82 178.75,-50 281,-50 281,-82"/>
<text xml:space="preserve" text-anchor="start" x="186.75" y="-68.5" font-family="Helvetica,sans-Serif" font-size="10.00">PyranoEditorUtils::</text>
<text xml:space="preserve" text-anchor="middle" x="229.88" y="-56.5" font-family="Helvetica,sans-Serif" font-size="10.00">FormatDurationText</text>
</a>
</g>
</g>
<!-- Node1&#45;&gt;Node6 -->
<g id="edge5_Node000001_Node000006" class="edge">
<title>Node1&#45;&gt;Node6</title>
<g id="a_edge5_Node000001_Node000006"><a xlink:title=" ">
<path fill="none" stroke="#63b8ff" d="M119.08,-99.63C134.57,-94.88 151.6,-89.67 167.53,-84.79"/>
<polygon fill="#63b8ff" stroke="#63b8ff" points="168.37,-88.19 176.9,-81.92 166.32,-81.5 168.37,-88.19"/>
</a>
</g>
</g>
<!-- Node7 -->
<g id="Node000007" class="node">
<title>Node7</title>
<g id="a_Node000007"><a xlink:href="class_u_pyrano_editor_subsystem.html#a2adad0d3fd5864acbe4205b167cf4937" target="_top" xlink:title="Returns the PIE world if running, otherwise the editor world.">
<polygon fill="white" stroke="#666666" points="294.5,-32 165.25,-32 165.25,0 294.5,0 294.5,-32"/>
<text xml:space="preserve" text-anchor="start" x="173.25" y="-18.5" font-family="Helvetica,sans-Serif" font-size="10.00">UPyranoEditorSubsystem</text>
<text xml:space="preserve" text-anchor="middle" x="229.88" y="-6.5" font-family="Helvetica,sans-Serif" font-size="10.00">::GetActiveWorld</text>
</a>
</g>
</g>
<!-- Node1&#45;&gt;Node7 -->
<g id="edge6_Node000001_Node000007" class="edge">
<title>Node1&#45;&gt;Node7</title>
<g id="a_edge6_Node000001_Node000007"><a xlink:title=" ">
<path fill="none" stroke="#63b8ff" d="M84.03,-99.71C103.27,-83.29 134.83,-58.01 165.25,-41 167.57,-39.7 169.96,-38.45 172.41,-37.22"/>
<polygon fill="#63b8ff" stroke="#63b8ff" points="173.71,-40.48 181.29,-33.08 170.75,-34.14 173.71,-40.48"/>
</a>
</g>
</g>
<!-- Node4 -->
<g id="Node000004" class="node">
<title>Node4</title>
<g id="a_Node000004"><a xlink:href="namespace_pyrano_editor_utils.html#a923935ab07773c60282d0c628dbd3b9d" target="_top" xlink:title=" ">
<polygon fill="white" stroke="#666666" points="473.25,-182 330.5,-182 330.5,-150 473.25,-150 473.25,-182"/>
<text xml:space="preserve" text-anchor="start" x="338.5" y="-168.5" font-family="Helvetica,sans-Serif" font-size="10.00">PyranoEditorUtils::</text>
<text xml:space="preserve" text-anchor="middle" x="401.88" y="-156.5" font-family="Helvetica,sans-Serif" font-size="10.00">GetPyranometerComponents</text>
</a>
</g>
</g>
<!-- Node3&#45;&gt;Node4 -->
<g id="edge3_Node000003_Node000004" class="edge">
<title>Node3&#45;&gt;Node4</title>
<g id="a_edge3_Node000003_Node000004"><a xlink:title=" ">
<path fill="none" stroke="#63b8ff" d="M287.01,-166C297.27,-166 308.18,-166 319.01,-166"/>
<polygon fill="#63b8ff" stroke="#63b8ff" points="318.73,-169.5 328.73,-166 318.73,-162.5 318.73,-169.5"/>
</a>
</g>
</g>
</g>
</svg>
