<?xml version="1.0" encoding="UTF-8" standalone="no"?>
<!DOCTYPE svg PUBLIC "-//W3C//DTD SVG 1.1//EN"
 "http://www.w3.org/Graphics/SVG/1.1/DTD/svg11.dtd">
<!-- Generated by graphviz version 14.1.0 (20251206.1807)
 -->
<!-- Title: USunSkyController::GetSolarAngles Pages: 1 -->
<svg width="417pt" height="78pt"
 viewBox="0.00 0.00 417.00 78.00" xmlns="http://www.w3.org/2000/svg" xmlns:xlink="http://www.w3.org/1999/xlink">
<g id="graph0" class="graph" transform="scale(1 1) rotate(0) translate(4 74)">
<title>USunSkyController::GetSolarAngles</title>
<!-- Node1 -->
<g id="Node000001" class="node">
<title>Node1</title>
<g id="a_Node000001"><a xlink:title="Returns solar azimuth/altitude using solar&#45;standard convention: azimuth = clockwise from North (0°=N,...">
<polygon fill="#999999" stroke="#666666" points="106,-48 0,-48 0,-16 106,-16 106,-48"/>
<text xml:space="preserve" text-anchor="start" x="8" y="-34.5" font-family="Helvetica,sans-Serif" font-size="10.00">USunSkyController::</text>
<text xml:space="preserve" text-anchor="middle" x="53" y="-22.5" font-family="Helvetica,sans-Serif" font-size="10.00">GetSolarAngles</text>
</a>
</g>
</g>
<!-- Node2 -->
<g id="Node000002" class="node">
<title>Node2</title>
<g id="a_Node000002"><a xlink:href="class_u_sun_sky_controller.html#a0822748f97e63e40b3da612e27083596" target="_top" xlink:title="Returns the cached SunSky actor or performs a search if missing.">
<polygon fill="white" stroke="#666666" points="257.38,-70 151.38,-70 151.38,-38 257.38,-38 257.38,-70"/>
<text xml:space="preserve" text-anchor="start" x="159.38" y="-56.5" font-family="Helvetica,sans-Serif" font-size="10.00">USunSkyController::</text>
<text xml:space="preserve" text-anchor="middle" x="204.38" y="-44.5" font-family="Helvetica,sans-Serif" font-size="10.00">EnsureSunSky</text>
</a>
</g>
</g>
<!-- Node1&#45;&gt;Node2 -->
<g id="edge1_Node000001_Node000002" class="edge">
<title>Node1&#45;&gt;Node2</title>
<g id="a_edge1_Node000001_Node000002"><a xlink:title=" ">
<path fill="none" stroke="#63b8ff" d="M106.24,-39.69C117.1,-41.29 128.65,-42.99 139.85,-44.64"/>
<polygon fill="#63b8ff" stroke="#63b8ff" points="139.01,-48.06 149.41,-46.05 140.03,-41.13 139.01,-48.06"/>
</a>
</g>
</g>
<!-- Node4 -->
<g id="Node000004" class="node">
<title>Node4</title>
<g id="a_Node000004"><a xlink:href="_sun_sky_controller_8cpp.html#ac7b2fce7fc8414675ca11663c0aa5fb7" target="_top" xlink:title=" ">
<polygon fill="white" stroke="#666666" points="266.75,-20 142,-20 142,0 266.75,0 266.75,-20"/>
<text xml:space="preserve" text-anchor="middle" x="204.38" y="-6.5" font-family="Helvetica,sans-Serif" font-size="10.00">SunAnglesFromDirection</text>
</a>
</g>
</g>
<!-- Node1&#45;&gt;Node4 -->
<g id="edge3_Node000001_Node000004" class="edge">
<title>Node1&#45;&gt;Node4</title>
<g id="a_edge3_Node000001_Node000004"><a xlink:title=" ">
<path fill="none" stroke="#63b8ff" d="M106.24,-24.31C114.11,-23.15 122.34,-21.93 130.55,-20.73"/>
<polygon fill="#63b8ff" stroke="#63b8ff" points="130.79,-24.23 140.18,-19.31 129.77,-17.3 130.79,-24.23"/>
</a>
</g>
</g>
<!-- Node3 -->
<g id="Node000003" class="node">
<title>Node3</title>
<g id="a_Node000003"><a xlink:href="class_u_sun_sky_controller.html#ab00403c7bab9f7bae3d57baa941146b6" target="_top" xlink:title="Locates a SunSky actor in the world (by tag or name).">
<polygon fill="white" stroke="#666666" points="408.75,-70 302.75,-70 302.75,-38 408.75,-38 408.75,-70"/>
<text xml:space="preserve" text-anchor="start" x="310.75" y="-56.5" font-family="Helvetica,sans-Serif" font-size="10.00">USunSkyController::</text>
<text xml:space="preserve" text-anchor="middle" x="355.75" y="-44.5" font-family="Helvetica,sans-Serif" font-size="10.00">FindSunSkyActor</text>
</a>
</g>
</g>
<!-- Node2&#45;&gt;Node3 -->
<g id="edge2_Node000002_Node000003" class="edge">
<title>Node2&#45;&gt;Node3</title>
<g id="a_edge2_Node000002_Node000003"><a xlink:title=" ">
<path fill="none" stroke="#63b8ff" d="M257.62,-54C268.36,-54 279.78,-54 290.88,-54"/>
<polygon fill="#63b8ff" stroke="#63b8ff" points="290.77,-57.5 300.77,-54 290.77,-50.5 290.77,-57.5"/>
</a>
</g>
</g>
</g>
</svg>
