<?xml version="1.0" encoding="UTF-8" standalone="no"?>
<!DOCTYPE svg PUBLIC "-//W3C//DTD SVG 1.1//EN"
 "http://www.w3.org/Graphics/SVG/1.1/DTD/svg11.dtd">
<!-- Generated by graphviz version 14.1.0 (20251206.1807)
 -->
<!-- Title: UPyranoEditorSubsystem::~UPyranoEditorSubsystem Pages: 1 -->
<svg width="1342pt" height="736pt"
 viewBox="0.00 0.00 1342.00 736.00" xmlns="http://www.w3.org/2000/svg" xmlns:xlink="http://www.w3.org/1999/xlink">
<g id="graph0" class="graph" transform="scale(1 1) rotate(0) translate(4 731.86)">
<title>UPyranoEditorSubsystem::~UPyranoEditorSubsystem</title>
<!-- Node1 -->
<g id="Node000001" class="node">
<title>Node1</title>
<g id="a_Node000001"><a xlink:title=" ">
<polygon fill="#999999" stroke="#666666" points="141.25,-290.86 0,-290.86 0,-258.86 141.25,-258.86 141.25,-290.86"/>
<text xml:space="preserve" text-anchor="start" x="8" y="-277.36" font-family="Helvetica,sans-Serif" font-size="10.00">UPyranoEditorSubsystem</text>
<text xml:space="preserve" text-anchor="middle" x="70.62" y="-265.36" font-family="Helvetica,sans-Serif" font-size="10.00">::~UPyranoEditorSubsystem</text>
</a>
</g>
</g>
<!-- Node2 -->
<g id="Node000002" class="node">
<title>Node2</title>
<g id="a_Node000002"><a xlink:href="class_u_pyrano_editor_subsystem.html#ad97823fc1a0d5cd2c5e9841bf10ee337" target="_top" xlink:title="Opens a native directory picker and updates the output folder path.">
<polygon fill="white" stroke="#666666" points="306.5,-534.86 177.25,-534.86 177.25,-502.86 306.5,-502.86 306.5,-534.86"/>
<text xml:space="preserve" text-anchor="start" x="185.25" y="-521.36" font-family="Helvetica,sans-Serif" font-size="10.00">UPyranoEditorSubsystem</text>
<text xml:space="preserve" text-anchor="middle" x="241.88" y="-509.36" font-family="Helvetica,sans-Serif" font-size="10.00">::BrowseForOutputFolder</text>
</a>
</g>
</g>
<!-- Node1&#45;&gt;Node2 -->
<g id="edge1_Node000001_Node000002" class="edge">
<title>Node1&#45;&gt;Node2</title>
<g id="a_edge1_Node000001_Node000002"><a xlink:title=" ">
<path fill="none" stroke="#63b8ff" d="M75.18,-291.34C84.68,-331.51 114.27,-435.44 177.25,-493.86 178.01,-494.56 178.79,-495.25 179.6,-495.92"/>
<polygon fill="#63b8ff" stroke="#63b8ff" points="177.42,-498.66 187.62,-501.53 181.43,-492.93 177.42,-498.66"/>
</a>
</g>
</g>
<!-- Node3 -->
<g id="Node000003" class="node">
<title>Node3</title>
<g id="a_Node000003"><a xlink:href="class_u_pyrano_editor_subsystem.html#acdc7acb4e1599227d50feefdf1867c66" target="_top" xlink:title="Starts a single capture pass in PIE and ends automatically.">
<polygon fill="white" stroke="#666666" points="306.5,-434.86 177.25,-434.86 177.25,-402.86 306.5,-402.86 306.5,-434.86"/>
<text xml:space="preserve" text-anchor="start" x="185.25" y="-421.36" font-family="Helvetica,sans-Serif" font-size="10.00">UPyranoEditorSubsystem</text>
<text xml:space="preserve" text-anchor="middle" x="241.88" y="-409.36" font-family="Helvetica,sans-Serif" font-size="10.00">::CaptureOnce</text>
</a>
</g>
</g>
<!-- Node1&#45;&gt;Node3 -->
<g id="edge2_Node000001_Node000003" class="edge">
<title>Node1&#45;&gt;Node3</title>
<g id="a_edge2_Node000001_Node000003"><a xlink:title=" ">
<path fill="none" stroke="#63b8ff" d="M82.38,-291.31C99.64,-316.54 135.8,-364.91 177.25,-393.86 178.82,-394.95 180.45,-396.01 182.12,-397.03"/>
<polygon fill="#63b8ff" stroke="#63b8ff" points="180.26,-400.01 190.71,-401.74 183.62,-393.87 180.26,-400.01"/>
</a>
</g>
</g>
<!-- Node19 -->
<g id="Node000019" class="node">
<title>Node19</title>
<g id="a_Node000019"><a xlink:href="class_u_pyrano_editor_subsystem.html#accb819699174d7a462e7e914047f5c28" target="_top" xlink:title=" ">
<polygon fill="white" stroke="#666666" points="306.5,-384.86 177.25,-384.86 177.25,-352.86 306.5,-352.86 306.5,-384.86"/>
<text xml:space="preserve" text-anchor="start" x="185.25" y="-371.36" font-family="Helvetica,sans-Serif" font-size="10.00">UPyranoEditorSubsystem</text>
<text xml:space="preserve" text-anchor="middle" x="241.88" y="-359.36" font-family="Helvetica,sans-Serif" font-size="10.00">::Deinitialize</text>
</a>
</g>
</g>
<!-- Node1&#45;&gt;Node19 -->
<g id="edge23_Node000001_Node000019" class="edge">
<title>Node1&#45;&gt;Node19</title>
<g id="a_edge23_Node000001_Node000019"><a xlink:title=" ">
<path fill="none" stroke="#63b8ff" d="M93.89,-291.33C114.72,-306.27 147.08,-328.28 177.25,-343.86 179.79,-345.17 182.41,-346.45 185.08,-347.7"/>
<polygon fill="#63b8ff" stroke="#63b8ff" points="183.58,-350.87 194.14,-351.74 186.43,-344.48 183.58,-350.87"/>
</a>
</g>
</g>
<!-- Node21 -->
<g id="Node000021" class="node">
<title>Node21</title>
<g id="a_Node000021"><a xlink:href="class_u_pyrano_editor_subsystem.html#a2a797be145752507e4e2170ac0b43d82" target="_top" xlink:title="Estimates the total simulation duration from samples, sensors and resolution.">
<polygon fill="white" stroke="#666666" points="484.5,-252.86 355.25,-252.86 355.25,-220.86 484.5,-220.86 484.5,-252.86"/>
<text xml:space="preserve" text-anchor="start" x="363.25" y="-239.36" font-family="Helvetica,sans-Serif" font-size="10.00">UPyranoEditorSubsystem</text>
<text xml:space="preserve" text-anchor="middle" x="419.88" y="-227.36" font-family="Helvetica,sans-Serif" font-size="10.00">::EstimateSimDuration</text>
</a>
</g>
</g>
<!-- Node1&#45;&gt;Node21 -->
<g id="edge26_Node000001_Node000021" class="edge">
<title>Node1&#45;&gt;Node21</title>
<g id="a_edge26_Node000001_Node000021"><a xlink:title=" ">
<path fill="none" stroke="#63b8ff" d="M141.48,-267.21C200.09,-260.8 283.62,-251.66 343.68,-245.09"/>
<polygon fill="#63b8ff" stroke="#63b8ff" points="343.92,-248.58 353.48,-244.01 343.16,-241.62 343.92,-248.58"/>
</a>
</g>
</g>
<!-- Node22 -->
<g id="Node000022" class="node">
<title>Node22</title>
<g id="a_Node000022"><a xlink:href="class_u_pyrano_editor_subsystem.html#af89217f95db642bb9a0e1bac5fed181f" target="_top" xlink:title=" ">
<polygon fill="white" stroke="#666666" points="306.5,-334.86 177.25,-334.86 177.25,-302.86 306.5,-302.86 306.5,-334.86"/>
<text xml:space="preserve" text-anchor="start" x="185.25" y="-321.36" font-family="Helvetica,sans-Serif" font-size="10.00">UPyranoEditorSubsystem</text>
<text xml:space="preserve" text-anchor="middle" x="241.88" y="-309.36" font-family="Helvetica,sans-Serif" font-size="10.00">::Initialize</text>
</a>
</g>
</g>
<!-- Node1&#45;&gt;Node22 -->
<g id="edge27_Node000001_Node000022" class="edge">
<title>Node1&#45;&gt;Node22</title>
<g id="a_edge27_Node000001_Node000022"><a xlink:title=" ">
<path fill="none" stroke="#63b8ff" d="M134.65,-291.24C145.04,-293.94 155.9,-296.77 166.54,-299.53"/>
<polygon fill="#63b8ff" stroke="#63b8ff" points="165.49,-302.88 176.05,-302.01 167.26,-296.1 165.49,-302.88"/>
</a>
</g>
</g>
<!-- Node24 -->
<g id="Node000024" class="node">
<title>Node24</title>
<g id="a_Node000024"><a xlink:href="class_u_pyrano_editor_subsystem.html#a1e18df0b1f82756989cd7cf5f6c15386" target="_top" xlink:title="Returns all pyranometer sensors in the level (filtered by enabled state).">
<polygon fill="white" stroke="#666666" points="484.5,-302.86 355.25,-302.86 355.25,-270.86 484.5,-270.86 484.5,-302.86"/>
<text xml:space="preserve" text-anchor="start" x="363.25" y="-289.36" font-family="Helvetica,sans-Serif" font-size="10.00">UPyranoEditorSubsystem</text>
<text xml:space="preserve" text-anchor="middle" x="419.88" y="-277.36" font-family="Helvetica,sans-Serif" font-size="10.00">::QuerySensors</text>
</a>
</g>
</g>
<!-- Node1&#45;&gt;Node24 -->
<g id="edge29_Node000001_Node000024" class="edge">
<title>Node1&#45;&gt;Node24</title>
<g id="a_edge29_Node000001_Node000024"><a xlink:title=" ">
<path fill="none" stroke="#63b8ff" d="M141.48,-277.27C200.09,-279.3 283.62,-282.18 343.68,-284.26"/>
<polygon fill="#63b8ff" stroke="#63b8ff" points="343.36,-287.75 353.47,-284.6 343.6,-280.75 343.36,-287.75"/>
</a>
</g>
</g>
<!-- Node26 -->
<g id="Node000026" class="node">
<title>Node26</title>
<g id="a_Node000026"><a xlink:href="class_u_pyrano_editor_subsystem.html#a22e33d28e9d2341cc24463f718f9943a" target="_top" xlink:title="Enables or disables a pyranometer sensor by GUID.">
<polygon fill="white" stroke="#666666" points="669.25,-42.86 540,-42.86 540,-10.86 669.25,-10.86 669.25,-42.86"/>
<text xml:space="preserve" text-anchor="start" x="548" y="-29.36" font-family="Helvetica,sans-Serif" font-size="10.00">UPyranoEditorSubsystem</text>
<text xml:space="preserve" text-anchor="middle" x="604.62" y="-17.36" font-family="Helvetica,sans-Serif" font-size="10.00">::SetSensorEnabled</text>
</a>
</g>
</g>
<!-- Node1&#45;&gt;Node26 -->
<g id="edge32_Node000001_Node000026" class="edge">
<title>Node1&#45;&gt;Node26</title>
<g id="a_edge32_Node000001_Node000026"><a xlink:title=" ">
<path fill="none" stroke="#63b8ff" d="M74.94,-258.52C83.89,-218.81 112.36,-116.69 177.25,-64.86 277.17,14.95 435.4,4.64 528.41,-10.7"/>
<polygon fill="#63b8ff" stroke="#63b8ff" points="527.76,-14.14 538.21,-12.38 528.94,-7.24 527.76,-14.14"/>
</a>
</g>
</g>
<!-- Node27 -->
<g id="Node000027" class="node">
<title>Node27</title>
<g id="a_Node000027"><a xlink:href="class_u_pyrano_editor_subsystem.html#a4b539f64f46c286822e4015811c08afc" target="_top" xlink:title="Starts a full multi&#45;sensor, multi&#45;time simulation in PIE.">
<polygon fill="white" stroke="#666666" points="306.5,-484.86 177.25,-484.86 177.25,-452.86 306.5,-452.86 306.5,-484.86"/>
<text xml:space="preserve" text-anchor="start" x="185.25" y="-471.36" font-family="Helvetica,sans-Serif" font-size="10.00">UPyranoEditorSubsystem</text>
<text xml:space="preserve" text-anchor="middle" x="241.88" y="-459.36" font-family="Helvetica,sans-Serif" font-size="10.00">::StartSimulation</text>
</a>
</g>
</g>
<!-- Node1&#45;&gt;Node27 -->
<g id="edge34_Node000001_Node000027" class="edge">
<title>Node1&#45;&gt;Node27</title>
<g id="a_edge34_Node000001_Node000027"><a xlink:title=" ">
<path fill="none" stroke="#63b8ff" d="M77.72,-291.21C90.88,-324.48 125.09,-400.52 177.25,-443.86 178.35,-444.77 179.5,-445.66 180.67,-446.52"/>
<polygon fill="#63b8ff" stroke="#63b8ff" points="178.58,-449.34 188.9,-451.7 182.31,-443.41 178.58,-449.34"/>
</a>
</g>
</g>
<!-- Node28 -->
<g id="Node000028" class="node">
<title>Node28</title>
<g id="a_Node000028"><a xlink:href="class_u_pyrano_editor_subsystem.html#ad63c375e352954cb971b8037e828e363" target="_top" xlink:title="Parses YYYY&#45;MM&#45;DD + HH:MM strings into a valid FDateTime.">
<polygon fill="white" stroke="#666666" points="306.5,-155.86 177.25,-155.86 177.25,-123.86 306.5,-123.86 306.5,-155.86"/>
<text xml:space="preserve" text-anchor="start" x="185.25" y="-142.36" font-family="Helvetica,sans-Serif" font-size="10.00">UPyranoEditorSubsystem</text>
<text xml:space="preserve" text-anchor="middle" x="241.88" y="-130.36" font-family="Helvetica,sans-Serif" font-size="10.00">::TryParseDateTime</text>
</a>
</g>
</g>
<!-- Node1&#45;&gt;Node28 -->
<g id="edge36_Node000001_Node000028" class="edge">
<title>Node1&#45;&gt;Node28</title>
<g id="a_edge36_Node000001_Node000028"><a xlink:title=" ">
<path fill="none" stroke="#63b8ff" d="M83.56,-258.54C101.52,-234.98 137.65,-191.37 177.25,-164.86 179.03,-163.67 180.87,-162.52 182.75,-161.42"/>
<polygon fill="#63b8ff" stroke="#63b8ff" points="183.95,-164.75 191.16,-156.98 180.68,-158.56 183.95,-164.75"/>
</a>
</g>
</g>
<!-- Node29 -->
<g id="Node000029" class="node">
<title>Node29</title>
<g id="a_Node000029"><a xlink:href="class_u_pyrano_editor_subsystem.html#a7d27d18e08278aeada87121b4f07e631" target="_top" xlink:title="Parses an interval string such as &quot;5m&quot;, &quot;10s&quot;, &quot;200ms&quot; into a FTimespan.">
<polygon fill="white" stroke="#666666" points="306.5,-105.86 177.25,-105.86 177.25,-73.86 306.5,-73.86 306.5,-105.86"/>
<text xml:space="preserve" text-anchor="start" x="185.25" y="-92.36" font-family="Helvetica,sans-Serif" font-size="10.00">UPyranoEditorSubsystem</text>
<text xml:space="preserve" text-anchor="middle" x="241.88" y="-80.36" font-family="Helvetica,sans-Serif" font-size="10.00">::TryParseIntervalString</text>
</a>
</g>
</g>
<!-- Node1&#45;&gt;Node29 -->
<g id="edge37_Node000001_Node000029" class="edge">
<title>Node1&#45;&gt;Node29</title>
<g id="a_edge37_Node000001_Node000029"><a xlink:title=" ">
<path fill="none" stroke="#63b8ff" d="M78.38,-258.4C92.29,-226.43 127.07,-155.5 177.25,-114.86 178.37,-113.95 179.52,-113.08 180.7,-112.23"/>
<polygon fill="#63b8ff" stroke="#63b8ff" points="182.32,-115.35 188.98,-107.1 178.64,-109.4 182.32,-115.35"/>
</a>
</g>
</g>
<!-- Node30 -->
<g id="Node000030" class="node">
<title>Node30</title>
<g id="a_Node000030"><a xlink:href="class_u_pyrano_editor_subsystem.html#aff2465394f6335550f1ee02a6725e648" target="_top" xlink:title="Validates a full simulation configuration and returns a detailed result.">
<polygon fill="white" stroke="#666666" points="306.5,-205.86 177.25,-205.86 177.25,-173.86 306.5,-173.86 306.5,-205.86"/>
<text xml:space="preserve" text-anchor="start" x="185.25" y="-192.36" font-family="Helvetica,sans-Serif" font-size="10.00">UPyranoEditorSubsystem</text>
<text xml:space="preserve" text-anchor="middle" x="241.88" y="-180.36" font-family="Helvetica,sans-Serif" font-size="10.00">::ValidateConfig</text>
</a>
</g>
</g>
<!-- Node1&#45;&gt;Node30 -->
<g id="edge38_Node000001_Node000030" class="edge">
<title>Node1&#45;&gt;Node30</title>
<g id="a_edge38_Node000001_Node000030"><a xlink:title=" ">
<path fill="none" stroke="#63b8ff" d="M104.26,-258.47C130.98,-245.05 169,-225.95 198.15,-211.32"/>
<polygon fill="#63b8ff" stroke="#63b8ff" points="199.34,-214.64 206.7,-207.02 196.19,-208.38 199.34,-214.64"/>
</a>
</g>
</g>
<!-- Node4 -->
<g id="Node000004" class="node">
<title>Node4</title>
<g id="a_Node000004"><a xlink:href="class_u_pyrano_editor_subsystem.html#ab0ad1482f10e23d383332295e0ddac03" target="_top" xlink:title="Packs config and registers delegates before launching PIE.">
<polygon fill="white" stroke="#666666" points="484.5,-484.86 355.25,-484.86 355.25,-452.86 484.5,-452.86 484.5,-484.86"/>
<text xml:space="preserve" text-anchor="start" x="363.25" y="-471.36" font-family="Helvetica,sans-Serif" font-size="10.00">UPyranoEditorSubsystem</text>
<text xml:space="preserve" text-anchor="middle" x="419.88" y="-459.36" font-family="Helvetica,sans-Serif" font-size="10.00">::StartPIEWithConfig</text>
</a>
</g>
</g>
<!-- Node3&#45;&gt;Node4 -->
<g id="edge3_Node000003_Node000004" class="edge">
<title>Node3&#45;&gt;Node4</title>
<g id="a_edge3_Node000003_Node000004"><a xlink:title=" ">
<path fill="none" stroke="#63b8ff" d="M300.5,-435.23C316.38,-439.74 333.75,-444.67 350.18,-449.34"/>
<polygon fill="#63b8ff" stroke="#63b8ff" points="348.78,-452.58 359.36,-451.95 350.7,-445.85 348.78,-452.58"/>
</a>
</g>
</g>
<!-- Node5 -->
<g id="Node000005" class="node">
<title>Node5</title>
<g id="a_Node000005"><a xlink:href="class_u_pyrano_editor_subsystem.html#a1b69ad32d7aad1655e600c9802b7ef9d" target="_top" xlink:title="Internal callback executed when PIE ends.">
<polygon fill="white" stroke="#666666" points="669.25,-442.86 540,-442.86 540,-410.86 669.25,-410.86 669.25,-442.86"/>
<text xml:space="preserve" text-anchor="start" x="548" y="-429.36" font-family="Helvetica,sans-Serif" font-size="10.00">UPyranoEditorSubsystem</text>
<text xml:space="preserve" text-anchor="middle" x="604.62" y="-417.36" font-family="Helvetica,sans-Serif" font-size="10.00">::OnEndPIE</text>
</a>
</g>
</g>
<!-- Node4&#45;&gt;Node5 -->
<g id="edge4_Node000004_Node000005" class="edge">
<title>Node4&#45;&gt;Node5</title>
<g id="a_edge4_Node000004_Node000005"><a xlink:title=" ">
<path fill="none" stroke="#63b8ff" d="M484.79,-454.17C498.98,-450.91 514.15,-447.42 528.73,-444.07"/>
<polygon fill="#63b8ff" stroke="#63b8ff" points="529.31,-447.53 538.27,-441.88 527.74,-440.71 529.31,-447.53"/>
</a>
</g>
</g>
<!-- Node8 -->
<g id="Node000008" class="node">
<title>Node8</title>
<g id="a_Node000008"><a xlink:href="class_u_pyrano_editor_subsystem.html#ae6108e9fda1f9471c24a39988d5122d6" target="_top" xlink:title="Internal callback executed once PIE has fully started.">
<polygon fill="white" stroke="#666666" points="669.25,-546.86 540,-546.86 540,-514.86 669.25,-514.86 669.25,-546.86"/>
<text xml:space="preserve" text-anchor="start" x="548" y="-533.36" font-family="Helvetica,sans-Serif" font-size="10.00">UPyranoEditorSubsystem</text>
<text xml:space="preserve" text-anchor="middle" x="604.62" y="-521.36" font-family="Helvetica,sans-Serif" font-size="10.00">::OnPostPIEStarted</text>
</a>
</g>
</g>
<!-- Node4&#45;&gt;Node8 -->
<g id="edge7_Node000004_Node000008" class="edge">
<title>Node4&#45;&gt;Node8</title>
<g id="a_edge7_Node000004_Node000008"><a xlink:title=" ">
<path fill="none" stroke="#63b8ff" d="M469.37,-485.31C492.39,-493.12 520.1,-502.52 544.35,-510.75"/>
<polygon fill="#63b8ff" stroke="#63b8ff" points="543.19,-514.05 553.79,-513.95 545.44,-507.42 543.19,-514.05"/>
</a>
</g>
</g>
<!-- Node18 -->
<g id="Node000018" class="node">
<title>Node18</title>
<g id="a_Node000018"><a xlink:href="class_u_pyrano_editor_subsystem.html#a30bd4878e55cf4affd5d950f17e85062" target="_top" xlink:title="Creates a new standalone PIE window with the given size.">
<polygon fill="white" stroke="#666666" points="669.25,-492.86 540,-492.86 540,-460.86 669.25,-460.86 669.25,-492.86"/>
<text xml:space="preserve" text-anchor="start" x="548" y="-479.36" font-family="Helvetica,sans-Serif" font-size="10.00">UPyranoEditorSubsystem</text>
<text xml:space="preserve" text-anchor="middle" x="604.62" y="-467.36" font-family="Helvetica,sans-Serif" font-size="10.00">::StartNewPIE</text>
</a>
</g>
</g>
<!-- Node4&#45;&gt;Node18 -->
<g id="edge22_Node000004_Node000018" class="edge">
<title>Node4&#45;&gt;Node18</title>
<g id="a_edge22_Node000004_Node000018"><a xlink:title=" ">
<path fill="none" stroke="#63b8ff" d="M484.79,-471.65C498.84,-472.27 513.85,-472.93 528.3,-473.56"/>
<polygon fill="#63b8ff" stroke="#63b8ff" points="528.09,-477.05 538.23,-473.99 528.39,-470.06 528.09,-477.05"/>
</a>
</g>
</g>
<!-- Node6 -->
<g id="Node000006" class="node">
<title>Node6</title>
<g id="a_Node000006"><a xlink:href="class_u_pyrano_editor_subsystem.html#a2adad0d3fd5864acbe4205b167cf4937" target="_top" xlink:title="Returns the PIE world if running, otherwise the editor world.">
<polygon fill="white" stroke="#666666" points="1018.5,-339.86 889.25,-339.86 889.25,-307.86 1018.5,-307.86 1018.5,-339.86"/>
<text xml:space="preserve" text-anchor="start" x="897.25" y="-326.36" font-family="Helvetica,sans-Serif" font-size="10.00">UPyranoEditorSubsystem</text>
<text xml:space="preserve" text-anchor="middle" x="953.88" y="-314.36" font-family="Helvetica,sans-Serif" font-size="10.00">::GetActiveWorld</text>
</a>
</g>
</g>
<!-- Node5&#45;&gt;Node6 -->
<g id="edge5_Node000005_Node000006" class="edge">
<title>Node5&#45;&gt;Node6</title>
<g id="a_edge5_Node000005_Node000006"><a xlink:title=" ">
<path fill="none" stroke="#63b8ff" d="M669.59,-412.56C719.95,-400.77 791.68,-382.79 853.25,-362.86 869.76,-357.51 887.49,-350.87 903.35,-344.6"/>
<polygon fill="#63b8ff" stroke="#63b8ff" points="904.61,-347.86 912.59,-340.89 902.01,-341.37 904.61,-347.86"/>
</a>
</g>
</g>
<!-- Node7 -->
<g id="Node000007" class="node">
<title>Node7</title>
<g id="a_Node000007"><a xlink:href="namespace_f_irradiance_render_config.html#ad773a5b70d7c97b6076f1188cb90ab33" target="_top" xlink:title=" ">
<polygon fill="white" stroke="#666666" points="846.5,-446.86 718.75,-446.86 718.75,-414.86 846.5,-414.86 846.5,-446.86"/>
<text xml:space="preserve" text-anchor="start" x="726.75" y="-433.36" font-family="Helvetica,sans-Serif" font-size="10.00">FIrradianceRenderConfig</text>
<text xml:space="preserve" text-anchor="middle" x="782.62" y="-421.36" font-family="Helvetica,sans-Serif" font-size="10.00">::RestoreIrradianceConfig</text>
</a>
</g>
</g>
<!-- Node5&#45;&gt;Node7 -->
<g id="edge6_Node000005_Node000007" class="edge">
<title>Node5&#45;&gt;Node7</title>
<g id="a_edge6_Node000005_Node000007"><a xlink:title=" ">
<path fill="none" stroke="#63b8ff" d="M669.66,-428.31C681.85,-428.59 694.71,-428.88 707.19,-429.17"/>
<polygon fill="#63b8ff" stroke="#63b8ff" points="706.93,-432.66 717,-429.39 707.09,-425.66 706.93,-432.66"/>
</a>
</g>
</g>
<!-- Node9 -->
<g id="Node000009" class="node">
<title>Node9</title>
<g id="a_Node000009"><a xlink:href="class_u_pyrano_editor_subsystem.html#ab354ffee4ea9cc5e40566874111fd461" target="_top" xlink:title="Applies Render/Irradiance CVars before starting PIE.">
<polygon fill="white" stroke="#666666" points="847.25,-696.86 718,-696.86 718,-664.86 847.25,-664.86 847.25,-696.86"/>
<text xml:space="preserve" text-anchor="start" x="726" y="-683.36" font-family="Helvetica,sans-Serif" font-size="10.00">UPyranoEditorSubsystem</text>
<text xml:space="preserve" text-anchor="middle" x="782.62" y="-671.36" font-family="Helvetica,sans-Serif" font-size="10.00">::ApplyCVarConfig</text>
</a>
</g>
</g>
<!-- Node8&#45;&gt;Node9 -->
<g id="edge8_Node000008_Node000009" class="edge">
<title>Node8&#45;&gt;Node9</title>
<g id="a_edge8_Node000008_Node000009"><a xlink:title=" ">
<path fill="none" stroke="#63b8ff" d="M615.36,-547.02C632.01,-573.38 668.41,-625.7 712,-655.86 713.6,-656.96 715.25,-658.02 716.94,-659.04"/>
<polygon fill="#63b8ff" stroke="#63b8ff" points="715.22,-662.09 725.69,-663.72 718.52,-655.92 715.22,-662.09"/>
</a>
</g>
</g>
<!-- Node13 -->
<g id="Node000013" class="node">
<title>Node13</title>
<g id="a_Node000013"><a xlink:href="class_u_pyrano_editor_subsystem.html#ab0de335beccfcc58219f322f7d03a67c" target="_top" xlink:title="Ensures the PIE world is standalone or client (not server).">
<polygon fill="white" stroke="#666666" points="853.25,-596.86 712,-596.86 712,-564.86 853.25,-564.86 853.25,-596.86"/>
<text xml:space="preserve" text-anchor="start" x="720" y="-583.36" font-family="Helvetica,sans-Serif" font-size="10.00">UPyranoEditorSubsystem</text>
<text xml:space="preserve" text-anchor="middle" x="782.62" y="-571.36" font-family="Helvetica,sans-Serif" font-size="10.00">::EnsureLocalStandalonePIE</text>
</a>
</g>
</g>
<!-- Node8&#45;&gt;Node13 -->
<g id="edge13_Node000008_Node000013" class="edge">
<title>Node8&#45;&gt;Node13</title>
<g id="a_edge13_Node000008_Node000013"><a xlink:title=" ">
<path fill="none" stroke="#63b8ff" d="M663.25,-547.23C679.13,-551.74 696.5,-556.67 712.93,-561.34"/>
<polygon fill="#63b8ff" stroke="#63b8ff" points="711.53,-564.58 722.11,-563.95 713.45,-557.85 711.53,-564.58"/>
</a>
</g>
</g>
<!-- Node14 -->
<g id="Node000014" class="node">
<title>Node14</title>
<g id="a_Node000014"><a xlink:href="class_u_pyrano_editor_subsystem.html#ac3e1f1b78bd830e95a7b52fc3bff7ed9" target="_top" xlink:title="Ensures that the PIE world exists and is ready; retries if not.">
<polygon fill="white" stroke="#666666" points="847.25,-546.86 718,-546.86 718,-514.86 847.25,-514.86 847.25,-546.86"/>
<text xml:space="preserve" text-anchor="start" x="726" y="-533.36" font-family="Helvetica,sans-Serif" font-size="10.00">UPyranoEditorSubsystem</text>
<text xml:space="preserve" text-anchor="middle" x="782.62" y="-521.36" font-family="Helvetica,sans-Serif" font-size="10.00">::EnsurePIEWorld</text>
</a>
</g>
</g>
<!-- Node8&#45;&gt;Node14 -->
<g id="edge14_Node000008_Node000014" class="edge">
<title>Node8&#45;&gt;Node14</title>
<g id="a_edge14_Node000008_Node000014"><a xlink:title=" ">
<path fill="none" stroke="#63b8ff" d="M669.66,-524.33C681.63,-524.1 694.23,-524.05 706.5,-524.17"/>
<polygon fill="#63b8ff" stroke="#63b8ff" points="706.07,-527.67 716.12,-524.31 706.17,-520.67 706.07,-527.67"/>
</a>
</g>
</g>
<!-- Node16 -->
<g id="Node000016" class="node">
<title>Node16</title>
<g id="a_Node000016"><a xlink:href="class_u_pyrano_editor_subsystem.html#a5bd1813278b5277f9b9677faf4bc9d85" target="_top" xlink:title="Verifies that the game viewport is initialized and visible.">
<polygon fill="white" stroke="#666666" points="847.25,-496.86 718,-496.86 718,-464.86 847.25,-464.86 847.25,-496.86"/>
<text xml:space="preserve" text-anchor="start" x="726" y="-483.36" font-family="Helvetica,sans-Serif" font-size="10.00">UPyranoEditorSubsystem</text>
<text xml:space="preserve" text-anchor="middle" x="782.62" y="-471.36" font-family="Helvetica,sans-Serif" font-size="10.00">::EnsureViewportReady</text>
</a>
</g>
</g>
<!-- Node8&#45;&gt;Node16 -->
<g id="edge18_Node000008_Node000016" class="edge">
<title>Node8&#45;&gt;Node16</title>
<g id="a_edge18_Node000008_Node000016"><a xlink:title=" ">
<path fill="none" stroke="#63b8ff" d="M643.38,-514.47C661.87,-508.31 684.81,-501.45 706.66,-495.47"/>
<polygon fill="#63b8ff" stroke="#63b8ff" points="707.41,-498.89 716.15,-492.91 705.58,-492.14 707.41,-498.89"/>
</a>
</g>
</g>
<!-- Node17 -->
<g id="Node000017" class="node">
<title>Node17</title>
<g id="a_Node000017"><a xlink:href="class_u_pyrano_editor_subsystem.html#aac7636240544517fce7c46ac0df245a3" target="_top" xlink:title="Delays simulation start and monitors when it finishes.">
<polygon fill="white" stroke="#666666" points="849.12,-646.86 716.12,-646.86 716.12,-614.86 849.12,-614.86 849.12,-646.86"/>
<text xml:space="preserve" text-anchor="start" x="724.12" y="-633.36" font-family="Helvetica,sans-Serif" font-size="10.00">UPyranoEditorSubsystem</text>
<text xml:space="preserve" text-anchor="middle" x="782.62" y="-621.36" font-family="Helvetica,sans-Serif" font-size="10.00">::ScheduleStartAndMonitor</text>
</a>
</g>
</g>
<!-- Node8&#45;&gt;Node17 -->
<g id="edge20_Node000008_Node000017" class="edge">
<title>Node8&#45;&gt;Node17</title>
<g id="a_edge20_Node000008_Node000017"><a xlink:title=" ">
<path fill="none" stroke="#63b8ff" d="M625.36,-547.24C645.97,-563.74 679.72,-589.08 712,-605.86 714.69,-607.25 717.47,-608.6 720.3,-609.91"/>
<polygon fill="#63b8ff" stroke="#63b8ff" points="718.78,-613.06 729.35,-613.8 721.55,-606.63 718.78,-613.06"/>
</a>
</g>
</g>
<!-- Node10 -->
<g id="Node000010" class="node">
<title>Node10</title>
<g id="a_Node000010"><a xlink:href="namespace_f_irradiance_render_config.html#a2880f5d9df2d1f4e81ecb89ca2f4e0e6" target="_top" xlink:title=" ">
<polygon fill="white" stroke="#666666" points="1016.25,-696.86 891.5,-696.86 891.5,-664.86 1016.25,-664.86 1016.25,-696.86"/>
<text xml:space="preserve" text-anchor="start" x="899.5" y="-683.36" font-family="Helvetica,sans-Serif" font-size="10.00">FIrradianceRenderConfig</text>
<text xml:space="preserve" text-anchor="middle" x="953.88" y="-671.36" font-family="Helvetica,sans-Serif" font-size="10.00">::ApplyIrradianceConfig</text>
</a>
</g>
</g>
<!-- Node9&#45;&gt;Node10 -->
<g id="edge9_Node000009_Node000010" class="edge">
<title>Node9&#45;&gt;Node10</title>
<g id="a_edge9_Node000009_Node000010"><a xlink:title=" ">
<path fill="none" stroke="#63b8ff" d="M847.61,-680.86C858.06,-680.86 868.96,-680.86 879.61,-680.86"/>
<polygon fill="#63b8ff" stroke="#63b8ff" points="879.52,-684.36 889.52,-680.86 879.52,-677.36 879.52,-684.36"/>
</a>
</g>
</g>
<!-- Node11 -->
<g id="Node000011" class="node">
<title>Node11</title>
<g id="a_Node000011"><a xlink:href="namespaceanonymous__namespace_02_irradiance_configuration_8cpp_03.html#aad684e2485baaa38779ecb26af25cc94" target="_top" xlink:title=" ">
<polygon fill="white" stroke="#666666" points="1176.25,-727.86 1054.5,-727.86 1054.5,-683.86 1176.25,-683.86 1176.25,-727.86"/>
<text xml:space="preserve" text-anchor="start" x="1062.5" y="-714.36" font-family="Helvetica,sans-Serif" font-size="10.00">anonymous_namespace</text>
<text xml:space="preserve" text-anchor="start" x="1062.5" y="-702.36" font-family="Helvetica,sans-Serif" font-size="10.00">{IrradianceConfiguration</text>
<text xml:space="preserve" text-anchor="middle" x="1115.38" y="-690.36" font-family="Helvetica,sans-Serif" font-size="10.00">::cpp}::ApplyGroup</text>
</a>
</g>
</g>
<!-- Node10&#45;&gt;Node11 -->
<g id="edge10_Node000010_Node000011" class="edge">
<title>Node10&#45;&gt;Node11</title>
<g id="a_edge10_Node000010_Node000011"><a xlink:title=" ">
<path fill="none" stroke="#63b8ff" d="M1016.54,-690.52C1025.23,-691.88 1034.23,-693.29 1043.08,-694.68"/>
<polygon fill="#63b8ff" stroke="#63b8ff" points="1042.27,-698.1 1052.69,-696.19 1043.35,-691.18 1042.27,-698.1"/>
</a>
</g>
</g>
<!-- Node12 -->
<g id="Node000012" class="node">
<title>Node12</title>
<g id="a_Node000012"><a xlink:href="namespaceanonymous__namespace_02_irradiance_configuration_8cpp_03.html#aca5fa9f954f01057940a973680cd4d9a" target="_top" xlink:title=" ">
<polygon fill="white" stroke="#666666" points="1334,-702.86 1212.25,-702.86 1212.25,-658.86 1334,-658.86 1334,-702.86"/>
<text xml:space="preserve" text-anchor="start" x="1220.25" y="-689.36" font-family="Helvetica,sans-Serif" font-size="10.00">anonymous_namespace</text>
<text xml:space="preserve" text-anchor="start" x="1220.25" y="-677.36" font-family="Helvetica,sans-Serif" font-size="10.00">{IrradianceConfiguration</text>
<text xml:space="preserve" text-anchor="middle" x="1273.12" y="-665.36" font-family="Helvetica,sans-Serif" font-size="10.00">::cpp}::SaveAndSetInt</text>
</a>
</g>
</g>
<!-- Node10&#45;&gt;Node12 -->
<g id="edge12_Node000010_Node000012" class="edge">
<title>Node10&#45;&gt;Node12</title>
<g id="a_edge12_Node000010_Node000012"><a xlink:title=" ">
<path fill="none" stroke="#63b8ff" d="M1016.5,-676.57C1029.06,-675.85 1042.2,-675.23 1054.5,-674.86 1108.59,-673.23 1122.17,-673.17 1176.25,-674.86 1184.07,-675.1 1192.24,-675.46 1200.37,-675.88"/>
<polygon fill="#63b8ff" stroke="#63b8ff" points="1200.11,-679.37 1210.29,-676.42 1200.5,-672.38 1200.11,-679.37"/>
</a>
</g>
</g>
<!-- Node11&#45;&gt;Node12 -->
<g id="edge11_Node000011_Node000012" class="edge">
<title>Node11&#45;&gt;Node12</title>
<g id="a_edge11_Node000011_Node000012"><a xlink:title=" ">
<path fill="none" stroke="#63b8ff" d="M1176.59,-696.19C1184.45,-694.93 1192.55,-693.63 1200.57,-692.34"/>
<polygon fill="#63b8ff" stroke="#63b8ff" points="1201,-695.82 1210.32,-690.78 1199.89,-688.91 1201,-695.82"/>
</a>
</g>
</g>
<!-- Node14&#45;&gt;Node6 -->
<g id="edge15_Node000014_Node000006" class="edge">
<title>Node14&#45;&gt;Node6</title>
<g id="a_edge15_Node000014_Node000006"><a xlink:title=" ">
<path fill="none" stroke="#63b8ff" d="M840.69,-514.44C845.18,-511.96 849.44,-509.11 853.25,-505.86 902.61,-463.66 931.86,-390.64 944.84,-351.13"/>
<polygon fill="#63b8ff" stroke="#63b8ff" points="948.15,-352.28 947.82,-341.69 941.47,-350.17 948.15,-352.28"/>
</a>
</g>
</g>
<!-- Node14&#45;&gt;Node8 -->
<g id="edge17_Node000014_Node000008" class="edge">
<title>Node14&#45;&gt;Node8</title>
<g id="a_edge17_Node000014_Node000008"><a xlink:title=" ">
<path fill="none" stroke="#63b8ff" d="M717.63,-537.38C705.67,-537.61 693.07,-537.67 680.8,-537.54"/>
<polygon fill="#63b8ff" stroke="#63b8ff" points="681.23,-534.05 671.18,-537.4 681.12,-541.05 681.23,-534.05"/>
</a>
</g>
</g>
<!-- Node15 -->
<g id="Node000015" class="node">
<title>Node15</title>
<g id="a_Node000015"><a xlink:href="namespace_pyrano_editor_utils.html#ad1d7ad11514ffa4c9c0506a310f89295" target="_top" xlink:title=" ">
<polygon fill="white" stroke="#666666" points="1003.12,-596.86 904.62,-596.86 904.62,-564.86 1003.12,-564.86 1003.12,-596.86"/>
<text xml:space="preserve" text-anchor="start" x="912.62" y="-583.36" font-family="Helvetica,sans-Serif" font-size="10.00">PyranoEditorUtils::</text>
<text xml:space="preserve" text-anchor="middle" x="953.88" y="-571.36" font-family="Helvetica,sans-Serif" font-size="10.00">GetPIEWorld</text>
</a>
</g>
</g>
<!-- Node14&#45;&gt;Node15 -->
<g id="edge16_Node000014_Node000015" class="edge">
<title>Node14&#45;&gt;Node15</title>
<g id="a_edge16_Node000014_Node000015"><a xlink:title=" ">
<path fill="none" stroke="#63b8ff" d="M839.04,-547.23C856.37,-552.35 875.55,-558.01 893.15,-563.21"/>
<polygon fill="#63b8ff" stroke="#63b8ff" points="892.14,-566.56 902.72,-566.04 894.12,-559.85 892.14,-566.56"/>
</a>
</g>
</g>
<!-- Node16&#45;&gt;Node8 -->
<g id="edge19_Node000016_Node000008" class="edge">
<title>Node16&#45;&gt;Node8</title>
<g id="a_edge19_Node000016_Node000008"><a xlink:title=" ">
<path fill="none" stroke="#63b8ff" d="M743.75,-497.28C725.28,-503.43 702.39,-510.27 680.59,-516.24"/>
<polygon fill="#63b8ff" stroke="#63b8ff" points="679.87,-512.81 671.12,-518.79 681.69,-519.57 679.87,-512.81"/>
</a>
</g>
</g>
<!-- Node17&#45;&gt;Node15 -->
<g id="edge21_Node000017_Node000015" class="edge">
<title>Node17&#45;&gt;Node15</title>
<g id="a_edge21_Node000017_Node000015"><a xlink:title=" ">
<path fill="none" stroke="#63b8ff" d="M839.04,-614.49C856.37,-609.37 875.55,-603.7 893.15,-598.5"/>
<polygon fill="#63b8ff" stroke="#63b8ff" points="894.12,-601.86 902.72,-595.67 892.14,-595.15 894.12,-601.86"/>
</a>
</g>
</g>
<!-- Node19&#45;&gt;Node6 -->
<g id="edge24_Node000019_Node000006" class="edge">
<title>Node19&#45;&gt;Node6</title>
<g id="a_edge24_Node000019_Node000006"><a xlink:title=" ">
<path fill="none" stroke="#63b8ff" d="M306.82,-364.8C438.03,-356.49 737.11,-337.53 877.49,-328.63"/>
<polygon fill="#63b8ff" stroke="#63b8ff" points="877.68,-332.13 887.43,-328 877.23,-325.14 877.68,-332.13"/>
</a>
</g>
</g>
<!-- Node20 -->
<g id="Node000020" class="node">
<title>Node20</title>
<g id="a_Node000020"><a xlink:href="_pyrano_console_log_sink_8cpp.html#a86136d5a6748aa19feba6c727ccc502f" target="_top" xlink:title=" ">
<polygon fill="white" stroke="#666666" points="497.25,-416.86 342.5,-416.86 342.5,-396.86 497.25,-396.86 497.25,-416.86"/>
<text xml:space="preserve" text-anchor="middle" x="419.88" y="-403.36" font-family="Helvetica,sans-Serif" font-size="10.00">RemovePyranoConsoleLogSink</text>
</a>
</g>
</g>
<!-- Node19&#45;&gt;Node20 -->
<g id="edge25_Node000019_Node000020" class="edge">
<title>Node19&#45;&gt;Node20</title>
<g id="a_edge25_Node000019_Node000020"><a xlink:title=" ">
<path fill="none" stroke="#63b8ff" d="M306.91,-382.68C324.09,-386.39 342.58,-390.38 359.49,-394.03"/>
<polygon fill="#63b8ff" stroke="#63b8ff" points="358.35,-397.37 368.86,-396.06 359.83,-390.53 358.35,-397.37"/>
</a>
</g>
</g>
<!-- Node23 -->
<g id="Node000023" class="node">
<title>Node23</title>
<g id="a_Node000023"><a xlink:href="_pyrano_console_log_sink_8cpp.html#a087e7c4e6d620e9331bbc109e283a882" target="_top" xlink:title=" ">
<polygon fill="white" stroke="#666666" points="492,-340.86 347.75,-340.86 347.75,-320.86 492,-320.86 492,-340.86"/>
<text xml:space="preserve" text-anchor="middle" x="419.88" y="-327.36" font-family="Helvetica,sans-Serif" font-size="10.00">InstallPyranoConsoleLogSink</text>
</a>
</g>
</g>
<!-- Node22&#45;&gt;Node23 -->
<g id="edge28_Node000022_Node000023" class="edge">
<title>Node22&#45;&gt;Node23</title>
<g id="a_edge28_Node000022_Node000023"><a xlink:title=" ">
<path fill="none" stroke="#63b8ff" d="M306.91,-323.22C316.38,-323.87 326.25,-324.54 336.03,-325.21"/>
<polygon fill="#63b8ff" stroke="#63b8ff" points="335.72,-328.7 345.93,-325.88 336.19,-321.71 335.72,-328.7"/>
</a>
</g>
</g>
<!-- Node24&#45;&gt;Node6 -->
<g id="edge30_Node000024_Node000006" class="edge">
<title>Node24&#45;&gt;Node6</title>
<g id="a_edge30_Node000024_Node000006"><a xlink:title=" ">
<path fill="none" stroke="#63b8ff" d="M484.78,-291.3C583.37,-298.16 772.15,-311.29 877.35,-318.6"/>
<polygon fill="#63b8ff" stroke="#63b8ff" points="877.09,-322.09 887.31,-319.3 877.57,-315.11 877.09,-322.09"/>
</a>
</g>
</g>
<!-- Node25 -->
<g id="Node000025" class="node">
<title>Node25</title>
<g id="a_Node000025"><a xlink:href="namespace_pyrano_editor_utils.html#a923935ab07773c60282d0c628dbd3b9d" target="_top" xlink:title=" ">
<polygon fill="white" stroke="#666666" points="676,-236.86 533.25,-236.86 533.25,-204.86 676,-204.86 676,-236.86"/>
<text xml:space="preserve" text-anchor="start" x="541.25" y="-223.36" font-family="Helvetica,sans-Serif" font-size="10.00">PyranoEditorUtils::</text>
<text xml:space="preserve" text-anchor="middle" x="604.62" y="-211.36" font-family="Helvetica,sans-Serif" font-size="10.00">GetPyranometerComponents</text>
</a>
</g>
</g>
<!-- Node24&#45;&gt;Node25 -->
<g id="edge31_Node000024_Node000025" class="edge">
<title>Node24&#45;&gt;Node25</title>
<g id="a_edge31_Node000024_Node000025"><a xlink:title=" ">
<path fill="none" stroke="#63b8ff" d="M472.35,-270.41C480.7,-267.63 489.23,-264.71 497.25,-261.86 515.16,-255.48 534.61,-248.11 551.92,-241.4"/>
<polygon fill="#63b8ff" stroke="#63b8ff" points="552.93,-244.76 560.98,-237.87 550.39,-238.24 552.93,-244.76"/>
</a>
</g>
</g>
<!-- Node26&#45;&gt;Node6 -->
<g id="edge33_Node000026_Node000006" class="edge">
<title>Node26&#45;&gt;Node6</title>
<g id="a_edge33_Node000026_Node000006"><a xlink:title=" ">
<path fill="none" stroke="#63b8ff" d="M669.65,-24.44C724.31,-25.75 802,-36.06 853.25,-78.86 920.95,-135.4 943.15,-245.04 950.01,-296.25"/>
<polygon fill="#63b8ff" stroke="#63b8ff" points="946.5,-296.38 951.19,-305.88 953.44,-295.53 946.5,-296.38"/>
</a>
</g>
</g>
<!-- Node27&#45;&gt;Node4 -->
<g id="edge35_Node000027_Node000004" class="edge">
<title>Node27&#45;&gt;Node4</title>
<g id="a_edge35_Node000027_Node000004"><a xlink:title=" ">
<path fill="none" stroke="#63b8ff" d="M306.91,-468.86C318.88,-468.86 331.48,-468.86 343.75,-468.86"/>
<polygon fill="#63b8ff" stroke="#63b8ff" points="343.37,-472.36 353.37,-468.86 343.37,-465.36 343.37,-472.36"/>
</a>
</g>
</g>
<!-- Node30&#45;&gt;Node6 -->
<g id="edge44_Node000030_Node000006" class="edge">
<title>Node30&#45;&gt;Node6</title>
<g id="a_edge44_Node000030_Node000006"><a xlink:title=" ">
<path fill="none" stroke="#63b8ff" d="M293.11,-173.53C297.86,-171 302.42,-168.12 306.5,-164.86 328.74,-147.08 317.34,-125.18 342.5,-111.86 403.28,-79.67 430.1,-97 497.25,-111.86 665.25,-149.03 844.82,-254.75 918.42,-301.34"/>
<polygon fill="#63b8ff" stroke="#63b8ff" points="916.5,-304.27 926.81,-306.7 920.26,-298.37 916.5,-304.27"/>
</a>
</g>
</g>
<!-- Node30&#45;&gt;Node21 -->
<g id="edge42_Node000030_Node000021" class="edge">
<title>Node30&#45;&gt;Node21</title>
<g id="a_edge42_Node000030_Node000021"><a xlink:title=" ">
<path fill="none" stroke="#63b8ff" d="M304.43,-206.3C317.96,-209.91 332.41,-213.77 346.33,-217.48"/>
<polygon fill="#63b8ff" stroke="#63b8ff" points="345.33,-220.84 355.89,-220.04 347.13,-214.08 345.33,-220.84"/>
</a>
</g>
</g>
<!-- Node31 -->
<g id="Node000031" class="node">
<title>Node31</title>
<g id="a_Node000031"><a xlink:href="struct_f_validation_result.html#af85ff546ed9707e4efb24b7e69d5465b" target="_top" xlink:title=" ">
<polygon fill="white" stroke="#666666" points="469.12,-152.86 370.62,-152.86 370.62,-120.86 469.12,-120.86 469.12,-152.86"/>
<text xml:space="preserve" text-anchor="start" x="378.62" y="-139.36" font-family="Helvetica,sans-Serif" font-size="10.00">FValidationResult::</text>
<text xml:space="preserve" text-anchor="middle" x="419.88" y="-127.36" font-family="Helvetica,sans-Serif" font-size="10.00">AddFieldError</text>
</a>
</g>
</g>
<!-- Node30&#45;&gt;Node31 -->
<g id="edge39_Node000030_Node000031" class="edge">
<title>Node30&#45;&gt;Node31</title>
<g id="a_edge39_Node000030_Node000031"><a xlink:title=" ">
<path fill="none" stroke="#63b8ff" d="M297.6,-173.38C317.18,-167.48 339.34,-160.81 359.31,-154.79"/>
<polygon fill="#63b8ff" stroke="#63b8ff" points="360.14,-158.2 368.7,-151.97 358.12,-151.5 360.14,-158.2"/>
</a>
</g>
</g>
<!-- Node32 -->
<g id="Node000032" class="node">
<title>Node32</title>
<g id="a_Node000032"><a xlink:href="namespace_pyrano_editor_utils.html#a6a8fea8fd47c5ad779e7bd632dcfc1b7" target="_top" xlink:title=" ">
<polygon fill="white" stroke="#666666" points="476.62,-202.86 363.12,-202.86 363.12,-170.86 476.62,-170.86 476.62,-202.86"/>
<text xml:space="preserve" text-anchor="start" x="371.12" y="-189.36" font-family="Helvetica,sans-Serif" font-size="10.00">PyranoEditorUtils::</text>
<text xml:space="preserve" text-anchor="middle" x="419.88" y="-177.36" font-family="Helvetica,sans-Serif" font-size="10.00">CountEnabledSensors</text>
</a>
</g>
</g>
<!-- Node30&#45;&gt;Node32 -->
<g id="edge40_Node000030_Node000032" class="edge">
<title>Node30&#45;&gt;Node32</title>
<g id="a_edge40_Node000030_Node000032"><a xlink:title=" ">
<path fill="none" stroke="#63b8ff" d="M306.91,-188.77C321.34,-188.52 336.69,-188.26 351.26,-188.01"/>
<polygon fill="#63b8ff" stroke="#63b8ff" points="351.29,-191.51 361.23,-187.84 351.17,-184.51 351.29,-191.51"/>
</a>
</g>
</g>
<!-- Node33 -->
<g id="Node000033" class="node">
<title>Node33</title>
<g id="a_Node000033"><a xlink:href="namespace_pyrano_editor_utils.html#acef7c6aa5b495ff28a81db72f6059f2d" target="_top" xlink:title=" ">
<polygon fill="white" stroke="#666666" points="471,-64.86 368.75,-64.86 368.75,-32.86 471,-32.86 471,-64.86"/>
<text xml:space="preserve" text-anchor="start" x="376.75" y="-51.36" font-family="Helvetica,sans-Serif" font-size="10.00">PyranoEditorUtils::</text>
<text xml:space="preserve" text-anchor="middle" x="419.88" y="-39.36" font-family="Helvetica,sans-Serif" font-size="10.00">FormatDurationText</text>
</a>
</g>
</g>
<!-- Node30&#45;&gt;Node33 -->
<g id="edge43_Node000030_Node000033" class="edge">
<title>Node30&#45;&gt;Node33</title>
<g id="a_edge43_Node000030_Node000033"><a xlink:title=" ">
<path fill="none" stroke="#63b8ff" d="M295.39,-173.4C299.41,-170.92 303.19,-168.09 306.5,-164.86 336.12,-135.88 312.88,-107.83 342.5,-78.86 347.2,-74.26 352.68,-70.35 358.52,-67.02"/>
<polygon fill="#63b8ff" stroke="#63b8ff" points="359.88,-70.26 367.24,-62.64 356.73,-64 359.88,-70.26"/>
</a>
</g>
</g>
<!-- Node32&#45;&gt;Node25 -->
<g id="edge41_Node000032_Node000025" class="edge">
<title>Node32&#45;&gt;Node25</title>
<g id="a_edge41_Node000032_Node000025"><a xlink:title=" ">
<path fill="none" stroke="#63b8ff" d="M476.7,-197.24C490.97,-199.9 506.62,-202.81 521.9,-205.65"/>
<polygon fill="#63b8ff" stroke="#63b8ff" points="520.98,-209.04 531.45,-207.43 522.26,-202.16 520.98,-209.04"/>
</a>
</g>
</g>
</g>
</svg>
