<?xml version="1.0" encoding="UTF-8" standalone="no"?>
<!DOCTYPE svg PUBLIC "-//W3C//DTD SVG 1.1//EN"
 "http://www.w3.org/Graphics/SVG/1.1/DTD/svg11.dtd">
<!-- Generated by graphviz version 14.1.0 (20251206.1807)
 -->
<!-- Title: UIrradianceScheduler::Tick Pages: 1 -->
<svg width="1214pt" height="217pt"
 viewBox="0.00 0.00 1214.00 217.00" xmlns="http://www.w3.org/2000/svg" xmlns:xlink="http://www.w3.org/1999/xlink">
<g id="graph0" class="graph" transform="scale(1 1) rotate(0) translate(4 213)">
<title>UIrradianceScheduler::Tick</title>
<!-- Node1 -->
<g id="Node000001" class="node">
<title>Node1</title>
<g id="a_Node000001"><a xlink:title=" ">
<polygon fill="#999999" stroke="#666666" points="109.75,-162 0,-162 0,-130 109.75,-130 109.75,-162"/>
<text xml:space="preserve" text-anchor="start" x="8" y="-148.5" font-family="Helvetica,sans-Serif" font-size="10.00">UIrradianceScheduler</text>
<text xml:space="preserve" text-anchor="middle" x="54.88" y="-136.5" font-family="Helvetica,sans-Serif" font-size="10.00">::Tick</text>
</a>
</g>
</g>
<!-- Node2 -->
<g id="Node000002" class="node">
<title>Node2</title>
<g id="a_Node000002"><a xlink:href="class_u_irradiance_scheduler.html#a3b69dd1a2381f3fc1b0035de006416b5" target="_top" xlink:title="Consumes the latest irradiance value from the subsystem, if available.">
<polygon fill="white" stroke="#666666" points="281,-209 145.75,-209 145.75,-177 281,-177 281,-209"/>
<text xml:space="preserve" text-anchor="start" x="153.75" y="-195.5" font-family="Helvetica,sans-Serif" font-size="10.00">UIrradianceScheduler</text>
<text xml:space="preserve" text-anchor="middle" x="213.38" y="-183.5" font-family="Helvetica,sans-Serif" font-size="10.00">::ConsumeIrradianceResult</text>
</a>
</g>
</g>
<!-- Node1&#45;&gt;Node2 -->
<g id="edge1_Node000001_Node000002" class="edge">
<title>Node1&#45;&gt;Node2</title>
<g id="a_edge1_Node000001_Node000002"><a xlink:title=" ">
<path fill="none" stroke="#63b8ff" d="M110.17,-162.31C121.93,-165.84 134.49,-169.61 146.64,-173.26"/>
<polygon fill="#63b8ff" stroke="#63b8ff" points="145.61,-176.6 156.19,-176.13 147.62,-169.9 145.61,-176.6"/>
</a>
</g>
</g>
<!-- Node4 -->
<g id="Node000004" class="node">
<title>Node4</title>
<g id="a_Node000004"><a xlink:href="class_u_irradiance_scheduler.html#ac79a70849af28bdcf62ac8214ccaeee5" target="_top" xlink:title="Handles a completed capture and advances the flow.">
<polygon fill="white" stroke="#666666" points="271.62,-137 155.12,-137 155.12,-105 271.62,-105 271.62,-137"/>
<text xml:space="preserve" text-anchor="start" x="163.12" y="-123.5" font-family="Helvetica,sans-Serif" font-size="10.00">UIrradianceScheduler</text>
<text xml:space="preserve" text-anchor="middle" x="213.38" y="-111.5" font-family="Helvetica,sans-Serif" font-size="10.00">::OnCaptureCompleted</text>
</a>
</g>
</g>
<!-- Node1&#45;&gt;Node4 -->
<g id="edge3_Node000001_Node000004" class="edge">
<title>Node1&#45;&gt;Node4</title>
<g id="a_edge3_Node000001_Node000004"><a xlink:title=" ">
<path fill="none" stroke="#63b8ff" d="M110.17,-137.33C120.96,-135.6 132.43,-133.77 143.63,-131.98"/>
<polygon fill="#63b8ff" stroke="#63b8ff" points="143.89,-135.48 153.22,-130.45 142.79,-128.57 143.89,-135.48"/>
</a>
</g>
</g>
<!-- Node3 -->
<g id="Node000003" class="node">
<title>Node3</title>
<g id="a_Node000003"><a xlink:href="class_u_irradiance_scheduler.html#a3a1998734dd679049d860179bf9b0222" target="_top" xlink:title="Ensures the IrradianceSubsystem pointer is valid for the current world.">
<polygon fill="white" stroke="#666666" points="1017.75,-167 908,-167 908,-135 1017.75,-135 1017.75,-167"/>
<text xml:space="preserve" text-anchor="start" x="916" y="-153.5" font-family="Helvetica,sans-Serif" font-size="10.00">UIrradianceScheduler</text>
<text xml:space="preserve" text-anchor="middle" x="962.88" y="-141.5" font-family="Helvetica,sans-Serif" font-size="10.00">::EnsureSubsystem</text>
</a>
</g>
</g>
<!-- Node2&#45;&gt;Node3 -->
<g id="edge2_Node000002_Node000003" class="edge">
<title>Node2&#45;&gt;Node3</title>
<g id="a_edge2_Node000002_Node000003"><a xlink:title=" ">
<path fill="none" stroke="#63b8ff" d="M281.44,-195.24C293.29,-195.56 305.5,-195.83 317,-196 382.44,-196.96 398.87,-198.95 464.25,-196 619.6,-188.99 801.41,-169.73 896.43,-158.81"/>
<polygon fill="#63b8ff" stroke="#63b8ff" points="896.83,-162.29 906.36,-157.67 896.02,-155.34 896.83,-162.29"/>
</a>
</g>
</g>
<!-- Node5 -->
<g id="Node000005" class="node">
<title>Node5</title>
<g id="a_Node000005"><a xlink:href="class_u_irradiance_scheduler.html#ab400b6f7f8c6768537088d0eca221f90" target="_top" xlink:title="Advances to the next time slot, or finalizes the simulation if finished.">
<polygon fill="white" stroke="#666666" points="458.62,-87 322.62,-87 322.62,-55 458.62,-55 458.62,-87"/>
<text xml:space="preserve" text-anchor="start" x="330.62" y="-73.5" font-family="Helvetica,sans-Serif" font-size="10.00">UIrradianceScheduler</text>
<text xml:space="preserve" text-anchor="middle" x="390.62" y="-61.5" font-family="Helvetica,sans-Serif" font-size="10.00">::AdvanceTimeSlotOrFinish</text>
</a>
</g>
</g>
<!-- Node4&#45;&gt;Node5 -->
<g id="edge4_Node000004_Node000005" class="edge">
<title>Node4&#45;&gt;Node5</title>
<g id="a_edge4_Node000004_Node000005"><a xlink:title=" ">
<path fill="none" stroke="#63b8ff" d="M271.76,-104.63C287.41,-100.16 304.53,-95.28 320.76,-90.65"/>
<polygon fill="#63b8ff" stroke="#63b8ff" points="321.7,-94.02 330.36,-87.91 319.78,-87.29 321.7,-94.02"/>
</a>
</g>
</g>
<!-- Node6 -->
<g id="Node000006" class="node">
<title>Node6</title>
<g id="a_Node000006"><a xlink:href="class_u_irradiance_scheduler.html#a2c93371fc51e45b8af73ce9b4d2c690a" target="_top" xlink:title="Launches the next capture for the current time slot and sensor index.">
<polygon fill="white" stroke="#666666" points="655,-46 500.25,-46 500.25,-14 655,-14 655,-46"/>
<text xml:space="preserve" text-anchor="start" x="508.25" y="-32.5" font-family="Helvetica,sans-Serif" font-size="10.00">UIrradianceScheduler</text>
<text xml:space="preserve" text-anchor="middle" x="577.62" y="-20.5" font-family="Helvetica,sans-Serif" font-size="10.00">::LaunchNextSimulationCapture</text>
</a>
</g>
</g>
<!-- Node4&#45;&gt;Node6 -->
<g id="edge22_Node000004_Node000006" class="edge">
<title>Node4&#45;&gt;Node6</title>
<g id="a_edge22_Node000004_Node000006"><a xlink:title=" ">
<path fill="none" stroke="#63b8ff" d="M230.39,-104.64C249.22,-86.61 282.34,-58.51 317,-46 371.7,-26.26 437.05,-22.33 488.51,-23.3"/>
<polygon fill="#63b8ff" stroke="#63b8ff" points="488.33,-26.8 498.42,-23.56 488.51,-19.8 488.33,-26.8"/>
</a>
</g>
</g>
<!-- Node15 -->
<g id="Node000015" class="node">
<title>Node15</title>
<g id="a_Node000015"><a xlink:href="class_u_irradiance_scheduler.html#aa0a5a5137cd16afa6cfd83fd90026d8b" target="_top" xlink:title="Returns true if running a multi&#45;slot simulation.">
<polygon fill="white" stroke="#666666" points="445.5,-137 335.75,-137 335.75,-105 445.5,-105 445.5,-137"/>
<text xml:space="preserve" text-anchor="start" x="343.75" y="-123.5" font-family="Helvetica,sans-Serif" font-size="10.00">UIrradianceScheduler</text>
<text xml:space="preserve" text-anchor="middle" x="390.62" y="-111.5" font-family="Helvetica,sans-Serif" font-size="10.00">::IsSimulationMode</text>
</a>
</g>
</g>
<!-- Node4&#45;&gt;Node15 -->
<g id="edge18_Node000004_Node000015" class="edge">
<title>Node4&#45;&gt;Node15</title>
<g id="a_edge18_Node000004_Node000015"><a xlink:title=" ">
<path fill="none" stroke="#63b8ff" d="M271.76,-121C288.55,-121 307.02,-121 324.26,-121"/>
<polygon fill="#63b8ff" stroke="#63b8ff" points="323.87,-124.5 333.87,-121 323.87,-117.5 323.87,-124.5"/>
</a>
</g>
</g>
<!-- Node16 -->
<g id="Node000016" class="node">
<title>Node16</title>
<g id="a_Node000016"><a xlink:href="class_u_irradiance_scheduler.html#add6eff6a074954268d370e6ab2d7a060" target="_top" xlink:title="Launches the next pending one&#45;shot capture request, or finalizes if none.">
<polygon fill="white" stroke="#666666" points="464.25,-187 317,-187 317,-155 464.25,-155 464.25,-187"/>
<text xml:space="preserve" text-anchor="start" x="325" y="-173.5" font-family="Helvetica,sans-Serif" font-size="10.00">UIrradianceScheduler</text>
<text xml:space="preserve" text-anchor="middle" x="390.62" y="-161.5" font-family="Helvetica,sans-Serif" font-size="10.00">::LaunchNextOneShotCapture</text>
</a>
</g>
</g>
<!-- Node4&#45;&gt;Node16 -->
<g id="edge19_Node000004_Node000016" class="edge">
<title>Node4&#45;&gt;Node16</title>
<g id="a_edge19_Node000004_Node000016"><a xlink:title=" ">
<path fill="none" stroke="#63b8ff" d="M271.76,-137.37C287.41,-141.84 304.53,-146.72 320.76,-151.35"/>
<polygon fill="#63b8ff" stroke="#63b8ff" points="319.78,-154.71 330.36,-154.09 321.7,-147.98 319.78,-154.71"/>
</a>
</g>
</g>
<!-- Node5&#45;&gt;Node6 -->
<g id="edge5_Node000005_Node000006" class="edge">
<title>Node5&#45;&gt;Node6</title>
<g id="a_edge5_Node000005_Node000006"><a xlink:title=" ">
<path fill="none" stroke="#63b8ff" d="M438.79,-54.58C454.21,-50.58 471.87,-46.41 489.29,-42.61"/>
<polygon fill="#63b8ff" stroke="#63b8ff" points="489.55,-46.14 498.6,-40.62 488.09,-39.29 489.55,-46.14"/>
</a>
</g>
</g>
<!-- Node13 -->
<g id="Node000013" class="node">
<title>Node13</title>
<g id="a_Node000013"><a xlink:href="class_u_irradiance_scheduler.html#ae8f8cd8bd9eccb9abdf17b9f023bea00" target="_top" xlink:title="Restores the viewport if it was previously forced.">
<polygon fill="white" stroke="#666666" points="632.5,-146 522.75,-146 522.75,-114 632.5,-114 632.5,-146"/>
<text xml:space="preserve" text-anchor="start" x="530.75" y="-132.5" font-family="Helvetica,sans-Serif" font-size="10.00">UIrradianceScheduler</text>
<text xml:space="preserve" text-anchor="middle" x="577.62" y="-120.5" font-family="Helvetica,sans-Serif" font-size="10.00">::RestoreViewport</text>
</a>
</g>
</g>
<!-- Node5&#45;&gt;Node13 -->
<g id="edge15_Node000005_Node000013" class="edge">
<title>Node5&#45;&gt;Node13</title>
<g id="a_edge15_Node000005_Node000013"><a xlink:title=" ">
<path fill="none" stroke="#63b8ff" d="M443.16,-87.43C465.22,-94.47 491.17,-102.75 514.3,-110.12"/>
<polygon fill="#63b8ff" stroke="#63b8ff" points="513.02,-113.39 523.61,-113.09 515.14,-106.72 513.02,-113.39"/>
</a>
</g>
</g>
<!-- Node14 -->
<g id="Node000014" class="node">
<title>Node14</title>
<g id="a_Node000014"><a xlink:href="class_u_irradiance_scheduler.html#aebff31185ed2941c1c7abcc423e1b25a" target="_top" xlink:title="Sets the SunSky UTC time.">
<polygon fill="white" stroke="#666666" points="632.5,-96 522.75,-96 522.75,-64 632.5,-64 632.5,-96"/>
<text xml:space="preserve" text-anchor="start" x="530.75" y="-82.5" font-family="Helvetica,sans-Serif" font-size="10.00">UIrradianceScheduler</text>
<text xml:space="preserve" text-anchor="middle" x="577.62" y="-70.5" font-family="Helvetica,sans-Serif" font-size="10.00">::SetSunSkyUTC</text>
</a>
</g>
</g>
<!-- Node5&#45;&gt;Node14 -->
<g id="edge17_Node000005_Node000014" class="edge">
<title>Node5&#45;&gt;Node14</title>
<g id="a_edge17_Node000005_Node000014"><a xlink:title=" ">
<path fill="none" stroke="#63b8ff" d="M458.94,-74.27C475.89,-75.1 494.07,-75.98 510.95,-76.8"/>
<polygon fill="#63b8ff" stroke="#63b8ff" points="510.72,-80.3 520.88,-77.29 511.06,-73.31 510.72,-80.3"/>
</a>
</g>
</g>
<!-- Node6&#45;&gt;Node5 -->
<g id="edge6_Node000006_Node000005" class="edge">
<title>Node6&#45;&gt;Node5</title>
<g id="a_edge6_Node000006_Node000005"><a xlink:title=" ">
<path fill="none" stroke="#63b8ff" d="M529.34,-46.45C511.29,-51.13 490.2,-56.04 470.03,-60.3"/>
<polygon fill="#63b8ff" stroke="#63b8ff" points="469.5,-56.84 460.42,-62.3 470.92,-63.69 469.5,-56.84"/>
</a>
</g>
</g>
<!-- Node7 -->
<g id="Node000007" class="node">
<title>Node7</title>
<g id="a_Node000007"><a xlink:href="class_u_irradiance_scheduler.html#a4f3d8698a24d9ab3b2f5df9fcd4364e4" target="_top" xlink:title="Starts a six&#45;face capture for the given request.">
<polygon fill="white" stroke="#666666" points="830,-123 720.25,-123 720.25,-91 830,-91 830,-123"/>
<text xml:space="preserve" text-anchor="start" x="728.25" y="-109.5" font-family="Helvetica,sans-Serif" font-size="10.00">UIrradianceScheduler</text>
<text xml:space="preserve" text-anchor="middle" x="775.12" y="-97.5" font-family="Helvetica,sans-Serif" font-size="10.00">::LaunchCapture</text>
</a>
</g>
</g>
<!-- Node6&#45;&gt;Node7 -->
<g id="edge7_Node000006_Node000007" class="edge">
<title>Node6&#45;&gt;Node7</title>
<g id="a_edge7_Node000006_Node000007"><a xlink:title=" ">
<path fill="none" stroke="#63b8ff" d="M634.8,-46.44C641.72,-49.03 648.6,-51.89 655,-55 672.3,-63.4 673.74,-70.52 691,-79 696.87,-81.88 703.1,-84.58 709.42,-87.09"/>
<polygon fill="#63b8ff" stroke="#63b8ff" points="708.07,-90.32 718.66,-90.57 710.54,-83.77 708.07,-90.32"/>
</a>
</g>
</g>
<!-- Node9 -->
<g id="Node000009" class="node">
<title>Node9</title>
<g id="a_Node000009"><a xlink:href="class_u_irradiance_scheduler.html#ac45df7ef85d6d364e7724f7e853a32c6" target="_top" xlink:title="Builds a capture request for the given sensor and simulation settings.">
<polygon fill="white" stroke="#666666" points="830,-70 720.25,-70 720.25,-38 830,-38 830,-70"/>
<text xml:space="preserve" text-anchor="start" x="728.25" y="-56.5" font-family="Helvetica,sans-Serif" font-size="10.00">UIrradianceScheduler</text>
<text xml:space="preserve" text-anchor="middle" x="775.12" y="-44.5" font-family="Helvetica,sans-Serif" font-size="10.00">::MakeRequest</text>
</a>
</g>
</g>
<!-- Node6&#45;&gt;Node9 -->
<g id="edge10_Node000006_Node000009" class="edge">
<title>Node6&#45;&gt;Node9</title>
<g id="a_edge10_Node000006_Node000009"><a xlink:title=" ">
<path fill="none" stroke="#63b8ff" d="M655.33,-39.42C673.06,-41.59 691.75,-43.89 708.93,-46"/>
<polygon fill="#63b8ff" stroke="#63b8ff" points="708.12,-49.42 718.48,-47.17 708.98,-42.48 708.12,-49.42"/>
</a>
</g>
</g>
<!-- Node12 -->
<g id="Node000012" class="node">
<title>Node12</title>
<g id="a_Node000012"><a xlink:href="struct_f_capture_request.html#a5283a5b56514b3ae55663480e05d7980" target="_top" xlink:title=" ">
<polygon fill="white" stroke="#666666" points="859.25,-20 691,-20 691,0 859.25,0 859.25,-20"/>
<text xml:space="preserve" text-anchor="middle" x="775.12" y="-6.5" font-family="Helvetica,sans-Serif" font-size="10.00">FCaptureRequest::WithTimestamp</text>
</a>
</g>
</g>
<!-- Node6&#45;&gt;Node12 -->
<g id="edge13_Node000006_Node000012" class="edge">
<title>Node6&#45;&gt;Node12</title>
<g id="a_edge13_Node000006_Node000012"><a xlink:title=" ">
<path fill="none" stroke="#63b8ff" d="M655.33,-22.15C663.18,-21.35 671.23,-20.53 679.24,-19.71"/>
<polygon fill="#63b8ff" stroke="#63b8ff" points="679.44,-23.2 689.03,-18.71 678.73,-16.24 679.44,-23.2"/>
</a>
</g>
</g>
<!-- Node7&#45;&gt;Node3 -->
<g id="edge8_Node000007_Node000003" class="edge">
<title>Node7&#45;&gt;Node3</title>
<g id="a_edge8_Node000007_Node000003"><a xlink:title=" ">
<path fill="none" stroke="#63b8ff" d="M830.35,-119.84C851.05,-124.75 874.87,-130.39 896.5,-135.51"/>
<polygon fill="#63b8ff" stroke="#63b8ff" points="895.57,-138.89 906.11,-137.79 897.18,-132.08 895.57,-138.89"/>
</a>
</g>
</g>
<!-- Node8 -->
<g id="Node000008" class="node">
<title>Node8</title>
<g id="a_Node000008"><a xlink:href="struct_f_capture_request.html#ab63ce8c8eadcb5393d9993aeab920660" target="_top" xlink:title=" ">
<polygon fill="white" stroke="#666666" points="1030.5,-117 895.25,-117 895.25,-97 1030.5,-97 1030.5,-117"/>
<text xml:space="preserve" text-anchor="middle" x="962.88" y="-103.5" font-family="Helvetica,sans-Serif" font-size="10.00">FCaptureRequest::ToString</text>
</a>
</g>
</g>
<!-- Node7&#45;&gt;Node8 -->
<g id="edge9_Node000007_Node000008" class="edge">
<title>Node7&#45;&gt;Node8</title>
<g id="a_edge9_Node000007_Node000008"><a xlink:title=" ">
<path fill="none" stroke="#63b8ff" d="M830.35,-107C847.03,-107 865.74,-107 883.69,-107"/>
<polygon fill="#63b8ff" stroke="#63b8ff" points="883.54,-110.5 893.54,-107 883.54,-103.5 883.54,-110.5"/>
</a>
</g>
</g>
<!-- Node10 -->
<g id="Node000010" class="node">
<title>Node10</title>
<g id="a_Node000010"><a xlink:href="struct_f_capture_request.html#ae17362dae77f57d0c2245cecef01b38b" target="_top" xlink:title="Factory method.">
<polygon fill="white" stroke="#666666" points="1024.5,-61 901.25,-61 901.25,-41 1024.5,-41 1024.5,-61"/>
<text xml:space="preserve" text-anchor="middle" x="962.88" y="-47.5" font-family="Helvetica,sans-Serif" font-size="10.00">FCaptureRequest::Make</text>
</a>
</g>
</g>
<!-- Node9&#45;&gt;Node10 -->
<g id="edge11_Node000009_Node000010" class="edge">
<title>Node9&#45;&gt;Node10</title>
<g id="a_edge11_Node000009_Node000010"><a xlink:title=" ">
<path fill="none" stroke="#63b8ff" d="M830.35,-53.12C848.88,-52.82 869.91,-52.49 889.63,-52.17"/>
<polygon fill="#63b8ff" stroke="#63b8ff" points="889.61,-55.67 899.55,-52.01 889.49,-48.67 889.61,-55.67"/>
</a>
</g>
</g>
<!-- Node11 -->
<g id="Node000011" class="node">
<title>Node11</title>
<g id="a_Node000011"><a xlink:href="struct_f_capture_request.html#ae828b8d1f7d31ecf6e4669f223f1ec5d" target="_top" xlink:title=" ">
<polygon fill="white" stroke="#666666" points="1206.25,-47 1066.5,-47 1066.5,-15 1206.25,-15 1206.25,-47"/>
<text xml:space="preserve" text-anchor="start" x="1074.5" y="-33.5" font-family="Helvetica,sans-Serif" font-size="10.00">FCaptureRequest::FCapture</text>
<text xml:space="preserve" text-anchor="middle" x="1136.38" y="-21.5" font-family="Helvetica,sans-Serif" font-size="10.00">Request</text>
</a>
</g>
</g>
<!-- Node10&#45;&gt;Node11 -->
<g id="edge12_Node000010_Node000011" class="edge">
<title>Node10&#45;&gt;Node11</title>
<g id="a_edge12_Node000010_Node000011"><a xlink:title=" ">
<path fill="none" stroke="#63b8ff" d="M1024.82,-43.89C1034.55,-42.76 1044.73,-41.57 1054.83,-40.39"/>
<polygon fill="#63b8ff" stroke="#63b8ff" points="1055.12,-43.88 1064.65,-39.25 1054.31,-36.93 1055.12,-43.88"/>
</a>
</g>
</g>
<!-- Node12&#45;&gt;Node11 -->
<g id="edge14_Node000012_Node000011" class="edge">
<title>Node12&#45;&gt;Node11</title>
<g id="a_edge14_Node000012_Node000011"><a xlink:title=" ">
<path fill="none" stroke="#63b8ff" d="M859.45,-14.87C918.23,-18.31 996.55,-22.88 1054.73,-26.29"/>
<polygon fill="#63b8ff" stroke="#63b8ff" points="1054.38,-29.77 1064.57,-26.86 1054.79,-22.78 1054.38,-29.77"/>
</a>
</g>
</g>
<!-- Node13&#45;&gt;Node3 -->
<g id="edge16_Node000013_Node000003" class="edge">
<title>Node13&#45;&gt;Node3</title>
<g id="a_edge16_Node000013_Node000003"><a xlink:title=" ">
<path fill="none" stroke="#63b8ff" d="M632.72,-132.96C702.1,-136.77 822.31,-143.35 896.67,-147.43"/>
<polygon fill="#63b8ff" stroke="#63b8ff" points="896.06,-150.9 906.23,-147.95 896.44,-143.91 896.06,-150.9"/>
</a>
</g>
</g>
<!-- Node16&#45;&gt;Node7 -->
<g id="edge20_Node000016_Node000007" class="edge">
<title>Node16&#45;&gt;Node7</title>
<g id="a_edge20_Node000016_Node000007"><a xlink:title=" ">
<path fill="none" stroke="#63b8ff" d="M464.61,-172.82C517.97,-172.65 591.77,-169.26 655,-155 681.17,-149.1 709.05,-138.14 731.26,-128.18"/>
<polygon fill="#63b8ff" stroke="#63b8ff" points="732.67,-131.39 740.3,-124.04 729.75,-125.03 732.67,-131.39"/>
</a>
</g>
</g>
<!-- Node16&#45;&gt;Node13 -->
<g id="edge21_Node000016_Node000013" class="edge">
<title>Node16&#45;&gt;Node13</title>
<g id="a_edge21_Node000016_Node000013"><a xlink:title=" ">
<path fill="none" stroke="#63b8ff" d="M464.74,-154.8C480.03,-151.41 496.07,-147.85 511.06,-144.53"/>
<polygon fill="#63b8ff" stroke="#63b8ff" points="511.82,-147.95 520.82,-142.37 510.3,-141.11 511.82,-147.95"/>
</a>
</g>
</g>
</g>
</svg>
