<?xml version="1.0" encoding="UTF-8" standalone="no"?>
<!DOCTYPE svg PUBLIC "-//W3C//DTD SVG 1.1//EN"
 "http://www.w3.org/Graphics/SVG/1.1/DTD/svg11.dtd">
<!-- Generated by graphviz version 14.1.0 (20251206.1807)
 -->
<!-- Title: UClearSkyService Pages: 1 -->
<svg width="217pt" height="280pt"
 viewBox="0.00 0.00 217.00 280.00" xmlns="http://www.w3.org/2000/svg" xmlns:xlink="http://www.w3.org/1999/xlink">
<g id="graph0" class="graph" transform="scale(1 1) rotate(0) translate(4 276)">
<title>UClearSkyService</title>
<!-- Node1 -->
<g id="Node000001" class="node">
<title>Node1</title>
<g id="a_Node000001"><a xlink:title=" ">
<polygon fill="#999999" stroke="none" points="209.25,-184 0,-184 0,0 209.25,0 209.25,-184"/>
<text xml:space="preserve" text-anchor="start" x="64.12" y="-170.5" font-family="Helvetica,sans-Serif" font-size="10.00">UClearSkyService</text>
<text xml:space="preserve" text-anchor="start" x="5.5" y="-154.5" font-family="Helvetica,sans-Serif" font-size="10.00">&#45;</text>
<text xml:space="preserve" text-anchor="start" x="14" y="-154.5" font-family="Helvetica,sans-Serif" font-size="10.00">FPyranoClearSkyConfig</text>
<text xml:space="preserve" text-anchor="start" x="14" y="-142.5" font-family="Helvetica,sans-Serif" font-size="10.00"> Config</text>
<text xml:space="preserve" text-anchor="start" x="4" y="-126.5" font-family="Helvetica,sans-Serif" font-size="10.00">+</text>
<text xml:space="preserve" text-anchor="start" x="14" y="-126.5" font-family="Helvetica,sans-Serif" font-size="10.00">void Configure(const</text>
<text xml:space="preserve" text-anchor="start" x="14" y="-114.5" font-family="Helvetica,sans-Serif" font-size="10.00"> FPyranoClearSkyConfig</text>
<text xml:space="preserve" text-anchor="start" x="14" y="-102.5" font-family="Helvetica,sans-Serif" font-size="10.00"> &amp;InConfig)</text>
<text xml:space="preserve" text-anchor="start" x="4" y="-86.5" font-family="Helvetica,sans-Serif" font-size="10.00">+</text>
<text xml:space="preserve" text-anchor="start" x="14" y="-86.5" font-family="Helvetica,sans-Serif" font-size="10.00">FPyranoClearSkyIrradiance</text>
<text xml:space="preserve" text-anchor="start" x="14" y="-74.5" font-family="Helvetica,sans-Serif" font-size="10.00"> Compute(const FDateTime</text>
<text xml:space="preserve" text-anchor="start" x="14" y="-62.5" font-family="Helvetica,sans-Serif" font-size="10.00"> &amp;WhenUTC, double SolarZenithRad) const</text>
<text xml:space="preserve" text-anchor="start" x="5.5" y="-46.5" font-family="Helvetica,sans-Serif" font-size="10.00">&#45;</text>
<text xml:space="preserve" text-anchor="start" x="14" y="-46.5" font-family="Helvetica,sans-Serif" font-size="10.00">static double Extraterrestrial</text>
<text xml:space="preserve" text-anchor="start" x="14" y="-34.5" font-family="Helvetica,sans-Serif" font-size="10.00">Irradiance_Wm2(int32 DayOfYear)</text>
<text xml:space="preserve" text-anchor="start" x="5.5" y="-18.5" font-family="Helvetica,sans-Serif" font-size="10.00">&#45;</text>
<text xml:space="preserve" text-anchor="start" x="14" y="-18.5" font-family="Helvetica,sans-Serif" font-size="10.00">static double AirMassKasten</text>
<text xml:space="preserve" text-anchor="start" x="14" y="-6.5" font-family="Helvetica,sans-Serif" font-size="10.00">Young(double SolarZenithRad)</text>
<polygon fill="#666666" stroke="#666666" points="0,-166 0,-166 209.25,-166 209.25,-166 0,-166"/>
<polygon fill="#666666" stroke="#666666" points="0,-138 0,-138 12,-138 12,-138 0,-138"/>
<polygon fill="#666666" stroke="#666666" points="12,-138 12,-138 209.25,-138 209.25,-138 12,-138"/>
<polygon fill="none" stroke="#666666" points="0,0 0,-184 209.25,-184 209.25,0 0,0"/>
</a>
</g>
</g>
<!-- Node2 -->
<g id="Node000002" class="node">
<title>Node2</title>
<g id="a_Node000002"><a xlink:title=" ">
<polygon fill="white" stroke="none" points="126.62,-272 82.62,-272 82.62,-220 126.62,-220 126.62,-272"/>
<text xml:space="preserve" text-anchor="start" x="86.62" y="-258.5" font-family="Helvetica,sans-Serif" font-size="10.00">UObject</text>
<text xml:space="preserve" text-anchor="start" x="103.12" y="-242.5" font-family="Helvetica,sans-Serif" font-size="10.00"> </text>
<text xml:space="preserve" text-anchor="start" x="103.12" y="-226.5" font-family="Helvetica,sans-Serif" font-size="10.00"> </text>
<polygon fill="#666666" stroke="#666666" points="82.62,-254 82.62,-254 126.62,-254 126.62,-254 82.62,-254"/>
<polygon fill="#666666" stroke="#666666" points="82.62,-238 82.62,-238 126.62,-238 126.62,-238 82.62,-238"/>
<polygon fill="none" stroke="#666666" points="82.62,-220 82.62,-272 126.62,-272 126.62,-220 82.62,-220"/>
</a>
</g>
</g>
<!-- Node2&#45;&gt;Node1 -->
<g id="edge1_Node000001_Node000002" class="edge">
<title>Node2&#45;&gt;Node1</title>
<g id="a_edge1_Node000001_Node000002"><a xlink:title=" ">
<path fill="none" stroke="#63b8ff" d="M104.62,-208.8C104.62,-201.07 104.62,-192.58 104.62,-183.82"/>
<polygon fill="none" stroke="#63b8ff" points="101.13,-208.73 104.63,-218.73 108.13,-208.73 101.13,-208.73"/>
</a>
</g>
</g>
</g>
</svg>
