<?xml version="1.0" encoding="UTF-8" standalone="no"?>
<!DOCTYPE svg PUBLIC "-//W3C//DTD SVG 1.1//EN"
 "http://www.w3.org/Graphics/SVG/1.1/DTD/svg11.dtd">
<!-- Generated by graphviz version 14.1.0 (20251206.1807)
 -->
<!-- Title: UIrradianceScheduler::OnCaptureCompleted Pages: 1 -->
<svg width="1050pt" height="228pt"
 viewBox="0.00 0.00 1050.00 228.00" xmlns="http://www.w3.org/2000/svg" xmlns:xlink="http://www.w3.org/1999/xlink">
<g id="graph0" class="graph" transform="scale(1 1) rotate(0) translate(4 224)">
<title>UIrradianceScheduler::OnCaptureCompleted</title>
<!-- Node1 -->
<g id="Node000001" class="node">
<title>Node1</title>
<g id="a_Node000001"><a xlink:title="Handles a completed capture and advances the flow.">
<polygon fill="#999999" stroke="#666666" points="116.5,-107 0,-107 0,-75 116.5,-75 116.5,-107"/>
<text xml:space="preserve" text-anchor="start" x="8" y="-93.5" font-family="Helvetica,sans-Serif" font-size="10.00">UIrradianceScheduler</text>
<text xml:space="preserve" text-anchor="middle" x="58.25" y="-81.5" font-family="Helvetica,sans-Serif" font-size="10.00">::OnCaptureCompleted</text>
</a>
</g>
</g>
<!-- Node2 -->
<g id="Node000002" class="node">
<title>Node2</title>
<g id="a_Node000002"><a xlink:href="class_u_irradiance_scheduler.html#ab400b6f7f8c6768537088d0eca221f90" target="_top" xlink:title="Advances to the next time slot, or finalizes the simulation if finished.">
<polygon fill="white" stroke="#666666" points="294.12,-132 158.12,-132 158.12,-100 294.12,-100 294.12,-132"/>
<text xml:space="preserve" text-anchor="start" x="166.12" y="-118.5" font-family="Helvetica,sans-Serif" font-size="10.00">UIrradianceScheduler</text>
<text xml:space="preserve" text-anchor="middle" x="226.12" y="-106.5" font-family="Helvetica,sans-Serif" font-size="10.00">::AdvanceTimeSlotOrFinish</text>
</a>
</g>
</g>
<!-- Node1&#45;&gt;Node2 -->
<g id="edge1_Node000001_Node000002" class="edge">
<title>Node1&#45;&gt;Node2</title>
<g id="a_edge1_Node000001_Node000002"><a xlink:title=" ">
<path fill="none" stroke="#63b8ff" d="M116.8,-99.67C126.39,-101.12 136.47,-102.64 146.48,-104.15"/>
<polygon fill="#63b8ff" stroke="#63b8ff" points="145.8,-107.58 156.21,-105.61 146.84,-100.66 145.8,-107.58"/>
</a>
</g>
</g>
<!-- Node3 -->
<g id="Node000003" class="node">
<title>Node3</title>
<g id="a_Node000003"><a xlink:href="class_u_irradiance_scheduler.html#a2c93371fc51e45b8af73ce9b4d2c690a" target="_top" xlink:title="Launches the next capture for the current time slot and sensor index.">
<polygon fill="white" stroke="#666666" points="490.5,-182 335.75,-182 335.75,-150 490.5,-150 490.5,-182"/>
<text xml:space="preserve" text-anchor="start" x="343.75" y="-168.5" font-family="Helvetica,sans-Serif" font-size="10.00">UIrradianceScheduler</text>
<text xml:space="preserve" text-anchor="middle" x="413.12" y="-156.5" font-family="Helvetica,sans-Serif" font-size="10.00">::LaunchNextSimulationCapture</text>
</a>
</g>
</g>
<!-- Node1&#45;&gt;Node3 -->
<g id="edge19_Node000001_Node000003" class="edge">
<title>Node1&#45;&gt;Node3</title>
<g id="a_edge19_Node000001_Node000003"><a xlink:title=" ">
<path fill="none" stroke="#63b8ff" d="M83.4,-107.42C101.57,-118.88 127.54,-133.44 152.5,-141 208,-157.81 272.94,-164.06 323.99,-166.1"/>
<polygon fill="#63b8ff" stroke="#63b8ff" points="323.7,-169.6 333.82,-166.45 323.94,-162.6 323.7,-169.6"/>
</a>
</g>
</g>
<!-- Node13 -->
<g id="Node000013" class="node">
<title>Node13</title>
<g id="a_Node000013"><a xlink:href="class_u_irradiance_scheduler.html#aa0a5a5137cd16afa6cfd83fd90026d8b" target="_top" xlink:title="Returns true if running a multi&#45;slot simulation.">
<polygon fill="white" stroke="#666666" points="281,-32 171.25,-32 171.25,0 281,0 281,-32"/>
<text xml:space="preserve" text-anchor="start" x="179.25" y="-18.5" font-family="Helvetica,sans-Serif" font-size="10.00">UIrradianceScheduler</text>
<text xml:space="preserve" text-anchor="middle" x="226.12" y="-6.5" font-family="Helvetica,sans-Serif" font-size="10.00">::IsSimulationMode</text>
</a>
</g>
</g>
<!-- Node1&#45;&gt;Node13 -->
<g id="edge15_Node000001_Node000013" class="edge">
<title>Node1&#45;&gt;Node13</title>
<g id="a_edge15_Node000001_Node000013"><a xlink:title=" ">
<path fill="none" stroke="#63b8ff" d="M86.82,-74.7C105.09,-64.29 129.77,-50.93 152.5,-41 156.03,-39.46 159.68,-37.95 163.4,-36.48"/>
<polygon fill="#63b8ff" stroke="#63b8ff" points="164.42,-39.83 172.52,-33 161.93,-33.29 164.42,-39.83"/>
</a>
</g>
</g>
<!-- Node14 -->
<g id="Node000014" class="node">
<title>Node14</title>
<g id="a_Node000014"><a xlink:href="class_u_irradiance_scheduler.html#add6eff6a074954268d370e6ab2d7a060" target="_top" xlink:title="Launches the next pending one&#45;shot capture request, or finalizes if none.">
<polygon fill="white" stroke="#666666" points="299.75,-82 152.5,-82 152.5,-50 299.75,-50 299.75,-82"/>
<text xml:space="preserve" text-anchor="start" x="160.5" y="-68.5" font-family="Helvetica,sans-Serif" font-size="10.00">UIrradianceScheduler</text>
<text xml:space="preserve" text-anchor="middle" x="226.12" y="-56.5" font-family="Helvetica,sans-Serif" font-size="10.00">::LaunchNextOneShotCapture</text>
</a>
</g>
</g>
<!-- Node1&#45;&gt;Node14 -->
<g id="edge16_Node000001_Node000014" class="edge">
<title>Node1&#45;&gt;Node14</title>
<g id="a_edge16_Node000001_Node000014"><a xlink:title=" ">
<path fill="none" stroke="#63b8ff" d="M116.8,-82.33C124.65,-81.14 132.83,-79.91 141.03,-78.67"/>
<polygon fill="#63b8ff" stroke="#63b8ff" points="141.33,-82.17 150.69,-77.22 140.28,-75.25 141.33,-82.17"/>
</a>
</g>
</g>
<!-- Node2&#45;&gt;Node3 -->
<g id="edge2_Node000002_Node000003" class="edge">
<title>Node2&#45;&gt;Node3</title>
<g id="a_edge2_Node000002_Node000003"><a xlink:title=" ">
<path fill="none" stroke="#63b8ff" d="M294.44,-127.67C316.59,-133.25 340.84,-139.94 361.53,-146.23"/>
<polygon fill="#63b8ff" stroke="#63b8ff" points="360.28,-149.51 370.87,-149.13 362.35,-142.82 360.28,-149.51"/>
</a>
</g>
</g>
<!-- Node11 -->
<g id="Node000011" class="node">
<title>Node11</title>
<g id="a_Node000011"><a xlink:href="class_u_irradiance_scheduler.html#ae8f8cd8bd9eccb9abdf17b9f023bea00" target="_top" xlink:title="Restores the viewport if it was previously forced.">
<polygon fill="white" stroke="#666666" points="468,-82 358.25,-82 358.25,-50 468,-50 468,-82"/>
<text xml:space="preserve" text-anchor="start" x="366.25" y="-68.5" font-family="Helvetica,sans-Serif" font-size="10.00">UIrradianceScheduler</text>
<text xml:space="preserve" text-anchor="middle" x="413.12" y="-56.5" font-family="Helvetica,sans-Serif" font-size="10.00">::RestoreViewport</text>
</a>
</g>
</g>
<!-- Node2&#45;&gt;Node11 -->
<g id="edge12_Node000002_Node000011" class="edge">
<title>Node2&#45;&gt;Node11</title>
<g id="a_edge12_Node000002_Node000011"><a xlink:title=" ">
<path fill="none" stroke="#63b8ff" d="M287.96,-99.56C306.8,-94.47 327.63,-88.84 346.76,-83.67"/>
<polygon fill="#63b8ff" stroke="#63b8ff" points="347.6,-87.06 356.34,-81.08 345.78,-80.31 347.6,-87.06"/>
</a>
</g>
</g>
<!-- Node12 -->
<g id="Node000012" class="node">
<title>Node12</title>
<g id="a_Node000012"><a xlink:href="class_u_irradiance_scheduler.html#aebff31185ed2941c1c7abcc423e1b25a" target="_top" xlink:title="Sets the SunSky UTC time.">
<polygon fill="white" stroke="#666666" points="468,-132 358.25,-132 358.25,-100 468,-100 468,-132"/>
<text xml:space="preserve" text-anchor="start" x="366.25" y="-118.5" font-family="Helvetica,sans-Serif" font-size="10.00">UIrradianceScheduler</text>
<text xml:space="preserve" text-anchor="middle" x="413.12" y="-106.5" font-family="Helvetica,sans-Serif" font-size="10.00">::SetSunSkyUTC</text>
</a>
</g>
</g>
<!-- Node2&#45;&gt;Node12 -->
<g id="edge14_Node000002_Node000012" class="edge">
<title>Node2&#45;&gt;Node12</title>
<g id="a_edge14_Node000002_Node000012"><a xlink:title=" ">
<path fill="none" stroke="#63b8ff" d="M294.44,-116C311.39,-116 329.57,-116 346.45,-116"/>
<polygon fill="#63b8ff" stroke="#63b8ff" points="346.38,-119.5 356.38,-116 346.38,-112.5 346.38,-119.5"/>
</a>
</g>
</g>
<!-- Node3&#45;&gt;Node2 -->
<g id="edge3_Node000003_Node000002" class="edge">
<title>Node3&#45;&gt;Node2</title>
<g id="a_edge3_Node000003_Node000002"><a xlink:title=" ">
<path fill="none" stroke="#63b8ff" d="M335.55,-151.97C315.99,-146.9 295.45,-141.16 277.57,-135.72"/>
<polygon fill="#63b8ff" stroke="#63b8ff" points="278.85,-132.45 268.26,-132.83 276.77,-139.14 278.85,-132.45"/>
</a>
</g>
</g>
<!-- Node4 -->
<g id="Node000004" class="node">
<title>Node4</title>
<g id="a_Node000004"><a xlink:href="class_u_irradiance_scheduler.html#a4f3d8698a24d9ab3b2f5df9fcd4364e4" target="_top" xlink:title="Starts a six&#45;face capture for the given request.">
<polygon fill="white" stroke="#666666" points="665.5,-126 555.75,-126 555.75,-94 665.5,-94 665.5,-126"/>
<text xml:space="preserve" text-anchor="start" x="563.75" y="-112.5" font-family="Helvetica,sans-Serif" font-size="10.00">UIrradianceScheduler</text>
<text xml:space="preserve" text-anchor="middle" x="610.62" y="-100.5" font-family="Helvetica,sans-Serif" font-size="10.00">::LaunchCapture</text>
</a>
</g>
</g>
<!-- Node3&#45;&gt;Node4 -->
<g id="edge4_Node000003_Node000004" class="edge">
<title>Node3&#45;&gt;Node4</title>
<g id="a_edge4_Node000003_Node000004"><a xlink:title=" ">
<path fill="none" stroke="#63b8ff" d="M471.72,-149.5C494.57,-142.96 520.97,-135.4 544.51,-128.65"/>
<polygon fill="#63b8ff" stroke="#63b8ff" points="545.35,-132.05 554,-125.93 543.42,-125.32 545.35,-132.05"/>
</a>
</g>
</g>
<!-- Node7 -->
<g id="Node000007" class="node">
<title>Node7</title>
<g id="a_Node000007"><a xlink:href="class_u_irradiance_scheduler.html#ac45df7ef85d6d364e7724f7e853a32c6" target="_top" xlink:title="Builds a capture request for the given sensor and simulation settings.">
<polygon fill="white" stroke="#666666" points="665.5,-220 555.75,-220 555.75,-188 665.5,-188 665.5,-220"/>
<text xml:space="preserve" text-anchor="start" x="563.75" y="-206.5" font-family="Helvetica,sans-Serif" font-size="10.00">UIrradianceScheduler</text>
<text xml:space="preserve" text-anchor="middle" x="610.62" y="-194.5" font-family="Helvetica,sans-Serif" font-size="10.00">::MakeRequest</text>
</a>
</g>
</g>
<!-- Node3&#45;&gt;Node7 -->
<g id="edge7_Node000003_Node000007" class="edge">
<title>Node3&#45;&gt;Node7</title>
<g id="a_edge7_Node000003_Node000007"><a xlink:title=" ">
<path fill="none" stroke="#63b8ff" d="M490.83,-180.91C508.56,-184.35 527.25,-187.99 544.43,-191.33"/>
<polygon fill="#63b8ff" stroke="#63b8ff" points="543.51,-194.71 553.99,-193.19 544.84,-187.84 543.51,-194.71"/>
</a>
</g>
</g>
<!-- Node10 -->
<g id="Node000010" class="node">
<title>Node10</title>
<g id="a_Node000010"><a xlink:href="struct_f_capture_request.html#a5283a5b56514b3ae55663480e05d7980" target="_top" xlink:title=" ">
<polygon fill="white" stroke="#666666" points="694.75,-170 526.5,-170 526.5,-150 694.75,-150 694.75,-170"/>
<text xml:space="preserve" text-anchor="middle" x="610.62" y="-156.5" font-family="Helvetica,sans-Serif" font-size="10.00">FCaptureRequest::WithTimestamp</text>
</a>
</g>
</g>
<!-- Node3&#45;&gt;Node10 -->
<g id="edge10_Node000003_Node000010" class="edge">
<title>Node3&#45;&gt;Node10</title>
<g id="a_edge10_Node000003_Node000010"><a xlink:title=" ">
<path fill="none" stroke="#63b8ff" d="M490.83,-163.65C498.68,-163.4 506.73,-163.16 514.74,-162.91"/>
<polygon fill="#63b8ff" stroke="#63b8ff" points="514.64,-166.42 524.52,-162.61 514.42,-159.42 514.64,-166.42"/>
</a>
</g>
</g>
<!-- Node5 -->
<g id="Node000005" class="node">
<title>Node5</title>
<g id="a_Node000005"><a xlink:href="class_u_irradiance_scheduler.html#a3a1998734dd679049d860179bf9b0222" target="_top" xlink:title="Ensures the IrradianceSubsystem pointer is valid for the current world.">
<polygon fill="white" stroke="#666666" points="853.25,-82 743.5,-82 743.5,-50 853.25,-50 853.25,-82"/>
<text xml:space="preserve" text-anchor="start" x="751.5" y="-68.5" font-family="Helvetica,sans-Serif" font-size="10.00">UIrradianceScheduler</text>
<text xml:space="preserve" text-anchor="middle" x="798.38" y="-56.5" font-family="Helvetica,sans-Serif" font-size="10.00">::EnsureSubsystem</text>
</a>
</g>
</g>
<!-- Node4&#45;&gt;Node5 -->
<g id="edge5_Node000004_Node000005" class="edge">
<title>Node4&#45;&gt;Node5</title>
<g id="a_edge5_Node000004_Node000005"><a xlink:title=" ">
<path fill="none" stroke="#63b8ff" d="M665.85,-97.16C686.55,-92.25 710.37,-86.61 732,-81.49"/>
<polygon fill="#63b8ff" stroke="#63b8ff" points="732.68,-84.92 741.61,-79.21 731.07,-78.11 732.68,-84.92"/>
</a>
</g>
</g>
<!-- Node6 -->
<g id="Node000006" class="node">
<title>Node6</title>
<g id="a_Node000006"><a xlink:href="struct_f_capture_request.html#ab63ce8c8eadcb5393d9993aeab920660" target="_top" xlink:title=" ">
<polygon fill="white" stroke="#666666" points="866,-120 730.75,-120 730.75,-100 866,-100 866,-120"/>
<text xml:space="preserve" text-anchor="middle" x="798.38" y="-106.5" font-family="Helvetica,sans-Serif" font-size="10.00">FCaptureRequest::ToString</text>
</a>
</g>
</g>
<!-- Node4&#45;&gt;Node6 -->
<g id="edge6_Node000004_Node000006" class="edge">
<title>Node4&#45;&gt;Node6</title>
<g id="a_edge6_Node000004_Node000006"><a xlink:title=" ">
<path fill="none" stroke="#63b8ff" d="M665.85,-110C682.53,-110 701.24,-110 719.19,-110"/>
<polygon fill="#63b8ff" stroke="#63b8ff" points="719.04,-113.5 729.04,-110 719.04,-106.5 719.04,-113.5"/>
</a>
</g>
</g>
<!-- Node8 -->
<g id="Node000008" class="node">
<title>Node8</title>
<g id="a_Node000008"><a xlink:href="struct_f_capture_request.html#ae17362dae77f57d0c2245cecef01b38b" target="_top" xlink:title="Factory method.">
<polygon fill="white" stroke="#666666" points="860,-212 736.75,-212 736.75,-192 860,-192 860,-212"/>
<text xml:space="preserve" text-anchor="middle" x="798.38" y="-198.5" font-family="Helvetica,sans-Serif" font-size="10.00">FCaptureRequest::Make</text>
</a>
</g>
</g>
<!-- Node7&#45;&gt;Node8 -->
<g id="edge8_Node000007_Node000008" class="edge">
<title>Node7&#45;&gt;Node8</title>
<g id="a_edge8_Node000007_Node000008"><a xlink:title=" ">
<path fill="none" stroke="#63b8ff" d="M665.85,-203.42C684.38,-203.22 705.41,-202.99 725.13,-202.78"/>
<polygon fill="#63b8ff" stroke="#63b8ff" points="725.09,-206.28 735.05,-202.67 725.01,-199.28 725.09,-206.28"/>
</a>
</g>
</g>
<!-- Node9 -->
<g id="Node000009" class="node">
<title>Node9</title>
<g id="a_Node000009"><a xlink:href="struct_f_capture_request.html#ae828b8d1f7d31ecf6e4669f223f1ec5d" target="_top" xlink:title=" ">
<polygon fill="white" stroke="#666666" points="1041.75,-198 902,-198 902,-166 1041.75,-166 1041.75,-198"/>
<text xml:space="preserve" text-anchor="start" x="910" y="-184.5" font-family="Helvetica,sans-Serif" font-size="10.00">FCaptureRequest::FCapture</text>
<text xml:space="preserve" text-anchor="middle" x="971.88" y="-172.5" font-family="Helvetica,sans-Serif" font-size="10.00">Request</text>
</a>
</g>
</g>
<!-- Node8&#45;&gt;Node9 -->
<g id="edge9_Node000008_Node000009" class="edge">
<title>Node8&#45;&gt;Node9</title>
<g id="a_edge9_Node000008_Node000009"><a xlink:title=" ">
<path fill="none" stroke="#63b8ff" d="M860.32,-194.89C870.05,-193.76 880.23,-192.57 890.33,-191.39"/>
<polygon fill="#63b8ff" stroke="#63b8ff" points="890.62,-194.88 900.15,-190.25 889.81,-187.93 890.62,-194.88"/>
</a>
</g>
</g>
<!-- Node10&#45;&gt;Node9 -->
<g id="edge11_Node000010_Node000009" class="edge">
<title>Node10&#45;&gt;Node9</title>
<g id="a_edge11_Node000010_Node000009"><a xlink:title=" ">
<path fill="none" stroke="#63b8ff" d="M694.95,-165.1C753.73,-168.7 832.05,-173.5 890.23,-177.06"/>
<polygon fill="#63b8ff" stroke="#63b8ff" points="889.88,-180.55 900.07,-177.66 890.3,-173.56 889.88,-180.55"/>
</a>
</g>
</g>
<!-- Node11&#45;&gt;Node5 -->
<g id="edge13_Node000011_Node000005" class="edge">
<title>Node11&#45;&gt;Node5</title>
<g id="a_edge13_Node000011_Node000005"><a xlink:title=" ">
<path fill="none" stroke="#63b8ff" d="M468.22,-66C537.6,-66 657.81,-66 732.17,-66"/>
<polygon fill="#63b8ff" stroke="#63b8ff" points="731.73,-69.5 741.73,-66 731.73,-62.5 731.73,-69.5"/>
</a>
</g>
</g>
<!-- Node14&#45;&gt;Node4 -->
<g id="edge17_Node000014_Node000004" class="edge">
<title>Node14&#45;&gt;Node4</title>
<g id="a_edge17_Node000014_Node000004"><a xlink:title=" ">
<path fill="none" stroke="#63b8ff" d="M282.55,-49.53C336.52,-36.11 420.42,-22.17 490.5,-41 523.62,-49.9 557.04,-70.5 580.02,-86.89"/>
<polygon fill="#63b8ff" stroke="#63b8ff" points="577.84,-89.63 587.97,-92.72 581.97,-83.99 577.84,-89.63"/>
</a>
</g>
</g>
<!-- Node14&#45;&gt;Node11 -->
<g id="edge18_Node000014_Node000011" class="edge">
<title>Node14&#45;&gt;Node11</title>
<g id="a_edge18_Node000014_Node000011"><a xlink:title=" ">
<path fill="none" stroke="#63b8ff" d="M300.24,-66C315.53,-66 331.57,-66 346.56,-66"/>
<polygon fill="#63b8ff" stroke="#63b8ff" points="346.29,-69.5 356.29,-66 346.29,-62.5 346.29,-69.5"/>
</a>
</g>
</g>
</g>
</svg>
