<?xml version="1.0" encoding="UTF-8" standalone="no"?>
<!DOCTYPE svg PUBLIC "-//W3C//DTD SVG 1.1//EN"
 "http://www.w3.org/Graphics/SVG/1.1/DTD/svg11.dtd">
<!-- Generated by graphviz version 14.1.0 (20251206.1807)
 -->
<!-- Title: UClearSkyService Pages: 1 -->
<svg width="219pt" height="302pt"
 viewBox="0.00 0.00 219.00 302.00" xmlns="http://www.w3.org/2000/svg" xmlns:xlink="http://www.w3.org/1999/xlink">
<g id="graph0" class="graph" transform="scale(1 1) rotate(0) translate(4 298)">
<title>UClearSkyService</title>
<!-- Node1 -->
<g id="Node000001" class="node">
<title>Node1</title>
<g id="a_Node000001"><a xlink:title=" ">
<polygon fill="#999999" stroke="none" points="209.25,-172 0,-172 0,0 209.25,0 209.25,-172"/>
<text xml:space="preserve" text-anchor="start" x="64.12" y="-158.5" font-family="Helvetica,sans-Serif" font-size="10.00">UClearSkyService</text>
<text xml:space="preserve" text-anchor="start" x="103.12" y="-142.5" font-family="Helvetica,sans-Serif" font-size="10.00"> </text>
<text xml:space="preserve" text-anchor="start" x="4" y="-126.5" font-family="Helvetica,sans-Serif" font-size="10.00">+</text>
<text xml:space="preserve" text-anchor="start" x="14" y="-126.5" font-family="Helvetica,sans-Serif" font-size="10.00">void Configure(const</text>
<text xml:space="preserve" text-anchor="start" x="14" y="-114.5" font-family="Helvetica,sans-Serif" font-size="10.00"> FPyranoClearSkyConfig</text>
<text xml:space="preserve" text-anchor="start" x="14" y="-102.5" font-family="Helvetica,sans-Serif" font-size="10.00"> &amp;InConfig)</text>
<text xml:space="preserve" text-anchor="start" x="4" y="-86.5" font-family="Helvetica,sans-Serif" font-size="10.00">+</text>
<text xml:space="preserve" text-anchor="start" x="14" y="-86.5" font-family="Helvetica,sans-Serif" font-size="10.00">FPyranoClearSkyIrradiance</text>
<text xml:space="preserve" text-anchor="start" x="14" y="-74.5" font-family="Helvetica,sans-Serif" font-size="10.00"> Compute(const FDateTime</text>
<text xml:space="preserve" text-anchor="start" x="14" y="-62.5" font-family="Helvetica,sans-Serif" font-size="10.00"> &amp;WhenUTC, double SolarZenithRad) const</text>
<text xml:space="preserve" text-anchor="start" x="5.5" y="-46.5" font-family="Helvetica,sans-Serif" font-size="10.00">&#45;</text>
<text xml:space="preserve" text-anchor="start" x="14" y="-46.5" font-family="Helvetica,sans-Serif" font-size="10.00">static double Extraterrestrial</text>
<text xml:space="preserve" text-anchor="start" x="14" y="-34.5" font-family="Helvetica,sans-Serif" font-size="10.00">Irradiance_Wm2(int32 DayOfYear)</text>
<text xml:space="preserve" text-anchor="start" x="5.5" y="-18.5" font-family="Helvetica,sans-Serif" font-size="10.00">&#45;</text>
<text xml:space="preserve" text-anchor="start" x="14" y="-18.5" font-family="Helvetica,sans-Serif" font-size="10.00">static double AirMassKasten</text>
<text xml:space="preserve" text-anchor="start" x="14" y="-6.5" font-family="Helvetica,sans-Serif" font-size="10.00">Young(double SolarZenithRad)</text>
<polygon fill="#666666" stroke="#666666" points="0,-154 0,-154 209.25,-154 209.25,-154 0,-154"/>
<polygon fill="#666666" stroke="#666666" points="0,-138 0,-138 209.25,-138 209.25,-138 0,-138"/>
<polygon fill="none" stroke="#666666" points="0,0 0,-172 209.25,-172 209.25,0 0,0"/>
</a>
</g>
</g>
<!-- Node2 -->
<g id="Node000002" class="node">
<title>Node2</title>
<g id="a_Node000002"><a xlink:title=" ">
<polygon fill="white" stroke="none" points="78.62,-286 34.62,-286 34.62,-234 78.62,-234 78.62,-286"/>
<text xml:space="preserve" text-anchor="start" x="38.62" y="-272.5" font-family="Helvetica,sans-Serif" font-size="10.00">UObject</text>
<text xml:space="preserve" text-anchor="start" x="55.12" y="-256.5" font-family="Helvetica,sans-Serif" font-size="10.00"> </text>
<text xml:space="preserve" text-anchor="start" x="55.12" y="-240.5" font-family="Helvetica,sans-Serif" font-size="10.00"> </text>
<polygon fill="#666666" stroke="#666666" points="34.62,-268 34.62,-268 78.62,-268 78.62,-268 34.62,-268"/>
<polygon fill="#666666" stroke="#666666" points="34.62,-252 34.62,-252 78.62,-252 78.62,-252 34.62,-252"/>
<polygon fill="none" stroke="#666666" points="34.62,-234 34.62,-286 78.62,-286 78.62,-234 34.62,-234"/>
</a>
</g>
</g>
<!-- Node2&#45;&gt;Node1 -->
<g id="edge1_Node000001_Node000002" class="edge">
<title>Node2&#45;&gt;Node1</title>
<g id="a_edge1_Node000001_Node000002"><a xlink:title=" ">
<path fill="none" stroke="#63b8ff" d="M66.54,-223.49C70.75,-208.39 75.86,-190.07 80.96,-171.82"/>
<polygon fill="none" stroke="#63b8ff" points="63.23,-222.33 63.91,-232.9 69.97,-224.21 63.23,-222.33"/>
</a>
</g>
</g>
<!-- Node3 -->
<g id="Node000003" class="node">
<title>Node3</title>
<g id="a_Node000003"><a xlink:href="struct_f_pyrano_clear_sky_config.html" target="_top" xlink:title=" ">
<polygon fill="white" stroke="none" points="210.5,-294 96.75,-294 96.75,-226 210.5,-226 210.5,-294"/>
<text xml:space="preserve" text-anchor="start" x="100.75" y="-280.5" font-family="Helvetica,sans-Serif" font-size="10.00">FPyranoClearSkyConfig</text>
<text xml:space="preserve" text-anchor="start" x="101.25" y="-264.5" font-family="Helvetica,sans-Serif" font-size="10.00">+</text>
<text xml:space="preserve" text-anchor="start" x="111.75" y="-264.5" font-family="Helvetica,sans-Serif" font-size="10.00">double LinkeTurbidity</text>
<text xml:space="preserve" text-anchor="start" x="101.25" y="-248.5" font-family="Helvetica,sans-Serif" font-size="10.00">+</text>
<text xml:space="preserve" text-anchor="start" x="111.75" y="-248.5" font-family="Helvetica,sans-Serif" font-size="10.00">double AltitudeMeters</text>
<text xml:space="preserve" text-anchor="start" x="152.12" y="-232.5" font-family="Helvetica,sans-Serif" font-size="10.00"> </text>
<polygon fill="#666666" stroke="#666666" points="96.75,-276 96.75,-276 210.5,-276 210.5,-276 96.75,-276"/>
<polygon fill="#666666" stroke="#666666" points="96.75,-244 96.75,-244 109.75,-244 109.75,-244 96.75,-244"/>
<polygon fill="#666666" stroke="#666666" points="109.75,-244 109.75,-244 210.5,-244 210.5,-244 109.75,-244"/>
<polygon fill="none" stroke="#666666" points="96.75,-226 96.75,-294 210.5,-294 210.5,-226 96.75,-226"/>
</a>
</g>
</g>
<!-- Node3&#45;&gt;Node1 -->
<g id="edge2_Node000001_Node000003" class="edge">
<title>Node3&#45;&gt;Node1</title>
<g id="a_edge2_Node000001_Node000003"><a xlink:title=" ">
<path fill="none" stroke="#63b8ff" d="M144.29,-226.24C140.79,-213.94 136.6,-199.23 132.28,-184.06"/>
<polygon fill="none" stroke="#63b8ff" points="132.33,-184.24 126.84,-179.57 129.04,-172.7 134.53,-177.38 132.33,-184.24"/>
</a>
</g>
<text xml:space="preserve" text-anchor="start" x="140.78" y="-195.5" font-family="Helvetica,sans-Serif" font-size="10.00" fill="grey">&#45;Config</text>
</g>
</g>
</svg>
