<?xml version="1.0" encoding="UTF-8" standalone="no"?>
<!DOCTYPE svg PUBLIC "-//W3C//DTD SVG 1.1//EN"
 "http://www.w3.org/Graphics/SVG/1.1/DTD/svg11.dtd">
<!-- Generated by graphviz version 14.1.0 (20251206.1807)
 -->
<!-- Title: UIrradianceScheduler::LaunchCapture Pages: 1 -->
<svg width="289pt" height="78pt"
 viewBox="0.00 0.00 289.00 78.00" xmlns="http://www.w3.org/2000/svg" xmlns:xlink="http://www.w3.org/1999/xlink">
<g id="graph0" class="graph" transform="scale(1 1) rotate(0) translate(4 74)">
<title>UIrradianceScheduler::LaunchCapture</title>
<!-- Node1 -->
<g id="Node000001" class="node">
<title>Node1</title>
<g id="a_Node000001"><a xlink:title="Starts a six&#45;face capture for the given request.">
<polygon fill="#999999" stroke="#666666" points="109.75,-48 0,-48 0,-16 109.75,-16 109.75,-48"/>
<text xml:space="preserve" text-anchor="start" x="8" y="-34.5" font-family="Helvetica,sans-Serif" font-size="10.00">UIrradianceScheduler</text>
<text xml:space="preserve" text-anchor="middle" x="54.88" y="-22.5" font-family="Helvetica,sans-Serif" font-size="10.00">::LaunchCapture</text>
</a>
</g>
</g>
<!-- Node2 -->
<g id="Node000002" class="node">
<title>Node2</title>
<g id="a_Node000002"><a xlink:href="class_u_irradiance_scheduler.html#a3a1998734dd679049d860179bf9b0222" target="_top" xlink:title="Ensures the IrradianceSubsystem pointer is valid for the current world.">
<polygon fill="white" stroke="#666666" points="268.25,-70 158.5,-70 158.5,-38 268.25,-38 268.25,-70"/>
<text xml:space="preserve" text-anchor="start" x="166.5" y="-56.5" font-family="Helvetica,sans-Serif" font-size="10.00">UIrradianceScheduler</text>
<text xml:space="preserve" text-anchor="middle" x="213.38" y="-44.5" font-family="Helvetica,sans-Serif" font-size="10.00">::EnsureSubsystem</text>
</a>
</g>
</g>
<!-- Node1&#45;&gt;Node2 -->
<g id="edge1_Node000001_Node000002" class="edge">
<title>Node1&#45;&gt;Node2</title>
<g id="a_edge1_Node000001_Node000002"><a xlink:title=" ">
<path fill="none" stroke="#63b8ff" d="M110.17,-39.63C122.07,-41.31 134.78,-43.09 147.06,-44.82"/>
<polygon fill="#63b8ff" stroke="#63b8ff" points="146.29,-48.24 156.68,-46.17 147.26,-41.31 146.29,-48.24"/>
</a>
</g>
</g>
<!-- Node3 -->
<g id="Node000003" class="node">
<title>Node3</title>
<g id="a_Node000003"><a xlink:href="struct_f_capture_request.html#ab63ce8c8eadcb5393d9993aeab920660" target="_top" xlink:title=" ">
<polygon fill="white" stroke="#666666" points="281,-20 145.75,-20 145.75,0 281,0 281,-20"/>
<text xml:space="preserve" text-anchor="middle" x="213.38" y="-6.5" font-family="Helvetica,sans-Serif" font-size="10.00">FCaptureRequest::ToString</text>
</a>
</g>
</g>
<!-- Node1&#45;&gt;Node3 -->
<g id="edge2_Node000001_Node000003" class="edge">
<title>Node1&#45;&gt;Node3</title>
<g id="a_edge2_Node000001_Node000003"><a xlink:title=" ">
<path fill="none" stroke="#63b8ff" d="M110.17,-24.37C117.91,-23.28 126,-22.14 134.09,-21.01"/>
<polygon fill="#63b8ff" stroke="#63b8ff" points="134.57,-24.47 143.99,-19.61 133.6,-17.54 134.57,-24.47"/>
</a>
</g>
</g>
</g>
</svg>
