<?xml version="1.0" encoding="UTF-8" standalone="no"?>
<!DOCTYPE svg PUBLIC "-//W3C//DTD SVG 1.1//EN"
 "http://www.w3.org/Graphics/SVG/1.1/DTD/svg11.dtd">
<!-- Generated by graphviz version 14.1.0 (20251206.1807)
 -->
<!-- Title: UIrradianceScheduler::LaunchNextSimulationCapture Pages: 1 -->
<svg width="714pt" height="235pt"
 viewBox="0.00 0.00 714.00 235.00" xmlns="http://www.w3.org/2000/svg" xmlns:xlink="http://www.w3.org/1999/xlink">
<g id="graph0" class="graph" transform="scale(1 1) rotate(0) translate(4 231)">
<title>UIrradianceScheduler::LaunchNextSimulationCapture</title>
<!-- Node1 -->
<g id="Node000001" class="node">
<title>Node1</title>
<g id="a_Node000001"><a xlink:title="Launches the next capture for the current time slot and sensor index.">
<polygon fill="#999999" stroke="#666666" points="154.75,-125 0,-125 0,-93 154.75,-93 154.75,-125"/>
<text xml:space="preserve" text-anchor="start" x="8" y="-111.5" font-family="Helvetica,sans-Serif" font-size="10.00">UIrradianceScheduler</text>
<text xml:space="preserve" text-anchor="middle" x="77.38" y="-99.5" font-family="Helvetica,sans-Serif" font-size="10.00">::LaunchNextSimulationCapture</text>
</a>
</g>
</g>
<!-- Node2 -->
<g id="Node000002" class="node">
<title>Node2</title>
<g id="a_Node000002"><a xlink:href="class_u_irradiance_scheduler.html#ab400b6f7f8c6768537088d0eca221f90" target="_top" xlink:title="Advances to the next time slot, or finalizes the simulation if finished.">
<polygon fill="white" stroke="#666666" points="342.88,-176 206.88,-176 206.88,-144 342.88,-144 342.88,-176"/>
<text xml:space="preserve" text-anchor="start" x="214.88" y="-162.5" font-family="Helvetica,sans-Serif" font-size="10.00">UIrradianceScheduler</text>
<text xml:space="preserve" text-anchor="middle" x="274.88" y="-150.5" font-family="Helvetica,sans-Serif" font-size="10.00">::AdvanceTimeSlotOrFinish</text>
</a>
</g>
</g>
<!-- Node1&#45;&gt;Node2 -->
<g id="edge1_Node000001_Node000002" class="edge">
<title>Node1&#45;&gt;Node2</title>
<g id="a_edge1_Node000001_Node000002"><a xlink:title=" ">
<path fill="none" stroke="#63b8ff" d="M155.08,-122.4C177.28,-127.89 201.01,-134.26 221.37,-140.24"/>
<polygon fill="#63b8ff" stroke="#63b8ff" points="220.27,-143.57 230.86,-143.08 222.28,-136.86 220.27,-143.57"/>
</a>
</g>
</g>
<!-- Node6 -->
<g id="Node000006" class="node">
<title>Node6</title>
<g id="a_Node000006"><a xlink:href="class_u_irradiance_scheduler.html#a4f3d8698a24d9ab3b2f5df9fcd4364e4" target="_top" xlink:title="Starts a six&#45;face capture for the given request.">
<polygon fill="white" stroke="#666666" points="329.75,-125 220,-125 220,-93 329.75,-93 329.75,-125"/>
<text xml:space="preserve" text-anchor="start" x="228" y="-111.5" font-family="Helvetica,sans-Serif" font-size="10.00">UIrradianceScheduler</text>
<text xml:space="preserve" text-anchor="middle" x="274.88" y="-99.5" font-family="Helvetica,sans-Serif" font-size="10.00">::LaunchCapture</text>
</a>
</g>
</g>
<!-- Node1&#45;&gt;Node6 -->
<g id="edge6_Node000001_Node000006" class="edge">
<title>Node1&#45;&gt;Node6</title>
<g id="a_edge6_Node000001_Node000006"><a xlink:title=" ">
<path fill="none" stroke="#63b8ff" d="M155.08,-109C172.81,-109 191.5,-109 208.68,-109"/>
<polygon fill="#63b8ff" stroke="#63b8ff" points="208.21,-112.5 218.21,-109 208.21,-105.5 208.21,-112.5"/>
</a>
</g>
</g>
<!-- Node8 -->
<g id="Node000008" class="node">
<title>Node8</title>
<g id="a_Node000008"><a xlink:href="class_u_irradiance_scheduler.html#ac45df7ef85d6d364e7724f7e853a32c6" target="_top" xlink:title="Builds a capture request for the given sensor and simulation settings.">
<polygon fill="white" stroke="#666666" points="329.75,-73 220,-73 220,-41 329.75,-41 329.75,-73"/>
<text xml:space="preserve" text-anchor="start" x="228" y="-59.5" font-family="Helvetica,sans-Serif" font-size="10.00">UIrradianceScheduler</text>
<text xml:space="preserve" text-anchor="middle" x="274.88" y="-47.5" font-family="Helvetica,sans-Serif" font-size="10.00">::MakeRequest</text>
</a>
</g>
</g>
<!-- Node1&#45;&gt;Node8 -->
<g id="edge9_Node000001_Node000008" class="edge">
<title>Node1&#45;&gt;Node8</title>
<g id="a_edge9_Node000001_Node000008"><a xlink:title=" ">
<path fill="none" stroke="#63b8ff" d="M140.23,-92.55C162.05,-86.74 186.64,-80.2 208.72,-74.33"/>
<polygon fill="#63b8ff" stroke="#63b8ff" points="209.45,-77.76 218.21,-71.8 207.65,-70.99 209.45,-77.76"/>
</a>
</g>
</g>
<!-- Node11 -->
<g id="Node000011" class="node">
<title>Node11</title>
<g id="a_Node000011"><a xlink:href="struct_f_capture_request.html#a5283a5b56514b3ae55663480e05d7980" target="_top" xlink:title=" ">
<polygon fill="white" stroke="#666666" points="359,-20 190.75,-20 190.75,0 359,0 359,-20"/>
<text xml:space="preserve" text-anchor="middle" x="274.88" y="-6.5" font-family="Helvetica,sans-Serif" font-size="10.00">FCaptureRequest::WithTimestamp</text>
</a>
</g>
</g>
<!-- Node1&#45;&gt;Node11 -->
<g id="edge12_Node000001_Node000011" class="edge">
<title>Node1&#45;&gt;Node11</title>
<g id="a_edge12_Node000001_Node000011"><a xlink:title=" ">
<path fill="none" stroke="#63b8ff" d="M97.82,-92.57C119.29,-75.22 155.49,-48.16 190.75,-32 197.59,-28.87 204.96,-26.11 212.38,-23.71"/>
<polygon fill="#63b8ff" stroke="#63b8ff" points="213.22,-27.11 221.79,-20.88 211.2,-20.41 213.22,-27.11"/>
</a>
</g>
</g>
<!-- Node2&#45;&gt;Node1 -->
<g id="edge2_Node000002_Node000001" class="edge">
<title>Node2&#45;&gt;Node1</title>
<g id="a_edge2_Node000002_Node000001"><a xlink:title=" ">
<path fill="none" stroke="#63b8ff" d="M206.71,-148.93C181.8,-142.94 153.95,-135.54 130.57,-128.67"/>
<polygon fill="#63b8ff" stroke="#63b8ff" points="131.87,-125.4 121.29,-125.89 129.86,-132.11 131.87,-125.4"/>
</a>
</g>
</g>
<!-- Node3 -->
<g id="Node000003" class="node">
<title>Node3</title>
<g id="a_Node000003"><a xlink:href="class_u_irradiance_scheduler.html#ae8f8cd8bd9eccb9abdf17b9f023bea00" target="_top" xlink:title="Restores the viewport if it was previously forced.">
<polygon fill="white" stroke="#666666" points="517.5,-227 407.75,-227 407.75,-195 517.5,-195 517.5,-227"/>
<text xml:space="preserve" text-anchor="start" x="415.75" y="-213.5" font-family="Helvetica,sans-Serif" font-size="10.00">UIrradianceScheduler</text>
<text xml:space="preserve" text-anchor="middle" x="462.62" y="-201.5" font-family="Helvetica,sans-Serif" font-size="10.00">::RestoreViewport</text>
</a>
</g>
</g>
<!-- Node2&#45;&gt;Node3 -->
<g id="edge3_Node000002_Node000003" class="edge">
<title>Node2&#45;&gt;Node3</title>
<g id="a_edge3_Node000002_Node000003"><a xlink:title=" ">
<path fill="none" stroke="#63b8ff" d="M335.93,-176.49C355.24,-181.79 376.73,-187.69 396.4,-193.09"/>
<polygon fill="#63b8ff" stroke="#63b8ff" points="395.4,-196.45 405.97,-195.72 397.26,-189.7 395.4,-196.45"/>
</a>
</g>
</g>
<!-- Node5 -->
<g id="Node000005" class="node">
<title>Node5</title>
<g id="a_Node000005"><a xlink:href="class_u_irradiance_scheduler.html#aebff31185ed2941c1c7abcc423e1b25a" target="_top" xlink:title="Sets the SunSky UTC time.">
<polygon fill="white" stroke="#666666" points="517.5,-177 407.75,-177 407.75,-145 517.5,-145 517.5,-177"/>
<text xml:space="preserve" text-anchor="start" x="415.75" y="-163.5" font-family="Helvetica,sans-Serif" font-size="10.00">UIrradianceScheduler</text>
<text xml:space="preserve" text-anchor="middle" x="462.62" y="-151.5" font-family="Helvetica,sans-Serif" font-size="10.00">::SetSunSkyUTC</text>
</a>
</g>
</g>
<!-- Node2&#45;&gt;Node5 -->
<g id="edge5_Node000002_Node000005" class="edge">
<title>Node2&#45;&gt;Node5</title>
<g id="a_edge5_Node000002_Node000005"><a xlink:title=" ">
<path fill="none" stroke="#63b8ff" d="M343.2,-160.36C360.49,-160.46 379.06,-160.56 396.25,-160.65"/>
<polygon fill="#63b8ff" stroke="#63b8ff" points="395.78,-164.15 405.8,-160.7 395.82,-157.15 395.78,-164.15"/>
</a>
</g>
</g>
<!-- Node4 -->
<g id="Node000004" class="node">
<title>Node4</title>
<g id="a_Node000004"><a xlink:href="class_u_irradiance_scheduler.html#a3a1998734dd679049d860179bf9b0222" target="_top" xlink:title="Ensures the IrradianceSubsystem pointer is valid for the current world.">
<polygon fill="white" stroke="#666666" points="691,-180 581.25,-180 581.25,-148 691,-148 691,-180"/>
<text xml:space="preserve" text-anchor="start" x="589.25" y="-166.5" font-family="Helvetica,sans-Serif" font-size="10.00">UIrradianceScheduler</text>
<text xml:space="preserve" text-anchor="middle" x="636.12" y="-154.5" font-family="Helvetica,sans-Serif" font-size="10.00">::EnsureSubsystem</text>
</a>
</g>
</g>
<!-- Node3&#45;&gt;Node4 -->
<g id="edge4_Node000003_Node000004" class="edge">
<title>Node3&#45;&gt;Node4</title>
<g id="a_edge4_Node000003_Node000004"><a xlink:title=" ">
<path fill="none" stroke="#63b8ff" d="M517.89,-196.13C534.39,-191.61 552.7,-186.59 569.85,-181.89"/>
<polygon fill="#63b8ff" stroke="#63b8ff" points="570.74,-185.27 579.46,-179.26 568.89,-178.52 570.74,-185.27"/>
</a>
</g>
</g>
<!-- Node6&#45;&gt;Node4 -->
<g id="edge7_Node000006_Node000004" class="edge">
<title>Node6&#45;&gt;Node4</title>
<g id="a_edge7_Node000006_Node000004"><a xlink:title=" ">
<path fill="none" stroke="#63b8ff" d="M329.82,-112.29C381.55,-116.01 461.69,-123.29 530.25,-136 543.21,-138.4 556.91,-141.58 569.98,-144.93"/>
<polygon fill="#63b8ff" stroke="#63b8ff" points="568.76,-148.23 579.32,-147.39 570.54,-141.46 568.76,-148.23"/>
</a>
</g>
</g>
<!-- Node7 -->
<g id="Node000007" class="node">
<title>Node7</title>
<g id="a_Node000007"><a xlink:href="struct_f_capture_request.html#ab63ce8c8eadcb5393d9993aeab920660" target="_top" xlink:title=" ">
<polygon fill="white" stroke="#666666" points="530.25,-89 395,-89 395,-69 530.25,-69 530.25,-89"/>
<text xml:space="preserve" text-anchor="middle" x="462.62" y="-75.5" font-family="Helvetica,sans-Serif" font-size="10.00">FCaptureRequest::ToString</text>
</a>
</g>
</g>
<!-- Node6&#45;&gt;Node7 -->
<g id="edge8_Node000006_Node000007" class="edge">
<title>Node6&#45;&gt;Node7</title>
<g id="a_edge8_Node000006_Node000007"><a xlink:title=" ">
<path fill="none" stroke="#63b8ff" d="M330.1,-100.24C347.47,-97.44 367.04,-94.28 385.67,-91.27"/>
<polygon fill="#63b8ff" stroke="#63b8ff" points="386.01,-94.76 395.32,-89.71 384.89,-87.85 386.01,-94.76"/>
</a>
</g>
</g>
<!-- Node9 -->
<g id="Node000009" class="node">
<title>Node9</title>
<g id="a_Node000009"><a xlink:href="struct_f_capture_request.html#ae17362dae77f57d0c2245cecef01b38b" target="_top" xlink:title="Factory method.">
<polygon fill="white" stroke="#666666" points="524.25,-51 401,-51 401,-31 524.25,-31 524.25,-51"/>
<text xml:space="preserve" text-anchor="middle" x="462.62" y="-37.5" font-family="Helvetica,sans-Serif" font-size="10.00">FCaptureRequest::Make</text>
</a>
</g>
</g>
<!-- Node8&#45;&gt;Node9 -->
<g id="edge10_Node000008_Node000009" class="edge">
<title>Node8&#45;&gt;Node9</title>
<g id="a_edge10_Node000008_Node000009"><a xlink:title=" ">
<path fill="none" stroke="#63b8ff" d="M330.1,-52.33C348.63,-50.73 369.66,-48.92 389.38,-47.22"/>
<polygon fill="#63b8ff" stroke="#63b8ff" points="389.64,-50.71 399.3,-46.37 389.04,-43.74 389.64,-50.71"/>
</a>
</g>
</g>
<!-- Node10 -->
<g id="Node000010" class="node">
<title>Node10</title>
<g id="a_Node000010"><a xlink:href="struct_f_capture_request.html#ae828b8d1f7d31ecf6e4669f223f1ec5d" target="_top" xlink:title=" ">
<polygon fill="white" stroke="#666666" points="706,-38 566.25,-38 566.25,-6 706,-6 706,-38"/>
<text xml:space="preserve" text-anchor="start" x="574.25" y="-24.5" font-family="Helvetica,sans-Serif" font-size="10.00">FCaptureRequest::FCapture</text>
<text xml:space="preserve" text-anchor="middle" x="636.12" y="-12.5" font-family="Helvetica,sans-Serif" font-size="10.00">Request</text>
</a>
</g>
</g>
<!-- Node9&#45;&gt;Node10 -->
<g id="edge11_Node000009_Node000010" class="edge">
<title>Node9&#45;&gt;Node10</title>
<g id="a_edge11_Node000009_Node000010"><a xlink:title=" ">
<path fill="none" stroke="#63b8ff" d="M524.57,-34.25C534.3,-33.17 544.48,-32.04 554.58,-30.92"/>
<polygon fill="#63b8ff" stroke="#63b8ff" points="554.84,-34.42 564.4,-29.84 554.07,-27.46 554.84,-34.42"/>
</a>
</g>
</g>
<!-- Node11&#45;&gt;Node10 -->
<g id="edge13_Node000011_Node000010" class="edge">
<title>Node11&#45;&gt;Node10</title>
<g id="a_edge13_Node000011_Node000010"><a xlink:title=" ">
<path fill="none" stroke="#63b8ff" d="M359.2,-12.78C417.98,-14.75 496.3,-17.36 554.48,-19.31"/>
<polygon fill="#63b8ff" stroke="#63b8ff" points="554.21,-22.8 564.32,-19.63 554.44,-15.8 554.21,-22.8"/>
</a>
</g>
</g>
</g>
</svg>
