<?xml version="1.0" encoding="UTF-8" standalone="no"?>
<!DOCTYPE svg PUBLIC "-//W3C//DTD SVG 1.1//EN"
 "http://www.w3.org/Graphics/SVG/1.1/DTD/svg11.dtd">
<!-- Generated by graphviz version 14.1.0 (20251206.1807)
 -->
<!-- Title: FPyranoConsoleLogSink Pages: 1 -->
<svg width="172pt" height="184pt"
 viewBox="0.00 0.00 172.00 184.00" xmlns="http://www.w3.org/2000/svg" xmlns:xlink="http://www.w3.org/1999/xlink">
<g id="graph0" class="graph" transform="scale(1 1) rotate(0) translate(4 180)">
<title>FPyranoConsoleLogSink</title>
<!-- Node1 -->
<g id="Node000001" class="node">
<title>Node1</title>
<g id="a_Node000001"><a xlink:title="Output device linked with GLog.">
<polygon fill="#999999" stroke="none" points="164.25,-88 0,-88 0,0 164.25,0 164.25,-88"/>
<text xml:space="preserve" text-anchor="start" x="28.12" y="-74.5" font-family="Helvetica,sans-Serif" font-size="10.00">FPyranoConsoleLogSink</text>
<text xml:space="preserve" text-anchor="start" x="80.62" y="-58.5" font-family="Helvetica,sans-Serif" font-size="10.00"> </text>
<text xml:space="preserve" text-anchor="start" x="4" y="-42.5" font-family="Helvetica,sans-Serif" font-size="10.00">+</text>
<text xml:space="preserve" text-anchor="start" x="14" y="-42.5" font-family="Helvetica,sans-Serif" font-size="10.00">virtual void Serialize</text>
<text xml:space="preserve" text-anchor="start" x="14" y="-30.5" font-family="Helvetica,sans-Serif" font-size="10.00">(const TCHAR *V, ELogVerbosity</text>
<text xml:space="preserve" text-anchor="start" x="14" y="-18.5" font-family="Helvetica,sans-Serif" font-size="10.00">::Type Verbosity, const FName</text>
<text xml:space="preserve" text-anchor="start" x="14" y="-6.5" font-family="Helvetica,sans-Serif" font-size="10.00"> &amp;Category) override</text>
<polygon fill="#666666" stroke="#666666" points="0,-70 0,-70 164.25,-70 164.25,-70 0,-70"/>
<polygon fill="#666666" stroke="#666666" points="0,-54 0,-54 164.25,-54 164.25,-54 0,-54"/>
<polygon fill="none" stroke="#666666" points="0,0 0,-88 164.25,-88 164.25,0 0,0"/>
</a>
</g>
</g>
<!-- Node2 -->
<g id="Node000002" class="node">
<title>Node2</title>
<g id="a_Node000002"><a xlink:title=" ">
<polygon fill="white" stroke="none" points="119.12,-176 45.12,-176 45.12,-124 119.12,-124 119.12,-176"/>
<text xml:space="preserve" text-anchor="start" x="49.12" y="-162.5" font-family="Helvetica,sans-Serif" font-size="10.00">FOutputDevice</text>
<text xml:space="preserve" text-anchor="start" x="80.62" y="-146.5" font-family="Helvetica,sans-Serif" font-size="10.00"> </text>
<text xml:space="preserve" text-anchor="start" x="80.62" y="-130.5" font-family="Helvetica,sans-Serif" font-size="10.00"> </text>
<polygon fill="#666666" stroke="#666666" points="45.12,-158 45.12,-158 119.12,-158 119.12,-158 45.12,-158"/>
<polygon fill="#666666" stroke="#666666" points="45.12,-142 45.12,-142 119.12,-142 119.12,-142 45.12,-142"/>
<polygon fill="none" stroke="#666666" points="45.12,-124 45.12,-176 119.12,-176 119.12,-124 45.12,-124"/>
</a>
</g>
</g>
<!-- Node2&#45;&gt;Node1 -->
<g id="edge1_Node000001_Node000002" class="edge">
<title>Node2&#45;&gt;Node1</title>
<g id="a_edge1_Node000001_Node000002"><a xlink:title=" ">
<path fill="none" stroke="#63b8ff" d="M82.12,-112.84C82.12,-104.83 82.12,-96.25 82.12,-87.99"/>
<polygon fill="none" stroke="#63b8ff" points="78.63,-112.58 82.13,-122.58 85.63,-112.58 78.63,-112.58"/>
</a>
</g>
</g>
</g>
</svg>
