<?xml version="1.0" encoding="UTF-8" standalone="no"?>
<!DOCTYPE svg PUBLIC "-//W3C//DTD SVG 1.1//EN"
 "http://www.w3.org/Graphics/SVG/1.1/DTD/svg11.dtd">
<!-- Generated by graphviz version 14.1.0 (20251206.1807)
 -->
<!-- Title: UPyranoEditorSubsystem::StartPIEWithConfig Pages: 1 -->
<svg width="961pt" height="304pt"
 viewBox="0.00 0.00 961.00 304.00" xmlns="http://www.w3.org/2000/svg" xmlns:xlink="http://www.w3.org/1999/xlink">
<g id="graph0" class="graph" transform="scale(1 1) rotate(0) translate(4 300.1)">
<title>UPyranoEditorSubsystem::StartPIEWithConfig</title>
<!-- Node1 -->
<g id="Node000001" class="node">
<title>Node1</title>
<g id="a_Node000001"><a xlink:title="Packs config and registers delegates before launching PIE.">
<polygon fill="#999999" stroke="#666666" points="129.25,-157 0,-157 0,-125 129.25,-125 129.25,-157"/>
<text xml:space="preserve" text-anchor="start" x="8" y="-143.5" font-family="Helvetica,sans-Serif" font-size="10.00">UPyranoEditorSubsystem</text>
<text xml:space="preserve" text-anchor="middle" x="64.62" y="-131.5" font-family="Helvetica,sans-Serif" font-size="10.00">::StartPIEWithConfig</text>
</a>
</g>
</g>
<!-- Node2 -->
<g id="Node000002" class="node">
<title>Node2</title>
<g id="a_Node000002"><a xlink:href="class_u_pyrano_editor_subsystem.html#a1b69ad32d7aad1655e600c9802b7ef9d" target="_top" xlink:title="Internal callback executed when PIE ends.">
<polygon fill="white" stroke="#666666" points="294.5,-282 165.25,-282 165.25,-250 294.5,-250 294.5,-282"/>
<text xml:space="preserve" text-anchor="start" x="173.25" y="-268.5" font-family="Helvetica,sans-Serif" font-size="10.00">UPyranoEditorSubsystem</text>
<text xml:space="preserve" text-anchor="middle" x="229.88" y="-256.5" font-family="Helvetica,sans-Serif" font-size="10.00">::OnEndPIE</text>
</a>
</g>
</g>
<!-- Node1&#45;&gt;Node2 -->
<g id="edge1_Node000001_Node000002" class="edge">
<title>Node1&#45;&gt;Node2</title>
<g id="a_edge1_Node000001_Node000002"><a xlink:title=" ">
<path fill="none" stroke="#63b8ff" d="M86.97,-157.34C115.44,-179.15 166.03,-217.88 198.49,-242.73"/>
<polygon fill="#63b8ff" stroke="#63b8ff" points="196.26,-245.43 206.33,-248.73 200.51,-239.88 196.26,-245.43"/>
</a>
</g>
</g>
<!-- Node5 -->
<g id="Node000005" class="node">
<title>Node5</title>
<g id="a_Node000005"><a xlink:href="class_u_pyrano_editor_subsystem.html#ae6108e9fda1f9471c24a39988d5122d6" target="_top" xlink:title="Internal callback executed once PIE has fully started.">
<polygon fill="white" stroke="#666666" points="294.5,-157 165.25,-157 165.25,-125 294.5,-125 294.5,-157"/>
<text xml:space="preserve" text-anchor="start" x="173.25" y="-143.5" font-family="Helvetica,sans-Serif" font-size="10.00">UPyranoEditorSubsystem</text>
<text xml:space="preserve" text-anchor="middle" x="229.88" y="-131.5" font-family="Helvetica,sans-Serif" font-size="10.00">::OnPostPIEStarted</text>
</a>
</g>
</g>
<!-- Node1&#45;&gt;Node5 -->
<g id="edge4_Node000001_Node000005" class="edge">
<title>Node1&#45;&gt;Node5</title>
<g id="a_edge4_Node000001_Node000005"><a xlink:title=" ">
<path fill="none" stroke="#63b8ff" d="M129.68,-141C137.57,-141 145.69,-141 153.73,-141"/>
<polygon fill="#63b8ff" stroke="#63b8ff" points="153.49,-144.5 163.49,-141 153.49,-137.5 153.49,-144.5"/>
</a>
</g>
</g>
<!-- Node15 -->
<g id="Node000015" class="node">
<title>Node15</title>
<g id="a_Node000015"><a xlink:href="class_u_pyrano_editor_subsystem.html#a30bd4878e55cf4affd5d950f17e85062" target="_top" xlink:title="Creates a new standalone PIE window with the given size.">
<polygon fill="white" stroke="#666666" points="294.5,-107 165.25,-107 165.25,-75 294.5,-75 294.5,-107"/>
<text xml:space="preserve" text-anchor="start" x="173.25" y="-93.5" font-family="Helvetica,sans-Serif" font-size="10.00">UPyranoEditorSubsystem</text>
<text xml:space="preserve" text-anchor="middle" x="229.88" y="-81.5" font-family="Helvetica,sans-Serif" font-size="10.00">::StartNewPIE</text>
</a>
</g>
</g>
<!-- Node1&#45;&gt;Node15 -->
<g id="edge19_Node000001_Node000015" class="edge">
<title>Node1&#45;&gt;Node15</title>
<g id="a_edge19_Node000001_Node000015"><a xlink:title=" ">
<path fill="none" stroke="#63b8ff" d="M119.08,-124.63C133.52,-120.2 149.3,-115.37 164.28,-110.78"/>
<polygon fill="#63b8ff" stroke="#63b8ff" points="165.04,-114.21 173.57,-107.94 162.99,-107.52 165.04,-114.21"/>
</a>
</g>
</g>
<!-- Node3 -->
<g id="Node000003" class="node">
<title>Node3</title>
<g id="a_Node000003"><a xlink:href="class_u_pyrano_editor_subsystem.html#a2adad0d3fd5864acbe4205b167cf4937" target="_top" xlink:title="Returns the PIE world if running, otherwise the editor world.">
<polygon fill="white" stroke="#666666" points="637,-291 507.75,-291 507.75,-259 637,-259 637,-291"/>
<text xml:space="preserve" text-anchor="start" x="515.75" y="-277.5" font-family="Helvetica,sans-Serif" font-size="10.00">UPyranoEditorSubsystem</text>
<text xml:space="preserve" text-anchor="middle" x="572.38" y="-265.5" font-family="Helvetica,sans-Serif" font-size="10.00">::GetActiveWorld</text>
</a>
</g>
</g>
<!-- Node2&#45;&gt;Node3 -->
<g id="edge2_Node000002_Node000003" class="edge">
<title>Node2&#45;&gt;Node3</title>
<g id="a_edge2_Node000002_Node000003"><a xlink:title=" ">
<path fill="none" stroke="#63b8ff" d="M286.27,-282.46C300.55,-286 315.99,-289.21 330.5,-291 392.8,-298.7 409.17,-295.99 471.75,-291 479.73,-290.36 488.04,-289.44 496.31,-288.36"/>
<polygon fill="#63b8ff" stroke="#63b8ff" points="496.59,-291.86 506.01,-287.01 495.63,-284.92 496.59,-291.86"/>
</a>
</g>
</g>
<!-- Node4 -->
<g id="Node000004" class="node">
<title>Node4</title>
<g id="a_Node000004"><a xlink:href="namespace_f_irradiance_render_config.html#ad773a5b70d7c97b6076f1188cb90ab33" target="_top" xlink:title=" ">
<polygon fill="white" stroke="#666666" points="465,-282 337.25,-282 337.25,-250 465,-250 465,-282"/>
<text xml:space="preserve" text-anchor="start" x="345.25" y="-268.5" font-family="Helvetica,sans-Serif" font-size="10.00">FIrradianceRenderConfig</text>
<text xml:space="preserve" text-anchor="middle" x="401.12" y="-256.5" font-family="Helvetica,sans-Serif" font-size="10.00">::RestoreIrradianceConfig</text>
</a>
</g>
</g>
<!-- Node2&#45;&gt;Node4 -->
<g id="edge3_Node000002_Node000004" class="edge">
<title>Node2&#45;&gt;Node4</title>
<g id="a_edge3_Node000002_Node000004"><a xlink:title=" ">
<path fill="none" stroke="#63b8ff" d="M294.86,-266C304.86,-266 315.27,-266 325.48,-266"/>
<polygon fill="#63b8ff" stroke="#63b8ff" points="325.38,-269.5 335.38,-266 325.38,-262.5 325.38,-269.5"/>
</a>
</g>
</g>
<!-- Node6 -->
<g id="Node000006" class="node">
<title>Node6</title>
<g id="a_Node000006"><a xlink:href="class_u_pyrano_editor_subsystem.html#ab354ffee4ea9cc5e40566874111fd461" target="_top" xlink:title="Applies Render/Irradiance CVars before starting PIE.">
<polygon fill="white" stroke="#666666" points="465.75,-132 336.5,-132 336.5,-100 465.75,-100 465.75,-132"/>
<text xml:space="preserve" text-anchor="start" x="344.5" y="-118.5" font-family="Helvetica,sans-Serif" font-size="10.00">UPyranoEditorSubsystem</text>
<text xml:space="preserve" text-anchor="middle" x="401.12" y="-106.5" font-family="Helvetica,sans-Serif" font-size="10.00">::ApplyCVarConfig</text>
</a>
</g>
</g>
<!-- Node5&#45;&gt;Node6 -->
<g id="edge5_Node000005_Node000006" class="edge">
<title>Node5&#45;&gt;Node6</title>
<g id="a_edge5_Node000005_Node000006"><a xlink:title=" ">
<path fill="none" stroke="#63b8ff" d="M294.86,-131.55C304.66,-130.1 314.84,-128.6 324.85,-127.12"/>
<polygon fill="#63b8ff" stroke="#63b8ff" points="325.17,-130.61 334.55,-125.69 324.15,-123.68 325.17,-130.61"/>
</a>
</g>
</g>
<!-- Node10 -->
<g id="Node000010" class="node">
<title>Node10</title>
<g id="a_Node000010"><a xlink:href="class_u_pyrano_editor_subsystem.html#ab0de335beccfcc58219f322f7d03a67c" target="_top" xlink:title="Ensures the PIE world is standalone or client (not server).">
<polygon fill="white" stroke="#666666" points="471.75,-82 330.5,-82 330.5,-50 471.75,-50 471.75,-82"/>
<text xml:space="preserve" text-anchor="start" x="338.5" y="-68.5" font-family="Helvetica,sans-Serif" font-size="10.00">UPyranoEditorSubsystem</text>
<text xml:space="preserve" text-anchor="middle" x="401.12" y="-56.5" font-family="Helvetica,sans-Serif" font-size="10.00">::EnsureLocalStandalonePIE</text>
</a>
</g>
</g>
<!-- Node5&#45;&gt;Node10 -->
<g id="edge10_Node000005_Node000010" class="edge">
<title>Node5&#45;&gt;Node10</title>
<g id="a_edge10_Node000005_Node000010"><a xlink:title=" ">
<path fill="none" stroke="#63b8ff" d="M276.64,-124.51C282.75,-121.88 288.85,-119.02 294.5,-116 311.68,-106.82 313.18,-99.92 330.5,-91 333.19,-89.61 335.97,-88.27 338.81,-86.98"/>
<polygon fill="#63b8ff" stroke="#63b8ff" points="340.06,-90.25 347.87,-83.09 337.3,-83.82 340.06,-90.25"/>
</a>
</g>
</g>
<!-- Node11 -->
<g id="Node000011" class="node">
<title>Node11</title>
<g id="a_Node000011"><a xlink:href="class_u_pyrano_editor_subsystem.html#ac3e1f1b78bd830e95a7b52fc3bff7ed9" target="_top" xlink:title="Ensures that the PIE world exists and is ready; retries if not.">
<polygon fill="white" stroke="#666666" points="465.75,-232 336.5,-232 336.5,-200 465.75,-200 465.75,-232"/>
<text xml:space="preserve" text-anchor="start" x="344.5" y="-218.5" font-family="Helvetica,sans-Serif" font-size="10.00">UPyranoEditorSubsystem</text>
<text xml:space="preserve" text-anchor="middle" x="401.12" y="-206.5" font-family="Helvetica,sans-Serif" font-size="10.00">::EnsurePIEWorld</text>
</a>
</g>
</g>
<!-- Node5&#45;&gt;Node11 -->
<g id="edge11_Node000005_Node000011" class="edge">
<title>Node5&#45;&gt;Node11</title>
<g id="a_edge11_Node000005_Node000011"><a xlink:title=" ">
<path fill="none" stroke="#63b8ff" d="M277.71,-157.47C294.19,-165.36 312.98,-174.49 330.5,-182 341.21,-186.59 353.08,-191.07 363.94,-195.34"/>
<polygon fill="#63b8ff" stroke="#63b8ff" points="362.39,-198.49 372.97,-198.97 365,-191.99 362.39,-198.49"/>
</a>
</g>
</g>
<!-- Node13 -->
<g id="Node000013" class="node">
<title>Node13</title>
<g id="a_Node000013"><a xlink:href="class_u_pyrano_editor_subsystem.html#a5bd1813278b5277f9b9677faf4bc9d85" target="_top" xlink:title="Verifies that the game viewport is initialized and visible.">
<polygon fill="white" stroke="#666666" points="465.75,-32 336.5,-32 336.5,0 465.75,0 465.75,-32"/>
<text xml:space="preserve" text-anchor="start" x="344.5" y="-18.5" font-family="Helvetica,sans-Serif" font-size="10.00">UPyranoEditorSubsystem</text>
<text xml:space="preserve" text-anchor="middle" x="401.12" y="-6.5" font-family="Helvetica,sans-Serif" font-size="10.00">::EnsureViewportReady</text>
</a>
</g>
</g>
<!-- Node5&#45;&gt;Node13 -->
<g id="edge15_Node000005_Node000013" class="edge">
<title>Node5&#45;&gt;Node13</title>
<g id="a_edge15_Node000005_Node000013"><a xlink:title=" ">
<path fill="none" stroke="#63b8ff" d="M264.26,-124.61C274.89,-120.32 286.07,-114.84 294.5,-107 319.04,-84.19 306.12,-61.47 328.2,-35.56"/>
<polygon fill="#63b8ff" stroke="#63b8ff" points="330.65,-38.06 335.19,-28.48 325.67,-33.14 330.65,-38.06"/>
</a>
</g>
</g>
<!-- Node14 -->
<g id="Node000014" class="node">
<title>Node14</title>
<g id="a_Node000014"><a xlink:href="class_u_pyrano_editor_subsystem.html#aac7636240544517fce7c46ac0df245a3" target="_top" xlink:title="Delays simulation start and monitors when it finishes.">
<polygon fill="white" stroke="#666666" points="467.62,-182 334.62,-182 334.62,-150 467.62,-150 467.62,-182"/>
<text xml:space="preserve" text-anchor="start" x="342.62" y="-168.5" font-family="Helvetica,sans-Serif" font-size="10.00">UPyranoEditorSubsystem</text>
<text xml:space="preserve" text-anchor="middle" x="401.12" y="-156.5" font-family="Helvetica,sans-Serif" font-size="10.00">::ScheduleStartAndMonitor</text>
</a>
</g>
</g>
<!-- Node5&#45;&gt;Node14 -->
<g id="edge17_Node000005_Node000014" class="edge">
<title>Node5&#45;&gt;Node14</title>
<g id="a_edge17_Node000005_Node000014"><a xlink:title=" ">
<path fill="none" stroke="#63b8ff" d="M294.86,-150.45C304.05,-151.81 313.57,-153.22 322.98,-154.6"/>
<polygon fill="#63b8ff" stroke="#63b8ff" points="322.46,-158.07 332.86,-156.06 323.48,-151.14 322.46,-158.07"/>
</a>
</g>
</g>
<!-- Node7 -->
<g id="Node000007" class="node">
<title>Node7</title>
<g id="a_Node000007"><a xlink:href="namespace_f_irradiance_render_config.html#a2880f5d9df2d1f4e81ecb89ca2f4e0e6" target="_top" xlink:title=" ">
<polygon fill="white" stroke="#666666" points="634.75,-132 510,-132 510,-100 634.75,-100 634.75,-132"/>
<text xml:space="preserve" text-anchor="start" x="518" y="-118.5" font-family="Helvetica,sans-Serif" font-size="10.00">FIrradianceRenderConfig</text>
<text xml:space="preserve" text-anchor="middle" x="572.38" y="-106.5" font-family="Helvetica,sans-Serif" font-size="10.00">::ApplyIrradianceConfig</text>
</a>
</g>
</g>
<!-- Node6&#45;&gt;Node7 -->
<g id="edge6_Node000006_Node000007" class="edge">
<title>Node6&#45;&gt;Node7</title>
<g id="a_edge6_Node000006_Node000007"><a xlink:title=" ">
<path fill="none" stroke="#63b8ff" d="M466.11,-116C476.56,-116 487.46,-116 498.11,-116"/>
<polygon fill="#63b8ff" stroke="#63b8ff" points="498.02,-119.5 508.02,-116 498.02,-112.5 498.02,-119.5"/>
</a>
</g>
</g>
<!-- Node8 -->
<g id="Node000008" class="node">
<title>Node8</title>
<g id="a_Node000008"><a xlink:href="namespaceanonymous__namespace_02_irradiance_configuration_8cpp_03.html#aad684e2485baaa38779ecb26af25cc94" target="_top" xlink:title=" ">
<polygon fill="white" stroke="#666666" points="794.75,-113 673,-113 673,-69 794.75,-69 794.75,-113"/>
<text xml:space="preserve" text-anchor="start" x="681" y="-99.5" font-family="Helvetica,sans-Serif" font-size="10.00">anonymous_namespace</text>
<text xml:space="preserve" text-anchor="start" x="681" y="-87.5" font-family="Helvetica,sans-Serif" font-size="10.00">{IrradianceConfiguration</text>
<text xml:space="preserve" text-anchor="middle" x="733.88" y="-75.5" font-family="Helvetica,sans-Serif" font-size="10.00">::cpp}::ApplyGroup</text>
</a>
</g>
</g>
<!-- Node7&#45;&gt;Node8 -->
<g id="edge7_Node000007_Node000008" class="edge">
<title>Node7&#45;&gt;Node8</title>
<g id="a_edge7_Node000007_Node000008"><a xlink:title=" ">
<path fill="none" stroke="#63b8ff" d="M635.04,-106.33C643.73,-104.97 652.73,-103.56 661.58,-102.17"/>
<polygon fill="#63b8ff" stroke="#63b8ff" points="661.85,-105.68 671.19,-100.67 660.77,-98.76 661.85,-105.68"/>
</a>
</g>
</g>
<!-- Node9 -->
<g id="Node000009" class="node">
<title>Node9</title>
<g id="a_Node000009"><a xlink:href="namespaceanonymous__namespace_02_irradiance_configuration_8cpp_03.html#aca5fa9f954f01057940a973680cd4d9a" target="_top" xlink:title=" ">
<polygon fill="white" stroke="#666666" points="952.5,-138 830.75,-138 830.75,-94 952.5,-94 952.5,-138"/>
<text xml:space="preserve" text-anchor="start" x="838.75" y="-124.5" font-family="Helvetica,sans-Serif" font-size="10.00">anonymous_namespace</text>
<text xml:space="preserve" text-anchor="start" x="838.75" y="-112.5" font-family="Helvetica,sans-Serif" font-size="10.00">{IrradianceConfiguration</text>
<text xml:space="preserve" text-anchor="middle" x="891.62" y="-100.5" font-family="Helvetica,sans-Serif" font-size="10.00">::cpp}::SaveAndSetInt</text>
</a>
</g>
</g>
<!-- Node7&#45;&gt;Node9 -->
<g id="edge9_Node000007_Node000009" class="edge">
<title>Node7&#45;&gt;Node9</title>
<g id="a_edge9_Node000007_Node000009"><a xlink:title=" ">
<path fill="none" stroke="#63b8ff" d="M635,-120.29C647.56,-121 660.7,-121.63 673,-122 727.09,-123.63 740.67,-123.69 794.75,-122 802.57,-121.76 810.74,-121.4 818.87,-120.98"/>
<polygon fill="#63b8ff" stroke="#63b8ff" points="819,-124.48 828.79,-120.43 818.61,-117.49 819,-124.48"/>
</a>
</g>
</g>
<!-- Node8&#45;&gt;Node9 -->
<g id="edge8_Node000008_Node000009" class="edge">
<title>Node8&#45;&gt;Node9</title>
<g id="a_edge8_Node000008_Node000009"><a xlink:title=" ">
<path fill="none" stroke="#63b8ff" d="M795.09,-100.67C802.95,-101.93 811.05,-103.23 819.07,-104.51"/>
<polygon fill="#63b8ff" stroke="#63b8ff" points="818.39,-107.95 828.82,-106.08 819.5,-101.04 818.39,-107.95"/>
</a>
</g>
</g>
<!-- Node11&#45;&gt;Node3 -->
<g id="edge12_Node000011_Node000003" class="edge">
<title>Node11&#45;&gt;Node3</title>
<g id="a_edge12_Node000011_Node000003"><a xlink:title=" ">
<path fill="none" stroke="#63b8ff" d="M449.27,-232.43C469.18,-239.37 492.55,-247.52 513.49,-254.82"/>
<polygon fill="#63b8ff" stroke="#63b8ff" points="512.17,-258.07 522.76,-258.05 514.47,-251.46 512.17,-258.07"/>
</a>
</g>
</g>
<!-- Node11&#45;&gt;Node5 -->
<g id="edge14_Node000011_Node000005" class="edge">
<title>Node11&#45;&gt;Node5</title>
<g id="a_edge14_Node000011_Node000005"><a xlink:title=" ">
<path fill="none" stroke="#63b8ff" d="M336.26,-202.41C334.31,-201.62 332.39,-200.81 330.5,-200 305.51,-189.29 277.94,-175.27 258.15,-163.32"/>
<polygon fill="#63b8ff" stroke="#63b8ff" points="260.17,-160.46 249.85,-158.09 256.44,-166.38 260.17,-160.46"/>
</a>
</g>
</g>
<!-- Node12 -->
<g id="Node000012" class="node">
<title>Node12</title>
<g id="a_Node000012"><a xlink:href="namespace_pyrano_editor_utils.html#ad1d7ad11514ffa4c9c0506a310f89295" target="_top" xlink:title=" ">
<polygon fill="white" stroke="#666666" points="621.62,-207 523.12,-207 523.12,-175 621.62,-175 621.62,-207"/>
<text xml:space="preserve" text-anchor="start" x="531.12" y="-193.5" font-family="Helvetica,sans-Serif" font-size="10.00">PyranoEditorUtils::</text>
<text xml:space="preserve" text-anchor="middle" x="572.38" y="-181.5" font-family="Helvetica,sans-Serif" font-size="10.00">GetPIEWorld</text>
</a>
</g>
</g>
<!-- Node11&#45;&gt;Node12 -->
<g id="edge13_Node000011_Node000012" class="edge">
<title>Node11&#45;&gt;Node12</title>
<g id="a_edge13_Node000011_Node000012"><a xlink:title=" ">
<path fill="none" stroke="#63b8ff" d="M466.11,-206.55C481.1,-204.33 497.02,-201.98 511.81,-199.8"/>
<polygon fill="#63b8ff" stroke="#63b8ff" points="511.99,-203.31 521.37,-198.39 510.97,-196.38 511.99,-203.31"/>
</a>
</g>
</g>
<!-- Node13&#45;&gt;Node5 -->
<g id="edge16_Node000013_Node000005" class="edge">
<title>Node13&#45;&gt;Node5</title>
<g id="a_edge16_Node000013_Node000005"><a xlink:title=" ">
<path fill="none" stroke="#63b8ff" d="M361.81,-32.47C350.73,-36.63 339.27,-42.09 330.5,-50 306.25,-71.88 317.88,-93.98 302.27,-116.19"/>
<polygon fill="#63b8ff" stroke="#63b8ff" points="299.76,-113.74 295.81,-123.57 305.03,-118.34 299.76,-113.74"/>
</a>
</g>
</g>
<!-- Node14&#45;&gt;Node12 -->
<g id="edge18_Node000014_Node000012" class="edge">
<title>Node14&#45;&gt;Node12</title>
<g id="a_edge18_Node000014_Node000012"><a xlink:title=" ">
<path fill="none" stroke="#63b8ff" d="M468.05,-175.74C482.4,-177.86 497.51,-180.09 511.61,-182.17"/>
<polygon fill="#63b8ff" stroke="#63b8ff" points="510.77,-185.59 521.17,-183.58 511.79,-178.66 510.77,-185.59"/>
</a>
</g>
</g>
</g>
</svg>
