<?xml version="1.0" encoding="UTF-8" standalone="no"?>
<!DOCTYPE svg PUBLIC "-//W3C//DTD SVG 1.1//EN"
 "http://www.w3.org/Graphics/SVG/1.1/DTD/svg11.dtd">
<!-- Generated by graphviz version 14.1.0 (20251206.1807)
 -->
<!-- Title: UPyranoEditorSubsystem::EnsureViewportReady Pages: 1 -->
<svg width="961pt" height="221pt"
 viewBox="0.00 0.00 961.00 221.00" xmlns="http://www.w3.org/2000/svg" xmlns:xlink="http://www.w3.org/1999/xlink">
<g id="graph0" class="graph" transform="scale(1 1) rotate(0) translate(4 217)">
<title>UPyranoEditorSubsystem::EnsureViewportReady</title>
<!-- Node1 -->
<g id="Node000001" class="node">
<title>Node1</title>
<g id="a_Node000001"><a xlink:title="Verifies that the game viewport is initialized and visible.">
<polygon fill="#999999" stroke="#666666" points="129.25,-82 0,-82 0,-50 129.25,-50 129.25,-82"/>
<text xml:space="preserve" text-anchor="start" x="8" y="-68.5" font-family="Helvetica,sans-Serif" font-size="10.00">UPyranoEditorSubsystem</text>
<text xml:space="preserve" text-anchor="middle" x="64.62" y="-56.5" font-family="Helvetica,sans-Serif" font-size="10.00">::EnsureViewportReady</text>
</a>
</g>
</g>
<!-- Node2 -->
<g id="Node000002" class="node">
<title>Node2</title>
<g id="a_Node000002"><a xlink:href="class_u_pyrano_editor_subsystem.html#ae6108e9fda1f9471c24a39988d5122d6" target="_top" xlink:title="Internal callback executed once PIE has fully started.">
<polygon fill="white" stroke="#666666" points="294.5,-82 165.25,-82 165.25,-50 294.5,-50 294.5,-82"/>
<text xml:space="preserve" text-anchor="start" x="173.25" y="-68.5" font-family="Helvetica,sans-Serif" font-size="10.00">UPyranoEditorSubsystem</text>
<text xml:space="preserve" text-anchor="middle" x="229.88" y="-56.5" font-family="Helvetica,sans-Serif" font-size="10.00">::OnPostPIEStarted</text>
</a>
</g>
</g>
<!-- Node1&#45;&gt;Node2 -->
<g id="edge1_Node000001_Node000002" class="edge">
<title>Node1&#45;&gt;Node2</title>
<g id="a_edge1_Node000001_Node000002"><a xlink:title=" ">
<path fill="none" stroke="#63b8ff" d="M129.68,-59.39C137.57,-59.26 145.69,-59.22 153.73,-59.27"/>
<polygon fill="#63b8ff" stroke="#63b8ff" points="153.46,-62.77 163.49,-59.38 153.53,-55.77 153.46,-62.77"/>
</a>
</g>
</g>
<!-- Node2&#45;&gt;Node1 -->
<g id="edge12_Node000002_Node000001" class="edge">
<title>Node2&#45;&gt;Node1</title>
<g id="a_edge12_Node000002_Node000001"><a xlink:title=" ">
<path fill="none" stroke="#63b8ff" d="M165.01,-72.61C157.12,-72.74 149,-72.78 140.96,-72.73"/>
<polygon fill="#63b8ff" stroke="#63b8ff" points="141.23,-69.23 131.19,-72.63 141.15,-76.23 141.23,-69.23"/>
</a>
</g>
</g>
<!-- Node3 -->
<g id="Node000003" class="node">
<title>Node3</title>
<g id="a_Node000003"><a xlink:href="class_u_pyrano_editor_subsystem.html#ab354ffee4ea9cc5e40566874111fd461" target="_top" xlink:title="Applies Render/Irradiance CVars before starting PIE.">
<polygon fill="white" stroke="#666666" points="465.75,-182 336.5,-182 336.5,-150 465.75,-150 465.75,-182"/>
<text xml:space="preserve" text-anchor="start" x="344.5" y="-168.5" font-family="Helvetica,sans-Serif" font-size="10.00">UPyranoEditorSubsystem</text>
<text xml:space="preserve" text-anchor="middle" x="401.12" y="-156.5" font-family="Helvetica,sans-Serif" font-size="10.00">::ApplyCVarConfig</text>
</a>
</g>
</g>
<!-- Node2&#45;&gt;Node3 -->
<g id="edge2_Node000002_Node000003" class="edge">
<title>Node2&#45;&gt;Node3</title>
<g id="a_edge2_Node000002_Node000003"><a xlink:title=" ">
<path fill="none" stroke="#63b8ff" d="M249.18,-82.48C268.33,-99.05 299.83,-124.44 330.5,-141 333.02,-142.36 335.63,-143.68 338.3,-144.94"/>
<polygon fill="#63b8ff" stroke="#63b8ff" points="336.83,-148.12 347.39,-148.96 339.66,-141.71 336.83,-148.12"/>
</a>
</g>
</g>
<!-- Node7 -->
<g id="Node000007" class="node">
<title>Node7</title>
<g id="a_Node000007"><a xlink:href="class_u_pyrano_editor_subsystem.html#ab0de335beccfcc58219f322f7d03a67c" target="_top" xlink:title="Ensures the PIE world is standalone or client (not server).">
<polygon fill="white" stroke="#666666" points="471.75,-132 330.5,-132 330.5,-100 471.75,-100 471.75,-132"/>
<text xml:space="preserve" text-anchor="start" x="338.5" y="-118.5" font-family="Helvetica,sans-Serif" font-size="10.00">UPyranoEditorSubsystem</text>
<text xml:space="preserve" text-anchor="middle" x="401.12" y="-106.5" font-family="Helvetica,sans-Serif" font-size="10.00">::EnsureLocalStandalonePIE</text>
</a>
</g>
</g>
<!-- Node2&#45;&gt;Node7 -->
<g id="edge7_Node000002_Node000007" class="edge">
<title>Node2&#45;&gt;Node7</title>
<g id="a_edge7_Node000002_Node000007"><a xlink:title=" ">
<path fill="none" stroke="#63b8ff" d="M286.29,-82.37C301.41,-86.84 317.95,-91.72 333.61,-96.35"/>
<polygon fill="#63b8ff" stroke="#63b8ff" points="332.26,-99.6 342.84,-99.08 334.24,-92.89 332.26,-99.6"/>
</a>
</g>
</g>
<!-- Node8 -->
<g id="Node000008" class="node">
<title>Node8</title>
<g id="a_Node000008"><a xlink:href="class_u_pyrano_editor_subsystem.html#ac3e1f1b78bd830e95a7b52fc3bff7ed9" target="_top" xlink:title="Ensures that the PIE world exists and is ready; retries if not.">
<polygon fill="white" stroke="#666666" points="465.75,-82 336.5,-82 336.5,-50 465.75,-50 465.75,-82"/>
<text xml:space="preserve" text-anchor="start" x="344.5" y="-68.5" font-family="Helvetica,sans-Serif" font-size="10.00">UPyranoEditorSubsystem</text>
<text xml:space="preserve" text-anchor="middle" x="401.12" y="-56.5" font-family="Helvetica,sans-Serif" font-size="10.00">::EnsurePIEWorld</text>
</a>
</g>
</g>
<!-- Node2&#45;&gt;Node8 -->
<g id="edge8_Node000002_Node000008" class="edge">
<title>Node2&#45;&gt;Node8</title>
<g id="a_edge8_Node000002_Node000008"><a xlink:title=" ">
<path fill="none" stroke="#63b8ff" d="M294.86,-59.43C304.66,-59.26 314.84,-59.21 324.85,-59.29"/>
<polygon fill="#63b8ff" stroke="#63b8ff" points="324.49,-62.78 334.53,-59.41 324.58,-55.78 324.49,-62.78"/>
</a>
</g>
</g>
<!-- Node11 -->
<g id="Node000011" class="node">
<title>Node11</title>
<g id="a_Node000011"><a xlink:href="class_u_pyrano_editor_subsystem.html#aac7636240544517fce7c46ac0df245a3" target="_top" xlink:title="Delays simulation start and monitors when it finishes.">
<polygon fill="white" stroke="#666666" points="467.62,-32 334.62,-32 334.62,0 467.62,0 467.62,-32"/>
<text xml:space="preserve" text-anchor="start" x="342.62" y="-18.5" font-family="Helvetica,sans-Serif" font-size="10.00">UPyranoEditorSubsystem</text>
<text xml:space="preserve" text-anchor="middle" x="401.12" y="-6.5" font-family="Helvetica,sans-Serif" font-size="10.00">::ScheduleStartAndMonitor</text>
</a>
</g>
</g>
<!-- Node2&#45;&gt;Node11 -->
<g id="edge13_Node000002_Node000011" class="edge">
<title>Node2&#45;&gt;Node11</title>
<g id="a_edge13_Node000002_Node000011"><a xlink:title=" ">
<path fill="none" stroke="#63b8ff" d="M286.29,-49.63C301.41,-45.16 317.95,-40.28 333.61,-35.65"/>
<polygon fill="#63b8ff" stroke="#63b8ff" points="334.24,-39.11 342.84,-32.92 332.26,-32.4 334.24,-39.11"/>
</a>
</g>
</g>
<!-- Node4 -->
<g id="Node000004" class="node">
<title>Node4</title>
<g id="a_Node000004"><a xlink:href="namespace_f_irradiance_render_config.html#a2880f5d9df2d1f4e81ecb89ca2f4e0e6" target="_top" xlink:title=" ">
<polygon fill="white" stroke="#666666" points="634.75,-182 510,-182 510,-150 634.75,-150 634.75,-182"/>
<text xml:space="preserve" text-anchor="start" x="518" y="-168.5" font-family="Helvetica,sans-Serif" font-size="10.00">FIrradianceRenderConfig</text>
<text xml:space="preserve" text-anchor="middle" x="572.38" y="-156.5" font-family="Helvetica,sans-Serif" font-size="10.00">::ApplyIrradianceConfig</text>
</a>
</g>
</g>
<!-- Node3&#45;&gt;Node4 -->
<g id="edge3_Node000003_Node000004" class="edge">
<title>Node3&#45;&gt;Node4</title>
<g id="a_edge3_Node000003_Node000004"><a xlink:title=" ">
<path fill="none" stroke="#63b8ff" d="M466.11,-166C476.56,-166 487.46,-166 498.11,-166"/>
<polygon fill="#63b8ff" stroke="#63b8ff" points="498.02,-169.5 508.02,-166 498.02,-162.5 498.02,-169.5"/>
</a>
</g>
</g>
<!-- Node5 -->
<g id="Node000005" class="node">
<title>Node5</title>
<g id="a_Node000005"><a xlink:href="namespaceanonymous__namespace_02_irradiance_configuration_8cpp_03.html#aad684e2485baaa38779ecb26af25cc94" target="_top" xlink:title=" ">
<polygon fill="white" stroke="#666666" points="794.75,-213 673,-213 673,-169 794.75,-169 794.75,-213"/>
<text xml:space="preserve" text-anchor="start" x="681" y="-199.5" font-family="Helvetica,sans-Serif" font-size="10.00">anonymous_namespace</text>
<text xml:space="preserve" text-anchor="start" x="681" y="-187.5" font-family="Helvetica,sans-Serif" font-size="10.00">{IrradianceConfiguration</text>
<text xml:space="preserve" text-anchor="middle" x="733.88" y="-175.5" font-family="Helvetica,sans-Serif" font-size="10.00">::cpp}::ApplyGroup</text>
</a>
</g>
</g>
<!-- Node4&#45;&gt;Node5 -->
<g id="edge4_Node000004_Node000005" class="edge">
<title>Node4&#45;&gt;Node5</title>
<g id="a_edge4_Node000004_Node000005"><a xlink:title=" ">
<path fill="none" stroke="#63b8ff" d="M635.04,-175.67C643.73,-177.03 652.73,-178.44 661.58,-179.83"/>
<polygon fill="#63b8ff" stroke="#63b8ff" points="660.77,-183.24 671.19,-181.33 661.85,-176.32 660.77,-183.24"/>
</a>
</g>
</g>
<!-- Node6 -->
<g id="Node000006" class="node">
<title>Node6</title>
<g id="a_Node000006"><a xlink:href="namespaceanonymous__namespace_02_irradiance_configuration_8cpp_03.html#aca5fa9f954f01057940a973680cd4d9a" target="_top" xlink:title=" ">
<polygon fill="white" stroke="#666666" points="952.5,-188 830.75,-188 830.75,-144 952.5,-144 952.5,-188"/>
<text xml:space="preserve" text-anchor="start" x="838.75" y="-174.5" font-family="Helvetica,sans-Serif" font-size="10.00">anonymous_namespace</text>
<text xml:space="preserve" text-anchor="start" x="838.75" y="-162.5" font-family="Helvetica,sans-Serif" font-size="10.00">{IrradianceConfiguration</text>
<text xml:space="preserve" text-anchor="middle" x="891.62" y="-150.5" font-family="Helvetica,sans-Serif" font-size="10.00">::cpp}::SaveAndSetInt</text>
</a>
</g>
</g>
<!-- Node4&#45;&gt;Node6 -->
<g id="edge6_Node000004_Node000006" class="edge">
<title>Node4&#45;&gt;Node6</title>
<g id="a_edge6_Node000004_Node000006"><a xlink:title=" ">
<path fill="none" stroke="#63b8ff" d="M635,-161.71C647.56,-161 660.7,-160.37 673,-160 727.09,-158.37 740.67,-158.31 794.75,-160 802.57,-160.24 810.74,-160.6 818.87,-161.02"/>
<polygon fill="#63b8ff" stroke="#63b8ff" points="818.61,-164.51 828.79,-161.57 819,-157.52 818.61,-164.51"/>
</a>
</g>
</g>
<!-- Node5&#45;&gt;Node6 -->
<g id="edge5_Node000005_Node000006" class="edge">
<title>Node5&#45;&gt;Node6</title>
<g id="a_edge5_Node000005_Node000006"><a xlink:title=" ">
<path fill="none" stroke="#63b8ff" d="M795.09,-181.33C802.95,-180.07 811.05,-178.77 819.07,-177.49"/>
<polygon fill="#63b8ff" stroke="#63b8ff" points="819.5,-180.96 828.82,-175.92 818.39,-174.05 819.5,-180.96"/>
</a>
</g>
</g>
<!-- Node8&#45;&gt;Node2 -->
<g id="edge11_Node000008_Node000002" class="edge">
<title>Node8&#45;&gt;Node2</title>
<g id="a_edge11_Node000008_Node000002"><a xlink:title=" ">
<path fill="none" stroke="#63b8ff" d="M336.05,-72.57C326.25,-72.74 316.06,-72.79 306.06,-72.71"/>
<polygon fill="#63b8ff" stroke="#63b8ff" points="306.42,-69.22 296.37,-72.59 306.33,-76.22 306.42,-69.22"/>
</a>
</g>
</g>
<!-- Node9 -->
<g id="Node000009" class="node">
<title>Node9</title>
<g id="a_Node000009"><a xlink:href="class_u_pyrano_editor_subsystem.html#a2adad0d3fd5864acbe4205b167cf4937" target="_top" xlink:title="Returns the PIE world if running, otherwise the editor world.">
<polygon fill="white" stroke="#666666" points="637,-82 507.75,-82 507.75,-50 637,-50 637,-82"/>
<text xml:space="preserve" text-anchor="start" x="515.75" y="-68.5" font-family="Helvetica,sans-Serif" font-size="10.00">UPyranoEditorSubsystem</text>
<text xml:space="preserve" text-anchor="middle" x="572.38" y="-56.5" font-family="Helvetica,sans-Serif" font-size="10.00">::GetActiveWorld</text>
</a>
</g>
</g>
<!-- Node8&#45;&gt;Node9 -->
<g id="edge9_Node000008_Node000009" class="edge">
<title>Node8&#45;&gt;Node9</title>
<g id="a_edge9_Node000008_Node000009"><a xlink:title=" ">
<path fill="none" stroke="#63b8ff" d="M466.11,-66C475.91,-66 486.09,-66 496.1,-66"/>
<polygon fill="#63b8ff" stroke="#63b8ff" points="495.78,-69.5 505.78,-66 495.78,-62.5 495.78,-69.5"/>
</a>
</g>
</g>
<!-- Node10 -->
<g id="Node000010" class="node">
<title>Node10</title>
<g id="a_Node000010"><a xlink:href="namespace_pyrano_editor_utils.html#ad1d7ad11514ffa4c9c0506a310f89295" target="_top" xlink:title=" ">
<polygon fill="white" stroke="#666666" points="621.62,-32 523.12,-32 523.12,0 621.62,0 621.62,-32"/>
<text xml:space="preserve" text-anchor="start" x="531.12" y="-18.5" font-family="Helvetica,sans-Serif" font-size="10.00">PyranoEditorUtils::</text>
<text xml:space="preserve" text-anchor="middle" x="572.38" y="-6.5" font-family="Helvetica,sans-Serif" font-size="10.00">GetPIEWorld</text>
</a>
</g>
</g>
<!-- Node8&#45;&gt;Node10 -->
<g id="edge10_Node000008_Node000010" class="edge">
<title>Node8&#45;&gt;Node10</title>
<g id="a_edge10_Node000008_Node000010"><a xlink:title=" ">
<path fill="none" stroke="#63b8ff" d="M457.54,-49.63C474.87,-44.51 494.05,-38.84 511.65,-33.64"/>
<polygon fill="#63b8ff" stroke="#63b8ff" points="512.62,-37.01 521.22,-30.82 510.64,-30.29 512.62,-37.01"/>
</a>
</g>
</g>
<!-- Node11&#45;&gt;Node10 -->
<g id="edge14_Node000011_Node000010" class="edge">
<title>Node11&#45;&gt;Node10</title>
<g id="a_edge14_Node000011_Node000010"><a xlink:title=" ">
<path fill="none" stroke="#63b8ff" d="M468.05,-16C482.26,-16 497.21,-16 511.19,-16"/>
<polygon fill="#63b8ff" stroke="#63b8ff" points="511.16,-19.5 521.16,-16 511.16,-12.5 511.16,-19.5"/>
</a>
</g>
</g>
</g>
</svg>
