<?xml version="1.0" encoding="UTF-8" standalone="no"?>
<!DOCTYPE svg PUBLIC "-//W3C//DTD SVG 1.1//EN"
 "http://www.w3.org/Graphics/SVG/1.1/DTD/svg11.dtd">
<!-- Generated by graphviz version 14.1.0 (20251206.1807)
 -->
<!-- Title: UIrradianceExporter::EnsureCSVWritable Pages: 1 -->
<svg width="414pt" height="62pt"
 viewBox="0.00 0.00 414.00 62.00" xmlns="http://www.w3.org/2000/svg" xmlns:xlink="http://www.w3.org/1999/xlink">
<g id="graph0" class="graph" transform="scale(1 1) rotate(0) translate(4 58)">
<title>UIrradianceExporter::EnsureCSVWritable</title>
<!-- Node1 -->
<g id="Node000001" class="node">
<title>Node1</title>
<g id="a_Node000001"><a xlink:title=" ">
<polygon fill="#999999" stroke="#666666" points="405.75,-54 296.75,-54 296.75,-22 405.75,-22 405.75,-54"/>
<text xml:space="preserve" text-anchor="start" x="304.75" y="-40.5" font-family="Helvetica,sans-Serif" font-size="10.00">UIrradianceExporter</text>
<text xml:space="preserve" text-anchor="middle" x="351.25" y="-28.5" font-family="Helvetica,sans-Serif" font-size="10.00">::EnsureCSVWritable</text>
</a>
</g>
</g>
<!-- Node2 -->
<g id="Node000002" class="node">
<title>Node2</title>
<g id="a_Node000002"><a xlink:href="class_u_irradiance_exporter.html#ad382e2dafafdc723f7a16059b1e562f2" target="_top" xlink:title="CSV export utils.">
<polygon fill="white" stroke="#666666" points="118,-54 0,-54 0,-22 118,-22 118,-54"/>
<text xml:space="preserve" text-anchor="start" x="8" y="-40.5" font-family="Helvetica,sans-Serif" font-size="10.00">UIrradianceExporter</text>
<text xml:space="preserve" text-anchor="middle" x="59" y="-28.5" font-family="Helvetica,sans-Serif" font-size="10.00">::AppendIrradianceRow</text>
</a>
</g>
</g>
<!-- Node1&#45;&gt;Node2 -->
<g id="edge1_Node000001_Node000002" class="edge">
<title>Node1&#45;&gt;Node2</title>
<g id="a_edge1_Node000001_Node000002"><a xlink:title=" ">
<path fill="none" stroke="#63b8ff" d="M284.9,-40.44C276.77,-40.67 268.57,-40.87 260.75,-41 213.31,-41.79 201.44,-41.76 154,-41 142.49,-40.82 130.19,-40.51 118.41,-40.15"/>
<polygon fill="#63b8ff" stroke="#63b8ff" points="284.9,-43.95 294.79,-40.15 284.69,-36.95 284.9,-43.95"/>
</a>
</g>
</g>
<!-- Node3 -->
<g id="Node000003" class="node">
<title>Node3</title>
<g id="a_Node000003"><a xlink:href="class_u_irradiance_exporter.html#ae27d33156d8d003db48f8a8e95589dc2" target="_top" xlink:title=" ">
<polygon fill="white" stroke="#666666" points="260.75,-32 154,-32 154,0 260.75,0 260.75,-32"/>
<text xml:space="preserve" text-anchor="start" x="162" y="-18.5" font-family="Helvetica,sans-Serif" font-size="10.00">UIrradianceExporter</text>
<text xml:space="preserve" text-anchor="middle" x="207.38" y="-6.5" font-family="Helvetica,sans-Serif" font-size="10.00">::FlushCSVIfNeeded</text>
</a>
</g>
</g>
<!-- Node1&#45;&gt;Node3 -->
<g id="edge2_Node000001_Node000003" class="edge">
<title>Node1&#45;&gt;Node3</title>
<g id="a_edge2_Node000001_Node000003"><a xlink:title=" ">
<path fill="none" stroke="#63b8ff" d="M285.29,-27.93C277.21,-26.67 269.02,-25.4 261.15,-24.18"/>
<polygon fill="#63b8ff" stroke="#63b8ff" points="284.7,-31.38 295.12,-29.45 285.77,-24.46 284.7,-31.38"/>
</a>
</g>
</g>
<!-- Node3&#45;&gt;Node2 -->
<g id="edge3_Node000003_Node000002" class="edge">
<title>Node3&#45;&gt;Node2</title>
<g id="a_edge3_Node000003_Node000002"><a xlink:title=" ">
<path fill="none" stroke="#63b8ff" d="M142.33,-25.63C134.31,-26.83 126.14,-28.06 118.22,-29.25"/>
<polygon fill="#63b8ff" stroke="#63b8ff" points="142.66,-29.11 152.03,-24.17 141.62,-22.19 142.66,-29.11"/>
</a>
</g>
</g>
</g>
</svg>
