<?xml version="1.0" encoding="UTF-8" standalone="no"?>
<!DOCTYPE svg PUBLIC "-//W3C//DTD SVG 1.1//EN"
 "http://www.w3.org/Graphics/SVG/1.1/DTD/svg11.dtd">
<!-- Generated by graphviz version 14.1.0 (20251206.1807)
 -->
<!-- Title: UConsoleLogLineEntry Pages: 1 -->
<svg width="192pt" height="184pt"
 viewBox="0.00 0.00 192.00 184.00" xmlns="http://www.w3.org/2000/svg" xmlns:xlink="http://www.w3.org/1999/xlink">
<g id="graph0" class="graph" transform="scale(1 1) rotate(0) translate(4 180)">
<title>UConsoleLogLineEntry</title>
<!-- Node1 -->
<g id="Node000001" class="node">
<title>Node1</title>
<g id="a_Node000001"><a xlink:title="Displays a single log line inside the editor log list entry widget.">
<polygon fill="#999999" stroke="none" points="164.62,-88 2.62,-88 2.62,0 164.62,0 164.62,-88"/>
<text xml:space="preserve" text-anchor="start" x="33.38" y="-74.5" font-family="Helvetica,sans-Serif" font-size="10.00">UConsoleLogLineEntry</text>
<text xml:space="preserve" text-anchor="start" x="6.62" y="-58.5" font-family="Helvetica,sans-Serif" font-size="10.00">+</text>
<text xml:space="preserve" text-anchor="start" x="16.62" y="-58.5" font-family="Helvetica,sans-Serif" font-size="10.00">UMultiLineEditableText</text>
<text xml:space="preserve" text-anchor="start" x="16.62" y="-46.5" font-family="Helvetica,sans-Serif" font-size="10.00"> * TXT_Line</text>
<text xml:space="preserve" text-anchor="start" x="7" y="-30.5" font-family="Helvetica,sans-Serif" font-size="10.00">#</text>
<text xml:space="preserve" text-anchor="start" x="16.62" y="-30.5" font-family="Helvetica,sans-Serif" font-size="10.00">virtual void NativeOnList</text>
<text xml:space="preserve" text-anchor="start" x="16.62" y="-18.5" font-family="Helvetica,sans-Serif" font-size="10.00">ItemObjectSet(UObject *ListItem</text>
<text xml:space="preserve" text-anchor="start" x="16.62" y="-6.5" font-family="Helvetica,sans-Serif" font-size="10.00">Object) override</text>
<polygon fill="#666666" stroke="#666666" points="2.62,-70 2.62,-70 164.62,-70 164.62,-70 2.62,-70"/>
<polygon fill="#666666" stroke="#666666" points="2.62,-42 2.62,-42 14.62,-42 14.62,-42 2.62,-42"/>
<polygon fill="#666666" stroke="#666666" points="14.62,-42 14.62,-42 164.62,-42 164.62,-42 14.62,-42"/>
<polygon fill="none" stroke="#666666" points="2.62,0 2.62,-88 164.62,-88 164.62,0 2.62,0"/>
</a>
</g>
</g>
<!-- Node2 -->
<g id="Node000002" class="node">
<title>Node2</title>
<g id="a_Node000002"><a xlink:title=" ">
<polygon fill="white" stroke="none" points="67.25,-176 0,-176 0,-124 67.25,-124 67.25,-176"/>
<text xml:space="preserve" text-anchor="start" x="4" y="-162.5" font-family="Helvetica,sans-Serif" font-size="10.00">UUserWidget</text>
<text xml:space="preserve" text-anchor="start" x="32.12" y="-146.5" font-family="Helvetica,sans-Serif" font-size="10.00"> </text>
<text xml:space="preserve" text-anchor="start" x="32.12" y="-130.5" font-family="Helvetica,sans-Serif" font-size="10.00"> </text>
<polygon fill="#666666" stroke="#666666" points="0,-158 0,-158 67.25,-158 67.25,-158 0,-158"/>
<polygon fill="#666666" stroke="#666666" points="0,-142 0,-142 67.25,-142 67.25,-142 0,-142"/>
<polygon fill="none" stroke="#666666" points="0,-124 0,-176 67.25,-176 67.25,-124 0,-124"/>
</a>
</g>
</g>
<!-- Node2&#45;&gt;Node1 -->
<g id="edge1_Node000001_Node000002" class="edge">
<title>Node2&#45;&gt;Node1</title>
<g id="a_edge1_Node000001_Node000002"><a xlink:title=" ">
<path fill="none" stroke="#63b8ff" d="M50.47,-113.96C54.48,-105.62 58.8,-96.64 62.96,-87.99"/>
<polygon fill="none" stroke="#63b8ff" points="47.44,-112.2 46.26,-122.73 53.74,-115.23 47.44,-112.2"/>
</a>
</g>
</g>
<!-- Node3 -->
<g id="Node000003" class="node">
<title>Node3</title>
<g id="a_Node000003"><a xlink:title=" ">
<polygon fill="white" stroke="none" points="184.38,-176 84.88,-176 84.88,-124 184.38,-124 184.38,-176"/>
<text xml:space="preserve" text-anchor="start" x="88.88" y="-162.5" font-family="Helvetica,sans-Serif" font-size="10.00">IUserObjectListEntry</text>
<text xml:space="preserve" text-anchor="start" x="133.12" y="-146.5" font-family="Helvetica,sans-Serif" font-size="10.00"> </text>
<text xml:space="preserve" text-anchor="start" x="133.12" y="-130.5" font-family="Helvetica,sans-Serif" font-size="10.00"> </text>
<polygon fill="#666666" stroke="#666666" points="84.88,-158 84.88,-158 184.38,-158 184.38,-158 84.88,-158"/>
<polygon fill="#666666" stroke="#666666" points="84.88,-142 84.88,-142 184.38,-142 184.38,-142 84.88,-142"/>
<polygon fill="none" stroke="#666666" points="84.88,-124 84.88,-176 184.38,-176 184.38,-124 84.88,-124"/>
</a>
</g>
</g>
<!-- Node3&#45;&gt;Node1 -->
<g id="edge2_Node000001_Node000003" class="edge">
<title>Node3&#45;&gt;Node1</title>
<g id="a_edge2_Node000001_Node000003"><a xlink:title=" ">
<path fill="none" stroke="#63b8ff" d="M117.44,-113.96C113.35,-105.62 108.95,-96.64 104.71,-87.99"/>
<polygon fill="none" stroke="#63b8ff" points="114.2,-115.29 121.74,-122.73 120.48,-112.21 114.2,-115.29"/>
</a>
</g>
</g>
</g>
</svg>
