<?xml version="1.0" encoding="UTF-8" standalone="no"?>
<!DOCTYPE svg PUBLIC "-//W3C//DTD SVG 1.1//EN"
 "http://www.w3.org/Graphics/SVG/1.1/DTD/svg11.dtd">
<!-- Generated by graphviz version 14.1.0 (20251206.1807)
 -->
<!-- Title: UIrradianceScheduler::PrepareSimulation Pages: 1 -->
<svg width="421pt" height="178pt"
 viewBox="0.00 0.00 421.00 178.00" xmlns="http://www.w3.org/2000/svg" xmlns:xlink="http://www.w3.org/1999/xlink">
<g id="graph0" class="graph" transform="scale(1 1) rotate(0) translate(4 174)">
<title>UIrradianceScheduler::PrepareSimulation</title>
<!-- Node1 -->
<g id="Node000001" class="node">
<title>Node1</title>
<g id="a_Node000001"><a xlink:title="Prepares SunSky, export and viewport settings for a simulation.">
<polygon fill="#999999" stroke="#666666" points="109.75,-104 0,-104 0,-72 109.75,-72 109.75,-104"/>
<text xml:space="preserve" text-anchor="start" x="8" y="-90.5" font-family="Helvetica,sans-Serif" font-size="10.00">UIrradianceScheduler</text>
<text xml:space="preserve" text-anchor="middle" x="54.88" y="-78.5" font-family="Helvetica,sans-Serif" font-size="10.00">::PrepareSimulation</text>
</a>
</g>
</g>
<!-- Node2 -->
<g id="Node000002" class="node">
<title>Node2</title>
<g id="a_Node000002"><a xlink:href="class_u_irradiance_scheduler.html#ac09bb9a1d345e452696d7fab17cd0fa0" target="_top" xlink:title="Forces a square viewport suitable for the simulation/capture.">
<polygon fill="white" stroke="#666666" points="261.5,-170 151.75,-170 151.75,-138 261.5,-138 261.5,-170"/>
<text xml:space="preserve" text-anchor="start" x="159.75" y="-156.5" font-family="Helvetica,sans-Serif" font-size="10.00">UIrradianceScheduler</text>
<text xml:space="preserve" text-anchor="middle" x="206.62" y="-144.5" font-family="Helvetica,sans-Serif" font-size="10.00">::ApplyViewport</text>
</a>
</g>
</g>
<!-- Node1&#45;&gt;Node2 -->
<g id="edge1_Node000001_Node000002" class="edge">
<title>Node1&#45;&gt;Node2</title>
<g id="a_edge1_Node000001_Node000002"><a xlink:title=" ">
<path fill="none" stroke="#63b8ff" d="M93.28,-104.48C112.92,-113.14 137.19,-123.84 158.14,-133.07"/>
<polygon fill="#63b8ff" stroke="#63b8ff" points="156.49,-136.17 167.06,-137 159.32,-129.77 156.49,-136.17"/>
</a>
</g>
</g>
<!-- Node3 -->
<g id="Node000003" class="node">
<title>Node3</title>
<g id="a_Node000003"><a xlink:href="class_u_irradiance_scheduler.html#a3a1998734dd679049d860179bf9b0222" target="_top" xlink:title="Ensures the IrradianceSubsystem pointer is valid for the current world.">
<polygon fill="white" stroke="#666666" points="413.25,-148 303.5,-148 303.5,-116 413.25,-116 413.25,-148"/>
<text xml:space="preserve" text-anchor="start" x="311.5" y="-134.5" font-family="Helvetica,sans-Serif" font-size="10.00">UIrradianceScheduler</text>
<text xml:space="preserve" text-anchor="middle" x="358.38" y="-122.5" font-family="Helvetica,sans-Serif" font-size="10.00">::EnsureSubsystem</text>
</a>
</g>
</g>
<!-- Node1&#45;&gt;Node3 -->
<g id="edge4_Node000001_Node000003" class="edge">
<title>Node1&#45;&gt;Node3</title>
<g id="a_edge4_Node000001_Node000003"><a xlink:title=" ">
<path fill="none" stroke="#63b8ff" d="M110.13,-95.92C161.09,-103.35 237.44,-114.5 291.8,-122.43"/>
<polygon fill="#63b8ff" stroke="#63b8ff" points="291.15,-125.87 301.55,-123.85 292.17,-118.95 291.15,-125.87"/>
</a>
</g>
</g>
<!-- Node4 -->
<g id="Node000004" class="node">
<title>Node4</title>
<g id="a_Node000004"><a xlink:href="class_u_irradiance_scheduler.html#aa40d1480cbc21302196ae1fc097457b7" target="_top" xlink:title="Applies static SunSky configuration (lat/lon/timezone/northoffset).">
<polygon fill="white" stroke="#666666" points="267.5,-82 145.75,-82 145.75,-50 267.5,-50 267.5,-82"/>
<text xml:space="preserve" text-anchor="start" x="153.75" y="-68.5" font-family="Helvetica,sans-Serif" font-size="10.00">UIrradianceScheduler</text>
<text xml:space="preserve" text-anchor="middle" x="206.62" y="-56.5" font-family="Helvetica,sans-Serif" font-size="10.00">::ConfigureSunSkyOnce</text>
</a>
</g>
</g>
<!-- Node1&#45;&gt;Node4 -->
<g id="edge3_Node000001_Node000004" class="edge">
<title>Node1&#45;&gt;Node4</title>
<g id="a_edge3_Node000001_Node000004"><a xlink:title=" ">
<path fill="none" stroke="#63b8ff" d="M109.94,-80.06C117.74,-78.91 125.87,-77.72 133.95,-76.53"/>
<polygon fill="#63b8ff" stroke="#63b8ff" points="134.41,-80 143.8,-75.08 133.4,-73.07 134.41,-80"/>
</a>
</g>
</g>
<!-- Node5 -->
<g id="Node000005" class="node">
<title>Node5</title>
<g id="a_Node000005"><a xlink:href="class_u_irradiance_scheduler.html#aebff31185ed2941c1c7abcc423e1b25a" target="_top" xlink:title="Sets the SunSky UTC time.">
<polygon fill="white" stroke="#666666" points="261.5,-32 151.75,-32 151.75,0 261.5,0 261.5,-32"/>
<text xml:space="preserve" text-anchor="start" x="159.75" y="-18.5" font-family="Helvetica,sans-Serif" font-size="10.00">UIrradianceScheduler</text>
<text xml:space="preserve" text-anchor="middle" x="206.62" y="-6.5" font-family="Helvetica,sans-Serif" font-size="10.00">::SetSunSkyUTC</text>
</a>
</g>
</g>
<!-- Node1&#45;&gt;Node5 -->
<g id="edge5_Node000001_Node000005" class="edge">
<title>Node1&#45;&gt;Node5</title>
<g id="a_edge5_Node000001_Node000005"><a xlink:title=" ">
<path fill="none" stroke="#63b8ff" d="M85.51,-71.68C102.88,-62.32 125.35,-50.57 145.75,-41 148.62,-39.65 151.58,-38.3 154.58,-36.96"/>
<polygon fill="#63b8ff" stroke="#63b8ff" points="155.69,-40.3 163.45,-33.08 152.88,-33.88 155.69,-40.3"/>
</a>
</g>
</g>
<!-- Node2&#45;&gt;Node3 -->
<g id="edge2_Node000002_Node000003" class="edge">
<title>Node2&#45;&gt;Node3</title>
<g id="a_edge2_Node000002_Node000003"><a xlink:title=" ">
<path fill="none" stroke="#63b8ff" d="M261.69,-146.06C271.49,-144.62 281.8,-143.1 291.89,-141.62"/>
<polygon fill="#63b8ff" stroke="#63b8ff" points="292.26,-145.1 301.64,-140.19 291.24,-138.18 292.26,-145.1"/>
</a>
</g>
</g>
</g>
</svg>
