<?xml version="1.0" encoding="UTF-8" standalone="no"?>
<!DOCTYPE svg PUBLIC "-//W3C//DTD SVG 1.1//EN"
 "http://www.w3.org/Graphics/SVG/1.1/DTD/svg11.dtd">
<!-- Generated by graphviz version 14.1.0 (20251206.1807)
 -->
<!-- Title: UIrradianceScheduler::RestoreViewport Pages: 1 -->
<svg width="791pt" height="152pt"
 viewBox="0.00 0.00 791.00 152.00" xmlns="http://www.w3.org/2000/svg" xmlns:xlink="http://www.w3.org/1999/xlink">
<g id="graph0" class="graph" transform="scale(1 1) rotate(0) translate(4 148.44)">
<title>UIrradianceScheduler::RestoreViewport</title>
<!-- Node1 -->
<g id="Node000001" class="node">
<title>Node1</title>
<g id="a_Node000001"><a xlink:title="Restores the viewport if it was previously forced.">
<polygon fill="#999999" stroke="#666666" points="782.75,-123 673,-123 673,-91 782.75,-91 782.75,-123"/>
<text xml:space="preserve" text-anchor="start" x="681" y="-109.5" font-family="Helvetica,sans-Serif" font-size="10.00">UIrradianceScheduler</text>
<text xml:space="preserve" text-anchor="middle" x="727.88" y="-97.5" font-family="Helvetica,sans-Serif" font-size="10.00">::RestoreViewport</text>
</a>
</g>
</g>
<!-- Node2 -->
<g id="Node000002" class="node">
<title>Node2</title>
<g id="a_Node000002"><a xlink:href="class_u_irradiance_scheduler.html#ab400b6f7f8c6768537088d0eca221f90" target="_top" xlink:title="Advances to the next time slot, or finalizes the simulation if finished.">
<polygon fill="white" stroke="#666666" points="637,-123 501,-123 501,-91 637,-91 637,-123"/>
<text xml:space="preserve" text-anchor="start" x="509" y="-109.5" font-family="Helvetica,sans-Serif" font-size="10.00">UIrradianceScheduler</text>
<text xml:space="preserve" text-anchor="middle" x="569" y="-97.5" font-family="Helvetica,sans-Serif" font-size="10.00">::AdvanceTimeSlotOrFinish</text>
</a>
</g>
</g>
<!-- Node1&#45;&gt;Node2 -->
<g id="edge1_Node000001_Node000002" class="edge">
<title>Node1&#45;&gt;Node2</title>
<g id="a_edge1_Node000001_Node000002"><a xlink:title=" ">
<path fill="none" stroke="#63b8ff" d="M661.42,-107C653.48,-107 645.36,-107 637.39,-107"/>
<polygon fill="#63b8ff" stroke="#63b8ff" points="661.37,-110.5 671.37,-107 661.37,-103.5 661.37,-110.5"/>
</a>
</g>
</g>
<!-- Node6 -->
<g id="Node000006" class="node">
<title>Node6</title>
<g id="a_Node000006"><a xlink:href="class_u_irradiance_scheduler.html#a820fe9375420d4934dd45811ba7a419e" target="_top" xlink:title="Starts a full time&#45;series simulation using the given configuration.">
<polygon fill="white" stroke="#666666" points="270.88,-132 161.12,-132 161.12,-100 270.88,-100 270.88,-132"/>
<text xml:space="preserve" text-anchor="start" x="169.12" y="-118.5" font-family="Helvetica,sans-Serif" font-size="10.00">UIrradianceScheduler</text>
<text xml:space="preserve" text-anchor="middle" x="216" y="-106.5" font-family="Helvetica,sans-Serif" font-size="10.00">::StartSimulation</text>
</a>
</g>
</g>
<!-- Node1&#45;&gt;Node6 -->
<g id="edge13_Node000001_Node000006" class="edge">
<title>Node1&#45;&gt;Node6</title>
<g id="a_edge13_Node000001_Node000006"><a xlink:title=" ">
<path fill="none" stroke="#63b8ff" d="M665.91,-126.34C656.32,-128.69 646.46,-130.71 637,-132 493.11,-151.64 454.95,-144.32 310.25,-132 297.48,-130.91 283.84,-129 271.04,-126.87"/>
<polygon fill="#63b8ff" stroke="#63b8ff" points="666.73,-129.74 675.53,-123.84 664.97,-122.97 666.73,-129.74"/>
</a>
</g>
</g>
<!-- Node8 -->
<g id="Node000008" class="node">
<title>Node8</title>
<g id="a_Node000008"><a xlink:href="class_u_irradiance_scheduler.html#add6eff6a074954268d370e6ab2d7a060" target="_top" xlink:title="Launches the next pending one&#45;shot capture request, or finalizes if none.">
<polygon fill="white" stroke="#666666" points="461.25,-35 314,-35 314,-3 461.25,-3 461.25,-35"/>
<text xml:space="preserve" text-anchor="start" x="322" y="-21.5" font-family="Helvetica,sans-Serif" font-size="10.00">UIrradianceScheduler</text>
<text xml:space="preserve" text-anchor="middle" x="387.62" y="-9.5" font-family="Helvetica,sans-Serif" font-size="10.00">::LaunchNextOneShotCapture</text>
</a>
</g>
</g>
<!-- Node1&#45;&gt;Node8 -->
<g id="edge9_Node000001_Node000008" class="edge">
<title>Node1&#45;&gt;Node8</title>
<g id="a_edge9_Node000001_Node000008"><a xlink:title=" ">
<path fill="none" stroke="#63b8ff" d="M661.86,-88.72C653.5,-86.43 645.05,-84.14 637,-82 575.63,-65.68 505.47,-47.97 455.41,-35.5"/>
<polygon fill="#63b8ff" stroke="#63b8ff" points="660.72,-92.04 671.29,-91.33 662.58,-85.29 660.72,-92.04"/>
</a>
</g>
</g>
<!-- Node3 -->
<g id="Node000003" class="node">
<title>Node3</title>
<g id="a_Node000003"><a xlink:href="class_u_irradiance_scheduler.html#a2c93371fc51e45b8af73ce9b4d2c690a" target="_top" xlink:title="Launches the next capture for the current time slot and sensor index.">
<polygon fill="white" stroke="#666666" points="465,-123 310.25,-123 310.25,-91 465,-91 465,-123"/>
<text xml:space="preserve" text-anchor="start" x="318.25" y="-109.5" font-family="Helvetica,sans-Serif" font-size="10.00">UIrradianceScheduler</text>
<text xml:space="preserve" text-anchor="middle" x="387.62" y="-97.5" font-family="Helvetica,sans-Serif" font-size="10.00">::LaunchNextSimulationCapture</text>
</a>
</g>
</g>
<!-- Node2&#45;&gt;Node3 -->
<g id="edge2_Node000002_Node000003" class="edge">
<title>Node2&#45;&gt;Node3</title>
<g id="a_edge2_Node000002_Node000003"><a xlink:title=" ">
<path fill="none" stroke="#63b8ff" d="M489.2,-100.29C481.28,-100.23 473.25,-100.24 465.35,-100.31"/>
<polygon fill="#63b8ff" stroke="#63b8ff" points="489.14,-103.79 499.18,-100.42 489.23,-96.79 489.14,-103.79"/>
</a>
</g>
</g>
<!-- Node4 -->
<g id="Node000004" class="node">
<title>Node4</title>
<g id="a_Node000004"><a xlink:href="class_u_irradiance_scheduler.html#ac79a70849af28bdcf62ac8214ccaeee5" target="_top" xlink:title="Handles a completed capture and advances the flow.">
<polygon fill="white" stroke="#666666" points="274.25,-82 157.75,-82 157.75,-50 274.25,-50 274.25,-82"/>
<text xml:space="preserve" text-anchor="start" x="165.75" y="-68.5" font-family="Helvetica,sans-Serif" font-size="10.00">UIrradianceScheduler</text>
<text xml:space="preserve" text-anchor="middle" x="216" y="-56.5" font-family="Helvetica,sans-Serif" font-size="10.00">::OnCaptureCompleted</text>
</a>
</g>
</g>
<!-- Node2&#45;&gt;Node4 -->
<g id="edge8_Node000002_Node000004" class="edge">
<title>Node2&#45;&gt;Node4</title>
<g id="a_edge8_Node000002_Node000004"><a xlink:title=" ">
<path fill="none" stroke="#63b8ff" d="M496.92,-88.05C486.28,-85.71 475.4,-83.58 465,-82 400.28,-72.13 325.14,-68.34 274.68,-66.89"/>
<polygon fill="#63b8ff" stroke="#63b8ff" points="495.89,-91.4 506.42,-90.22 497.45,-84.58 495.89,-91.4"/>
</a>
</g>
</g>
<!-- Node3&#45;&gt;Node2 -->
<g id="edge3_Node000003_Node000002" class="edge">
<title>Node3&#45;&gt;Node2</title>
<g id="a_edge3_Node000003_Node000002"><a xlink:title=" ">
<path fill="none" stroke="#63b8ff" d="M476.71,-113.75C484.78,-113.76 492.86,-113.7 500.7,-113.56"/>
<polygon fill="#63b8ff" stroke="#63b8ff" points="476.88,-110.25 466.86,-113.7 476.84,-117.25 476.88,-110.25"/>
</a>
</g>
</g>
<!-- Node3&#45;&gt;Node4 -->
<g id="edge4_Node000003_Node000004" class="edge">
<title>Node3&#45;&gt;Node4</title>
<g id="a_edge4_Node000003_Node000004"><a xlink:title=" ">
<path fill="none" stroke="#63b8ff" d="M307.59,-87.9C296.49,-85.21 285.26,-82.5 274.67,-79.94"/>
<polygon fill="#63b8ff" stroke="#63b8ff" points="306.6,-91.26 317.14,-90.2 308.24,-84.45 306.6,-91.26"/>
</a>
</g>
</g>
<!-- Node3&#45;&gt;Node6 -->
<g id="edge6_Node000003_Node000006" class="edge">
<title>Node3&#45;&gt;Node6</title>
<g id="a_edge6_Node000003_Node000006"><a xlink:title=" ">
<path fill="none" stroke="#63b8ff" d="M298.47,-111.68C289.22,-112.17 280.02,-112.66 271.31,-113.12"/>
<polygon fill="#63b8ff" stroke="#63b8ff" points="298.44,-115.18 308.24,-111.16 298.07,-108.19 298.44,-115.18"/>
</a>
</g>
</g>
<!-- Node5 -->
<g id="Node000005" class="node">
<title>Node5</title>
<g id="a_Node000005"><a xlink:href="class_u_irradiance_scheduler.html#a46ab4ac00573e109d595d80669a8e156" target="_top" xlink:title=" ">
<polygon fill="white" stroke="#666666" points="115.75,-82 6,-82 6,-50 115.75,-50 115.75,-82"/>
<text xml:space="preserve" text-anchor="start" x="14" y="-68.5" font-family="Helvetica,sans-Serif" font-size="10.00">UIrradianceScheduler</text>
<text xml:space="preserve" text-anchor="middle" x="60.88" y="-56.5" font-family="Helvetica,sans-Serif" font-size="10.00">::Tick</text>
</a>
</g>
</g>
<!-- Node4&#45;&gt;Node5 -->
<g id="edge5_Node000004_Node000005" class="edge">
<title>Node4&#45;&gt;Node5</title>
<g id="a_edge5_Node000004_Node000005"><a xlink:title=" ">
<path fill="none" stroke="#63b8ff" d="M146.25,-66C136.15,-66 125.86,-66 116.1,-66"/>
<polygon fill="#63b8ff" stroke="#63b8ff" points="146.03,-69.5 156.03,-66 146.03,-62.5 146.03,-69.5"/>
</a>
</g>
</g>
<!-- Node7 -->
<g id="Node000007" class="node">
<title>Node7</title>
<g id="a_Node000007"><a xlink:href="class_u_irradiance_scheduler.html#acad46ea7c860e2a972fb7debd56651e9" target="_top" xlink:title=" ">
<polygon fill="white" stroke="#666666" points="121.75,-32 0,-32 0,0 121.75,0 121.75,-32"/>
<text xml:space="preserve" text-anchor="start" x="8" y="-18.5" font-family="Helvetica,sans-Serif" font-size="10.00">UIrradianceScheduler</text>
<text xml:space="preserve" text-anchor="middle" x="60.88" y="-6.5" font-family="Helvetica,sans-Serif" font-size="10.00">::~UIrradianceScheduler</text>
</a>
</g>
</g>
<!-- Node6&#45;&gt;Node7 -->
<g id="edge7_Node000006_Node000007" class="edge">
<title>Node6&#45;&gt;Node7</title>
<g id="a_edge7_Node000006_Node000007"><a xlink:title=" ">
<path fill="none" stroke="#63b8ff" d="M161.2,-93.62C160.02,-92.77 158.87,-91.9 157.75,-91 136.44,-73.8 143.19,-58.03 121.75,-41 117.69,-37.78 113.16,-34.91 108.45,-32.36"/>
<polygon fill="#63b8ff" stroke="#63b8ff" points="159.15,-96.47 169.48,-98.82 162.87,-90.54 159.15,-96.47"/>
</a>
</g>
</g>
<!-- Node8&#45;&gt;Node4 -->
<g id="edge12_Node000008_Node000004" class="edge">
<title>Node8&#45;&gt;Node4</title>
<g id="a_edge12_Node000008_Node000004"><a xlink:title=" ">
<path fill="none" stroke="#63b8ff" d="M316.3,-38.49C302.41,-42.33 287.99,-46.33 274.58,-50.05"/>
<polygon fill="#63b8ff" stroke="#63b8ff" points="317.14,-41.89 325.84,-35.84 315.27,-35.14 317.14,-41.89"/>
</a>
</g>
</g>
<!-- Node9 -->
<g id="Node000009" class="node">
<title>Node9</title>
<g id="a_Node000009"><a xlink:href="class_u_irradiance_scheduler.html#a4395030c4e2b089982300a7d5cb43417" target="_top" xlink:title="Captures irradiance once at Sim.StartTime for all active sensors.">
<polygon fill="white" stroke="#666666" points="270.88,-32 161.12,-32 161.12,0 270.88,0 270.88,-32"/>
<text xml:space="preserve" text-anchor="start" x="169.12" y="-18.5" font-family="Helvetica,sans-Serif" font-size="10.00">UIrradianceScheduler</text>
<text xml:space="preserve" text-anchor="middle" x="216" y="-6.5" font-family="Helvetica,sans-Serif" font-size="10.00">::CaptureOnce</text>
</a>
</g>
</g>
<!-- Node8&#45;&gt;Node9 -->
<g id="edge10_Node000008_Node000009" class="edge">
<title>Node8&#45;&gt;Node9</title>
<g id="a_edge10_Node000008_Node000009"><a xlink:title=" ">
<path fill="none" stroke="#63b8ff" d="M302.26,-17.51C291.68,-17.32 281.1,-17.13 271.16,-16.96"/>
<polygon fill="#63b8ff" stroke="#63b8ff" points="302.13,-21.01 312.19,-17.68 302.25,-14.01 302.13,-21.01"/>
</a>
</g>
</g>
<!-- Node9&#45;&gt;Node7 -->
<g id="edge11_Node000009_Node000007" class="edge">
<title>Node9&#45;&gt;Node7</title>
<g id="a_edge11_Node000009_Node000007"><a xlink:title=" ">
<path fill="none" stroke="#63b8ff" d="M149.62,-16C140.51,-16 131.17,-16 122.16,-16"/>
<polygon fill="#63b8ff" stroke="#63b8ff" points="149.5,-19.5 159.5,-16 149.5,-12.5 149.5,-19.5"/>
</a>
</g>
</g>
</g>
</svg>
