<?xml version="1.0" encoding="UTF-8" standalone="no"?>
<!DOCTYPE svg PUBLIC "-//W3C//DTD SVG 1.1//EN"
 "http://www.w3.org/Graphics/SVG/1.1/DTD/svg11.dtd">
<!-- Generated by graphviz version 14.1.0 (20251206.1807)
 -->
<!-- Title: FPlanStorage Pages: 1 -->
<svg width="149pt" height="124pt"
 viewBox="0.00 0.00 149.00 124.00" xmlns="http://www.w3.org/2000/svg" xmlns:xlink="http://www.w3.org/1999/xlink">
<g id="graph0" class="graph" transform="scale(1 1) rotate(0) translate(4 120)">
<title>FPlanStorage</title>
<!-- Node1 -->
<g id="Node000001" class="node">
<title>Node1</title>
<g id="a_Node000001"><a xlink:title=" ">
<polygon fill="#999999" stroke="none" points="141,-116 0,-116 0,0 141,0 141,-116"/>
<text xml:space="preserve" text-anchor="start" x="40.88" y="-102.5" font-family="Helvetica,sans-Serif" font-size="10.00">FPlanStorage</text>
<text xml:space="preserve" text-anchor="start" x="69" y="-86.5" font-family="Helvetica,sans-Serif" font-size="10.00"> </text>
<text xml:space="preserve" text-anchor="start" x="4" y="-70.5" font-family="Helvetica,sans-Serif" font-size="10.00">+</text>
<text xml:space="preserve" text-anchor="start" x="14" y="-70.5" font-family="Helvetica,sans-Serif" font-size="10.00">static bool SavePlan</text>
<text xml:space="preserve" text-anchor="start" x="14" y="-58.5" font-family="Helvetica,sans-Serif" font-size="10.00">(const FString &amp;FilePath,</text>
<text xml:space="preserve" text-anchor="start" x="14" y="-46.5" font-family="Helvetica,sans-Serif" font-size="10.00"> const FSimConfig &amp;Config)</text>
<text xml:space="preserve" text-anchor="start" x="4" y="-30.5" font-family="Helvetica,sans-Serif" font-size="10.00">+</text>
<text xml:space="preserve" text-anchor="start" x="14" y="-30.5" font-family="Helvetica,sans-Serif" font-size="10.00">static bool LoadPlan</text>
<text xml:space="preserve" text-anchor="start" x="14" y="-18.5" font-family="Helvetica,sans-Serif" font-size="10.00">(const FString &amp;FilePath,</text>
<text xml:space="preserve" text-anchor="start" x="14" y="-6.5" font-family="Helvetica,sans-Serif" font-size="10.00"> FSimConfig &amp;OutConfig)</text>
<polygon fill="#666666" stroke="#666666" points="0,-98 0,-98 141,-98 141,-98 0,-98"/>
<polygon fill="#666666" stroke="#666666" points="0,-82 0,-82 141,-82 141,-82 0,-82"/>
<polygon fill="none" stroke="#666666" points="0,0 0,-116 141,-116 141,0 0,0"/>
</a>
</g>
</g>
</g>
</svg>
