<?xml version="1.0" encoding="UTF-8" standalone="no"?>
<!DOCTYPE svg PUBLIC "-//W3C//DTD SVG 1.1//EN"
 "http://www.w3.org/Graphics/SVG/1.1/DTD/svg11.dtd">
<!-- Generated by graphviz version 14.1.0 (20251206.1807)
 -->
<!-- Title: USunSkyController::ApplyStaticConfig Pages: 1 -->
<svg width="398pt" height="266pt"
 viewBox="0.00 0.00 398.00 266.00" xmlns="http://www.w3.org/2000/svg" xmlns:xlink="http://www.w3.org/1999/xlink">
<g id="graph0" class="graph" transform="scale(1 1) rotate(0) translate(4 262)">
<title>USunSkyController::ApplyStaticConfig</title>
<!-- Node1 -->
<g id="Node000001" class="node">
<title>Node1</title>
<g id="a_Node000001"><a xlink:title="Applies static SunSky configuration (location, timezone, north offset, DST flag).">
<polygon fill="#999999" stroke="#666666" points="106,-154 0,-154 0,-122 106,-122 106,-154"/>
<text xml:space="preserve" text-anchor="start" x="8" y="-140.5" font-family="Helvetica,sans-Serif" font-size="10.00">USunSkyController::</text>
<text xml:space="preserve" text-anchor="middle" x="53" y="-128.5" font-family="Helvetica,sans-Serif" font-size="10.00">ApplyStaticConfig</text>
</a>
</g>
</g>
<!-- Node2 -->
<g id="Node000002" class="node">
<title>Node2</title>
<g id="a_Node000002"><a xlink:href="class_u_sun_sky_controller.html#a0822748f97e63e40b3da612e27083596" target="_top" xlink:title="Returns the cached SunSky actor or performs a search if missing.">
<polygon fill="white" stroke="#666666" points="248,-258 142,-258 142,-226 248,-226 248,-258"/>
<text xml:space="preserve" text-anchor="start" x="150" y="-244.5" font-family="Helvetica,sans-Serif" font-size="10.00">USunSkyController::</text>
<text xml:space="preserve" text-anchor="middle" x="195" y="-232.5" font-family="Helvetica,sans-Serif" font-size="10.00">EnsureSunSky</text>
</a>
</g>
</g>
<!-- Node1&#45;&gt;Node2 -->
<g id="edge1_Node000001_Node000002" class="edge">
<title>Node1&#45;&gt;Node2</title>
<g id="a_edge1_Node000001_Node000002"><a xlink:title=" ">
<path fill="none" stroke="#63b8ff" d="M69.39,-154.33C86.12,-171.45 114.19,-198.39 142,-217 143.57,-218.05 145.2,-219.09 146.86,-220.1"/>
<polygon fill="#63b8ff" stroke="#63b8ff" points="144.89,-223.01 155.32,-224.89 148.34,-216.92 144.89,-223.01"/>
</a>
</g>
</g>
<!-- Node4 -->
<g id="Node000004" class="node">
<title>Node4</title>
<g id="a_Node000004"><a xlink:href="_sun_sky_controller_8cpp.html#ac51b5d284dd400277a48f5b1a7b34019" target="_top" xlink:title=" ">
<polygon fill="white" stroke="#666666" points="230.75,-208 159.25,-208 159.25,-188 230.75,-188 230.75,-208"/>
<text xml:space="preserve" text-anchor="middle" x="195" y="-194.5" font-family="Helvetica,sans-Serif" font-size="10.00">GetBoolProp</text>
</a>
</g>
</g>
<!-- Node1&#45;&gt;Node4 -->
<g id="edge3_Node000001_Node000004" class="edge">
<title>Node1&#45;&gt;Node4</title>
<g id="a_edge3_Node000001_Node000004"><a xlink:title=" ">
<path fill="none" stroke="#63b8ff" d="M87.55,-154.45C103.84,-162.23 123.78,-171.45 142,-179 145.77,-180.56 149.73,-182.13 153.7,-183.66"/>
<polygon fill="#63b8ff" stroke="#63b8ff" points="152.12,-186.81 162.71,-187.05 154.59,-180.26 152.12,-186.81"/>
</a>
</g>
</g>
<!-- Node5 -->
<g id="Node000005" class="node">
<title>Node5</title>
<g id="a_Node000005"><a xlink:href="_sun_sky_controller_8cpp.html#a8a231a9ed575591b6059e116b0e6973f" target="_top" xlink:title=" ">
<polygon fill="white" stroke="#666666" points="231.88,-170 158.12,-170 158.12,-150 231.88,-150 231.88,-170"/>
<text xml:space="preserve" text-anchor="middle" x="195" y="-156.5" font-family="Helvetica,sans-Serif" font-size="10.00">GetFloatProp</text>
</a>
</g>
</g>
<!-- Node1&#45;&gt;Node5 -->
<g id="edge4_Node000001_Node000005" class="edge">
<title>Node1&#45;&gt;Node5</title>
<g id="a_edge4_Node000001_Node000005"><a xlink:title=" ">
<path fill="none" stroke="#63b8ff" d="M106.13,-146.19C119.48,-148.29 133.76,-150.53 146.84,-152.59"/>
<polygon fill="#63b8ff" stroke="#63b8ff" points="146.06,-156.01 156.48,-154.1 147.14,-149.09 146.06,-156.01"/>
</a>
</g>
</g>
<!-- Node6 -->
<g id="Node000006" class="node">
<title>Node6</title>
<g id="a_Node000006"><a xlink:href="class_u_sun_sky_controller.html#a6bccb6e3bf7f89848d7a74db33c2595c" target="_top" xlink:title=" ">
<polygon fill="white" stroke="#666666" points="248,-132 142,-132 142,-100 248,-100 248,-132"/>
<text xml:space="preserve" text-anchor="start" x="150" y="-118.5" font-family="Helvetica,sans-Serif" font-size="10.00">USunSkyController::</text>
<text xml:space="preserve" text-anchor="middle" x="195" y="-106.5" font-family="Helvetica,sans-Serif" font-size="10.00">SetBoolProp</text>
</a>
</g>
</g>
<!-- Node1&#45;&gt;Node6 -->
<g id="edge5_Node000001_Node000006" class="edge">
<title>Node1&#45;&gt;Node6</title>
<g id="a_edge5_Node000001_Node000006"><a xlink:title=" ">
<path fill="none" stroke="#63b8ff" d="M106.13,-129.81C114.15,-128.55 122.5,-127.24 130.73,-125.94"/>
<polygon fill="#63b8ff" stroke="#63b8ff" points="131,-129.44 140.33,-124.43 129.91,-122.53 131,-129.44"/>
</a>
</g>
</g>
<!-- Node7 -->
<g id="Node000007" class="node">
<title>Node7</title>
<g id="a_Node000007"><a xlink:href="class_u_sun_sky_controller.html#abe72ea57cbb6fbfc2a6a3990631800fa" target="_top" xlink:title=" ">
<polygon fill="white" stroke="#666666" points="248,-82 142,-82 142,-50 248,-50 248,-82"/>
<text xml:space="preserve" text-anchor="start" x="150" y="-68.5" font-family="Helvetica,sans-Serif" font-size="10.00">USunSkyController::</text>
<text xml:space="preserve" text-anchor="middle" x="195" y="-56.5" font-family="Helvetica,sans-Serif" font-size="10.00">SetDoubleProp</text>
</a>
</g>
</g>
<!-- Node1&#45;&gt;Node7 -->
<g id="edge6_Node000001_Node000007" class="edge">
<title>Node1&#45;&gt;Node7</title>
<g id="a_edge6_Node000001_Node000007"><a xlink:title=" ">
<path fill="none" stroke="#63b8ff" d="M83.97,-121.59C100.91,-112.41 122.54,-100.87 142,-91 144.25,-89.86 146.56,-88.7 148.9,-87.54"/>
<polygon fill="#63b8ff" stroke="#63b8ff" points="150.42,-90.69 157.86,-83.14 147.34,-84.41 150.42,-90.69"/>
</a>
</g>
</g>
<!-- Node8 -->
<g id="Node000008" class="node">
<title>Node8</title>
<g id="a_Node000008"><a xlink:href="class_u_sun_sky_controller.html#aec6250d1b06d7ef7680381ff48eee79a" target="_top" xlink:title="Forces SunSky to rebuild via RerunConstructionScripts.">
<polygon fill="white" stroke="#666666" points="248,-32 142,-32 142,0 248,0 248,-32"/>
<text xml:space="preserve" text-anchor="start" x="150" y="-18.5" font-family="Helvetica,sans-Serif" font-size="10.00">USunSkyController::</text>
<text xml:space="preserve" text-anchor="middle" x="195" y="-6.5" font-family="Helvetica,sans-Serif" font-size="10.00">UpdateSun</text>
</a>
</g>
</g>
<!-- Node1&#45;&gt;Node8 -->
<g id="edge7_Node000001_Node000008" class="edge">
<title>Node1&#45;&gt;Node8</title>
<g id="a_edge7_Node000001_Node000008"><a xlink:title=" ">
<path fill="none" stroke="#63b8ff" d="M65.54,-121.8C81.03,-100.97 110.29,-64.66 142,-41 143.3,-40.03 144.65,-39.08 146.03,-38.15"/>
<polygon fill="#63b8ff" stroke="#63b8ff" points="147.49,-41.36 154.22,-33.18 143.86,-35.37 147.49,-41.36"/>
</a>
</g>
</g>
<!-- Node3 -->
<g id="Node000003" class="node">
<title>Node3</title>
<g id="a_Node000003"><a xlink:href="class_u_sun_sky_controller.html#ab00403c7bab9f7bae3d57baa941146b6" target="_top" xlink:title="Locates a SunSky actor in the world (by tag or name).">
<polygon fill="white" stroke="#666666" points="390,-258 284,-258 284,-226 390,-226 390,-258"/>
<text xml:space="preserve" text-anchor="start" x="292" y="-244.5" font-family="Helvetica,sans-Serif" font-size="10.00">USunSkyController::</text>
<text xml:space="preserve" text-anchor="middle" x="337" y="-232.5" font-family="Helvetica,sans-Serif" font-size="10.00">FindSunSkyActor</text>
</a>
</g>
</g>
<!-- Node2&#45;&gt;Node3 -->
<g id="edge2_Node000002_Node000003" class="edge">
<title>Node2&#45;&gt;Node3</title>
<g id="a_edge2_Node000002_Node000003"><a xlink:title=" ">
<path fill="none" stroke="#63b8ff" d="M248.13,-242C256.06,-242 264.31,-242 272.45,-242"/>
<polygon fill="#63b8ff" stroke="#63b8ff" points="272.31,-245.5 282.31,-242 272.31,-238.5 272.31,-245.5"/>
</a>
</g>
</g>
</g>
</svg>
