<?xml version="1.0" encoding="UTF-8" standalone="no"?>
<!DOCTYPE svg PUBLIC "-//W3C//DTD SVG 1.1//EN"
 "http://www.w3.org/Graphics/SVG/1.1/DTD/svg11.dtd">
<!-- Generated by graphviz version 14.1.0 (20251206.1807)
 -->
<!-- Title: USunSkyController::SetDoubleProp Pages: 1 -->
<svg width="398pt" height="90pt"
 viewBox="0.00 0.00 398.00 90.00" xmlns="http://www.w3.org/2000/svg" xmlns:xlink="http://www.w3.org/1999/xlink">
<g id="graph0" class="graph" transform="scale(1 1) rotate(0) translate(4 86)">
<title>USunSkyController::SetDoubleProp</title>
<!-- Node1 -->
<g id="Node000001" class="node">
<title>Node1</title>
<g id="a_Node000001"><a xlink:title=" ">
<polygon fill="#999999" stroke="#666666" points="390,-57 284,-57 284,-25 390,-25 390,-57"/>
<text xml:space="preserve" text-anchor="start" x="292" y="-43.5" font-family="Helvetica,sans-Serif" font-size="10.00">USunSkyController::</text>
<text xml:space="preserve" text-anchor="middle" x="337" y="-31.5" font-family="Helvetica,sans-Serif" font-size="10.00">SetDoubleProp</text>
</a>
</g>
</g>
<!-- Node2 -->
<g id="Node000002" class="node">
<title>Node2</title>
<g id="a_Node000002"><a xlink:href="class_u_sun_sky_controller.html#acdb2373863253da9f5d1cd1f79c24ffd" target="_top" xlink:title="Applies static SunSky configuration (location, timezone, north offset, DST flag).">
<polygon fill="white" stroke="#666666" points="248,-82 142,-82 142,-50 248,-50 248,-82"/>
<text xml:space="preserve" text-anchor="start" x="150" y="-68.5" font-family="Helvetica,sans-Serif" font-size="10.00">USunSkyController::</text>
<text xml:space="preserve" text-anchor="middle" x="195" y="-56.5" font-family="Helvetica,sans-Serif" font-size="10.00">ApplyStaticConfig</text>
</a>
</g>
</g>
<!-- Node1&#45;&gt;Node2 -->
<g id="edge1_Node000001_Node000002" class="edge">
<title>Node1&#45;&gt;Node2</title>
<g id="a_edge1_Node000001_Node000002"><a xlink:title=" ">
<path fill="none" stroke="#63b8ff" d="M272.77,-52.29C264.55,-53.76 256.19,-55.25 248.17,-56.68"/>
<polygon fill="#63b8ff" stroke="#63b8ff" points="273.15,-55.78 282.38,-50.58 271.92,-48.89 273.15,-55.78"/>
</a>
</g>
</g>
<!-- Node3 -->
<g id="Node000003" class="node">
<title>Node3</title>
<g id="a_Node000003"><a xlink:href="class_u_sun_sky_controller.html#a3407324f01e3d69835fbf3bd88228269" target="_top" xlink:title="Pushes date and solar&#45;time fields into the SunSky actor from UTC.">
<polygon fill="white" stroke="#666666" points="248,-32 142,-32 142,0 248,0 248,-32"/>
<text xml:space="preserve" text-anchor="start" x="150" y="-18.5" font-family="Helvetica,sans-Serif" font-size="10.00">USunSkyController::</text>
<text xml:space="preserve" text-anchor="middle" x="195" y="-6.5" font-family="Helvetica,sans-Serif" font-size="10.00">PushDateTime</text>
</a>
</g>
</g>
<!-- Node1&#45;&gt;Node3 -->
<g id="edge2_Node000001_Node000003" class="edge">
<title>Node1&#45;&gt;Node3</title>
<g id="a_edge2_Node000001_Node000003"><a xlink:title=" ">
<path fill="none" stroke="#63b8ff" d="M272.77,-29.71C264.55,-28.24 256.19,-26.75 248.17,-25.32"/>
<polygon fill="#63b8ff" stroke="#63b8ff" points="271.92,-33.11 282.38,-31.42 273.15,-26.22 271.92,-33.11"/>
</a>
</g>
</g>
<!-- Node4 -->
<g id="Node000004" class="node">
<title>Node4</title>
<g id="a_Node000004"><a xlink:href="class_u_sun_sky_controller.html#a7b869177273a8632f9fe83cdce10145d" target="_top" xlink:title="Sets the SunSky date and time from a UTC timestamp(applies configured timezone).">
<polygon fill="white" stroke="#666666" points="106,-32 0,-32 0,0 106,0 106,-32"/>
<text xml:space="preserve" text-anchor="start" x="8" y="-18.5" font-family="Helvetica,sans-Serif" font-size="10.00">USunSkyController::</text>
<text xml:space="preserve" text-anchor="middle" x="53" y="-6.5" font-family="Helvetica,sans-Serif" font-size="10.00">SetUTC</text>
</a>
</g>
</g>
<!-- Node3&#45;&gt;Node4 -->
<g id="edge3_Node000003_Node000004" class="edge">
<title>Node3&#45;&gt;Node4</title>
<g id="a_edge3_Node000003_Node000004"><a xlink:title=" ">
<path fill="none" stroke="#63b8ff" d="M130.49,-16C122.36,-16 114.1,-16 106.17,-16"/>
<polygon fill="#63b8ff" stroke="#63b8ff" points="130.36,-19.5 140.36,-16 130.36,-12.5 130.36,-19.5"/>
</a>
</g>
</g>
</g>
</svg>
