<?xml version="1.0" encoding="UTF-8" standalone="no"?>
<!DOCTYPE svg PUBLIC "-//W3C//DTD SVG 1.1//EN"
 "http://www.w3.org/Graphics/SVG/1.1/DTD/svg11.dtd">
<!-- Generated by graphviz version 14.1.0 (20251206.1807)
 -->
<!-- Title: UIrradianceScheduler::LaunchCapture Pages: 1 -->
<svg width="784pt" height="192pt"
 viewBox="0.00 0.00 784.00 192.00" xmlns="http://www.w3.org/2000/svg" xmlns:xlink="http://www.w3.org/1999/xlink">
<g id="graph0" class="graph" transform="scale(1 1) rotate(0) translate(4 188.49)">
<title>UIrradianceScheduler::LaunchCapture</title>
<!-- Node1 -->
<g id="Node000001" class="node">
<title>Node1</title>
<g id="a_Node000001"><a xlink:title="Starts a six&#45;face capture for the given request.">
<polygon fill="#999999" stroke="#666666" points="776,-123 666.25,-123 666.25,-91 776,-91 776,-123"/>
<text xml:space="preserve" text-anchor="start" x="674.25" y="-109.5" font-family="Helvetica,sans-Serif" font-size="10.00">UIrradianceScheduler</text>
<text xml:space="preserve" text-anchor="middle" x="721.12" y="-97.5" font-family="Helvetica,sans-Serif" font-size="10.00">::LaunchCapture</text>
</a>
</g>
</g>
<!-- Node2 -->
<g id="Node000002" class="node">
<title>Node2</title>
<g id="a_Node000002"><a xlink:href="class_u_irradiance_scheduler.html#add6eff6a074954268d370e6ab2d7a060" target="_top" xlink:title="Launches the next pending one&#45;shot capture request, or finalizes if none.">
<polygon fill="white" stroke="#666666" points="626.5,-76 479.25,-76 479.25,-44 626.5,-44 626.5,-76"/>
<text xml:space="preserve" text-anchor="start" x="487.25" y="-62.5" font-family="Helvetica,sans-Serif" font-size="10.00">UIrradianceScheduler</text>
<text xml:space="preserve" text-anchor="middle" x="552.88" y="-50.5" font-family="Helvetica,sans-Serif" font-size="10.00">::LaunchNextOneShotCapture</text>
</a>
</g>
</g>
<!-- Node1&#45;&gt;Node2 -->
<g id="edge1_Node000001_Node000002" class="edge">
<title>Node1&#45;&gt;Node2</title>
<g id="a_edge1_Node000001_Node000002"><a xlink:title=" ">
<path fill="none" stroke="#63b8ff" d="M655.43,-88.71C641.17,-84.68 626.15,-80.43 612.17,-76.48"/>
<polygon fill="#63b8ff" stroke="#63b8ff" points="654.12,-91.98 664.69,-91.33 656.02,-85.24 654.12,-91.98"/>
</a>
</g>
</g>
<!-- Node7 -->
<g id="Node000007" class="node">
<title>Node7</title>
<g id="a_Node000007"><a xlink:href="class_u_irradiance_scheduler.html#a2c93371fc51e45b8af73ce9b4d2c690a" target="_top" xlink:title="Launches the next capture for the current time slot and sensor index.">
<polygon fill="white" stroke="#666666" points="630.25,-170 475.5,-170 475.5,-138 630.25,-138 630.25,-170"/>
<text xml:space="preserve" text-anchor="start" x="483.5" y="-156.5" font-family="Helvetica,sans-Serif" font-size="10.00">UIrradianceScheduler</text>
<text xml:space="preserve" text-anchor="middle" x="552.88" y="-144.5" font-family="Helvetica,sans-Serif" font-size="10.00">::LaunchNextSimulationCapture</text>
</a>
</g>
</g>
<!-- Node1&#45;&gt;Node7 -->
<g id="edge6_Node000001_Node000007" class="edge">
<title>Node1&#45;&gt;Node7</title>
<g id="a_edge6_Node000001_Node000007"><a xlink:title=" ">
<path fill="none" stroke="#63b8ff" d="M655.43,-125.29C641.17,-129.32 626.15,-133.57 612.17,-137.52"/>
<polygon fill="#63b8ff" stroke="#63b8ff" points="656.02,-128.76 664.69,-122.67 654.12,-122.02 656.02,-128.76"/>
</a>
</g>
</g>
<!-- Node3 -->
<g id="Node000003" class="node">
<title>Node3</title>
<g id="a_Node000003"><a xlink:href="class_u_irradiance_scheduler.html#a4395030c4e2b089982300a7d5cb43417" target="_top" xlink:title="Captures irradiance once at Sim.StartTime for all active sensors.">
<polygon fill="white" stroke="#666666" points="426.38,-32 316.62,-32 316.62,0 426.38,0 426.38,-32"/>
<text xml:space="preserve" text-anchor="start" x="324.62" y="-18.5" font-family="Helvetica,sans-Serif" font-size="10.00">UIrradianceScheduler</text>
<text xml:space="preserve" text-anchor="middle" x="371.5" y="-6.5" font-family="Helvetica,sans-Serif" font-size="10.00">::CaptureOnce</text>
</a>
</g>
</g>
<!-- Node2&#45;&gt;Node3 -->
<g id="edge2_Node000002_Node000003" class="edge">
<title>Node2&#45;&gt;Node3</title>
<g id="a_edge2_Node000002_Node000003"><a xlink:title=" ">
<path fill="none" stroke="#63b8ff" d="M473.89,-40.87C457.95,-36.96 441.5,-32.93 426.61,-29.27"/>
<polygon fill="#63b8ff" stroke="#63b8ff" points="472.81,-44.21 483.36,-43.19 474.48,-37.41 472.81,-44.21"/>
</a>
</g>
</g>
<!-- Node5 -->
<g id="Node000005" class="node">
<title>Node5</title>
<g id="a_Node000005"><a xlink:href="class_u_irradiance_scheduler.html#ac79a70849af28bdcf62ac8214ccaeee5" target="_top" xlink:title="Handles a completed capture and advances the flow.">
<polygon fill="white" stroke="#666666" points="264.88,-170 148.38,-170 148.38,-138 264.88,-138 264.88,-170"/>
<text xml:space="preserve" text-anchor="start" x="156.38" y="-156.5" font-family="Helvetica,sans-Serif" font-size="10.00">UIrradianceScheduler</text>
<text xml:space="preserve" text-anchor="middle" x="206.62" y="-144.5" font-family="Helvetica,sans-Serif" font-size="10.00">::OnCaptureCompleted</text>
</a>
</g>
</g>
<!-- Node2&#45;&gt;Node5 -->
<g id="edge4_Node000002_Node000005" class="edge">
<title>Node2&#45;&gt;Node5</title>
<g id="a_edge4_Node000002_Node000005"><a xlink:title=" ">
<path fill="none" stroke="#63b8ff" d="M467.49,-54.49C418.13,-54.16 355.49,-58.83 303.5,-79 270.6,-91.77 239.82,-119.79 222.4,-137.74"/>
<polygon fill="#63b8ff" stroke="#63b8ff" points="467.21,-57.99 477.26,-54.63 467.31,-50.99 467.21,-57.99"/>
</a>
</g>
</g>
<!-- Node4 -->
<g id="Node000004" class="node">
<title>Node4</title>
<g id="a_Node000004"><a xlink:href="class_u_irradiance_scheduler.html#acad46ea7c860e2a972fb7debd56651e9" target="_top" xlink:title=" ">
<polygon fill="white" stroke="#666666" points="267.5,-76 145.75,-76 145.75,-44 267.5,-44 267.5,-76"/>
<text xml:space="preserve" text-anchor="start" x="153.75" y="-62.5" font-family="Helvetica,sans-Serif" font-size="10.00">UIrradianceScheduler</text>
<text xml:space="preserve" text-anchor="middle" x="206.62" y="-50.5" font-family="Helvetica,sans-Serif" font-size="10.00">::~UIrradianceScheduler</text>
</a>
</g>
</g>
<!-- Node3&#45;&gt;Node4 -->
<g id="edge3_Node000003_Node000004" class="edge">
<title>Node3&#45;&gt;Node4</title>
<g id="a_edge3_Node000003_Node000004"><a xlink:title=" ">
<path fill="none" stroke="#63b8ff" d="M305.5,-33.56C293.06,-36.92 280.08,-40.43 267.8,-43.74"/>
<polygon fill="#63b8ff" stroke="#63b8ff" points="306.06,-37.03 314.8,-31.05 304.24,-30.28 306.06,-37.03"/>
</a>
</g>
</g>
<!-- Node6 -->
<g id="Node000006" class="node">
<title>Node6</title>
<g id="a_Node000006"><a xlink:href="class_u_irradiance_scheduler.html#a46ab4ac00573e109d595d80669a8e156" target="_top" xlink:title=" ">
<polygon fill="white" stroke="#666666" points="109.75,-170 0,-170 0,-138 109.75,-138 109.75,-170"/>
<text xml:space="preserve" text-anchor="start" x="8" y="-156.5" font-family="Helvetica,sans-Serif" font-size="10.00">UIrradianceScheduler</text>
<text xml:space="preserve" text-anchor="middle" x="54.88" y="-144.5" font-family="Helvetica,sans-Serif" font-size="10.00">::Tick</text>
</a>
</g>
</g>
<!-- Node5&#45;&gt;Node6 -->
<g id="edge5_Node000005_Node000006" class="edge">
<title>Node5&#45;&gt;Node6</title>
<g id="a_edge5_Node000005_Node000006"><a xlink:title=" ">
<path fill="none" stroke="#63b8ff" d="M136.85,-154C127.84,-154 118.71,-154 109.99,-154"/>
<polygon fill="#63b8ff" stroke="#63b8ff" points="136.64,-157.5 146.64,-154 136.64,-150.5 136.64,-157.5"/>
</a>
</g>
</g>
<!-- Node7&#45;&gt;Node5 -->
<g id="edge10_Node000007_Node000005" class="edge">
<title>Node7&#45;&gt;Node5</title>
<g id="a_edge10_Node000007_Node000005"><a xlink:title=" ">
<path fill="none" stroke="#63b8ff" d="M478.16,-172.81C465.35,-175.38 452.1,-177.62 439.5,-179 379.42,-185.6 363.45,-186.69 303.5,-179 289.51,-177.21 274.64,-174 260.9,-170.46"/>
<polygon fill="#63b8ff" stroke="#63b8ff" points="478.73,-176.26 487.8,-170.78 477.29,-169.41 478.73,-176.26"/>
</a>
</g>
</g>
<!-- Node8 -->
<g id="Node000008" class="node">
<title>Node8</title>
<g id="a_Node000008"><a xlink:href="class_u_irradiance_scheduler.html#ab400b6f7f8c6768537088d0eca221f90" target="_top" xlink:title="Advances to the next time slot, or finalizes the simulation if finished.">
<polygon fill="white" stroke="#666666" points="439.5,-170 303.5,-170 303.5,-138 439.5,-138 439.5,-170"/>
<text xml:space="preserve" text-anchor="start" x="311.5" y="-156.5" font-family="Helvetica,sans-Serif" font-size="10.00">UIrradianceScheduler</text>
<text xml:space="preserve" text-anchor="middle" x="371.5" y="-144.5" font-family="Helvetica,sans-Serif" font-size="10.00">::AdvanceTimeSlotOrFinish</text>
</a>
</g>
</g>
<!-- Node7&#45;&gt;Node8 -->
<g id="edge7_Node000007_Node000008" class="edge">
<title>Node7&#45;&gt;Node8</title>
<g id="a_edge7_Node000007_Node000008"><a xlink:title=" ">
<path fill="none" stroke="#63b8ff" d="M463.72,-147.25C455.7,-147.24 447.66,-147.3 439.86,-147.44"/>
<polygon fill="#63b8ff" stroke="#63b8ff" points="463.49,-150.75 473.51,-147.3 463.53,-143.75 463.49,-150.75"/>
</a>
</g>
</g>
<!-- Node9 -->
<g id="Node000009" class="node">
<title>Node9</title>
<g id="a_Node000009"><a xlink:href="class_u_irradiance_scheduler.html#a820fe9375420d4934dd45811ba7a419e" target="_top" xlink:title="Starts a full time&#45;series simulation using the given configuration.">
<polygon fill="white" stroke="#666666" points="426.38,-120 316.62,-120 316.62,-88 426.38,-88 426.38,-120"/>
<text xml:space="preserve" text-anchor="start" x="324.62" y="-106.5" font-family="Helvetica,sans-Serif" font-size="10.00">UIrradianceScheduler</text>
<text xml:space="preserve" text-anchor="middle" x="371.5" y="-94.5" font-family="Helvetica,sans-Serif" font-size="10.00">::StartSimulation</text>
</a>
</g>
</g>
<!-- Node7&#45;&gt;Node9 -->
<g id="edge11_Node000007_Node000009" class="edge">
<title>Node7&#45;&gt;Node9</title>
<g id="a_edge11_Node000007_Node000009"><a xlink:title=" ">
<path fill="none" stroke="#63b8ff" d="M482.18,-134.57C463.8,-129.45 444.24,-124 426.81,-119.14"/>
<polygon fill="#63b8ff" stroke="#63b8ff" points="481.11,-137.91 491.68,-137.22 482.99,-131.17 481.11,-137.91"/>
</a>
</g>
</g>
<!-- Node8&#45;&gt;Node5 -->
<g id="edge9_Node000008_Node000005" class="edge">
<title>Node8&#45;&gt;Node5</title>
<g id="a_edge9_Node000008_Node000005"><a xlink:title=" ">
<path fill="none" stroke="#63b8ff" d="M291.98,-154C282.99,-154 273.95,-154 265.31,-154"/>
<polygon fill="#63b8ff" stroke="#63b8ff" points="291.8,-157.5 301.8,-154 291.8,-150.5 291.8,-157.5"/>
</a>
</g>
</g>
<!-- Node8&#45;&gt;Node7 -->
<g id="edge8_Node000008_Node000007" class="edge">
<title>Node8&#45;&gt;Node7</title>
<g id="a_edge8_Node000008_Node000007"><a xlink:title=" ">
<path fill="none" stroke="#63b8ff" d="M451.29,-160.71C459.17,-160.77 467.17,-160.76 475.02,-160.69"/>
<polygon fill="#63b8ff" stroke="#63b8ff" points="451.42,-157.21 441.37,-160.58 451.33,-164.21 451.42,-157.21"/>
</a>
</g>
</g>
<!-- Node9&#45;&gt;Node4 -->
<g id="edge12_Node000009_Node000004" class="edge">
<title>Node9&#45;&gt;Node4</title>
<g id="a_edge12_Node000009_Node000004"><a xlink:title=" ">
<path fill="none" stroke="#63b8ff" d="M305.5,-86.44C293.06,-83.08 280.08,-79.57 267.8,-76.26"/>
<polygon fill="#63b8ff" stroke="#63b8ff" points="304.24,-89.72 314.8,-88.95 306.06,-82.97 304.24,-89.72"/>
</a>
</g>
</g>
</g>
</svg>
