<?xml version="1.0" encoding="UTF-8" standalone="no"?>
<!DOCTYPE svg PUBLIC "-//W3C//DTD SVG 1.1//EN"
 "http://www.w3.org/Graphics/SVG/1.1/DTD/svg11.dtd">
<!-- Generated by graphviz version 14.1.0 (20251206.1807)
 -->
<!-- Title: UPyranoEditorSubsystem::OnPostPIEStarted Pages: 1 -->
<svg width="795pt" height="271pt"
 viewBox="0.00 0.00 795.00 271.00" xmlns="http://www.w3.org/2000/svg" xmlns:xlink="http://www.w3.org/1999/xlink">
<g id="graph0" class="graph" transform="scale(1 1) rotate(0) translate(4 267)">
<title>UPyranoEditorSubsystem::OnPostPIEStarted</title>
<!-- Node1 -->
<g id="Node000001" class="node">
<title>Node1</title>
<g id="a_Node000001"><a xlink:title="Internal callback executed once PIE has fully started.">
<polygon fill="#999999" stroke="#666666" points="129.25,-132 0,-132 0,-100 129.25,-100 129.25,-132"/>
<text xml:space="preserve" text-anchor="start" x="8" y="-118.5" font-family="Helvetica,sans-Serif" font-size="10.00">UPyranoEditorSubsystem</text>
<text xml:space="preserve" text-anchor="middle" x="64.62" y="-106.5" font-family="Helvetica,sans-Serif" font-size="10.00">::OnPostPIEStarted</text>
</a>
</g>
</g>
<!-- Node2 -->
<g id="Node000002" class="node">
<title>Node2</title>
<g id="a_Node000002"><a xlink:href="class_u_pyrano_editor_subsystem.html#ab354ffee4ea9cc5e40566874111fd461" target="_top" xlink:title="Applies Render/Irradiance CVars before starting PIE.">
<polygon fill="white" stroke="#666666" points="300.5,-232 171.25,-232 171.25,-200 300.5,-200 300.5,-232"/>
<text xml:space="preserve" text-anchor="start" x="179.25" y="-218.5" font-family="Helvetica,sans-Serif" font-size="10.00">UPyranoEditorSubsystem</text>
<text xml:space="preserve" text-anchor="middle" x="235.88" y="-206.5" font-family="Helvetica,sans-Serif" font-size="10.00">::ApplyCVarConfig</text>
</a>
</g>
</g>
<!-- Node1&#45;&gt;Node2 -->
<g id="edge1_Node000001_Node000002" class="edge">
<title>Node1&#45;&gt;Node2</title>
<g id="a_edge1_Node000001_Node000002"><a xlink:title=" ">
<path fill="none" stroke="#63b8ff" d="M83.93,-132.48C103.08,-149.05 134.58,-174.44 165.25,-191 167.77,-192.36 170.38,-193.68 173.05,-194.94"/>
<polygon fill="#63b8ff" stroke="#63b8ff" points="171.58,-198.12 182.14,-198.96 174.41,-191.71 171.58,-198.12"/>
</a>
</g>
</g>
<!-- Node6 -->
<g id="Node000006" class="node">
<title>Node6</title>
<g id="a_Node000006"><a xlink:href="class_u_pyrano_editor_subsystem.html#ab0de335beccfcc58219f322f7d03a67c" target="_top" xlink:title="Ensures the PIE world is standalone or client (not server).">
<polygon fill="white" stroke="#666666" points="306.5,-182 165.25,-182 165.25,-150 306.5,-150 306.5,-182"/>
<text xml:space="preserve" text-anchor="start" x="173.25" y="-168.5" font-family="Helvetica,sans-Serif" font-size="10.00">UPyranoEditorSubsystem</text>
<text xml:space="preserve" text-anchor="middle" x="235.88" y="-156.5" font-family="Helvetica,sans-Serif" font-size="10.00">::EnsureLocalStandalonePIE</text>
</a>
</g>
</g>
<!-- Node1&#45;&gt;Node6 -->
<g id="edge6_Node000001_Node000006" class="edge">
<title>Node1&#45;&gt;Node6</title>
<g id="a_edge6_Node000001_Node000006"><a xlink:title=" ">
<path fill="none" stroke="#63b8ff" d="M121.04,-132.37C136.16,-136.84 152.7,-141.72 168.36,-146.35"/>
<polygon fill="#63b8ff" stroke="#63b8ff" points="167.01,-149.6 177.59,-149.08 168.99,-142.89 167.01,-149.6"/>
</a>
</g>
</g>
<!-- Node7 -->
<g id="Node000007" class="node">
<title>Node7</title>
<g id="a_Node000007"><a xlink:href="class_u_pyrano_editor_subsystem.html#ac3e1f1b78bd830e95a7b52fc3bff7ed9" target="_top" xlink:title="Ensures that the PIE world exists and is ready; retries if not.">
<polygon fill="white" stroke="#666666" points="300.5,-132 171.25,-132 171.25,-100 300.5,-100 300.5,-132"/>
<text xml:space="preserve" text-anchor="start" x="179.25" y="-118.5" font-family="Helvetica,sans-Serif" font-size="10.00">UPyranoEditorSubsystem</text>
<text xml:space="preserve" text-anchor="middle" x="235.88" y="-106.5" font-family="Helvetica,sans-Serif" font-size="10.00">::EnsurePIEWorld</text>
</a>
</g>
</g>
<!-- Node1&#45;&gt;Node7 -->
<g id="edge7_Node000001_Node000007" class="edge">
<title>Node1&#45;&gt;Node7</title>
<g id="a_edge7_Node000001_Node000007"><a xlink:title=" ">
<path fill="none" stroke="#63b8ff" d="M129.61,-109.43C139.41,-109.26 149.59,-109.21 159.6,-109.29"/>
<polygon fill="#63b8ff" stroke="#63b8ff" points="159.24,-112.78 169.28,-109.41 159.33,-105.78 159.24,-112.78"/>
</a>
</g>
</g>
<!-- Node10 -->
<g id="Node000010" class="node">
<title>Node10</title>
<g id="a_Node000010"><a xlink:href="class_u_pyrano_editor_subsystem.html#a5bd1813278b5277f9b9677faf4bc9d85" target="_top" xlink:title="Verifies that the game viewport is initialized and visible.">
<polygon fill="white" stroke="#666666" points="300.5,-82 171.25,-82 171.25,-50 300.5,-50 300.5,-82"/>
<text xml:space="preserve" text-anchor="start" x="179.25" y="-68.5" font-family="Helvetica,sans-Serif" font-size="10.00">UPyranoEditorSubsystem</text>
<text xml:space="preserve" text-anchor="middle" x="235.88" y="-56.5" font-family="Helvetica,sans-Serif" font-size="10.00">::EnsureViewportReady</text>
</a>
</g>
</g>
<!-- Node1&#45;&gt;Node10 -->
<g id="edge11_Node000001_Node000010" class="edge">
<title>Node1&#45;&gt;Node10</title>
<g id="a_edge11_Node000001_Node000010"><a xlink:title=" ">
<path fill="none" stroke="#63b8ff" d="M101.93,-99.62C118.9,-93.74 139.76,-87.22 159.88,-81.44"/>
<polygon fill="#63b8ff" stroke="#63b8ff" points="160.83,-84.81 169.5,-78.73 158.93,-78.08 160.83,-84.81"/>
</a>
</g>
</g>
<!-- Node11 -->
<g id="Node000011" class="node">
<title>Node11</title>
<g id="a_Node000011"><a xlink:href="class_u_pyrano_editor_subsystem.html#aac7636240544517fce7c46ac0df245a3" target="_top" xlink:title="Delays simulation start and monitors when it finishes.">
<polygon fill="white" stroke="#666666" points="302.38,-32 169.38,-32 169.38,0 302.38,0 302.38,-32"/>
<text xml:space="preserve" text-anchor="start" x="177.38" y="-18.5" font-family="Helvetica,sans-Serif" font-size="10.00">UPyranoEditorSubsystem</text>
<text xml:space="preserve" text-anchor="middle" x="235.88" y="-6.5" font-family="Helvetica,sans-Serif" font-size="10.00">::ScheduleStartAndMonitor</text>
</a>
</g>
</g>
<!-- Node1&#45;&gt;Node11 -->
<g id="edge13_Node000001_Node000011" class="edge">
<title>Node1&#45;&gt;Node11</title>
<g id="a_edge13_Node000001_Node000011"><a xlink:title=" ">
<path fill="none" stroke="#63b8ff" d="M83.93,-99.52C103.08,-82.95 134.58,-57.56 165.25,-41 167.77,-39.64 170.38,-38.32 173.05,-37.06"/>
<polygon fill="#63b8ff" stroke="#63b8ff" points="174.41,-40.29 182.14,-33.04 171.58,-33.88 174.41,-40.29"/>
</a>
</g>
</g>
<!-- Node3 -->
<g id="Node000003" class="node">
<title>Node3</title>
<g id="a_Node000003"><a xlink:href="namespace_f_irradiance_render_config.html#a2880f5d9df2d1f4e81ecb89ca2f4e0e6" target="_top" xlink:title=" ">
<polygon fill="white" stroke="#666666" points="469.5,-232 344.75,-232 344.75,-200 469.5,-200 469.5,-232"/>
<text xml:space="preserve" text-anchor="start" x="352.75" y="-218.5" font-family="Helvetica,sans-Serif" font-size="10.00">FIrradianceRenderConfig</text>
<text xml:space="preserve" text-anchor="middle" x="407.12" y="-206.5" font-family="Helvetica,sans-Serif" font-size="10.00">::ApplyIrradianceConfig</text>
</a>
</g>
</g>
<!-- Node2&#45;&gt;Node3 -->
<g id="edge2_Node000002_Node000003" class="edge">
<title>Node2&#45;&gt;Node3</title>
<g id="a_edge2_Node000002_Node000003"><a xlink:title=" ">
<path fill="none" stroke="#63b8ff" d="M300.86,-216C311.31,-216 322.21,-216 332.86,-216"/>
<polygon fill="#63b8ff" stroke="#63b8ff" points="332.77,-219.5 342.77,-216 332.77,-212.5 332.77,-219.5"/>
</a>
</g>
</g>
<!-- Node4 -->
<g id="Node000004" class="node">
<title>Node4</title>
<g id="a_Node000004"><a xlink:href="namespaceanonymous__namespace_02_irradiance_configuration_8cpp_03.html#aad684e2485baaa38779ecb26af25cc94" target="_top" xlink:title=" ">
<polygon fill="white" stroke="#666666" points="629.5,-263 507.75,-263 507.75,-219 629.5,-219 629.5,-263"/>
<text xml:space="preserve" text-anchor="start" x="515.75" y="-249.5" font-family="Helvetica,sans-Serif" font-size="10.00">anonymous_namespace</text>
<text xml:space="preserve" text-anchor="start" x="515.75" y="-237.5" font-family="Helvetica,sans-Serif" font-size="10.00">{IrradianceConfiguration</text>
<text xml:space="preserve" text-anchor="middle" x="568.62" y="-225.5" font-family="Helvetica,sans-Serif" font-size="10.00">::cpp}::ApplyGroup</text>
</a>
</g>
</g>
<!-- Node3&#45;&gt;Node4 -->
<g id="edge3_Node000003_Node000004" class="edge">
<title>Node3&#45;&gt;Node4</title>
<g id="a_edge3_Node000003_Node000004"><a xlink:title=" ">
<path fill="none" stroke="#63b8ff" d="M469.79,-225.67C478.48,-227.03 487.48,-228.44 496.33,-229.83"/>
<polygon fill="#63b8ff" stroke="#63b8ff" points="495.52,-233.24 505.94,-231.33 496.6,-226.32 495.52,-233.24"/>
</a>
</g>
</g>
<!-- Node5 -->
<g id="Node000005" class="node">
<title>Node5</title>
<g id="a_Node000005"><a xlink:href="namespaceanonymous__namespace_02_irradiance_configuration_8cpp_03.html#aca5fa9f954f01057940a973680cd4d9a" target="_top" xlink:title=" ">
<polygon fill="white" stroke="#666666" points="787.25,-238 665.5,-238 665.5,-194 787.25,-194 787.25,-238"/>
<text xml:space="preserve" text-anchor="start" x="673.5" y="-224.5" font-family="Helvetica,sans-Serif" font-size="10.00">anonymous_namespace</text>
<text xml:space="preserve" text-anchor="start" x="673.5" y="-212.5" font-family="Helvetica,sans-Serif" font-size="10.00">{IrradianceConfiguration</text>
<text xml:space="preserve" text-anchor="middle" x="726.38" y="-200.5" font-family="Helvetica,sans-Serif" font-size="10.00">::cpp}::SaveAndSetInt</text>
</a>
</g>
</g>
<!-- Node3&#45;&gt;Node5 -->
<g id="edge5_Node000003_Node000005" class="edge">
<title>Node3&#45;&gt;Node5</title>
<g id="a_edge5_Node000003_Node000005"><a xlink:title=" ">
<path fill="none" stroke="#63b8ff" d="M469.75,-211.71C482.31,-211 495.45,-210.37 507.75,-210 561.84,-208.37 575.42,-208.31 629.5,-210 637.32,-210.24 645.49,-210.6 653.62,-211.02"/>
<polygon fill="#63b8ff" stroke="#63b8ff" points="653.36,-214.51 663.54,-211.57 653.75,-207.52 653.36,-214.51"/>
</a>
</g>
</g>
<!-- Node4&#45;&gt;Node5 -->
<g id="edge4_Node000004_Node000005" class="edge">
<title>Node4&#45;&gt;Node5</title>
<g id="a_edge4_Node000004_Node000005"><a xlink:title=" ">
<path fill="none" stroke="#63b8ff" d="M629.84,-231.33C637.7,-230.07 645.8,-228.77 653.82,-227.49"/>
<polygon fill="#63b8ff" stroke="#63b8ff" points="654.25,-230.96 663.57,-225.92 653.14,-224.05 654.25,-230.96"/>
</a>
</g>
</g>
<!-- Node7&#45;&gt;Node1 -->
<g id="edge10_Node000007_Node000001" class="edge">
<title>Node7&#45;&gt;Node1</title>
<g id="a_edge10_Node000007_Node000001"><a xlink:title=" ">
<path fill="none" stroke="#63b8ff" d="M170.8,-122.57C161,-122.74 150.81,-122.79 140.81,-122.71"/>
<polygon fill="#63b8ff" stroke="#63b8ff" points="141.17,-119.22 131.12,-122.59 141.08,-126.22 141.17,-119.22"/>
</a>
</g>
</g>
<!-- Node8 -->
<g id="Node000008" class="node">
<title>Node8</title>
<g id="a_Node000008"><a xlink:href="class_u_pyrano_editor_subsystem.html#a2adad0d3fd5864acbe4205b167cf4937" target="_top" xlink:title="Returns the PIE world if running, otherwise the editor world.">
<polygon fill="white" stroke="#666666" points="471.75,-132 342.5,-132 342.5,-100 471.75,-100 471.75,-132"/>
<text xml:space="preserve" text-anchor="start" x="350.5" y="-118.5" font-family="Helvetica,sans-Serif" font-size="10.00">UPyranoEditorSubsystem</text>
<text xml:space="preserve" text-anchor="middle" x="407.12" y="-106.5" font-family="Helvetica,sans-Serif" font-size="10.00">::GetActiveWorld</text>
</a>
</g>
</g>
<!-- Node7&#45;&gt;Node8 -->
<g id="edge8_Node000007_Node000008" class="edge">
<title>Node7&#45;&gt;Node8</title>
<g id="a_edge8_Node000007_Node000008"><a xlink:title=" ">
<path fill="none" stroke="#63b8ff" d="M300.86,-116C310.66,-116 320.84,-116 330.85,-116"/>
<polygon fill="#63b8ff" stroke="#63b8ff" points="330.53,-119.5 340.53,-116 330.53,-112.5 330.53,-119.5"/>
</a>
</g>
</g>
<!-- Node9 -->
<g id="Node000009" class="node">
<title>Node9</title>
<g id="a_Node000009"><a xlink:href="namespace_pyrano_editor_utils.html#ad1d7ad11514ffa4c9c0506a310f89295" target="_top" xlink:title=" ">
<polygon fill="white" stroke="#666666" points="456.38,-57 357.88,-57 357.88,-25 456.38,-25 456.38,-57"/>
<text xml:space="preserve" text-anchor="start" x="365.88" y="-43.5" font-family="Helvetica,sans-Serif" font-size="10.00">PyranoEditorUtils::</text>
<text xml:space="preserve" text-anchor="middle" x="407.12" y="-31.5" font-family="Helvetica,sans-Serif" font-size="10.00">GetPIEWorld</text>
</a>
</g>
</g>
<!-- Node7&#45;&gt;Node9 -->
<g id="edge9_Node000007_Node000009" class="edge">
<title>Node7&#45;&gt;Node9</title>
<g id="a_edge9_Node000007_Node000009"><a xlink:title=" ">
<path fill="none" stroke="#63b8ff" d="M285.11,-99.53C292.34,-96.82 299.65,-93.93 306.5,-91 326.42,-82.46 347.99,-71.82 365.94,-62.55"/>
<polygon fill="#63b8ff" stroke="#63b8ff" points="367.46,-65.71 374.71,-57.98 364.22,-59.5 367.46,-65.71"/>
</a>
</g>
</g>
<!-- Node10&#45;&gt;Node1 -->
<g id="edge12_Node000010_Node000001" class="edge">
<title>Node10&#45;&gt;Node1</title>
<g id="a_edge12_Node000010_Node000001"><a xlink:title=" ">
<path fill="none" stroke="#63b8ff" d="M198.29,-82.48C181.38,-88.33 160.64,-94.8 140.63,-100.55"/>
<polygon fill="#63b8ff" stroke="#63b8ff" points="139.74,-97.17 131.07,-103.25 141.64,-103.9 139.74,-97.17"/>
</a>
</g>
</g>
<!-- Node11&#45;&gt;Node9 -->
<g id="edge14_Node000011_Node000009" class="edge">
<title>Node11&#45;&gt;Node9</title>
<g id="a_edge14_Node000011_Node000009"><a xlink:title=" ">
<path fill="none" stroke="#63b8ff" d="M302.8,-25.74C317.15,-27.86 332.26,-30.09 346.36,-32.17"/>
<polygon fill="#63b8ff" stroke="#63b8ff" points="345.52,-35.59 355.92,-33.58 346.54,-28.66 345.52,-35.59"/>
</a>
</g>
</g>
</g>
</svg>
