<?xml version="1.0" encoding="UTF-8" standalone="no"?>
<!DOCTYPE svg PUBLIC "-//W3C//DTD SVG 1.1//EN"
 "http://www.w3.org/Graphics/SVG/1.1/DTD/svg11.dtd">
<!-- Generated by graphviz version 14.1.0 (20251206.1807)
 -->
<!-- Title: USunSkyController::FindSunSkyActor Pages: 1 -->
<svg width="568pt" height="154pt"
 viewBox="0.00 0.00 568.00 154.00" xmlns="http://www.w3.org/2000/svg" xmlns:xlink="http://www.w3.org/1999/xlink">
<g id="graph0" class="graph" transform="scale(1 1) rotate(0) translate(4 150.07)">
<title>USunSkyController::FindSunSkyActor</title>
<!-- Node1 -->
<g id="Node000001" class="node">
<title>Node1</title>
<g id="a_Node000001"><a xlink:title="Locates a SunSky actor in the world (by tag or name).">
<polygon fill="#999999" stroke="#666666" points="559.75,-129 453.75,-129 453.75,-97 559.75,-97 559.75,-129"/>
<text xml:space="preserve" text-anchor="start" x="461.75" y="-115.5" font-family="Helvetica,sans-Serif" font-size="10.00">USunSkyController::</text>
<text xml:space="preserve" text-anchor="middle" x="506.75" y="-103.5" font-family="Helvetica,sans-Serif" font-size="10.00">FindSunSkyActor</text>
</a>
</g>
</g>
<!-- Node2 -->
<g id="Node000002" class="node">
<title>Node2</title>
<g id="a_Node000002"><a xlink:href="class_u_irradiance_subsystem.html#a04b6e98a2662b94a1117321c3d6c70f9" target="_top" xlink:title="Consume the latest available irradiance value.">
<polygon fill="white" stroke="#666666" points="133.75,-129 0,-129 0,-97 133.75,-97 133.75,-129"/>
<text xml:space="preserve" text-anchor="start" x="8" y="-115.5" font-family="Helvetica,sans-Serif" font-size="10.00">UIrradianceSubsystem</text>
<text xml:space="preserve" text-anchor="middle" x="66.88" y="-103.5" font-family="Helvetica,sans-Serif" font-size="10.00">::ConsumeLatestIrradiance</text>
</a>
</g>
</g>
<!-- Node1&#45;&gt;Node2 -->
<g id="edge1_Node000001_Node000002" class="edge">
<title>Node1&#45;&gt;Node2</title>
<g id="a_edge1_Node000001_Node000002"><a xlink:title=" ">
<path fill="none" stroke="#63b8ff" d="M442.58,-126.41C374.89,-138.89 264.4,-153.77 169.75,-141 152.39,-138.66 133.81,-134.17 117.32,-129.46"/>
<polygon fill="#63b8ff" stroke="#63b8ff" points="442.81,-129.93 451.99,-124.64 441.52,-123.05 442.81,-129.93"/>
</a>
</g>
</g>
<!-- Node3 -->
<g id="Node000003" class="node">
<title>Node3</title>
<g id="a_Node000003"><a xlink:href="class_u_sun_sky_controller.html#a0822748f97e63e40b3da612e27083596" target="_top" xlink:title="Returns the cached SunSky actor or performs a search if missing.">
<polygon fill="white" stroke="#666666" points="417.75,-107 311.75,-107 311.75,-75 417.75,-75 417.75,-107"/>
<text xml:space="preserve" text-anchor="start" x="319.75" y="-93.5" font-family="Helvetica,sans-Serif" font-size="10.00">USunSkyController::</text>
<text xml:space="preserve" text-anchor="middle" x="364.75" y="-81.5" font-family="Helvetica,sans-Serif" font-size="10.00">EnsureSunSky</text>
</a>
</g>
</g>
<!-- Node1&#45;&gt;Node3 -->
<g id="edge2_Node000001_Node000003" class="edge">
<title>Node1&#45;&gt;Node3</title>
<g id="a_edge2_Node000001_Node000003"><a xlink:title=" ">
<path fill="none" stroke="#63b8ff" d="M442.52,-103.06C434.3,-101.77 425.94,-100.46 417.92,-99.2"/>
<polygon fill="#63b8ff" stroke="#63b8ff" points="441.7,-106.48 452.12,-104.57 442.79,-99.56 441.7,-106.48"/>
</a>
</g>
</g>
<!-- Node4 -->
<g id="Node000004" class="node">
<title>Node4</title>
<g id="a_Node000004"><a xlink:href="class_u_sun_sky_controller.html#acdb2373863253da9f5d1cd1f79c24ffd" target="_top" xlink:title="Applies static SunSky configuration (location, timezone, north offset, DST flag).">
<polygon fill="white" stroke="#666666" points="275.75,-132 169.75,-132 169.75,-100 275.75,-100 275.75,-132"/>
<text xml:space="preserve" text-anchor="start" x="177.75" y="-118.5" font-family="Helvetica,sans-Serif" font-size="10.00">USunSkyController::</text>
<text xml:space="preserve" text-anchor="middle" x="222.75" y="-106.5" font-family="Helvetica,sans-Serif" font-size="10.00">ApplyStaticConfig</text>
</a>
</g>
</g>
<!-- Node3&#45;&gt;Node4 -->
<g id="edge3_Node000003_Node000004" class="edge">
<title>Node3&#45;&gt;Node4</title>
<g id="a_edge3_Node000003_Node000004"><a xlink:title=" ">
<path fill="none" stroke="#63b8ff" d="M300.52,-102.29C292.3,-103.76 283.94,-105.25 275.92,-106.68"/>
<polygon fill="#63b8ff" stroke="#63b8ff" points="300.9,-105.78 310.13,-100.58 299.67,-98.89 300.9,-105.78"/>
</a>
</g>
</g>
<!-- Node5 -->
<g id="Node000005" class="node">
<title>Node5</title>
<g id="a_Node000005"><a xlink:href="class_u_sun_sky_controller.html#a9180ae57b0690fa8db4a96d766b7275a" target="_top" xlink:title="Returns solar azimuth/altitude using solar&#45;standard convention: azimuth = clockwise from North (0°=N,...">
<polygon fill="white" stroke="#666666" points="275.75,-82 169.75,-82 169.75,-50 275.75,-50 275.75,-82"/>
<text xml:space="preserve" text-anchor="start" x="177.75" y="-68.5" font-family="Helvetica,sans-Serif" font-size="10.00">USunSkyController::</text>
<text xml:space="preserve" text-anchor="middle" x="222.75" y="-56.5" font-family="Helvetica,sans-Serif" font-size="10.00">GetSolarAngles</text>
</a>
</g>
</g>
<!-- Node3&#45;&gt;Node5 -->
<g id="edge4_Node000003_Node000005" class="edge">
<title>Node3&#45;&gt;Node5</title>
<g id="a_edge4_Node000003_Node000005"><a xlink:title=" ">
<path fill="none" stroke="#63b8ff" d="M300.52,-79.71C292.3,-78.24 283.94,-76.75 275.92,-75.32"/>
<polygon fill="#63b8ff" stroke="#63b8ff" points="299.67,-83.11 310.13,-81.42 300.9,-76.22 299.67,-83.11"/>
</a>
</g>
</g>
<!-- Node6 -->
<g id="Node000006" class="node">
<title>Node6</title>
<g id="a_Node000006"><a xlink:href="class_u_sun_sky_controller.html#a7b869177273a8632f9fe83cdce10145d" target="_top" xlink:title="Sets the SunSky date and time from a UTC timestamp(applies configured timezone).">
<polygon fill="white" stroke="#666666" points="275.75,-32 169.75,-32 169.75,0 275.75,0 275.75,-32"/>
<text xml:space="preserve" text-anchor="start" x="177.75" y="-18.5" font-family="Helvetica,sans-Serif" font-size="10.00">USunSkyController::</text>
<text xml:space="preserve" text-anchor="middle" x="222.75" y="-6.5" font-family="Helvetica,sans-Serif" font-size="10.00">SetUTC</text>
</a>
</g>
</g>
<!-- Node3&#45;&gt;Node6 -->
<g id="edge6_Node000003_Node000006" class="edge">
<title>Node3&#45;&gt;Node6</title>
<g id="a_edge6_Node000003_Node000006"><a xlink:title=" ">
<path fill="none" stroke="#63b8ff" d="M326.15,-68.88C310.67,-59.98 292.48,-49.76 275.75,-41 270.34,-38.17 264.55,-35.26 258.88,-32.48"/>
<polygon fill="#63b8ff" stroke="#63b8ff" points="324.16,-71.78 334.57,-73.76 327.67,-65.72 324.16,-71.78"/>
</a>
</g>
</g>
<!-- Node5&#45;&gt;Node2 -->
<g id="edge5_Node000005_Node000002" class="edge">
<title>Node5&#45;&gt;Node2</title>
<g id="a_edge5_Node000005_Node000002"><a xlink:title=" ">
<path fill="none" stroke="#63b8ff" d="M158.97,-85.18C146.62,-88.95 133.78,-92.87 121.75,-96.54"/>
<polygon fill="#63b8ff" stroke="#63b8ff" points="159.67,-88.62 168.21,-82.35 157.62,-81.93 159.67,-88.62"/>
</a>
</g>
</g>
</g>
</svg>
