<?xml version="1.0" encoding="UTF-8" standalone="no"?>
<!DOCTYPE svg PUBLIC "-//W3C//DTD SVG 1.1//EN"
 "http://www.w3.org/Graphics/SVG/1.1/DTD/svg11.dtd">
<!-- Generated by graphviz version 14.1.0 (20251206.1807)
 -->
<!-- Title: UPyranoBlueprintLibrary Pages: 1 -->
<svg width="166pt" height="200pt"
 viewBox="0.00 0.00 166.00 200.00" xmlns="http://www.w3.org/2000/svg" xmlns:xlink="http://www.w3.org/1999/xlink">
<g id="graph0" class="graph" transform="scale(1 1) rotate(0) translate(4 196)">
<title>UPyranoBlueprintLibrary</title>
<!-- Node1 -->
<g id="Node000001" class="node">
<title>Node1</title>
<g id="a_Node000001"><a xlink:title=" ">
<polygon fill="#999999" stroke="none" points="157.5,-104 0,-104 0,0 157.5,0 157.5,-104"/>
<text xml:space="preserve" text-anchor="start" x="25.88" y="-90.5" font-family="Helvetica,sans-Serif" font-size="10.00">UPyranoBlueprintLibrary</text>
<text xml:space="preserve" text-anchor="start" x="77.25" y="-74.5" font-family="Helvetica,sans-Serif" font-size="10.00"> </text>
<text xml:space="preserve" text-anchor="start" x="4" y="-58.5" font-family="Helvetica,sans-Serif" font-size="10.00">+</text>
<text xml:space="preserve" text-anchor="start" x="14" y="-58.5" font-family="Helvetica,sans-Serif" font-size="10.00">static bool SavePlanWith</text>
<text xml:space="preserve" text-anchor="start" x="14" y="-46.5" font-family="Helvetica,sans-Serif" font-size="10.00">Dialog(const FSimConfig</text>
<text xml:space="preserve" text-anchor="start" x="14" y="-34.5" font-family="Helvetica,sans-Serif" font-size="10.00"> &amp;Config)</text>
<text xml:space="preserve" text-anchor="start" x="4" y="-18.5" font-family="Helvetica,sans-Serif" font-size="10.00">+</text>
<text xml:space="preserve" text-anchor="start" x="14" y="-18.5" font-family="Helvetica,sans-Serif" font-size="10.00">static bool LoadPlanWith</text>
<text xml:space="preserve" text-anchor="start" x="14" y="-6.5" font-family="Helvetica,sans-Serif" font-size="10.00">Dialog(FSimConfig &amp;OutConfig)</text>
<polygon fill="#666666" stroke="#666666" points="0,-86 0,-86 157.5,-86 157.5,-86 0,-86"/>
<polygon fill="#666666" stroke="#666666" points="0,-70 0,-70 157.5,-70 157.5,-70 0,-70"/>
<polygon fill="none" stroke="#666666" points="0,0 0,-104 157.5,-104 157.5,0 0,0"/>
</a>
</g>
</g>
<!-- Node2 -->
<g id="Node000002" class="node">
<title>Node2</title>
<g id="a_Node000002"><a xlink:title=" ">
<polygon fill="white" stroke="none" points="139,-192 18.5,-192 18.5,-140 139,-140 139,-192"/>
<text xml:space="preserve" text-anchor="start" x="22.5" y="-178.5" font-family="Helvetica,sans-Serif" font-size="10.00">UBlueprintFunctionLibrary</text>
<text xml:space="preserve" text-anchor="start" x="77.25" y="-162.5" font-family="Helvetica,sans-Serif" font-size="10.00"> </text>
<text xml:space="preserve" text-anchor="start" x="77.25" y="-146.5" font-family="Helvetica,sans-Serif" font-size="10.00"> </text>
<polygon fill="#666666" stroke="#666666" points="18.5,-174 18.5,-174 139,-174 139,-174 18.5,-174"/>
<polygon fill="#666666" stroke="#666666" points="18.5,-158 18.5,-158 139,-158 139,-158 18.5,-158"/>
<polygon fill="none" stroke="#666666" points="18.5,-140 18.5,-192 139,-192 139,-140 18.5,-140"/>
</a>
</g>
</g>
<!-- Node2&#45;&gt;Node1 -->
<g id="edge1_Node000001_Node000002" class="edge">
<title>Node2&#45;&gt;Node1</title>
<g id="a_edge1_Node000001_Node000002"><a xlink:title=" ">
<path fill="none" stroke="#63b8ff" d="M78.75,-128.71C78.75,-120.8 78.75,-112.3 78.75,-103.95"/>
<polygon fill="none" stroke="#63b8ff" points="75.25,-128.63 78.75,-138.63 82.25,-128.63 75.25,-128.63"/>
</a>
</g>
</g>
</g>
</svg>
