<?xml version="1.0" encoding="UTF-8" standalone="no"?>
<!DOCTYPE svg PUBLIC "-//W3C//DTD SVG 1.1//EN"
 "http://www.w3.org/Graphics/SVG/1.1/DTD/svg11.dtd">
<!-- Generated by graphviz version 14.1.0 (20251206.1807)
 -->
<!-- Title: UPyranoEditorSubsystem::EnsureViewportReady Pages: 1 -->
<svg width="810pt" height="115pt"
 viewBox="0.00 0.00 810.00 115.00" xmlns="http://www.w3.org/2000/svg" xmlns:xlink="http://www.w3.org/1999/xlink">
<g id="graph0" class="graph" transform="scale(1 1) rotate(0) translate(4 111)">
<title>UPyranoEditorSubsystem::EnsureViewportReady</title>
<!-- Node1 -->
<g id="Node000001" class="node">
<title>Node1</title>
<g id="a_Node000001"><a xlink:title="Verifies that the game viewport is initialized and visible.">
<polygon fill="#999999" stroke="#666666" points="802.25,-107 673,-107 673,-75 802.25,-75 802.25,-107"/>
<text xml:space="preserve" text-anchor="start" x="681" y="-93.5" font-family="Helvetica,sans-Serif" font-size="10.00">UPyranoEditorSubsystem</text>
<text xml:space="preserve" text-anchor="middle" x="737.62" y="-81.5" font-family="Helvetica,sans-Serif" font-size="10.00">::EnsureViewportReady</text>
</a>
</g>
</g>
<!-- Node2 -->
<g id="Node000002" class="node">
<title>Node2</title>
<g id="a_Node000002"><a xlink:href="class_u_pyrano_editor_subsystem.html#ae6108e9fda1f9471c24a39988d5122d6" target="_top" xlink:title="Internal callback executed once PIE has fully started.">
<polygon fill="white" stroke="#666666" points="637,-107 507.75,-107 507.75,-75 637,-75 637,-107"/>
<text xml:space="preserve" text-anchor="start" x="515.75" y="-93.5" font-family="Helvetica,sans-Serif" font-size="10.00">UPyranoEditorSubsystem</text>
<text xml:space="preserve" text-anchor="middle" x="572.38" y="-81.5" font-family="Helvetica,sans-Serif" font-size="10.00">::OnPostPIEStarted</text>
</a>
</g>
</g>
<!-- Node1&#45;&gt;Node2 -->
<g id="edge1_Node000001_Node000002" class="edge">
<title>Node1&#45;&gt;Node2</title>
<g id="a_edge1_Node000001_Node000002"><a xlink:title=" ">
<path fill="none" stroke="#63b8ff" d="M661.29,-84.27C653.25,-84.22 645.13,-84.26 637.24,-84.39"/>
<polygon fill="#63b8ff" stroke="#63b8ff" points="661.02,-87.77 671.06,-84.37 661.1,-80.77 661.02,-87.77"/>
</a>
</g>
</g>
<!-- Node2&#45;&gt;Node1 -->
<g id="edge4_Node000002_Node000001" class="edge">
<title>Node2&#45;&gt;Node1</title>
<g id="a_edge4_Node000002_Node000001"><a xlink:title=" ">
<path fill="none" stroke="#63b8ff" d="M648.52,-97.73C656.56,-97.78 664.68,-97.74 672.57,-97.61"/>
<polygon fill="#63b8ff" stroke="#63b8ff" points="648.79,-94.23 638.76,-97.62 648.72,-101.23 648.79,-94.23"/>
</a>
</g>
</g>
<!-- Node3 -->
<g id="Node000003" class="node">
<title>Node3</title>
<g id="a_Node000003"><a xlink:href="class_u_pyrano_editor_subsystem.html#ac3e1f1b78bd830e95a7b52fc3bff7ed9" target="_top" xlink:title="Ensures that the PIE world exists and is ready; retries if not.">
<polygon fill="white" stroke="#666666" points="471.75,-107 342.5,-107 342.5,-75 471.75,-75 471.75,-107"/>
<text xml:space="preserve" text-anchor="start" x="350.5" y="-93.5" font-family="Helvetica,sans-Serif" font-size="10.00">UPyranoEditorSubsystem</text>
<text xml:space="preserve" text-anchor="middle" x="407.12" y="-81.5" font-family="Helvetica,sans-Serif" font-size="10.00">::EnsurePIEWorld</text>
</a>
</g>
</g>
<!-- Node2&#45;&gt;Node3 -->
<g id="edge2_Node000002_Node000003" class="edge">
<title>Node2&#45;&gt;Node3</title>
<g id="a_edge2_Node000002_Node000003"><a xlink:title=" ">
<path fill="none" stroke="#63b8ff" d="M496.04,-84.27C488,-84.22 479.88,-84.26 471.99,-84.39"/>
<polygon fill="#63b8ff" stroke="#63b8ff" points="495.77,-87.77 505.81,-84.37 495.85,-80.77 495.77,-87.77"/>
</a>
</g>
</g>
<!-- Node4 -->
<g id="Node000004" class="node">
<title>Node4</title>
<g id="a_Node000004"><a xlink:href="class_u_pyrano_editor_subsystem.html#ab0ad1482f10e23d383332295e0ddac03" target="_top" xlink:title="Packs config and registers delegates before launching PIE.">
<polygon fill="white" stroke="#666666" points="471.75,-57 342.5,-57 342.5,-25 471.75,-25 471.75,-57"/>
<text xml:space="preserve" text-anchor="start" x="350.5" y="-43.5" font-family="Helvetica,sans-Serif" font-size="10.00">UPyranoEditorSubsystem</text>
<text xml:space="preserve" text-anchor="middle" x="407.12" y="-31.5" font-family="Helvetica,sans-Serif" font-size="10.00">::StartPIEWithConfig</text>
</a>
</g>
</g>
<!-- Node2&#45;&gt;Node4 -->
<g id="edge5_Node000002_Node000004" class="edge">
<title>Node2&#45;&gt;Node4</title>
<g id="a_edge5_Node000002_Node000004"><a xlink:title=" ">
<path fill="none" stroke="#63b8ff" d="M507.2,-71.34C492.23,-66.76 476.44,-61.92 461.98,-57.49"/>
<polygon fill="#63b8ff" stroke="#63b8ff" points="505.89,-74.6 516.47,-74.18 507.94,-67.91 505.89,-74.6"/>
</a>
</g>
</g>
<!-- Node3&#45;&gt;Node2 -->
<g id="edge3_Node000003_Node000002" class="edge">
<title>Node3&#45;&gt;Node2</title>
<g id="a_edge3_Node000003_Node000002"><a xlink:title=" ">
<path fill="none" stroke="#63b8ff" d="M483.27,-97.73C491.31,-97.78 499.43,-97.74 507.32,-97.61"/>
<polygon fill="#63b8ff" stroke="#63b8ff" points="483.54,-94.23 473.51,-97.62 483.47,-101.23 483.54,-94.23"/>
</a>
</g>
</g>
<!-- Node5 -->
<g id="Node000005" class="node">
<title>Node5</title>
<g id="a_Node000005"><a xlink:href="class_u_pyrano_editor_subsystem.html#acdc7acb4e1599227d50feefdf1867c66" target="_top" xlink:title="Starts a single capture pass in PIE and ends automatically.">
<polygon fill="white" stroke="#666666" points="306.5,-82 177.25,-82 177.25,-50 306.5,-50 306.5,-82"/>
<text xml:space="preserve" text-anchor="start" x="185.25" y="-68.5" font-family="Helvetica,sans-Serif" font-size="10.00">UPyranoEditorSubsystem</text>
<text xml:space="preserve" text-anchor="middle" x="241.88" y="-56.5" font-family="Helvetica,sans-Serif" font-size="10.00">::CaptureOnce</text>
</a>
</g>
</g>
<!-- Node4&#45;&gt;Node5 -->
<g id="edge6_Node000004_Node000005" class="edge">
<title>Node4&#45;&gt;Node5</title>
<g id="a_edge6_Node000004_Node000005"><a xlink:title=" ">
<path fill="none" stroke="#63b8ff" d="M330.79,-52.54C322.75,-53.77 314.63,-55.01 306.74,-56.22"/>
<polygon fill="#63b8ff" stroke="#63b8ff" points="331.22,-56.01 340.58,-51.04 330.16,-49.09 331.22,-56.01"/>
</a>
</g>
</g>
<!-- Node7 -->
<g id="Node000007" class="node">
<title>Node7</title>
<g id="a_Node000007"><a xlink:href="class_u_pyrano_editor_subsystem.html#a4b539f64f46c286822e4015811c08afc" target="_top" xlink:title="Starts a full multi&#45;sensor, multi&#45;time simulation in PIE.">
<polygon fill="white" stroke="#666666" points="306.5,-32 177.25,-32 177.25,0 306.5,0 306.5,-32"/>
<text xml:space="preserve" text-anchor="start" x="185.25" y="-18.5" font-family="Helvetica,sans-Serif" font-size="10.00">UPyranoEditorSubsystem</text>
<text xml:space="preserve" text-anchor="middle" x="241.88" y="-6.5" font-family="Helvetica,sans-Serif" font-size="10.00">::StartSimulation</text>
</a>
</g>
</g>
<!-- Node4&#45;&gt;Node7 -->
<g id="edge8_Node000004_Node000007" class="edge">
<title>Node4&#45;&gt;Node7</title>
<g id="a_edge8_Node000004_Node000007"><a xlink:title=" ">
<path fill="none" stroke="#63b8ff" d="M330.79,-29.46C322.75,-28.23 314.63,-26.99 306.74,-25.78"/>
<polygon fill="#63b8ff" stroke="#63b8ff" points="330.16,-32.91 340.58,-30.96 331.22,-25.99 330.16,-32.91"/>
</a>
</g>
</g>
<!-- Node6 -->
<g id="Node000006" class="node">
<title>Node6</title>
<g id="a_Node000006"><a xlink:href="class_u_pyrano_editor_subsystem.html#a66b820c9aae05fb59340fae1abe43379" target="_top" xlink:title=" ">
<polygon fill="white" stroke="#666666" points="141.25,-57 0,-57 0,-25 141.25,-25 141.25,-57"/>
<text xml:space="preserve" text-anchor="start" x="8" y="-43.5" font-family="Helvetica,sans-Serif" font-size="10.00">UPyranoEditorSubsystem</text>
<text xml:space="preserve" text-anchor="middle" x="70.62" y="-31.5" font-family="Helvetica,sans-Serif" font-size="10.00">::~UPyranoEditorSubsystem</text>
</a>
</g>
</g>
<!-- Node5&#45;&gt;Node6 -->
<g id="edge7_Node000005_Node000006" class="edge">
<title>Node5&#45;&gt;Node6</title>
<g id="a_edge7_Node000005_Node000006"><a xlink:title=" ">
<path fill="none" stroke="#63b8ff" d="M165.69,-54.89C157.69,-53.71 149.58,-52.51 141.64,-51.34"/>
<polygon fill="#63b8ff" stroke="#63b8ff" points="164.99,-58.33 175.39,-56.33 166.01,-51.4 164.99,-58.33"/>
</a>
</g>
</g>
<!-- Node7&#45;&gt;Node6 -->
<g id="edge9_Node000007_Node000006" class="edge">
<title>Node7&#45;&gt;Node6</title>
<g id="a_edge9_Node000007_Node000006"><a xlink:title=" ">
<path fill="none" stroke="#63b8ff" d="M165.69,-27.11C157.69,-28.29 149.58,-29.49 141.64,-30.66"/>
<polygon fill="#63b8ff" stroke="#63b8ff" points="166.01,-30.6 175.39,-25.67 164.99,-23.67 166.01,-30.6"/>
</a>
</g>
</g>
</g>
</svg>
