<?xml version="1.0" encoding="UTF-8" standalone="no"?>
<!DOCTYPE svg PUBLIC "-//W3C//DTD SVG 1.1//EN"
 "http://www.w3.org/Graphics/SVG/1.1/DTD/svg11.dtd">
<!-- Generated by graphviz version 14.1.0 (20251206.1807)
 -->
<!-- Title: USunSkyController::PushDateTime Pages: 1 -->
<svg width="256pt" height="90pt"
 viewBox="0.00 0.00 256.00 90.00" xmlns="http://www.w3.org/2000/svg" xmlns:xlink="http://www.w3.org/1999/xlink">
<g id="graph0" class="graph" transform="scale(1 1) rotate(0) translate(4 86)">
<title>USunSkyController::PushDateTime</title>
<!-- Node1 -->
<g id="Node000001" class="node">
<title>Node1</title>
<g id="a_Node000001"><a xlink:title="Pushes date and solar&#45;time fields into the SunSky actor from UTC.">
<polygon fill="#999999" stroke="#666666" points="106,-57 0,-57 0,-25 106,-25 106,-57"/>
<text xml:space="preserve" text-anchor="start" x="8" y="-43.5" font-family="Helvetica,sans-Serif" font-size="10.00">USunSkyController::</text>
<text xml:space="preserve" text-anchor="middle" x="53" y="-31.5" font-family="Helvetica,sans-Serif" font-size="10.00">PushDateTime</text>
</a>
</g>
</g>
<!-- Node2 -->
<g id="Node000002" class="node">
<title>Node2</title>
<g id="a_Node000002"><a xlink:href="class_u_sun_sky_controller.html#abe72ea57cbb6fbfc2a6a3990631800fa" target="_top" xlink:title=" ">
<polygon fill="white" stroke="#666666" points="248,-82 142,-82 142,-50 248,-50 248,-82"/>
<text xml:space="preserve" text-anchor="start" x="150" y="-68.5" font-family="Helvetica,sans-Serif" font-size="10.00">USunSkyController::</text>
<text xml:space="preserve" text-anchor="middle" x="195" y="-56.5" font-family="Helvetica,sans-Serif" font-size="10.00">SetDoubleProp</text>
</a>
</g>
</g>
<!-- Node1&#45;&gt;Node2 -->
<g id="edge1_Node000001_Node000002" class="edge">
<title>Node1&#45;&gt;Node2</title>
<g id="a_edge1_Node000001_Node000002"><a xlink:title=" ">
<path fill="none" stroke="#63b8ff" d="M106.13,-50.31C114.15,-51.74 122.5,-53.23 130.73,-54.7"/>
<polygon fill="#63b8ff" stroke="#63b8ff" points="129.88,-58.1 140.34,-56.42 131.11,-51.21 129.88,-58.1"/>
</a>
</g>
</g>
<!-- Node3 -->
<g id="Node000003" class="node">
<title>Node3</title>
<g id="a_Node000003"><a xlink:href="class_u_sun_sky_controller.html#a679b38217e46d510a2b1543bd1f89b3a" target="_top" xlink:title=" ">
<polygon fill="white" stroke="#666666" points="248,-32 142,-32 142,0 248,0 248,-32"/>
<text xml:space="preserve" text-anchor="start" x="150" y="-18.5" font-family="Helvetica,sans-Serif" font-size="10.00">USunSkyController::</text>
<text xml:space="preserve" text-anchor="middle" x="195" y="-6.5" font-family="Helvetica,sans-Serif" font-size="10.00">SetIntProp</text>
</a>
</g>
</g>
<!-- Node1&#45;&gt;Node3 -->
<g id="edge2_Node000001_Node000003" class="edge">
<title>Node1&#45;&gt;Node3</title>
<g id="a_edge2_Node000001_Node000003"><a xlink:title=" ">
<path fill="none" stroke="#63b8ff" d="M106.13,-31.69C114.15,-30.26 122.5,-28.77 130.73,-27.3"/>
<polygon fill="#63b8ff" stroke="#63b8ff" points="131.11,-30.79 140.34,-25.58 129.88,-23.9 131.11,-30.79"/>
</a>
</g>
</g>
</g>
</svg>
