<?xml version="1.0" encoding="UTF-8" standalone="no"?>
<!DOCTYPE svg PUBLIC "-//W3C//DTD SVG 1.1//EN"
 "http://www.w3.org/Graphics/SVG/1.1/DTD/svg11.dtd">
<!-- Generated by graphviz version 14.1.0 (20251206.1807)
 -->
<!-- Title: UIrradianceSubsystem::ConsumeLatestIrradiance Pages: 1 -->
<svg width="603pt" height="216pt"
 viewBox="0.00 0.00 603.00 216.00" xmlns="http://www.w3.org/2000/svg" xmlns:xlink="http://www.w3.org/1999/xlink">
<g id="graph0" class="graph" transform="scale(1 1) rotate(0) translate(4 212)">
<title>UIrradianceSubsystem::ConsumeLatestIrradiance</title>
<!-- Node1 -->
<g id="Node000001" class="node">
<title>Node1</title>
<g id="a_Node000001"><a xlink:title="Consume the latest available irradiance value.">
<polygon fill="#999999" stroke="#666666" points="133.75,-136 0,-136 0,-104 133.75,-104 133.75,-136"/>
<text xml:space="preserve" text-anchor="start" x="8" y="-122.5" font-family="Helvetica,sans-Serif" font-size="10.00">UIrradianceSubsystem</text>
<text xml:space="preserve" text-anchor="middle" x="66.88" y="-110.5" font-family="Helvetica,sans-Serif" font-size="10.00">::ConsumeLatestIrradiance</text>
</a>
</g>
</g>
<!-- Node2 -->
<g id="Node000002" class="node">
<title>Node2</title>
<g id="a_Node000002"><a xlink:href="class_u_irradiance_subsystem.html#a6dfafba98439f52bbf4df4d39dd4c317" target="_top" xlink:title="Perform a single&#45;ray solar occlusion test from the sensor towards the sun direction.">
<polygon fill="white" stroke="#666666" points="292.25,-208 169.75,-208 169.75,-176 292.25,-176 292.25,-208"/>
<text xml:space="preserve" text-anchor="start" x="177.75" y="-194.5" font-family="Helvetica,sans-Serif" font-size="10.00">UIrradianceSubsystem</text>
<text xml:space="preserve" text-anchor="middle" x="231" y="-182.5" font-family="Helvetica,sans-Serif" font-size="10.00">::ComputeSunOcclusion</text>
</a>
</g>
</g>
<!-- Node1&#45;&gt;Node2 -->
<g id="edge1_Node000001_Node000002" class="edge">
<title>Node1&#45;&gt;Node2</title>
<g id="a_edge1_Node000001_Node000002"><a xlink:title=" ">
<path fill="none" stroke="#63b8ff" d="M102.61,-136.43C122.24,-145.61 147.27,-157.15 169.75,-167 172.87,-168.36 176.08,-169.75 179.32,-171.14"/>
<polygon fill="#63b8ff" stroke="#63b8ff" points="177.75,-174.28 188.33,-174.95 180.48,-167.83 177.75,-174.28"/>
</a>
</g>
</g>
<!-- Node3 -->
<g id="Node000003" class="node">
<title>Node3</title>
<g id="a_Node000003"><a xlink:href="class_u_irradiance_subsystem.html#a9d9c69b7bfaee73c69034a5d5f10fd34" target="_top" xlink:title="Estimate solar visibility by sampling multiple rays around the sun direction.">
<polygon fill="white" stroke="#666666" points="288.88,-158 173.12,-158 173.12,-126 288.88,-126 288.88,-158"/>
<text xml:space="preserve" text-anchor="start" x="181.12" y="-144.5" font-family="Helvetica,sans-Serif" font-size="10.00">UIrradianceSubsystem</text>
<text xml:space="preserve" text-anchor="middle" x="231" y="-132.5" font-family="Helvetica,sans-Serif" font-size="10.00">::ComputeSunVisibility</text>
</a>
</g>
</g>
<!-- Node1&#45;&gt;Node3 -->
<g id="edge2_Node000001_Node000003" class="edge">
<title>Node1&#45;&gt;Node3</title>
<g id="a_edge2_Node000001_Node000003"><a xlink:title=" ">
<path fill="none" stroke="#63b8ff" d="M133.82,-128.95C142.88,-130.18 152.2,-131.44 161.31,-132.68"/>
<polygon fill="#63b8ff" stroke="#63b8ff" points="160.82,-136.14 171.2,-134.02 161.76,-129.21 160.82,-136.14"/>
</a>
</g>
</g>
<!-- Node4 -->
<g id="Node000004" class="node">
<title>Node4</title>
<g id="a_Node000004"><a xlink:href="class_u_sun_sky_controller.html#ab00403c7bab9f7bae3d57baa941146b6" target="_top" xlink:title="Locates a SunSky actor in the world (by tag or name).">
<polygon fill="white" stroke="#666666" points="595,-92 489,-92 489,-60 595,-60 595,-92"/>
<text xml:space="preserve" text-anchor="start" x="497" y="-78.5" font-family="Helvetica,sans-Serif" font-size="10.00">USunSkyController::</text>
<text xml:space="preserve" text-anchor="middle" x="542" y="-66.5" font-family="Helvetica,sans-Serif" font-size="10.00">FindSunSkyActor</text>
</a>
</g>
</g>
<!-- Node1&#45;&gt;Node4 -->
<g id="edge3_Node000001_Node000004" class="edge">
<title>Node1&#45;&gt;Node4</title>
<g id="a_edge3_Node000001_Node000004"><a xlink:title=" ">
<path fill="none" stroke="#63b8ff" d="M134.16,-113.84C225.16,-105.37 387.67,-90.26 477.29,-81.92"/>
<polygon fill="#63b8ff" stroke="#63b8ff" points="477.51,-85.42 487.14,-81.01 476.86,-78.45 477.51,-85.42"/>
</a>
</g>
</g>
<!-- Node5 -->
<g id="Node000005" class="node">
<title>Node5</title>
<g id="a_Node000005"><a xlink:href="class_u_sun_sky_controller.html#a9180ae57b0690fa8db4a96d766b7275a" target="_top" xlink:title="Returns solar azimuth/altitude using solar&#45;standard convention: azimuth = clockwise from North (0°=N,...">
<polygon fill="white" stroke="#666666" points="284,-70 178,-70 178,-38 284,-38 284,-70"/>
<text xml:space="preserve" text-anchor="start" x="186" y="-56.5" font-family="Helvetica,sans-Serif" font-size="10.00">USunSkyController::</text>
<text xml:space="preserve" text-anchor="middle" x="231" y="-44.5" font-family="Helvetica,sans-Serif" font-size="10.00">GetSolarAngles</text>
</a>
</g>
</g>
<!-- Node1&#45;&gt;Node5 -->
<g id="edge4_Node000001_Node000005" class="edge">
<title>Node1&#45;&gt;Node5</title>
<g id="a_edge4_Node000001_Node000005"><a xlink:title=" ">
<path fill="none" stroke="#63b8ff" d="M108.37,-103.52C129.82,-94.78 156.39,-83.97 179.21,-74.67"/>
<polygon fill="#63b8ff" stroke="#63b8ff" points="180.4,-77.97 188.34,-70.96 177.76,-71.49 180.4,-77.97"/>
</a>
</g>
</g>
<!-- Node6 -->
<g id="Node000006" class="node">
<title>Node6</title>
<g id="a_Node000006"><a xlink:href="class_u_sun_sky_controller.html#a0822748f97e63e40b3da612e27083596" target="_top" xlink:title="Returns the cached SunSky actor or performs a search if missing.">
<polygon fill="white" stroke="#666666" points="443.62,-70 337.62,-70 337.62,-38 443.62,-38 443.62,-70"/>
<text xml:space="preserve" text-anchor="start" x="345.62" y="-56.5" font-family="Helvetica,sans-Serif" font-size="10.00">USunSkyController::</text>
<text xml:space="preserve" text-anchor="middle" x="390.62" y="-44.5" font-family="Helvetica,sans-Serif" font-size="10.00">EnsureSunSky</text>
</a>
</g>
</g>
<!-- Node5&#45;&gt;Node6 -->
<g id="edge5_Node000005_Node000006" class="edge">
<title>Node5&#45;&gt;Node6</title>
<g id="a_edge5_Node000005_Node000006"><a xlink:title=" ">
<path fill="none" stroke="#63b8ff" d="M284.49,-54C297.78,-54 312.2,-54 325.98,-54"/>
<polygon fill="#63b8ff" stroke="#63b8ff" points="325.85,-57.5 335.85,-54 325.85,-50.5 325.85,-57.5"/>
</a>
</g>
</g>
<!-- Node7 -->
<g id="Node000007" class="node">
<title>Node7</title>
<g id="a_Node000007"><a xlink:href="_sun_sky_controller_8cpp.html#ac7b2fce7fc8414675ca11663c0aa5fb7" target="_top" xlink:title=" ">
<polygon fill="white" stroke="#666666" points="453,-20 328.25,-20 328.25,0 453,0 453,-20"/>
<text xml:space="preserve" text-anchor="middle" x="390.62" y="-6.5" font-family="Helvetica,sans-Serif" font-size="10.00">SunAnglesFromDirection</text>
</a>
</g>
</g>
<!-- Node5&#45;&gt;Node7 -->
<g id="edge7_Node000005_Node000007" class="edge">
<title>Node5&#45;&gt;Node7</title>
<g id="a_edge7_Node000005_Node000007"><a xlink:title=" ">
<path fill="none" stroke="#63b8ff" d="M284.49,-39.35C302.88,-34.21 323.43,-28.48 341.46,-23.45"/>
<polygon fill="#63b8ff" stroke="#63b8ff" points="342.16,-26.88 350.85,-20.82 340.28,-20.14 342.16,-26.88"/>
</a>
</g>
</g>
<!-- Node6&#45;&gt;Node4 -->
<g id="edge6_Node000006_Node000004" class="edge">
<title>Node6&#45;&gt;Node4</title>
<g id="a_edge6_Node000006_Node000004"><a xlink:title=" ">
<path fill="none" stroke="#63b8ff" d="M443.87,-61.69C454.72,-63.29 466.27,-64.99 477.48,-66.64"/>
<polygon fill="#63b8ff" stroke="#63b8ff" points="476.63,-70.06 487.04,-68.05 477.65,-63.13 476.63,-70.06"/>
</a>
</g>
</g>
</g>
</svg>
