<?xml version="1.0" encoding="UTF-8" standalone="no"?>
<!DOCTYPE svg PUBLIC "-//W3C//DTD SVG 1.1//EN"
 "http://www.w3.org/Graphics/SVG/1.1/DTD/svg11.dtd">
<!-- Generated by graphviz version 14.1.0 (20251206.1807)
 -->
<!-- Title: UIrradianceSubsystem::Tick Pages: 1 -->
<svg width="913pt" height="190pt"
 viewBox="0.00 0.00 913.00 190.00" xmlns="http://www.w3.org/2000/svg" xmlns:xlink="http://www.w3.org/1999/xlink">
<g id="graph0" class="graph" transform="scale(1 1) rotate(0) translate(4 186)">
<title>UIrradianceSubsystem::Tick</title>
<!-- Node1 -->
<g id="Node000001" class="node">
<title>Node1</title>
<g id="a_Node000001"><a xlink:title=" ">
<polygon fill="#999999" stroke="#666666" points="115.75,-107 0,-107 0,-75 115.75,-75 115.75,-107"/>
<text xml:space="preserve" text-anchor="start" x="8" y="-93.5" font-family="Helvetica,sans-Serif" font-size="10.00">UIrradianceSubsystem</text>
<text xml:space="preserve" text-anchor="middle" x="57.88" y="-81.5" font-family="Helvetica,sans-Serif" font-size="10.00">::Tick</text>
</a>
</g>
</g>
<!-- Node2 -->
<g id="Node000002" class="node">
<title>Node2</title>
<g id="a_Node000002"><a xlink:href="class_u_irradiance_subsystem.html#afec011af7207461bc6c02e2c03e06bc3" target="_top" xlink:title="Handle per&#45;frame logic while faces are being captured.">
<polygon fill="white" stroke="#666666" points="267.5,-132 151.75,-132 151.75,-100 267.5,-100 267.5,-132"/>
<text xml:space="preserve" text-anchor="start" x="159.75" y="-118.5" font-family="Helvetica,sans-Serif" font-size="10.00">UIrradianceSubsystem</text>
<text xml:space="preserve" text-anchor="middle" x="209.62" y="-106.5" font-family="Helvetica,sans-Serif" font-size="10.00">::TickCapturing</text>
</a>
</g>
</g>
<!-- Node1&#45;&gt;Node2 -->
<g id="edge1_Node000001_Node000002" class="edge">
<title>Node1&#45;&gt;Node2</title>
<g id="a_edge1_Node000001_Node000002"><a xlink:title=" ">
<path fill="none" stroke="#63b8ff" d="M115.92,-100.52C123.99,-101.87 132.35,-103.27 140.6,-104.64"/>
<polygon fill="#63b8ff" stroke="#63b8ff" points="139.81,-108.06 150.25,-106.25 140.96,-101.16 139.81,-108.06"/>
</a>
</g>
</g>
<!-- Node10 -->
<g id="Node000010" class="node">
<title>Node10</title>
<g id="a_Node000010"><a xlink:href="class_u_irradiance_subsystem.html#a2ef94233017fe8e81cf63e7bc5b514a3" target="_top" xlink:title="Handle per&#45;frame logic while waiting for GPU readback.">
<polygon fill="white" stroke="#666666" points="267.5,-82 151.75,-82 151.75,-50 267.5,-50 267.5,-82"/>
<text xml:space="preserve" text-anchor="start" x="159.75" y="-68.5" font-family="Helvetica,sans-Serif" font-size="10.00">UIrradianceSubsystem</text>
<text xml:space="preserve" text-anchor="middle" x="209.62" y="-56.5" font-family="Helvetica,sans-Serif" font-size="10.00">::TickReadback</text>
</a>
</g>
</g>
<!-- Node1&#45;&gt;Node10 -->
<g id="edge10_Node000001_Node000010" class="edge">
<title>Node1&#45;&gt;Node10</title>
<g id="a_edge10_Node000001_Node000010"><a xlink:title=" ">
<path fill="none" stroke="#63b8ff" d="M115.92,-81.48C123.99,-80.13 132.35,-78.73 140.6,-77.36"/>
<polygon fill="#63b8ff" stroke="#63b8ff" points="140.96,-80.84 150.25,-75.75 139.81,-73.94 140.96,-80.84"/>
</a>
</g>
</g>
<!-- Node3 -->
<g id="Node000003" class="node">
<title>Node3</title>
<g id="a_Node000003"><a xlink:href="class_u_irradiance_subsystem.html#a140204594c38cf4c1696276e7e9a4450" target="_top" xlink:title="Dispatch the irradiance compute shader using the captured faces.">
<polygon fill="white" stroke="#666666" points="433.12,-182 307.62,-182 307.62,-150 433.12,-150 433.12,-182"/>
<text xml:space="preserve" text-anchor="start" x="315.62" y="-168.5" font-family="Helvetica,sans-Serif" font-size="10.00">UIrradianceSubsystem</text>
<text xml:space="preserve" text-anchor="middle" x="370.38" y="-156.5" font-family="Helvetica,sans-Serif" font-size="10.00">::ComputeFinalIrradiance</text>
</a>
</g>
</g>
<!-- Node2&#45;&gt;Node3 -->
<g id="edge2_Node000002_Node000003" class="edge">
<title>Node2&#45;&gt;Node3</title>
<g id="a_edge2_Node000002_Node000003"><a xlink:title=" ">
<path fill="none" stroke="#63b8ff" d="M262.61,-132.37C276.51,-136.75 291.7,-141.54 306.14,-146.08"/>
<polygon fill="#63b8ff" stroke="#63b8ff" points="304.97,-149.39 315.56,-149.05 307.08,-142.71 304.97,-149.39"/>
</a>
</g>
</g>
<!-- Node7 -->
<g id="Node000007" class="node">
<title>Node7</title>
<g id="a_Node000007"><a xlink:href="class_u_irradiance_subsystem.html#a10314c056f1375fa327c1bdd2c0c79b6" target="_top" xlink:title="Start capture of a single face at PosWS / RotWS.">
<polygon fill="white" stroke="#666666" points="428.25,-132 312.5,-132 312.5,-100 428.25,-100 428.25,-132"/>
<text xml:space="preserve" text-anchor="start" x="320.5" y="-118.5" font-family="Helvetica,sans-Serif" font-size="10.00">UIrradianceSubsystem</text>
<text xml:space="preserve" text-anchor="middle" x="370.38" y="-106.5" font-family="Helvetica,sans-Serif" font-size="10.00">::StartFaceCapture</text>
</a>
</g>
</g>
<!-- Node2&#45;&gt;Node7 -->
<g id="edge6_Node000002_Node000007" class="edge">
<title>Node2&#45;&gt;Node7</title>
<g id="a_edge6_Node000002_Node000007"><a xlink:title=" ">
<path fill="none" stroke="#63b8ff" d="M267.94,-116C278.62,-116 289.87,-116 300.85,-116"/>
<polygon fill="#63b8ff" stroke="#63b8ff" points="300.63,-119.5 310.63,-116 300.63,-112.5 300.63,-119.5"/>
</a>
</g>
</g>
<!-- Node4 -->
<g id="Node000004" class="node">
<title>Node4</title>
<g id="a_Node000004"><a xlink:href="namespace_irradiance_compute.html#a6fad304599a46b23bcca8438ca2b6f06" target="_top" xlink:title=" ">
<polygon fill="white" stroke="#666666" points="620.5,-182 473.25,-182 473.25,-150 620.5,-150 620.5,-182"/>
<text xml:space="preserve" text-anchor="start" x="481.25" y="-168.5" font-family="Helvetica,sans-Serif" font-size="10.00">IrradianceCompute::</text>
<text xml:space="preserve" text-anchor="middle" x="546.88" y="-156.5" font-family="Helvetica,sans-Serif" font-size="10.00">ComputeAndExtractIrradiance</text>
</a>
</g>
</g>
<!-- Node3&#45;&gt;Node4 -->
<g id="edge3_Node000003_Node000004" class="edge">
<title>Node3&#45;&gt;Node4</title>
<g id="a_edge3_Node000003_Node000004"><a xlink:title=" ">
<path fill="none" stroke="#63b8ff" d="M433.39,-166C442.51,-166 452.04,-166 461.52,-166"/>
<polygon fill="#63b8ff" stroke="#63b8ff" points="461.52,-169.5 471.52,-166 461.52,-162.5 461.52,-169.5"/>
</a>
</g>
</g>
<!-- Node5 -->
<g id="Node000005" class="node">
<title>Node5</title>
<g id="a_Node000005"><a xlink:href="namespace_irradiance_compute.html#ad8506a4c2588e653b7d1c2aaf4552b14" target="_top" xlink:title=" ">
<polygon fill="white" stroke="#666666" points="771.12,-182 666.62,-182 666.62,-150 771.12,-150 771.12,-182"/>
<text xml:space="preserve" text-anchor="start" x="674.62" y="-168.5" font-family="Helvetica,sans-Serif" font-size="10.00">IrradianceCompute::</text>
<text xml:space="preserve" text-anchor="middle" x="718.88" y="-156.5" font-family="Helvetica,sans-Serif" font-size="10.00">ComputeIrradiance</text>
</a>
</g>
</g>
<!-- Node4&#45;&gt;Node5 -->
<g id="edge4_Node000004_Node000005" class="edge">
<title>Node4&#45;&gt;Node5</title>
<g id="a_edge4_Node000004_Node000005"><a xlink:title=" ">
<path fill="none" stroke="#63b8ff" d="M620.96,-166C632.24,-166 643.82,-166 654.86,-166"/>
<polygon fill="#63b8ff" stroke="#63b8ff" points="654.63,-169.5 664.63,-166 654.63,-162.5 654.63,-169.5"/>
</a>
</g>
</g>
<!-- Node6 -->
<g id="Node000006" class="node">
<title>Node6</title>
<g id="a_Node000006"><a xlink:href="_irradiance_integrate_c_s_8cpp.html#a6d8400984c092d383c90ad4cd22a8462" target="_top" xlink:title="Creates a 2D texture array from the six cubemap face render targets.">
<polygon fill="white" stroke="#666666" points="905.25,-176 817.25,-176 817.25,-156 905.25,-156 905.25,-176"/>
<text xml:space="preserve" text-anchor="middle" x="861.25" y="-162.5" font-family="Helvetica,sans-Serif" font-size="10.00">BuildFacesArray</text>
</a>
</g>
</g>
<!-- Node5&#45;&gt;Node6 -->
<g id="edge5_Node000005_Node000006" class="edge">
<title>Node5&#45;&gt;Node6</title>
<g id="a_edge5_Node000005_Node000006"><a xlink:title=" ">
<path fill="none" stroke="#63b8ff" d="M771.35,-166C782.5,-166 794.33,-166 805.6,-166"/>
<polygon fill="#63b8ff" stroke="#63b8ff" points="805.57,-169.5 815.57,-166 805.57,-162.5 805.57,-169.5"/>
</a>
</g>
</g>
<!-- Node8 -->
<g id="Node000008" class="node">
<title>Node8</title>
<g id="a_Node000008"><a xlink:href="class_u_irradiance_subsystem.html#a07d7292927f509ea227ab101994ab4b6" target="_top" xlink:title="Ensure that the capture camera exists and is configured.">
<polygon fill="white" stroke="#666666" points="607.75,-132 486,-132 486,-100 607.75,-100 607.75,-132"/>
<text xml:space="preserve" text-anchor="start" x="494" y="-118.5" font-family="Helvetica,sans-Serif" font-size="10.00">UIrradianceSubsystem</text>
<text xml:space="preserve" text-anchor="middle" x="546.88" y="-106.5" font-family="Helvetica,sans-Serif" font-size="10.00">::EnsureCaptureCamera</text>
</a>
</g>
</g>
<!-- Node7&#45;&gt;Node8 -->
<g id="edge7_Node000007_Node000008" class="edge">
<title>Node7&#45;&gt;Node8</title>
<g id="a_edge7_Node000007_Node000008"><a xlink:title=" ">
<path fill="none" stroke="#63b8ff" d="M428.51,-116C443.09,-116 458.94,-116 474.14,-116"/>
<polygon fill="#63b8ff" stroke="#63b8ff" points="474.09,-119.5 484.09,-116 474.09,-112.5 474.09,-119.5"/>
</a>
</g>
</g>
<!-- Node9 -->
<g id="Node000009" class="node">
<title>Node9</title>
<g id="a_Node000009"><a xlink:href="namespace_irradiance_common_1_1_utils.html#acd21b099951e95f67c7a758546ac9875" target="_top" xlink:title="Tries to return a game world suitable for rendering / scheduling.">
<polygon fill="white" stroke="#666666" points="781.25,-110 656.5,-110 656.5,-78 781.25,-78 781.25,-110"/>
<text xml:space="preserve" text-anchor="start" x="664.5" y="-96.5" font-family="Helvetica,sans-Serif" font-size="10.00">IrradianceCommon::Utils</text>
<text xml:space="preserve" text-anchor="middle" x="718.88" y="-84.5" font-family="Helvetica,sans-Serif" font-size="10.00">::GetGameWorldSafe</text>
</a>
</g>
</g>
<!-- Node7&#45;&gt;Node9 -->
<g id="edge9_Node000007_Node000009" class="edge">
<title>Node7&#45;&gt;Node9</title>
<g id="a_edge9_Node000007_Node000009"><a xlink:title=" ">
<path fill="none" stroke="#63b8ff" d="M428.04,-99.54C442.64,-96 458.42,-92.79 473.25,-91 530.54,-84.07 595.91,-85.34 644.66,-88.06"/>
<polygon fill="#63b8ff" stroke="#63b8ff" points="644.35,-91.55 654.54,-88.65 644.77,-84.56 644.35,-91.55"/>
</a>
</g>
</g>
<!-- Node8&#45;&gt;Node9 -->
<g id="edge8_Node000008_Node000009" class="edge">
<title>Node8&#45;&gt;Node9</title>
<g id="a_edge8_Node000008_Node000009"><a xlink:title=" ">
<path fill="none" stroke="#63b8ff" d="M607.81,-108.24C619.81,-106.69 632.55,-105.04 644.94,-103.44"/>
<polygon fill="#63b8ff" stroke="#63b8ff" points="645.21,-106.93 654.68,-102.18 644.31,-99.99 645.21,-106.93"/>
</a>
</g>
</g>
<!-- Node11 -->
<g id="Node000011" class="node">
<title>Node11</title>
<g id="a_Node000011"><a xlink:href="class_u_irradiance_subsystem.html#a24988c0d2a42f487480bbd2820c3ad14" target="_top" xlink:title="Enqueue a GPU readback copy of the extracted irradiance buffer.">
<polygon fill="white" stroke="#666666" points="434.25,-82 306.5,-82 306.5,-50 434.25,-50 434.25,-82"/>
<text xml:space="preserve" text-anchor="start" x="314.5" y="-68.5" font-family="Helvetica,sans-Serif" font-size="10.00">UIrradianceSubsystem</text>
<text xml:space="preserve" text-anchor="middle" x="370.38" y="-56.5" font-family="Helvetica,sans-Serif" font-size="10.00">::EnqueueReadbackCopy</text>
</a>
</g>
</g>
<!-- Node10&#45;&gt;Node11 -->
<g id="edge11_Node000010_Node000011" class="edge">
<title>Node10&#45;&gt;Node11</title>
<g id="a_edge11_Node000010_Node000011"><a xlink:title=" ">
<path fill="none" stroke="#63b8ff" d="M267.94,-66C276.68,-66 285.81,-66 294.86,-66"/>
<polygon fill="#63b8ff" stroke="#63b8ff" points="294.72,-69.5 304.72,-66 294.72,-62.5 294.72,-69.5"/>
</a>
</g>
</g>
<!-- Node12 -->
<g id="Node000012" class="node">
<title>Node12</title>
<g id="a_Node000012"><a xlink:href="class_u_irradiance_subsystem.html#afac39e6628fd78f1833b02ef96b881ba" target="_top" xlink:title="Enqueue a polling command to read back the irradiance value when ready.">
<polygon fill="white" stroke="#666666" points="437.25,-32 303.5,-32 303.5,0 437.25,0 437.25,-32"/>
<text xml:space="preserve" text-anchor="start" x="311.5" y="-18.5" font-family="Helvetica,sans-Serif" font-size="10.00">UIrradianceSubsystem</text>
<text xml:space="preserve" text-anchor="middle" x="370.38" y="-6.5" font-family="Helvetica,sans-Serif" font-size="10.00">::EnqueueReadbackPolling</text>
</a>
</g>
</g>
<!-- Node10&#45;&gt;Node12 -->
<g id="edge12_Node000010_Node000012" class="edge">
<title>Node10&#45;&gt;Node12</title>
<g id="a_edge12_Node000010_Node000012"><a xlink:title=" ">
<path fill="none" stroke="#63b8ff" d="M262.61,-49.63C276.51,-45.25 291.7,-40.46 306.14,-35.92"/>
<polygon fill="#63b8ff" stroke="#63b8ff" points="307.08,-39.29 315.56,-32.95 304.97,-32.61 307.08,-39.29"/>
</a>
</g>
</g>
</g>
</svg>
