<?xml version="1.0" encoding="UTF-8" standalone="no"?>
<!DOCTYPE svg PUBLIC "-//W3C//DTD SVG 1.1//EN"
 "http://www.w3.org/Graphics/SVG/1.1/DTD/svg11.dtd">
<!-- Generated by graphviz version 14.1.0 (20251206.1807)
 -->
<!-- Title: UIrradianceScheduler::ClearQueue Pages: 1 -->
<svg width="421pt" height="128pt"
 viewBox="0.00 0.00 421.00 128.00" xmlns="http://www.w3.org/2000/svg" xmlns:xlink="http://www.w3.org/1999/xlink">
<g id="graph0" class="graph" transform="scale(1 1) rotate(0) translate(4 124)">
<title>UIrradianceScheduler::ClearQueue</title>
<!-- Node1 -->
<g id="Node000001" class="node">
<title>Node1</title>
<g id="a_Node000001"><a xlink:title="Immediately stops any ongoing capture or simulation and restores state.">
<polygon fill="#999999" stroke="#666666" points="413.25,-76 303.5,-76 303.5,-44 413.25,-44 413.25,-76"/>
<text xml:space="preserve" text-anchor="start" x="311.5" y="-62.5" font-family="Helvetica,sans-Serif" font-size="10.00">UIrradianceScheduler</text>
<text xml:space="preserve" text-anchor="middle" x="358.38" y="-50.5" font-family="Helvetica,sans-Serif" font-size="10.00">::ClearQueue</text>
</a>
</g>
</g>
<!-- Node2 -->
<g id="Node000002" class="node">
<title>Node2</title>
<g id="a_Node000002"><a xlink:href="class_u_irradiance_scheduler.html#a4395030c4e2b089982300a7d5cb43417" target="_top" xlink:title="Captures irradiance once at Sim.StartTime for all active sensors.">
<polygon fill="white" stroke="#666666" points="267.5,-120 157.75,-120 157.75,-88 267.5,-88 267.5,-120"/>
<text xml:space="preserve" text-anchor="start" x="165.75" y="-106.5" font-family="Helvetica,sans-Serif" font-size="10.00">UIrradianceScheduler</text>
<text xml:space="preserve" text-anchor="middle" x="212.62" y="-94.5" font-family="Helvetica,sans-Serif" font-size="10.00">::CaptureOnce</text>
</a>
</g>
</g>
<!-- Node1&#45;&gt;Node2 -->
<g id="edge1_Node000001_Node000002" class="edge">
<title>Node1&#45;&gt;Node2</title>
<g id="a_edge1_Node000001_Node000002"><a xlink:title=" ">
<path fill="none" stroke="#63b8ff" d="M293.03,-79.7C284.4,-82.34 275.62,-85.03 267.2,-87.6"/>
<polygon fill="#63b8ff" stroke="#63b8ff" points="293.86,-83.1 302.4,-76.83 291.81,-76.41 293.86,-83.1"/>
</a>
</g>
</g>
<!-- Node3 -->
<g id="Node000003" class="node">
<title>Node3</title>
<g id="a_Node000003"><a xlink:href="class_u_irradiance_scheduler.html#acad46ea7c860e2a972fb7debd56651e9" target="_top" xlink:title=" ">
<polygon fill="white" stroke="#666666" points="121.75,-76 0,-76 0,-44 121.75,-44 121.75,-76"/>
<text xml:space="preserve" text-anchor="start" x="8" y="-62.5" font-family="Helvetica,sans-Serif" font-size="10.00">UIrradianceScheduler</text>
<text xml:space="preserve" text-anchor="middle" x="60.88" y="-50.5" font-family="Helvetica,sans-Serif" font-size="10.00">::~UIrradianceScheduler</text>
</a>
</g>
</g>
<!-- Node1&#45;&gt;Node3 -->
<g id="edge5_Node000001_Node000003" class="edge">
<title>Node1&#45;&gt;Node3</title>
<g id="a_edge5_Node000001_Node000003"><a xlink:title=" ">
<path fill="none" stroke="#63b8ff" d="M291.69,-60C240.97,-60 171.37,-60 122.09,-60"/>
<polygon fill="#63b8ff" stroke="#63b8ff" points="291.66,-63.5 301.66,-60 291.66,-56.5 291.66,-63.5"/>
</a>
</g>
</g>
<!-- Node4 -->
<g id="Node000004" class="node">
<title>Node4</title>
<g id="a_Node000004"><a xlink:href="class_u_irradiance_scheduler.html#a820fe9375420d4934dd45811ba7a419e" target="_top" xlink:title="Starts a full time&#45;series simulation using the given configuration.">
<polygon fill="white" stroke="#666666" points="267.5,-32 157.75,-32 157.75,0 267.5,0 267.5,-32"/>
<text xml:space="preserve" text-anchor="start" x="165.75" y="-18.5" font-family="Helvetica,sans-Serif" font-size="10.00">UIrradianceScheduler</text>
<text xml:space="preserve" text-anchor="middle" x="212.62" y="-6.5" font-family="Helvetica,sans-Serif" font-size="10.00">::StartSimulation</text>
</a>
</g>
</g>
<!-- Node1&#45;&gt;Node4 -->
<g id="edge3_Node000001_Node000004" class="edge">
<title>Node1&#45;&gt;Node4</title>
<g id="a_edge3_Node000001_Node000004"><a xlink:title=" ">
<path fill="none" stroke="#63b8ff" d="M293.03,-40.3C284.4,-37.66 275.62,-34.97 267.2,-32.4"/>
<polygon fill="#63b8ff" stroke="#63b8ff" points="291.81,-43.59 302.4,-43.17 293.86,-36.9 291.81,-43.59"/>
</a>
</g>
</g>
<!-- Node2&#45;&gt;Node3 -->
<g id="edge2_Node000002_Node000003" class="edge">
<title>Node2&#45;&gt;Node3</title>
<g id="a_edge2_Node000002_Node000003"><a xlink:title=" ">
<path fill="none" stroke="#63b8ff" d="M146.81,-84.96C137.18,-82.12 127.31,-79.23 117.88,-76.45"/>
<polygon fill="#63b8ff" stroke="#63b8ff" points="145.53,-88.23 156.11,-87.69 147.5,-81.51 145.53,-88.23"/>
</a>
</g>
</g>
<!-- Node4&#45;&gt;Node3 -->
<g id="edge4_Node000004_Node000003" class="edge">
<title>Node4&#45;&gt;Node3</title>
<g id="a_edge4_Node000004_Node000003"><a xlink:title=" ">
<path fill="none" stroke="#63b8ff" d="M146.81,-35.04C137.18,-37.88 127.31,-40.77 117.88,-43.55"/>
<polygon fill="#63b8ff" stroke="#63b8ff" points="147.5,-38.49 156.11,-32.31 145.53,-31.77 147.5,-38.49"/>
</a>
</g>
</g>
</g>
</svg>
