<?xml version="1.0" encoding="UTF-8" standalone="no"?>
<!DOCTYPE svg PUBLIC "-//W3C//DTD SVG 1.1//EN"
 "http://www.w3.org/Graphics/SVG/1.1/DTD/svg11.dtd">
<!-- Generated by graphviz version 14.1.0 (20251206.1807)
 -->
<!-- Title: UPyranoEditorSubsystem::EnsurePIEWorld Pages: 1 -->
<svg width="956pt" height="278pt"
 viewBox="0.00 0.00 956.00 278.00" xmlns="http://www.w3.org/2000/svg" xmlns:xlink="http://www.w3.org/1999/xlink">
<g id="graph0" class="graph" transform="scale(1 1) rotate(0) translate(4 274)">
<title>UPyranoEditorSubsystem::EnsurePIEWorld</title>
<!-- Node1 -->
<g id="Node000001" class="node">
<title>Node1</title>
<g id="a_Node000001"><a xlink:title="Ensures that the PIE world exists and is ready; retries if not.">
<polygon fill="#999999" stroke="#666666" points="129.25,-179 0,-179 0,-147 129.25,-147 129.25,-179"/>
<text xml:space="preserve" text-anchor="start" x="8" y="-165.5" font-family="Helvetica,sans-Serif" font-size="10.00">UPyranoEditorSubsystem</text>
<text xml:space="preserve" text-anchor="middle" x="64.62" y="-153.5" font-family="Helvetica,sans-Serif" font-size="10.00">::EnsurePIEWorld</text>
</a>
</g>
</g>
<!-- Node2 -->
<g id="Node000002" class="node">
<title>Node2</title>
<g id="a_Node000002"><a xlink:href="class_u_pyrano_editor_subsystem.html#a2adad0d3fd5864acbe4205b167cf4937" target="_top" xlink:title="Returns the PIE world if running, otherwise the editor world.">
<polygon fill="white" stroke="#666666" points="294.5,-270 165.25,-270 165.25,-238 294.5,-238 294.5,-270"/>
<text xml:space="preserve" text-anchor="start" x="173.25" y="-256.5" font-family="Helvetica,sans-Serif" font-size="10.00">UPyranoEditorSubsystem</text>
<text xml:space="preserve" text-anchor="middle" x="229.88" y="-244.5" font-family="Helvetica,sans-Serif" font-size="10.00">::GetActiveWorld</text>
</a>
</g>
</g>
<!-- Node1&#45;&gt;Node2 -->
<g id="edge1_Node000001_Node000002" class="edge">
<title>Node1&#45;&gt;Node2</title>
<g id="a_edge1_Node000001_Node000002"><a xlink:title=" ">
<path fill="none" stroke="#63b8ff" d="M90.57,-179.32C110.45,-192.07 139.19,-209.93 165.25,-224 170.62,-226.9 176.32,-229.81 182.02,-232.62"/>
<polygon fill="#63b8ff" stroke="#63b8ff" points="180.31,-235.68 190.83,-236.88 183.35,-229.38 180.31,-235.68"/>
</a>
</g>
</g>
<!-- Node3 -->
<g id="Node000003" class="node">
<title>Node3</title>
<g id="a_Node000003"><a xlink:href="namespace_pyrano_editor_utils.html#ad1d7ad11514ffa4c9c0506a310f89295" target="_top" xlink:title=" ">
<polygon fill="white" stroke="#666666" points="619.38,-204 520.88,-204 520.88,-172 619.38,-172 619.38,-204"/>
<text xml:space="preserve" text-anchor="start" x="528.88" y="-190.5" font-family="Helvetica,sans-Serif" font-size="10.00">PyranoEditorUtils::</text>
<text xml:space="preserve" text-anchor="middle" x="570.12" y="-178.5" font-family="Helvetica,sans-Serif" font-size="10.00">GetPIEWorld</text>
</a>
</g>
</g>
<!-- Node1&#45;&gt;Node3 -->
<g id="edge2_Node000001_Node000003" class="edge">
<title>Node1&#45;&gt;Node3</title>
<g id="a_edge2_Node000001_Node000003"><a xlink:title=" ">
<path fill="none" stroke="#63b8ff" d="M129.7,-171.68C183.25,-178.48 261.7,-187.37 330.5,-191 393.19,-194.3 408.98,-191.97 471.75,-191 483.92,-190.81 496.94,-190.49 509.38,-190.13"/>
<polygon fill="#63b8ff" stroke="#63b8ff" points="509.19,-193.64 519.08,-189.84 508.98,-186.64 509.19,-193.64"/>
</a>
</g>
</g>
<!-- Node4 -->
<g id="Node000004" class="node">
<title>Node4</title>
<g id="a_Node000004"><a xlink:href="class_u_pyrano_editor_subsystem.html#ae6108e9fda1f9471c24a39988d5122d6" target="_top" xlink:title="Internal callback executed once PIE has fully started.">
<polygon fill="white" stroke="#666666" points="294.5,-132 165.25,-132 165.25,-100 294.5,-100 294.5,-132"/>
<text xml:space="preserve" text-anchor="start" x="173.25" y="-118.5" font-family="Helvetica,sans-Serif" font-size="10.00">UPyranoEditorSubsystem</text>
<text xml:space="preserve" text-anchor="middle" x="229.88" y="-106.5" font-family="Helvetica,sans-Serif" font-size="10.00">::OnPostPIEStarted</text>
</a>
</g>
</g>
<!-- Node1&#45;&gt;Node4 -->
<g id="edge3_Node000001_Node000004" class="edge">
<title>Node1&#45;&gt;Node4</title>
<g id="a_edge3_Node000001_Node000004"><a xlink:title=" ">
<path fill="none" stroke="#63b8ff" d="M102.67,-146.57C117.94,-141.42 136.21,-135.84 154.05,-130.81"/>
<polygon fill="#63b8ff" stroke="#63b8ff" points="154.9,-134.21 163.61,-128.17 153.03,-127.46 154.9,-134.21"/>
</a>
</g>
</g>
<!-- Node4&#45;&gt;Node1 -->
<g id="edge10_Node000004_Node000001" class="edge">
<title>Node4&#45;&gt;Node1</title>
<g id="a_edge10_Node000004_Node000001"><a xlink:title=" ">
<path fill="none" stroke="#63b8ff" d="M191.85,-132.42C176.64,-137.55 158.44,-143.11 140.66,-148.13"/>
<polygon fill="#63b8ff" stroke="#63b8ff" points="139.84,-144.72 131.14,-150.76 141.71,-151.47 139.84,-144.72"/>
</a>
</g>
</g>
<!-- Node5 -->
<g id="Node000005" class="node">
<title>Node5</title>
<g id="a_Node000005"><a xlink:href="class_u_pyrano_editor_subsystem.html#ab354ffee4ea9cc5e40566874111fd461" target="_top" xlink:title="Applies Render/Irradiance CVars before starting PIE.">
<polygon fill="white" stroke="#666666" points="465.75,-132 336.5,-132 336.5,-100 465.75,-100 465.75,-132"/>
<text xml:space="preserve" text-anchor="start" x="344.5" y="-118.5" font-family="Helvetica,sans-Serif" font-size="10.00">UPyranoEditorSubsystem</text>
<text xml:space="preserve" text-anchor="middle" x="401.12" y="-106.5" font-family="Helvetica,sans-Serif" font-size="10.00">::ApplyCVarConfig</text>
</a>
</g>
</g>
<!-- Node4&#45;&gt;Node5 -->
<g id="edge4_Node000004_Node000005" class="edge">
<title>Node4&#45;&gt;Node5</title>
<g id="a_edge4_Node000004_Node000005"><a xlink:title=" ">
<path fill="none" stroke="#63b8ff" d="M294.86,-116C304.66,-116 314.84,-116 324.85,-116"/>
<polygon fill="#63b8ff" stroke="#63b8ff" points="324.53,-119.5 334.53,-116 324.53,-112.5 324.53,-119.5"/>
</a>
</g>
</g>
<!-- Node9 -->
<g id="Node000009" class="node">
<title>Node9</title>
<g id="a_Node000009"><a xlink:href="class_u_pyrano_editor_subsystem.html#ab0de335beccfcc58219f322f7d03a67c" target="_top" xlink:title="Ensures the PIE world is standalone or client (not server).">
<polygon fill="white" stroke="#666666" points="471.75,-82 330.5,-82 330.5,-50 471.75,-50 471.75,-82"/>
<text xml:space="preserve" text-anchor="start" x="338.5" y="-68.5" font-family="Helvetica,sans-Serif" font-size="10.00">UPyranoEditorSubsystem</text>
<text xml:space="preserve" text-anchor="middle" x="401.12" y="-56.5" font-family="Helvetica,sans-Serif" font-size="10.00">::EnsureLocalStandalonePIE</text>
</a>
</g>
</g>
<!-- Node4&#45;&gt;Node9 -->
<g id="edge9_Node000004_Node000009" class="edge">
<title>Node4&#45;&gt;Node9</title>
<g id="a_edge9_Node000004_Node000009"><a xlink:title=" ">
<path fill="none" stroke="#63b8ff" d="M286.29,-99.63C301.41,-95.16 317.95,-90.28 333.61,-85.65"/>
<polygon fill="#63b8ff" stroke="#63b8ff" points="334.24,-89.11 342.84,-82.92 332.26,-82.4 334.24,-89.11"/>
</a>
</g>
</g>
<!-- Node10 -->
<g id="Node000010" class="node">
<title>Node10</title>
<g id="a_Node000010"><a xlink:href="class_u_pyrano_editor_subsystem.html#a5bd1813278b5277f9b9677faf4bc9d85" target="_top" xlink:title="Verifies that the game viewport is initialized and visible.">
<polygon fill="white" stroke="#666666" points="465.75,-32 336.5,-32 336.5,0 465.75,0 465.75,-32"/>
<text xml:space="preserve" text-anchor="start" x="344.5" y="-18.5" font-family="Helvetica,sans-Serif" font-size="10.00">UPyranoEditorSubsystem</text>
<text xml:space="preserve" text-anchor="middle" x="401.12" y="-6.5" font-family="Helvetica,sans-Serif" font-size="10.00">::EnsureViewportReady</text>
</a>
</g>
</g>
<!-- Node4&#45;&gt;Node10 -->
<g id="edge11_Node000004_Node000010" class="edge">
<title>Node4&#45;&gt;Node10</title>
<g id="a_edge11_Node000004_Node000010"><a xlink:title=" ">
<path fill="none" stroke="#63b8ff" d="M242.34,-99.75C258.64,-82.29 290.09,-55.57 326.25,-34.62"/>
<polygon fill="#63b8ff" stroke="#63b8ff" points="327.7,-37.81 334.73,-29.88 324.29,-31.7 327.7,-37.81"/>
</a>
</g>
</g>
<!-- Node11 -->
<g id="Node000011" class="node">
<title>Node11</title>
<g id="a_Node000011"><a xlink:href="class_u_pyrano_editor_subsystem.html#aac7636240544517fce7c46ac0df245a3" target="_top" xlink:title="Delays simulation start and monitors when it finishes.">
<polygon fill="white" stroke="#666666" points="467.62,-182 334.62,-182 334.62,-150 467.62,-150 467.62,-182"/>
<text xml:space="preserve" text-anchor="start" x="342.62" y="-168.5" font-family="Helvetica,sans-Serif" font-size="10.00">UPyranoEditorSubsystem</text>
<text xml:space="preserve" text-anchor="middle" x="401.12" y="-156.5" font-family="Helvetica,sans-Serif" font-size="10.00">::ScheduleStartAndMonitor</text>
</a>
</g>
</g>
<!-- Node4&#45;&gt;Node11 -->
<g id="edge13_Node000004_Node000011" class="edge">
<title>Node4&#45;&gt;Node11</title>
<g id="a_edge13_Node000004_Node000011"><a xlink:title=" ">
<path fill="none" stroke="#63b8ff" d="M286.29,-132.37C301.41,-136.84 317.95,-141.72 333.61,-146.35"/>
<polygon fill="#63b8ff" stroke="#63b8ff" points="332.26,-149.6 342.84,-149.08 334.24,-142.89 332.26,-149.6"/>
</a>
</g>
</g>
<!-- Node6 -->
<g id="Node000006" class="node">
<title>Node6</title>
<g id="a_Node000006"><a xlink:href="namespace_f_irradiance_render_config.html#a2880f5d9df2d1f4e81ecb89ca2f4e0e6" target="_top" xlink:title=" ">
<polygon fill="white" stroke="#666666" points="632.5,-132 507.75,-132 507.75,-100 632.5,-100 632.5,-132"/>
<text xml:space="preserve" text-anchor="start" x="515.75" y="-118.5" font-family="Helvetica,sans-Serif" font-size="10.00">FIrradianceRenderConfig</text>
<text xml:space="preserve" text-anchor="middle" x="570.12" y="-106.5" font-family="Helvetica,sans-Serif" font-size="10.00">::ApplyIrradianceConfig</text>
</a>
</g>
</g>
<!-- Node5&#45;&gt;Node6 -->
<g id="edge5_Node000005_Node000006" class="edge">
<title>Node5&#45;&gt;Node6</title>
<g id="a_edge5_Node000005_Node000006"><a xlink:title=" ">
<path fill="none" stroke="#63b8ff" d="M466.21,-116C475.93,-116 486.02,-116 495.92,-116"/>
<polygon fill="#63b8ff" stroke="#63b8ff" points="495.89,-119.5 505.89,-116 495.89,-112.5 495.89,-119.5"/>
</a>
</g>
</g>
<!-- Node7 -->
<g id="Node000007" class="node">
<title>Node7</title>
<g id="a_Node000007"><a xlink:href="namespaceanonymous__namespace_02_irradiance_configuration_8cpp_03.html#aad684e2485baaa38779ecb26af25cc94" target="_top" xlink:title=" ">
<polygon fill="white" stroke="#666666" points="790.25,-163 668.5,-163 668.5,-119 790.25,-119 790.25,-163"/>
<text xml:space="preserve" text-anchor="start" x="676.5" y="-149.5" font-family="Helvetica,sans-Serif" font-size="10.00">anonymous_namespace</text>
<text xml:space="preserve" text-anchor="start" x="676.5" y="-137.5" font-family="Helvetica,sans-Serif" font-size="10.00">{IrradianceConfiguration</text>
<text xml:space="preserve" text-anchor="middle" x="729.38" y="-125.5" font-family="Helvetica,sans-Serif" font-size="10.00">::cpp}::ApplyGroup</text>
</a>
</g>
</g>
<!-- Node6&#45;&gt;Node7 -->
<g id="edge6_Node000006_Node000007" class="edge">
<title>Node6&#45;&gt;Node7</title>
<g id="a_edge6_Node000006_Node000007"><a xlink:title=" ">
<path fill="none" stroke="#63b8ff" d="M632.82,-125.81C640.72,-127.06 648.85,-128.36 656.89,-129.63"/>
<polygon fill="#63b8ff" stroke="#63b8ff" points="656.22,-133.07 666.65,-131.19 657.32,-126.16 656.22,-133.07"/>
</a>
</g>
</g>
<!-- Node8 -->
<g id="Node000008" class="node">
<title>Node8</title>
<g id="a_Node000008"><a xlink:href="namespaceanonymous__namespace_02_irradiance_configuration_8cpp_03.html#aca5fa9f954f01057940a973680cd4d9a" target="_top" xlink:title=" ">
<polygon fill="white" stroke="#666666" points="948,-138 826.25,-138 826.25,-94 948,-94 948,-138"/>
<text xml:space="preserve" text-anchor="start" x="834.25" y="-124.5" font-family="Helvetica,sans-Serif" font-size="10.00">anonymous_namespace</text>
<text xml:space="preserve" text-anchor="start" x="834.25" y="-112.5" font-family="Helvetica,sans-Serif" font-size="10.00">{IrradianceConfiguration</text>
<text xml:space="preserve" text-anchor="middle" x="887.12" y="-100.5" font-family="Helvetica,sans-Serif" font-size="10.00">::cpp}::SaveAndSetInt</text>
</a>
</g>
</g>
<!-- Node6&#45;&gt;Node8 -->
<g id="edge8_Node000006_Node000008" class="edge">
<title>Node6&#45;&gt;Node8</title>
<g id="a_edge8_Node000006_Node000008"><a xlink:title=" ">
<path fill="none" stroke="#63b8ff" d="M632.91,-111.62C644.72,-110.94 656.99,-110.35 668.5,-110 722.59,-108.34 736.17,-108.31 790.25,-110 798.07,-110.24 806.24,-110.6 814.37,-111.02"/>
<polygon fill="#63b8ff" stroke="#63b8ff" points="814.11,-114.51 824.29,-111.57 814.5,-107.52 814.11,-114.51"/>
</a>
</g>
</g>
<!-- Node7&#45;&gt;Node8 -->
<g id="edge7_Node000007_Node000008" class="edge">
<title>Node7&#45;&gt;Node8</title>
<g id="a_edge7_Node000007_Node000008"><a xlink:title=" ">
<path fill="none" stroke="#63b8ff" d="M790.59,-131.33C798.45,-130.07 806.55,-128.77 814.57,-127.49"/>
<polygon fill="#63b8ff" stroke="#63b8ff" points="815,-130.96 824.32,-125.92 813.89,-124.05 815,-130.96"/>
</a>
</g>
</g>
<!-- Node10&#45;&gt;Node4 -->
<g id="edge12_Node000010_Node000004" class="edge">
<title>Node10&#45;&gt;Node4</title>
<g id="a_edge12_Node000010_Node000004"><a xlink:title=" ">
<path fill="none" stroke="#63b8ff" d="M371.18,-32.46C358.33,-37.43 343.27,-43.11 330.5,-50 308.11,-62.09 285.29,-78.88 267.14,-92.64"/>
<polygon fill="#63b8ff" stroke="#63b8ff" points="265.15,-89.76 259.31,-98.61 269.39,-95.33 265.15,-89.76"/>
</a>
</g>
</g>
<!-- Node11&#45;&gt;Node3 -->
<g id="edge14_Node000011_Node000003" class="edge">
<title>Node11&#45;&gt;Node3</title>
<g id="a_edge14_Node000011_Node000003"><a xlink:title=" ">
<path fill="none" stroke="#63b8ff" d="M467.65,-174.63C481.43,-176.45 495.89,-178.35 509.44,-180.14"/>
<polygon fill="#63b8ff" stroke="#63b8ff" points="508.7,-183.57 519.07,-181.41 509.62,-176.63 508.7,-183.57"/>
</a>
</g>
</g>
</g>
</svg>
