<?xml version="1.0" encoding="UTF-8" standalone="no"?>
<!DOCTYPE svg PUBLIC "-//W3C//DTD SVG 1.1//EN"
 "http://www.w3.org/Graphics/SVG/1.1/DTD/svg11.dtd">
<!-- Generated by graphviz version 14.1.0 (20251206.1807)
 -->
<!-- Title: UIrradianceScheduler::MakeRequest Pages: 1 -->
<svg width="784pt" height="134pt"
 viewBox="0.00 0.00 784.00 134.00" xmlns="http://www.w3.org/2000/svg" xmlns:xlink="http://www.w3.org/1999/xlink">
<g id="graph0" class="graph" transform="scale(1 1) rotate(0) translate(4 130)">
<title>UIrradianceScheduler::MakeRequest</title>
<!-- Node1 -->
<g id="Node000001" class="node">
<title>Node1</title>
<g id="a_Node000001"><a xlink:title="Builds a capture request for the given sensor and simulation settings.">
<polygon fill="#999999" stroke="#666666" points="776,-79 666.25,-79 666.25,-47 776,-47 776,-79"/>
<text xml:space="preserve" text-anchor="start" x="674.25" y="-65.5" font-family="Helvetica,sans-Serif" font-size="10.00">UIrradianceScheduler</text>
<text xml:space="preserve" text-anchor="middle" x="721.12" y="-53.5" font-family="Helvetica,sans-Serif" font-size="10.00">::MakeRequest</text>
</a>
</g>
</g>
<!-- Node2 -->
<g id="Node000002" class="node">
<title>Node2</title>
<g id="a_Node000002"><a xlink:href="class_u_irradiance_scheduler.html#a4395030c4e2b089982300a7d5cb43417" target="_top" xlink:title="Captures irradiance once at Sim.StartTime for all active sensors.">
<polygon fill="white" stroke="#666666" points="607.75,-126 498,-126 498,-94 607.75,-94 607.75,-126"/>
<text xml:space="preserve" text-anchor="start" x="506" y="-112.5" font-family="Helvetica,sans-Serif" font-size="10.00">UIrradianceScheduler</text>
<text xml:space="preserve" text-anchor="middle" x="552.88" y="-100.5" font-family="Helvetica,sans-Serif" font-size="10.00">::CaptureOnce</text>
</a>
</g>
</g>
<!-- Node1&#45;&gt;Node2 -->
<g id="edge1_Node000001_Node000002" class="edge">
<title>Node1&#45;&gt;Node2</title>
<g id="a_edge1_Node000001_Node000002"><a xlink:title=" ">
<path fill="none" stroke="#63b8ff" d="M655.49,-81.27C639.84,-85.7 623.27,-90.38 608.15,-94.66"/>
<polygon fill="#63b8ff" stroke="#63b8ff" points="656.02,-84.76 664.69,-78.67 654.12,-78.02 656.02,-84.76"/>
</a>
</g>
</g>
<!-- Node4 -->
<g id="Node000004" class="node">
<title>Node4</title>
<g id="a_Node000004"><a xlink:href="class_u_irradiance_scheduler.html#a2c93371fc51e45b8af73ce9b4d2c690a" target="_top" xlink:title="Launches the next capture for the current time slot and sensor index.">
<polygon fill="white" stroke="#666666" points="630.25,-54 475.5,-54 475.5,-22 630.25,-22 630.25,-54"/>
<text xml:space="preserve" text-anchor="start" x="483.5" y="-40.5" font-family="Helvetica,sans-Serif" font-size="10.00">UIrradianceScheduler</text>
<text xml:space="preserve" text-anchor="middle" x="552.88" y="-28.5" font-family="Helvetica,sans-Serif" font-size="10.00">::LaunchNextSimulationCapture</text>
</a>
</g>
</g>
<!-- Node1&#45;&gt;Node4 -->
<g id="edge3_Node000001_Node000004" class="edge">
<title>Node1&#45;&gt;Node4</title>
<g id="a_edge3_Node000001_Node000004"><a xlink:title=" ">
<path fill="none" stroke="#63b8ff" d="M654.99,-53.21C646.97,-52 638.71,-50.76 630.53,-49.53"/>
<polygon fill="#63b8ff" stroke="#63b8ff" points="654.24,-56.63 664.65,-54.66 655.28,-49.71 654.24,-56.63"/>
</a>
</g>
</g>
<!-- Node3 -->
<g id="Node000003" class="node">
<title>Node3</title>
<g id="a_Node000003"><a xlink:href="class_u_irradiance_scheduler.html#acad46ea7c860e2a972fb7debd56651e9" target="_top" xlink:title=" ">
<polygon fill="white" stroke="#666666" points="267.5,-126 145.75,-126 145.75,-94 267.5,-94 267.5,-126"/>
<text xml:space="preserve" text-anchor="start" x="153.75" y="-112.5" font-family="Helvetica,sans-Serif" font-size="10.00">UIrradianceScheduler</text>
<text xml:space="preserve" text-anchor="middle" x="206.62" y="-100.5" font-family="Helvetica,sans-Serif" font-size="10.00">::~UIrradianceScheduler</text>
</a>
</g>
</g>
<!-- Node2&#45;&gt;Node3 -->
<g id="edge2_Node000002_Node000003" class="edge">
<title>Node2&#45;&gt;Node3</title>
<g id="a_edge2_Node000002_Node000003"><a xlink:title=" ">
<path fill="none" stroke="#63b8ff" d="M486.1,-112.05C470.8,-112.45 454.58,-112.8 439.5,-113 379.06,-113.81 363.94,-113.95 303.5,-113 292.01,-112.82 279.75,-112.52 267.97,-112.18"/>
<polygon fill="#63b8ff" stroke="#63b8ff" points="486.17,-115.55 496.07,-111.78 485.98,-108.55 486.17,-115.55"/>
</a>
</g>
</g>
<!-- Node5 -->
<g id="Node000005" class="node">
<title>Node5</title>
<g id="a_Node000005"><a xlink:href="class_u_irradiance_scheduler.html#ab400b6f7f8c6768537088d0eca221f90" target="_top" xlink:title="Advances to the next time slot, or finalizes the simulation if finished.">
<polygon fill="white" stroke="#666666" points="439.5,-54 303.5,-54 303.5,-22 439.5,-22 439.5,-54"/>
<text xml:space="preserve" text-anchor="start" x="311.5" y="-40.5" font-family="Helvetica,sans-Serif" font-size="10.00">UIrradianceScheduler</text>
<text xml:space="preserve" text-anchor="middle" x="371.5" y="-28.5" font-family="Helvetica,sans-Serif" font-size="10.00">::AdvanceTimeSlotOrFinish</text>
</a>
</g>
</g>
<!-- Node4&#45;&gt;Node5 -->
<g id="edge4_Node000004_Node000005" class="edge">
<title>Node4&#45;&gt;Node5</title>
<g id="a_edge4_Node000004_Node000005"><a xlink:title=" ">
<path fill="none" stroke="#63b8ff" d="M463.72,-31.25C455.7,-31.24 447.66,-31.3 439.86,-31.44"/>
<polygon fill="#63b8ff" stroke="#63b8ff" points="463.49,-34.75 473.51,-31.3 463.53,-27.75 463.49,-34.75"/>
</a>
</g>
</g>
<!-- Node6 -->
<g id="Node000006" class="node">
<title>Node6</title>
<g id="a_Node000006"><a xlink:href="class_u_irradiance_scheduler.html#ac79a70849af28bdcf62ac8214ccaeee5" target="_top" xlink:title="Handles a completed capture and advances the flow.">
<polygon fill="white" stroke="#666666" points="264.88,-32 148.38,-32 148.38,0 264.88,0 264.88,-32"/>
<text xml:space="preserve" text-anchor="start" x="156.38" y="-18.5" font-family="Helvetica,sans-Serif" font-size="10.00">UIrradianceScheduler</text>
<text xml:space="preserve" text-anchor="middle" x="206.62" y="-6.5" font-family="Helvetica,sans-Serif" font-size="10.00">::OnCaptureCompleted</text>
</a>
</g>
</g>
<!-- Node4&#45;&gt;Node6 -->
<g id="edge8_Node000004_Node000006" class="edge">
<title>Node4&#45;&gt;Node6</title>
<g id="a_edge8_Node000004_Node000006"><a xlink:title=" ">
<path fill="none" stroke="#63b8ff" d="M478.16,-19.19C465.35,-16.62 452.1,-14.38 439.5,-13 379.42,-6.4 363.94,-12.05 303.5,-13 291.09,-13.19 277.79,-13.53 265.16,-13.91"/>
<polygon fill="#63b8ff" stroke="#63b8ff" points="477.29,-22.59 487.8,-21.22 478.73,-15.74 477.29,-22.59"/>
</a>
</g>
</g>
<!-- Node8 -->
<g id="Node000008" class="node">
<title>Node8</title>
<g id="a_Node000008"><a xlink:href="class_u_irradiance_scheduler.html#a820fe9375420d4934dd45811ba7a419e" target="_top" xlink:title="Starts a full time&#45;series simulation using the given configuration.">
<polygon fill="white" stroke="#666666" points="426.38,-104 316.62,-104 316.62,-72 426.38,-72 426.38,-104"/>
<text xml:space="preserve" text-anchor="start" x="324.62" y="-90.5" font-family="Helvetica,sans-Serif" font-size="10.00">UIrradianceScheduler</text>
<text xml:space="preserve" text-anchor="middle" x="371.5" y="-78.5" font-family="Helvetica,sans-Serif" font-size="10.00">::StartSimulation</text>
</a>
</g>
</g>
<!-- Node4&#45;&gt;Node8 -->
<g id="edge9_Node000004_Node000008" class="edge">
<title>Node4&#45;&gt;Node8</title>
<g id="a_edge9_Node000004_Node000008"><a xlink:title=" ">
<path fill="none" stroke="#63b8ff" d="M482.18,-57.43C463.8,-62.55 444.24,-68 426.81,-72.86"/>
<polygon fill="#63b8ff" stroke="#63b8ff" points="482.99,-60.83 491.68,-54.78 481.11,-54.09 482.99,-60.83"/>
</a>
</g>
</g>
<!-- Node5&#45;&gt;Node4 -->
<g id="edge5_Node000005_Node000004" class="edge">
<title>Node5&#45;&gt;Node4</title>
<g id="a_edge5_Node000005_Node000004"><a xlink:title=" ">
<path fill="none" stroke="#63b8ff" d="M451.29,-44.71C459.17,-44.77 467.17,-44.76 475.02,-44.69"/>
<polygon fill="#63b8ff" stroke="#63b8ff" points="451.42,-41.21 441.37,-44.58 451.33,-48.21 451.42,-41.21"/>
</a>
</g>
</g>
<!-- Node5&#45;&gt;Node6 -->
<g id="edge6_Node000005_Node000006" class="edge">
<title>Node5&#45;&gt;Node6</title>
<g id="a_edge6_Node000005_Node000006"><a xlink:title=" ">
<path fill="none" stroke="#63b8ff" d="M291.98,-27.39C282.99,-26.18 273.95,-24.96 265.31,-23.79"/>
<polygon fill="#63b8ff" stroke="#63b8ff" points="291.43,-30.85 301.81,-28.72 292.37,-23.91 291.43,-30.85"/>
</a>
</g>
</g>
<!-- Node7 -->
<g id="Node000007" class="node">
<title>Node7</title>
<g id="a_Node000007"><a xlink:href="class_u_irradiance_scheduler.html#a46ab4ac00573e109d595d80669a8e156" target="_top" xlink:title=" ">
<polygon fill="white" stroke="#666666" points="109.75,-32 0,-32 0,0 109.75,0 109.75,-32"/>
<text xml:space="preserve" text-anchor="start" x="8" y="-18.5" font-family="Helvetica,sans-Serif" font-size="10.00">UIrradianceScheduler</text>
<text xml:space="preserve" text-anchor="middle" x="54.88" y="-6.5" font-family="Helvetica,sans-Serif" font-size="10.00">::Tick</text>
</a>
</g>
</g>
<!-- Node6&#45;&gt;Node7 -->
<g id="edge7_Node000006_Node000007" class="edge">
<title>Node6&#45;&gt;Node7</title>
<g id="a_edge7_Node000006_Node000007"><a xlink:title=" ">
<path fill="none" stroke="#63b8ff" d="M136.85,-16C127.84,-16 118.71,-16 109.99,-16"/>
<polygon fill="#63b8ff" stroke="#63b8ff" points="136.64,-19.5 146.64,-16 136.64,-12.5 136.64,-19.5"/>
</a>
</g>
</g>
<!-- Node8&#45;&gt;Node3 -->
<g id="edge10_Node000008_Node000003" class="edge">
<title>Node8&#45;&gt;Node3</title>
<g id="a_edge10_Node000008_Node000003"><a xlink:title=" ">
<path fill="none" stroke="#63b8ff" d="M305.12,-96.83C292.79,-98.5 279.96,-100.23 267.8,-101.87"/>
<polygon fill="#63b8ff" stroke="#63b8ff" points="305.32,-100.34 314.77,-95.53 304.39,-93.4 305.32,-100.34"/>
</a>
</g>
</g>
</g>
</svg>
