<?xml version="1.0" encoding="UTF-8" standalone="no"?>
<!DOCTYPE svg PUBLIC "-//W3C//DTD SVG 1.1//EN"
 "http://www.w3.org/Graphics/SVG/1.1/DTD/svg11.dtd">
<!-- Generated by graphviz version 14.1.0 (20251206.1807)
 -->
<!-- Title: UPyranoEditorSubsystem::CaptureOnce Pages: 1 -->
<svg width="1126pt" height="304pt"
 viewBox="0.00 0.00 1126.00 304.00" xmlns="http://www.w3.org/2000/svg" xmlns:xlink="http://www.w3.org/1999/xlink">
<g id="graph0" class="graph" transform="scale(1 1) rotate(0) translate(4 300.1)">
<title>UPyranoEditorSubsystem::CaptureOnce</title>
<!-- Node1 -->
<g id="Node000001" class="node">
<title>Node1</title>
<g id="a_Node000001"><a xlink:title="Starts a single capture pass in PIE and ends automatically.">
<polygon fill="#999999" stroke="#666666" points="129.25,-157 0,-157 0,-125 129.25,-125 129.25,-157"/>
<text xml:space="preserve" text-anchor="start" x="8" y="-143.5" font-family="Helvetica,sans-Serif" font-size="10.00">UPyranoEditorSubsystem</text>
<text xml:space="preserve" text-anchor="middle" x="64.62" y="-131.5" font-family="Helvetica,sans-Serif" font-size="10.00">::CaptureOnce</text>
</a>
</g>
</g>
<!-- Node2 -->
<g id="Node000002" class="node">
<title>Node2</title>
<g id="a_Node000002"><a xlink:href="class_u_pyrano_editor_subsystem.html#ab0ad1482f10e23d383332295e0ddac03" target="_top" xlink:title="Packs config and registers delegates before launching PIE.">
<polygon fill="white" stroke="#666666" points="294.5,-157 165.25,-157 165.25,-125 294.5,-125 294.5,-157"/>
<text xml:space="preserve" text-anchor="start" x="173.25" y="-143.5" font-family="Helvetica,sans-Serif" font-size="10.00">UPyranoEditorSubsystem</text>
<text xml:space="preserve" text-anchor="middle" x="229.88" y="-131.5" font-family="Helvetica,sans-Serif" font-size="10.00">::StartPIEWithConfig</text>
</a>
</g>
</g>
<!-- Node1&#45;&gt;Node2 -->
<g id="edge1_Node000001_Node000002" class="edge">
<title>Node1&#45;&gt;Node2</title>
<g id="a_edge1_Node000001_Node000002"><a xlink:title=" ">
<path fill="none" stroke="#63b8ff" d="M129.68,-141C137.57,-141 145.69,-141 153.73,-141"/>
<polygon fill="#63b8ff" stroke="#63b8ff" points="153.49,-144.5 163.49,-141 153.49,-137.5 153.49,-144.5"/>
</a>
</g>
</g>
<!-- Node3 -->
<g id="Node000003" class="node">
<title>Node3</title>
<g id="a_Node000003"><a xlink:href="class_u_pyrano_editor_subsystem.html#a1b69ad32d7aad1655e600c9802b7ef9d" target="_top" xlink:title="Internal callback executed when PIE ends.">
<polygon fill="white" stroke="#666666" points="459.75,-282 330.5,-282 330.5,-250 459.75,-250 459.75,-282"/>
<text xml:space="preserve" text-anchor="start" x="338.5" y="-268.5" font-family="Helvetica,sans-Serif" font-size="10.00">UPyranoEditorSubsystem</text>
<text xml:space="preserve" text-anchor="middle" x="395.12" y="-256.5" font-family="Helvetica,sans-Serif" font-size="10.00">::OnEndPIE</text>
</a>
</g>
</g>
<!-- Node2&#45;&gt;Node3 -->
<g id="edge2_Node000002_Node000003" class="edge">
<title>Node2&#45;&gt;Node3</title>
<g id="a_edge2_Node000002_Node000003"><a xlink:title=" ">
<path fill="none" stroke="#63b8ff" d="M252.22,-157.34C280.69,-179.15 331.28,-217.88 363.74,-242.73"/>
<polygon fill="#63b8ff" stroke="#63b8ff" points="361.51,-245.43 371.58,-248.73 365.76,-239.88 361.51,-245.43"/>
</a>
</g>
</g>
<!-- Node6 -->
<g id="Node000006" class="node">
<title>Node6</title>
<g id="a_Node000006"><a xlink:href="class_u_pyrano_editor_subsystem.html#ae6108e9fda1f9471c24a39988d5122d6" target="_top" xlink:title="Internal callback executed once PIE has fully started.">
<polygon fill="white" stroke="#666666" points="459.75,-157 330.5,-157 330.5,-125 459.75,-125 459.75,-157"/>
<text xml:space="preserve" text-anchor="start" x="338.5" y="-143.5" font-family="Helvetica,sans-Serif" font-size="10.00">UPyranoEditorSubsystem</text>
<text xml:space="preserve" text-anchor="middle" x="395.12" y="-131.5" font-family="Helvetica,sans-Serif" font-size="10.00">::OnPostPIEStarted</text>
</a>
</g>
</g>
<!-- Node2&#45;&gt;Node6 -->
<g id="edge5_Node000002_Node000006" class="edge">
<title>Node2&#45;&gt;Node6</title>
<g id="a_edge5_Node000002_Node000006"><a xlink:title=" ">
<path fill="none" stroke="#63b8ff" d="M294.93,-141C302.82,-141 310.94,-141 318.98,-141"/>
<polygon fill="#63b8ff" stroke="#63b8ff" points="318.74,-144.5 328.74,-141 318.74,-137.5 318.74,-144.5"/>
</a>
</g>
</g>
<!-- Node16 -->
<g id="Node000016" class="node">
<title>Node16</title>
<g id="a_Node000016"><a xlink:href="class_u_pyrano_editor_subsystem.html#a30bd4878e55cf4affd5d950f17e85062" target="_top" xlink:title="Creates a new standalone PIE window with the given size.">
<polygon fill="white" stroke="#666666" points="459.75,-107 330.5,-107 330.5,-75 459.75,-75 459.75,-107"/>
<text xml:space="preserve" text-anchor="start" x="338.5" y="-93.5" font-family="Helvetica,sans-Serif" font-size="10.00">UPyranoEditorSubsystem</text>
<text xml:space="preserve" text-anchor="middle" x="395.12" y="-81.5" font-family="Helvetica,sans-Serif" font-size="10.00">::StartNewPIE</text>
</a>
</g>
</g>
<!-- Node2&#45;&gt;Node16 -->
<g id="edge20_Node000002_Node000016" class="edge">
<title>Node2&#45;&gt;Node16</title>
<g id="a_edge20_Node000002_Node000016"><a xlink:title=" ">
<path fill="none" stroke="#63b8ff" d="M284.33,-124.63C298.77,-120.2 314.55,-115.37 329.53,-110.78"/>
<polygon fill="#63b8ff" stroke="#63b8ff" points="330.29,-114.21 338.82,-107.94 328.24,-107.52 330.29,-114.21"/>
</a>
</g>
</g>
<!-- Node4 -->
<g id="Node000004" class="node">
<title>Node4</title>
<g id="a_Node000004"><a xlink:href="class_u_pyrano_editor_subsystem.html#a2adad0d3fd5864acbe4205b167cf4937" target="_top" xlink:title="Returns the PIE world if running, otherwise the editor world.">
<polygon fill="white" stroke="#666666" points="802.25,-291 673,-291 673,-259 802.25,-259 802.25,-291"/>
<text xml:space="preserve" text-anchor="start" x="681" y="-277.5" font-family="Helvetica,sans-Serif" font-size="10.00">UPyranoEditorSubsystem</text>
<text xml:space="preserve" text-anchor="middle" x="737.62" y="-265.5" font-family="Helvetica,sans-Serif" font-size="10.00">::GetActiveWorld</text>
</a>
</g>
</g>
<!-- Node3&#45;&gt;Node4 -->
<g id="edge3_Node000003_Node000004" class="edge">
<title>Node3&#45;&gt;Node4</title>
<g id="a_edge3_Node000003_Node000004"><a xlink:title=" ">
<path fill="none" stroke="#63b8ff" d="M451.52,-282.46C465.8,-286 481.24,-289.21 495.75,-291 558.05,-298.7 574.42,-295.99 637,-291 644.98,-290.36 653.29,-289.44 661.56,-288.36"/>
<polygon fill="#63b8ff" stroke="#63b8ff" points="661.84,-291.86 671.26,-287.01 660.88,-284.92 661.84,-291.86"/>
</a>
</g>
</g>
<!-- Node5 -->
<g id="Node000005" class="node">
<title>Node5</title>
<g id="a_Node000005"><a xlink:href="namespace_f_irradiance_render_config.html#ad773a5b70d7c97b6076f1188cb90ab33" target="_top" xlink:title=" ">
<polygon fill="white" stroke="#666666" points="630.25,-282 502.5,-282 502.5,-250 630.25,-250 630.25,-282"/>
<text xml:space="preserve" text-anchor="start" x="510.5" y="-268.5" font-family="Helvetica,sans-Serif" font-size="10.00">FIrradianceRenderConfig</text>
<text xml:space="preserve" text-anchor="middle" x="566.38" y="-256.5" font-family="Helvetica,sans-Serif" font-size="10.00">::RestoreIrradianceConfig</text>
</a>
</g>
</g>
<!-- Node3&#45;&gt;Node5 -->
<g id="edge4_Node000003_Node000005" class="edge">
<title>Node3&#45;&gt;Node5</title>
<g id="a_edge4_Node000003_Node000005"><a xlink:title=" ">
<path fill="none" stroke="#63b8ff" d="M460.11,-266C470.11,-266 480.52,-266 490.73,-266"/>
<polygon fill="#63b8ff" stroke="#63b8ff" points="490.63,-269.5 500.63,-266 490.63,-262.5 490.63,-269.5"/>
</a>
</g>
</g>
<!-- Node7 -->
<g id="Node000007" class="node">
<title>Node7</title>
<g id="a_Node000007"><a xlink:href="class_u_pyrano_editor_subsystem.html#ab354ffee4ea9cc5e40566874111fd461" target="_top" xlink:title="Applies Render/Irradiance CVars before starting PIE.">
<polygon fill="white" stroke="#666666" points="631,-132 501.75,-132 501.75,-100 631,-100 631,-132"/>
<text xml:space="preserve" text-anchor="start" x="509.75" y="-118.5" font-family="Helvetica,sans-Serif" font-size="10.00">UPyranoEditorSubsystem</text>
<text xml:space="preserve" text-anchor="middle" x="566.38" y="-106.5" font-family="Helvetica,sans-Serif" font-size="10.00">::ApplyCVarConfig</text>
</a>
</g>
</g>
<!-- Node6&#45;&gt;Node7 -->
<g id="edge6_Node000006_Node000007" class="edge">
<title>Node6&#45;&gt;Node7</title>
<g id="a_edge6_Node000006_Node000007"><a xlink:title=" ">
<path fill="none" stroke="#63b8ff" d="M460.11,-131.55C469.91,-130.1 480.09,-128.6 490.1,-127.12"/>
<polygon fill="#63b8ff" stroke="#63b8ff" points="490.42,-130.61 499.8,-125.69 489.4,-123.68 490.42,-130.61"/>
</a>
</g>
</g>
<!-- Node11 -->
<g id="Node000011" class="node">
<title>Node11</title>
<g id="a_Node000011"><a xlink:href="class_u_pyrano_editor_subsystem.html#ab0de335beccfcc58219f322f7d03a67c" target="_top" xlink:title="Ensures the PIE world is standalone or client (not server).">
<polygon fill="white" stroke="#666666" points="637,-82 495.75,-82 495.75,-50 637,-50 637,-82"/>
<text xml:space="preserve" text-anchor="start" x="503.75" y="-68.5" font-family="Helvetica,sans-Serif" font-size="10.00">UPyranoEditorSubsystem</text>
<text xml:space="preserve" text-anchor="middle" x="566.38" y="-56.5" font-family="Helvetica,sans-Serif" font-size="10.00">::EnsureLocalStandalonePIE</text>
</a>
</g>
</g>
<!-- Node6&#45;&gt;Node11 -->
<g id="edge11_Node000006_Node000011" class="edge">
<title>Node6&#45;&gt;Node11</title>
<g id="a_edge11_Node000006_Node000011"><a xlink:title=" ">
<path fill="none" stroke="#63b8ff" d="M441.89,-124.51C448,-121.88 454.1,-119.02 459.75,-116 476.93,-106.82 478.43,-99.92 495.75,-91 498.44,-89.61 501.22,-88.27 504.06,-86.98"/>
<polygon fill="#63b8ff" stroke="#63b8ff" points="505.31,-90.25 513.12,-83.09 502.55,-83.82 505.31,-90.25"/>
</a>
</g>
</g>
<!-- Node12 -->
<g id="Node000012" class="node">
<title>Node12</title>
<g id="a_Node000012"><a xlink:href="class_u_pyrano_editor_subsystem.html#ac3e1f1b78bd830e95a7b52fc3bff7ed9" target="_top" xlink:title="Ensures that the PIE world exists and is ready; retries if not.">
<polygon fill="white" stroke="#666666" points="631,-232 501.75,-232 501.75,-200 631,-200 631,-232"/>
<text xml:space="preserve" text-anchor="start" x="509.75" y="-218.5" font-family="Helvetica,sans-Serif" font-size="10.00">UPyranoEditorSubsystem</text>
<text xml:space="preserve" text-anchor="middle" x="566.38" y="-206.5" font-family="Helvetica,sans-Serif" font-size="10.00">::EnsurePIEWorld</text>
</a>
</g>
</g>
<!-- Node6&#45;&gt;Node12 -->
<g id="edge12_Node000006_Node000012" class="edge">
<title>Node6&#45;&gt;Node12</title>
<g id="a_edge12_Node000006_Node000012"><a xlink:title=" ">
<path fill="none" stroke="#63b8ff" d="M442.96,-157.47C459.44,-165.36 478.23,-174.49 495.75,-182 506.46,-186.59 518.33,-191.07 529.19,-195.34"/>
<polygon fill="#63b8ff" stroke="#63b8ff" points="527.64,-198.49 538.22,-198.97 530.25,-191.99 527.64,-198.49"/>
</a>
</g>
</g>
<!-- Node14 -->
<g id="Node000014" class="node">
<title>Node14</title>
<g id="a_Node000014"><a xlink:href="class_u_pyrano_editor_subsystem.html#a5bd1813278b5277f9b9677faf4bc9d85" target="_top" xlink:title="Verifies that the game viewport is initialized and visible.">
<polygon fill="white" stroke="#666666" points="631,-32 501.75,-32 501.75,0 631,0 631,-32"/>
<text xml:space="preserve" text-anchor="start" x="509.75" y="-18.5" font-family="Helvetica,sans-Serif" font-size="10.00">UPyranoEditorSubsystem</text>
<text xml:space="preserve" text-anchor="middle" x="566.38" y="-6.5" font-family="Helvetica,sans-Serif" font-size="10.00">::EnsureViewportReady</text>
</a>
</g>
</g>
<!-- Node6&#45;&gt;Node14 -->
<g id="edge16_Node000006_Node000014" class="edge">
<title>Node6&#45;&gt;Node14</title>
<g id="a_edge16_Node000006_Node000014"><a xlink:title=" ">
<path fill="none" stroke="#63b8ff" d="M429.51,-124.61C440.14,-120.32 451.32,-114.84 459.75,-107 484.29,-84.19 471.37,-61.47 493.45,-35.56"/>
<polygon fill="#63b8ff" stroke="#63b8ff" points="495.9,-38.06 500.44,-28.48 490.92,-33.14 495.9,-38.06"/>
</a>
</g>
</g>
<!-- Node15 -->
<g id="Node000015" class="node">
<title>Node15</title>
<g id="a_Node000015"><a xlink:href="class_u_pyrano_editor_subsystem.html#aac7636240544517fce7c46ac0df245a3" target="_top" xlink:title="Delays simulation start and monitors when it finishes.">
<polygon fill="white" stroke="#666666" points="632.88,-182 499.88,-182 499.88,-150 632.88,-150 632.88,-182"/>
<text xml:space="preserve" text-anchor="start" x="507.88" y="-168.5" font-family="Helvetica,sans-Serif" font-size="10.00">UPyranoEditorSubsystem</text>
<text xml:space="preserve" text-anchor="middle" x="566.38" y="-156.5" font-family="Helvetica,sans-Serif" font-size="10.00">::ScheduleStartAndMonitor</text>
</a>
</g>
</g>
<!-- Node6&#45;&gt;Node15 -->
<g id="edge18_Node000006_Node000015" class="edge">
<title>Node6&#45;&gt;Node15</title>
<g id="a_edge18_Node000006_Node000015"><a xlink:title=" ">
<path fill="none" stroke="#63b8ff" d="M460.11,-150.45C469.3,-151.81 478.82,-153.22 488.23,-154.6"/>
<polygon fill="#63b8ff" stroke="#63b8ff" points="487.71,-158.07 498.11,-156.06 488.73,-151.14 487.71,-158.07"/>
</a>
</g>
</g>
<!-- Node8 -->
<g id="Node000008" class="node">
<title>Node8</title>
<g id="a_Node000008"><a xlink:href="namespace_f_irradiance_render_config.html#a2880f5d9df2d1f4e81ecb89ca2f4e0e6" target="_top" xlink:title=" ">
<polygon fill="white" stroke="#666666" points="800,-132 675.25,-132 675.25,-100 800,-100 800,-132"/>
<text xml:space="preserve" text-anchor="start" x="683.25" y="-118.5" font-family="Helvetica,sans-Serif" font-size="10.00">FIrradianceRenderConfig</text>
<text xml:space="preserve" text-anchor="middle" x="737.62" y="-106.5" font-family="Helvetica,sans-Serif" font-size="10.00">::ApplyIrradianceConfig</text>
</a>
</g>
</g>
<!-- Node7&#45;&gt;Node8 -->
<g id="edge7_Node000007_Node000008" class="edge">
<title>Node7&#45;&gt;Node8</title>
<g id="a_edge7_Node000007_Node000008"><a xlink:title=" ">
<path fill="none" stroke="#63b8ff" d="M631.36,-116C641.81,-116 652.71,-116 663.36,-116"/>
<polygon fill="#63b8ff" stroke="#63b8ff" points="663.27,-119.5 673.27,-116 663.27,-112.5 663.27,-119.5"/>
</a>
</g>
</g>
<!-- Node9 -->
<g id="Node000009" class="node">
<title>Node9</title>
<g id="a_Node000009"><a xlink:href="namespaceanonymous__namespace_02_irradiance_configuration_8cpp_03.html#aad684e2485baaa38779ecb26af25cc94" target="_top" xlink:title=" ">
<polygon fill="white" stroke="#666666" points="960,-113 838.25,-113 838.25,-69 960,-69 960,-113"/>
<text xml:space="preserve" text-anchor="start" x="846.25" y="-99.5" font-family="Helvetica,sans-Serif" font-size="10.00">anonymous_namespace</text>
<text xml:space="preserve" text-anchor="start" x="846.25" y="-87.5" font-family="Helvetica,sans-Serif" font-size="10.00">{IrradianceConfiguration</text>
<text xml:space="preserve" text-anchor="middle" x="899.12" y="-75.5" font-family="Helvetica,sans-Serif" font-size="10.00">::cpp}::ApplyGroup</text>
</a>
</g>
</g>
<!-- Node8&#45;&gt;Node9 -->
<g id="edge8_Node000008_Node000009" class="edge">
<title>Node8&#45;&gt;Node9</title>
<g id="a_edge8_Node000008_Node000009"><a xlink:title=" ">
<path fill="none" stroke="#63b8ff" d="M800.29,-106.33C808.98,-104.97 817.98,-103.56 826.83,-102.17"/>
<polygon fill="#63b8ff" stroke="#63b8ff" points="827.1,-105.68 836.44,-100.67 826.02,-98.76 827.1,-105.68"/>
</a>
</g>
</g>
<!-- Node10 -->
<g id="Node000010" class="node">
<title>Node10</title>
<g id="a_Node000010"><a xlink:href="namespaceanonymous__namespace_02_irradiance_configuration_8cpp_03.html#aca5fa9f954f01057940a973680cd4d9a" target="_top" xlink:title=" ">
<polygon fill="white" stroke="#666666" points="1117.75,-138 996,-138 996,-94 1117.75,-94 1117.75,-138"/>
<text xml:space="preserve" text-anchor="start" x="1004" y="-124.5" font-family="Helvetica,sans-Serif" font-size="10.00">anonymous_namespace</text>
<text xml:space="preserve" text-anchor="start" x="1004" y="-112.5" font-family="Helvetica,sans-Serif" font-size="10.00">{IrradianceConfiguration</text>
<text xml:space="preserve" text-anchor="middle" x="1056.88" y="-100.5" font-family="Helvetica,sans-Serif" font-size="10.00">::cpp}::SaveAndSetInt</text>
</a>
</g>
</g>
<!-- Node8&#45;&gt;Node10 -->
<g id="edge10_Node000008_Node000010" class="edge">
<title>Node8&#45;&gt;Node10</title>
<g id="a_edge10_Node000008_Node000010"><a xlink:title=" ">
<path fill="none" stroke="#63b8ff" d="M800.25,-120.29C812.81,-121 825.95,-121.63 838.25,-122 892.34,-123.63 905.92,-123.69 960,-122 967.82,-121.76 975.99,-121.4 984.12,-120.98"/>
<polygon fill="#63b8ff" stroke="#63b8ff" points="984.25,-124.48 994.04,-120.43 983.86,-117.49 984.25,-124.48"/>
</a>
</g>
</g>
<!-- Node9&#45;&gt;Node10 -->
<g id="edge9_Node000009_Node000010" class="edge">
<title>Node9&#45;&gt;Node10</title>
<g id="a_edge9_Node000009_Node000010"><a xlink:title=" ">
<path fill="none" stroke="#63b8ff" d="M960.34,-100.67C968.2,-101.93 976.3,-103.23 984.32,-104.51"/>
<polygon fill="#63b8ff" stroke="#63b8ff" points="983.64,-107.95 994.07,-106.08 984.75,-101.04 983.64,-107.95"/>
</a>
</g>
</g>
<!-- Node12&#45;&gt;Node4 -->
<g id="edge13_Node000012_Node000004" class="edge">
<title>Node12&#45;&gt;Node4</title>
<g id="a_edge13_Node000012_Node000004"><a xlink:title=" ">
<path fill="none" stroke="#63b8ff" d="M614.52,-232.43C634.43,-239.37 657.8,-247.52 678.74,-254.82"/>
<polygon fill="#63b8ff" stroke="#63b8ff" points="677.42,-258.07 688.01,-258.05 679.72,-251.46 677.42,-258.07"/>
</a>
</g>
</g>
<!-- Node12&#45;&gt;Node6 -->
<g id="edge15_Node000012_Node000006" class="edge">
<title>Node12&#45;&gt;Node6</title>
<g id="a_edge15_Node000012_Node000006"><a xlink:title=" ">
<path fill="none" stroke="#63b8ff" d="M501.51,-202.41C499.56,-201.62 497.64,-200.81 495.75,-200 470.76,-189.29 443.19,-175.27 423.4,-163.32"/>
<polygon fill="#63b8ff" stroke="#63b8ff" points="425.42,-160.46 415.1,-158.09 421.69,-166.38 425.42,-160.46"/>
</a>
</g>
</g>
<!-- Node13 -->
<g id="Node000013" class="node">
<title>Node13</title>
<g id="a_Node000013"><a xlink:href="namespace_pyrano_editor_utils.html#ad1d7ad11514ffa4c9c0506a310f89295" target="_top" xlink:title=" ">
<polygon fill="white" stroke="#666666" points="786.88,-207 688.38,-207 688.38,-175 786.88,-175 786.88,-207"/>
<text xml:space="preserve" text-anchor="start" x="696.38" y="-193.5" font-family="Helvetica,sans-Serif" font-size="10.00">PyranoEditorUtils::</text>
<text xml:space="preserve" text-anchor="middle" x="737.62" y="-181.5" font-family="Helvetica,sans-Serif" font-size="10.00">GetPIEWorld</text>
</a>
</g>
</g>
<!-- Node12&#45;&gt;Node13 -->
<g id="edge14_Node000012_Node000013" class="edge">
<title>Node12&#45;&gt;Node13</title>
<g id="a_edge14_Node000012_Node000013"><a xlink:title=" ">
<path fill="none" stroke="#63b8ff" d="M631.36,-206.55C646.35,-204.33 662.27,-201.98 677.06,-199.8"/>
<polygon fill="#63b8ff" stroke="#63b8ff" points="677.24,-203.31 686.62,-198.39 676.22,-196.38 677.24,-203.31"/>
</a>
</g>
</g>
<!-- Node14&#45;&gt;Node6 -->
<g id="edge17_Node000014_Node000006" class="edge">
<title>Node14&#45;&gt;Node6</title>
<g id="a_edge17_Node000014_Node000006"><a xlink:title=" ">
<path fill="none" stroke="#63b8ff" d="M527.06,-32.47C515.98,-36.63 504.52,-42.09 495.75,-50 471.5,-71.88 483.13,-93.98 467.52,-116.19"/>
<polygon fill="#63b8ff" stroke="#63b8ff" points="465.01,-113.74 461.06,-123.57 470.28,-118.34 465.01,-113.74"/>
</a>
</g>
</g>
<!-- Node15&#45;&gt;Node13 -->
<g id="edge19_Node000015_Node000013" class="edge">
<title>Node15&#45;&gt;Node13</title>
<g id="a_edge19_Node000015_Node000013"><a xlink:title=" ">
<path fill="none" stroke="#63b8ff" d="M633.3,-175.74C647.65,-177.86 662.76,-180.09 676.86,-182.17"/>
<polygon fill="#63b8ff" stroke="#63b8ff" points="676.02,-185.59 686.42,-183.58 677.04,-178.66 676.02,-185.59"/>
</a>
</g>
</g>
</g>
</svg>
