<?xml version="1.0" encoding="UTF-8" standalone="no"?>
<!DOCTYPE svg PUBLIC "-//W3C//DTD SVG 1.1//EN"
 "http://www.w3.org/Graphics/SVG/1.1/DTD/svg11.dtd">
<!-- Generated by graphviz version 14.1.0 (20251206.1807)
 -->
<!-- Title: UIrradianceSubsystem::StartFaceCapture Pages: 1 -->
<svg width="442pt" height="62pt"
 viewBox="0.00 0.00 442.00 62.00" xmlns="http://www.w3.org/2000/svg" xmlns:xlink="http://www.w3.org/1999/xlink">
<g id="graph0" class="graph" transform="scale(1 1) rotate(0) translate(4 58)">
<title>UIrradianceSubsystem::StartFaceCapture</title>
<!-- Node1 -->
<g id="Node000001" class="node">
<title>Node1</title>
<g id="a_Node000001"><a xlink:title="Start capture of a single face at PosWS / RotWS.">
<polygon fill="#999999" stroke="#666666" points="115.75,-32 0,-32 0,0 115.75,0 115.75,-32"/>
<text xml:space="preserve" text-anchor="start" x="8" y="-18.5" font-family="Helvetica,sans-Serif" font-size="10.00">UIrradianceSubsystem</text>
<text xml:space="preserve" text-anchor="middle" x="57.88" y="-6.5" font-family="Helvetica,sans-Serif" font-size="10.00">::StartFaceCapture</text>
</a>
</g>
</g>
<!-- Node2 -->
<g id="Node000002" class="node">
<title>Node2</title>
<g id="a_Node000002"><a xlink:href="class_u_irradiance_subsystem.html#a07d7292927f509ea227ab101994ab4b6" target="_top" xlink:title="Ensure that the capture camera exists and is configured.">
<polygon fill="white" stroke="#666666" points="273.5,-54 151.75,-54 151.75,-22 273.5,-22 273.5,-54"/>
<text xml:space="preserve" text-anchor="start" x="159.75" y="-40.5" font-family="Helvetica,sans-Serif" font-size="10.00">UIrradianceSubsystem</text>
<text xml:space="preserve" text-anchor="middle" x="212.62" y="-28.5" font-family="Helvetica,sans-Serif" font-size="10.00">::EnsureCaptureCamera</text>
</a>
</g>
</g>
<!-- Node1&#45;&gt;Node2 -->
<g id="edge1_Node000001_Node000002" class="edge">
<title>Node1&#45;&gt;Node2</title>
<g id="a_edge1_Node000001_Node000002"><a xlink:title=" ">
<path fill="none" stroke="#63b8ff" d="M116.19,-24.25C124.01,-25.38 132.12,-26.55 140.16,-27.71"/>
<polygon fill="#63b8ff" stroke="#63b8ff" points="139.54,-31.15 149.94,-29.12 140.54,-24.23 139.54,-31.15"/>
</a>
</g>
</g>
<!-- Node3 -->
<g id="Node000003" class="node">
<title>Node3</title>
<g id="a_Node000003"><a xlink:href="namespace_irradiance_common_1_1_utils.html#acd21b099951e95f67c7a758546ac9875" target="_top" xlink:title="Tries to return a game world suitable for rendering / scheduling.">
<polygon fill="white" stroke="#666666" points="434.25,-32 309.5,-32 309.5,0 434.25,0 434.25,-32"/>
<text xml:space="preserve" text-anchor="start" x="317.5" y="-18.5" font-family="Helvetica,sans-Serif" font-size="10.00">IrradianceCommon::Utils</text>
<text xml:space="preserve" text-anchor="middle" x="371.88" y="-6.5" font-family="Helvetica,sans-Serif" font-size="10.00">::GetGameWorldSafe</text>
</a>
</g>
</g>
<!-- Node1&#45;&gt;Node3 -->
<g id="edge3_Node000001_Node000003" class="edge">
<title>Node1&#45;&gt;Node3</title>
<g id="a_edge3_Node000001_Node000003"><a xlink:title=" ">
<path fill="none" stroke="#63b8ff" d="M115.84,-13.87C127.71,-13.51 140.14,-13.19 151.75,-13 205.85,-12.13 219.4,-12.17 273.5,-13 281.32,-13.12 289.48,-13.3 297.62,-13.5"/>
<polygon fill="#63b8ff" stroke="#63b8ff" points="297.46,-17 307.55,-13.77 297.65,-10 297.46,-17"/>
</a>
</g>
</g>
<!-- Node2&#45;&gt;Node3 -->
<g id="edge2_Node000002_Node000003" class="edge">
<title>Node2&#45;&gt;Node3</title>
<g id="a_edge2_Node000002_Node000003"><a xlink:title=" ">
<path fill="none" stroke="#63b8ff" d="M273.97,-29.56C281.8,-28.46 289.89,-27.33 297.89,-26.21"/>
<polygon fill="#63b8ff" stroke="#63b8ff" points="298.21,-29.7 307.63,-24.85 297.24,-22.77 298.21,-29.7"/>
</a>
</g>
</g>
</g>
</svg>
