<?xml version="1.0" encoding="UTF-8" standalone="no"?>
<!DOCTYPE svg PUBLIC "-//W3C//DTD SVG 1.1//EN"
 "http://www.w3.org/Graphics/SVG/1.1/DTD/svg11.dtd">
<!-- Generated by graphviz version 14.1.0 (20251206.1807)
 -->
<!-- Title: USunSkyController::UpdateSun Pages: 1 -->
<svg width="256pt" height="90pt"
 viewBox="0.00 0.00 256.00 90.00" xmlns="http://www.w3.org/2000/svg" xmlns:xlink="http://www.w3.org/1999/xlink">
<g id="graph0" class="graph" transform="scale(1 1) rotate(0) translate(4 86)">
<title>USunSkyController::UpdateSun</title>
<!-- Node1 -->
<g id="Node000001" class="node">
<title>Node1</title>
<g id="a_Node000001"><a xlink:title="Forces SunSky to rebuild via RerunConstructionScripts.">
<polygon fill="#999999" stroke="#666666" points="248,-57 142,-57 142,-25 248,-25 248,-57"/>
<text xml:space="preserve" text-anchor="start" x="150" y="-43.5" font-family="Helvetica,sans-Serif" font-size="10.00">USunSkyController::</text>
<text xml:space="preserve" text-anchor="middle" x="195" y="-31.5" font-family="Helvetica,sans-Serif" font-size="10.00">UpdateSun</text>
</a>
</g>
</g>
<!-- Node2 -->
<g id="Node000002" class="node">
<title>Node2</title>
<g id="a_Node000002"><a xlink:href="class_u_sun_sky_controller.html#acdb2373863253da9f5d1cd1f79c24ffd" target="_top" xlink:title="Applies static SunSky configuration (location, timezone, north offset, DST flag).">
<polygon fill="white" stroke="#666666" points="106,-82 0,-82 0,-50 106,-50 106,-82"/>
<text xml:space="preserve" text-anchor="start" x="8" y="-68.5" font-family="Helvetica,sans-Serif" font-size="10.00">USunSkyController::</text>
<text xml:space="preserve" text-anchor="middle" x="53" y="-56.5" font-family="Helvetica,sans-Serif" font-size="10.00">ApplyStaticConfig</text>
</a>
</g>
</g>
<!-- Node1&#45;&gt;Node2 -->
<g id="edge1_Node000001_Node000002" class="edge">
<title>Node1&#45;&gt;Node2</title>
<g id="a_edge1_Node000001_Node000002"><a xlink:title=" ">
<path fill="none" stroke="#63b8ff" d="M130.77,-52.29C122.55,-53.76 114.19,-55.25 106.17,-56.68"/>
<polygon fill="#63b8ff" stroke="#63b8ff" points="131.15,-55.78 140.38,-50.58 129.92,-48.89 131.15,-55.78"/>
</a>
</g>
</g>
<!-- Node3 -->
<g id="Node000003" class="node">
<title>Node3</title>
<g id="a_Node000003"><a xlink:href="class_u_sun_sky_controller.html#a7b869177273a8632f9fe83cdce10145d" target="_top" xlink:title="Sets the SunSky date and time from a UTC timestamp(applies configured timezone).">
<polygon fill="white" stroke="#666666" points="106,-32 0,-32 0,0 106,0 106,-32"/>
<text xml:space="preserve" text-anchor="start" x="8" y="-18.5" font-family="Helvetica,sans-Serif" font-size="10.00">USunSkyController::</text>
<text xml:space="preserve" text-anchor="middle" x="53" y="-6.5" font-family="Helvetica,sans-Serif" font-size="10.00">SetUTC</text>
</a>
</g>
</g>
<!-- Node1&#45;&gt;Node3 -->
<g id="edge2_Node000001_Node000003" class="edge">
<title>Node1&#45;&gt;Node3</title>
<g id="a_edge2_Node000001_Node000003"><a xlink:title=" ">
<path fill="none" stroke="#63b8ff" d="M130.77,-29.71C122.55,-28.24 114.19,-26.75 106.17,-25.32"/>
<polygon fill="#63b8ff" stroke="#63b8ff" points="129.92,-33.11 140.38,-31.42 131.15,-26.22 129.92,-33.11"/>
</a>
</g>
</g>
</g>
</svg>
