<?xml version="1.0" encoding="UTF-8" standalone="no"?>
<!DOCTYPE svg PUBLIC "-//W3C//DTD SVG 1.1//EN"
 "http://www.w3.org/Graphics/SVG/1.1/DTD/svg11.dtd">
<!-- Generated by graphviz version 14.1.0 (20251206.1807)
 -->
<!-- Title: Graphical Class Hierarchy Pages: 1 -->
<svg width="273pt" height="104pt"
 viewBox="0.00 0.00 273.00 104.00" xmlns="http://www.w3.org/2000/svg" xmlns:xlink="http://www.w3.org/1999/xlink">
<g id="graph0" class="graph" transform="scale(1 1) rotate(0) translate(4 100)">
<title>Graphical Class Hierarchy</title>
<!-- Node0 -->
<g id="Node000000" class="node">
<title>Node0</title>
<g id="a_Node000000"><a xlink:title=" ">
<polygon fill="#e0e0e0" stroke="#999999" points="113.5,-96 0,-96 0,-76 113.5,-76 113.5,-96"/>
<text xml:space="preserve" text-anchor="middle" x="56.75" y="-82.5" font-family="Helvetica,sans-Serif" font-size="10.00">FTickableGameObject</text>
</a>
</g>
</g>
<!-- Node1 -->
<g id="Node000001" class="node">
<title>Node1</title>
<g id="a_Node000001"><a xlink:href="class_u_irradiance_scheduler.html" target="_top" xlink:title=" ">
<polygon fill="white" stroke="#666666" points="262.25,-58 152.5,-58 152.5,-38 262.25,-38 262.25,-58"/>
<text xml:space="preserve" text-anchor="middle" x="207.38" y="-44.5" font-family="Helvetica,sans-Serif" font-size="10.00">UIrradianceScheduler</text>
</a>
</g>
</g>
<!-- Node0&#45;&gt;Node1 -->
<g id="edge5_Node000000_Node000001" class="edge">
<title>Node0&#45;&gt;Node1</title>
<g id="a_edge5_Node000000_Node000001"><a xlink:title=" ">
<path fill="none" stroke="#63b8ff" d="M109.82,-72.69C128.07,-68.02 148.3,-62.85 165.5,-58.45"/>
<polygon fill="#63b8ff" stroke="#63b8ff" points="109.04,-69.27 100.22,-75.14 110.78,-76.05 109.04,-69.27"/>
</a>
</g>
</g>
<!-- Node3 -->
<g id="Node000003" class="node">
<title>Node3</title>
<g id="a_Node000003"><a xlink:href="class_u_irradiance_subsystem.html" target="_top" xlink:title=" ">
<polygon fill="white" stroke="#666666" points="265.25,-96 149.5,-96 149.5,-76 265.25,-76 265.25,-96"/>
<text xml:space="preserve" text-anchor="middle" x="207.38" y="-82.5" font-family="Helvetica,sans-Serif" font-size="10.00">UIrradianceSubsystem</text>
</a>
</g>
</g>
<!-- Node0&#45;&gt;Node3 -->
<g id="edge6_Node000000_Node000003" class="edge">
<title>Node0&#45;&gt;Node3</title>
<g id="a_edge6_Node000000_Node000003"><a xlink:title=" ">
<path fill="none" stroke="#63b8ff" d="M125.42,-86C133.34,-86 141.36,-86 149.12,-86"/>
<polygon fill="#63b8ff" stroke="#63b8ff" points="125.45,-82.5 115.45,-86 125.45,-89.5 125.45,-82.5"/>
</a>
</g>
</g>
<!-- Node2 -->
<g id="Node000002" class="node">
<title>Node2</title>
<g id="a_Node000002"><a xlink:title=" ">
<polygon fill="#e0e0e0" stroke="#999999" points="105.62,-58 7.88,-58 7.88,-38 105.62,-38 105.62,-58"/>
<text xml:space="preserve" text-anchor="middle" x="56.75" y="-44.5" font-family="Helvetica,sans-Serif" font-size="10.00">UWorldSubsystem</text>
</a>
</g>
</g>
<!-- Node2&#45;&gt;Node1 -->
<g id="edge7_Node000002_Node000001" class="edge">
<title>Node2&#45;&gt;Node1</title>
<g id="a_edge7_Node000002_Node000001"><a xlink:title=" ">
<path fill="none" stroke="#63b8ff" d="M117.32,-48C128.84,-48 140.85,-48 152.18,-48"/>
<polygon fill="#63b8ff" stroke="#63b8ff" points="117.52,-44.5 107.52,-48 117.52,-51.5 117.52,-44.5"/>
</a>
</g>
</g>
<!-- Node2&#45;&gt;Node3 -->
<g id="edge8_Node000002_Node000003" class="edge">
<title>Node2&#45;&gt;Node3</title>
<g id="a_edge8_Node000002_Node000003"><a xlink:title=" ">
<path fill="none" stroke="#63b8ff" d="M109.82,-61.31C128.07,-65.98 148.3,-71.15 165.5,-75.55"/>
<polygon fill="#63b8ff" stroke="#63b8ff" points="110.78,-57.95 100.22,-58.86 109.04,-64.73 110.78,-57.95"/>
</a>
</g>
</g>
<!-- Node4 -->
<g id="Node000004" class="node">
<title>Node4</title>
<g id="a_Node000004"><a xlink:href="class_u_sun_sky_controller.html" target="_top" xlink:title=" ">
<polygon fill="white" stroke="#666666" points="257.38,-20 157.38,-20 157.38,0 257.38,0 257.38,-20"/>
<text xml:space="preserve" text-anchor="middle" x="207.38" y="-6.5" font-family="Helvetica,sans-Serif" font-size="10.00">USunSkyController</text>
</a>
</g>
</g>
<!-- Node2&#45;&gt;Node4 -->
<g id="edge9_Node000002_Node000004" class="edge">
<title>Node2&#45;&gt;Node4</title>
<g id="a_edge9_Node000002_Node000004"><a xlink:title=" ">
<path fill="none" stroke="#63b8ff" d="M109.82,-34.69C128.07,-30.02 148.3,-24.85 165.5,-20.45"/>
<polygon fill="#63b8ff" stroke="#63b8ff" points="109.04,-31.27 100.22,-37.14 110.78,-38.05 109.04,-31.27"/>
</a>
</g>
</g>
</g>
</svg>
