<?xml version="1.0" encoding="UTF-8" standalone="no"?>
<!DOCTYPE svg PUBLIC "-//W3C//DTD SVG 1.1//EN"
 "http://www.w3.org/Graphics/SVG/1.1/DTD/svg11.dtd">
<!-- Generated by graphviz version 14.1.0 (20251206.1807)
 -->
<!-- Title: Graphical Class Hierarchy Pages: 1 -->
<svg width="242pt" height="66pt"
 viewBox="0.00 0.00 242.00 66.00" xmlns="http://www.w3.org/2000/svg" xmlns:xlink="http://www.w3.org/1999/xlink">
<g id="graph0" class="graph" transform="scale(1 1) rotate(0) translate(4 62)">
<title>Graphical Class Hierarchy</title>
<!-- Node0 -->
<g id="Node000000" class="node">
<title>Node0</title>
<g id="a_Node000000"><a xlink:title=" ">
<polygon fill="#e0e0e0" stroke="#999999" points="80.5,-39 0,-39 0,-19 80.5,-19 80.5,-39"/>
<text xml:space="preserve" text-anchor="middle" x="40.25" y="-25.5" font-family="Helvetica,sans-Serif" font-size="10.00">FGlobalShader</text>
</a>
</g>
</g>
<!-- Node1 -->
<g id="Node000001" class="node">
<title>Node1</title>
<g id="a_Node000001"><a xlink:href="class_f_irradiance_integrate_c_s.html" target="_top" xlink:title=" ">
<polygon fill="white" stroke="#666666" points="233.75,-58 116.5,-58 116.5,-38 233.75,-38 233.75,-58"/>
<text xml:space="preserve" text-anchor="middle" x="175.12" y="-44.5" font-family="Helvetica,sans-Serif" font-size="10.00">FIrradianceIntegrateCS</text>
</a>
</g>
</g>
<!-- Node0&#45;&gt;Node1 -->
<g id="edge1_Node000000_Node000001" class="edge">
<title>Node0&#45;&gt;Node1</title>
<g id="a_edge1_Node000000_Node000001"><a xlink:title=" ">
<path fill="none" stroke="#63b8ff" d="M92.09,-36.27C100.02,-37.4 108.26,-38.58 116.33,-39.74"/>
<polygon fill="#63b8ff" stroke="#63b8ff" points="92.65,-32.81 82.26,-34.86 91.66,-39.74 92.65,-32.81"/>
</a>
</g>
</g>
<!-- Node2 -->
<g id="Node000002" class="node">
<title>Node2</title>
<g id="a_Node000002"><a xlink:href="class_f_irradiance_reduce_c_s.html" target="_top" xlink:title=" ">
<polygon fill="white" stroke="#666666" points="231.5,-20 118.75,-20 118.75,0 231.5,0 231.5,-20"/>
<text xml:space="preserve" text-anchor="middle" x="175.12" y="-6.5" font-family="Helvetica,sans-Serif" font-size="10.00">FIrradianceReduceCS</text>
</a>
</g>
</g>
<!-- Node0&#45;&gt;Node2 -->
<g id="edge2_Node000000_Node000002" class="edge">
<title>Node0&#45;&gt;Node2</title>
<g id="a_edge2_Node000000_Node000002"><a xlink:title=" ">
<path fill="none" stroke="#63b8ff" d="M92.14,-21.72C100.7,-20.5 109.62,-19.22 118.3,-17.98"/>
<polygon fill="#63b8ff" stroke="#63b8ff" points="91.66,-18.26 82.26,-23.14 92.65,-25.19 91.66,-18.26"/>
</a>
</g>
</g>
</g>
</svg>
