<?xml version="1.0" encoding="UTF-8" standalone="no"?>
<!DOCTYPE svg PUBLIC "-//W3C//DTD SVG 1.1//EN"
 "http://www.w3.org/Graphics/SVG/1.1/DTD/svg11.dtd">
<!-- Generated by graphviz version 14.1.0 (20251206.1807)
 -->
<!-- Title: Graphical Class Hierarchy Pages: 1 -->
<svg width="243pt" height="66pt"
 viewBox="0.00 0.00 243.00 66.00" xmlns="http://www.w3.org/2000/svg" xmlns:xlink="http://www.w3.org/1999/xlink">
<g id="graph0" class="graph" transform="scale(1 1) rotate(0) translate(4 62)">
<title>Graphical Class Hierarchy</title>
<!-- Node0 -->
<g id="Node000000" class="node">
<title>Node0</title>
<g id="a_Node000000"><a xlink:title=" ">
<polygon fill="#e0e0e0" stroke="#999999" points="88.75,-39 0,-39 0,-19 88.75,-19 88.75,-39"/>
<text xml:space="preserve" text-anchor="middle" x="44.38" y="-25.5" font-family="Helvetica,sans-Serif" font-size="10.00">IModuleInterface</text>
</a>
</g>
</g>
<!-- Node1 -->
<g id="Node000001" class="node">
<title>Node1</title>
<g id="a_Node000001"><a xlink:href="class_f_pyrano_editor_module.html" target="_top" xlink:title=" ">
<polygon fill="white" stroke="#666666" points="234.5,-58 124.75,-58 124.75,-38 234.5,-38 234.5,-58"/>
<text xml:space="preserve" text-anchor="middle" x="179.62" y="-44.5" font-family="Helvetica,sans-Serif" font-size="10.00">FPyranoEditorModule</text>
</a>
</g>
</g>
<!-- Node0&#45;&gt;Node1 -->
<g id="edge10_Node000000_Node000001" class="edge">
<title>Node0&#45;&gt;Node1</title>
<g id="a_edge10_Node000000_Node000001"><a xlink:title=" ">
<path fill="none" stroke="#63b8ff" d="M100.21,-36.82C108.28,-37.97 116.59,-39.16 124.65,-40.3"/>
<polygon fill="#63b8ff" stroke="#63b8ff" points="100.9,-33.38 90.5,-35.43 99.91,-40.31 100.9,-33.38"/>
</a>
</g>
</g>
<!-- Node2 -->
<g id="Node000002" class="node">
<title>Node2</title>
<g id="a_Node000002"><a xlink:href="class_f_pyrano_module.html" target="_top" xlink:title=" ">
<polygon fill="white" stroke="#666666" points="221.75,-20 137.5,-20 137.5,0 221.75,0 221.75,-20"/>
<text xml:space="preserve" text-anchor="middle" x="179.62" y="-6.5" font-family="Helvetica,sans-Serif" font-size="10.00">FPyranoModule</text>
</a>
</g>
</g>
<!-- Node0&#45;&gt;Node2 -->
<g id="edge11_Node000000_Node000002" class="edge">
<title>Node0&#45;&gt;Node2</title>
<g id="a_edge11_Node000000_Node000002"><a xlink:title=" ">
<path fill="none" stroke="#63b8ff" d="M100.15,-21.19C112.52,-19.43 125.45,-17.58 137.16,-15.91"/>
<polygon fill="#63b8ff" stroke="#63b8ff" points="99.91,-17.69 90.5,-22.57 100.9,-24.62 99.91,-17.69"/>
</a>
</g>
</g>
</g>
</svg>
