<?xml version="1.0" encoding="UTF-8" standalone="no"?>
<!DOCTYPE svg PUBLIC "-//W3C//DTD SVG 1.1//EN"
 "http://www.w3.org/Graphics/SVG/1.1/DTD/svg11.dtd">
<!-- Generated by graphviz version 14.1.0 (20251206.1807)
 -->
<!-- Title: Graphical Class Hierarchy Pages: 1 -->
<svg width="209pt" height="104pt"
 viewBox="0.00 0.00 209.00 104.00" xmlns="http://www.w3.org/2000/svg" xmlns:xlink="http://www.w3.org/1999/xlink">
<g id="graph0" class="graph" transform="scale(1 1) rotate(0) translate(4 100)">
<title>Graphical Class Hierarchy</title>
<!-- Node0 -->
<g id="Node000000" class="node">
<title>Node0</title>
<g id="a_Node000000"><a xlink:title=" ">
<polygon fill="#e0e0e0" stroke="#999999" points="52,-58 0,-58 0,-38 52,-38 52,-58"/>
<text xml:space="preserve" text-anchor="middle" x="26" y="-44.5" font-family="Helvetica,sans-Serif" font-size="10.00">UObject</text>
</a>
</g>
</g>
<!-- Node1 -->
<g id="Node000001" class="node">
<title>Node1</title>
<g id="a_Node000001"><a xlink:href="class_u_clear_sky_service.html" target="_top" xlink:title=" ">
<polygon fill="white" stroke="#666666" points="192.88,-96 95.88,-96 95.88,-76 192.88,-76 192.88,-96"/>
<text xml:space="preserve" text-anchor="middle" x="144.38" y="-82.5" font-family="Helvetica,sans-Serif" font-size="10.00">UClearSkyService</text>
</a>
</g>
</g>
<!-- Node0&#45;&gt;Node1 -->
<g id="edge17_Node000000_Node000001" class="edge">
<title>Node0&#45;&gt;Node1</title>
<g id="a_edge17_Node000000_Node000001"><a xlink:title=" ">
<path fill="none" stroke="#63b8ff" d="M63.03,-59.76C78.53,-64.83 96.5,-70.69 111.51,-75.6"/>
<polygon fill="#63b8ff" stroke="#63b8ff" points="64.28,-56.49 53.69,-56.72 62.11,-63.15 64.28,-56.49"/>
</a>
</g>
</g>
<!-- Node2 -->
<g id="Node000002" class="node">
<title>Node2</title>
<g id="a_Node000002"><a xlink:href="class_u_console_log_line_item.html" target="_top" xlink:title=" ">
<polygon fill="white" stroke="#666666" points="200.75,-58 88,-58 88,-38 200.75,-38 200.75,-58"/>
<text xml:space="preserve" text-anchor="middle" x="144.38" y="-44.5" font-family="Helvetica,sans-Serif" font-size="10.00">UConsoleLogLineItem</text>
</a>
</g>
</g>
<!-- Node0&#45;&gt;Node2 -->
<g id="edge18_Node000000_Node000002" class="edge">
<title>Node0&#45;&gt;Node2</title>
<g id="a_edge18_Node000000_Node000002"><a xlink:title=" ">
<path fill="none" stroke="#63b8ff" d="M63.66,-48C71.28,-48 79.47,-48 87.6,-48"/>
<polygon fill="#63b8ff" stroke="#63b8ff" points="63.77,-44.5 53.77,-48 63.77,-51.5 63.77,-44.5"/>
</a>
</g>
</g>
<!-- Node3 -->
<g id="Node000003" class="node">
<title>Node3</title>
<g id="a_Node000003"><a xlink:href="class_u_irradiance_exporter.html" target="_top" xlink:title=" ">
<polygon fill="white" stroke="#666666" points="195.88,-20 92.88,-20 92.88,0 195.88,0 195.88,-20"/>
<text xml:space="preserve" text-anchor="middle" x="144.38" y="-6.5" font-family="Helvetica,sans-Serif" font-size="10.00">UIrradianceExporter</text>
</a>
</g>
</g>
<!-- Node0&#45;&gt;Node3 -->
<g id="edge19_Node000000_Node000003" class="edge">
<title>Node0&#45;&gt;Node3</title>
<g id="a_edge19_Node000000_Node000003"><a xlink:title=" ">
<path fill="none" stroke="#63b8ff" d="M63.03,-36.24C78.53,-31.17 96.5,-25.31 111.51,-20.4"/>
<polygon fill="#63b8ff" stroke="#63b8ff" points="62.11,-32.85 53.69,-39.28 64.28,-39.51 62.11,-32.85"/>
</a>
</g>
</g>
</g>
</svg>
