<?xml version="1.0" encoding="UTF-8" standalone="no"?>
<!DOCTYPE svg PUBLIC "-//W3C//DTD SVG 1.1//EN"
 "http://www.w3.org/Graphics/SVG/1.1/DTD/svg11.dtd">
<!-- Generated by graphviz version 14.1.0 (20251206.1807)
 -->
<!-- Title: FIrradianceRenderConfig::ApplyIrradianceConfig Pages: 1 -->
<svg width="448pt" height="77pt"
 viewBox="0.00 0.00 448.00 77.00" xmlns="http://www.w3.org/2000/svg" xmlns:xlink="http://www.w3.org/1999/xlink">
<g id="graph0" class="graph" transform="scale(1 1) rotate(0) translate(4 73)">
<title>FIrradianceRenderConfig::ApplyIrradianceConfig</title>
<!-- Node1 -->
<g id="Node000001" class="node">
<title>Node1</title>
<g id="a_Node000001"><a xlink:title=" ">
<polygon fill="#999999" stroke="#666666" points="124.75,-38 0,-38 0,-6 124.75,-6 124.75,-38"/>
<text xml:space="preserve" text-anchor="start" x="8" y="-24.5" font-family="Helvetica,sans-Serif" font-size="10.00">FIrradianceRenderConfig</text>
<text xml:space="preserve" text-anchor="middle" x="62.38" y="-12.5" font-family="Helvetica,sans-Serif" font-size="10.00">::ApplyIrradianceConfig</text>
</a>
</g>
</g>
<!-- Node2 -->
<g id="Node000002" class="node">
<title>Node2</title>
<g id="a_Node000002"><a xlink:href="namespaceanonymous__namespace_02_irradiance_configuration_8cpp_03.html#aad684e2485baaa38779ecb26af25cc94" target="_top" xlink:title=" ">
<polygon fill="white" stroke="#666666" points="282.5,-69 160.75,-69 160.75,-25 282.5,-25 282.5,-69"/>
<text xml:space="preserve" text-anchor="start" x="168.75" y="-55.5" font-family="Helvetica,sans-Serif" font-size="10.00">anonymous_namespace</text>
<text xml:space="preserve" text-anchor="start" x="168.75" y="-43.5" font-family="Helvetica,sans-Serif" font-size="10.00">{IrradianceConfiguration</text>
<text xml:space="preserve" text-anchor="middle" x="221.62" y="-31.5" font-family="Helvetica,sans-Serif" font-size="10.00">::cpp}::ApplyGroup</text>
</a>
</g>
</g>
<!-- Node1&#45;&gt;Node2 -->
<g id="edge1_Node000001_Node000002" class="edge">
<title>Node1&#45;&gt;Node2</title>
<g id="a_edge1_Node000001_Node000002"><a xlink:title=" ">
<path fill="none" stroke="#63b8ff" d="M125.07,-31.81C132.97,-33.06 141.1,-34.36 149.14,-35.63"/>
<polygon fill="#63b8ff" stroke="#63b8ff" points="148.47,-39.07 158.9,-37.19 149.57,-32.16 148.47,-39.07"/>
</a>
</g>
</g>
<!-- Node3 -->
<g id="Node000003" class="node">
<title>Node3</title>
<g id="a_Node000003"><a xlink:href="namespaceanonymous__namespace_02_irradiance_configuration_8cpp_03.html#aca5fa9f954f01057940a973680cd4d9a" target="_top" xlink:title=" ">
<polygon fill="white" stroke="#666666" points="440.25,-44 318.5,-44 318.5,0 440.25,0 440.25,-44"/>
<text xml:space="preserve" text-anchor="start" x="326.5" y="-30.5" font-family="Helvetica,sans-Serif" font-size="10.00">anonymous_namespace</text>
<text xml:space="preserve" text-anchor="start" x="326.5" y="-18.5" font-family="Helvetica,sans-Serif" font-size="10.00">{IrradianceConfiguration</text>
<text xml:space="preserve" text-anchor="middle" x="379.38" y="-6.5" font-family="Helvetica,sans-Serif" font-size="10.00">::cpp}::SaveAndSetInt</text>
</a>
</g>
</g>
<!-- Node1&#45;&gt;Node3 -->
<g id="edge3_Node000001_Node000003" class="edge">
<title>Node1&#45;&gt;Node3</title>
<g id="a_edge3_Node000001_Node000003"><a xlink:title=" ">
<path fill="none" stroke="#63b8ff" d="M125.16,-17.62C136.97,-16.94 149.24,-16.35 160.75,-16 214.84,-14.34 228.42,-14.31 282.5,-16 290.32,-16.24 298.49,-16.6 306.62,-17.02"/>
<polygon fill="#63b8ff" stroke="#63b8ff" points="306.36,-20.51 316.54,-17.57 306.75,-13.52 306.36,-20.51"/>
</a>
</g>
</g>
<!-- Node2&#45;&gt;Node3 -->
<g id="edge2_Node000002_Node000003" class="edge">
<title>Node2&#45;&gt;Node3</title>
<g id="a_edge2_Node000002_Node000003"><a xlink:title=" ">
<path fill="none" stroke="#63b8ff" d="M282.84,-37.33C290.7,-36.07 298.8,-34.77 306.82,-33.49"/>
<polygon fill="#63b8ff" stroke="#63b8ff" points="307.25,-36.96 316.57,-31.92 306.14,-30.05 307.25,-36.96"/>
</a>
</g>
</g>
</g>
</svg>
