<?xml version="1.0" encoding="UTF-8" standalone="no"?>
<!DOCTYPE svg PUBLIC "-//W3C//DTD SVG 1.1//EN"
 "http://www.w3.org/Graphics/SVG/1.1/DTD/svg11.dtd">
<!-- Generated by graphviz version 14.1.0 (20251206.1807)
 -->
<!-- Title: IrradianceCommon::Utils::GetGameWorldSafe Pages: 1 -->
<svg width="756pt" height="178pt"
 viewBox="0.00 0.00 756.00 178.00" xmlns="http://www.w3.org/2000/svg" xmlns:xlink="http://www.w3.org/1999/xlink">
<g id="graph0" class="graph" transform="scale(1 1) rotate(0) translate(4 174)">
<title>IrradianceCommon::Utils::GetGameWorldSafe</title>
<!-- Node1 -->
<g id="Node000001" class="node">
<title>Node1</title>
<g id="a_Node000001"><a xlink:title="Tries to return a game world suitable for rendering / scheduling.">
<polygon fill="#999999" stroke="#666666" points="748.25,-98 623.5,-98 623.5,-66 748.25,-66 748.25,-98"/>
<text xml:space="preserve" text-anchor="start" x="631.5" y="-84.5" font-family="Helvetica,sans-Serif" font-size="10.00">IrradianceCommon::Utils</text>
<text xml:space="preserve" text-anchor="middle" x="685.88" y="-72.5" font-family="Helvetica,sans-Serif" font-size="10.00">::GetGameWorldSafe</text>
</a>
</g>
</g>
<!-- Node2 -->
<g id="Node000002" class="node">
<title>Node2</title>
<g id="a_Node000002"><a xlink:href="class_u_irradiance_subsystem.html#ac681ad537e5994e1cfb9470866b87dd4" target="_top" xlink:title="Restore the previous player view target if the camera was hijacked.">
<polygon fill="white" stroke="#666666" points="579.25,-170 463.5,-170 463.5,-138 579.25,-138 579.25,-170"/>
<text xml:space="preserve" text-anchor="start" x="471.5" y="-156.5" font-family="Helvetica,sans-Serif" font-size="10.00">UIrradianceSubsystem</text>
<text xml:space="preserve" text-anchor="middle" x="521.38" y="-144.5" font-family="Helvetica,sans-Serif" font-size="10.00">::EndHijackView</text>
</a>
</g>
</g>
<!-- Node1&#45;&gt;Node2 -->
<g id="edge1_Node000001_Node000002" class="edge">
<title>Node1&#45;&gt;Node2</title>
<g id="a_edge1_Node000001_Node000002"><a xlink:title=" ">
<path fill="none" stroke="#63b8ff" d="M642.57,-103.37C625.6,-111.69 605.76,-121.1 587.5,-129 580.83,-131.88 573.71,-134.79 566.72,-137.55"/>
<polygon fill="#63b8ff" stroke="#63b8ff" points="643.96,-106.58 651.37,-99.02 640.86,-100.31 643.96,-106.58"/>
</a>
</g>
</g>
<!-- Node3 -->
<g id="Node000003" class="node">
<title>Node3</title>
<g id="a_Node000003"><a xlink:href="class_u_irradiance_subsystem.html#a07d7292927f509ea227ab101994ab4b6" target="_top" xlink:title="Ensure that the capture camera exists and is configured.">
<polygon fill="white" stroke="#666666" points="582.25,-120 460.5,-120 460.5,-88 582.25,-88 582.25,-120"/>
<text xml:space="preserve" text-anchor="start" x="468.5" y="-106.5" font-family="Helvetica,sans-Serif" font-size="10.00">UIrradianceSubsystem</text>
<text xml:space="preserve" text-anchor="middle" x="521.38" y="-94.5" font-family="Helvetica,sans-Serif" font-size="10.00">::EnsureCaptureCamera</text>
</a>
</g>
</g>
<!-- Node1&#45;&gt;Node3 -->
<g id="edge2_Node000001_Node000003" class="edge">
<title>Node1&#45;&gt;Node3</title>
<g id="a_edge2_Node000001_Node000003"><a xlink:title=" ">
<path fill="none" stroke="#63b8ff" d="M612.32,-91.82C602.37,-93.17 592.24,-94.54 582.55,-95.85"/>
<polygon fill="#63b8ff" stroke="#63b8ff" points="612.5,-95.33 621.94,-90.52 611.56,-88.39 612.5,-95.33"/>
</a>
</g>
</g>
<!-- Node4 -->
<g id="Node000004" class="node">
<title>Node4</title>
<g id="a_Node000004"><a xlink:href="class_u_irradiance_subsystem.html#a10314c056f1375fa327c1bdd2c0c79b6" target="_top" xlink:title="Start capture of a single face at PosWS / RotWS.">
<polygon fill="white" stroke="#666666" points="419.25,-98 303.5,-98 303.5,-66 419.25,-66 419.25,-98"/>
<text xml:space="preserve" text-anchor="start" x="311.5" y="-84.5" font-family="Helvetica,sans-Serif" font-size="10.00">UIrradianceSubsystem</text>
<text xml:space="preserve" text-anchor="middle" x="361.38" y="-72.5" font-family="Helvetica,sans-Serif" font-size="10.00">::StartFaceCapture</text>
</a>
</g>
</g>
<!-- Node1&#45;&gt;Node4 -->
<g id="edge8_Node000001_Node000004" class="edge">
<title>Node1&#45;&gt;Node4</title>
<g id="a_edge8_Node000001_Node000004"><a xlink:title=" ">
<path fill="none" stroke="#63b8ff" d="M611.62,-79.5C603.48,-79.3 595.32,-79.12 587.5,-79 528.73,-78.09 514.02,-78.05 455.25,-79 443.64,-79.19 431.21,-79.51 419.34,-79.87"/>
<polygon fill="#63b8ff" stroke="#63b8ff" points="611.46,-83 621.55,-79.77 611.65,-76 611.46,-83"/>
</a>
</g>
</g>
<!-- Node8 -->
<g id="Node000008" class="node">
<title>Node8</title>
<g id="a_Node000008"><a xlink:href="class_u_irradiance_subsystem.html#a83c48c8eb81fa9030764fe107709a9b0" target="_top" xlink:title="Force the PIE client viewport and window to be square (SidePx x SidePx).">
<polygon fill="white" stroke="#666666" points="587.5,-32 455.25,-32 455.25,0 587.5,0 587.5,-32"/>
<text xml:space="preserve" text-anchor="start" x="463.25" y="-18.5" font-family="Helvetica,sans-Serif" font-size="10.00">UIrradianceSubsystem</text>
<text xml:space="preserve" text-anchor="middle" x="521.38" y="-6.5" font-family="Helvetica,sans-Serif" font-size="10.00">::ForceSquareViewportPIE</text>
</a>
</g>
</g>
<!-- Node1&#45;&gt;Node8 -->
<g id="edge7_Node000001_Node000008" class="edge">
<title>Node1&#45;&gt;Node8</title>
<g id="a_edge7_Node000001_Node000008"><a xlink:title=" ">
<path fill="none" stroke="#63b8ff" d="M633.72,-61.22C610.82,-51.92 584.19,-41.11 562.73,-32.39"/>
<polygon fill="#63b8ff" stroke="#63b8ff" points="632.3,-64.43 642.89,-64.95 634.94,-57.94 632.3,-64.43"/>
</a>
</g>
</g>
<!-- Node3&#45;&gt;Node4 -->
<g id="edge3_Node000003_Node000004" class="edge">
<title>Node3&#45;&gt;Node4</title>
<g id="a_edge3_Node000003_Node000004"><a xlink:title=" ">
<path fill="none" stroke="#63b8ff" d="M448.79,-94.03C438.99,-92.67 429.03,-91.28 419.53,-89.96"/>
<polygon fill="#63b8ff" stroke="#63b8ff" points="448.31,-97.5 458.69,-95.41 449.27,-90.57 448.31,-97.5"/>
</a>
</g>
</g>
<!-- Node5 -->
<g id="Node000005" class="node">
<title>Node5</title>
<g id="a_Node000005"><a xlink:href="class_u_irradiance_subsystem.html#a1ea6ae410e0b596d1500aeacaf2b2110" target="_top" xlink:title="Begin a new 6&#45;face capture using the given request description.">
<polygon fill="white" stroke="#666666" points="267.5,-123 151.75,-123 151.75,-91 267.5,-91 267.5,-123"/>
<text xml:space="preserve" text-anchor="start" x="159.75" y="-109.5" font-family="Helvetica,sans-Serif" font-size="10.00">UIrradianceSubsystem</text>
<text xml:space="preserve" text-anchor="middle" x="209.62" y="-97.5" font-family="Helvetica,sans-Serif" font-size="10.00">::StartSixFaceCapture</text>
</a>
</g>
</g>
<!-- Node4&#45;&gt;Node5 -->
<g id="edge4_Node000004_Node000005" class="edge">
<title>Node4&#45;&gt;Node5</title>
<g id="a_edge4_Node000004_Node000005"><a xlink:title=" ">
<path fill="none" stroke="#63b8ff" d="M292.19,-93.38C283.93,-94.76 275.57,-96.16 267.51,-97.5"/>
<polygon fill="#63b8ff" stroke="#63b8ff" points="292.55,-96.87 301.84,-91.77 291.4,-89.97 292.55,-96.87"/>
</a>
</g>
</g>
<!-- Node6 -->
<g id="Node000006" class="node">
<title>Node6</title>
<g id="a_Node000006"><a xlink:href="class_u_irradiance_subsystem.html#afec011af7207461bc6c02e2c03e06bc3" target="_top" xlink:title="Handle per&#45;frame logic while faces are being captured.">
<polygon fill="white" stroke="#666666" points="267.5,-73 151.75,-73 151.75,-41 267.5,-41 267.5,-73"/>
<text xml:space="preserve" text-anchor="start" x="159.75" y="-59.5" font-family="Helvetica,sans-Serif" font-size="10.00">UIrradianceSubsystem</text>
<text xml:space="preserve" text-anchor="middle" x="209.62" y="-47.5" font-family="Helvetica,sans-Serif" font-size="10.00">::TickCapturing</text>
</a>
</g>
</g>
<!-- Node4&#45;&gt;Node6 -->
<g id="edge5_Node000004_Node000006" class="edge">
<title>Node4&#45;&gt;Node6</title>
<g id="a_edge5_Node000004_Node000006"><a xlink:title=" ">
<path fill="none" stroke="#63b8ff" d="M292.19,-70.62C283.93,-69.24 275.57,-67.84 267.51,-66.5"/>
<polygon fill="#63b8ff" stroke="#63b8ff" points="291.4,-74.03 301.84,-72.23 292.55,-67.13 291.4,-74.03"/>
</a>
</g>
</g>
<!-- Node7 -->
<g id="Node000007" class="node">
<title>Node7</title>
<g id="a_Node000007"><a xlink:href="class_u_irradiance_subsystem.html#ad3336fe0d04f79cf1c1eb2ecdb226325" target="_top" xlink:title=" ">
<polygon fill="white" stroke="#666666" points="115.75,-73 0,-73 0,-41 115.75,-41 115.75,-73"/>
<text xml:space="preserve" text-anchor="start" x="8" y="-59.5" font-family="Helvetica,sans-Serif" font-size="10.00">UIrradianceSubsystem</text>
<text xml:space="preserve" text-anchor="middle" x="57.88" y="-47.5" font-family="Helvetica,sans-Serif" font-size="10.00">::Tick</text>
</a>
</g>
</g>
<!-- Node6&#45;&gt;Node7 -->
<g id="edge6_Node000006_Node000007" class="edge">
<title>Node6&#45;&gt;Node7</title>
<g id="a_edge6_Node000006_Node000007"><a xlink:title=" ">
<path fill="none" stroke="#63b8ff" d="M140.16,-57C131.99,-57 123.73,-57 115.76,-57"/>
<polygon fill="#63b8ff" stroke="#63b8ff" points="140.07,-60.5 150.07,-57 140.07,-53.5 140.07,-60.5"/>
</a>
</g>
</g>
</g>
</svg>
