<?xml version="1.0" encoding="UTF-8" standalone="no"?>
<!DOCTYPE svg PUBLIC "-//W3C//DTD SVG 1.1//EN"
 "http://www.w3.org/Graphics/SVG/1.1/DTD/svg11.dtd">
<!-- Generated by graphviz version 14.1.0 (20251206.1807)
 -->
<!-- Title: anonymous_namespace{IrradianceConfiguration::cpp}::SaveAndSetInt Pages: 1 -->
<svg width="1287pt" height="165pt"
 viewBox="0.00 0.00 1287.00 165.00" xmlns="http://www.w3.org/2000/svg" xmlns:xlink="http://www.w3.org/1999/xlink">
<g id="graph0" class="graph" transform="scale(1 1) rotate(0) translate(4 161)">
<title>anonymous_namespace{IrradianceConfiguration::cpp}::SaveAndSetInt</title>
<!-- Node1 -->
<g id="Node000001" class="node">
<title>Node1</title>
<g id="a_Node000001"><a xlink:title=" ">
<polygon fill="#999999" stroke="#666666" points="1278.5,-113 1156.75,-113 1156.75,-69 1278.5,-69 1278.5,-113"/>
<text xml:space="preserve" text-anchor="start" x="1164.75" y="-99.5" font-family="Helvetica,sans-Serif" font-size="10.00">anonymous_namespace</text>
<text xml:space="preserve" text-anchor="start" x="1164.75" y="-87.5" font-family="Helvetica,sans-Serif" font-size="10.00">{IrradianceConfiguration</text>
<text xml:space="preserve" text-anchor="middle" x="1217.62" y="-75.5" font-family="Helvetica,sans-Serif" font-size="10.00">::cpp}::SaveAndSetInt</text>
</a>
</g>
</g>
<!-- Node2 -->
<g id="Node000002" class="node">
<title>Node2</title>
<g id="a_Node000002"><a xlink:href="namespaceanonymous__namespace_02_irradiance_configuration_8cpp_03.html#aad684e2485baaa38779ecb26af25cc94" target="_top" xlink:title=" ">
<polygon fill="white" stroke="#666666" points="1120.75,-138 999,-138 999,-94 1120.75,-94 1120.75,-138"/>
<text xml:space="preserve" text-anchor="start" x="1007" y="-124.5" font-family="Helvetica,sans-Serif" font-size="10.00">anonymous_namespace</text>
<text xml:space="preserve" text-anchor="start" x="1007" y="-112.5" font-family="Helvetica,sans-Serif" font-size="10.00">{IrradianceConfiguration</text>
<text xml:space="preserve" text-anchor="middle" x="1059.88" y="-100.5" font-family="Helvetica,sans-Serif" font-size="10.00">::cpp}::ApplyGroup</text>
</a>
</g>
</g>
<!-- Node1&#45;&gt;Node2 -->
<g id="edge1_Node000001_Node000002" class="edge">
<title>Node1&#45;&gt;Node2</title>
<g id="a_edge1_Node000001_Node000002"><a xlink:title=" ">
<path fill="none" stroke="#63b8ff" d="M1145.17,-102.47C1137.15,-103.76 1129.05,-105.06 1121.19,-106.32"/>
<polygon fill="#63b8ff" stroke="#63b8ff" points="1145.59,-105.95 1154.91,-100.91 1144.49,-99.03 1145.59,-105.95"/>
</a>
</g>
</g>
<!-- Node3 -->
<g id="Node000003" class="node">
<title>Node3</title>
<g id="a_Node000003"><a xlink:href="namespace_f_irradiance_render_config.html#a2880f5d9df2d1f4e81ecb89ca2f4e0e6" target="_top" xlink:title=" ">
<polygon fill="white" stroke="#666666" points="963,-107 838.25,-107 838.25,-75 963,-75 963,-107"/>
<text xml:space="preserve" text-anchor="start" x="846.25" y="-93.5" font-family="Helvetica,sans-Serif" font-size="10.00">FIrradianceRenderConfig</text>
<text xml:space="preserve" text-anchor="middle" x="900.62" y="-81.5" font-family="Helvetica,sans-Serif" font-size="10.00">::ApplyIrradianceConfig</text>
</a>
</g>
</g>
<!-- Node1&#45;&gt;Node3 -->
<g id="edge14_Node000001_Node000003" class="edge">
<title>Node1&#45;&gt;Node3</title>
<g id="a_edge14_Node000001_Node000003"><a xlink:title=" ">
<path fill="none" stroke="#63b8ff" d="M1144.87,-86.02C1136.74,-85.6 1128.57,-85.24 1120.75,-85 1066.67,-83.31 1053.09,-83.34 999,-85 987.49,-85.35 975.22,-85.94 963.41,-86.62"/>
<polygon fill="#63b8ff" stroke="#63b8ff" points="1144.61,-89.51 1154.79,-86.57 1145,-82.52 1144.61,-89.51"/>
</a>
</g>
</g>
<!-- Node2&#45;&gt;Node3 -->
<g id="edge2_Node000002_Node000003" class="edge">
<title>Node2&#45;&gt;Node3</title>
<g id="a_edge2_Node000002_Node000003"><a xlink:title=" ">
<path fill="none" stroke="#63b8ff" d="M987.32,-104.62C979.33,-103.35 971.23,-102.07 963.37,-100.82"/>
<polygon fill="#63b8ff" stroke="#63b8ff" points="986.61,-108.05 997.03,-106.17 987.71,-101.14 986.61,-108.05"/>
</a>
</g>
</g>
<!-- Node4 -->
<g id="Node000004" class="node">
<title>Node4</title>
<g id="a_Node000004"><a xlink:href="class_u_pyrano_editor_subsystem.html#ab354ffee4ea9cc5e40566874111fd461" target="_top" xlink:title="Applies Render/Irradiance CVars before starting PIE.">
<polygon fill="white" stroke="#666666" points="802.25,-107 673,-107 673,-75 802.25,-75 802.25,-107"/>
<text xml:space="preserve" text-anchor="start" x="681" y="-93.5" font-family="Helvetica,sans-Serif" font-size="10.00">UPyranoEditorSubsystem</text>
<text xml:space="preserve" text-anchor="middle" x="737.62" y="-81.5" font-family="Helvetica,sans-Serif" font-size="10.00">::ApplyCVarConfig</text>
</a>
</g>
</g>
<!-- Node3&#45;&gt;Node4 -->
<g id="edge3_Node000003_Node000004" class="edge">
<title>Node3&#45;&gt;Node4</title>
<g id="a_edge3_Node000003_Node000004"><a xlink:title=" ">
<path fill="none" stroke="#63b8ff" d="M826.35,-91C818.44,-91 810.44,-91 802.65,-91"/>
<polygon fill="#63b8ff" stroke="#63b8ff" points="826.33,-94.5 836.33,-91 826.33,-87.5 826.33,-94.5"/>
</a>
</g>
</g>
<!-- Node5 -->
<g id="Node000005" class="node">
<title>Node5</title>
<g id="a_Node000005"><a xlink:href="class_u_pyrano_editor_subsystem.html#ae6108e9fda1f9471c24a39988d5122d6" target="_top" xlink:title="Internal callback executed once PIE has fully started.">
<polygon fill="white" stroke="#666666" points="637,-107 507.75,-107 507.75,-75 637,-75 637,-107"/>
<text xml:space="preserve" text-anchor="start" x="515.75" y="-93.5" font-family="Helvetica,sans-Serif" font-size="10.00">UPyranoEditorSubsystem</text>
<text xml:space="preserve" text-anchor="middle" x="572.38" y="-81.5" font-family="Helvetica,sans-Serif" font-size="10.00">::OnPostPIEStarted</text>
</a>
</g>
</g>
<!-- Node4&#45;&gt;Node5 -->
<g id="edge4_Node000004_Node000005" class="edge">
<title>Node4&#45;&gt;Node5</title>
<g id="a_edge4_Node000004_Node000005"><a xlink:title=" ">
<path fill="none" stroke="#63b8ff" d="M661.29,-91C653.25,-91 645.13,-91 637.24,-91"/>
<polygon fill="#63b8ff" stroke="#63b8ff" points="661.06,-94.5 671.06,-91 661.06,-87.5 661.06,-94.5"/>
</a>
</g>
</g>
<!-- Node6 -->
<g id="Node000006" class="node">
<title>Node6</title>
<g id="a_Node000006"><a xlink:href="class_u_pyrano_editor_subsystem.html#ac3e1f1b78bd830e95a7b52fc3bff7ed9" target="_top" xlink:title="Ensures that the PIE world exists and is ready; retries if not.">
<polygon fill="white" stroke="#666666" points="471.75,-157 342.5,-157 342.5,-125 471.75,-125 471.75,-157"/>
<text xml:space="preserve" text-anchor="start" x="350.5" y="-143.5" font-family="Helvetica,sans-Serif" font-size="10.00">UPyranoEditorSubsystem</text>
<text xml:space="preserve" text-anchor="middle" x="407.12" y="-131.5" font-family="Helvetica,sans-Serif" font-size="10.00">::EnsurePIEWorld</text>
</a>
</g>
</g>
<!-- Node5&#45;&gt;Node6 -->
<g id="edge5_Node000005_Node000006" class="edge">
<title>Node5&#45;&gt;Node6</title>
<g id="a_edge5_Node000005_Node000006"><a xlink:title=" ">
<path fill="none" stroke="#63b8ff" d="M496.48,-107.21C477.93,-112.78 458.91,-118.96 443.29,-124.56"/>
<polygon fill="#63b8ff" stroke="#63b8ff" points="497.27,-110.63 505.87,-104.44 495.29,-103.91 497.27,-110.63"/>
</a>
</g>
</g>
<!-- Node7 -->
<g id="Node000007" class="node">
<title>Node7</title>
<g id="a_Node000007"><a xlink:href="class_u_pyrano_editor_subsystem.html#a5bd1813278b5277f9b9677faf4bc9d85" target="_top" xlink:title="Verifies that the game viewport is initialized and visible.">
<polygon fill="white" stroke="#666666" points="471.75,-107 342.5,-107 342.5,-75 471.75,-75 471.75,-107"/>
<text xml:space="preserve" text-anchor="start" x="350.5" y="-93.5" font-family="Helvetica,sans-Serif" font-size="10.00">UPyranoEditorSubsystem</text>
<text xml:space="preserve" text-anchor="middle" x="407.12" y="-81.5" font-family="Helvetica,sans-Serif" font-size="10.00">::EnsureViewportReady</text>
</a>
</g>
</g>
<!-- Node5&#45;&gt;Node7 -->
<g id="edge7_Node000005_Node000007" class="edge">
<title>Node5&#45;&gt;Node7</title>
<g id="a_edge7_Node000005_Node000007"><a xlink:title=" ">
<path fill="none" stroke="#63b8ff" d="M496.04,-84.27C488,-84.22 479.88,-84.26 471.99,-84.39"/>
<polygon fill="#63b8ff" stroke="#63b8ff" points="495.77,-87.77 505.81,-84.37 495.85,-80.77 495.77,-87.77"/>
</a>
</g>
</g>
<!-- Node8 -->
<g id="Node000008" class="node">
<title>Node8</title>
<g id="a_Node000008"><a xlink:href="class_u_pyrano_editor_subsystem.html#ab0ad1482f10e23d383332295e0ddac03" target="_top" xlink:title="Packs config and registers delegates before launching PIE.">
<polygon fill="white" stroke="#666666" points="471.75,-57 342.5,-57 342.5,-25 471.75,-25 471.75,-57"/>
<text xml:space="preserve" text-anchor="start" x="350.5" y="-43.5" font-family="Helvetica,sans-Serif" font-size="10.00">UPyranoEditorSubsystem</text>
<text xml:space="preserve" text-anchor="middle" x="407.12" y="-31.5" font-family="Helvetica,sans-Serif" font-size="10.00">::StartPIEWithConfig</text>
</a>
</g>
</g>
<!-- Node5&#45;&gt;Node8 -->
<g id="edge9_Node000005_Node000008" class="edge">
<title>Node5&#45;&gt;Node8</title>
<g id="a_edge9_Node000005_Node000008"><a xlink:title=" ">
<path fill="none" stroke="#63b8ff" d="M507.2,-71.34C492.23,-66.76 476.44,-61.92 461.98,-57.49"/>
<polygon fill="#63b8ff" stroke="#63b8ff" points="505.89,-74.6 516.47,-74.18 507.94,-67.91 505.89,-74.6"/>
</a>
</g>
</g>
<!-- Node6&#45;&gt;Node5 -->
<g id="edge6_Node000006_Node000005" class="edge">
<title>Node6&#45;&gt;Node5</title>
<g id="a_edge6_Node000006_Node000005"><a xlink:title=" ">
<path fill="none" stroke="#63b8ff" d="M482.95,-124.81C501.58,-119.22 520.69,-113.01 536.35,-107.38"/>
<polygon fill="#63b8ff" stroke="#63b8ff" points="482.12,-121.41 473.52,-127.59 484.1,-128.12 482.12,-121.41"/>
</a>
</g>
</g>
<!-- Node7&#45;&gt;Node5 -->
<g id="edge8_Node000007_Node000005" class="edge">
<title>Node7&#45;&gt;Node5</title>
<g id="a_edge8_Node000007_Node000005"><a xlink:title=" ">
<path fill="none" stroke="#63b8ff" d="M483.27,-97.73C491.31,-97.78 499.43,-97.74 507.32,-97.61"/>
<polygon fill="#63b8ff" stroke="#63b8ff" points="483.54,-94.23 473.51,-97.62 483.47,-101.23 483.54,-94.23"/>
</a>
</g>
</g>
<!-- Node9 -->
<g id="Node000009" class="node">
<title>Node9</title>
<g id="a_Node000009"><a xlink:href="class_u_pyrano_editor_subsystem.html#acdc7acb4e1599227d50feefdf1867c66" target="_top" xlink:title="Starts a single capture pass in PIE and ends automatically.">
<polygon fill="white" stroke="#666666" points="306.5,-82 177.25,-82 177.25,-50 306.5,-50 306.5,-82"/>
<text xml:space="preserve" text-anchor="start" x="185.25" y="-68.5" font-family="Helvetica,sans-Serif" font-size="10.00">UPyranoEditorSubsystem</text>
<text xml:space="preserve" text-anchor="middle" x="241.88" y="-56.5" font-family="Helvetica,sans-Serif" font-size="10.00">::CaptureOnce</text>
</a>
</g>
</g>
<!-- Node8&#45;&gt;Node9 -->
<g id="edge10_Node000008_Node000009" class="edge">
<title>Node8&#45;&gt;Node9</title>
<g id="a_edge10_Node000008_Node000009"><a xlink:title=" ">
<path fill="none" stroke="#63b8ff" d="M330.79,-52.54C322.75,-53.77 314.63,-55.01 306.74,-56.22"/>
<polygon fill="#63b8ff" stroke="#63b8ff" points="331.22,-56.01 340.58,-51.04 330.16,-49.09 331.22,-56.01"/>
</a>
</g>
</g>
<!-- Node11 -->
<g id="Node000011" class="node">
<title>Node11</title>
<g id="a_Node000011"><a xlink:href="class_u_pyrano_editor_subsystem.html#a4b539f64f46c286822e4015811c08afc" target="_top" xlink:title="Starts a full multi&#45;sensor, multi&#45;time simulation in PIE.">
<polygon fill="white" stroke="#666666" points="306.5,-32 177.25,-32 177.25,0 306.5,0 306.5,-32"/>
<text xml:space="preserve" text-anchor="start" x="185.25" y="-18.5" font-family="Helvetica,sans-Serif" font-size="10.00">UPyranoEditorSubsystem</text>
<text xml:space="preserve" text-anchor="middle" x="241.88" y="-6.5" font-family="Helvetica,sans-Serif" font-size="10.00">::StartSimulation</text>
</a>
</g>
</g>
<!-- Node8&#45;&gt;Node11 -->
<g id="edge12_Node000008_Node000011" class="edge">
<title>Node8&#45;&gt;Node11</title>
<g id="a_edge12_Node000008_Node000011"><a xlink:title=" ">
<path fill="none" stroke="#63b8ff" d="M330.79,-29.46C322.75,-28.23 314.63,-26.99 306.74,-25.78"/>
<polygon fill="#63b8ff" stroke="#63b8ff" points="330.16,-32.91 340.58,-30.96 331.22,-25.99 330.16,-32.91"/>
</a>
</g>
</g>
<!-- Node10 -->
<g id="Node000010" class="node">
<title>Node10</title>
<g id="a_Node000010"><a xlink:href="class_u_pyrano_editor_subsystem.html#a66b820c9aae05fb59340fae1abe43379" target="_top" xlink:title=" ">
<polygon fill="white" stroke="#666666" points="141.25,-57 0,-57 0,-25 141.25,-25 141.25,-57"/>
<text xml:space="preserve" text-anchor="start" x="8" y="-43.5" font-family="Helvetica,sans-Serif" font-size="10.00">UPyranoEditorSubsystem</text>
<text xml:space="preserve" text-anchor="middle" x="70.62" y="-31.5" font-family="Helvetica,sans-Serif" font-size="10.00">::~UPyranoEditorSubsystem</text>
</a>
</g>
</g>
<!-- Node9&#45;&gt;Node10 -->
<g id="edge11_Node000009_Node000010" class="edge">
<title>Node9&#45;&gt;Node10</title>
<g id="a_edge11_Node000009_Node000010"><a xlink:title=" ">
<path fill="none" stroke="#63b8ff" d="M165.69,-54.89C157.69,-53.71 149.58,-52.51 141.64,-51.34"/>
<polygon fill="#63b8ff" stroke="#63b8ff" points="164.99,-58.33 175.39,-56.33 166.01,-51.4 164.99,-58.33"/>
</a>
</g>
</g>
<!-- Node11&#45;&gt;Node10 -->
<g id="edge13_Node000011_Node000010" class="edge">
<title>Node11&#45;&gt;Node10</title>
<g id="a_edge13_Node000011_Node000010"><a xlink:title=" ">
<path fill="none" stroke="#63b8ff" d="M165.69,-27.11C157.69,-28.29 149.58,-29.49 141.64,-30.66"/>
<polygon fill="#63b8ff" stroke="#63b8ff" points="166.01,-30.6 175.39,-25.67 164.99,-23.67 166.01,-30.6"/>
</a>
</g>
</g>
</g>
</svg>
