<?xml version="1.0" encoding="UTF-8" standalone="no"?>
<!DOCTYPE svg PUBLIC "-//W3C//DTD SVG 1.1//EN"
 "http://www.w3.org/Graphics/SVG/1.1/DTD/svg11.dtd">
<!-- Generated by graphviz version 14.1.0 (20251206.1807)
 -->
<!-- Title: PyranoEditorUtils::GetPyranometerComponents Pages: 1 -->
<svg width="643pt" height="90pt"
 viewBox="0.00 0.00 643.00 90.00" xmlns="http://www.w3.org/2000/svg" xmlns:xlink="http://www.w3.org/1999/xlink">
<g id="graph0" class="graph" transform="scale(1 1) rotate(0) translate(4 86)">
<title>PyranoEditorUtils::GetPyranometerComponents</title>
<!-- Node1 -->
<g id="Node000001" class="node">
<title>Node1</title>
<g id="a_Node000001"><a xlink:title=" ">
<polygon fill="#999999" stroke="#666666" points="634.75,-57 492,-57 492,-25 634.75,-25 634.75,-57"/>
<text xml:space="preserve" text-anchor="start" x="500" y="-43.5" font-family="Helvetica,sans-Serif" font-size="10.00">PyranoEditorUtils::</text>
<text xml:space="preserve" text-anchor="middle" x="563.38" y="-31.5" font-family="Helvetica,sans-Serif" font-size="10.00">GetPyranometerComponents</text>
</a>
</g>
</g>
<!-- Node2 -->
<g id="Node000002" class="node">
<title>Node2</title>
<g id="a_Node000002"><a xlink:href="namespace_pyrano_editor_utils.html#a6a8fea8fd47c5ad779e7bd632dcfc1b7" target="_top" xlink:title=" ">
<polygon fill="white" stroke="#666666" points="456,-80 342.5,-80 342.5,-48 456,-48 456,-80"/>
<text xml:space="preserve" text-anchor="start" x="350.5" y="-66.5" font-family="Helvetica,sans-Serif" font-size="10.00">PyranoEditorUtils::</text>
<text xml:space="preserve" text-anchor="middle" x="399.25" y="-54.5" font-family="Helvetica,sans-Serif" font-size="10.00">CountEnabledSensors</text>
</a>
</g>
</g>
<!-- Node1&#45;&gt;Node2 -->
<g id="edge1_Node000001_Node000002" class="edge">
<title>Node1&#45;&gt;Node2</title>
<g id="a_edge1_Node000001_Node000002"><a xlink:title=" ">
<path fill="none" stroke="#63b8ff" d="M480.48,-52.62C472.21,-53.79 463.94,-54.96 456.04,-56.09"/>
<polygon fill="#63b8ff" stroke="#63b8ff" points="480.83,-56.1 490.24,-51.23 479.85,-49.17 480.83,-56.1"/>
</a>
</g>
</g>
<!-- Node5 -->
<g id="Node000005" class="node">
<title>Node5</title>
<g id="a_Node000005"><a xlink:href="class_u_pyrano_editor_subsystem.html#a1e18df0b1f82756989cd7cf5f6c15386" target="_top" xlink:title="Returns all pyranometer sensors in the level (filtered by enabled state).">
<polygon fill="white" stroke="#666666" points="306.5,-32 177.25,-32 177.25,0 306.5,0 306.5,-32"/>
<text xml:space="preserve" text-anchor="start" x="185.25" y="-18.5" font-family="Helvetica,sans-Serif" font-size="10.00">UPyranoEditorSubsystem</text>
<text xml:space="preserve" text-anchor="middle" x="241.88" y="-6.5" font-family="Helvetica,sans-Serif" font-size="10.00">::QuerySensors</text>
</a>
</g>
</g>
<!-- Node1&#45;&gt;Node5 -->
<g id="edge4_Node000001_Node000005" class="edge">
<title>Node1&#45;&gt;Node5</title>
<g id="a_edge4_Node000001_Node000005"><a xlink:title=" ">
<path fill="none" stroke="#63b8ff" d="M480.6,-34.6C426.63,-30.38 356.92,-24.92 306.97,-21.01"/>
<polygon fill="#63b8ff" stroke="#63b8ff" points="480.11,-38.07 490.35,-35.36 480.66,-31.1 480.11,-38.07"/>
</a>
</g>
</g>
<!-- Node3 -->
<g id="Node000003" class="node">
<title>Node3</title>
<g id="a_Node000003"><a xlink:href="class_u_pyrano_editor_subsystem.html#aff2465394f6335550f1ee02a6725e648" target="_top" xlink:title="Validates a full simulation configuration and returns a detailed result.">
<polygon fill="white" stroke="#666666" points="306.5,-82 177.25,-82 177.25,-50 306.5,-50 306.5,-82"/>
<text xml:space="preserve" text-anchor="start" x="185.25" y="-68.5" font-family="Helvetica,sans-Serif" font-size="10.00">UPyranoEditorSubsystem</text>
<text xml:space="preserve" text-anchor="middle" x="241.88" y="-56.5" font-family="Helvetica,sans-Serif" font-size="10.00">::ValidateConfig</text>
</a>
</g>
</g>
<!-- Node2&#45;&gt;Node3 -->
<g id="edge2_Node000002_Node000003" class="edge">
<title>Node2&#45;&gt;Node3</title>
<g id="a_edge2_Node000002_Node000003"><a xlink:title=" ">
<path fill="none" stroke="#63b8ff" d="M330.68,-64.87C322.75,-64.97 314.68,-65.08 306.8,-65.18"/>
<polygon fill="#63b8ff" stroke="#63b8ff" points="330.69,-68.37 340.64,-64.74 330.6,-61.37 330.69,-68.37"/>
</a>
</g>
</g>
<!-- Node4 -->
<g id="Node000004" class="node">
<title>Node4</title>
<g id="a_Node000004"><a xlink:href="class_u_pyrano_editor_subsystem.html#a66b820c9aae05fb59340fae1abe43379" target="_top" xlink:title=" ">
<polygon fill="white" stroke="#666666" points="141.25,-57 0,-57 0,-25 141.25,-25 141.25,-57"/>
<text xml:space="preserve" text-anchor="start" x="8" y="-43.5" font-family="Helvetica,sans-Serif" font-size="10.00">UPyranoEditorSubsystem</text>
<text xml:space="preserve" text-anchor="middle" x="70.62" y="-31.5" font-family="Helvetica,sans-Serif" font-size="10.00">::~UPyranoEditorSubsystem</text>
</a>
</g>
</g>
<!-- Node3&#45;&gt;Node4 -->
<g id="edge3_Node000003_Node000004" class="edge">
<title>Node3&#45;&gt;Node4</title>
<g id="a_edge3_Node000003_Node000004"><a xlink:title=" ">
<path fill="none" stroke="#63b8ff" d="M165.69,-54.89C157.69,-53.71 149.58,-52.51 141.64,-51.34"/>
<polygon fill="#63b8ff" stroke="#63b8ff" points="164.99,-58.33 175.39,-56.33 166.01,-51.4 164.99,-58.33"/>
</a>
</g>
</g>
<!-- Node5&#45;&gt;Node4 -->
<g id="edge5_Node000005_Node000004" class="edge">
<title>Node5&#45;&gt;Node4</title>
<g id="a_edge5_Node000005_Node000004"><a xlink:title=" ">
<path fill="none" stroke="#63b8ff" d="M165.69,-27.11C157.69,-28.29 149.58,-29.49 141.64,-30.66"/>
<polygon fill="#63b8ff" stroke="#63b8ff" points="166.01,-30.6 175.39,-25.67 164.99,-23.67 166.01,-30.6"/>
</a>
</g>
</g>
</g>
</svg>
