<?xml version="1.0" encoding="UTF-8" standalone="no"?>
<!DOCTYPE svg PUBLIC "-//W3C//DTD SVG 1.1//EN"
 "http://www.w3.org/Graphics/SVG/1.1/DTD/svg11.dtd">
<!-- Generated by graphviz version 14.1.0 (20251206.1807)
 -->
<!-- Title: IrradianceCommon::Console::GetConsoleVerbosityLimit Pages: 1 -->
<svg width="485pt" height="90pt"
 viewBox="0.00 0.00 485.00 90.00" xmlns="http://www.w3.org/2000/svg" xmlns:xlink="http://www.w3.org/1999/xlink">
<g id="graph0" class="graph" transform="scale(1 1) rotate(0) translate(4 86)">
<title>IrradianceCommon::Console::GetConsoleVerbosityLimit</title>
<!-- Node1 -->
<g id="Node000001" class="node">
<title>Node1</title>
<g id="a_Node000001"><a xlink:title="Set &#45; Get.">
<polygon fill="#999999" stroke="#666666" points="477,-57 336.5,-57 336.5,-25 477,-25 477,-57"/>
<text xml:space="preserve" text-anchor="start" x="344.5" y="-43.5" font-family="Helvetica,sans-Serif" font-size="10.00">IrradianceCommon::Console</text>
<text xml:space="preserve" text-anchor="middle" x="406.75" y="-31.5" font-family="Helvetica,sans-Serif" font-size="10.00">::GetConsoleVerbosityLimit</text>
</a>
</g>
</g>
<!-- Node2 -->
<g id="Node000002" class="node">
<title>Node2</title>
<g id="a_Node000002"><a xlink:href="namespace_irradiance_common_1_1_console.html#a5b00949ee3f78394587a3b4cc23391a7" target="_top" xlink:title="Returns true if a log entry for the given category / verbosity should be forwarded to the engine cons...">
<polygon fill="white" stroke="#666666" points="300.5,-82 160,-82 160,-50 300.5,-50 300.5,-82"/>
<text xml:space="preserve" text-anchor="start" x="168" y="-68.5" font-family="Helvetica,sans-Serif" font-size="10.00">IrradianceCommon::Console</text>
<text xml:space="preserve" text-anchor="middle" x="230.25" y="-56.5" font-family="Helvetica,sans-Serif" font-size="10.00">::ShouldForwardToConsole</text>
</a>
</g>
</g>
<!-- Node1&#45;&gt;Node2 -->
<g id="edge1_Node000001_Node000002" class="edge">
<title>Node1&#45;&gt;Node2</title>
<g id="a_edge1_Node000001_Node000002"><a xlink:title=" ">
<path fill="none" stroke="#63b8ff" d="M324.8,-52.6C316.8,-53.74 308.73,-54.9 300.86,-56.03"/>
<polygon fill="#63b8ff" stroke="#63b8ff" points="325.13,-56.09 334.53,-51.2 324.14,-49.16 325.13,-56.09"/>
</a>
</g>
</g>
<!-- Node4 -->
<g id="Node000004" class="node">
<title>Node4</title>
<g id="a_Node000004"><a xlink:href="class_u_console_log_widget.html#a0b0c6dc23bbf3e958c74616cd4fc6727" target="_top" xlink:title=" ">
<polygon fill="white" stroke="#666666" points="286.25,-32 174.25,-32 174.25,0 286.25,0 286.25,-32"/>
<text xml:space="preserve" text-anchor="start" x="182.25" y="-18.5" font-family="Helvetica,sans-Serif" font-size="10.00">UConsoleLogWidget::</text>
<text xml:space="preserve" text-anchor="middle" x="230.25" y="-6.5" font-family="Helvetica,sans-Serif" font-size="10.00">ToggleShowVerbose</text>
</a>
</g>
</g>
<!-- Node1&#45;&gt;Node4 -->
<g id="edge3_Node000001_Node000004" class="edge">
<title>Node1&#45;&gt;Node4</title>
<g id="a_edge3_Node000001_Node000004"><a xlink:title=" ">
<path fill="none" stroke="#63b8ff" d="M324.76,-29.4C311.86,-27.55 298.76,-25.67 286.63,-23.93"/>
<polygon fill="#63b8ff" stroke="#63b8ff" points="324.14,-32.84 334.53,-30.8 325.13,-25.91 324.14,-32.84"/>
</a>
</g>
</g>
<!-- Node3 -->
<g id="Node000003" class="node">
<title>Node3</title>
<g id="a_Node000003"><a xlink:href="class_f_pyrano_console_log_sink.html#abd36395a8849037a7cd5349346e2b912" target="_top" xlink:title=" ">
<polygon fill="white" stroke="#666666" points="124,-82 0,-82 0,-50 124,-50 124,-82"/>
<text xml:space="preserve" text-anchor="start" x="8" y="-68.5" font-family="Helvetica,sans-Serif" font-size="10.00">FPyranoConsoleLogSink</text>
<text xml:space="preserve" text-anchor="middle" x="62" y="-56.5" font-family="Helvetica,sans-Serif" font-size="10.00">::Serialize</text>
</a>
</g>
</g>
<!-- Node2&#45;&gt;Node3 -->
<g id="edge2_Node000002_Node000003" class="edge">
<title>Node2&#45;&gt;Node3</title>
<g id="a_edge2_Node000002_Node000003"><a xlink:title=" ">
<path fill="none" stroke="#63b8ff" d="M148.34,-66C140.26,-66 132.16,-66 124.33,-66"/>
<polygon fill="#63b8ff" stroke="#63b8ff" points="148.19,-69.5 158.19,-66 148.19,-62.5 148.19,-69.5"/>
</a>
</g>
</g>
</g>
</svg>
