<?xml version="1.0" encoding="UTF-8" standalone="no"?>
<!DOCTYPE svg PUBLIC "-//W3C//DTD SVG 1.1//EN"
 "http://www.w3.org/Graphics/SVG/1.1/DTD/svg11.dtd">
<!-- Generated by graphviz version 14.1.0 (20251206.1807)
 -->
<!-- Title: FCaptureRequest::WithTimestamp Pages: 1 -->
<svg width="843pt" height="128pt"
 viewBox="0.00 0.00 843.00 128.00" xmlns="http://www.w3.org/2000/svg" xmlns:xlink="http://www.w3.org/1999/xlink">
<g id="graph0" class="graph" transform="scale(1 1) rotate(0) translate(4 124)">
<title>FCaptureRequest::WithTimestamp</title>
<!-- Node1 -->
<g id="Node000001" class="node">
<title>Node1</title>
<g id="a_Node000001"><a xlink:title=" ">
<polygon fill="#999999" stroke="#666666" points="834.5,-92 666.25,-92 666.25,-72 834.5,-72 834.5,-92"/>
<text xml:space="preserve" text-anchor="middle" x="750.38" y="-78.5" font-family="Helvetica,sans-Serif" font-size="10.00">FCaptureRequest::WithTimestamp</text>
</a>
</g>
</g>
<!-- Node2 -->
<g id="Node000002" class="node">
<title>Node2</title>
<g id="a_Node000002"><a xlink:href="class_u_irradiance_scheduler.html#a2c93371fc51e45b8af73ce9b4d2c690a" target="_top" xlink:title="Launches the next capture for the current time slot and sensor index.">
<polygon fill="white" stroke="#666666" points="630.25,-98 475.5,-98 475.5,-66 630.25,-66 630.25,-98"/>
<text xml:space="preserve" text-anchor="start" x="483.5" y="-84.5" font-family="Helvetica,sans-Serif" font-size="10.00">UIrradianceScheduler</text>
<text xml:space="preserve" text-anchor="middle" x="552.88" y="-72.5" font-family="Helvetica,sans-Serif" font-size="10.00">::LaunchNextSimulationCapture</text>
</a>
</g>
</g>
<!-- Node1&#45;&gt;Node2 -->
<g id="edge1_Node000001_Node000002" class="edge">
<title>Node1&#45;&gt;Node2</title>
<g id="a_edge1_Node000001_Node000002"><a xlink:title=" ">
<path fill="none" stroke="#63b8ff" d="M654.57,-82C646.52,-82 638.45,-82 630.57,-82"/>
<polygon fill="#63b8ff" stroke="#63b8ff" points="654.38,-85.5 664.38,-82 654.38,-78.5 654.38,-85.5"/>
</a>
</g>
</g>
<!-- Node3 -->
<g id="Node000003" class="node">
<title>Node3</title>
<g id="a_Node000003"><a xlink:href="class_u_irradiance_scheduler.html#ab400b6f7f8c6768537088d0eca221f90" target="_top" xlink:title="Advances to the next time slot, or finalizes the simulation if finished.">
<polygon fill="white" stroke="#666666" points="439.5,-120 303.5,-120 303.5,-88 439.5,-88 439.5,-120"/>
<text xml:space="preserve" text-anchor="start" x="311.5" y="-106.5" font-family="Helvetica,sans-Serif" font-size="10.00">UIrradianceScheduler</text>
<text xml:space="preserve" text-anchor="middle" x="371.5" y="-94.5" font-family="Helvetica,sans-Serif" font-size="10.00">::AdvanceTimeSlotOrFinish</text>
</a>
</g>
</g>
<!-- Node2&#45;&gt;Node3 -->
<g id="edge2_Node000002_Node000003" class="edge">
<title>Node2&#45;&gt;Node3</title>
<g id="a_edge2_Node000002_Node000003"><a xlink:title=" ">
<path fill="none" stroke="#63b8ff" d="M463.72,-86.06C455.7,-87.04 447.66,-88.09 439.86,-89.18"/>
<polygon fill="#63b8ff" stroke="#63b8ff" points="464,-89.55 473.52,-84.91 463.18,-82.6 464,-89.55"/>
</a>
</g>
</g>
<!-- Node4 -->
<g id="Node000004" class="node">
<title>Node4</title>
<g id="a_Node000004"><a xlink:href="class_u_irradiance_scheduler.html#ac79a70849af28bdcf62ac8214ccaeee5" target="_top" xlink:title="Handles a completed capture and advances the flow.">
<polygon fill="white" stroke="#666666" points="264.88,-101 148.38,-101 148.38,-69 264.88,-69 264.88,-101"/>
<text xml:space="preserve" text-anchor="start" x="156.38" y="-87.5" font-family="Helvetica,sans-Serif" font-size="10.00">UIrradianceScheduler</text>
<text xml:space="preserve" text-anchor="middle" x="206.62" y="-75.5" font-family="Helvetica,sans-Serif" font-size="10.00">::OnCaptureCompleted</text>
</a>
</g>
</g>
<!-- Node2&#45;&gt;Node4 -->
<g id="edge6_Node000002_Node000004" class="edge">
<title>Node2&#45;&gt;Node4</title>
<g id="a_edge6_Node000002_Node000004"><a xlink:title=" ">
<path fill="none" stroke="#63b8ff" d="M463.73,-79.08C416.24,-77.97 356.66,-77.34 303.5,-79 291.08,-79.39 277.77,-80.06 265.14,-80.81"/>
<polygon fill="#63b8ff" stroke="#63b8ff" points="463.62,-82.58 473.7,-79.32 463.79,-75.58 463.62,-82.58"/>
</a>
</g>
</g>
<!-- Node6 -->
<g id="Node000006" class="node">
<title>Node6</title>
<g id="a_Node000006"><a xlink:href="class_u_irradiance_scheduler.html#a820fe9375420d4934dd45811ba7a419e" target="_top" xlink:title="Starts a full time&#45;series simulation using the given configuration.">
<polygon fill="white" stroke="#666666" points="426.38,-32 316.62,-32 316.62,0 426.38,0 426.38,-32"/>
<text xml:space="preserve" text-anchor="start" x="324.62" y="-18.5" font-family="Helvetica,sans-Serif" font-size="10.00">UIrradianceScheduler</text>
<text xml:space="preserve" text-anchor="middle" x="371.5" y="-6.5" font-family="Helvetica,sans-Serif" font-size="10.00">::StartSimulation</text>
</a>
</g>
</g>
<!-- Node2&#45;&gt;Node6 -->
<g id="edge7_Node000002_Node000006" class="edge">
<title>Node2&#45;&gt;Node6</title>
<g id="a_edge7_Node000002_Node000006"><a xlink:title=" ">
<path fill="none" stroke="#63b8ff" d="M496.44,-61.6C470.92,-52.21 441.06,-41.23 417.04,-32.39"/>
<polygon fill="#63b8ff" stroke="#63b8ff" points="495.06,-64.82 505.65,-64.99 497.48,-58.26 495.06,-64.82"/>
</a>
</g>
</g>
<!-- Node3&#45;&gt;Node2 -->
<g id="edge3_Node000003_Node000002" class="edge">
<title>Node3&#45;&gt;Node2</title>
<g id="a_edge3_Node000003_Node000002"><a xlink:title=" ">
<path fill="none" stroke="#63b8ff" d="M451.29,-101.04C459.17,-100.14 467.17,-99.15 475.02,-98.11"/>
<polygon fill="#63b8ff" stroke="#63b8ff" points="450.92,-97.56 441.37,-102.13 451.69,-104.52 450.92,-97.56"/>
</a>
</g>
</g>
<!-- Node3&#45;&gt;Node4 -->
<g id="edge4_Node000003_Node000004" class="edge">
<title>Node3&#45;&gt;Node4</title>
<g id="a_edge4_Node000003_Node000004"><a xlink:title=" ">
<path fill="none" stroke="#63b8ff" d="M291.98,-94.84C282.99,-93.79 273.95,-92.74 265.31,-91.73"/>
<polygon fill="#63b8ff" stroke="#63b8ff" points="291.47,-98.3 301.81,-95.99 292.28,-91.35 291.47,-98.3"/>
</a>
</g>
</g>
<!-- Node5 -->
<g id="Node000005" class="node">
<title>Node5</title>
<g id="a_Node000005"><a xlink:href="class_u_irradiance_scheduler.html#a46ab4ac00573e109d595d80669a8e156" target="_top" xlink:title=" ">
<polygon fill="white" stroke="#666666" points="109.75,-101 0,-101 0,-69 109.75,-69 109.75,-101"/>
<text xml:space="preserve" text-anchor="start" x="8" y="-87.5" font-family="Helvetica,sans-Serif" font-size="10.00">UIrradianceScheduler</text>
<text xml:space="preserve" text-anchor="middle" x="54.88" y="-75.5" font-family="Helvetica,sans-Serif" font-size="10.00">::Tick</text>
</a>
</g>
</g>
<!-- Node4&#45;&gt;Node5 -->
<g id="edge5_Node000004_Node000005" class="edge">
<title>Node4&#45;&gt;Node5</title>
<g id="a_edge5_Node000004_Node000005"><a xlink:title=" ">
<path fill="none" stroke="#63b8ff" d="M136.85,-85C127.84,-85 118.71,-85 109.99,-85"/>
<polygon fill="#63b8ff" stroke="#63b8ff" points="136.64,-88.5 146.64,-85 136.64,-81.5 136.64,-88.5"/>
</a>
</g>
</g>
<!-- Node7 -->
<g id="Node000007" class="node">
<title>Node7</title>
<g id="a_Node000007"><a xlink:href="class_u_irradiance_scheduler.html#acad46ea7c860e2a972fb7debd56651e9" target="_top" xlink:title=" ">
<polygon fill="white" stroke="#666666" points="267.5,-32 145.75,-32 145.75,0 267.5,0 267.5,-32"/>
<text xml:space="preserve" text-anchor="start" x="153.75" y="-18.5" font-family="Helvetica,sans-Serif" font-size="10.00">UIrradianceScheduler</text>
<text xml:space="preserve" text-anchor="middle" x="206.62" y="-6.5" font-family="Helvetica,sans-Serif" font-size="10.00">::~UIrradianceScheduler</text>
</a>
</g>
</g>
<!-- Node6&#45;&gt;Node7 -->
<g id="edge8_Node000006_Node000007" class="edge">
<title>Node6&#45;&gt;Node7</title>
<g id="a_edge8_Node000006_Node000007"><a xlink:title=" ">
<path fill="none" stroke="#63b8ff" d="M305.12,-16C292.79,-16 279.96,-16 267.8,-16"/>
<polygon fill="#63b8ff" stroke="#63b8ff" points="304.75,-19.5 314.75,-16 304.75,-12.5 304.75,-19.5"/>
</a>
</g>
</g>
</g>
</svg>
