<?xml version="1.0" encoding="UTF-8" standalone="no"?>
<!DOCTYPE svg PUBLIC "-//W3C//DTD SVG 1.1//EN"
 "http://www.w3.org/Graphics/SVG/1.1/DTD/svg11.dtd">
<!-- Generated by graphviz version 14.1.0 (20251206.1807)
 -->
<!-- Title: FPyranoClearSkyIrradiance Pages: 1 -->
<svg width="136pt" height="92pt"
 viewBox="0.00 0.00 136.00 92.00" xmlns="http://www.w3.org/2000/svg" xmlns:xlink="http://www.w3.org/1999/xlink">
<g id="graph0" class="graph" transform="scale(1 1) rotate(0) translate(4 88)">
<title>FPyranoClearSkyIrradiance</title>
<!-- Node1 -->
<g id="Node000001" class="node">
<title>Node1</title>
<g id="a_Node000001"><a xlink:title=" ">
<polygon fill="#999999" stroke="none" points="128,-84 0,-84 0,0 128,0 128,-84"/>
<text xml:space="preserve" text-anchor="start" x="4" y="-70.5" font-family="Helvetica,sans-Serif" font-size="10.00">FPyranoClearSkyIrradiance</text>
<text xml:space="preserve" text-anchor="start" x="10.69" y="-54.5" font-family="Helvetica,sans-Serif" font-size="10.00">+</text>
<text xml:space="preserve" text-anchor="start" x="27.38" y="-54.5" font-family="Helvetica,sans-Serif" font-size="10.00">double DNI_Wm2</text>
<text xml:space="preserve" text-anchor="start" x="10.69" y="-38.5" font-family="Helvetica,sans-Serif" font-size="10.00">+</text>
<text xml:space="preserve" text-anchor="start" x="27.38" y="-38.5" font-family="Helvetica,sans-Serif" font-size="10.00">double DHI_Wm2</text>
<text xml:space="preserve" text-anchor="start" x="10.69" y="-22.5" font-family="Helvetica,sans-Serif" font-size="10.00">+</text>
<text xml:space="preserve" text-anchor="start" x="27.38" y="-22.5" font-family="Helvetica,sans-Serif" font-size="10.00">double GHI_Wm2</text>
<text xml:space="preserve" text-anchor="start" x="10.69" y="-6.5" font-family="Helvetica,sans-Serif" font-size="10.00">+</text>
<text xml:space="preserve" text-anchor="start" x="27.38" y="-6.5" font-family="Helvetica,sans-Serif" font-size="10.00">bool IsValid() const</text>
<polygon fill="#666666" stroke="#666666" points="0,-66 0,-66 128,-66 128,-66 0,-66"/>
<polygon fill="#666666" stroke="#666666" points="0,-18 0,-18 25.38,-18 25.38,-18 0,-18"/>
<polygon fill="#666666" stroke="#666666" points="25.38,-18 25.38,-18 128,-18 128,-18 25.38,-18"/>
<polygon fill="none" stroke="#666666" points="0,0 0,-84 128,-84 128,0 0,0"/>
</a>
</g>
</g>
</g>
</svg>
