<?xml version="1.0" encoding="UTF-8" standalone="no"?>
<!DOCTYPE svg PUBLIC "-//W3C//DTD SVG 1.1//EN"
 "http://www.w3.org/Graphics/SVG/1.1/DTD/svg11.dtd">
<!-- Generated by graphviz version 14.1.0 (20251206.1807)
 -->
<!-- Title: FIrradianceCVarState Pages: 1 -->
<svg width="110pt" height="116pt"
 viewBox="0.00 0.00 110.00 116.00" xmlns="http://www.w3.org/2000/svg" xmlns:xlink="http://www.w3.org/1999/xlink">
<g id="graph0" class="graph" transform="scale(1 1) rotate(0) translate(4 112)">
<title>FIrradianceCVarState</title>
<!-- Node1 -->
<g id="Node000001" class="node">
<title>Node1</title>
<g id="a_Node000001"><a xlink:title=" ">
<polygon fill="#999999" stroke="none" points="101.75,-108 0,-108 0,0 101.75,0 101.75,-108"/>
<text xml:space="preserve" text-anchor="start" x="4" y="-94.5" font-family="Helvetica,sans-Serif" font-size="10.00">FIrradianceCVarState</text>
<text xml:space="preserve" text-anchor="start" x="4.69" y="-78.5" font-family="Helvetica,sans-Serif" font-size="10.00">+</text>
<text xml:space="preserve" text-anchor="start" x="15.38" y="-78.5" font-family="Helvetica,sans-Serif" font-size="10.00">FString Name</text>
<text xml:space="preserve" text-anchor="start" x="4.69" y="-62.5" font-family="Helvetica,sans-Serif" font-size="10.00">+</text>
<text xml:space="preserve" text-anchor="start" x="15.38" y="-62.5" font-family="Helvetica,sans-Serif" font-size="10.00">TOptional&lt; int32 &gt;</text>
<text xml:space="preserve" text-anchor="start" x="15.38" y="-50.5" font-family="Helvetica,sans-Serif" font-size="10.00"> IntValue</text>
<text xml:space="preserve" text-anchor="start" x="4.69" y="-34.5" font-family="Helvetica,sans-Serif" font-size="10.00">+</text>
<text xml:space="preserve" text-anchor="start" x="15.38" y="-34.5" font-family="Helvetica,sans-Serif" font-size="10.00">TOptional&lt; float &gt;</text>
<text xml:space="preserve" text-anchor="start" x="15.38" y="-22.5" font-family="Helvetica,sans-Serif" font-size="10.00"> FloatValue</text>
<text xml:space="preserve" text-anchor="start" x="49.38" y="-6.5" font-family="Helvetica,sans-Serif" font-size="10.00"> </text>
<polygon fill="#666666" stroke="#666666" points="0,-90 0,-90 101.75,-90 101.75,-90 0,-90"/>
<polygon fill="#666666" stroke="#666666" points="0,-18 0,-18 13.38,-18 13.38,-18 0,-18"/>
<polygon fill="#666666" stroke="#666666" points="13.38,-18 13.38,-18 101.75,-18 101.75,-18 13.38,-18"/>
<polygon fill="none" stroke="#666666" points="0,0 0,-108 101.75,-108 101.75,0 0,0"/>
</a>
</g>
</g>
</g>
</svg>
