<?xml version="1.0" encoding="UTF-8" standalone="no"?>
<!DOCTYPE svg PUBLIC "-//W3C//DTD SVG 1.1//EN"
 "http://www.w3.org/Graphics/SVG/1.1/DTD/svg11.dtd">
<!-- Generated by graphviz version 14.1.0 (20251206.1807)
 -->
<!-- Title: FCaptureRequest::FCaptureRequest Pages: 1 -->
<svg width="1213pt" height="256pt"
 viewBox="0.00 0.00 1213.00 256.00" xmlns="http://www.w3.org/2000/svg" xmlns:xlink="http://www.w3.org/1999/xlink">
<g id="graph0" class="graph" transform="scale(1 1) rotate(0) translate(4 252)">
<title>FCaptureRequest::FCaptureRequest</title>
<!-- Node1 -->
<g id="Node000001" class="node">
<title>Node1</title>
<g id="a_Node000001"><a xlink:title=" ">
<polygon fill="#999999" stroke="#666666" points="1204.75,-140 1065,-140 1065,-108 1204.75,-108 1204.75,-140"/>
<text xml:space="preserve" text-anchor="start" x="1073" y="-126.5" font-family="Helvetica,sans-Serif" font-size="10.00">FCaptureRequest::FCapture</text>
<text xml:space="preserve" text-anchor="middle" x="1134.88" y="-114.5" font-family="Helvetica,sans-Serif" font-size="10.00">Request</text>
</a>
</g>
</g>
<!-- Node2 -->
<g id="Node000002" class="node">
<title>Node2</title>
<g id="a_Node000002"><a xlink:href="struct_f_capture_request.html#ae17362dae77f57d0c2245cecef01b38b" target="_top" xlink:title="Factory method.">
<polygon fill="white" stroke="#666666" points="1011.38,-248 888.12,-248 888.12,-228 1011.38,-228 1011.38,-248"/>
<text xml:space="preserve" text-anchor="middle" x="949.75" y="-234.5" font-family="Helvetica,sans-Serif" font-size="10.00">FCaptureRequest::Make</text>
</a>
</g>
</g>
<!-- Node1&#45;&gt;Node2 -->
<g id="edge1_Node000001_Node000002" class="edge">
<title>Node1&#45;&gt;Node2</title>
<g id="a_edge1_Node000001_Node000002"><a xlink:title=" ">
<path fill="none" stroke="#63b8ff" d="M1113.04,-148.87C1093.52,-170.59 1062.39,-201.31 1029,-219 1022.58,-222.4 1015.53,-225.21 1008.39,-227.52"/>
<polygon fill="#63b8ff" stroke="#63b8ff" points="1115.46,-151.43 1119.43,-141.61 1110.2,-146.81 1115.46,-151.43"/>
</a>
</g>
</g>
<!-- Node11 -->
<g id="Node000011" class="node">
<title>Node11</title>
<g id="a_Node000011"><a xlink:href="struct_f_capture_request.html#a1fc3444f926b7d505f8d23390c2d20ec" target="_top" xlink:title=" ">
<polygon fill="white" stroke="#666666" points="1021.5,-210 878,-210 878,-190 1021.5,-190 1021.5,-210"/>
<text xml:space="preserve" text-anchor="middle" x="949.75" y="-196.5" font-family="Helvetica,sans-Serif" font-size="10.00">FCaptureRequest::operator!=</text>
</a>
</g>
</g>
<!-- Node1&#45;&gt;Node11 -->
<g id="edge13_Node000001_Node000011" class="edge">
<title>Node1&#45;&gt;Node11</title>
<g id="a_edge13_Node000001_Node000011"><a xlink:title=" ">
<path fill="none" stroke="#63b8ff" d="M1098.26,-146.37C1078.46,-158.02 1053.04,-171.73 1029,-181 1020.52,-184.27 1011.3,-187.1 1002.27,-189.51"/>
<polygon fill="#63b8ff" stroke="#63b8ff" points="1099.98,-149.42 1106.76,-141.28 1096.39,-143.41 1099.98,-149.42"/>
</a>
</g>
</g>
<!-- Node12 -->
<g id="Node000012" class="node">
<title>Node12</title>
<g id="a_Node000012"><a xlink:href="struct_f_capture_request.html#a52ea0d0da626c14f6ea987b6a21bce86" target="_top" xlink:title=" ">
<polygon fill="white" stroke="#666666" points="1023,-172 876.5,-172 876.5,-152 1023,-152 1023,-172"/>
<text xml:space="preserve" text-anchor="middle" x="949.75" y="-158.5" font-family="Helvetica,sans-Serif" font-size="10.00">FCaptureRequest::operator==</text>
</a>
</g>
</g>
<!-- Node1&#45;&gt;Node12 -->
<g id="edge14_Node000001_Node000012" class="edge">
<title>Node1&#45;&gt;Node12</title>
<g id="a_edge14_Node000001_Node000012"><a xlink:title=" ">
<path fill="none" stroke="#63b8ff" d="M1053.4,-140.7C1035.68,-144.38 1017.39,-148.17 1001.24,-151.52"/>
<polygon fill="#63b8ff" stroke="#63b8ff" points="1054.08,-144.13 1063.16,-138.67 1052.66,-137.28 1054.08,-144.13"/>
</a>
</g>
</g>
<!-- Node13 -->
<g id="Node000013" class="node">
<title>Node13</title>
<g id="a_Node000013"><a xlink:href="struct_f_capture_request.html#a753b6add0706d10eb25fd531a1a3a1cd" target="_top" xlink:title=" ">
<polygon fill="white" stroke="#666666" points="1029,-134 870.5,-134 870.5,-114 1029,-114 1029,-134"/>
<text xml:space="preserve" text-anchor="middle" x="949.75" y="-120.5" font-family="Helvetica,sans-Serif" font-size="10.00">FCaptureRequest::WithSensorId</text>
</a>
</g>
</g>
<!-- Node1&#45;&gt;Node13 -->
<g id="edge15_Node000001_Node000013" class="edge">
<title>Node1&#45;&gt;Node13</title>
<g id="a_edge15_Node000001_Node000013"><a xlink:title=" ">
<path fill="none" stroke="#63b8ff" d="M1053.14,-124C1045.22,-124 1037.19,-124 1029.29,-124"/>
<polygon fill="#63b8ff" stroke="#63b8ff" points="1053.13,-127.5 1063.13,-124 1053.13,-120.5 1053.13,-127.5"/>
</a>
</g>
</g>
<!-- Node14 -->
<g id="Node000014" class="node">
<title>Node14</title>
<g id="a_Node000014"><a xlink:href="struct_f_capture_request.html#a84cbc993d0ae532f452119452f0f472f" target="_top" xlink:title=" ">
<polygon fill="white" stroke="#666666" points="1025.25,-96 874.25,-96 874.25,-76 1025.25,-76 1025.25,-96"/>
<text xml:space="preserve" text-anchor="middle" x="949.75" y="-82.5" font-family="Helvetica,sans-Serif" font-size="10.00">FCaptureRequest::WithSidePx</text>
</a>
</g>
</g>
<!-- Node1&#45;&gt;Node14 -->
<g id="edge16_Node000001_Node000014" class="edge">
<title>Node1&#45;&gt;Node14</title>
<g id="a_edge16_Node000001_Node000014"><a xlink:title=" ">
<path fill="none" stroke="#63b8ff" d="M1053.4,-107.3C1035.68,-103.62 1017.39,-99.83 1001.24,-96.48"/>
<polygon fill="#63b8ff" stroke="#63b8ff" points="1052.66,-110.72 1063.16,-109.33 1054.08,-103.87 1052.66,-110.72"/>
</a>
</g>
</g>
<!-- Node15 -->
<g id="Node000015" class="node">
<title>Node15</title>
<g id="a_Node000015"><a xlink:href="struct_f_capture_request.html#a5283a5b56514b3ae55663480e05d7980" target="_top" xlink:title=" ">
<polygon fill="white" stroke="#666666" points="834.5,-106 666.25,-106 666.25,-86 834.5,-86 834.5,-106"/>
<text xml:space="preserve" text-anchor="middle" x="750.38" y="-92.5" font-family="Helvetica,sans-Serif" font-size="10.00">FCaptureRequest::WithTimestamp</text>
</a>
</g>
</g>
<!-- Node1&#45;&gt;Node15 -->
<g id="edge17_Node000001_Node000015" class="edge">
<title>Node1&#45;&gt;Node15</title>
<g id="a_edge17_Node000001_Node000015"><a xlink:title=" ">
<path fill="none" stroke="#63b8ff" d="M1102.05,-101.25C1082.11,-88.43 1055.29,-73.68 1029,-67 941.88,-44.85 835.24,-70.03 783.12,-85.57"/>
<polygon fill="#63b8ff" stroke="#63b8ff" points="1100,-104.09 1110.27,-106.7 1103.87,-98.26 1100,-104.09"/>
</a>
</g>
</g>
<!-- Node16 -->
<g id="Node000016" class="node">
<title>Node16</title>
<g id="a_Node000016"><a xlink:href="struct_f_capture_request.html#ac62d025deaf7f4f00a1b5575373c1c4d" target="_top" xlink:title=" ">
<polygon fill="white" stroke="#666666" points="1027.5,-20 872,-20 872,0 1027.5,0 1027.5,-20"/>
<text xml:space="preserve" text-anchor="middle" x="949.75" y="-6.5" font-family="Helvetica,sans-Serif" font-size="10.00">FCaptureRequest::WithWarmup</text>
</a>
</g>
</g>
<!-- Node1&#45;&gt;Node16 -->
<g id="edge19_Node000001_Node000016" class="edge">
<title>Node1&#45;&gt;Node16</title>
<g id="a_edge19_Node000001_Node000016"><a xlink:title=" ">
<path fill="none" stroke="#63b8ff" d="M1111.24,-99.62C1091.32,-79.46 1060.63,-51.42 1029,-34 1018.79,-28.38 1007.1,-23.9 995.91,-20.4"/>
<polygon fill="#63b8ff" stroke="#63b8ff" points="1108.56,-101.89 1118.03,-106.63 1113.59,-97.02 1108.56,-101.89"/>
</a>
</g>
</g>
<!-- Node3 -->
<g id="Node000003" class="node">
<title>Node3</title>
<g id="a_Node000003"><a xlink:href="class_u_irradiance_scheduler.html#ac45df7ef85d6d364e7724f7e853a32c6" target="_top" xlink:title="Builds a capture request for the given sensor and simulation settings.">
<polygon fill="white" stroke="#666666" points="805.25,-230 695.5,-230 695.5,-198 805.25,-198 805.25,-230"/>
<text xml:space="preserve" text-anchor="start" x="703.5" y="-216.5" font-family="Helvetica,sans-Serif" font-size="10.00">UIrradianceScheduler</text>
<text xml:space="preserve" text-anchor="middle" x="750.38" y="-204.5" font-family="Helvetica,sans-Serif" font-size="10.00">::MakeRequest</text>
</a>
</g>
</g>
<!-- Node2&#45;&gt;Node3 -->
<g id="edge2_Node000002_Node000003" class="edge">
<title>Node2&#45;&gt;Node3</title>
<g id="a_edge2_Node000002_Node000003"><a xlink:title=" ">
<path fill="none" stroke="#63b8ff" d="M876.35,-229.2C852.92,-226.35 827.36,-223.24 805.5,-220.58"/>
<polygon fill="#63b8ff" stroke="#63b8ff" points="875.8,-232.66 886.15,-230.39 876.64,-225.71 875.8,-232.66"/>
</a>
</g>
</g>
<!-- Node4 -->
<g id="Node000004" class="node">
<title>Node4</title>
<g id="a_Node000004"><a xlink:href="class_u_irradiance_scheduler.html#a4395030c4e2b089982300a7d5cb43417" target="_top" xlink:title="Captures irradiance once at Sim.StartTime for all active sensors.">
<polygon fill="white" stroke="#666666" points="607.75,-230 498,-230 498,-198 607.75,-198 607.75,-230"/>
<text xml:space="preserve" text-anchor="start" x="506" y="-216.5" font-family="Helvetica,sans-Serif" font-size="10.00">UIrradianceScheduler</text>
<text xml:space="preserve" text-anchor="middle" x="552.88" y="-204.5" font-family="Helvetica,sans-Serif" font-size="10.00">::CaptureOnce</text>
</a>
</g>
</g>
<!-- Node3&#45;&gt;Node4 -->
<g id="edge3_Node000003_Node000004" class="edge">
<title>Node3&#45;&gt;Node4</title>
<g id="a_edge3_Node000003_Node000004"><a xlink:title=" ">
<path fill="none" stroke="#63b8ff" d="M683.77,-214C659.21,-214 631.6,-214 608.18,-214"/>
<polygon fill="#63b8ff" stroke="#63b8ff" points="683.66,-217.5 693.66,-214 683.66,-210.5 683.66,-217.5"/>
</a>
</g>
</g>
<!-- Node6 -->
<g id="Node000006" class="node">
<title>Node6</title>
<g id="a_Node000006"><a xlink:href="class_u_irradiance_scheduler.html#a2c93371fc51e45b8af73ce9b4d2c690a" target="_top" xlink:title="Launches the next capture for the current time slot and sensor index.">
<polygon fill="white" stroke="#666666" points="630.25,-136 475.5,-136 475.5,-104 630.25,-104 630.25,-136"/>
<text xml:space="preserve" text-anchor="start" x="483.5" y="-122.5" font-family="Helvetica,sans-Serif" font-size="10.00">UIrradianceScheduler</text>
<text xml:space="preserve" text-anchor="middle" x="552.88" y="-110.5" font-family="Helvetica,sans-Serif" font-size="10.00">::LaunchNextSimulationCapture</text>
</a>
</g>
</g>
<!-- Node3&#45;&gt;Node6 -->
<g id="edge5_Node000003_Node000006" class="edge">
<title>Node3&#45;&gt;Node6</title>
<g id="a_edge5_Node000003_Node000006"><a xlink:title=" ">
<path fill="none" stroke="#63b8ff" d="M705.22,-192.77C669.66,-175.67 620.4,-151.99 587.87,-136.34"/>
<polygon fill="#63b8ff" stroke="#63b8ff" points="703.43,-195.79 713.96,-196.97 706.46,-189.48 703.43,-195.79"/>
</a>
</g>
</g>
<!-- Node5 -->
<g id="Node000005" class="node">
<title>Node5</title>
<g id="a_Node000005"><a xlink:href="class_u_irradiance_scheduler.html#acad46ea7c860e2a972fb7debd56651e9" target="_top" xlink:title=" ">
<polygon fill="white" stroke="#666666" points="267.5,-208 145.75,-208 145.75,-176 267.5,-176 267.5,-208"/>
<text xml:space="preserve" text-anchor="start" x="153.75" y="-194.5" font-family="Helvetica,sans-Serif" font-size="10.00">UIrradianceScheduler</text>
<text xml:space="preserve" text-anchor="middle" x="206.62" y="-182.5" font-family="Helvetica,sans-Serif" font-size="10.00">::~UIrradianceScheduler</text>
</a>
</g>
</g>
<!-- Node4&#45;&gt;Node5 -->
<g id="edge4_Node000004_Node000005" class="edge">
<title>Node4&#45;&gt;Node5</title>
<g id="a_edge4_Node000004_Node000005"><a xlink:title=" ">
<path fill="none" stroke="#63b8ff" d="M486.33,-209.81C423.35,-205.79 328.97,-199.76 267.84,-195.85"/>
<polygon fill="#63b8ff" stroke="#63b8ff" points="485.99,-213.3 496.2,-210.44 486.44,-206.31 485.99,-213.3"/>
</a>
</g>
</g>
<!-- Node7 -->
<g id="Node000007" class="node">
<title>Node7</title>
<g id="a_Node000007"><a xlink:href="class_u_irradiance_scheduler.html#ab400b6f7f8c6768537088d0eca221f90" target="_top" xlink:title="Advances to the next time slot, or finalizes the simulation if finished.">
<polygon fill="white" stroke="#666666" points="439.5,-136 303.5,-136 303.5,-104 439.5,-104 439.5,-136"/>
<text xml:space="preserve" text-anchor="start" x="311.5" y="-122.5" font-family="Helvetica,sans-Serif" font-size="10.00">UIrradianceScheduler</text>
<text xml:space="preserve" text-anchor="middle" x="371.5" y="-110.5" font-family="Helvetica,sans-Serif" font-size="10.00">::AdvanceTimeSlotOrFinish</text>
</a>
</g>
</g>
<!-- Node6&#45;&gt;Node7 -->
<g id="edge6_Node000006_Node000007" class="edge">
<title>Node6&#45;&gt;Node7</title>
<g id="a_edge6_Node000006_Node000007"><a xlink:title=" ">
<path fill="none" stroke="#63b8ff" d="M463.72,-113.25C455.7,-113.24 447.66,-113.3 439.86,-113.44"/>
<polygon fill="#63b8ff" stroke="#63b8ff" points="463.49,-116.75 473.51,-113.3 463.53,-109.75 463.49,-116.75"/>
</a>
</g>
</g>
<!-- Node8 -->
<g id="Node000008" class="node">
<title>Node8</title>
<g id="a_Node000008"><a xlink:href="class_u_irradiance_scheduler.html#ac79a70849af28bdcf62ac8214ccaeee5" target="_top" xlink:title="Handles a completed capture and advances the flow.">
<polygon fill="white" stroke="#666666" points="264.88,-114 148.38,-114 148.38,-82 264.88,-82 264.88,-114"/>
<text xml:space="preserve" text-anchor="start" x="156.38" y="-100.5" font-family="Helvetica,sans-Serif" font-size="10.00">UIrradianceScheduler</text>
<text xml:space="preserve" text-anchor="middle" x="206.62" y="-88.5" font-family="Helvetica,sans-Serif" font-size="10.00">::OnCaptureCompleted</text>
</a>
</g>
</g>
<!-- Node6&#45;&gt;Node8 -->
<g id="edge10_Node000006_Node000008" class="edge">
<title>Node6&#45;&gt;Node8</title>
<g id="a_edge10_Node000006_Node000008"><a xlink:title=" ">
<path fill="none" stroke="#63b8ff" d="M478.16,-101.19C465.35,-98.62 452.1,-96.38 439.5,-95 379.42,-88.4 363.94,-94.05 303.5,-95 291.09,-95.19 277.79,-95.53 265.16,-95.91"/>
<polygon fill="#63b8ff" stroke="#63b8ff" points="477.29,-104.59 487.8,-103.22 478.73,-97.74 477.29,-104.59"/>
</a>
</g>
</g>
<!-- Node10 -->
<g id="Node000010" class="node">
<title>Node10</title>
<g id="a_Node000010"><a xlink:href="class_u_irradiance_scheduler.html#a820fe9375420d4934dd45811ba7a419e" target="_top" xlink:title="Starts a full time&#45;series simulation using the given configuration.">
<polygon fill="white" stroke="#666666" points="426.38,-186 316.62,-186 316.62,-154 426.38,-154 426.38,-186"/>
<text xml:space="preserve" text-anchor="start" x="324.62" y="-172.5" font-family="Helvetica,sans-Serif" font-size="10.00">UIrradianceScheduler</text>
<text xml:space="preserve" text-anchor="middle" x="371.5" y="-160.5" font-family="Helvetica,sans-Serif" font-size="10.00">::StartSimulation</text>
</a>
</g>
</g>
<!-- Node6&#45;&gt;Node10 -->
<g id="edge11_Node000006_Node000010" class="edge">
<title>Node6&#45;&gt;Node10</title>
<g id="a_edge11_Node000006_Node000010"><a xlink:title=" ">
<path fill="none" stroke="#63b8ff" d="M482.18,-139.43C463.8,-144.55 444.24,-150 426.81,-154.86"/>
<polygon fill="#63b8ff" stroke="#63b8ff" points="482.99,-142.83 491.68,-136.78 481.11,-136.09 482.99,-142.83"/>
</a>
</g>
</g>
<!-- Node7&#45;&gt;Node6 -->
<g id="edge7_Node000007_Node000006" class="edge">
<title>Node7&#45;&gt;Node6</title>
<g id="a_edge7_Node000007_Node000006"><a xlink:title=" ">
<path fill="none" stroke="#63b8ff" d="M451.29,-126.71C459.17,-126.77 467.17,-126.76 475.02,-126.69"/>
<polygon fill="#63b8ff" stroke="#63b8ff" points="451.42,-123.21 441.37,-126.58 451.33,-130.21 451.42,-123.21"/>
</a>
</g>
</g>
<!-- Node7&#45;&gt;Node8 -->
<g id="edge8_Node000007_Node000008" class="edge">
<title>Node7&#45;&gt;Node8</title>
<g id="a_edge8_Node000007_Node000008"><a xlink:title=" ">
<path fill="none" stroke="#63b8ff" d="M291.98,-109.39C282.99,-108.18 273.95,-106.96 265.31,-105.79"/>
<polygon fill="#63b8ff" stroke="#63b8ff" points="291.43,-112.85 301.81,-110.72 292.37,-105.91 291.43,-112.85"/>
</a>
</g>
</g>
<!-- Node9 -->
<g id="Node000009" class="node">
<title>Node9</title>
<g id="a_Node000009"><a xlink:href="class_u_irradiance_scheduler.html#a46ab4ac00573e109d595d80669a8e156" target="_top" xlink:title=" ">
<polygon fill="white" stroke="#666666" points="109.75,-114 0,-114 0,-82 109.75,-82 109.75,-114"/>
<text xml:space="preserve" text-anchor="start" x="8" y="-100.5" font-family="Helvetica,sans-Serif" font-size="10.00">UIrradianceScheduler</text>
<text xml:space="preserve" text-anchor="middle" x="54.88" y="-88.5" font-family="Helvetica,sans-Serif" font-size="10.00">::Tick</text>
</a>
</g>
</g>
<!-- Node8&#45;&gt;Node9 -->
<g id="edge9_Node000008_Node000009" class="edge">
<title>Node8&#45;&gt;Node9</title>
<g id="a_edge9_Node000008_Node000009"><a xlink:title=" ">
<path fill="none" stroke="#63b8ff" d="M136.85,-98C127.84,-98 118.71,-98 109.99,-98"/>
<polygon fill="#63b8ff" stroke="#63b8ff" points="136.64,-101.5 146.64,-98 136.64,-94.5 136.64,-101.5"/>
</a>
</g>
</g>
<!-- Node10&#45;&gt;Node5 -->
<g id="edge12_Node000010_Node000005" class="edge">
<title>Node10&#45;&gt;Node5</title>
<g id="a_edge12_Node000010_Node000005"><a xlink:title=" ">
<path fill="none" stroke="#63b8ff" d="M305.12,-178.83C292.79,-180.5 279.96,-182.23 267.8,-183.87"/>
<polygon fill="#63b8ff" stroke="#63b8ff" points="305.32,-182.34 314.77,-177.53 304.39,-175.4 305.32,-182.34"/>
</a>
</g>
</g>
<!-- Node15&#45;&gt;Node6 -->
<g id="edge18_Node000015_Node000006" class="edge">
<title>Node15&#45;&gt;Node6</title>
<g id="a_edge18_Node000015_Node000006"><a xlink:title=" ">
<path fill="none" stroke="#63b8ff" d="M654.57,-107.64C646.52,-108.63 638.45,-109.62 630.57,-110.58"/>
<polygon fill="#63b8ff" stroke="#63b8ff" points="654.9,-111.12 664.4,-106.43 654.04,-104.18 654.9,-111.12"/>
</a>
</g>
</g>
</g>
</svg>
