<?xml version="1.0" encoding="UTF-8" standalone="no"?>
<!DOCTYPE svg PUBLIC "-//W3C//DTD SVG 1.1//EN"
 "http://www.w3.org/Graphics/SVG/1.1/DTD/svg11.dtd">
<!-- Generated by graphviz version 14.1.0 (20251206.1807)
 -->
<!-- Title: FCaptureContext::Begin Pages: 1 -->
<svg width="318pt" height="78pt"
 viewBox="0.00 0.00 318.00 78.00" xmlns="http://www.w3.org/2000/svg" xmlns:xlink="http://www.w3.org/1999/xlink">
<g id="graph0" class="graph" transform="scale(1 1) rotate(0) translate(4 74)">
<title>FCaptureContext::Begin</title>
<!-- Node1 -->
<g id="Node000001" class="node">
<title>Node1</title>
<g id="a_Node000001"><a xlink:title="Initialize the context with a new request and reset all state.">
<polygon fill="#999999" stroke="#666666" points="121.75,-42 0,-42 0,-22 121.75,-22 121.75,-42"/>
<text xml:space="preserve" text-anchor="middle" x="60.88" y="-28.5" font-family="Helvetica,sans-Serif" font-size="10.00">FCaptureContext::Begin</text>
</a>
</g>
</g>
<!-- Node2 -->
<g id="Node000002" class="node">
<title>Node2</title>
<g id="a_Node000002"><a xlink:href="namespace_irradiance_common_1_1_utils.html#a186b825c0501eec06143b3b197ef5dbd" target="_top" xlink:title="Returns view rotations for the +X/&#45;X/+Y/&#45;Y/+Z/&#45;Z cubemap faces.">
<polygon fill="white" stroke="#666666" points="309.5,-70 157.75,-70 157.75,-38 309.5,-38 309.5,-70"/>
<text xml:space="preserve" text-anchor="start" x="165.75" y="-56.5" font-family="Helvetica,sans-Serif" font-size="10.00">IrradianceCommon::Utils</text>
<text xml:space="preserve" text-anchor="middle" x="233.62" y="-44.5" font-family="Helvetica,sans-Serif" font-size="10.00">::GenerateCubemapFaceQuats</text>
</a>
</g>
</g>
<!-- Node1&#45;&gt;Node2 -->
<g id="edge1_Node000001_Node000002" class="edge">
<title>Node1&#45;&gt;Node2</title>
<g id="a_edge1_Node000001_Node000002"><a xlink:title=" ">
<path fill="none" stroke="#63b8ff" d="M122.08,-39.76C129.84,-40.76 137.91,-41.8 146,-42.84"/>
<polygon fill="#63b8ff" stroke="#63b8ff" points="145.54,-46.31 155.91,-44.12 146.44,-39.37 145.54,-46.31"/>
</a>
</g>
</g>
<!-- Node3 -->
<g id="Node000003" class="node">
<title>Node3</title>
<g id="a_Node000003"><a xlink:href="struct_f_capture_context.html#a3d5e5da9a8a7086472b65c746bdd61f8" target="_top" xlink:title="Completely reset the context.">
<polygon fill="white" stroke="#666666" points="295.25,-20 172,-20 172,0 295.25,0 295.25,-20"/>
<text xml:space="preserve" text-anchor="middle" x="233.62" y="-6.5" font-family="Helvetica,sans-Serif" font-size="10.00">FCaptureContext::Reset</text>
</a>
</g>
</g>
<!-- Node1&#45;&gt;Node3 -->
<g id="edge2_Node000001_Node000003" class="edge">
<title>Node1&#45;&gt;Node3</title>
<g id="a_edge2_Node000001_Node000003"><a xlink:title=" ">
<path fill="none" stroke="#63b8ff" d="M122.08,-24.24C134.48,-22.65 147.66,-20.95 160.43,-19.3"/>
<polygon fill="#63b8ff" stroke="#63b8ff" points="160.56,-22.81 170.03,-18.07 159.66,-15.87 160.56,-22.81"/>
</a>
</g>
</g>
</g>
</svg>
