<?xml version="1.0" encoding="UTF-8" standalone="no"?>
<!DOCTYPE svg PUBLIC "-//W3C//DTD SVG 1.1//EN"
 "http://www.w3.org/Graphics/SVG/1.1/DTD/svg11.dtd">
<!-- Generated by graphviz version 14.1.0 (20251206.1807)
 -->
<!-- Title: FCaptureRequest::IsValid Pages: 1 -->
<svg width="312pt" height="90pt"
 viewBox="0.00 0.00 312.00 90.00" xmlns="http://www.w3.org/2000/svg" xmlns:xlink="http://www.w3.org/1999/xlink">
<g id="graph0" class="graph" transform="scale(1 1) rotate(0) translate(4 86)">
<title>FCaptureRequest::IsValid</title>
<!-- Node1 -->
<g id="Node000001" class="node">
<title>Node1</title>
<g id="a_Node000001"><a xlink:title=" ">
<polygon fill="#999999" stroke="#666666" points="304.25,-51 175.75,-51 175.75,-31 304.25,-31 304.25,-51"/>
<text xml:space="preserve" text-anchor="middle" x="240" y="-37.5" font-family="Helvetica,sans-Serif" font-size="10.00">FCaptureRequest::IsValid</text>
</a>
</g>
</g>
<!-- Node2 -->
<g id="Node000002" class="node">
<title>Node2</title>
<g id="a_Node000002"><a xlink:href="struct_f_capture_request.html#aa256477fbc1ab0043e414f13b56564ef" target="_top" xlink:title=" ">
<polygon fill="white" stroke="#666666" points="139.75,-82 0,-82 0,-50 139.75,-50 139.75,-82"/>
<text xml:space="preserve" text-anchor="start" x="8" y="-68.5" font-family="Helvetica,sans-Serif" font-size="10.00">FCaptureRequest::FCapture</text>
<text xml:space="preserve" text-anchor="middle" x="69.88" y="-56.5" font-family="Helvetica,sans-Serif" font-size="10.00">Request</text>
</a>
</g>
</g>
<!-- Node1&#45;&gt;Node2 -->
<g id="edge1_Node000001_Node000002" class="edge">
<title>Node1&#45;&gt;Node2</title>
<g id="a_edge1_Node000001_Node000002"><a xlink:title=" ">
<path fill="none" stroke="#63b8ff" d="M164.22,-52.12C156.21,-53.31 148.09,-54.52 140.15,-55.7"/>
<polygon fill="#63b8ff" stroke="#63b8ff" points="164.57,-55.61 173.94,-50.67 163.54,-48.68 164.57,-55.61"/>
</a>
</g>
</g>
<!-- Node3 -->
<g id="Node000003" class="node">
<title>Node3</title>
<g id="a_Node000003"><a xlink:href="class_u_irradiance_subsystem.html#a1ea6ae410e0b596d1500aeacaf2b2110" target="_top" xlink:title="Begin a new 6&#45;face capture using the given request description.">
<polygon fill="white" stroke="#666666" points="127.75,-32 12,-32 12,0 127.75,0 127.75,-32"/>
<text xml:space="preserve" text-anchor="start" x="20" y="-18.5" font-family="Helvetica,sans-Serif" font-size="10.00">UIrradianceSubsystem</text>
<text xml:space="preserve" text-anchor="middle" x="69.88" y="-6.5" font-family="Helvetica,sans-Serif" font-size="10.00">::StartSixFaceCapture</text>
</a>
</g>
</g>
<!-- Node1&#45;&gt;Node3 -->
<g id="edge2_Node000001_Node000003" class="edge">
<title>Node1&#45;&gt;Node3</title>
<g id="a_edge2_Node000001_Node000003"><a xlink:title=" ">
<path fill="none" stroke="#63b8ff" d="M164.39,-29.9C152.24,-28.1 139.82,-26.25 128.17,-24.52"/>
<polygon fill="#63b8ff" stroke="#63b8ff" points="163.54,-33.32 173.94,-31.33 164.57,-26.39 163.54,-33.32"/>
</a>
</g>
</g>
</g>
</svg>
