<?xml version="1.0" encoding="UTF-8" standalone="no"?>
<!DOCTYPE svg PUBLIC "-//W3C//DTD SVG 1.1//EN"
 "http://www.w3.org/Graphics/SVG/1.1/DTD/svg11.dtd">
<!-- Generated by graphviz version 14.1.0 (20251206.1807)
 -->
<!-- Title: FPyranoConsoleRawLine Pages: 1 -->
<svg width="127pt" height="120pt"
 viewBox="0.00 0.00 127.00 120.00" xmlns="http://www.w3.org/2000/svg" xmlns:xlink="http://www.w3.org/1999/xlink">
<g id="graph0" class="graph" transform="scale(1 1) rotate(0) translate(4 116)">
<title>FPyranoConsoleRawLine</title>
<!-- Node1 -->
<g id="Node000001" class="node">
<title>Node1</title>
<g id="a_Node000001"><a xlink:title=" ">
<polygon fill="#999999" stroke="none" points="119,-112 0,-112 0,0 119,0 119,-112"/>
<text xml:space="preserve" text-anchor="start" x="4" y="-98.5" font-family="Helvetica,sans-Serif" font-size="10.00">FPyranoConsoleRawLine</text>
<text xml:space="preserve" text-anchor="start" x="4.31" y="-82.5" font-family="Helvetica,sans-Serif" font-size="10.00">+</text>
<text xml:space="preserve" text-anchor="start" x="14.62" y="-82.5" font-family="Helvetica,sans-Serif" font-size="10.00">FString Text</text>
<text xml:space="preserve" text-anchor="start" x="4.31" y="-66.5" font-family="Helvetica,sans-Serif" font-size="10.00">+</text>
<text xml:space="preserve" text-anchor="start" x="14.62" y="-66.5" font-family="Helvetica,sans-Serif" font-size="10.00">ELogVerbosity::Type</text>
<text xml:space="preserve" text-anchor="start" x="14.62" y="-54.5" font-family="Helvetica,sans-Serif" font-size="10.00"> Verbosity</text>
<text xml:space="preserve" text-anchor="start" x="4.31" y="-38.5" font-family="Helvetica,sans-Serif" font-size="10.00">+</text>
<text xml:space="preserve" text-anchor="start" x="14.62" y="-38.5" font-family="Helvetica,sans-Serif" font-size="10.00">FName Category</text>
<text xml:space="preserve" text-anchor="start" x="4.31" y="-22.5" font-family="Helvetica,sans-Serif" font-size="10.00">+</text>
<text xml:space="preserve" text-anchor="start" x="14.62" y="-22.5" font-family="Helvetica,sans-Serif" font-size="10.00">FDateTime Timestamp</text>
<text xml:space="preserve" text-anchor="start" x="58" y="-6.5" font-family="Helvetica,sans-Serif" font-size="10.00"> </text>
<polygon fill="#666666" stroke="#666666" points="0,-94 0,-94 119,-94 119,-94 0,-94"/>
<polygon fill="#666666" stroke="#666666" points="0,-18 0,-18 12.62,-18 12.62,-18 0,-18"/>
<polygon fill="#666666" stroke="#666666" points="12.62,-18 12.62,-18 119,-18 119,-18 12.62,-18"/>
<polygon fill="none" stroke="#666666" points="0,0 0,-112 119,-112 119,0 0,0"/>
</a>
</g>
</g>
</g>
</svg>
