<?xml version="1.0" encoding="UTF-8" standalone="no"?>
<!DOCTYPE svg PUBLIC "-//W3C//DTD SVG 1.1//EN"
 "http://www.w3.org/Graphics/SVG/1.1/DTD/svg11.dtd">
<!-- Generated by graphviz version 14.1.0 (20251206.1807)
 -->
<!-- Title: anonymous_namespace{IrradianceConfiguration.cpp}::FFloatCVarOverride Pages: 1 -->
<svg width="141pt" height="100pt"
 viewBox="0.00 0.00 141.00 100.00" xmlns="http://www.w3.org/2000/svg" xmlns:xlink="http://www.w3.org/1999/xlink">
<g id="graph0" class="graph" transform="scale(1 1) rotate(0) translate(4 96)">
<title>anonymous_namespace{IrradianceConfiguration.cpp}::FFloatCVarOverride</title>
<!-- Node1 -->
<g id="Node000001" class="node">
<title>Node1</title>
<g id="a_Node000001"><a xlink:title=" ">
<polygon fill="#999999" stroke="none" points="133.25,-92 0,-92 0,0 133.25,0 133.25,-92"/>
<text xml:space="preserve" text-anchor="start" x="4" y="-78.5" font-family="Helvetica,sans-Serif" font-size="10.00">anonymous_namespace</text>
<text xml:space="preserve" text-anchor="start" x="4" y="-66.5" font-family="Helvetica,sans-Serif" font-size="10.00">{IrradianceConfiguration.cpp}</text>
<text xml:space="preserve" text-anchor="start" x="20.5" y="-54.5" font-family="Helvetica,sans-Serif" font-size="10.00">::FFloatCVarOverride</text>
<text xml:space="preserve" text-anchor="start" x="8.44" y="-38.5" font-family="Helvetica,sans-Serif" font-size="10.00">+</text>
<text xml:space="preserve" text-anchor="start" x="22.88" y="-38.5" font-family="Helvetica,sans-Serif" font-size="10.00">const TCHAR * Name</text>
<text xml:space="preserve" text-anchor="start" x="8.44" y="-22.5" font-family="Helvetica,sans-Serif" font-size="10.00">+</text>
<text xml:space="preserve" text-anchor="start" x="22.88" y="-22.5" font-family="Helvetica,sans-Serif" font-size="10.00">float Value</text>
<text xml:space="preserve" text-anchor="start" x="65.12" y="-6.5" font-family="Helvetica,sans-Serif" font-size="10.00"> </text>
<polygon fill="#666666" stroke="#666666" points="0,-50 0,-50 133.25,-50 133.25,-50 0,-50"/>
<polygon fill="#666666" stroke="#666666" points="0,-18 0,-18 20.88,-18 20.88,-18 0,-18"/>
<polygon fill="#666666" stroke="#666666" points="20.88,-18 20.88,-18 133.25,-18 133.25,-18 20.88,-18"/>
<polygon fill="none" stroke="#666666" points="0,0 0,-92 133.25,-92 133.25,0 0,0"/>
</a>
</g>
</g>
</g>
</svg>
